<?xml version="1.0" encoding="UTF-8"?>
<svg width="1442px" height="796px" viewBox="0 0 1442 796" version="1.1" xmlns="http://www.w3.org/2000/svg" xmlns:xlink="http://www.w3.org/1999/xlink">
    <g id="Page-1" stroke="none" stroke-width="1" fill="none" fill-rule="evenodd">
        <g id="bg-line-t" transform="translate(0.000000, 1.000000)">
            <path d="M1.1,0.3 C45.4,36.2 348.5,546.4 376.8,546.4 C395.7,546.4 654.5,572.7 1153.4,625.3 L1441.1,196.1" id="Path" stroke="#3E647D" stroke-dasharray="5,10"></path>
            <path d="M0.658107841,10.3 L33.4056266,10.3 C77.6331647,46.2 380.237381,556.4 408.491091,556.4 C427.360176,556.4 685.736854,582.7 1183.8208,635.3 C1297.97071,464.728525 1383.58315,336.799919 1440.65811,251.514182" id="Path-Copy-2" stroke="#3E647D" stroke-dasharray="5,10"></path>
            <path d="M1.1,20.3 C45.4,56.2 348.5,566.4 376.8,566.4 C395.7,566.4 654.5,592.7 1153.4,645.3 L1441.1,216.1 L1441.1,794.043017 L1,794.043017 L1.1,20.3 Z" id="Path-Copy" fill="#383838"></path>
        </g>
    </g>
</svg>