<?xml version="1.0" encoding="UTF-8"?>
<svg width="1444px" height="824px" viewBox="0 0 1444 824" version="1.1" xmlns="http://www.w3.org/2000/svg" xmlns:xlink="http://www.w3.org/1999/xlink">
    <g id="Page-1" stroke="none" stroke-width="1" fill="none" fill-rule="evenodd">
        <g id="bg-line-o">
            <path d="M0.5,274.1 C0.5,274.1 14.2,283.5 41.6,302.2 L100.2,288.2 C240.3,134.4 314.5,57.5 322.8,57.5 C331.1,57.5 612.6,104.7 1167.1,199.1 L1443.4,825.5" id="Path" stroke="#3E647D" stroke-dasharray="5,10"></path>
            <path d="M0.83357928,240.189843 C7.53849159,244.779839 18.7378683,252.439612 34.4317096,263.150372 L93.0317096,249.150372 C233.13171,95.3503725 510.743102,128.52293 519.043102,128.52293 C527.343102,128.52293 612.6,144.7 1167.1,239.1 L1308.45453,563.285217 L1444,579.293392" id="Path-Copy-2" stroke="#3E647D" stroke-dasharray="5,10"></path>
            <path d="M0.5,256.1 C0.5,256.1 14.2,265.5 41.6,284.2 L100.2,270.2 C240.3,116.4 314.5,39.5 322.8,39.5 C331.1,39.5 612.6,86.7 1167.1,181.1 L1443.4,807.5 L1443.4,0.215436339 L0,0.215436339 L0.5,256.1 Z" id="Path-Copy" fill="#383838"></path>
        </g>
    </g>
</svg>