<svg xmlns="http://www.w3.org/2000/svg" xmlns:xlink="http://www.w3.org/1999/xlink" version="1.1" x="0px" y="0px" viewBox="0 0 1984.3 1973.3" xml:space="preserve" enable-background="new 0 0 1984.3 1973.3">
  <view id="logo-view" preserveAspectRatio="xMidYMid meet" viewBox="16 15 349 313" zoomAndPan="magnify"/>
  <view id="logo-s-view" preserveAspectRatio="xMidYMid meet" viewBox="408 19 331 307" zoomAndPan="magnify"/>
  <view id="hellomoto-view" preserveAspectRatio="xMidYMid meet" viewBox="819 34 224 293" zoomAndPan="magnify"/>
  <view id="bg-line-o-view" preserveAspectRatio="xMidYMid meet" viewBox="18 433 1442 768" zoomAndPan="magnify"/>
  <view id="bg-line-t-view" preserveAspectRatio="xMidYMid meet" viewBox="52 1348 1440 625" zoomAndPan="magnify"/>
  <view id="i-upload-view" preserveAspectRatio="xMidYMid meet" viewBox="1119 51 23 16.8" zoomAndPan="magnify"/>
  <view id="i-download-view" preserveAspectRatio="xMidYMid meet" viewBox="1157 51 24 16.8" zoomAndPan="magnify"/>
  <view id="i-vulcan-view" preserveAspectRatio="xMidYMid meet" viewBox="1195 49 23 23" zoomAndPan="magnify"/>
  <view id="i-comment-view" preserveAspectRatio="xMidYMid meet" viewBox="1233 48 24 23" zoomAndPan="magnify"/>
  <view id="i-time-view" preserveAspectRatio="xMidYMid meet" viewBox="1271 48 24 24" zoomAndPan="magnify"/>
  <view id="i-fuck-view" preserveAspectRatio="xMidYMid meet" viewBox="1309 47 24 27" zoomAndPan="magnify"/>
  <view id="i-warn-view" preserveAspectRatio="xMidYMid meet" viewBox="1346 50 24.6 21" zoomAndPan="magnify"/>
  <view id="i-btc-view" preserveAspectRatio="xMidYMid meet" viewBox="1119 90 24 24" zoomAndPan="magnify"/>
  <view id="i-dna-view" preserveAspectRatio="xMidYMid meet" viewBox="1157 89 24 27" zoomAndPan="magnify"/>
  <view id="i-visa-view" preserveAspectRatio="xMidYMid meet" viewBox="1195 92 24 18" zoomAndPan="magnify"/>
  <view id="i-paypal-view" preserveAspectRatio="xMidYMid meet" viewBox="1233 95 24 18" zoomAndPan="magnify"/>
  <view id="i-human-view" preserveAspectRatio="xMidYMid meet" viewBox="1271 90 23 32" zoomAndPan="magnify"/>
  <view id="i-branch-view" preserveAspectRatio="xMidYMid meet" viewBox="1309 88 24 32" zoomAndPan="magnify"/>
  <view id="i-host-view" preserveAspectRatio="xMidYMid meet" viewBox="1346 85 23 31" zoomAndPan="magnify"/>
  <view id="i-li-view" preserveAspectRatio="xMidYMid meet" viewBox="1119 138 24 23" zoomAndPan="magnify"/>
  <view id="i-dev-view" preserveAspectRatio="xMidYMid meet" viewBox="1157 138 24 23" zoomAndPan="magnify"/>
  <view id="i-yt-view" preserveAspectRatio="xMidYMid meet" viewBox="1196 143 23 16" zoomAndPan="magnify"/>
  <view id="i-shit-view" preserveAspectRatio="xMidYMid meet" viewBox="1232 138 24 24" zoomAndPan="magnify"/>
  <view id="i-star-view" preserveAspectRatio="xMidYMid meet" viewBox="1271 139 22 23" zoomAndPan="magnify"/>
  <view id="i-cart-view" preserveAspectRatio="xMidYMid meet" viewBox="1308 137 25 28" zoomAndPan="magnify"/>
  <view id="i-dot-view" preserveAspectRatio="xMidYMid meet" viewBox="1346 142 20 20" zoomAndPan="magnify"/>
  <view id="i-dot-checked-view" preserveAspectRatio="xMidYMid meet" viewBox="1119 186 20 20" zoomAndPan="magnify"/>
  <view id="i-quote-view" preserveAspectRatio="xMidYMid meet" viewBox="1157 186 52 38" zoomAndPan="magnify"/>
  <view id="i-shape-t-view" preserveAspectRatio="xMidYMid meet" viewBox="1121 254 65 71" zoomAndPan="magnify"/>
  <view id="i-shape-h-view" preserveAspectRatio="xMidYMid meet" viewBox="1207 263 47 50" zoomAndPan="magnify"/>
  <view id="i-shape-c-view" preserveAspectRatio="xMidYMid meet" viewBox="1282 273 30 29" zoomAndPan="magnify"/>	
	
	<g><path id="Path" fill="none" stroke="#FFFFFF" stroke-width="3" d="M71.6 322.2c0 0-32.5 16.7-49.9-13.2 -17.4-29.9 13.2-49.9 13.2-49.9L96.3 224c0 0 56-28.8 57.6-101.6l0.5-70.8c0 0 1.9-36.5 36.5-36.5s36.5 36.5 36.5 36.5l-0.5 70.8c0 0-3.9 62.1 58.2 100l60.8 37.2c0 0 30.4 20.4 12.7 50 -17.7 29.7-50 12.7-50 12.7l-60.5-36.7c0 0-50.6-32.5-115 1.5L71.6 322.2z"/><path id="rF" fill="#FFFFFF" stroke="#FFFFFF" stroke-width="1.25" d="M245.1 283.6c-59.3-26.1-103.5-0.8-103.5-0.8s-46.8 26.8-66.7 37.4c-26.4 14.2-42.4 0.9-42.4 0.9l86.9-50C119.4 271.1 175.1 235.4 245.1 283.6zM103.8 220h-1.1c52.3-38.1 51.1-95.9 51.1-95.9s0.4-49.9 0.6-72.5S173.6 19 173.6 19l-0.1 96.8C173.5 115.8 178 176.2 103.8 220zM226 134.5l1.7-3c5.5 64.5 53.7 88.5 53.7 88.5s41.6 25 60.5 37.4c25.1 16.4 22.1 36.2 22.1 36.2l-83.4-48.9C280.6 244.7 225.8 217.6 226 134.5z"/><path id="rF_1_" fill="#FFFFFF" stroke="#FFFFFF" stroke-width="1.25" d="M621 283.6c-59.3-26.1-103.5-0.8-103.5-0.8s-46.8 26.8-66.7 37.4c-26.4 14.2-42.4 0.9-42.4 0.9l86.9-50C495.3 271.1 551 235.4 621 283.6zM479.7 220h-1.1c52.3-38.1 51.1-95.9 51.1-95.9s0.4-49.9 0.6-72.5S549.5 19 549.5 19l-0.1 96.8C549.4 115.8 553.9 176.2 479.7 220zM601.9 134.5l1.7-3c5.5 64.5 53.7 88.5 53.7 88.5s41.6 25 60.5 37.4c25.1 16.4 22.1 36.2 22.1 36.2l-83.4-48.9C656.5 244.7 601.7 217.6 601.9 134.5z"/><path id="r3" fill="none" stroke="#FFFFFF" stroke-width="1.25" d="M173.4 19.8l0.1 95.9c0 0 4.5 60.5-69.6 104.2"/><path id="r2" fill="none" stroke="#FFFFFF" stroke-width="1.25" d="M32.5 321.1l81.6-47c0 0 60.9-40.8 133.8 11.5"/><path fill="none" stroke="#3E647D" stroke-miterlimit="10" stroke-dasharray="3,4" d="M860.9 220.5c-2.7-4.3-4-8.8-4-13.4 0-6.9 1.8-56.3-2.7-77.6 -4.5-21.3-12.5-41.9-18.3-52s-13-6.7-15.8 8.3c-2.7 15-1.9 54.9 23.3 110.3 16.8 37 29 58.8 36.6 65.5 -4.2-5.7-7.1-15.3-8.6-28.7 -1.6-13.4-0.7-29.3 2.6-47.9 1.6-6.1 2.9-6.1 4.2 0 1.8 9.1 8.1 36.9 21.8 56"/><path fill="none" stroke="#3E647D" stroke-miterlimit="10" stroke-dasharray="3,4" d="M905.7 232.7c6.7-20 8.9-36.3 6.7-48.8 -3.3-18.8-17-27-17-15.7s2.7 30.9 24.1 50.6c5.1 4.7 9.2 3.3 9.2-1.8s5.6-54.5 1.5-94.3 -10-49-19.3-69.2c-9.3-20.2-17.9-4.3-17.9 11.8s17.1 81 40.8 116.3c23.7 35.4 28.6 22.2 28.6 17.3 0-2.8-0.7-45.4-6.5-84.6 -4.5-29.8-15-57.8-20-67.1 -11.7-21.5-16.3-12.6-16.3 6.2s17.5 73.8 58.3 134.3c4.2 6.2 12.4 15.8 12.4 0s-9.3-45.4-10.4-50.7c-1.1-5.3-4.8-3.1-2 1.7 2.8 4.8 12.9 36.8 21 43.8 8.1 7 14.2-1 9.6-21.6 -4.6-20.6-24.2-40.3-27.6-43.2s-3.9 0.6-1.9 1.7c1.9 1.1 13.2 13.2 29.5 13.2"/><path fill="none" stroke="#3E647D" stroke-miterlimit="10" stroke-dasharray="3,4" d="M905 288.6c0 0.5 6.2 13.2 18.6 38.2 -1.7-18.3-2.5-28.7-2.5-31.3 0-3.9 2.5-5.3 5.5 0s4.4 12.2 6 17.3c1.6 5 5 5 5 0 0-5 0-10.5 0-14.7s0.3-4.1 3.9 1.8c3.6 5.8 7.6 11.9 9.5 4.4 1.3-5 1.6-9.1 1-12.3 11.9 12.1 18.2 14.1 18.8 5.9 0.9-12.3-8.7-25-17.6-28.2 -6.9-2.5-8.3 0.8-3.4 3.2 4.3 2.1 15 1.8 21 0"/><path fill="none" stroke="#3E647D" stroke-miterlimit="10" stroke-dasharray="3,4" d="M972 257.9c6.1 17.4 10.4 27.8 12.9 31.3 3.8 5.3 5.5 1.5 5.5-3.9 0-3.6-0.4-14.5-1.1-32.8 6.1 15.5 9.2 23.3 9.3 23.5 2 3.1 3.4 0 4.6-3.8 1.8-5.4 4.3-19.3 3.5-21.4 -0.9-2.1 4.2 21.5 7.4 18.3 2.1-2.1 4.8-5.1 7.9-8.8"/><path fill="none" stroke="#3E647D" stroke-miterlimit="10" stroke-dasharray="3,4" d="M969 253.7c-5.9-2.4-8.1-5.7-6.6-10 2.3-6.4 9.4-3.9 12.9-3 3.6 0.9 15.6 4.4 26.6-8.4 2-2.3 4-5.8 6.1-10.6"/><path fill="none" stroke="#3E647D" stroke-miterlimit="10" stroke-dasharray="3,4" d="M1027.7 250.1c0.8 4.7 1.9 8.2 3.3 10.4 2.1 3.3 8 4.1 6.5-5.4s-9.4-21.3-13.6-23.9c-4.2-2.6-8.2-1.4-1.1 2.6 7.1 4 17.3-0.7 20.1-1.8"/><path fill="none" stroke="#3E647D" stroke-miterlimit="10" stroke-dasharray="4,9" d="M18.5 650.1c0 0 13.7 9.4 41.1 28.1l58.6-14c140.1-153.8 214.3-230.7 222.6-230.7s289.8 47.2 844.3 141.6l276.3 626.4"/><path fill="none" stroke="#3E647D" stroke-miterlimit="10" stroke-dasharray="4,9" d="M52.1 1348.3c44.3 35.9 347.4 546.1 375.7 546.1 18.9 0 277.7 26.3 776.6 78.9l287.7-429.2"/><path fill="#FFFFFF" d="M1134.4 101.2c-0.4 1.5-2.7 0.7-3.4 0.5l0.7-2.6C1132.4 99.3 1134.8 99.7 1134.4 101.2zM1134 105.4c-0.4 1.6-3.2 0.8-4.1 0.5l0.7-2.9C1131.5 103.3 1134.4 103.7 1134 105.4zM1137 101.2c0.2-1.6-1-2.5-2.6-3l0.5-2.2 -1.3-0.3 -0.5 2.1c-0.3-0.1-0.7-0.2-1.1-0.2l0.5-2.1 -1.3-0.3 -0.5 2.2c-0.3-0.1-0.6-0.1-0.8-0.2l0 0 -1.8-0.5 -0.4 1.4c0 0 1 0.2 1 0.2 0.5 0.1 0.6 0.5 0.6 0.8l-0.6 2.5c0 0 0.1 0 0.1 0 0 0-0.1 0-0.1 0l-0.9 3.5c-0.1 0.2-0.2 0.4-0.6 0.3 0 0-1-0.2-1-0.2l-0.7 1.5 1.7 0.4c0.3 0.1 0.6 0.2 0.9 0.2l-0.5 2.2 1.3 0.3 0.5-2.2c0.3 0.1 0.7 0.2 1 0.3l-0.5 2.2 1.3 0.3 0.5-2.2c2.2 0.4 3.9 0.3 4.6-1.8 0.6-1.6 0-2.6-1.2-3.2C1136.2 103 1136.8 102.4 1137 101.2zM1143.8 102.9c0 6.6-5.4 12-12 12s-12-5.4-12-12 5.4-12 12-12S1143.8 96.3 1143.8 102.9z"/><path fill="#FFFFFF" d="M1252.3 104.7c-0.5 0-0.9 0.4-0.9 0.9 0 0.4 0.3 0.6 0.7 0.6 0.5 0 0.9-0.4 0.9-0.9C1252.9 105 1252.6 104.7 1252.3 104.7zM1256 102.6c0-0.1-0.1-0.1-0.1-0.1h-0.8c-0.1 0-0.1 0-0.1 0.1l-0.7 4.3 0 0c0 0.1 0.1 0.1 0.1 0.1h0.7c0.1 0 0.2-0.1 0.2-0.2L1256 102.6 1256 102.6zM1254 103.9h-0.8c-0.2 0-0.2 0.2-0.2 0.3 -0.2-0.4-0.6-0.4-1-0.4 -1 0-1.8 0.9-1.8 1.9 0 0.8 0.5 1.3 1.3 1.3 0.4 0 0.9-0.2 1.1-0.5 0 0.1 0 0.2 0 0.3 0 0.1 0 0.2 0.1 0.2h0.7c0.1 0 0.2-0.1 0.2-0.2l0.4-2.7C1254.2 104 1254.1 103.9 1254 103.9zM1250.5 103.6c0-0.9-0.7-1.2-1.4-1.2h-1.7c-0.1 0-0.2 0.1-0.2 0.2l-0.7 4.2c0 0.1 0.1 0.2 0.1 0.2h0.9c0.1 0 0.1-0.1 0.2-0.1l0.2-1.2c0-0.3 0.5-0.2 0.8-0.2C1249.8 105.5 1250.5 104.8 1250.5 103.6zM1243.9 108l2.7-3.9c0 0 0 0 0-0.1 0-0.1-0.1-0.1-0.1-0.1h-0.8c-0.1 0-0.1 0-0.2 0.1l-1.1 1.6 -0.5-1.6c0-0.1-0.1-0.2-0.2-0.2h-0.8c-0.1 0-0.1 0.1-0.1 0.1 0 0.1 0.8 2.4 0.9 2.6 -0.1 0.2-0.9 1.2-0.9 1.3 0 0.1 0.1 0.1 0.1 0.1h0.8C1243.8 108.1 1243.8 108.1 1243.9 108zM1242.2 103.9h-0.8c-0.2 0-0.2 0.2-0.2 0.3 -0.2-0.4-0.6-0.4-1-0.4 -1 0-1.8 0.9-1.8 1.9 0 0.8 0.5 1.3 1.3 1.3 0.4 0 0.8-0.2 1.1-0.5 0 0.1 0 0.2 0 0.3 0 0.1 0 0.2 0.1 0.2h0.7c0.1 0 0.2-0.1 0.2-0.2l0.4-2.7C1242.3 104 1242.3 103.9 1242.2 103.9zM1238.7 103.6c0-0.9-0.7-1.2-1.4-1.2h-1.7c-0.1 0-0.2 0.1-0.2 0.2l-0.7 4.3c0 0.1 0.1 0.2 0.1 0.2h0.8c0.1 0 0.2-0.1 0.2-0.2l0.2-1.1c0-0.3 0.6-0.2 0.8-0.2C1238 105.5 1238.7 104.8 1238.7 103.6zM1257.3 97.9v14.7c0 1.1-0.9 2-2 2h-20c-1.1 0-2-0.9-2-2V97.9c0-1.1 0.9-2 2-2h20C1256.4 95.9 1257.3 96.8 1257.3 97.9zM1248.5 103.3h-0.2c-0.1 0-0.1 0-0.1 0.1l-0.2 1.1 0.3 0c0.5 0 0.9-0.1 0.9-0.8C1249.3 103.4 1248.9 103.3 1248.5 103.3zM1236.7 103.3h-0.2c-0.1 0-0.1 0-0.1 0.1l-0.2 1.1 0.3 0c0.5 0 0.8-0.1 0.9-0.6C1237.5 103.4 1237.2 103.3 1236.7 103.3zM1241.1 105.4c0 0.5-0.4 0.9-0.9 0.9 -0.4 0-0.7-0.2-0.7-0.6 0-0.5 0.4-0.9 0.9-0.9C1240.8 104.7 1241.1 105 1241.1 105.4z"/><path fill="#FFFFFF" d="M1217.5 105.4l-1.3-6.5h-1.3c-0.4 0-0.7 0.1-0.9 0.5l-2.5 5.9h1.8c0 0 0.3-0.8 0.4-1h2.1c0.1 0.2 0.2 1 0.2 1H1217.5zM1211.6 103.3c0-0.7-0.4-1.3-1.4-1.8 -0.6-0.3-0.9-0.5-0.9-0.8 0-0.3 0.3-0.6 1-0.6 0.5 0 0.9 0.1 1.2 0.2l0.1 0.1 0.2-1.4c-0.3-0.1-0.9-0.3-1.5-0.3 -1.7 0-2.8 0.9-2.8 2.1 0 0.9 0.8 1.4 1.5 1.8 0.6 0.3 0.9 0.5 0.9 0.8 0 0.4-0.5 0.6-1 0.6 -0.7 0-1-0.1-1.6-0.3l-0.2-0.1 -0.2 1.5c0.4 0.2 1.1 0.3 1.9 0.3C1210.5 105.5 1211.6 104.6 1211.6 103.3zM1205.8 105.4l1-6.5h-1.7l-1 6.5H1205.8zM1201.9 105.4l2.6-6.5h-1.8l-1.6 4.4 -0.2-0.9 -0.6-3c-0.1-0.4-0.4-0.5-0.8-0.5h-2.7l0 0.1c0.7 0.2 1.2 0.4 1.8 0.7l1.5 5.6H1201.9zM1219.5 94.9v14.7c0 1.1-0.9 2-2 2h-20c-1.1 0-2-0.9-2-2V94.9c0-1.1 0.9-2 2-2h20C1218.6 92.9 1219.5 93.8 1219.5 94.9zM1215.1 101.2c0 0 0.3 1.6 0.4 1.9h-1.4c0.1-0.4 0.7-1.8 0.7-1.8 0 0 0.1-0.4 0.2-0.6L1215.1 101.2z"/><path fill="#FFFFFF" d="M1285.9 65.9l-4.3-3.1c-0.2-0.1-0.2-0.3-0.2-0.5v-8.1c0-0.3 0.3-0.6 0.6-0.6h2.3c0.3 0 0.6 0.3 0.6 0.6v6.7l3.1 2.2c0.3 0.2 0.3 0.6 0.1 0.8l-1.4 1.9C1286.6 66 1286.2 66.1 1285.9 65.9zM1283.2 48.9c-6.6 0-12 5.4-12 12s5.4 12 12 12c6.6 0 12-5.4 12-12S1289.8 48.9 1283.2 48.9z"/><path fill="#FFFFFF" d="M1294.6 95.5c-0.8-0.8-2-0.8-2.8 0l-5.4 5.4h-6.3l-5.4-5.4c-0.8-0.8-2-0.8-2.8 0 -0.8 0.8-0.8 2 0 2.8l5.9 5.9v16.7c0 1.1 0.9 2 2 2h1c1.1 0 2-0.9 2-2v-7h1v7c0 1.1 0.9 2 2 2h1c1.1 0 2-0.9 2-2v-16.7l5.9-5.9C1295.4 97.6 1295.4 96.3 1294.6 95.5zM1278.7 95.4c0-2.5 2-4.5 4.5-4.5 2.5 0 4.5 2 4.5 4.5s-2 4.5-4.5 4.5C1280.7 99.9 1278.7 97.9 1278.7 95.4z"/><path fill="#FFFFFF" d="M1172.8 62.6l-4 4c-0.2 0.2-0.6 0.2-0.8 0l-4-4c-0.4-0.4-0.1-1 0.4-1h2.5v-4.2c0-0.3 0.3-0.6 0.6-0.6h1.8c0.3 0 0.6 0.3 0.6 0.6v4.2h2.5C1173 61.5 1173.2 62.2 1172.8 62.6zM1177.8 59.2c0.2-0.4 0.2-0.8 0.2-1.3 0-2-1.6-3.6-3.6-3.6 -0.7 0-1.4 0.2-2 0.6 -1-1.8-3-3-5.2-3 -3.3 0-6 2.7-6 6 0 0.1 0 0.2 0 0.3 -2.1 0.7-3.6 2.7-3.6 5.1 0 3 2.4 5.4 5.4 5.4h13.8c2.7 0 4.8-2.1 4.8-4.8C1181.7 61.6 1180 59.7 1177.8 59.2z"/><path fill="#FFFFFF" d="M1134.6 61.5h-2.5v4.2c0 0.3-0.3 0.6-0.6 0.6h-1.8c-0.3 0-0.6-0.3-0.6-0.6v-4.2h-2.5c-0.5 0-0.8-0.6-0.4-1l4-4c0.2-0.2 0.6-0.2 0.8 0l4 4C1135.4 60.9 1135.1 61.5 1134.6 61.5zM1140 59.2c0.2-0.4 0.2-0.8 0.2-1.3 0-2-1.6-3.6-3.6-3.6 -0.7 0-1.4 0.2-2 0.6 -1-1.8-3-3-5.2-3 -3.3 0-6 2.7-6 6 0 0.1 0 0.2 0 0.3 -2.1 0.7-3.6 2.7-3.6 5.1 0 3 2.4 5.4 5.4 5.4h13.8c2.7 0 4.8-2.1 4.8-4.8C1143.8 61.6 1142.2 59.7 1140 59.2z"/><path fill="#FFFFFF" d="M1328 96.9c0.6 0 1 0.4 1 1s-0.4 1-1 1c-0.5 0-1-0.4-1-1S1327.5 96.9 1328 96.9zM1314 116.9c-0.5 0-1-0.4-1-1s0.5-1 1-1c0.6 0 1 0.4 1 1S1314.6 116.9 1314 116.9zM1314 92.9c0.6 0 1 0.4 1 1s-0.4 1-1 1c-0.5 0-1-0.4-1-1S1313.5 92.9 1314 92.9zM1333 97.9c0-2.8-2.2-5-5-5 -2.8 0-5 2.2-5 5 0 2.3 1.5 4.2 3.6 4.8 0 1-0.3 1.8-0.7 2.3 -1 1.2-3.1 1.4-5.3 1.6 -1.8 0.2-3.6 0.3-5.1 1.1v-9c2-0.6 3.5-2.5 3.5-4.8 0-2.8-2.2-5-5-5 -2.8 0-5 2.2-5 5 0 2.2 1.5 4.1 3.5 4.8v12.5c-2 0.6-3.5 2.5-3.5 4.8 0 2.8 2.2 5 5 5 2.8 0 5-2.2 5-5 0-2.1-1.3-3.9-3.2-4.7 0.2-0.3 0.5-0.6 0.9-0.8 1-0.5 2.5-0.6 4.1-0.8 2.6-0.2 5.6-0.5 7.4-2.7 0.9-1.1 1.3-2.5 1.4-4.2C1331.6 102 1333 100.1 1333 97.9z"/><path fill="#FFFFFF" d="M1254.3 48.9h-18c-1.7 0-3 1.3-3 3v13.5c0 1.7 1.3 3 3 3h4.5v3.9c0 0.5 0.5 0.7 0.9 0.5l5.9-4.4h6.8c1.7 0 3-1.3 3-3V51.9C1257.3 50.3 1256 48.9 1254.3 48.9z"/><path fill="#FFFFFF" d="M1177 154.3c-0.7 1.6-2 1.3-2.5 0l-2.1-7.8h1.7l1.6 6.1 1.6-6.1h1.7L1177 154.3zM1171.5 148.1h-2.9v2.1h1.7v1.6h-1.7v2.1h2.9v1.6h-3.3c-0.6 0-1.1-0.5-1.1-1.1v-6.7c0-0.6 0.5-1.1 1.1-1.1h3.4L1171.5 148.1zM1166.1 152.8c0 1-0.6 2.5-2.6 2.5h-2.5v-8.9h2.5c1.9 0 2.5 1.5 2.5 2.5L1166.1 152.8zM1179.5 138.9h-19.3c-1.3 0-2.3 1-2.4 2.3v19.3c0 1.3 1.1 2.3 2.4 2.3h19.3c1.3 0 2.3-1 2.4-2.3v-19.3C1181.8 140 1180.8 138.9 1179.5 138.9zM1164.3 148.4c-0.2-0.2-0.4-0.2-0.6-0.2h-0.9v5.6h0.9c0.2 0 0.4-0.1 0.6-0.2 0.2-0.2 0.3-0.4 0.3-0.7v-3.7C1164.6 148.8 1164.5 148.5 1164.3 148.4z"/><path fill="#FFFFFF" d="M1162.7 111.2c0.3-0.6 0.7-1.1 1.1-1.7h11.7c0.4 0.6 0.8 1.2 1.1 1.7H1162.7zM1176.7 94.1c-0.3 0.6-0.7 1.1-1.1 1.7h-11.7c-0.4-0.6-0.8-1.2-1.1-1.7H1176.7zM1169.7 100.7c-1.3-0.7-2.5-1.5-3.4-2.3h6.9C1172.1 99.2 1171 100 1169.7 100.7zM1157.7 115.3c-0.1 0.5 0.3 0.9 0.8 0.9l1.7 0c0.4 0 0.8-0.3 0.9-0.7 0-0.3 0.1-0.6 0.2-1h16.7c0.1 0.4 0.2 0.7 0.2 1 0.1 0.4 0.4 0.7 0.9 0.7l1.7 0c0.5 0 0.9-0.4 0.8-0.9 -0.2-2-1.4-6.9-6.3-11.1 -0.9 0.7-2 1.3-3.1 1.9 0.3 0.2 0.6 0.5 0.9 0.8h-6.8c1.1-1 2.5-1.9 4.2-2.7 9.2-4.6 10.9-11.7 11.2-14.2 0.1-0.5-0.3-0.9-0.8-0.9l-1.7 0c-0.4 0-0.8 0.3-0.9 0.7 0 0.3-0.1 0.6-0.2 1h-16.7c-0.1-0.4-0.1-0.7-0.2-1 -0.1-0.4-0.4-0.7-0.9-0.7l-1.7 0c-0.5 0-0.9 0.4-0.9 0.9 0.3 2.3 1.7 8.2 8.5 12.7C1159.4 107.1 1158 113.1 1157.7 115.3z"/><path fill="#FFFFFF" d="M1357 57.8l0.3 5.7c0 0.3 0.2 0.5 0.5 0.5h2c0.3 0 0.5-0.2 0.5-0.5l0.3-5.7c0-0.3-0.2-0.5-0.5-0.5h-2.6C1357.2 57.3 1357 57.5 1357 57.8zM1358.8 64.7c-1.1 0-1.9 0.9-1.9 1.9 0 1.1 0.9 1.9 1.9 1.9s1.9-0.9 1.9-1.9C1360.8 65.5 1359.9 64.7 1358.8 64.7zM1370.6 68.3c0.8 1.3-0.2 3-1.7 3h-20c-1.5 0-2.5-1.7-1.7-3l10-17.3c0.8-1.3 2.7-1.3 3.5 0L1370.6 68.3z"/><path fill="#FFFFFF" d="M1362.8 99.9c-1.1 0-2-0.9-2-2s0.9-2 2-2 2 0.9 2 2S1363.9 99.9 1362.8 99.9zM1354.8 99.9c-1.1 0-2-0.9-2-2s0.9-2 2-2 2 0.9 2 2S1355.9 99.9 1354.8 99.9zM1358.5 85.9c-6.6 0.2-11.6 5.9-11.6 12.5v16.5c0 0.9 1.1 1.3 1.7 0.7l1.6-1.2c0.4-0.3 1-0.2 1.3 0.1l2.7 3c0.4 0.4 1 0.4 1.4 0l2.5-2.9c0.4-0.4 1.1-0.4 1.5 0l2.5 2.9c0.4 0.4 1 0.4 1.4 0l2.7-3c0.3-0.4 0.9-0.4 1.3-0.1l1.6 1.2c0.6 0.6 1.7 0.2 1.7-0.7v-17C1370.8 91.2 1365.3 85.7 1358.5 85.9z"/><path fill="#FFFFFF" d="M1333 64c0-0.9-0.6-1.7-1.5-1.9l-1.9-0.5v-2.7c0-0.6-0.5-1.1-1.2-1.3l-2.1-0.3c-1-0.2-1.8 0.4-1.8 1.3v1.7c0 0.2-0.2 0.4-0.4 0.4s-0.4-0.2-0.4-0.4V49.7c0-1.4-1.1-2.6-2.5-2.7 -0.7 0-1.4 0.2-1.9 0.7 -0.5 0.5-0.8 1.2-0.8 1.8v10.7c0 0.2-0.2 0.4-0.4 0.4s-0.4-0.2-0.4-0.4v-1.7c0-0.8-0.9-1.4-1.8-1.3l-1.6 0.3c-1 0.2-1.7 0.9-1.7 1.7v7.9c0 0.2-0.2 0.4-0.4 0.4s-0.4-0.2-0.4-0.4v-4.1l-1.5 0.8c-0.7 0.3-1.1 1-1.1 1.8v3.9c0 0.5 0.2 1 0.6 1.4l1.7 1.7c1.1 1.1 2.7 1.8 4.2 1.8h11.5c3.3 0 6-2.7 6-6L1333 64z"/><path fill="#FFFFFF" d="M1218 53.5c-1-0.2-2 0.4-2.3 1.4l-1.4 6h-0.5l2-8.2c0.3-1-0.4-2-1.4-2.3 -1-0.3-2 0.4-2.3 1.4L1210 61h-0.7l-2.4-10.5c-0.2-1-1.2-1.6-2.2-1.4 -1 0.2-1.6 1.2-1.4 2.2l2.2 9.7h-0.5l-1.6-7.1c-0.2-1-1.2-1.6-2.2-1.4 -1 0.2-1.6 1.2-1.4 2.2l1.8 8v3.7l-2.8-2.7c-0.8-0.7-1.9-0.7-2.6 0.1 -0.7 0.8-0.7 1.9 0.1 2.6l6.3 5.9c0.4 0.4 1 0.6 1.5 0.6h10.1c1 0 1.9-0.7 2.2-1.6l1.2-4.1c0.1-0.4 0.2-0.8 0.2-1.3v-2c0-0.4 0-0.7 0.1-1l1.7-7.1C1219.6 54.8 1219 53.8 1218 53.5z"/><path fill="#FFFFFF" d="M1140.4 159.5h-3.6v-5.6c0-1.3 0-3-1.8-3 -1.9 0-2.1 1.4-2.1 2.9v5.7h-3.6v-11.5h3.4v1.6h0c0.5-0.9 1.6-1.8 3.4-1.8 3.6 0 4.3 2.4 4.3 5.5V159.5zM1125.3 146.5c-1.1 0-2.1-0.9-2.1-2.1 0-1.1 0.9-2.1 2.1-2.1 1.1 0 2.1 0.9 2.1 2.1C1127.4 145.6 1126.5 146.5 1125.3 146.5zM1127.1 159.5h-3.6v-11.5h3.6L1127.1 159.5 1127.1 159.5zM1142.1 138.9h-20.6c-0.9 0-1.7 0.8-1.7 1.7v20.5c0 1 0.8 1.7 1.7 1.7h20.6c0.9 0 1.7-0.8 1.7-1.7v-20.5C1143.8 139.7 1143.1 138.9 1142.1 138.9z"/><path fill="#FFFFFF" d="M1205.4 154.9v-7.1l6.3 3.6L1205.4 154.9zM1219.3 145.6c-0.3-1-1.1-1.9-2.1-2.1 -1.9-0.5-9.3-0.5-9.3-0.5s-7.5 0-9.3 0.5c-1 0.3-1.8 1.1-2.1 2.1 -0.5 1.9-0.5 5.8-0.5 5.8s0 3.9 0.5 5.8c0.3 1 1.1 1.8 2.1 2.1 1.9 0.5 9.3 0.5 9.3 0.5s7.5 0 9.3-0.5c1-0.3 1.8-1.1 2.1-2.1 0.5-1.9 0.5-5.8 0.5-5.8S1219.8 147.4 1219.3 145.6z"/><path fill="#FFFFFF" d="M1254 156.2c0.8-0.6 1.3-1.6 1.3-2.7 0-1.9-1.5-3.4-3.4-3.4h-0.7c0.6-0.5 1-1.3 1-2.2 0-1.7-1.3-3-3-3h-0.3c0.2-0.5 0.3-1 0.3-1.5 0-2.5-2-4.5-4.5-4.5 -0.2 0-0.5 0-0.7 0.1 0.4 0.6 0.7 1.4 0.7 2.2 0 2.1-1.7 3.8-3.8 3.8h-0.8c-1.7 0-3 1.3-3 3 0 0.9 0.4 1.7 1 2.2h-0.7c-1.9 0-3.4 1.5-3.4 3.4 0 1.1 0.5 2.1 1.3 2.7 -1.6 0.3-2.8 1.6-2.8 3.3 0 1.9 1.5 3.4 3.4 3.4h17.2c1.9 0 3.4-1.5 3.4-3.4C1256.8 157.9 1255.6 156.5 1254 156.2z"/><path fill-rule="evenodd" clip-rule="evenodd" fill="#FFFFFF" d="M1282 158.8c0.5-0.3 1.2-0.3 1.7 0l5.7 3.6c0.5 0.3 0.8 0.1 0.6-0.4l-1.5-6.9c-0.1-0.5 0.1-1.3 0.5-1.7l5.1-4.6c0.4-0.4 0.3-0.7-0.3-0.8l-6.6-0.6c-0.5 0-1.2-0.5-1.4-1l-2.6-6.5c-0.2-0.5-0.5-0.5-0.7 0l-2.6 6.5c-0.2 0.5-0.8 1-1.4 1l-6.6 0.6c-0.5 0-0.7 0.4-0.3 0.8l5.1 4.6c0.4 0.4 0.6 1.1 0.5 1.7l-1.5 6.9c-0.1 0.5 0.2 0.7 0.6 0.4L1282 158.8z"/><g><g><defs><polygon id="SVGID_1_" points="1311.1 142.7 1330 142.7 1332.2 164.5 1308.8 164.5 "/></defs><clipPath id="SVGID_2_"><use overflow="visible"/></clipPath><rect x="1303.8" y="137.7" clip-path="url(#SVGID_2_)" fill="#FFFFFF" width="33.3" height="31.8"/></g><g><defs><path id="SVGID_3_" d="M1320.5 148.2c2.7 0 4.8-2.2 4.8-5 0-2.8-2.2-5-4.8-5 -2.7 0-4.8 2.2-4.8 5C1315.7 146 1317.8 148.2 1320.5 148.2zM1320.5 149.6c-3.4 0-6.1-2.8-6.1-6.3 0-3.5 2.7-6.3 6.1-6.3s6.1 2.8 6.1 6.3C1326.6 146.7 1323.9 149.6 1320.5 149.6z"/></defs><clipPath id="SVGID_4_"><use overflow="visible"/></clipPath><rect x="1309.4" y="131.9" clip-path="url(#SVGID_4_)" fill="#FFFFFF" width="22.2" height="22.6"/></g><text transform="matrix(1 0 0 1 1316.8396 159.4322)" font-family="'mplus-1p-lightlight'" font-size="14px">0</text></g><circle opacity="0.4" fill="none" stroke="#DA015A" stroke-miterlimit="10" cx="1356.8" cy="152.9" r="10"/><circle fill-rule="evenodd" clip-rule="evenodd" fill="#DA015A" cx="1356.8" cy="152.9" r="5"/><circle opacity="0.3" fill="none" stroke="#DA015A" stroke-miterlimit="10" cx="1129.8" cy="196.9" r="10"/><path fill="#DA015A" d="M1128.3 201.7l-4.2-4.4c-0.3-0.3-0.3-0.7 0-0.9l0.9-0.9c0.3-0.3 0.7-0.3 0.9 0l2.8 2.9 6.1-6.3c0.3-0.3 0.7-0.3 0.9 0l0.9 0.9c0.3 0.3 0.3 0.7 0 0.9l-7.5 7.7C1128.9 202 1128.5 202 1128.3 201.7z"/><polygon fill-rule="evenodd" clip-rule="evenodd" fill="#FFFFFF" points="1157.8 186.9 1176.8 186.9 1176.8 204.9 1157.8 224.9 "/><polygon fill-rule="evenodd" clip-rule="evenodd" fill="#FFFFFF" points="1190.8 186.9 1209.8 186.9 1209.8 204.9 1190.8 224.9 "/><ellipse fill-rule="evenodd" clip-rule="evenodd" fill="none" stroke="#00A4FF" stroke-miterlimit="10" cx="1297.8" cy="288.4" rx="15" ry="14.5"/><polygon fill-rule="evenodd" clip-rule="evenodd" fill="none" stroke="#00B1FF" stroke-miterlimit="10" points="1228.1 263.2 1251.6 273.6 1254.3 298.7 1233.3 313.5 1209.7 303.1 1207.1 278 "/><polygon fill-rule="evenodd" clip-rule="evenodd" fill="none" stroke="#00B1FF" stroke-miterlimit="10" points="1124 254.9 1187.7 289.2 1121.9 325.9 "/></g></svg>