<?xml version="1.0" encoding="UTF-8"?>
<svg width="92px" height="22px" viewBox="0 0 92 22" version="1.1" xmlns="http://www.w3.org/2000/svg" xmlns:xlink="http://www.w3.org/1999/xlink">
    <g id="Page-1" stroke="none" stroke-width="1" fill="none" fill-rule="evenodd">
        <g id="Group" transform="translate(0.593548, 0.358976)" fill="#FFFFFF">
            <path d="M9.16779941,11.3105583 C9.15413659,11.747066 8.93553072,12.0471656 8.62128431,12.0471656 C8.44366607,12.0471656 8.34802636,11.9243982 8.34802636,11.747066 C8.34802636,11.4606081 8.56663223,11.3105583 8.99018198,11.3105583 L9.16779941,11.3105583 L9.16779941,11.3105583 Z M14.5646412,10.8194857 C14.6329561,10.4921045 14.8105735,10.3011323 15.0565058,10.3011323 C15.4937184,10.3011323 15.4117407,10.7649225 15.4117407,10.8194857 L14.5646412,10.8194857 Z M21.9426027,11.3105583 C21.9289399,11.747066 21.7103332,12.0471656 21.3960868,12.0471656 C21.2321322,12.0471656 21.1228288,11.9243982 21.1228288,11.747066 C21.1228288,11.4606081 21.3414355,11.3105583 21.7786481,11.3105583 L21.9426027,11.3105583 L21.9426027,11.3105583 Z M26.3010647,10.9558947 C26.3010647,11.542453 26.0414695,11.9380391 25.6862347,11.9380391 C25.4266396,11.9380391 25.3036734,11.747066 25.3036734,11.3651216 C25.3036734,10.7922041 25.5496057,10.396618 25.8911778,10.396618 C26.1507729,10.396618 26.3010647,10.5875911 26.3010647,10.9558947 L26.3010647,10.9558947 Z M6.55818765,9.0325292 L5.80672868,11.2559942 L5.77940305,9.0325292 L4.67270842,9.0325292 L4.07154124,12.6064422 L4.79567458,12.6064422 L5.26021277,9.87826461 L5.31486485,12.6064422 L5.84771713,12.6064422 L6.81778279,9.8646238 L6.38057023,12.6064422 L7.14569201,12.6064422 L7.74685918,9.0325292 L6.55818765,9.0325292 Z M10.0148989,10.4921045 C10.0148989,9.93282787 9.67332687,9.64636913 9.0038448,9.64636913 C8.73058684,9.64636913 8.47099252,9.68729239 8.08843122,9.79641891 C7.99279069,10.396618 7.99279069,10.4511821 7.99279069,10.4511821 C8.11575685,10.4102588 8.41634044,10.3147731 8.79890174,10.3147731 C9.15413659,10.3147731 9.29076557,10.3829772 9.29076557,10.5875911 C9.29076557,10.6285135 9.27710275,10.6694359 9.26343994,10.7649225 C9.14047377,10.7512816 9.03117043,10.7512816 8.94919353,10.7512816 C8.10209404,10.7512816 7.59656739,11.1605085 7.59656739,11.8698342 C7.59656739,12.3336243 7.88348816,12.6610063 8.30703791,12.6610063 C8.64860995,12.6610063 8.90820508,12.551879 9.09948533,12.3063427 L9.08582251,12.6064422 L9.72797813,12.6064422 C9.74164095,12.3881884 9.89193274,11.4878897 9.96024764,11.065022 C9.98757327,10.8194857 10.0148989,10.6421543 10.0148989,10.4921045 L10.0148989,10.4921045 Z M12.1463096,9.7009332 C11.9413666,9.66000994 11.640783,9.64636913 11.4631656,9.64636913 C10.6024033,9.64636913 10.3154825,10.0828776 10.3154825,10.6285135 C10.3154825,10.9968171 10.4930999,11.2423534 10.9029868,11.4333256 C11.2035704,11.5833754 11.2582217,11.6242987 11.2582217,11.7607076 C11.2582217,11.9380391 11.1215927,12.0198839 10.8210091,12.0198839 C10.5887404,12.0198839 10.3701338,11.9789615 10.1242022,11.9107574 C10.0285617,12.551879 10.0285617,12.5791606 10.0285617,12.5791606 C10.1925163,12.6200831 10.3564709,12.6610063 10.8210091,12.6610063 C11.6271202,12.6746471 12.0096807,12.3609068 12.0096807,11.6925028 C12.0096807,11.2969167 11.8457261,11.0513812 11.4631656,10.8740498 C11.1352555,10.7376408 11.1079299,10.6967176 11.1079299,10.5603094 C11.1079299,10.4102588 11.2308961,10.3284139 11.4768284,10.3284139 C11.6271202,10.3284139 11.8320632,10.3420548 12.0370071,10.3693364 L12.1463096,9.7009332 Z M13.348644,9.7009332 L13.4306217,9.26442469 L12.6791627,9.26442469 C12.3785792,10.9831763 12.3375907,11.2559942 12.3375907,11.2559942 C12.2829386,11.5560938 12.2282874,11.8971158 12.2282874,12.0198839 C12.2419502,12.4427516 12.4468932,12.6610063 12.8431173,12.6610063 C13.0207348,12.6610063 13.1846894,12.6337239 13.3896333,12.5655198 L13.4989358,11.9243982 C13.4442845,11.9380391 13.3759696,11.9516799 13.2803299,11.9516799 C13.1027125,11.9516799 13.0207348,11.883475 13.0207348,11.7334252 C13.0207348,11.6515803 13.1573638,10.9558947 13.2393415,10.4102588 L13.6355648,10.4102588 L13.7312053,9.7009332 L13.348644,9.7009332 Z M16.1222112,10.6967176 C16.1222112,10.055596 15.7123242,9.64636913 15.0838314,9.64636913 C14.3187097,9.64636913 13.7585309,10.3693364 13.7585309,11.3651216 C13.7585309,12.210857 14.1957435,12.6610063 15.0565058,12.6610063 C15.3161001,12.6610063 15.5756953,12.6200831 15.8352904,12.551879 L15.9582566,11.8152709 C15.6849986,11.9516799 15.4390663,12.0062431 15.1658083,12.0062431 C14.7285966,12.0062431 14.4553386,11.8289117 14.5099899,11.406044 L16.0265706,11.406044 C16.0948855,11.1195853 16.1222112,10.9013314 16.1222112,10.6967176 L16.1222112,10.6967176 Z M18.0213532,9.68729239 C17.6934432,9.6190875 17.5158258,9.79641891 17.2835571,10.1510825 C17.2972199,10.0010328 17.3382083,9.85098298 17.3245455,9.7009332 L16.6277378,9.7009332 C16.5320981,10.6012319 16.3818063,11.5151714 16.2315145,12.41547 L16.1905253,12.6064422 L16.955647,12.6064422 C17.228905,10.8331265 17.2972199,10.4921045 17.7207696,10.533027 C17.8027465,10.1647234 17.9257127,9.85098298 18.0213532,9.68729239 L18.0213532,9.68729239 Z M20.5763137,9.12801572 C20.4670104,9.08709328 20.0707863,8.95068431 19.742877,8.95068431 C18.7181601,8.95068431 18.0076896,9.83734217 18.0076896,11.1195853 C18.0076896,12.074448 18.5268799,12.6610063 19.3466529,12.6610063 C19.5652596,12.6610063 19.742877,12.6337239 20.0297978,12.551879 L20.1664268,11.747066 C19.9068316,11.8698342 19.7018886,11.9243982 19.5106075,11.9243982 C19.0597321,11.9243982 18.8001378,11.5970162 18.8001378,11.0513812 C18.8001378,10.2738507 19.1963611,9.71457402 19.7702027,9.71457402 C19.9888094,9.71457402 20.1800896,9.76913728 20.4533476,9.90554624 L20.5763137,9.12801572 Z M22.7897014,10.4921045 C22.7897014,9.93282787 22.4481293,9.64636913 21.7923109,9.64636913 C21.5053901,9.64636913 21.2594578,9.68729239 20.8768973,9.79641891 C20.767594,10.396618 20.767594,10.4511821 20.767594,10.4511821 C20.8905601,10.4102588 21.2048065,10.3147731 21.5737042,10.3147731 C21.9289399,10.3147731 22.0655688,10.3829772 22.0655688,10.5875911 C22.0655688,10.6285135 22.0655688,10.6694359 22.0382424,10.7649225 C21.9289399,10.7512816 21.8196365,10.7512816 21.723996,10.7512816 C20.8768973,10.7512816 20.3850327,11.1605085 20.3850327,11.8698342 C20.3850327,12.3336243 20.6582906,12.6610063 21.0818404,12.6610063 C21.4370752,12.6610063 21.6966704,12.551879 21.8879506,12.3063427 L21.8742878,12.6064422 L22.5027814,12.6064422 C22.530107,12.3881884 22.666736,11.4878897 22.7350501,11.065022 C22.7760385,10.8194857 22.7897014,10.6421543 22.7897014,10.4921045 L22.7897014,10.4921045 Z M24.716169,9.68729239 C24.4019226,9.6190875 24.2243052,9.79641891 23.9783729,10.1510825 C24.0056993,10.0010328 24.033025,9.85098298 24.033025,9.7009332 L23.3225544,9.7009332 C23.2269139,10.6012319 23.0902849,11.5151714 22.9263303,12.41547 L22.8853419,12.6064422 L23.6504637,12.6064422 C23.9373844,10.8331265 23.9920357,10.4921045 24.4292483,10.533027 C24.4975632,10.1647234 24.6205293,9.85098298 24.716169,9.68729239 L24.716169,9.68729239 Z M26.6426367,9.0325292 L26.4786821,10.0692368 C26.2737391,9.79641891 26.0414695,9.67365157 25.7545488,9.67365157 C25.0714047,9.67365157 24.4975632,10.4921045 24.4975632,11.4606081 C24.4975632,12.1835745 24.8664608,12.6610063 25.4266396,12.6610063 C25.7135603,12.6610063 25.9185034,12.5655198 26.1371101,12.3472651 L26.0961216,12.6064422 L26.8202541,12.6064422 L27.4077585,9.0325292 L26.6426367,9.0325292 Z M28.1592175,10.8058449 C28.1592175,14.8981122 24.8391352,18.2264889 20.7266055,18.2264889 C19.0460693,18.2264889 17.5021629,17.6672122 16.2451773,16.7259911 C17.2972199,15.7574876 18.0896673,14.5161669 18.4995542,13.1247965 L17.8164094,13.1247965 C17.4065224,14.3524763 16.6823899,15.457388 15.7396499,16.3031234 C14.7969107,15.457388 14.0727773,14.3524763 13.6628904,13.1247965 L12.9797463,13.1247965 C13.3896333,14.5161669 14.1820807,15.7574876 15.2341232,16.7259911 C13.9771368,17.6672122 12.4332304,18.2264889 10.7526951,18.2264889 C6.64016455,18.2264889 3.32008227,14.8981122 3.32008227,10.8058449 C3.32008227,6.71357846 6.64016455,3.38520091 10.7526951,3.38520091 C12.4332304,3.38520091 13.9771368,3.94447757 15.2341232,4.88569869 C14.1137658,5.9087655 13.2939927,7.24557269 12.8977686,8.75971128 L13.5809135,8.75971128 C13.9771368,7.40926328 14.7285966,6.22250587 15.7396499,5.30856639 C16.750704,6.22250587 17.5021629,7.40926328 17.8983871,8.75971128 L18.5815311,8.75971128 C18.1853078,7.24557269 17.365534,5.9087655 16.2451773,4.88569869 C17.5021629,3.94447757 19.0460693,3.38520091 20.7266055,3.38520091 C24.8391352,3.38520091 28.1592175,6.71357846 28.1592175,10.8058449 L28.1592175,10.8058449 Z M31.4793006,2.07567617 C31.4793006,1.12081343 30.6868523,0.329642093 29.7304503,0.329642093 L1.74885026,0.329642093 C0.792447416,0.329642093 3.55271368e-15,1.12081343 3.55271368e-15,2.07567617 L3.55271368e-15,19.5360145 C3.55271368e-15,20.4908764 0.792447416,21.2820477 1.74885026,21.2820477 L29.7304503,21.2820477 C30.6868523,21.2820477 31.4793006,20.4908764 31.4793006,19.5360145 L31.4793006,2.07567617 Z" id="master"></path>
            <path d="M86.1835532,11.7584467 C86.1835532,11.7584467 86.0879135,11.3219382 85.6643637,9.23488215 L85.5004091,8.48463326 C85.3911058,8.81201444 85.1861627,9.33036785 85.1998255,9.31672704 C84.489355,11.2537333 84.2980748,11.7584467 84.2980748,11.7584467 L86.1835532,11.7584467 L86.1835532,11.7584467 Z M66.4543398,10.8717889 C65.5252626,8.29366104 63.4621667,6.92957141 60.9481947,6.28844985 L60.9755203,6.11111844 L64.6371746,6.11111844 C65.1290393,6.11111844 65.5525882,6.28844985 65.6618916,6.84772652 L66.4543398,10.8717889 Z M68.8999969,6.11111844 L71.3046656,6.11111844 L67.738651,14.854928 L65.3476452,14.854928 L63.5031552,7.89807496 C64.8147929,8.43006919 65.976138,9.60318578 66.4543398,10.8717889 L66.6866085,12.0858279 L68.8999969,6.11111844 Z M70.799139,14.8685696 L72.2200792,6.11111844 L74.4881189,6.11111844 L73.0671787,14.8685696 L70.799139,14.8685696 Z M81.2922389,6.3293723 L80.9779925,8.22545615 L80.7730486,8.11632881 C80.3631625,7.92535659 79.8166466,7.77530681 79.0788505,7.78894763 C78.1907625,7.78894763 77.7808756,8.17089289 77.7808756,8.53919652 C77.7808756,8.94842341 78.2590766,9.23488215 79.0515248,9.63046741 C80.3494989,10.257949 80.9643297,11.0081979 80.9643297,12.0039822 C80.9370032,13.8182212 79.3930969,15.0049778 77.0157538,14.991337 C75.9910369,14.991337 75.020972,14.7730831 74.4881189,14.5275468 L74.8023653,12.5632589 L75.1029489,12.7133087 C75.8270823,13.0543307 76.3189469,13.163458 77.2343605,13.163458 C77.8765161,13.163458 78.5869866,12.9042809 78.5869866,12.3177226 C78.5869866,11.9357781 78.3000659,11.6493194 77.4119779,11.2264517 C76.5512156,10.803584 75.4171953,10.1078992 75.430859,8.85293689 C75.4445218,7.14782607 77.0157538,5.96106867 79.2564679,5.96106867 C80.130893,5.96106867 80.8413635,6.15204089 81.2922389,6.3293723 L81.2922389,6.3293723 Z M87.0989676,6.11111844 L88.9297948,14.8685696 L86.8257096,14.8685696 C86.6207658,13.8591436 86.5524517,13.5590441 86.5524517,13.5590441 L83.6559192,13.5590441 C83.6559192,13.5590441 83.5602786,13.7909387 83.1777173,14.8685696 L80.8003743,14.8685696 L84.1614458,6.84772652 C84.3937153,6.27480904 84.8036014,6.11111844 85.3501173,6.11111844 L87.0989676,6.11111844 Z M90.678645,1.74603407 C90.678645,0.791171333 89.8861968,5.15143483e-14 88.9297948,5.15143483e-14 L60.9481947,5.15143483e-14 C59.9917919,5.15143483e-14 59.1993444,0.791171333 59.1993444,1.74603407 L59.1993444,19.2063724 C59.1993444,20.1612343 59.9917919,20.9524056 60.9481947,20.9524056 L88.9297948,20.9524056 C89.8861968,20.9524056 90.678645,20.1612343 90.678645,19.2063724 L90.678645,1.74603407 Z" id="visa"></path>
        </g>
    </g>
</svg>