<?xml version="1.0" standalone="no"?>
<!DOCTYPE svg PUBLIC "-//W3C//DTD SVG 1.1//EN" "http://www.w3.org/Graphics/SVG/1.1/DTD/svg11.dtd" >
<svg xmlns="http://www.w3.org/2000/svg">
<metadata></metadata>
<defs>
<font id="lane_narrow_lightregular" horiz-adv-x="2048" >
<font-face units-per-em="2048" ascent="1638" descent="-410" />
<missing-glyph horiz-adv-x="532" />
<glyph />
<glyph />
<glyph unicode="&#xd;" horiz-adv-x="532" />
<glyph unicode=" "  horiz-adv-x="532" />
<glyph unicode="&#x09;" horiz-adv-x="532" />
<glyph unicode="&#xa0;" horiz-adv-x="532" />
<glyph unicode="!" horiz-adv-x="629" d="M272 97q0 96 44 96q45 0 45 -96q0 -97 -45 -97q-44 0 -44 97zM274 1470h86l-18 -1103h-49z" />
<glyph unicode="&#x22;" horiz-adv-x="530" d="M102 981v453h70v-453h-70zM358 981v453h70v-453h-70z" />
<glyph unicode="#" horiz-adv-x="1093" d="M102 505l23 74l153 1l106 290l-173 -1l22 74l176 1l83 223h96l-83 -223h275l83 223h94l-81 -223l139 -1l-23 -74l-145 1l-102 -290l169 -1l-22 -74l-172 1l-80 -228h-96l82 228h-276l-83 -228h-94l80 228zM378 580h273l100 290h-272z" />
<glyph unicode="$" horiz-adv-x="1174" d="M92 449h68q12 -193 130 -307q67 -65 158 -93v620l74 -20v-615q38 -5 74 -5h13v570l74 -20v-544q128 18 215 90q116 96 116 248q0 170 -138 255q-70 43 -294 107l-28 8q-254 72 -321 134q-104 95 -104 243q0 175 121 280q81 70 198 94v225h74v-216q24 2 49 2q19 0 38 -1 v215h74v-223q134 -24 225 -107q127 -116 134 -316l-65 1q-3 170 -115 272q-73 67 -179 90v-573l-74 20v564q-21 1 -42 1q-23 0 -45 -2v-533l-74 20v503q-91 -21 -153 -76q-100 -89 -100 -240q0 -114 90 -198q63 -59 291 -120q7 -2 28 -7q229 -59 324 -120q155 -99 155 -284 q0 -192 -133 -308q-105 -92 -267 -111v-189h-74v184h-15q-34 0 -72 4v-188h-74v201q-119 29 -205 111q-134 128 -151 354z" />
<glyph unicode="%" horiz-adv-x="1489" d="M92 1120q0 135 73 238q82 115 211 115q128 0 210 -116q73 -104 73 -237q0 -138 -71 -238q-81 -114 -212 -114q-129 0 -211 115q-73 103 -73 237zM156 1120q0 -109 54 -193q62 -97 166 -97q102 0 165 98q54 84 54 192t-54 192q-63 97 -165 97q-104 0 -166 -96 q-54 -83 -54 -193zM347 0l710 1540h70l-710 -1540h-70zM831 359q0 135 73 238q82 115 211 115q128 0 210 -116q73 -104 73 -237q0 -138 -71 -238q-81 -114 -212 -114q-129 0 -211 115q-73 103 -73 237zM895 359q0 -109 54 -193q62 -97 166 -97q102 0 165 98q54 84 54 192 t-54 192q-63 97 -165 97q-104 0 -166 -96q-54 -83 -54 -193z" />
<glyph unicode="&#x26;" horiz-adv-x="1247" d="M113 395q7 347 445 509q-14 -4 -28 -4q-85 0 -162 109q-66 93 -66 172q0 136 79 214t215 78q128 0 205.5 -75t77.5 -202q0 -239 -297 -365q-194 -82 -286 -178q-116 -121 -116 -256q0 -162 103 -269.5t264 -107.5q140 0 268 82q124 80 192 207q74 138 74 355l64 -1 q-4 -245 -98 -407l206 -256h-84l-161 197q-191 -238 -443 -238q-197 0 -324 118q-132 123 -128 318zM371 1210q0 -80 57 -159q68 -94 164 -94q15 0 31 3q56 5 119 70q73 75 73 166q0 100 -63 159.5t-164 59.5q-92 0 -153 -56q-64 -58 -64 -149z" />
<glyph unicode="'" horiz-adv-x="274" d="M102 981v453h70v-453h-70z" />
<glyph unicode="(" horiz-adv-x="590" d="M199 528q0 506 293 938h71q-297 -420 -297 -929q0 -517 318 -988h-70q-315 473 -315 979z" />
<glyph unicode=")" horiz-adv-x="590" d="M12 -451q320 475 320 988q0 509 -297 929h71q293 -432 293 -938q0 -504 -317 -979h-70z" />
<glyph unicode="*" horiz-adv-x="1024" d="M237 1044q0 33 118 101q64 37 103 49q-39 12 -103 49q-118 68 -118 101q0 16 21 16q39 0 134 -55q62 -36 93 -64q-9 41 -9 113q0 155 36 155t36 -155q0 -72 -9 -113q31 28 93 64q95 55 134 55q21 0 21 -16q0 -33 -118 -101q-64 -37 -103 -49q39 -12 103 -49 q118 -68 118 -101q0 -16 -21 -16q-39 0 -134 55q-62 36 -93 64q9 -41 9 -113q0 -155 -36 -155t-36 155q0 72 9 113q-31 -28 -93 -64q-95 -55 -134 -55q-21 0 -21 16zM506 1194q2 -2 3 -5h6q1 3 3 5q-2 2 -3 5h-6q-1 -3 -3 -5z" />
<glyph unicode="+" horiz-adv-x="1706" d="M254 580v61h569v580h62v-580h567v-61h-567v-580h-62v580h-569z" />
<glyph unicode="," horiz-adv-x="532" d="M175 105q0 38 26 68t63 30h1v5h70v-453h-70v251h-1q-37 0 -63 30.5t-26 68.5z" />
<glyph unicode="-" horiz-adv-x="702" d="M78 500v57h545v-57h-545z" />
<glyph unicode="." horiz-adv-x="532" d="M222 83q0 96 44 96q45 0 45 -96q0 -97 -45 -97q-44 0 -44 97zM222 83q0 96 44 96q45 0 45 -96q0 -97 -45 -97q-44 0 -44 97z" />
<glyph unicode="/" horiz-adv-x="598" d="M-34 -172l646 1683h70l-646 -1683h-70z" />
<glyph unicode="0" horiz-adv-x="1067" d="M80 696q0 292 83 479q114 257 369 257q258 0 372 -256q83 -186 83 -480q0 -292 -84 -480q-115 -257 -371 -257q-255 0 -369 258q-83 187 -83 479zM150 696q0 -264 66 -432q96 -244 319 -244t318 244q65 167 65 432t-65 431q-95 243 -318 243t-319 -242q-66 -167 -66 -432 zM363 466l281 467l49 -29l-281 -467z" />
<glyph unicode="1" horiz-adv-x="1067" d="M324 1017v93l238 282l1 -1h68v-1391h-68l-1 1290z" />
<glyph unicode="2" horiz-adv-x="1067" d="M65 0l735 811q85 94 85 229q0 149 -88.5 237.5t-237.5 88.5q-161 0 -252.5 -93.5t-91.5 -254.5v-23h-72v19q0 195 110.5 305.5t305.5 110.5q181 0 288 -100q111 -104 111 -283q0 -154 -91 -263h1l-651 -723h733v-61h-885z" />
<glyph unicode="3" horiz-adv-x="1067" d="M104 298l62 30q45 -299 352 -299q166 0 275.5 97.5t109.5 262.5q0 179 -110 281q-106 99 -287 99q-31 0 -63 -3l-11 66l47 -2q381 -16 381 277q0 259 -325 259q-254 0 -318 -219l-59 29q79 251 391 251q169 0 269 -73q114 -82 114 -245q0 -292 -238 -312 q130 -29 208 -150q73 -111 73 -250q0 -201 -126.5 -317.5t-328.5 -116.5q-355 0 -416 335z" />
<glyph unicode="4" horiz-adv-x="1067" d="M76 416l667 973l72 2v-959h158v-61h-158v-371h-65v371h-654zM166 430h586v846z" />
<glyph unicode="5" horiz-adv-x="1067" d="M98 358h66q35 -338 350 -338q182 0 285 113q100 109 100 293q0 176 -99.5 280.5t-275.5 104.5q-206 0 -321 -147h-56l-1 726l765 1v-62l-699 1v-577q121 117 325 117q201 0 318 -127q114 -122 114 -325q0 -211 -120.5 -336t-330.5 -125q-185 0 -295 110 q-106 105 -125 291z" />
<glyph unicode="6" horiz-adv-x="1067" d="M96 662q0 765 488 765q162 0 259 -92q94 -89 111 -252h-65q-40 281 -318 281q-405 0 -405 -686q0 -68 2 -102q80 327 389 327q202 0 313 -138q103 -127 103 -333q0 -201 -105 -331q-113 -142 -309 -142q-463 0 -463 703zM205 434q0 -174 81 -284q91 -125 259 -125 q173 0 268 120q88 110 88 287q0 178 -82 287q-92 123 -264 123q-171 0 -265 -122q-85 -110 -85 -286z" />
<glyph unicode="7" horiz-adv-x="1067" d="M119 1325v66h783v1h70l-489 -1392h-70l466 1324z" />
<glyph unicode="8" horiz-adv-x="1067" d="M90 387q0 281 270 377q-213 89 -213 309q0 167 111 264q105 93 274 93q172 0 276 -92q110 -96 110 -265q0 -213 -211 -309q270 -89 270 -369q0 -204 -125 -320q-121 -114 -326 -114q-195 0 -315.5 116t-120.5 310zM162 397q0 -167 101 -266.5t269 -99.5t270.5 97.5 t102.5 264.5q0 164 -107 253q-99 83 -266 83q-166 0 -264 -82q-106 -88 -106 -250zM221 1079q0 -136 89 -214q84 -74 222 -74q137 0 223 75q91 78 91 213t-91 215q-86 76 -223 76t-222 -76q-89 -79 -89 -215z" />
<glyph unicode="9" horiz-adv-x="1067" d="M96 954q0 204 102 333q111 140 310 140q465 0 465 -702q0 -766 -490 -766q-162 0 -259 92q-94 89 -111 252h65q41 -280 318 -280q405 0 405 686q0 66 -2 102q-37 -152 -134 -237q-103 -91 -255 -91q-202 0 -312 138q-102 126 -102 333zM166 954q0 -176 83 -286 q92 -123 263 -123q170 0 265 122q87 110 87 285q0 174 -82 285q-92 125 -260 125q-174 0 -269 -120q-87 -109 -87 -288z" />
<glyph unicode=":" horiz-adv-x="582" d="M232 83q0 96 44 96q45 0 45 -96q0 -97 -45 -97q-44 0 -44 97zM232 893q0 96 44 96q45 0 45 -96q0 -97 -45 -97q-44 0 -44 97z" />
<glyph unicode=";" horiz-adv-x="582" d="M175 105q0 38 26 68t63 30h1v5h70v-453h-70v251h-1q-37 0 -63 30.5t-26 68.5zM232 893q0 96 44 96q45 0 45 -96q0 -97 -45 -97q-44 0 -44 97z" />
<glyph unicode="&#x3c;" horiz-adv-x="1089" d="M142 590v41l805 377v-70l-696 -328l696 -336v-69z" />
<glyph unicode="=" horiz-adv-x="1706" d="M254 421v64h1198v-64h-1198zM254 746v63h1198v-63h-1198z" />
<glyph unicode="&#x3e;" horiz-adv-x="1089" d="M142 205l805 385v41l-805 377v-70l696 -328l-696 -336v-69z" />
<glyph unicode="?" horiz-adv-x="948" d="M74 1180q24 120 97 200q112 123 316 123q173 0 282 -89q118 -95 118 -265q0 -147 -107 -230q-10 -7 -199 -150q-107 -106 -107 -286q0 -56 9 -120h-65q-6 60 -6 113q0 207 105 324q11 12 195 149q105 78 105 192q0 297 -342 297q-287 0 -336 -278zM401 97q0 96 44 96 q45 0 45 -96q0 -97 -45 -97q-44 0 -44 97z" />
<glyph unicode="@" d="M127 524q0 326 197 566q291 354 790 354q332 0 549 -166q258 -197 258 -502q0 -371 -220 -544q-116 -91 -131 -100q-77 -46 -192 -61q-31 -4 -52 -4q-91 0 -91 72q0 10 1 21h-1l27 173q-122 -198 -360 -204q-180 -5 -282 165q-53 88 -53 191q0 46 10 109q33 210 145 337 q126 144 327 149q238 6 299 -192l28 182l65 2l-136 -878q4 -39 7 -46q9 -20 44 -20q16 0 43 5q113 21 178 67q25 17 110 107q152 160 152 471q0 292 -227 458q-203 148 -506 148q-334 0 -567 -188q-322 -259 -322 -688q0 -350 238 -544q220 -179 577 -179q343 0 631 192 l23 -34q-289 -215 -644 -215q-381 0 -616 180q-299 229 -299 616zM635 489q0 -106 40 -179q68 -125 236 -120q169 5 275 133q93 112 120 290q8 53 8 106q0 107 -40 181q-67 124 -234 120q-168 -5 -275 -134q-94 -113 -121 -290q-9 -59 -9 -107z" />
<glyph unicode="A" horiz-adv-x="1176" d="M-12 0l569 1473h78l559 -1473h-68l-190 502h-686l-193 -502h-69zM274 563h637l-315 830z" />
<glyph unicode="B" horiz-adv-x="1266" d="M168 0v1473h403q272 0 381 -64q158 -93 158 -301q0 -245 -252 -336q328 -63 328 -379q0 -217 -168 -321q-116 -72 -402 -72h-448zM238 61h364q243 0 332 37q180 75 180 308q0 200 -166 278q-117 55 -344 55h-366v-678zM238 793h342q460 0 460 319q0 187 -149 254 q-100 45 -316 45h-337v-618z" />
<glyph unicode="C" horiz-adv-x="1395" d="M104 733q0 335 142 538q163 234 483 234q220 0 371 -120q108 -85 153 -212l-64 -32q-102 303 -472 303q-276 0 -420 -227q-121 -191 -121 -484q0 -291 117 -479q140 -225 414 -225q220 0 358 118q108 92 141 239l60 -32q-40 -150 -151 -249q-153 -136 -398 -136 q-315 0 -475 233q-138 201 -138 531z" />
<glyph unicode="D" horiz-adv-x="1411" d="M168 0v1473h338q328 0 473 -72q326 -162 326 -666q0 -510 -326 -663q-153 -72 -473 -72h-338zM238 61h284q298 0 439 74q272 143 272 600q0 373 -195 547q-92 82 -244 110q-93 17 -272 17h-284v-1348z" />
<glyph unicode="E" horiz-adv-x="1161" d="M168 0v1473h899v-66h-829v-608h657v-64h-657v-669h849v-66h-919z" />
<glyph unicode="F" horiz-adv-x="1071" d="M168 0v1473h860v-66h-790v-608h628v-64h-628v-735h-70z" />
<glyph unicode="G" horiz-adv-x="1452" d="M106 735q0 330 151 537q170 233 488 233q201 0 342 -83q157 -92 212 -273l-65 -30q-98 325 -489 325q-285 0 -436 -220q-131 -190 -131 -489q0 -298 131 -488q151 -218 436 -218q250 0 391 152q138 147 138 399v63h-486v62h551q2 -39 2 -77q0 -467 -322 -606 q-127 -55 -274 -55q-317 0 -487 232q-152 207 -152 536z" />
<glyph unicode="H" horiz-adv-x="1405" d="M168 0v1473h70v-656h931v656h68v-1473h-68v756h-931v-756h-70z" />
<glyph unicode="I" horiz-adv-x="424" d="M178 0v1473h68v-1473h-68z" />
<glyph unicode="J" horiz-adv-x="969" d="M110 165q33 11 64 27q67 -165 270 -165q184 0 253 126q51 93 51 296v1024h67v-1045q0 -463 -377 -463q-248 0 -328 200z" />
<glyph unicode="K" horiz-adv-x="1192" d="M168 0v1473h70v-830l817 830h88l-582 -590l670 -883h-82l-633 836l-278 -283v-553h-70z" />
<glyph unicode="L" horiz-adv-x="1042" d="M170 0v1473h70v-1407h780v-66h-850z" />
<glyph unicode="M" horiz-adv-x="1583" d="M168 0v1473h98l537 -1037l516 1037h96v-1473h-61v1386l-533 -1034h-40l-552 1034v-1386h-61z" />
<glyph unicode="N" horiz-adv-x="1397" d="M168 0v1473h70l923 -1356v1356h68v-1473h-68l-925 1354v-1354h-68z" />
<glyph unicode="O" horiz-adv-x="1518" d="M106 735q0 337 154 541q171 229 498 229q329 0 500 -228q153 -203 153 -542t-153 -542q-171 -226 -500 -226q-326 0 -498 228q-154 204 -154 540zM178 735q0 -307 133 -493q151 -213 447 -213t448 213q133 185 133 493q0 305 -135 494q-153 215 -446 215t-446 -215 q-134 -188 -134 -494z" />
<glyph unicode="P" horiz-adv-x="1178" d="M168 0v1473h401q531 0 531 -390q0 -178 -111 -290q-73 -74 -199 -98q-78 -15 -227 -15h-325v-680h-70zM238 741h280q255 0 342 39q168 75 168 310q0 265 -273 309q-74 12 -235 12h-282v-670z" />
<glyph unicode="Q" horiz-adv-x="1518" d="M106 735q0 337 154 541q171 229 498 229q328 0 500 -228q153 -203 153 -542q0 -358 -174 -563q-73 -86 -168 -136q21 -63 53 -99q73 -83 304 -101l-12 -54q-253 18 -337 115q-37 43 -60 116q-115 -46 -259 -46q-326 0 -498 228q-154 204 -154 540zM178 735 q0 -307 133 -493q151 -213 447 -213q136 0 243 47q-22 94 -31 122q-22 67 -54 104q-71 83 -305 99l4 65q90 -5 185 -34q131 -40 180 -117q32 -50 71 -213q74 44 133 115q155 188 155 518q0 305 -135 494q-153 215 -446 215t-446 -215q-134 -188 -134 -494z" />
<glyph unicode="R" horiz-adv-x="1274" d="M168 0v1473h489q243 0 358 -71q146 -90 146 -315q0 -281 -266 -362q185 -36 207 -254q2 -15 2 -190l1 -281h-78v329q0 118 -5 149q-22 134 -115 182q-70 36 -225 36h-444v-696h-70zM238 758h454q400 0 400 323q0 271 -248 317q-59 11 -187 11h-419v-651z" />
<glyph unicode="S" horiz-adv-x="1174" d="M92 449h68q12 -195 126 -306q116 -114 310 -114q170 0 287 85q131 95 131 259q0 169 -138 255q-72 45 -294 107l-28 8q-251 71 -321 134q-104 94 -104 243q0 187 131 290q119 95 311 95q207 0 333 -112q131 -115 138 -320l-65 1q-3 176 -120 277q-111 97 -290 97 q-163 0 -263 -81q-109 -88 -109 -247q0 -114 90 -198q64 -60 291 -120q7 -2 28 -7q233 -62 324 -120q155 -99 155 -284q0 -205 -146 -319q-133 -105 -343 -105q-222 0 -355 131q-130 127 -147 351z" />
<glyph unicode="T" horiz-adv-x="1042" d="M33 1409v64h987v-64h-459v-1409h-69v1409h-459z" />
<glyph unicode="U" horiz-adv-x="1374" d="M158 514v959h67v-926q0 -518 463 -518q236 0 354 144q109 133 109 374v926h68v-959q0 -254 -138 -399q-140 -148 -393 -148q-255 0 -394 147q-136 143 -136 400z" />
<glyph unicode="V" horiz-adv-x="1075" d="M-6 1473h72l473 -1373l471 1373h71l-512 -1473h-65z" />
<glyph unicode="W" horiz-adv-x="1688" d="M16 1473h70l360 -1350l366 999h65l366 -999l359 1350h69l-393 -1473h-70l-364 1026l-365 -1026h-69z" />
<glyph unicode="X" horiz-adv-x="1085" d="M2 0l500 754l-477 719h79l439 -662l436 662h76l-471 -717l499 -756h-77l-467 694l-461 -694h-76z" />
<glyph unicode="Y" horiz-adv-x="1085" d="M2 1473h78l465 -752l459 752h77l-506 -826v-647h-67v651z" />
<glyph unicode="Z" horiz-adv-x="1083" d="M18 0v68l947 1341h-867v64h940v-70l-946 -1342h971v-61h-1045z" />
<glyph unicode="[" horiz-adv-x="618" d="M236 -422v1892h346v-63h-275v-1767h275v-62h-346z" />
<glyph unicode="\" horiz-adv-x="598" d="M-75 1511h70l633 -1683h-70z" />
<glyph unicode="]" horiz-adv-x="618" d="M45 -360h274v1767h-274v63h346v-1892h-346v62z" />
<glyph unicode="^" horiz-adv-x="1111" d="M210 954l297 502h98l297 -502h-109l-237 401l-237 -401h-109z" />
<glyph unicode="_" horiz-adv-x="1024" d="M0 -422h1024v-61h-1024v61z" />
<glyph unicode="`" horiz-adv-x="1024" d="M309 1524h109l209 -328l-109 1z" />
<glyph unicode="a" horiz-adv-x="1171" d="M94 528q0 244 110 391q123 166 359 166q298 0 402 -266v244h63v-1065h-63v231q-103 -258 -402 -258q-234 0 -358 167q-111 148 -111 390zM160 528q0 -214 92 -346q106 -153 311 -153t310 153q92 132 92 346q0 213 -92 346q-106 154 -310 154t-310 -154q-93 -133 -93 -346 z" />
<glyph unicode="b" horiz-adv-x="1171" d="M141 0v1470h66v-649q111 264 401 264q234 0 358 -167q111 -148 111 -390q0 -244 -110 -391q-123 -166 -359 -166q-278 0 -401 254v-225h-66zM207 528q0 -212 92 -345q106 -154 309 -154q205 0 311 153q93 133 93 346q0 215 -92 347q-106 153 -312 153q-205 0 -310 -154 q-91 -132 -91 -346z" />
<glyph unicode="c" horiz-adv-x="1063" d="M90 528q0 242 110 390q123 167 357 167q288 0 378 -232l-54 -35q-28 80 -99 137q-91 73 -225 73q-205 0 -310 -154q-91 -132 -91 -346q0 -212 92 -345q106 -154 309 -154q126 0 218.5 69.5t123.5 190.5l55 -34q-32 -112 -115 -185q-113 -99 -288 -99q-228 0 -352 170 q-109 150 -109 387z" />
<glyph unicode="d" horiz-adv-x="1171" d="M94 528q0 242 111 390q124 167 358 167q303 0 402 -256v641h63v-1470h-63v236q-104 -265 -402 -265q-236 0 -359 166q-110 147 -110 391zM160 528q0 -214 92 -346q106 -153 311 -153t310 153q92 132 92 346q0 213 -92 346q-106 154 -310 154t-310 -154q-93 -133 -93 -346 z" />
<glyph unicode="e" horiz-adv-x="1071" d="M88 528q0 237 104 386q120 171 347 171q223 0 340 -154q106 -138 106 -368v-39h-829v-16q0 -197 91 -328q105 -151 292 -151q258 0 349 242l54 -29q-40 -109 -128 -179q-116 -92 -275 -92q-227 0 -347 171q-104 149 -104 386zM158 584h757q0 184 -88 306 q-98 138 -276 138q-184 0 -289 -134q-93 -118 -104 -310z" />
<glyph unicode="f" horiz-adv-x="433" d="M99 0v1212q0 140 30 194q41 74 167 75l189 1v-55h-177q-98 0 -127 -61q-19 -40 -19 -152v-151h209v-59h-209v-1004h-63z" />
<glyph unicode="g" horiz-adv-x="1171" d="M94 528q0 244 110 391q123 166 359 166q140 0 245 -65q111 -68 157 -195v238h63v-1006q0 -203 -67 -301q-125 -184 -426 -184q-166 0 -272 72q-124 83 -126 241h62q7 -134 117 -200q92 -56 235 -56q265 0 367 181q47 83 47 309v108q-111 -258 -406 -258q-233 0 -356 169 q-109 149 -109 390zM160 528q0 -214 92 -346q106 -153 311 -153t310 153q92 132 92 346q0 213 -92 346q-106 154 -310 154t-310 -154q-93 -133 -93 -346z" />
<glyph unicode="h" horiz-adv-x="1067" d="M141 0v1470h66v-581q100 196 358 196q365 0 365 -380v-705h-66v684q0 169 -62 250q-71 92 -235 92q-300 0 -349 -272q-11 -61 -11 -185v-569h-66z" />
<glyph unicode="i" horiz-adv-x="358" d="M135 1392q0 96 44 96q45 0 45 -96q0 -97 -45 -97q-44 0 -44 97zM147 0v1063h64v-1063h-64z" />
<glyph unicode="j" horiz-adv-x="358" d="M-104 -362h112q102 0 128 61q14 33 14 158v1206h63v-1229q0 -140 -27 -189q-38 -69 -163 -69h-127v62zM131 1392q0 96 44 96q45 0 45 -96q0 -97 -45 -97q-44 0 -44 97z" />
<glyph unicode="k" horiz-adv-x="938" d="M141 0v1470h66v-1013l612 606h80l-387 -387l449 -676h-74l-420 631l-260 -252v-379h-66z" />
<glyph unicode="l" horiz-adv-x="358" d="M147 0v1470h64v-1470h-64z" />
<glyph unicode="m" horiz-adv-x="1673" d="M141 0v1063h66v-174q104 196 332 196q256 0 315 -217q110 217 346 217q336 0 336 -380v-705h-66v639q0 179 -30 250q-58 137 -242 137q-191 0 -269 -140q-59 -106 -59 -313v-573h-63v639q0 178 -31 250q-59 137 -241 137q-273 0 -318 -271q-10 -60 -10 -182v-573h-66z " />
<glyph unicode="n" horiz-adv-x="1067" d="M141 0v1063h66v-174q100 196 358 196q365 0 365 -380v-705h-66v684q0 169 -62 250q-71 92 -235 92q-300 0 -349 -272q-11 -61 -11 -185v-569h-66z" />
<glyph unicode="o" horiz-adv-x="1116" d="M90 528q0 242 110 390q123 167 357 167t358 -167q111 -148 111 -390t-111 -390q-124 -167 -358 -167t-357 167q-110 148 -110 390zM156 528q0 -212 92 -345q106 -154 309 -154q205 0 311 153q93 133 93 346t-93 346q-107 154 -311 154q-205 0 -310 -154 q-91 -132 -91 -346z" />
<glyph unicode="p" horiz-adv-x="1171" d="M141 -422v1485h66v-244q104 266 401 266q236 0 359 -166q110 -147 110 -391q0 -242 -111 -390q-124 -167 -358 -167q-300 0 -401 258v-651h-66zM207 528q0 -212 92 -345q106 -154 309 -154q205 0 311 153q93 133 93 346q0 215 -92 347q-106 153 -312 153 q-205 0 -310 -154q-91 -132 -91 -346z" />
<glyph unicode="q" horiz-adv-x="1171" d="M94 528q0 244 110 391q123 166 359 166q298 0 402 -266v244h63v-1485h-63v651q-103 -258 -402 -258q-234 0 -358 167q-111 148 -111 390zM160 528q0 -214 92 -346q106 -153 311 -153t310 153q92 132 92 346q0 213 -92 346q-106 154 -310 154t-310 -154q-93 -133 -93 -346 z" />
<glyph unicode="r" horiz-adv-x="539" d="M141 0v1063h66l-1 -176q81 172 341 172h12l-40 -57q-75 0 -110 -12q-69 -24 -143 -106q-60 -67 -60 -178l1 -706h-66z" />
<glyph unicode="s" horiz-adv-x="985" d="M102 315h64q53 -282 340 -282q128 0 213 55q100 64 100 186q0 148 -210 205q-14 4 -56 15q-262 68 -336 127q-86 68 -86 184q0 137 118 214q102 66 247 66q149 0 244 -78q100 -81 114 -227h-63q-35 248 -304 248q-113 0 -193 -50q-95 -59 -95 -165q0 -157 325 -242 q5 -2 21 -6q167 -43 233 -87q109 -71 109 -206q0 -143 -122 -227q-107 -74 -257 -74q-172 0 -278 86q-111 90 -128 258z" />
<glyph unicode="t" horiz-adv-x="383" d="M97 0v1354h65v-291h213v-57h-213v-1006h-65z" />
<glyph unicode="u" horiz-adv-x="1067" d="M137 352v711h64v-690q0 -170 63 -251q71 -91 236 -91q300 0 349 271q11 61 11 185v576h64v-1063h-64v166q-101 -195 -358 -195q-365 0 -365 381z" />
<glyph unicode="v" horiz-adv-x="909" d="M16 1063h68l365 -987l378 987h68l-410 -1063h-73z" />
<glyph unicode="w" horiz-adv-x="1370" d="M27 1063h67l303 -963l254 743h60l260 -743l307 963h65l-339 -1063h-66l-258 728l-250 -728h-65z" />
<glyph unicode="x" horiz-adv-x="840" d="M-10 0l389 549l-373 514h78l336 -461l328 461h75l-366 -514l393 -549h-76l-356 498l-352 -498h-76z" />
<glyph unicode="y" horiz-adv-x="1067" d="M127 -109h55q6 -127 100 -193q82 -58 215 -58q237 0 329 177q22 42 32 103q6 36 6 113v163q-100 -196 -358 -196q-365 0 -365 380v705h66v-684q0 -169 62 -250q71 -92 235 -92q300 0 349 272q11 61 11 185v569h66v-1063h-1q-1 -64 -19 -144q-39 -173 -198 -248 q-97 -46 -229 -46q-153 0 -249 76q-105 82 -107 231z" />
<glyph unicode="z" horiz-adv-x="895" d="M35 0v76l733 923h-692v64h762v-76l-734 -924h756v-63h-825z" />
<glyph unicode="{" horiz-adv-x="1024" d="M275 494l45 2q214 10 214 -158q0 -90 -52.5 -263.5t-52.5 -263.5q0 -231 320 -225v70q-242 -3 -242 180q0 88 54 258t54 258q0 146 -143 178q144 26 144 182q0 90 -49 263.5t-49 263.5q0 170 190 170q20 0 41 -2v70h-33q-283 0 -283 -215q0 -88 49.5 -259t49.5 -259 q0 -191 -257 -177v-73z" />
<glyph unicode="|" horiz-adv-x="1024" d="M475 -483v2048h74v-2048h-74z" />
<glyph unicode="}" horiz-adv-x="1024" d="M182 -344q242 -3 242 180q0 88 -54 258t-54 258q0 146 143 178q-144 26 -144 182q0 90 49 263.5t49 263.5q0 170 -190 170q-20 0 -41 -2v70h33q283 0 283 -215q0 -88 -49.5 -259t-49.5 -259q0 -191 257 -177v-73l-45 2q-214 10 -214 -158q0 -90 52.5 -263.5t52.5 -263.5 q0 -231 -320 -225v70z" />
<glyph unicode="~" horiz-adv-x="1232" d="M135 487v76q145 151 276 151q65 0 205 -72.5t205 -72.5q110 0 276 163v-73q-151 -150 -276 -150q-64 0 -205.5 72t-204.5 72q-111 0 -276 -166z" />
<glyph unicode="&#xa0;" />
<glyph unicode="&#xa1;" />
<glyph unicode="&#xa2;" />
<glyph unicode="&#xa3;" />
<glyph unicode="&#xa4;" />
<glyph unicode="&#xa5;" />
<glyph unicode="&#xa6;" />
<glyph unicode="&#xa7;" />
<glyph unicode="&#xa8;" />
<glyph unicode="&#xa9;" />
<glyph unicode="&#xaa;" />
<glyph unicode="&#xab;" />
<glyph unicode="&#xac;" />
<glyph unicode="&#xad;" horiz-adv-x="702" d="M78 500v57h545v-57h-545z" />
<glyph unicode="&#xae;" />
<glyph unicode="&#xaf;" />
<glyph unicode="&#xb0;" />
<glyph unicode="&#xb1;" />
<glyph unicode="&#xb2;" />
<glyph unicode="&#xb3;" />
<glyph unicode="&#xb4;" />
<glyph unicode="&#xb5;" />
<glyph unicode="&#xb6;" />
<glyph unicode="&#xb7;" />
<glyph unicode="&#xb8;" />
<glyph unicode="&#xb9;" />
<glyph unicode="&#xba;" />
<glyph unicode="&#xbb;" />
<glyph unicode="&#xbc;" />
<glyph unicode="&#xbd;" />
<glyph unicode="&#xbe;" />
<glyph unicode="&#xbf;" />
<glyph unicode="&#xc0;" />
<glyph unicode="&#xc1;" />
<glyph unicode="&#xc2;" />
<glyph unicode="&#xc3;" />
<glyph unicode="&#xc4;" />
<glyph unicode="&#xc5;" />
<glyph unicode="&#xc6;" />
<glyph unicode="&#xc7;" />
<glyph unicode="&#xc8;" />
<glyph unicode="&#xc9;" />
<glyph unicode="&#xca;" />
<glyph unicode="&#xcb;" />
<glyph unicode="&#xcc;" />
<glyph unicode="&#xcd;" />
<glyph unicode="&#xce;" />
<glyph unicode="&#xcf;" />
<glyph unicode="&#xd0;" />
<glyph unicode="&#xd1;" />
<glyph unicode="&#xd2;" />
<glyph unicode="&#xd3;" />
<glyph unicode="&#xd4;" />
<glyph unicode="&#xd5;" />
<glyph unicode="&#xd6;" />
<glyph unicode="&#xd7;" />
<glyph unicode="&#xd8;" />
<glyph unicode="&#xd9;" />
<glyph unicode="&#xda;" />
<glyph unicode="&#xdb;" />
<glyph unicode="&#xdc;" />
<glyph unicode="&#xdd;" />
<glyph unicode="&#xde;" />
<glyph unicode="&#xdf;" />
<glyph unicode="&#xe0;" />
<glyph unicode="&#xe1;" />
<glyph unicode="&#xe2;" />
<glyph unicode="&#xe3;" />
<glyph unicode="&#xe4;" />
<glyph unicode="&#xe5;" />
<glyph unicode="&#xe6;" />
<glyph unicode="&#xe7;" />
<glyph unicode="&#xe8;" />
<glyph unicode="&#xe9;" />
<glyph unicode="&#xea;" />
<glyph unicode="&#xeb;" />
<glyph unicode="&#xec;" />
<glyph unicode="&#xed;" />
<glyph unicode="&#xee;" />
<glyph unicode="&#xef;" />
<glyph unicode="&#xf0;" />
<glyph unicode="&#xf1;" />
<glyph unicode="&#xf2;" />
<glyph unicode="&#xf3;" />
<glyph unicode="&#xf4;" />
<glyph unicode="&#xf5;" />
<glyph unicode="&#xf6;" />
<glyph unicode="&#xf7;" />
<glyph unicode="&#xf8;" />
<glyph unicode="&#xf9;" />
<glyph unicode="&#xfa;" />
<glyph unicode="&#xfb;" />
<glyph unicode="&#xfc;" />
<glyph unicode="&#xfd;" />
<glyph unicode="&#xfe;" />
<glyph unicode="&#xff;" />
<glyph unicode="&#x152;" />
<glyph unicode="&#x153;" />
<glyph unicode="&#x178;" />
<glyph unicode="&#x2c6;" />
<glyph unicode="&#x2dc;" />
<glyph unicode="&#x2000;" horiz-adv-x="859" />
<glyph unicode="&#x2001;" horiz-adv-x="1719" />
<glyph unicode="&#x2002;" horiz-adv-x="859" />
<glyph unicode="&#x2003;" horiz-adv-x="1719" />
<glyph unicode="&#x2004;" horiz-adv-x="573" />
<glyph unicode="&#x2005;" horiz-adv-x="429" />
<glyph unicode="&#x2006;" horiz-adv-x="286" />
<glyph unicode="&#x2007;" horiz-adv-x="286" />
<glyph unicode="&#x2008;" horiz-adv-x="214" />
<glyph unicode="&#x2009;" horiz-adv-x="343" />
<glyph unicode="&#x200a;" horiz-adv-x="95" />
<glyph unicode="&#x2010;" horiz-adv-x="702" d="M78 500v57h545v-57h-545z" />
<glyph unicode="&#x2011;" horiz-adv-x="702" d="M78 500v57h545v-57h-545z" />
<glyph unicode="&#x2012;" horiz-adv-x="702" d="M78 500v57h545v-57h-545z" />
<glyph unicode="&#x2013;" />
<glyph unicode="&#x2014;" />
<glyph unicode="&#x2018;" horiz-adv-x="485" d="M171 1037l114 453l70 -1l-63 -251h1q67 0 67 -75q0 -46 -35.5 -84t-80.5 -38h-1l-2 -5z" />
<glyph unicode="&#x2019;" horiz-adv-x="485" d="M171 1363q0 45 36 83.5t81 38.5h1l1 5l70 -1l-113 -453l-70 1l63 251h-1q-68 0 -68 75z" />
<glyph unicode="&#x201a;" />
<glyph unicode="&#x201c;" horiz-adv-x="725" d="M171 1037l114 453l70 -1l-63 -251h1q67 0 67 -75q0 -46 -35.5 -84t-80.5 -38h-1l-2 -5zM471 1037l114 453l70 -1l-63 -251h1q67 0 67 -75q0 -46 -35.5 -84t-80.5 -38h-1l-2 -5z" />
<glyph unicode="&#x201d;" horiz-adv-x="725" d="M171 1363q0 46 36 84t81 38h1l1 5l70 -1l-113 -453l-70 1l63 251h-1q-68 0 -68 75zM471 1363q0 46 36 84t81 38h1l1 5l70 -1l-113 -453l-70 1l63 251h-1q-68 0 -68 75z" />
<glyph unicode="&#x201e;" />
<glyph unicode="&#x2022;" />
<glyph unicode="&#x2026;" />
<glyph unicode="&#x202f;" horiz-adv-x="343" />
<glyph unicode="&#x2039;" />
<glyph unicode="&#x203a;" />
<glyph unicode="&#x205f;" horiz-adv-x="429" />
<glyph unicode="&#x2122;" />
<glyph unicode="&#xe000;" horiz-adv-x="1065" d="M0 0v1065h1065v-1065h-1065z" />
</font>
</defs>
</svg>
