<?xml version="1.0" standalone="no"?>
<!DOCTYPE svg PUBLIC "-//W3C//DTD SVG 1.1//EN" "http://www.w3.org/Graphics/SVG/1.1/DTD/svg11.dtd" >
<svg>
<metadata>
Created by FontForge 20090914 at Fri Feb 24 12:20:06 2012
 By root
Copyright(c) 2011 M+ FONTS PROJECT
</metadata>
<defs>
<font id="mplus-2p-thin" horiz-adv-x="1000" >
  <font-face 
    font-family="M+ 2p thin"
    font-weight="100"
    font-stretch="normal"
    units-per-em="1000"
    panose-1="2 11 3 3 2 2 3 2 2 7"
    ascent="860"
    descent="-140"
    x-height="520"
    cap-height="730"
    bbox="-122 -320 1398 1075"
    underline-thickness="50"
    underline-position="-100"
    unicode-range="U+0020-U+26ED9"
  />
<missing-glyph horiz-adv-x="364" 
d="M33 0v666h265v-666h-265zM66 33h199v600h-199v-600z" />
    <glyph glyph-name="uniFB00" unicode="ff" horiz-adv-x="766" 
d="M193 480v-480h-20v480h-110v20h110v90q0 78 33.5 114t106.5 36q44 0 80 -15l-7 -19q-34 14 -73 14q-64 0 -92 -30.5t-28 -99.5v-90h275v90q0 78 33.5 114t106.5 36q44 0 80 -15l-7 -19q-34 14 -73 14q-64 0 -92 -30.5t-28 -99.5v-90h200v-20h-200v-480h-20v480h-275z" />
    <glyph glyph-name="uniFB01" unicode="fi" horiz-adv-x="576" 
d="M468 640v110h20v-110h-20zM468 500v20h20v-520h-20v480h-275v-480h-20v480h-110v20h110v90q0 78 33.5 114t106.5 36q44 0 80 -15l-7 -19q-34 14 -73 14q-64 0 -92 -30.5t-28 -99.5v-90h275z" />
    <glyph glyph-name="uniFB02" unicode="fl" horiz-adv-x="576" 
d="M488 720v-720h-20v704q-82 16 -155 16q-64 0 -92 -30.5t-28 -99.5v-90h185v-20h-185v-480h-20v480h-110v20h110v90q0 78 33.5 114t106.5 36q84 0 175 -20z" />
    <glyph glyph-name="uniFB03" unicode="ffi" horiz-adv-x="851" 
d="M743 640v110h20v-110h-20zM478 500h265v20h20v-520h-20v480h-265v-480h-20v480h-265v-480h-20v480h-110v20h110v90q0 78 33.5 114t106.5 36q44 0 80 -15l-7 -19q-34 14 -73 14q-64 0 -92 -30.5t-28 -99.5v-90h265v90q0 78 33.5 114t106.5 36q44 0 80 -15l-7 -19
q-34 14 -73 14q-64 0 -92 -30.5t-28 -99.5v-90z" />
    <glyph glyph-name="uniFB04" unicode="ffl" horiz-adv-x="851" 
d="M763 720v-720h-20v704q-73 16 -145 16q-64 0 -92 -30.5t-28 -99.5v-90h175v-20h-175v-480h-20v480h-265v-480h-20v480h-110v20h110v90q0 78 33.5 114t106.5 36q44 0 80 -15l-7 -19q-34 14 -73 14q-64 0 -92 -30.5t-28 -99.5v-90h265v90q0 78 33.5 114t106.5 36
q77 0 165 -20z" />
    <glyph glyph-name=".notdef" horiz-adv-x="364" 
d="M33 0v666h265v-666h-265zM66 33h199v600h-199v-600z" />
    <glyph glyph-name="glyph1" horiz-adv-x="0" 
 />
    <glyph glyph-name="glyph2" horiz-adv-x="333" 
 />
    <glyph glyph-name="space" unicode=" " horiz-adv-x="373" 
 />
    <glyph glyph-name="exclam" unicode="!" horiz-adv-x="306" 
d="M143 190v540h20v-540h-20zM143 0v110h20v-110h-20z" />
    <glyph glyph-name="quotedbl" unicode="&#x22;" horiz-adv-x="336" 
d="M78 550v220h20v-220h-20zM238 550v220h20v-220h-20z" />
    <glyph glyph-name="numbersign" unicode="#" horiz-adv-x="668" 
d="M58 215v20h132l49 280h-128v20h132l34 195h20l-34 -195h200l34 195h20l-34 -195h128v-20h-132l-49 -280h128v-20h-132l-38 -215h-20l38 215h-200l-38 -215h-20l38 215h-128zM410 235l49 280h-200l-49 -280h200z" />
    <glyph glyph-name="dollar" unicode="$" horiz-adv-x="591" 
d="M63 70l9 18q100 -50 206 -53v332q-105 18 -155 62.5t-50 120.5t54.5 119.5t150.5 45.5v100h20v-100q104 -3 205 -40l-7 -19q-98 36 -198 39v-312q113 -20 166.5 -67t53.5 -126q0 -83 -57.5 -128.5t-162.5 -46.5v-100h-20v100q-111 3 -215 55zM298 363v-328
q95 1 147.5 41.5t52.5 113.5q0 71 -48.5 113t-151.5 60zM278 387v308q-88 -1 -136.5 -39t-48.5 -106q0 -67 44.5 -106.5t140.5 -56.5z" />
    <glyph glyph-name="percent" unicode="%" horiz-adv-x="816" 
d="M607 730h23l-421 -730h-23zM458 175q0 87 41 136t114 49t114 -49t41 -136t-41 -136t-114 -49t-114 49t-41 136zM48 555q0 87 41 136t114 49t114 -49t41 -136t-41 -136t-114 -49t-114 49t-41 136zM613 10q64 0 99.5 44t35.5 121t-35.5 121t-99.5 44t-99.5 -44t-35.5 -121
t35.5 -121t99.5 -44zM203 390q64 0 99.5 44t35.5 121t-35.5 121t-99.5 44t-99.5 -44t-35.5 -121t35.5 -121t99.5 -44z" />
    <glyph glyph-name="ampersand" unicode="&#x26;" horiz-adv-x="690" 
d="M270 417l-14 16q-59 65 -81 105t-22 82q0 53 43.5 86.5t111.5 33.5q73 0 114 -32t41 -88q0 -54 -34 -97.5t-129 -109.5l232 -257q49 82 71 206l20 -4q-24 -135 -76 -218l126 -140h-27l-111 123q-91 -133 -252 -133q-105 0 -162.5 47t-57.5 133q0 58 45.5 113.5
t148.5 124.5zM287 428q95 65 125.5 105t30.5 87q0 48 -35 74t-100 26q-61 0 -98 -27.5t-37 -72.5q0 -36 19 -72t78 -101zM521 138l-237 264l-15 -10q-99 -66 -142.5 -118t-43.5 -104q0 -76 52.5 -118t147.5 -42q151 0 238 128z" />
    <glyph glyph-name="quotesingle" unicode="'" horiz-adv-x="186" 
d="M83 550v220h20v-220h-20z" />
    <glyph glyph-name="parenleft" unicode="(" horiz-adv-x="341" 
d="M78 330q0 267 181 440h29q-190 -171 -190 -440t190 -440h-29q-181 173 -181 440z" />
    <glyph glyph-name="parenright" unicode=")" horiz-adv-x="341" 
d="M82 770q181 -173 181 -440t-181 -440h-29q190 171 190 440t-190 440h29z" />
    <glyph glyph-name="asterisk" unicode="*" horiz-adv-x="509" 
d="M442 656l-167 -96l167 -96l-10 -18l-167 97v-193h-20v193l-167 -97l-10 18l167 96l-167 96l10 18l167 -97v193h20v-193l167 97z" />
    <glyph glyph-name="plus" unicode="+" horiz-adv-x="736" 
d="M648 300v-20h-270v-280h-20v280h-270v20h270v280h20v-280h270z" />
    <glyph glyph-name="comma" unicode="," horiz-adv-x="247" 
d="M148 110h21l-80 -220h-21z" />
    <glyph glyph-name="hyphen" unicode="-" horiz-adv-x="446" 
d="M88 280v20h270v-20h-270z" />
    <glyph glyph-name="period" unicode="." horiz-adv-x="226" 
d="M103 0v120h20v-120h-20z" />
    <glyph glyph-name="slash" unicode="/" horiz-adv-x="465" 
d="M408 730l-343 -770h-22l343 770h22z" />
    <glyph glyph-name="zero" unicode="0" horiz-adv-x="613" 
d="M313 -10q-37 0 -70 9t-67 34t-58 65.5t-39.5 109t-15.5 157.5t15.5 157.5t39.5 109t58 65.5t67 34t70 9t70 -9t67 -34t58 -65.5t39.5 -109t15.5 -157.5t-15.5 -157.5t-39.5 -109t-58 -65.5t-67 -34t-70 -9zM313 10q230 0 230 355t-230 355t-230 -355t230 -355z" />
    <glyph glyph-name="one" unicode="1" horiz-adv-x="613" 
d="M338 702h-2l-214 -206l-14 14l230 220h20v-730h-20v702z" />
    <glyph glyph-name="two" unicode="2" horiz-adv-x="613" 
d="M95 644l-12 16q46 36 108 58t117 22q97 0 151.5 -53t54.5 -147q0 -96 -85.5 -209.5t-305.5 -308.5v-2h400v-20h-430v20q232 204 316.5 317t84.5 203q0 86 -49 133t-137 47q-51 0 -110.5 -21t-102.5 -55z" />
    <glyph glyph-name="three" unicode="3" horiz-adv-x="618" 
d="M142 663l-11 17q52 33 97 46.5t103 13.5q97 0 153.5 -43t56.5 -117q0 -67 -45.5 -113t-128.5 -65v-2q189 -33 189 -190q0 -108 -63.5 -164t-186.5 -56q-109 0 -200 65l12 16q86 -61 188 -61q230 0 230 200q0 180 -280 180h-40v20h40q124 0 194.5 45t70.5 125
q0 66 -50.5 103t-139.5 37q-97 0 -189 -57z" />
    <glyph glyph-name="four" unicode="4" horiz-adv-x="613" 
d="M53 212v-2h355v486h-2zM408 190h-380v20l380 520h20v-520h140v-20h-140v-190h-20v190z" />
    <glyph glyph-name="five" unicode="5" horiz-adv-x="613" 
d="M98 45l11 17q77 -52 174 -52q110 0 167.5 56t57.5 164q0 94 -55 144.5t-160 50.5q-88 0 -154 -50h-21l26 355h354v-20h-336l-23 -310h2q68 45 152 45q112 0 173.5 -56t61.5 -159q0 -116 -63 -178t-182 -62q-103 0 -185 55z" />
    <glyph glyph-name="six" unicode="6" horiz-adv-x="613" 
d="M95 360l2 -1q31 56 87.5 88.5t128.5 32.5q108 0 176.5 -64.5t68.5 -165.5q0 -119 -66.5 -189.5t-178.5 -70.5t-178.5 70.5t-66.5 189.5q0 206 92 336t253 154l3 -20q-131 -19 -214.5 -113.5t-106.5 -246.5zM313 10q104 0 164.5 64.5t60.5 175.5q0 93 -63 151.5t-162 58.5
q-96 0 -160.5 -60t-64.5 -150q0 -111 60.5 -175.5t164.5 -64.5z" />
    <glyph glyph-name="seven" unicode="7" horiz-adv-x="613" 
d="M515 710h-427v20h450v-20q-179 -299 -309 -710h-21q126 404 307 708v2z" />
    <glyph glyph-name="eight" unicode="8" horiz-adv-x="613" 
d="M364 391v-2q199 -45 199 -199q0 -92 -67.5 -146t-182.5 -54t-182.5 54t-67.5 146q0 154 199 199v2q-80 22 -125 70t-45 114q0 75 60.5 120t160.5 45t160.5 -45t60.5 -120q0 -66 -45 -114t-125 -70zM313 400q93 14 147 61t54 114q0 66 -55 105.5t-146 39.5t-146 -39.5
t-55 -105.5q0 -67 54 -114t147 -61zM313 380q-230 -35 -230 -190q0 -83 62 -131.5t168 -48.5t168 48.5t62 131.5q0 155 -230 190z" />
    <glyph glyph-name="nine" unicode="9" horiz-adv-x="613" 
d="M531 373h-2q-31 -57 -88 -90t-128 -33q-108 0 -176.5 65.5t-68.5 169.5q0 116 66.5 185.5t178.5 69.5t178.5 -69.5t66.5 -185.5q0 -211 -92.5 -340.5t-261.5 -154.5l-2 20q136 20 221 114.5t108 248.5zM313 720q-104 0 -164.5 -63t-60.5 -172q0 -97 62 -156t163 -59
q98 0 161.5 60.5t63.5 154.5q0 109 -60.5 172t-164.5 63z" />
    <glyph glyph-name="colon" unicode=":" horiz-adv-x="306" 
d="M143 380v120h20v-120h-20zM143 0v120h20v-120h-20z" />
    <glyph glyph-name="semicolon" unicode=";" horiz-adv-x="327" 
d="M168 110h21l-80 -220h-21zM153 380v120h20v-120h-20z" />
    <glyph glyph-name="less" unicode="&#x3c;" horiz-adv-x="656" 
d="M91 291v-2l462 -237v-22l-480 247v26l480 247v-22z" />
    <glyph glyph-name="equal" unicode="=" horiz-adv-x="756" 
d="M98 390v20h560v-20h-560zM98 170v20h560v-20h-560z" />
    <glyph glyph-name="greater" unicode="&#x3e;" horiz-adv-x="656" 
d="M565 291l-462 237v22l480 -247v-26l-480 -247v22l462 237v2z" />
    <glyph glyph-name="question" unicode="?" horiz-adv-x="609" 
d="M73 704q108 36 223 36t177.5 -39.5t62.5 -110.5q0 -49 -22.5 -88t-46.5 -58t-68 -47q-37 -24 -55 -37.5t-42.5 -39t-35 -57.5t-10.5 -73h-20q0 45 12 80.5t39 63.5t45.5 42t55.5 38q32 20 49 33t38.5 35t31 48.5t9.5 59.5q0 62 -57.5 96t-162.5 34q-114 0 -217 -34z
M236 0v110h20v-110h-20z" />
    <glyph glyph-name="at" unicode="@" horiz-adv-x="836" 
d="M763 260q0 154 -95.5 249.5t-249.5 95.5q-152 0 -248.5 -96.5t-96.5 -248.5t96.5 -248.5t248.5 -96.5q114 0 201 58l11 -16q-93 -62 -212 -62q-161 0 -263 102t-102 263t102 263t263 102q164 0 264.5 -100.5t100.5 -264.5q0 -98 -55 -155.5t-143 -57.5q-52 0 -75 29
q-17 23 -14 67h-1q-59 -96 -160 -96q-64 0 -101 49q-50 66 -19 174q29 102 86.5 159.5t128.5 57.5q65 0 101 -47q18 -23 25 -66h1l28 98h21l-80 -279q-21 -76 0 -105q16 -21 59 -21q81 0 129.5 52.5t48.5 140.5zM335 67q70 0 116 49t77 156q29 100 -13 156q-29 39 -85 39
q-64 0 -116 -54t-79 -149q-28 -99 15 -156q30 -41 85 -41z" />
    <glyph glyph-name="A" unicode="A" horiz-adv-x="676" 
d="M339 713h-2l-169 -443h340zM516 250h-356l-96 -250h-21l280 730h30l280 -730h-21z" />
    <glyph glyph-name="B" unicode="B" horiz-adv-x="591" 
d="M349 403v-2q189 -31 189 -186q0 -215 -300 -215h-140v730h130q270 0 270 -165q0 -126 -149 -162zM118 410h120q116 0 178 40t62 115q0 22 -4 39.5t-19.5 38t-41.5 34.5t-73.5 23.5t-111.5 9.5h-110v-300zM118 390v-370h120q143 0 211.5 47.5t68.5 147.5q0 175 -280 175
h-120z" />
    <glyph glyph-name="C" unicode="C" horiz-adv-x="691" 
d="M607 71l11 -16q-94 -65 -220 -65q-160 0 -255 102t-95 273q0 173 94 274t256 101q126 0 220 -65l-11 -16q-88 61 -209 61q-153 0 -241.5 -95.5t-88.5 -259.5q0 -162 90 -258.5t240 -96.5q119 0 209 61z" />
    <glyph glyph-name="D" unicode="D" horiz-adv-x="681" 
d="M118 710v-690h130q177 0 268.5 90.5t91.5 264.5q0 335 -360 335h-130zM628 375q0 -181 -98 -278t-282 -97h-150v730h150q187 0 283.5 -90.5t96.5 -264.5z" />
    <glyph glyph-name="E" unicode="E" horiz-adv-x="576" 
d="M113 390v-370h380v-20h-400v730h400v-20h-380v-300h360v-20h-360z" />
    <glyph glyph-name="F" unicode="F" horiz-adv-x="561" 
d="M483 710h-370v-310h350v-20h-350v-380h-20v730h390v-20z" />
    <glyph glyph-name="G" unicode="G" horiz-adv-x="741" 
d="M658 44q-111 -54 -250 -54q-164 0 -262 102t-98 273t98 273t262 102q129 0 225 -60l-11 -17q-91 57 -214 57q-157 0 -248.5 -95.5t-91.5 -259.5t91.5 -259.5t248.5 -95.5q127 0 230 47v333h-300v20h320v-366z" />
    <glyph glyph-name="H" unicode="H" horiz-adv-x="686" 
d="M573 730h20v-730h-20v390h-460v-390h-20v730h20v-320h460v320z" />
    <glyph glyph-name="I" unicode="I" horiz-adv-x="286" 
d="M133 0v730h20v-730h-20z" />
    <glyph glyph-name="J" unicode="J" horiz-adv-x="516" 
d="M33 20l8 18q62 -28 142 -28q113 0 171.5 68.5t58.5 201.5v450h20v-450q0 -143 -65.5 -216.5t-184.5 -73.5q-83 0 -150 30z" />
    <glyph glyph-name="K" unicode="K" horiz-adv-x="596" 
d="M115 366h-2v-366h-20v730h20v-336h2l397 336h31l-415 -350l425 -380h-30z" />
    <glyph glyph-name="L" unicode="L" horiz-adv-x="581" 
d="M113 730v-710h400v-20h-420v730h20z" />
    <glyph glyph-name="M" unicode="M" horiz-adv-x="816" 
d="M646 709h-2l-220 -709h-32l-220 709h-2l-92 -709h-20l95 730h34l220 -710h2l220 710h34l95 -730h-20z" />
    <glyph glyph-name="N" unicode="N" horiz-adv-x="696" 
d="M583 21v709h20v-730h-32l-456 709h-2v-709h-20v730h32l456 -709h2z" />
    <glyph glyph-name="O" unicode="O" horiz-adv-x="796" 
d="M398 10q148 0 239 98t91 257t-91 257t-239 98t-239 -98t-91 -257t91 -257t239 -98zM398 -10q-157 0 -253.5 103.5t-96.5 271.5t96.5 271.5t253.5 103.5t253.5 -103.5t96.5 -271.5t-96.5 -271.5t-253.5 -103.5z" />
    <glyph glyph-name="P" unicode="P" horiz-adv-x="586" 
d="M248 710h-130v-370h140q135 0 197.5 47t62.5 148q0 57 -20 93t-81 59t-169 23zM118 320v-320h-20v730h150q155 0 222.5 -45.5t67.5 -149.5q0 -110 -68.5 -162.5t-211.5 -52.5h-140z" />
    <glyph glyph-name="Q" unicode="Q" horiz-adv-x="781" 
d="M398 720q-148 0 -239 -98t-91 -257t91 -257t239 -98t239 98t91 257t-91 257t-239 98zM398 -10q-157 0 -253.5 103.5t-96.5 271.5t96.5 271.5t253.5 103.5t253.5 -103.5t96.5 -271.5q0 -138 -66.5 -234t-181.5 -127v-2q190 -26 278 -152h-25q-106 140 -355 140z" />
    <glyph glyph-name="R" unicode="R" horiz-adv-x="606" 
d="M346 364v-2q31 -12 52.5 -43.5t55.5 -108.5l94 -210h-22l-90 202q-22 49 -35 73t-26.5 43.5t-33.5 25.5t-40.5 8.5t-62.5 2.5h-120v-355h-20v730h140q43 0 78.5 -3t76.5 -13t69 -27t47 -48t19 -74q0 -87 -44 -136t-138 -65zM118 375h120q143 0 206.5 45.5t63.5 144.5
q0 72 -63.5 108.5t-206.5 36.5h-120v-335z" />
    <glyph glyph-name="S" unicode="S" horiz-adv-x="556" 
d="M278 720q-85 0 -132.5 -37t-47.5 -103q0 -123 183 -180q109 -34 158 -86t49 -134q0 -92 -54.5 -141t-155.5 -49q-124 0 -210 70l12 16q82 -66 198 -66q93 0 141.5 43.5t48.5 126.5q0 75 -45 121.5t-148 78.5q-197 61 -197 200q0 73 52.5 116.5t147.5 43.5q109 0 200 -50
l-10 -17q-84 47 -190 47z" />
    <glyph glyph-name="T" unicode="T" horiz-adv-x="656" 
d="M588 730v-20h-250v-710h-20v710h-250v20h520z" />
    <glyph glyph-name="U" unicode="U" horiz-adv-x="666" 
d="M563 730h20v-460q0 -136 -64.5 -208t-185.5 -72t-185.5 72t-64.5 208v460h20v-460q0 -127 58.5 -193.5t171.5 -66.5t171.5 66.5t58.5 193.5v460z" />
    <glyph glyph-name="V" unicode="V" horiz-adv-x="676" 
d="M337 16h2l272 714h22l-280 -730h-30l-280 730h22z" />
    <glyph glyph-name="W" unicode="W" horiz-adv-x="936" 
d="M469 713h-2l-193 -713h-32l-189 730h21l183 -713h2l193 713h32l193 -713h2l183 713h21l-189 -730h-32z" />
    <glyph glyph-name="X" unicode="X" horiz-adv-x="626" 
d="M314 351h-2l-235 -351h-24l248 369l-243 361h24l230 -343h2l230 343h24l-243 -361l248 -369h-24z" />
    <glyph glyph-name="Y" unicode="Y" horiz-adv-x="646" 
d="M322 348h2l260 382h24l-275 -403v-327h-20v327l-275 403h24z" />
    <glyph glyph-name="Z" unicode="Z" horiz-adv-x="626" 
d="M518 708v2h-435v20h460v-20l-435 -688v-2h435v-20h-460v20z" />
    <glyph glyph-name="bracketleft" unicode="[" horiz-adv-x="446" 
d="M143 -90h210v-20h-230v880h230v-20h-210v-840z" />
    <glyph glyph-name="backslash" unicode="\" horiz-adv-x="465" 
d="M58 730h22l343 -770h-22z" />
    <glyph glyph-name="bracketright" unicode="]" horiz-adv-x="446" 
d="M303 -90v840h-210v20h230v-880h-230v20h210z" />
    <glyph glyph-name="asciicircum" unicode="^" horiz-adv-x="616" 
d="M309 716h-2l-236 -436h-23l245 450h30l245 -450h-23z" />
    <glyph glyph-name="underscore" unicode="_" horiz-adv-x="560" 
d="M0 -110v20h560v-20h-560z" />
    <glyph glyph-name="grave" unicode="`" horiz-adv-x="221" 
d="M46 810l127 -220h-23l-127 220h23z" />
    <glyph glyph-name="a" unicode="a" horiz-adv-x="531" 
d="M424 115h-2q-26 -58 -78 -91.5t-121 -33.5q-75 0 -120 41t-45 109q0 88 79.5 136.5t225.5 48.5h60v5q0 102 -34.5 141t-125.5 39q-94 0 -175 -47l-10 17q86 50 185 50t139.5 -44t40.5 -156v-190q0 -70 15 -140h-20q-13 62 -14 115zM78 140q0 -60 39 -95t106 -35
q87 0 143.5 56.5t56.5 143.5v95h-60q-136 0 -210.5 -43t-74.5 -122z" />
    <glyph glyph-name="b" unicode="b" horiz-adv-x="561" 
d="M508 260q0 -127 -56 -198.5t-154 -71.5q-140 0 -188 124h-2v-114h-20v750h20v-344h2q48 124 188 124q97 0 153.5 -72.5t56.5 -197.5zM488 260q0 115 -51 182.5t-139 67.5q-91 0 -140.5 -59t-49.5 -166v-50q0 -107 49.5 -166t140.5 -59q89 0 139.5 66t50.5 184z" />
    <glyph glyph-name="c" unicode="c" horiz-adv-x="511" 
d="M429 43l9 -18q-66 -35 -140 -35q-112 0 -181 74.5t-69 195.5q0 125 67 197.5t183 72.5q74 0 140 -35l-9 -18q-63 33 -131 33q-108 0 -169 -66t-61 -184q0 -112 63 -181t167 -69q68 0 131 33z" />
    <glyph glyph-name="d" unicode="d" horiz-adv-x="561" 
d="M263 10q91 0 140.5 59t49.5 166v50q0 107 -49.5 166t-140.5 59q-88 0 -139 -67.5t-51 -182.5q0 -118 50.5 -184t139.5 -66zM53 260q0 125 56.5 197.5t153.5 72.5q140 0 188 -124h2v344h20v-750h-20v114h-2q-48 -124 -188 -124q-98 0 -154 71.5t-56 198.5z" />
    <glyph glyph-name="e" unicode="e" horiz-adv-x="541" 
d="M68 275h399q-2 114 -50.5 174.5t-138.5 60.5q-97 0 -151.5 -61.5t-58.5 -173.5zM68 255q1 -115 59.5 -180t160.5 -65q88 0 160 44l10 -18q-78 -46 -170 -46q-111 0 -175.5 72.5t-64.5 197.5q0 127 61 198.5t169 71.5q100 0 155 -69.5t55 -195.5v-10h-420z" />
    <glyph glyph-name="f" unicode="f" horiz-adv-x="511" 
d="M433 725l-7 -19q-34 14 -73 14q-64 0 -92 -30.5t-28 -99.5v-90h200v-20h-200v-480h-20v480h-150v20h150v90q0 78 33.5 114t106.5 36q44 0 80 -15z" />
    <glyph glyph-name="g" unicode="g" horiz-adv-x="591" 
d="M508 -65q0 25 -6.5 44.5t-25.5 39t-60 30.5t-103 11q-74 0 -118 10q-49 -16 -83 -59.5t-34 -90.5q0 -59 55.5 -94.5t149.5 -35.5q104 0 164.5 39t60.5 106zM468 434v86h20v-170q0 -79 -54 -124.5t-146 -45.5q-77 0 -129 33q-31 -26 -31 -58q0 -16 6.5 -27.5t24.5 -23.5
t57 -18t97 -6q110 0 162.5 -35.5t52.5 -109.5q0 -76 -66 -120.5t-179 -44.5q-103 0 -164 41t-61 109q0 47 30.5 91t76.5 68q-57 22 -57 76q0 38 34 70q-54 45 -54 125t53 130t137 50q137 0 188 -96h2zM108 350q0 -71 47.5 -110.5t132.5 -39.5q83 0 131.5 40t48.5 110
q0 73 -52 116.5t-138 43.5q-75 0 -122.5 -44.5t-47.5 -115.5z" />
    <glyph glyph-name="h" unicode="h" horiz-adv-x="556" 
d="M108 392h2q26 62 76 100t112 38q94 0 137 -52t43 -168v-310h-20v310q0 108 -37 154t-123 46q-79 0 -134.5 -64.5t-55.5 -155.5v-290h-20v750h20v-358z" />
    <glyph glyph-name="i" unicode="i" horiz-adv-x="286" 
d="M133 640v110h20v-110h-20zM133 0v520h20v-520h-20z" />
    <glyph glyph-name="j" unicode="j" horiz-adv-x="326" 
d="M-17 -230v20q115 0 152.5 38.5t37.5 161.5v530h20v-530q0 -130 -43 -175t-167 -45zM173 640v110h20v-110h-20z" />
    <glyph glyph-name="k" unicode="k" horiz-adv-x="531" 
d="M108 284h2l328 236h35l-350 -250l355 -270h-33l-335 256h-2v-256h-20v750h20v-466z" />
    <glyph glyph-name="l" unicode="l" horiz-adv-x="286" 
d="M133 0v750h20v-750h-20z" />
    <glyph glyph-name="m" unicode="m" horiz-adv-x="781" 
d="M403 330v-330h-20v330q0 94 -31 137t-99 43q-58 0 -104 -61.5t-46 -158.5v-290h-20v520h20v-117h2q22 58 61 92.5t87 34.5q117 0 142 -119h2q18 55 59 87t97 32q77 0 113.5 -49t36.5 -151v-330h-20v330q0 94 -31 137t-99 43q-66 0 -108 -49.5t-42 -130.5z" />
    <glyph glyph-name="n" unicode="n" horiz-adv-x="551" 
d="M103 392h2q26 62 76 100t112 38q94 0 137 -52t43 -168v-310h-20v310q0 108 -37 154t-123 46q-79 0 -134.5 -64.5t-55.5 -155.5v-290h-20v520h20v-128z" />
    <glyph glyph-name="o" unicode="o" horiz-adv-x="566" 
d="M48 260q0 125 63 197.5t172 72.5t172 -72.5t63 -197.5t-63 -197.5t-172 -72.5t-172 72.5t-63 197.5zM283 10q100 0 157.5 67t57.5 183t-57.5 183t-157.5 67t-157.5 -67t-57.5 -183t57.5 -183t157.5 -67z" />
    <glyph glyph-name="p" unicode="p" horiz-adv-x="556" 
d="M293 -10q-140 0 -188 124h-2v-334h-20v740h20v-114h2q48 124 188 124q97 0 153.5 -72.5t56.5 -197.5t-56.5 -197.5t-153.5 -72.5zM483 260q0 115 -51 182.5t-139 67.5q-91 0 -140.5 -59t-49.5 -166v-50q0 -107 49.5 -166t140.5 -59q89 0 139.5 66t50.5 184z" />
    <glyph glyph-name="q" unicode="q" horiz-adv-x="556" 
d="M73 260q0 -118 50.5 -184t139.5 -66q91 0 140.5 59t49.5 166v50q0 107 -49.5 166t-140.5 59q-88 0 -139 -67.5t-51 -182.5zM53 260q0 125 56.5 197.5t153.5 72.5q140 0 188 -124h2v114h20v-740h-20v334h-2q-48 -124 -188 -124q-97 0 -153.5 72.5t-56.5 197.5z" />
    <glyph glyph-name="r" unicode="r" horiz-adv-x="436" 
d="M103 371h2q32 71 104.5 115t163.5 44v-20q-112 0 -191 -67.5t-79 -162.5v-280h-20v520h20v-149z" />
    <glyph glyph-name="s" unicode="s" horiz-adv-x="486" 
d="M408 490l-9 -18q-80 38 -161 38q-71 0 -113 -30t-42 -80q0 -45 33 -73.5t124 -46.5q96 -19 139.5 -54.5t43.5 -95.5q0 -65 -50 -102.5t-135 -37.5q-92 0 -175 50l10 17q77 -47 165 -47q76 0 120.5 32t44.5 88q0 52 -39 82.5t-128 47.5q-92 18 -132.5 50.5t-40.5 89.5
q0 59 47.5 94.5t127.5 35.5q87 0 170 -40z" />
    <glyph glyph-name="t" unicode="t" horiz-adv-x="501" 
d="M401 24l7 -19q-42 -15 -90 -15q-77 0 -106 32t-29 118v340h-125v20h125v190h20v-190h215v-20h-215v-340q0 -80 24.5 -105t90.5 -25q43 0 83 14z" />
    <glyph glyph-name="u" unicode="u" horiz-adv-x="541" 
d="M438 128h-2q-26 -62 -76 -100t-112 -38q-91 0 -130.5 46.5t-39.5 153.5v330h20v-330q0 -98 34 -139t116 -41q79 0 134.5 64.5t55.5 155.5v290h20v-520h-20v128z" />
    <glyph glyph-name="v" unicode="v" horiz-adv-x="546" 
d="M272 16h2l207 504h22l-215 -520h-30l-215 520h22z" />
    <glyph glyph-name="w" unicode="w" horiz-adv-x="806" 
d="M404 501h-2l-154 -501h-30l-165 520h21l158 -501h2l154 501h30l154 -501h2l158 501h21l-165 -520h-30z" />
    <glyph glyph-name="x" unicode="x" horiz-adv-x="536" 
d="M267 280h2l179 240h25l-193 -257l198 -263h-25l-184 247h-2l-184 -247h-25l198 263l-193 257h25z" />
    <glyph glyph-name="y" unicode="y" horiz-adv-x="571" 
d="M297 26h2l202 494h22l-214 -519q-53 -129 -111.5 -180t-144.5 -51v20q79 0 132 46t102 164l-224 520h22z" />
    <glyph glyph-name="z" unicode="z" horiz-adv-x="536" 
d="M427 498v2h-344v20h370v-20l-344 -478v-2h344v-20h-370v20z" />
    <glyph glyph-name="braceleft" unicode="{" horiz-adv-x="496" 
d="M158 331v-2q60 -32 60 -139v-160q0 -70 25 -95t75 -25h80v-20h-80q-63 0 -91.5 33t-28.5 107v160q0 59 -21.5 94.5t-58.5 35.5h-50v20h50q37 0 58.5 35.5t21.5 94.5v160q0 74 28.5 107t91.5 33h80v-20h-80q-50 0 -75 -25t-25 -95v-160q0 -107 -60 -139z" />
    <glyph glyph-name="bar" unicode="|" horiz-adv-x="306" 
d="M143 -220v1030h20v-1030h-20z" />
    <glyph glyph-name="braceright" unicode="}" horiz-adv-x="496" 
d="M338 331q-60 32 -60 139v160q0 70 -25 95t-75 25h-80v20h80q63 0 91.5 -33t28.5 -107v-160q0 -59 21.5 -94.5t58.5 -35.5h50v-20h-50q-37 0 -58.5 -35.5t-21.5 -94.5v-160q0 -74 -28.5 -107t-91.5 -33h-80v20h80q50 0 75 25t25 95v160q0 107 60 139v2z" />
    <glyph glyph-name="asciitilde" unicode="~" horiz-adv-x="686" 
d="M63 235q0 130 105 130q57 0 179 -56q117 -54 171 -54q85 0 85 100h20q0 -120 -105 -120q-57 0 -179 56q-117 54 -171 54q-44 0 -64.5 -26.5t-20.5 -83.5h-20z" />
    <glyph glyph-name="uni00A0" unicode="&#xa0;" horiz-adv-x="373" 
 />
    <glyph glyph-name="exclamdown" unicode="&#xa1;" horiz-adv-x="266" 
d="M123 -220v550h20v-550h-20zM123 410v110h20v-110h-20z" />
    <glyph glyph-name="cent" unicode="&#xa2;" horiz-adv-x="535" 
d="M313 530q81 0 150 -36l-10 -18q-67 34 -140 34h-10v-500h10q73 0 140 34l10 -18q-69 -36 -150 -36h-10v-170h-20v171q-107 10 -171 83t-64 186q0 117 62.5 188.5t172.5 80.5v161h20v-160h10zM283 11v498q-102 -9 -158.5 -74.5t-56.5 -174.5q0 -104 58.5 -171.5
t156.5 -77.5z" />
    <glyph glyph-name="sterling" unicode="&#xa3;" horiz-adv-x="646" 
d="M142 22v-2h421v-20h-480v20q47 3 83.5 52t36.5 128v155h-100v20h100v175q0 92 53 141t152 49q64 0 119 -26l-8 -18q-50 24 -111 24q-91 0 -138 -43.5t-47 -126.5v-175h280v-20h-280v-155q0 -59 -22 -106.5t-59 -71.5z" />
    <glyph glyph-name="currency" unicode="&#xa4;" horiz-adv-x="659" 
d="M591 118l-14 -15l-99 100q-63 -58 -148 -58q-86 0 -149 58l-99 -100l-14 15l99 99q-57 62 -57 148t57 148l-99 99l14 15l99 -100q63 58 149 58q85 0 148 -58l99 100l14 -15l-99 -99q58 -63 58 -148t-58 -148zM330 165q82 0 141 58.5t59 141.5t-59 141.5t-141 58.5
t-141 -58.5t-59 -141.5t59 -141.5t141 -58.5z" />
    <glyph glyph-name="yen" unicode="&#xa5;" horiz-adv-x="656" 
d="M88 175v20h230v125h-230v20h221l-266 390h24l260 -382h2l260 382h24l-266 -390h221v-20h-230v-125h230v-20h-230v-175h-20v175h-230z" />
    <glyph glyph-name="brokenbar" unicode="&#xa6;" horiz-adv-x="306" 
d="M143 -140v360h20v-360h-20zM143 370v360h20v-360h-20z" />
    <glyph glyph-name="section" unicode="&#xa7;" horiz-adv-x="506" 
d="M78 590q0 68 48 109t127 41q88 0 170 -46l-10 -18q-79 44 -160 44q-71 0 -113 -35.5t-42 -94.5q0 -52 33 -86t124 -54q96 -21 139.5 -61.5t43.5 -108.5q0 -49 -27 -87.5t-74 -58.5q91 -41 91 -134q0 -67 -48 -108.5t-127 -41.5q-88 0 -170 46l10 18q79 -44 160 -44
q71 0 113 35.5t42 94.5q0 52 -33 86t-124 54q-96 21 -139.5 61.5t-43.5 108.5q0 49 27 87.5t74 58.5q-91 41 -91 134zM198 445q-52 -15 -81 -50.5t-29 -84.5q0 -60 39 -95.5t128 -54.5q15 -3 53 -15q52 15 81 50.5t29 84.5q0 60 -39 95.5t-128 54.5q-15 3 -53 15z" />
    <glyph glyph-name="dieresis" unicode="&#xa8;" horiz-adv-x="406" 
d="M293 610v120h20v-120h-20zM93 610v120h20v-120h-20z" />
    <glyph glyph-name="copyright" unicode="&#xa9;" horiz-adv-x="826" 
d="M565 545l-11 -17q-53 34 -126 34q-92 0 -144.5 -52t-52.5 -145q0 -91 52.5 -144t144.5 -53q73 0 126 34l11 -17q-57 -37 -137 -37q-99 0 -158 59t-59 158q0 101 58.5 159t158.5 58q80 0 137 -37zM413 0q-151 0 -258 107t-107 258t107 258t258 107t258 -107t107 -258
t-107 -258t-258 -107zM413 20q143 0 244 101t101 244t-101 244t-244 101t-244 -101t-101 -244t101 -244t244 -101z" />
    <glyph glyph-name="ordfeminine" unicode="&#xaa;" horiz-adv-x="644" 
d="M98 224v20h448v-20h-448zM170 428q0 -47 31 -74.5t84 -27.5q69 0 113.5 44.5t44.5 113.5v74h-47q-108 0 -167 -34t-59 -96zM150 428q0 71 64.5 110.5t181.5 39.5h47v2q0 80 -27 110t-98 30q-74 0 -137 -37l-11 17q68 40 148 40q79 0 112 -35.5t33 -124.5v-152
q0 -56 12 -112h-21q-10 45 -11 84h-1q-22 -44 -63 -69t-94 -25q-61 0 -98 33.5t-37 88.5z" />
    <glyph glyph-name="guillemotleft" unicode="&#xab;" horiz-adv-x="716" 
d="M371 291v-2l242 -212v-27l-260 230v20l260 230v-27zM91 291v-2l242 -212v-27l-260 230v20l260 230v-27z" />
    <glyph glyph-name="logicalnot" unicode="&#xac;" horiz-adv-x="646" 
d="M68 390v20h480v-250h-20v230h-460z" />
    <glyph glyph-name="uni00AD" unicode="&#xad;" horiz-adv-x="456" 
d="M88 280v20h280v-20h-280z" />
    <glyph glyph-name="registered" unicode="&#xae;" horiz-adv-x="836" 
d="M375 557h-75v-182h75q96 0 136.5 22.5t40.5 71.5q0 45 -42.5 66.5t-134.5 21.5zM300 355v-202h-20v424h95q197 0 197 -108q0 -90 -121 -107v-1q18 -6 32 -22.5t39 -63.5l64 -122h-23l-58 113q-33 65 -51 77t-79 12h-75zM418 0q-152 0 -258.5 107t-106.5 258t106.5 258
t258.5 107t258.5 -107t106.5 -258t-106.5 -258t-258.5 -107zM418 20q143 0 244 101t101 244t-101 244t-244 101t-244 -101t-101 -244t101 -244t244 -101z" />
    <glyph glyph-name="macron" unicode="&#xaf;" horiz-adv-x="456" 
d="M68 670v20h320v-20h-320z" />
    <glyph glyph-name="degree" unicode="&#xb0;" horiz-adv-x="386" 
d="M73 600q0 -50 35.5 -85t84.5 -35t84.5 35t35.5 85t-35.5 85t-84.5 35t-84.5 -35t-35.5 -85zM53 600q0 58 41 99t99 41t99 -41t41 -99t-41 -99t-99 -41t-99 41t-41 99z" />
    <glyph glyph-name="plusminus" unicode="&#xb1;" horiz-adv-x="756" 
d="M98 -40v20h560v-20h-560zM658 370v-20h-270v-280h-20v280h-270v20h270v280h20v-280h270z" />
    <glyph glyph-name="uni00B2" unicode="&#xb2;" horiz-adv-x="383" 
d="M97 312h228v-20h-258v20q140 128 186.5 190.5t46.5 113.5q0 48 -27 74t-77 26q-67 0 -123 -44l-12 16q60 48 135 48q58 0 91 -32t33 -88t-47 -120t-176 -183v-1z" />
    <glyph glyph-name="uni00B3" unicode="&#xb3;" horiz-adv-x="388" 
d="M253 532q98 -24 98 -112q0 -56 -33 -95t-118 -39q-68 0 -124 40l12 16q52 -36 112 -36q131 0 131 114q0 102 -160 102h-24v20h24q71 0 111.5 25.5t40.5 70.5q0 37 -28.5 57.5t-79.5 20.5q-59 0 -113 -34l-10 17q58 37 123 37q59 0 93.5 -26t34.5 -72q0 -37 -24 -64.5
t-66 -40.5v-1z" />
    <glyph glyph-name="acute" unicode="&#xb4;" horiz-adv-x="216" 
d="M73 590h-25l120 160h25z" />
    <glyph glyph-name="uni00B5" unicode="&#xb5;" horiz-adv-x="546" 
d="M443 128h-2q-26 -62 -76 -100t-112 -38q-116 0 -150 79v-289h-20v740h20v-330q0 -98 34 -139t116 -41q79 0 134.5 64.5t55.5 155.5v290h20v-520h-20v128z" />
    <glyph glyph-name="paragraph" unicode="&#xb6;" horiz-adv-x="586" 
d="M273 270q-95 0 -162.5 67.5t-67.5 162.5t67.5 162.5t162.5 67.5h220v-870h-20v850h-180v-850h-20v410z" />
    <glyph glyph-name="periodcentered" unicode="&#xb7;" horiz-adv-x="226" 
d="M103 230v120h20v-120h-20z" />
    <glyph glyph-name="cedilla" unicode="&#xb8;" horiz-adv-x="420" 
d="M269 0h27q41 -50 41 -105q0 -19 -6 -36.5t-22 -36.5t-51 -30.5t-86 -11.5q-67 0 -119 26l9 18q51 -24 110 -24q145 0 145 95q0 55 -48 105z" />
    <glyph glyph-name="uni00B9" unicode="&#xb9;" horiz-adv-x="383" 
d="M216 703l-123 -119l-14 14l138 132h20v-438h-20v411h-1z" />
    <glyph glyph-name="ordmasculine" unicode="&#xba;" horiz-adv-x="644" 
d="M98 224v20h448v-20h-448zM134 524q0 100 50.5 158t137.5 58t137.5 -58t50.5 -158t-50.5 -158t-137.5 -58t-137.5 58t-50.5 158zM322 328q78 0 123 52.5t45 143.5t-45 143.5t-123 52.5t-123 -52.5t-45 -143.5t45 -143.5t123 -52.5z" />
    <glyph glyph-name="guillemotright" unicode="&#xbb;" horiz-adv-x="716" 
d="M345 291l-242 212v27l260 -230v-20l-260 -230v27l242 212v2zM625 291l-242 212v27l260 -230v-20l-260 -230v27l242 212v2z" />
    <glyph glyph-name="onequarter" unicode="&#xbc;" horiz-adv-x="813" 
d="M182 703l-123 -119l-14 14l138 132h20v-438h-20v411h-1zM718 730l-538 -730h-25l538 730h25zM683 114h-228v20l228 304h20v-304h76v-20h-76v-114h-20v114zM683 134v271h-1l-202 -270v-1h203z" />
    <glyph glyph-name="onehalf" unicode="&#xbd;" horiz-adv-x="813" 
d="M545 20h228v-20h-258v20q140 128 186.5 190.5t46.5 113.5q0 48 -27 74t-77 26q-67 0 -123 -44l-12 16q60 48 135 48q58 0 91 -32t33 -88t-47 -120t-176 -183v-1zM182 703l-123 -119l-14 14l138 132h20v-438h-20v411h-1zM688 730l-538 -730h-25l538 730h25z" />
    <glyph glyph-name="threequarters" unicode="&#xbe;" horiz-adv-x="818" 
d="M249 532q98 -24 98 -112q0 -56 -33 -95t-118 -39q-68 0 -124 40l12 16q52 -36 112 -36q131 0 131 114q0 102 -160 102h-24v20h24q71 0 111.5 25.5t40.5 70.5q0 37 -28.5 57.5t-79.5 20.5q-59 0 -113 -34l-10 17q58 37 123 37q59 0 93.5 -26t34.5 -72q0 -37 -24 -64.5
t-66 -40.5v-1zM741 730l-538 -730h-25l538 730h25zM701 114h-228v20l228 304h20v-304h76v-20h-76v-114h-20v114zM701 134v271h-1l-202 -270v-1h203z" />
    <glyph glyph-name="questiondown" unicode="&#xbf;" horiz-adv-x="609" 
d="M353 410v110h20v-110h-20zM353 330h20q0 -37 -9.5 -68.5t-21.5 -52t-36 -43t-39.5 -34t-45.5 -31.5q-33 -22 -49 -35t-38 -36t-31.5 -49.5t-9.5 -60.5q0 -62 57.5 -96t162.5 -34q114 0 217 34l6 -18q-108 -36 -223 -36t-177.5 39.5t-62.5 110.5q0 37 10.5 67t34.5 55
t41 38t51 37q36 25 53.5 39t42.5 40.5t36 59.5t11 74z" />
    <glyph glyph-name="Agrave" unicode="&#xc0;" horiz-adv-x="676" 
d="M336 790l-120 160h25l120 -160h-25zM339 713h-2l-169 -443h340zM516 250h-356l-96 -250h-21l280 730h30l280 -730h-21z" />
    <glyph glyph-name="Aacute" unicode="&#xc1;" horiz-adv-x="676" 
d="M340 790h-25l120 160h25zM339 713h-2l-169 -443h340zM516 250h-356l-96 -250h-21l280 730h30l280 -730h-21z" />
    <glyph glyph-name="Acircumflex" unicode="&#xc2;" horiz-adv-x="676" 
d="M503 790h-27l-137 146h-2l-137 -146h-27l150 160h30zM339 713h-2l-169 -443h340zM516 250h-356l-96 -250h-21l280 730h30l280 -730h-21z" />
    <glyph glyph-name="Atilde" unicode="&#xc3;" horiz-adv-x="676" 
d="M173 810q0 110 65 110q40 0 105 -46q62 -44 95 -44q45 0 45 80h20q0 -100 -65 -100q-41 0 -107 47q-59 43 -93 43q-45 0 -45 -90h-20zM339 713h-2l-169 -443h340zM516 250h-356l-96 -250h-21l280 730h30l280 -730h-21z" />
    <glyph glyph-name="Adieresis" unicode="&#xc4;" horiz-adv-x="676" 
d="M428 810v120h20v-120h-20zM228 810v120h20v-120h-20zM339 713h-2l-169 -443h340zM516 250h-356l-96 -250h-21l280 730h30l280 -730h-21z" />
    <glyph glyph-name="Aring" unicode="&#xc5;" horiz-adv-x="676" 
d="M339 713h-2l-169 -443h340zM448 880q0 -46 -32 -78t-78 -32t-78 32t-32 78t32 78t78 32t78 -32t32 -78zM428 880q0 38 -26 64t-64 26t-64 -26t-26 -64t26 -64t64 -26t64 26t26 64zM516 250h-356l-96 -250h-21l280 730h30l280 -730h-21z" />
    <glyph glyph-name="AE" unicode="&#xc6;" horiz-adv-x="826" 
d="M743 710h-310v-300h290v-20h-290v-370h310v-20h-330v250h-253l-96 -250h-21l280 730h420v-20zM168 270h245v440h-77z" />
    <glyph glyph-name="Ccedilla" unicode="&#xc7;" horiz-adv-x="691" 
d="M607 71l11 -16q-75 -52 -180 -63q35 -47 35 -97q0 -19 -6 -36.5t-22 -36.5t-51 -30.5t-86 -11.5q-67 0 -119 26l8 18q51 -24 111 -24q145 0 145 95q0 50 -39 95h-16q-160 0 -255 102t-95 273q0 173 94 274t256 101q126 0 220 -65l-11 -16q-88 61 -209 61
q-153 0 -241.5 -95.5t-88.5 -259.5q0 -162 90 -258.5t240 -96.5q119 0 209 61z" />
    <glyph glyph-name="Egrave" unicode="&#xc8;" horiz-adv-x="576" 
d="M326 790l-120 160h25l120 -160h-25zM113 390v-370h380v-20h-400v730h400v-20h-380v-300h360v-20h-360z" />
    <glyph glyph-name="Eacute" unicode="&#xc9;" horiz-adv-x="576" 
d="M270 790h-25l120 160h25zM113 390v-370h380v-20h-400v730h400v-20h-380v-300h360v-20h-360z" />
    <glyph glyph-name="Ecircumflex" unicode="&#xca;" horiz-adv-x="576" 
d="M463 790h-27l-137 146h-2l-137 -146h-27l150 160h30zM113 390v-370h380v-20h-400v730h400v-20h-380v-300h360v-20h-360z" />
    <glyph glyph-name="Edieresis" unicode="&#xcb;" horiz-adv-x="576" 
d="M388 810v120h20v-120h-20zM188 810v120h20v-120h-20zM113 390v-370h380v-20h-400v730h400v-20h-380v-300h360v-20h-360z" />
    <glyph glyph-name="Igrave" unicode="&#xcc;" horiz-adv-x="286" 
d="M128 790l-120 160h25l120 -160h-25zM133 0v730h20v-730h-20z" />
    <glyph glyph-name="Iacute" unicode="&#xcd;" horiz-adv-x="286" 
d="M158 790h-25l120 160h25zM133 0v730h20v-730h-20z" />
    <glyph glyph-name="Icircumflex" unicode="&#xce;" horiz-adv-x="286" 
d="M308 790h-27l-137 146h-2l-137 -146h-27l150 160h30zM133 0v730h20v-730h-20z" />
    <glyph glyph-name="Idieresis" unicode="&#xcf;" horiz-adv-x="286" 
d="M233 810v120h20v-120h-20zM33 810v120h20v-120h-20zM133 0v730h20v-730h-20z" />
    <glyph glyph-name="Eth" unicode="&#xd0;" horiz-adv-x="756" 
d="M48 375v20h125v335h150q187 0 283.5 -90.5t96.5 -264.5q0 -181 -98 -278t-282 -97h-150v375h-125zM683 375q0 335 -360 335h-130v-315h215v-20h-215v-355h130q177 0 268.5 90.5t91.5 264.5z" />
    <glyph glyph-name="Ntilde" unicode="&#xd1;" horiz-adv-x="696" 
d="M183 810q0 110 65 110q40 0 105 -46q62 -44 95 -44q45 0 45 80h20q0 -100 -65 -100q-41 0 -107 47q-59 43 -93 43q-45 0 -45 -90h-20zM583 21v709h20v-730h-32l-456 709h-2v-709h-20v730h32l456 -709h2z" />
    <glyph glyph-name="Ograve" unicode="&#xd2;" horiz-adv-x="796" 
d="M396 790l-120 160h25l120 -160h-25zM398 10q148 0 239 98t91 257t-91 257t-239 98t-239 -98t-91 -257t91 -257t239 -98zM398 -10q-157 0 -253.5 103.5t-96.5 271.5t96.5 271.5t253.5 103.5t253.5 -103.5t96.5 -271.5t-96.5 -271.5t-253.5 -103.5z" />
    <glyph glyph-name="Oacute" unicode="&#xd3;" horiz-adv-x="796" 
d="M400 790h-25l120 160h25zM398 10q148 0 239 98t91 257t-91 257t-239 98t-239 -98t-91 -257t91 -257t239 -98zM398 -10q-157 0 -253.5 103.5t-96.5 271.5t96.5 271.5t253.5 103.5t253.5 -103.5t96.5 -271.5t-96.5 -271.5t-253.5 -103.5z" />
    <glyph glyph-name="Ocircumflex" unicode="&#xd4;" horiz-adv-x="796" 
d="M563 790h-27l-137 146h-2l-137 -146h-27l150 160h30zM398 10q148 0 239 98t91 257t-91 257t-239 98t-239 -98t-91 -257t91 -257t239 -98zM398 -10q-157 0 -253.5 103.5t-96.5 271.5t96.5 271.5t253.5 103.5t253.5 -103.5t96.5 -271.5t-96.5 -271.5t-253.5 -103.5z" />
    <glyph glyph-name="Otilde" unicode="&#xd5;" horiz-adv-x="796" 
d="M233 810q0 110 65 110q40 0 105 -46q62 -44 95 -44q45 0 45 80h20q0 -100 -65 -100q-41 0 -107 47q-59 43 -93 43q-45 0 -45 -90h-20zM398 10q148 0 239 98t91 257t-91 257t-239 98t-239 -98t-91 -257t91 -257t239 -98zM398 -10q-157 0 -253.5 103.5t-96.5 271.5
t96.5 271.5t253.5 103.5t253.5 -103.5t96.5 -271.5t-96.5 -271.5t-253.5 -103.5z" />
    <glyph glyph-name="Odieresis" unicode="&#xd6;" horiz-adv-x="796" 
d="M488 810v120h20v-120h-20zM288 810v120h20v-120h-20zM398 10q148 0 239 98t91 257t-91 257t-239 98t-239 -98t-91 -257t91 -257t239 -98zM398 -10q-157 0 -253.5 103.5t-96.5 271.5t96.5 271.5t253.5 103.5t253.5 -103.5t96.5 -271.5t-96.5 -271.5t-253.5 -103.5z" />
    <glyph glyph-name="multiply" unicode="&#xd7;" horiz-adv-x="586" 
d="M534 64l-14 -14l-227 226l-226 -226l-14 14l226 226l-226 226l14 14l226 -226l227 226l14 -14l-226 -226z" />
    <glyph glyph-name="Oslash" unicode="&#xd8;" horiz-adv-x="806" 
d="M53 365q0 168 96.5 271.5t253.5 103.5q127 0 216 -69l56 75l16 -12l-57 -76q119 -105 119 -293q0 -168 -96.5 -271.5t-253.5 -103.5q-127 0 -216 69l-56 -75l-16 12l57 76q-119 105 -119 293zM184 88l423 567q-84 65 -204 65q-148 0 -239 -98t-91 -257q0 -179 111 -277z
M199 76q85 -66 204 -66q148 0 239 98t91 257q0 179 -111 277z" />
    <glyph glyph-name="Ugrave" unicode="&#xd9;" horiz-adv-x="666" 
d="M361 790l-120 160h25l120 -160h-25zM563 730h20v-460q0 -136 -64.5 -208t-185.5 -72t-185.5 72t-64.5 208v460h20v-460q0 -127 58.5 -193.5t171.5 -66.5t171.5 66.5t58.5 193.5v460z" />
    <glyph glyph-name="Uacute" unicode="&#xda;" horiz-adv-x="666" 
d="M305 790h-25l120 160h25zM563 730h20v-460q0 -136 -64.5 -208t-185.5 -72t-185.5 72t-64.5 208v460h20v-460q0 -127 58.5 -193.5t171.5 -66.5t171.5 66.5t58.5 193.5v460z" />
    <glyph glyph-name="Ucircumflex" unicode="&#xdb;" horiz-adv-x="666" 
d="M498 790h-27l-137 146h-2l-137 -146h-27l150 160h30zM563 730h20v-460q0 -136 -64.5 -208t-185.5 -72t-185.5 72t-64.5 208v460h20v-460q0 -127 58.5 -193.5t171.5 -66.5t171.5 66.5t58.5 193.5v460z" />
    <glyph glyph-name="Udieresis" unicode="&#xdc;" horiz-adv-x="666" 
d="M423 810v120h20v-120h-20zM223 810v120h20v-120h-20zM563 730h20v-460q0 -136 -64.5 -208t-185.5 -72t-185.5 72t-64.5 208v460h20v-460q0 -127 58.5 -193.5t171.5 -66.5t171.5 66.5t58.5 193.5v460z" />
    <glyph glyph-name="Yacute" unicode="&#xdd;" horiz-adv-x="646" 
d="M295 790h-25l120 160h25zM322 348h2l260 382h24l-275 -403v-327h-20v327l-275 403h24z" />
    <glyph glyph-name="Thorn" unicode="&#xde;" horiz-adv-x="596" 
d="M118 210h140q135 0 197.5 47t62.5 148q0 57 -20 93t-81 59t-169 23h-130v-370zM118 190v-190h-20v730h20v-130h130q155 0 222.5 -45.5t67.5 -149.5q0 -110 -68.5 -162.5t-211.5 -52.5h-140z" />
    <glyph glyph-name="germandbls" unicode="&#xdf;" horiz-adv-x="576" 
d="M528 160q0 -82 -48 -126t-137 -44q-75 0 -163 25l6 20q84 -25 157 -25q81 0 123 38t42 112q0 38 -28 81.5t-62 73.5t-62 60t-28 45q0 14 20.5 39.5t44.5 50t44.5 60.5t20.5 70q0 19 -5.5 34t-22 31.5t-52.5 25.5t-90 9q-102 0 -141 -40t-39 -145v-555h-20v555
q0 113 44.5 159t155.5 46q190 0 190 -120q0 -36 -20 -74t-44.5 -63.5t-44.5 -49t-20 -33.5t28 -38l61.5 -59t61.5 -76t28 -87z" />
    <glyph glyph-name="agrave" unicode="&#xe0;" horiz-adv-x="531" 
d="M271 590l-120 160h25l120 -160h-25zM424 115h-2q-26 -58 -78 -91.5t-121 -33.5q-75 0 -120 41t-45 109q0 88 79.5 136.5t225.5 48.5h60v5q0 102 -34.5 141t-125.5 39q-94 0 -175 -47l-10 17q86 50 185 50t139.5 -44t40.5 -156v-190q0 -70 15 -140h-20q-13 62 -14 115z
M78 140q0 -60 39 -95t106 -35q87 0 143.5 56.5t56.5 143.5v95h-60q-136 0 -210.5 -43t-74.5 -122z" />
    <glyph glyph-name="aacute" unicode="&#xe1;" horiz-adv-x="531" 
d="M275 590h-25l120 160h25zM424 115h-2q-26 -58 -78 -91.5t-121 -33.5q-75 0 -120 41t-45 109q0 88 79.5 136.5t225.5 48.5h60v5q0 102 -34.5 141t-125.5 39q-94 0 -175 -47l-10 17q86 50 185 50t139.5 -44t40.5 -156v-190q0 -70 15 -140h-20q-13 62 -14 115zM78 140
q0 -60 39 -95t106 -35q87 0 143.5 56.5t56.5 143.5v95h-60q-136 0 -210.5 -43t-74.5 -122z" />
    <glyph glyph-name="acircumflex" unicode="&#xe2;" horiz-adv-x="531" 
d="M438 590h-27l-137 146h-2l-137 -146h-27l150 160h30zM424 115h-2q-26 -58 -78 -91.5t-121 -33.5q-75 0 -120 41t-45 109q0 88 79.5 136.5t225.5 48.5h60v5q0 102 -34.5 141t-125.5 39q-94 0 -175 -47l-10 17q86 50 185 50t139.5 -44t40.5 -156v-190q0 -70 15 -140h-20
q-13 62 -14 115zM78 140q0 -60 39 -95t106 -35q87 0 143.5 56.5t56.5 143.5v95h-60q-136 0 -210.5 -43t-74.5 -122z" />
    <glyph glyph-name="atilde" unicode="&#xe3;" horiz-adv-x="531" 
d="M108 600q0 110 65 110q40 0 105 -46q62 -44 95 -44q45 0 45 80h20q0 -100 -65 -100q-41 0 -107 47q-59 43 -93 43q-45 0 -45 -90h-20zM424 115h-2q-26 -58 -78 -91.5t-121 -33.5q-75 0 -120 41t-45 109q0 88 79.5 136.5t225.5 48.5h60v5q0 102 -34.5 141t-125.5 39
q-94 0 -175 -47l-10 17q86 50 185 50t139.5 -44t40.5 -156v-190q0 -70 15 -140h-20q-13 62 -14 115zM78 140q0 -60 39 -95t106 -35q87 0 143.5 56.5t56.5 143.5v95h-60q-136 0 -210.5 -43t-74.5 -122z" />
    <glyph glyph-name="adieresis" unicode="&#xe4;" horiz-adv-x="531" 
d="M363 610v120h20v-120h-20zM163 610v120h20v-120h-20zM424 115h-2q-26 -58 -78 -91.5t-121 -33.5q-75 0 -120 41t-45 109q0 88 79.5 136.5t225.5 48.5h60v5q0 102 -34.5 141t-125.5 39q-94 0 -175 -47l-10 17q86 50 185 50t139.5 -44t40.5 -156v-190q0 -70 15 -140h-20
q-13 62 -14 115zM78 140q0 -60 39 -95t106 -35q87 0 143.5 56.5t56.5 143.5v95h-60q-136 0 -210.5 -43t-74.5 -122z" />
    <glyph glyph-name="aring" unicode="&#xe5;" horiz-adv-x="531" 
d="M424 115h-2q-26 -58 -78 -91.5t-121 -33.5q-75 0 -120 41t-45 109q0 88 79.5 136.5t225.5 48.5h60v5q0 102 -34.5 141t-125.5 39q-94 0 -175 -47l-10 17q86 50 185 50t139.5 -44t40.5 -156v-190q0 -70 15 -140h-20q-13 62 -14 115zM383 670q0 -46 -32 -78t-78 -32t-78 32
t-32 78t32 78t78 32t78 -32t32 -78zM363 670q0 38 -26.5 64t-63.5 26t-63.5 -26t-26.5 -64t26.5 -64t63.5 -26t63.5 26t26.5 64zM78 140q0 -60 39 -95t106 -35q87 0 143.5 56.5t56.5 143.5v95h-60q-136 0 -210.5 -43t-74.5 -122z" />
    <glyph glyph-name="ae" unicode="&#xe6;" horiz-adv-x="881" 
d="M443 275h365q-2 115 -46.5 175t-128.5 60q-88 0 -137.5 -61.5t-52.5 -173.5zM443 255q2 -113 55.5 -179t144.5 -66q83 0 150 43l10 -16q-74 -47 -160 -47q-81 0 -136.5 48t-74.5 133q-37 -181 -209 -181q-75 0 -120 41t-45 109q0 77 82.5 131t222.5 54h59
q-4 112 -40 148.5t-119 36.5q-94 0 -175 -47l-10 17q86 50 185 50q85 0 125 -34t50 -119q22 73 72.5 113t122.5 40q94 0 144.5 -68.5t50.5 -196.5v-10h-385zM78 140q0 -60 39 -95t106 -35q102 0 151 68.5t49 211.5v15h-60q-130 0 -207.5 -49t-77.5 -116z" />
    <glyph glyph-name="ccedilla" unicode="&#xe7;" horiz-adv-x="511" 
d="M429 43l9 -18q-44 -24 -87 -31q37 -48 37 -99q0 -19 -6 -36.5t-22 -36.5t-51 -30.5t-86 -11.5q-67 0 -119 26l8 18q51 -24 111 -24q145 0 145 95q0 52 -40 96q-10 -1 -30 -1q-112 0 -181 74.5t-69 195.5q0 125 67 197.5t183 72.5q74 0 140 -35l-9 -18q-63 33 -131 33
q-108 0 -169 -66t-61 -184q0 -112 63 -181t167 -69q68 0 131 33z" />
    <glyph glyph-name="egrave" unicode="&#xe8;" horiz-adv-x="541" 
d="M306 590l-120 160h25l120 -160h-25zM68 275h399q-2 114 -50.5 174.5t-138.5 60.5q-97 0 -151.5 -61.5t-58.5 -173.5zM68 255q1 -115 59.5 -180t160.5 -65q88 0 160 44l10 -18q-78 -46 -170 -46q-111 0 -175.5 72.5t-64.5 197.5q0 127 61 198.5t169 71.5q100 0 155 -69.5
t55 -195.5v-10h-420z" />
    <glyph glyph-name="eacute" unicode="&#xe9;" horiz-adv-x="541" 
d="M250 590h-25l120 160h25zM68 275h399q-2 114 -50.5 174.5t-138.5 60.5q-97 0 -151.5 -61.5t-58.5 -173.5zM68 255q1 -115 59.5 -180t160.5 -65q88 0 160 44l10 -18q-78 -46 -170 -46q-111 0 -175.5 72.5t-64.5 197.5q0 127 61 198.5t169 71.5q100 0 155 -69.5t55 -195.5
v-10h-420z" />
    <glyph glyph-name="ecircumflex" unicode="&#xea;" horiz-adv-x="541" 
d="M443 590h-27l-137 146h-2l-137 -146h-27l150 160h30zM68 275h399q-2 114 -50.5 174.5t-138.5 60.5q-97 0 -151.5 -61.5t-58.5 -173.5zM68 255q1 -115 59.5 -180t160.5 -65q88 0 160 44l10 -18q-78 -46 -170 -46q-111 0 -175.5 72.5t-64.5 197.5q0 127 61 198.5t169 71.5
q100 0 155 -69.5t55 -195.5v-10h-420z" />
    <glyph glyph-name="edieresis" unicode="&#xeb;" horiz-adv-x="541" 
d="M368 610v120h20v-120h-20zM168 610v120h20v-120h-20zM68 275h399q-2 114 -50.5 174.5t-138.5 60.5q-97 0 -151.5 -61.5t-58.5 -173.5zM68 255q1 -115 59.5 -180t160.5 -65q88 0 160 44l10 -18q-78 -46 -170 -46q-111 0 -175.5 72.5t-64.5 197.5q0 127 61 198.5t169 71.5
q100 0 155 -69.5t55 -195.5v-10h-420z" />
    <glyph glyph-name="igrave" unicode="&#xec;" horiz-adv-x="286" 
d="M128 590l-120 160h25l120 -160h-25zM133 0v520h20v-520h-20z" />
    <glyph glyph-name="iacute" unicode="&#xed;" horiz-adv-x="286" 
d="M158 590h-25l120 160h25zM133 0v520h20v-520h-20z" />
    <glyph glyph-name="icircumflex" unicode="&#xee;" horiz-adv-x="286" 
d="M308 590h-27l-137 146h-2l-137 -146h-27l150 160h30zM133 0v520h20v-520h-20z" />
    <glyph glyph-name="idieresis" unicode="&#xef;" horiz-adv-x="286" 
d="M233 610v120h20v-120h-20zM33 610v120h20v-120h-20zM133 0v520h20v-520h-20z" />
    <glyph glyph-name="eth" unicode="&#xf0;" horiz-adv-x="546" 
d="M273 10q94 0 147 66t53 184q0 115 -54 182.5t-146 67.5t-146 -67.5t-54 -182.5q0 -113 58.5 -181.5t141.5 -68.5zM273 -10q-92 0 -156 73.5t-64 196.5t60 196.5t160 73.5q119 0 179 -103l2 1q-36 139 -130 216l-182 -83l-8 18l172 78q-70 50 -159 63l2 20
q102 -15 178 -73l137 62l8 -18l-128 -58q149 -130 149 -393q0 -127 -58.5 -198.5t-161.5 -71.5z" />
    <glyph glyph-name="ntilde" unicode="&#xf1;" horiz-adv-x="551" 
d="M108 600q0 110 65 110q40 0 105 -46q62 -44 95 -44q45 0 45 80h20q0 -100 -65 -100q-41 0 -107 47q-59 43 -93 43q-45 0 -45 -90h-20zM103 392h2q26 62 76 100t112 38q94 0 137 -52t43 -168v-310h-20v310q0 108 -37 154t-123 46q-79 0 -134.5 -64.5t-55.5 -155.5v-290
h-20v520h20v-128z" />
    <glyph glyph-name="ograve" unicode="&#xf2;" horiz-adv-x="566" 
d="M281 590l-120 160h25l120 -160h-25zM48 260q0 125 63 197.5t172 72.5t172 -72.5t63 -197.5t-63 -197.5t-172 -72.5t-172 72.5t-63 197.5zM283 10q100 0 157.5 67t57.5 183t-57.5 183t-157.5 67t-157.5 -67t-57.5 -183t57.5 -183t157.5 -67z" />
    <glyph glyph-name="oacute" unicode="&#xf3;" horiz-adv-x="566" 
d="M285 590h-25l120 160h25zM48 260q0 125 63 197.5t172 72.5t172 -72.5t63 -197.5t-63 -197.5t-172 -72.5t-172 72.5t-63 197.5zM283 10q100 0 157.5 67t57.5 183t-57.5 183t-157.5 67t-157.5 -67t-57.5 -183t57.5 -183t157.5 -67z" />
    <glyph glyph-name="ocircumflex" unicode="&#xf4;" horiz-adv-x="566" 
d="M448 590h-27l-137 146h-2l-137 -146h-27l150 160h30zM48 260q0 125 63 197.5t172 72.5t172 -72.5t63 -197.5t-63 -197.5t-172 -72.5t-172 72.5t-63 197.5zM283 10q100 0 157.5 67t57.5 183t-57.5 183t-157.5 67t-157.5 -67t-57.5 -183t57.5 -183t157.5 -67z" />
    <glyph glyph-name="otilde" unicode="&#xf5;" horiz-adv-x="566" 
d="M118 600q0 110 65 110q40 0 105 -46q62 -44 95 -44q45 0 45 80h20q0 -100 -65 -100q-41 0 -107 47q-59 43 -93 43q-45 0 -45 -90h-20zM48 260q0 125 63 197.5t172 72.5t172 -72.5t63 -197.5t-63 -197.5t-172 -72.5t-172 72.5t-63 197.5zM283 10q100 0 157.5 67t57.5 183
t-57.5 183t-157.5 67t-157.5 -67t-57.5 -183t57.5 -183t157.5 -67z" />
    <glyph glyph-name="odieresis" unicode="&#xf6;" horiz-adv-x="566" 
d="M373 610v120h20v-120h-20zM173 610v120h20v-120h-20zM48 260q0 125 63 197.5t172 72.5t172 -72.5t63 -197.5t-63 -197.5t-172 -72.5t-172 72.5t-63 197.5zM283 10q100 0 157.5 67t57.5 183t-57.5 183t-157.5 67t-157.5 -67t-57.5 -183t57.5 -183t157.5 -67z" />
    <glyph glyph-name="divide" unicode="&#xf7;" horiz-adv-x="736" 
d="M358 0v110h20v-110h-20zM358 470v110h20v-110h-20zM88 280v20h560v-20h-560z" />
    <glyph glyph-name="oslash" unicode="&#xf8;" horiz-adv-x="576" 
d="M53 260q0 125 63 197.5t172 72.5q90 0 150 -51l42 57l16 -12l-43 -59q70 -73 70 -205q0 -125 -63 -197.5t-172 -72.5q-90 0 -150 51l-42 -57l-16 12l43 59q-70 73 -70 205zM136 71l290 392q-55 47 -138 47q-100 0 -157.5 -67t-57.5 -183q0 -121 63 -189zM150 57
q55 -47 138 -47q100 0 157.5 67t57.5 183q0 121 -63 189z" />
    <glyph glyph-name="ugrave" unicode="&#xf9;" horiz-adv-x="541" 
d="M301 590l-120 160h25l120 -160h-25zM438 128h-2q-26 -62 -76 -100t-112 -38q-91 0 -130.5 46.5t-39.5 153.5v330h20v-330q0 -98 34 -139t116 -41q79 0 134.5 64.5t55.5 155.5v290h20v-520h-20v128z" />
    <glyph glyph-name="uacute" unicode="&#xfa;" horiz-adv-x="541" 
d="M245 590h-25l120 160h25zM438 128h-2q-26 -62 -76 -100t-112 -38q-91 0 -130.5 46.5t-39.5 153.5v330h20v-330q0 -98 34 -139t116 -41q79 0 134.5 64.5t55.5 155.5v290h20v-520h-20v128z" />
    <glyph glyph-name="ucircumflex" unicode="&#xfb;" horiz-adv-x="541" 
d="M438 590h-27l-137 146h-2l-137 -146h-27l150 160h30zM438 128h-2q-26 -62 -76 -100t-112 -38q-91 0 -130.5 46.5t-39.5 153.5v330h20v-330q0 -98 34 -139t116 -41q79 0 134.5 64.5t55.5 155.5v290h20v-520h-20v128z" />
    <glyph glyph-name="udieresis" unicode="&#xfc;" horiz-adv-x="541" 
d="M363 610v120h20v-120h-20zM163 610v120h20v-120h-20zM438 128h-2q-26 -62 -76 -100t-112 -38q-91 0 -130.5 46.5t-39.5 153.5v330h20v-330q0 -98 34 -139t116 -41q79 0 134.5 64.5t55.5 155.5v290h20v-520h-20v128z" />
    <glyph glyph-name="yacute" unicode="&#xfd;" horiz-adv-x="571" 
d="M255 590h-25l120 160h25zM297 26h2l202 494h22l-214 -519q-53 -129 -111.5 -180t-144.5 -51v20q79 0 132 46t102 164l-224 520h22z" />
    <glyph glyph-name="thorn" unicode="&#xfe;" horiz-adv-x="556" 
d="M105 114h-2v-334h-20v970h20v-344h2q48 124 188 124q97 0 153.5 -72.5t56.5 -197.5t-56.5 -197.5t-153.5 -72.5q-140 0 -188 124zM483 260q0 115 -51 182.5t-139 67.5q-91 0 -140.5 -59t-49.5 -166v-50q0 -107 49.5 -166t140.5 -59q89 0 139.5 66t50.5 184z" />
    <glyph glyph-name="ydieresis" unicode="&#xff;" horiz-adv-x="571" 
d="M373 610v120h20v-120h-20zM173 610v120h20v-120h-20zM297 26h2l202 494h22l-214 -519q-53 -129 -111.5 -180t-144.5 -51v20q79 0 132 46t102 164l-224 520h22z" />
    <glyph glyph-name="Amacron" unicode="&#x100;" horiz-adv-x="676" 
d="M178 880v20h320v-20h-320zM339 713h-2l-169 -443h340zM516 250h-356l-96 -250h-21l280 730h30l280 -730h-21z" />
    <glyph glyph-name="amacron" unicode="&#x101;" horiz-adv-x="531" 
d="M113 670v20h320v-20h-320zM424 115h-2q-26 -58 -78 -91.5t-121 -33.5q-75 0 -120 41t-45 109q0 88 79.5 136.5t225.5 48.5h60v5q0 102 -34.5 141t-125.5 39q-94 0 -175 -47l-10 17q86 50 185 50t139.5 -44t40.5 -156v-190q0 -70 15 -140h-20q-13 62 -14 115zM78 140
q0 -60 39 -95t106 -35q87 0 143.5 56.5t56.5 143.5v95h-60q-136 0 -210.5 -43t-74.5 -122z" />
    <glyph glyph-name="Abreve" unicode="&#x102;" horiz-adv-x="676" 
d="M173 920h20q0 -38 41.5 -69t103.5 -31t103.5 31t41.5 69h20q0 -48 -47.5 -84t-117.5 -36t-117.5 36t-47.5 84zM339 713h-2l-169 -443h340zM516 250h-356l-96 -250h-21l280 730h30l280 -730h-21z" />
    <glyph glyph-name="abreve" unicode="&#x103;" horiz-adv-x="531" 
d="M108 720h20q0 -38 41.5 -69t103.5 -31t103.5 31t41.5 69h20q0 -48 -47.5 -84t-117.5 -36t-117.5 36t-47.5 84zM424 115h-2q-26 -58 -78 -91.5t-121 -33.5q-75 0 -120 41t-45 109q0 88 79.5 136.5t225.5 48.5h60v5q0 102 -34.5 141t-125.5 39q-94 0 -175 -47l-10 17
q86 50 185 50t139.5 -44t40.5 -156v-190q0 -70 15 -140h-20q-13 62 -14 115zM78 140q0 -60 39 -95t106 -35q87 0 143.5 56.5t56.5 143.5v95h-60q-136 0 -210.5 -43t-74.5 -122z" />
    <glyph glyph-name="Aogonek" unicode="&#x104;" horiz-adv-x="676" 
d="M608 9l-92 241h-356l-96 -250h-21l280 730h30l280 -730q-53 -29 -81.5 -65t-28.5 -70q0 -65 108 -65q52 0 93 19l8 -18q-45 -21 -101 -21q-74 0 -101 26t-27 59q0 38 28 76t77 68zM508 270l-169 443h-2l-169 -443h340z" />
    <glyph glyph-name="aogonek" unicode="&#x105;" horiz-adv-x="531" 
d="M424 115h-2q-26 -58 -78 -91.5t-121 -33.5q-75 0 -120 41t-45 109q0 88 79.5 136.5t225.5 48.5h60v5q0 102 -34.5 141t-125.5 39q-94 0 -175 -47l-10 17q86 50 185 50t139.5 -44t40.5 -156v-190q0 -70 15 -140q-53 -29 -81.5 -65t-28.5 -70q0 -65 108 -65q52 0 93 19
l8 -18q-45 -21 -101 -21q-74 0 -101 26t-27 59q0 38 28.5 76t79.5 69q-11 53 -12 105zM78 140q0 -60 39 -95t106 -35q87 0 143.5 56.5t56.5 143.5v95h-60q-136 0 -210.5 -43t-74.5 -122z" />
    <glyph glyph-name="Cacute" unicode="&#x106;" horiz-adv-x="691" 
d="M365 790h-25l120 160h25zM607 71l11 -16q-94 -65 -220 -65q-160 0 -255 102t-95 273q0 173 94 274t256 101q126 0 220 -65l-11 -16q-88 61 -209 61q-153 0 -241.5 -95.5t-88.5 -259.5q0 -162 90 -258.5t240 -96.5q119 0 209 61z" />
    <glyph glyph-name="cacute" unicode="&#x107;" horiz-adv-x="511" 
d="M280 590h-25l120 160h25zM429 43l9 -18q-66 -35 -140 -35q-112 0 -181 74.5t-69 195.5q0 125 67 197.5t183 72.5q74 0 140 -35l-9 -18q-63 33 -131 33q-108 0 -169 -66t-61 -184q0 -112 63 -181t167 -69q68 0 131 33z" />
    <glyph glyph-name="Ccircumflex" unicode="&#x108;" horiz-adv-x="691" 
d="M528 790h-27l-137 146h-2l-137 -146h-27l150 160h30zM607 71l11 -16q-94 -65 -220 -65q-160 0 -255 102t-95 273q0 173 94 274t256 101q126 0 220 -65l-11 -16q-88 61 -209 61q-153 0 -241.5 -95.5t-88.5 -259.5q0 -162 90 -258.5t240 -96.5q119 0 209 61z" />
    <glyph glyph-name="ccircumflex" unicode="&#x109;" horiz-adv-x="511" 
d="M443 590h-27l-137 146h-2l-137 -146h-27l150 160h30zM429 43l9 -18q-66 -35 -140 -35q-112 0 -181 74.5t-69 195.5q0 125 67 197.5t183 72.5q74 0 140 -35l-9 -18q-63 33 -131 33q-108 0 -169 -66t-61 -184q0 -112 63 -181t167 -69q68 0 131 33z" />
    <glyph glyph-name="Cdotaccent" unicode="&#x10a;" horiz-adv-x="691" 
d="M353 810v120h20v-120h-20zM607 71l11 -16q-94 -65 -220 -65q-160 0 -255 102t-95 273q0 173 94 274t256 101q126 0 220 -65l-11 -16q-88 61 -209 61q-153 0 -241.5 -95.5t-88.5 -259.5q0 -162 90 -258.5t240 -96.5q119 0 209 61z" />
    <glyph glyph-name="cdotaccent" unicode="&#x10b;" horiz-adv-x="511" 
d="M268 610v120h20v-120h-20zM429 43l9 -18q-66 -35 -140 -35q-112 0 -181 74.5t-69 195.5q0 125 67 197.5t183 72.5q74 0 140 -35l-9 -18q-63 33 -131 33q-108 0 -169 -66t-61 -184q0 -112 63 -181t167 -69q68 0 131 33z" />
    <glyph glyph-name="Ccaron" unicode="&#x10c;" horiz-adv-x="691" 
d="M198 950h27l137 -146h2l137 146h27l-150 -160h-30zM607 71l11 -16q-94 -65 -220 -65q-160 0 -255 102t-95 273q0 173 94 274t256 101q126 0 220 -65l-11 -16q-88 61 -209 61q-153 0 -241.5 -95.5t-88.5 -259.5q0 -162 90 -258.5t240 -96.5q119 0 209 61z" />
    <glyph glyph-name="ccaron" unicode="&#x10d;" horiz-adv-x="511" 
d="M113 750h27l137 -146h2l137 146h27l-150 -160h-30zM429 43l9 -18q-66 -35 -140 -35q-112 0 -181 74.5t-69 195.5q0 125 67 197.5t183 72.5q74 0 140 -35l-9 -18q-63 33 -131 33q-108 0 -169 -66t-61 -184q0 -112 63 -181t167 -69q68 0 131 33z" />
    <glyph glyph-name="Dcaron" unicode="&#x10e;" horiz-adv-x="681" 
d="M173 950h27l137 -146h2l137 146h27l-150 -160h-30zM118 710v-690h130q177 0 268.5 90.5t91.5 264.5q0 335 -360 335h-130zM628 375q0 -181 -98 -278t-282 -97h-150v730h150q187 0 283.5 -90.5t96.5 -264.5z" />
    <glyph glyph-name="dcaron" unicode="&#x10f;" horiz-adv-x="671" 
d="M578 510h-21l80 220h21zM263 10q91 0 140.5 59t49.5 166v50q0 107 -49.5 166t-140.5 59q-88 0 -139 -67.5t-51 -182.5q0 -118 50.5 -184t139.5 -66zM53 260q0 125 56.5 197.5t153.5 72.5q140 0 188 -124h2v344h20v-750h-20v114h-2q-48 -124 -188 -124q-98 0 -154 71.5
t-56 198.5z" />
    <glyph glyph-name="Dcroat" unicode="&#x110;" horiz-adv-x="756" 
d="M48 375v20h125v335h150q187 0 283.5 -90.5t96.5 -264.5q0 -181 -98 -278t-282 -97h-150v375h-125zM683 375q0 335 -360 335h-130v-315h215v-20h-215v-355h130q177 0 268.5 90.5t91.5 264.5z" />
    <glyph glyph-name="dcroat" unicode="&#x111;" horiz-adv-x="641" 
d="M238 610v20h215v120h20v-120h125v-20h-125v-610h-20v114h-2q-48 -124 -188 -124q-98 0 -154 71.5t-56 198.5q0 125 56.5 197.5t153.5 72.5q140 0 188 -124h2v204h-215zM263 10q91 0 140.5 59t49.5 166v50q0 107 -49.5 166t-140.5 59q-88 0 -139 -67.5t-51 -182.5
q0 -118 50.5 -184t139.5 -66z" />
    <glyph glyph-name="Emacron" unicode="&#x112;" horiz-adv-x="576" 
d="M138 880v20h320v-20h-320zM113 390v-370h380v-20h-400v730h400v-20h-380v-300h360v-20h-360z" />
    <glyph glyph-name="emacron" unicode="&#x113;" horiz-adv-x="541" 
d="M118 670v20h320v-20h-320zM68 275h399q-2 114 -50.5 174.5t-138.5 60.5q-97 0 -151.5 -61.5t-58.5 -173.5zM68 255q1 -115 59.5 -180t160.5 -65q88 0 160 44l10 -18q-78 -46 -170 -46q-111 0 -175.5 72.5t-64.5 197.5q0 127 61 198.5t169 71.5q100 0 155 -69.5t55 -195.5
v-10h-420z" />
    <glyph glyph-name="Ebreve" unicode="&#x114;" horiz-adv-x="576" 
d="M133 920h20q0 -38 41.5 -69t103.5 -31t103.5 31t41.5 69h20q0 -48 -47.5 -84t-117.5 -36t-117.5 36t-47.5 84zM113 390v-370h380v-20h-400v730h400v-20h-380v-300h360v-20h-360z" />
    <glyph glyph-name="ebreve" unicode="&#x115;" horiz-adv-x="541" 
d="M113 720h20q0 -38 41.5 -69t103.5 -31t103.5 31t41.5 69h20q0 -48 -47.5 -84t-117.5 -36t-117.5 36t-47.5 84zM68 275h399q-2 114 -50.5 174.5t-138.5 60.5q-97 0 -151.5 -61.5t-58.5 -173.5zM68 255q1 -115 59.5 -180t160.5 -65q88 0 160 44l10 -18q-78 -46 -170 -46
q-111 0 -175.5 72.5t-64.5 197.5q0 127 61 198.5t169 71.5q100 0 155 -69.5t55 -195.5v-10h-420z" />
    <glyph glyph-name="Edotaccent" unicode="&#x116;" horiz-adv-x="576" 
d="M113 390v-370h380v-20h-400v730h400v-20h-380v-300h360v-20h-360zM288 810v120h20v-120h-20z" />
    <glyph glyph-name="edotaccent" unicode="&#x117;" horiz-adv-x="541" 
d="M268 610v120h20v-120h-20zM68 275h399q-2 114 -50.5 174.5t-138.5 60.5q-97 0 -151.5 -61.5t-58.5 -173.5zM68 255q1 -115 59.5 -180t160.5 -65q88 0 160 44l10 -18q-78 -46 -170 -46q-111 0 -175.5 72.5t-64.5 197.5q0 127 61 198.5t169 71.5q100 0 155 -69.5t55 -195.5
v-10h-420z" />
    <glyph glyph-name="Eogonek" unicode="&#x118;" horiz-adv-x="576" 
d="M113 390v-370h380v-20h-100q-53 -29 -81.5 -65t-28.5 -70q0 -65 108 -65q52 0 93 19l8 -18q-45 -21 -101 -21q-74 0 -101 26t-27 59q0 73 92 135h-262v730h400v-20h-380v-300h360v-20h-360z" />
    <glyph glyph-name="eogonek" unicode="&#x119;" horiz-adv-x="541" 
d="M68 275h399q-2 114 -50.5 174.5t-138.5 60.5q-97 0 -151.5 -61.5t-58.5 -173.5zM218 -1q-81 21 -125.5 89t-44.5 172q0 127 61 198.5t169 71.5q100 0 155 -69.5t55 -195.5v-10h-420q1 -115 59.5 -180t160.5 -65q88 0 160 44l10 -18q-78 -46 -170 -46q-27 0 -47 4
q-43 -48 -43 -99q0 -95 145 -95q60 0 111 24l8 -18q-52 -26 -119 -26q-51 0 -86 11.5t-51 30.5t-22 36.5t-6 36.5q0 55 40 104z" />
    <glyph glyph-name="Ecaron" unicode="&#x11a;" horiz-adv-x="576" 
d="M133 950h27l137 -146h2l137 146h27l-150 -160h-30zM113 390v-370h380v-20h-400v730h400v-20h-380v-300h360v-20h-360z" />
    <glyph glyph-name="ecaron" unicode="&#x11b;" horiz-adv-x="541" 
d="M113 750h27l137 -146h2l137 146h27l-150 -160h-30zM68 275h399q-2 114 -50.5 174.5t-138.5 60.5q-97 0 -151.5 -61.5t-58.5 -173.5zM68 255q1 -115 59.5 -180t160.5 -65q88 0 160 44l10 -18q-78 -46 -170 -46q-111 0 -175.5 72.5t-64.5 197.5q0 127 61 198.5t169 71.5
q100 0 155 -69.5t55 -195.5v-10h-420z" />
    <glyph glyph-name="Gcircumflex" unicode="&#x11c;" horiz-adv-x="741" 
d="M528 790h-27l-137 146h-2l-137 -146h-27l150 160h30zM658 44q-111 -54 -250 -54q-164 0 -262 102t-98 273t98 273t262 102q129 0 225 -60l-11 -17q-91 57 -214 57q-157 0 -248.5 -95.5t-91.5 -259.5t91.5 -259.5t248.5 -95.5q127 0 230 47v333h-300v20h320v-366z" />
    <glyph glyph-name="gcircumflex" unicode="&#x11d;" horiz-adv-x="591" 
d="M508 -65q0 25 -6.5 44.5t-25.5 39t-60 30.5t-103 11q-74 0 -118 10q-49 -16 -83 -59.5t-34 -90.5q0 -59 55.5 -94.5t149.5 -35.5q104 0 164.5 39t60.5 106zM468 434v86h20v-170q0 -79 -54 -124.5t-146 -45.5q-77 0 -129 33q-31 -26 -31 -58q0 -16 6.5 -27.5t24.5 -23.5
t57 -18t97 -6q110 0 162.5 -35.5t52.5 -109.5q0 -76 -66 -120.5t-179 -44.5q-103 0 -164 41t-61 109q0 47 30.5 91t76.5 68q-57 22 -57 76q0 38 34 70q-54 45 -54 125t53 130t137 50q137 0 188 -96h2zM468 590h-27l-137 146h-2l-137 -146h-27l150 160h30zM108 350
q0 -71 47.5 -110.5t132.5 -39.5q83 0 131.5 40t48.5 110q0 73 -52 116.5t-138 43.5q-75 0 -122.5 -44.5t-47.5 -115.5z" />
    <glyph glyph-name="Gbreve" unicode="&#x11e;" horiz-adv-x="741" 
d="M198 920h20q0 -38 41.5 -69t103.5 -31t103.5 31t41.5 69h20q0 -48 -47.5 -84t-117.5 -36t-117.5 36t-47.5 84zM658 44q-111 -54 -250 -54q-164 0 -262 102t-98 273t98 273t262 102q129 0 225 -60l-11 -17q-91 57 -214 57q-157 0 -248.5 -95.5t-91.5 -259.5t91.5 -259.5
t248.5 -95.5q127 0 230 47v333h-300v20h320v-366z" />
    <glyph glyph-name="gbreve" unicode="&#x11f;" horiz-adv-x="591" 
d="M508 -65q0 25 -6.5 44.5t-25.5 39t-60 30.5t-103 11q-74 0 -118 10q-49 -16 -83 -59.5t-34 -90.5q0 -59 55.5 -94.5t149.5 -35.5q104 0 164.5 39t60.5 106zM468 434v86h20v-170q0 -79 -54 -124.5t-146 -45.5q-77 0 -129 33q-31 -26 -31 -58q0 -16 6.5 -27.5t24.5 -23.5
t57 -18t97 -6q110 0 162.5 -35.5t52.5 -109.5q0 -76 -66 -120.5t-179 -44.5q-103 0 -164 41t-61 109q0 47 30.5 91t76.5 68q-57 22 -57 76q0 38 34 70q-54 45 -54 125t53 130t137 50q137 0 188 -96h2zM138 720h20q0 -38 41.5 -69t103.5 -31t103.5 31t41.5 69h20
q0 -48 -47.5 -84t-117.5 -36t-117.5 36t-47.5 84zM108 350q0 -71 47.5 -110.5t132.5 -39.5q83 0 131.5 40t48.5 110q0 73 -52 116.5t-138 43.5q-75 0 -122.5 -44.5t-47.5 -115.5z" />
    <glyph glyph-name="Gdotaccent" unicode="&#x120;" horiz-adv-x="741" 
d="M353 810v120h20v-120h-20zM658 44q-111 -54 -250 -54q-164 0 -262 102t-98 273t98 273t262 102q129 0 225 -60l-11 -17q-91 57 -214 57q-157 0 -248.5 -95.5t-91.5 -259.5t91.5 -259.5t248.5 -95.5q127 0 230 47v333h-300v20h320v-366z" />
    <glyph glyph-name="gdotaccent" unicode="&#x121;" horiz-adv-x="591" 
d="M508 -65q0 25 -6.5 44.5t-25.5 39t-60 30.5t-103 11q-74 0 -118 10q-49 -16 -83 -59.5t-34 -90.5q0 -59 55.5 -94.5t149.5 -35.5q104 0 164.5 39t60.5 106zM468 434v86h20v-170q0 -79 -54 -124.5t-146 -45.5q-77 0 -129 33q-31 -26 -31 -58q0 -16 6.5 -27.5t24.5 -23.5
t57 -18t97 -6q110 0 162.5 -35.5t52.5 -109.5q0 -76 -66 -120.5t-179 -44.5q-103 0 -164 41t-61 109q0 47 30.5 91t76.5 68q-57 22 -57 76q0 38 34 70q-54 45 -54 125t53 130t137 50q137 0 188 -96h2zM293 610v120h20v-120h-20zM108 350q0 -71 47.5 -110.5t132.5 -39.5
q83 0 131.5 40t48.5 110q0 73 -52 116.5t-138 43.5q-75 0 -122.5 -44.5t-47.5 -115.5z" />
    <glyph glyph-name="Gcommaaccent" unicode="&#x122;" horiz-adv-x="741" 
d="M313 -260l73 200h21l-72 -200h-22zM658 44q-111 -54 -250 -54q-164 0 -262 102t-98 273t98 273t262 102q129 0 225 -60l-11 -17q-91 57 -214 57q-157 0 -248.5 -95.5t-91.5 -259.5t91.5 -259.5t248.5 -95.5q127 0 230 47v333h-300v20h320v-366z" />
    <glyph glyph-name="gcommaaccent" unicode="&#x123;" horiz-adv-x="591" 
d="M508 -65q0 25 -6.5 44.5t-25.5 39t-60 30.5t-103 11q-74 0 -118 10q-49 -16 -83 -59.5t-34 -90.5q0 -59 55.5 -94.5t149.5 -35.5q104 0 164.5 39t60.5 106zM468 434v86h20v-170q0 -79 -54 -124.5t-146 -45.5q-77 0 -129 33q-31 -26 -31 -58q0 -16 6.5 -27.5t24.5 -23.5
t57 -18t97 -6q110 0 162.5 -35.5t52.5 -109.5q0 -76 -66 -120.5t-179 -44.5q-103 0 -164 41t-61 109q0 47 30.5 91t76.5 68q-57 22 -57 76q0 38 34 70q-54 45 -54 125t53 130t137 50q137 0 188 -96h2zM353 780l-73 -200h-21l72 200h22zM108 350q0 -71 47.5 -110.5
t132.5 -39.5q83 0 131.5 40t48.5 110q0 73 -52 116.5t-138 43.5q-75 0 -122.5 -44.5t-47.5 -115.5z" />
    <glyph glyph-name="Hcircumflex" unicode="&#x124;" horiz-adv-x="686" 
d="M508 790h-27l-137 146h-2l-137 -146h-27l150 160h30zM573 730h20v-730h-20v390h-460v-390h-20v730h20v-320h460v320z" />
    <glyph glyph-name="hcircumflex" unicode="&#x125;" horiz-adv-x="556" 
d="M443 790h-27l-137 146h-2l-137 -146h-27l150 160h30zM108 392h2q26 62 76 100t112 38q94 0 137 -52t43 -168v-310h-20v310q0 108 -37 154t-123 46q-79 0 -134.5 -64.5t-55.5 -155.5v-290h-20v750h20v-358z" />
    <glyph glyph-name="Hbar" unicode="&#x126;" horiz-adv-x="806" 
d="M43 570v20h110v140h20v-140h460v140h20v-140h110v-20h-110v-570h-20v390h-460v-390h-20v570h-110zM633 570h-460v-160h460v160z" />
    <glyph glyph-name="hbar" unicode="&#x127;" horiz-adv-x="636" 
d="M188 392h2q26 62 76 100t112 38q94 0 137 -52t43 -168v-310h-20v310q0 108 -37 154t-123 46q-79 0 -134.5 -64.5t-55.5 -155.5v-290h-20v610h-125v20h125v120h20v-120h215v-20h-215v-218z" />
    <glyph glyph-name="Itilde" unicode="&#x128;" horiz-adv-x="286" 
d="M-22 810q0 110 65 110q40 0 105 -46q62 -44 95 -44q45 0 45 80h20q0 -100 -65 -100q-41 0 -107 47q-59 43 -93 43q-45 0 -45 -90h-20zM133 0v730h20v-730h-20z" />
    <glyph glyph-name="itilde" unicode="&#x129;" horiz-adv-x="286" 
d="M-22 600q0 110 65 110q40 0 105 -46q62 -44 95 -44q45 0 45 80h20q0 -100 -65 -100q-41 0 -107 47q-59 43 -93 43q-45 0 -45 -90h-20zM133 0v520h20v-520h-20z" />
    <glyph glyph-name="Imacron" unicode="&#x12a;" horiz-adv-x="286" 
d="M-17 880v20h320v-20h-320zM133 0v730h20v-730h-20z" />
    <glyph glyph-name="imacron" unicode="&#x12b;" horiz-adv-x="286" 
d="M-17 670v20h320v-20h-320zM133 0v520h20v-520h-20z" />
    <glyph glyph-name="Ibreve" unicode="&#x12c;" horiz-adv-x="286" 
d="M-22 920h20q0 -38 41.5 -69t103.5 -31t103.5 31t41.5 69h20q0 -48 -47.5 -84t-117.5 -36t-117.5 36t-47.5 84zM133 0v730h20v-730h-20z" />
    <glyph glyph-name="ibreve" unicode="&#x12d;" horiz-adv-x="286" 
d="M-22 720h20q0 -38 41.5 -69t103.5 -31t103.5 31t41.5 69h20q0 -48 -47.5 -84t-117.5 -36t-117.5 36t-47.5 84zM133 0v520h20v-520h-20z" />
    <glyph glyph-name="Iogonek" unicode="&#x12e;" horiz-adv-x="286" 
d="M153 0q-53 -29 -81.5 -65t-28.5 -70q0 -65 108 -65q52 0 93 19l8 -18q-45 -21 -101 -21q-74 0 -101 26t-27 59q0 39 29 77.5t81 69.5v718h20v-730z" />
    <glyph glyph-name="iogonek" unicode="&#x12f;" horiz-adv-x="286" 
d="M133 640v110h20v-110h-20zM153 0q-53 -29 -81.5 -65t-28.5 -70q0 -65 108 -65q52 0 93 19l8 -18q-45 -21 -101 -21q-74 0 -101 26t-27 59q0 39 29 77.5t81 69.5v508h20v-520z" />
    <glyph glyph-name="Idotaccent" unicode="&#x130;" horiz-adv-x="286" 
d="M133 0v730h20v-730h-20zM133 810v120h20v-120h-20z" />
    <glyph glyph-name="dotlessi" unicode="&#x131;" horiz-adv-x="286" 
d="M133 0v520h20v-520h-20z" />
    <glyph glyph-name="IJ" unicode="&#x132;" horiz-adv-x="802" 
d="M279 20l8 18q62 -28 142 -28q113 0 171.5 68.5t58.5 201.5v450h20v-450q0 -143 -65.5 -216.5t-184.5 -73.5q-83 0 -150 30zM133 0v730h20v-730h-20z" />
    <glyph glyph-name="ij" unicode="&#x133;" horiz-adv-x="571" 
d="M229 -220v20q115 0 152.5 38.5t37.5 161.5v520h20v-520q0 -130 -43 -175t-167 -45zM419 640v110h20v-110h-20zM133 0v520h20v-520h-20zM133 640v110h20v-110h-20z" />
    <glyph glyph-name="Jcircumflex" unicode="&#x134;" horiz-adv-x="566" 
d="M583 790h-27l-137 146h-2l-137 -146h-27l150 160h30zM33 20l8 18q62 -28 142 -28q113 0 171.5 68.5t58.5 201.5v450h20v-450q0 -143 -65.5 -216.5t-184.5 -73.5q-83 0 -150 30z" />
    <glyph glyph-name="jcircumflex" unicode="&#x135;" horiz-adv-x="326" 
d="M343 590h-27l-137 146h-2l-137 -146h-27l150 160h30zM-17 -220v20q115 0 152.5 38.5t37.5 161.5v520h20v-520q0 -130 -43 -175t-167 -45z" />
    <glyph glyph-name="Kcommaaccent" unicode="&#x136;" horiz-adv-x="596" 
d="M115 367h-2v-367h-20v730h20v-337h2l397 337h31l-415 -350l425 -380h-30zM243 -260l73 200h21l-72 -200h-22z" />
    <glyph glyph-name="kcommaaccent" unicode="&#x137;" horiz-adv-x="531" 
d="M108 284h2l328 236h35l-350 -250l355 -270h-33l-335 256h-2v-256h-20v750h20v-466zM213 -260l73 200h21l-72 -200h-22z" />
    <glyph glyph-name="kgreenlandic" unicode="&#x138;" horiz-adv-x="526" 
d="M103 284h2l328 236h35l-350 -250l355 -270h-33l-335 256h-2v-256h-20v520h20v-236z" />
    <glyph glyph-name="Lacute" unicode="&#x139;" horiz-adv-x="581" 
d="M118 790h-25l120 160h25zM113 730v-710h400v-20h-420v730h20z" />
    <glyph glyph-name="lacute" unicode="&#x13a;" horiz-adv-x="286" 
d="M158 810h-25l120 160h25zM133 0v750h20v-750h-20z" />
    <glyph glyph-name="Lcommaaccent" unicode="&#x13b;" horiz-adv-x="581" 
d="M113 730v-710h400v-20h-420v730h20zM233 -260l73 200h21l-72 -200h-22z" />
    <glyph glyph-name="lcommaaccent" unicode="&#x13c;" horiz-adv-x="285" 
d="M133 0v750h20v-750h-20zM93 -260l73 200h21l-73 -200h-21z" />
    <glyph glyph-name="Lcaron" unicode="&#x13d;" horiz-adv-x="586" 
d="M113 730v-710h400v-20h-420v730h20zM293 510h-21l80 220h21z" />
    <glyph glyph-name="lcaron" unicode="&#x13e;" horiz-adv-x="388" 
d="M133 0v750h20v-750h-20zM273 530h-21l80 220h21z" />
    <glyph glyph-name="Ldot" unicode="&#x13f;" horiz-adv-x="586" 
d="M113 730v-710h400v-20h-420v730h20zM383 340v120h20v-120h-20z" />
    <glyph glyph-name="ldot" unicode="&#x140;" horiz-adv-x="378" 
d="M283 340v120h20v-120h-20zM133 0v750h20v-750h-20z" />
    <glyph glyph-name="Lslash" unicode="&#x141;" horiz-adv-x="655" 
d="M167 410v320h20v-311l176 80l8 -18l-184 -84v-377h400v-20h-420v388l-126 -57l-8 18z" />
    <glyph glyph-name="lslash" unicode="&#x142;" horiz-adv-x="428" 
d="M224 431l151 68l8 -18l-159 -72v-409h-20v399l-151 -68l-8 18l159 72v329h20v-319z" />
    <glyph glyph-name="Nacute" unicode="&#x143;" horiz-adv-x="696" 
d="M320 790h-25l120 160h25zM583 21v709h20v-730h-32l-456 709h-2v-709h-20v730h32l456 -709h2z" />
    <glyph glyph-name="nacute" unicode="&#x144;" horiz-adv-x="551" 
d="M245 590h-25l120 160h25zM103 392h2q26 62 76 100t112 38q94 0 137 -52t43 -168v-310h-20v310q0 108 -37 154t-123 46q-79 0 -134.5 -64.5t-55.5 -155.5v-290h-20v520h20v-128z" />
    <glyph glyph-name="Ncommaaccent" unicode="&#x145;" horiz-adv-x="696" 
d="M298 -260l73 200h21l-72 -200h-22zM583 21v709h20v-730h-32l-456 709h-2v-709h-20v730h32l456 -709h2z" />
    <glyph glyph-name="ncommaaccent" unicode="&#x146;" horiz-adv-x="551" 
d="M223 -260l73 200h21l-72 -200h-22zM103 392h2q26 62 76 100t112 38q94 0 137 -52t43 -168v-310h-20v310q0 108 -37 154t-123 46q-79 0 -134.5 -64.5t-55.5 -155.5v-290h-20v520h20v-128z" />
    <glyph glyph-name="Ncaron" unicode="&#x147;" horiz-adv-x="696" 
d="M183 950h27l137 -146h2l137 146h27l-150 -160h-30zM583 21v709h20v-730h-32l-456 709h-2v-709h-20v730h32l456 -709h2z" />
    <glyph glyph-name="ncaron" unicode="&#x148;" horiz-adv-x="551" 
d="M108 750h27l137 -146h2l137 146h27l-150 -160h-30zM103 392h2q26 62 76 100t112 38q94 0 137 -52t43 -168v-310h-20v310q0 108 -37 154t-123 46q-79 0 -134.5 -64.5t-55.5 -155.5v-290h-20v520h20v-128z" />
    <glyph glyph-name="napostrophe" unicode="&#x149;" horiz-adv-x="632" 
d="M64 510h-21l80 220h21zM184 392h2q26 62 76 100t112 38q94 0 137 -52t43 -168v-310h-20v310q0 108 -37 154t-123 46q-79 0 -134.5 -64.5t-55.5 -155.5v-290h-20v520h20v-128z" />
    <glyph glyph-name="Eng" unicode="&#x14a;" horiz-adv-x="696" 
d="M603 730v-810q0 -78 -33.5 -114t-106.5 -36q-44 0 -80 15l7 19q34 -14 73 -14q64 0 92 30.5t28 99.5v61l-468 728h-2v-709h-20v730h32l456 -709h2v709h20z" />
    <glyph glyph-name="eng" unicode="&#x14b;" horiz-adv-x="551" 
d="M453 -80v390q0 108 -37 154t-123 46q-79 0 -134.5 -64.5t-55.5 -155.5v-290h-20v520h20v-128h2q26 62 76 100t112 38q94 0 137 -52t43 -168v-390q0 -78 -33.5 -114t-106.5 -36q-44 0 -80 15l7 19q34 -14 73 -14q64 0 92 30.5t28 99.5z" />
    <glyph glyph-name="Omacron" unicode="&#x14c;" horiz-adv-x="796" 
d="M238 880v20h320v-20h-320zM48 365q0 168 96.5 271.5t253.5 103.5t253.5 -103.5t96.5 -271.5t-96.5 -271.5t-253.5 -103.5t-253.5 103.5t-96.5 271.5zM398 10q148 0 239 98t91 257t-91 257t-239 98t-239 -98t-91 -257t91 -257t239 -98z" />
    <glyph glyph-name="omacron" unicode="&#x14d;" horiz-adv-x="566" 
d="M123 670v20h320v-20h-320zM48 260q0 125 63 197.5t172 72.5t172 -72.5t63 -197.5t-63 -197.5t-172 -72.5t-172 72.5t-63 197.5zM283 10q100 0 157.5 67t57.5 183t-57.5 183t-157.5 67t-157.5 -67t-57.5 -183t57.5 -183t157.5 -67z" />
    <glyph glyph-name="Obreve" unicode="&#x14e;" horiz-adv-x="796" 
d="M233 920h20q0 -38 41.5 -69t103.5 -31t103.5 31t41.5 69h20q0 -48 -47.5 -84t-117.5 -36t-117.5 36t-47.5 84zM48 365q0 168 96.5 271.5t253.5 103.5t253.5 -103.5t96.5 -271.5t-96.5 -271.5t-253.5 -103.5t-253.5 103.5t-96.5 271.5zM398 10q148 0 239 98t91 257
t-91 257t-239 98t-239 -98t-91 -257t91 -257t239 -98z" />
    <glyph glyph-name="obreve" unicode="&#x14f;" horiz-adv-x="566" 
d="M118 720h20q0 -38 41.5 -69t103.5 -31t103.5 31t41.5 69h20q0 -48 -47.5 -84t-117.5 -36t-117.5 36t-47.5 84zM48 260q0 125 63 197.5t172 72.5t172 -72.5t63 -197.5t-63 -197.5t-172 -72.5t-172 72.5t-63 197.5zM283 10q100 0 157.5 67t57.5 183t-57.5 183t-157.5 67
t-157.5 -67t-57.5 -183t57.5 -183t157.5 -67z" />
    <glyph glyph-name="Ohungarumlaut" unicode="&#x150;" horiz-adv-x="796" 
d="M477 790h-25l120 160h25zM322 790h-25l120 160h25zM48 365q0 168 96.5 271.5t253.5 103.5t253.5 -103.5t96.5 -271.5t-96.5 -271.5t-253.5 -103.5t-253.5 103.5t-96.5 271.5zM398 10q148 0 239 98t91 257t-91 257t-239 98t-239 -98t-91 -257t91 -257t239 -98z" />
    <glyph glyph-name="ohungarumlaut" unicode="&#x151;" horiz-adv-x="566" 
d="M362 590h-25l120 160h25zM207 590h-25l120 160h25zM48 260q0 125 63 197.5t172 72.5t172 -72.5t63 -197.5t-63 -197.5t-172 -72.5t-172 72.5t-63 197.5zM283 10q100 0 157.5 67t57.5 183t-57.5 183t-157.5 67t-157.5 -67t-57.5 -183t57.5 -183t157.5 -67z" />
    <glyph glyph-name="OE" unicode="&#x152;" horiz-adv-x="851" 
d="M444 730h324v-20h-310v-300h290v-20h-290v-370h310v-20h-324q-37 -10 -80 -10q-142 0 -229 103.5t-87 271.5t87 271.5t229 103.5q43 0 80 -10zM438 19v692q-36 9 -74 9q-133 0 -214.5 -98t-81.5 -257t81.5 -257t214.5 -98q38 0 74 9z" />
    <glyph glyph-name="oe" unicode="&#x153;" horiz-adv-x="916" 
d="M48 260q0 125 59 197.5t161 72.5q75 0 127.5 -46.5t72.5 -128.5q19 84 70.5 129.5t129.5 45.5q94 0 144.5 -68.5t50.5 -196.5v-10h-385q2 -113 55.5 -179t144.5 -66q83 0 150 43l10 -16q-74 -47 -160 -47q-81 0 -135.5 46.5t-74.5 130.5q-20 -83 -72 -130t-128 -47
q-102 0 -161 72.5t-59 197.5zM478 275h365q-2 115 -46.5 175t-128.5 60q-88 0 -137.5 -61.5t-52.5 -173.5zM458 260q0 115 -51 182.5t-139 67.5q-94 0 -147 -66t-53 -184t53 -184t147 -66q88 0 139 67.5t51 182.5z" />
    <glyph glyph-name="Racute" unicode="&#x154;" horiz-adv-x="606" 
d="M346 364v-2q31 -12 52.5 -43.5t55.5 -108.5l94 -210h-22l-90 202q-22 49 -35 73t-26.5 43.5t-33.5 25.5t-40.5 8.5t-62.5 2.5h-120v-355h-20v730h140q43 0 78.5 -3t76.5 -13t69 -27t47 -48t19 -74q0 -87 -44 -136t-138 -65zM250 790h-25l120 160h25zM118 375h120
q143 0 206.5 45.5t63.5 144.5q0 72 -63.5 108.5t-206.5 36.5h-120v-335z" />
    <glyph glyph-name="racute" unicode="&#x155;" horiz-adv-x="436" 
d="M155 590h-25l120 160h25zM103 371h2q32 71 104.5 115t163.5 44v-20q-112 0 -191 -67.5t-79 -162.5v-280h-20v520h20v-149z" />
    <glyph glyph-name="Rcommaaccent" unicode="&#x156;" horiz-adv-x="606" 
d="M346 364v-2q31 -12 52.5 -43.5t55.5 -108.5l94 -210h-22l-90 202q-22 49 -35 73t-26.5 43.5t-33.5 25.5t-40.5 8.5t-62.5 2.5h-120v-355h-20v730h140q43 0 78.5 -3t76.5 -13t69 -27t47 -48t19 -74q0 -87 -44 -136t-138 -65zM228 -260l73 200h21l-72 -200h-22zM118 375
h120q143 0 206.5 45.5t63.5 144.5q0 72 -63.5 108.5t-206.5 36.5h-120v-335z" />
    <glyph glyph-name="rcommaaccent" unicode="&#x157;" horiz-adv-x="436" 
d="M133 -260l73 200h21l-72 -200h-22zM103 371h2q32 71 104.5 115t163.5 44v-20q-112 0 -191 -67.5t-79 -162.5v-280h-20v520h20v-149z" />
    <glyph glyph-name="Rcaron" unicode="&#x158;" horiz-adv-x="606" 
d="M113 950h27l137 -146h2l137 146h27l-150 -160h-30zM346 364v-2q31 -12 52.5 -43.5t55.5 -108.5l94 -210h-22l-90 202q-22 49 -35 73t-26.5 43.5t-33.5 25.5t-40.5 8.5t-62.5 2.5h-120v-355h-20v730h140q43 0 78.5 -3t76.5 -13t69 -27t47 -48t19 -74q0 -87 -44 -136
t-138 -65zM118 375h120q143 0 206.5 45.5t63.5 144.5q0 72 -63.5 108.5t-206.5 36.5h-120v-335z" />
    <glyph glyph-name="rcaron" unicode="&#x159;" horiz-adv-x="436" 
d="M18 750h27l137 -146h2l137 146h27l-150 -160h-30zM103 371h2q32 71 104.5 115t163.5 44v-20q-112 0 -191 -67.5t-79 -162.5v-280h-20v520h20v-149z" />
    <glyph glyph-name="Sacute" unicode="&#x15a;" horiz-adv-x="556" 
d="M278 720q-85 0 -132.5 -37t-47.5 -103q0 -123 183 -180q109 -34 158 -86t49 -134q0 -92 -54.5 -141t-155.5 -49q-124 0 -210 70l12 16q82 -66 198 -66q93 0 141.5 43.5t48.5 126.5q0 75 -45 121.5t-148 78.5q-197 61 -197 200q0 73 52.5 116.5t147.5 43.5q109 0 200 -50
l-10 -17q-84 47 -190 47zM250 790h-25l120 160h25z" />
    <glyph glyph-name="sacute" unicode="&#x15b;" horiz-adv-x="486" 
d="M408 490l-9 -18q-80 38 -161 38q-71 0 -113 -30t-42 -80q0 -45 33 -73.5t124 -46.5q96 -19 139.5 -54.5t43.5 -95.5q0 -65 -50 -102.5t-135 -37.5q-92 0 -175 50l10 17q77 -47 165 -47q76 0 120.5 32t44.5 88q0 52 -39 82.5t-128 47.5q-92 18 -132.5 50.5t-40.5 89.5
q0 59 47.5 94.5t127.5 35.5q87 0 170 -40zM210 590h-25l120 160h25z" />
    <glyph glyph-name="Scircumflex" unicode="&#x15c;" horiz-adv-x="556" 
d="M443 790h-27l-137 146h-2l-137 -146h-27l150 160h30zM278 720q-85 0 -132.5 -37t-47.5 -103q0 -123 183 -180q109 -34 158 -86t49 -134q0 -92 -54.5 -141t-155.5 -49q-124 0 -210 70l12 16q82 -66 198 -66q93 0 141.5 43.5t48.5 126.5q0 75 -45 121.5t-148 78.5
q-197 61 -197 200q0 73 52.5 116.5t147.5 43.5q109 0 200 -50l-10 -17q-84 47 -190 47z" />
    <glyph glyph-name="scircumflex" unicode="&#x15d;" horiz-adv-x="486" 
d="M403 590h-27l-137 146h-2l-137 -146h-27l150 160h30zM408 490l-9 -18q-80 38 -161 38q-71 0 -113 -30t-42 -80q0 -45 33 -73.5t124 -46.5q96 -19 139.5 -54.5t43.5 -95.5q0 -65 -50 -102.5t-135 -37.5q-92 0 -175 50l10 17q77 -47 165 -47q76 0 120.5 32t44.5 88
q0 52 -39 82.5t-128 47.5q-92 18 -132.5 50.5t-40.5 89.5q0 59 47.5 94.5t127.5 35.5q87 0 170 -40z" />
    <glyph glyph-name="Scedilla" unicode="&#x15e;" horiz-adv-x="556" 
d="M278 720q-85 0 -132.5 -37t-47.5 -103q0 -123 183 -180q109 -34 158 -86t49 -134q0 -74 -35.5 -121t-103.5 -62q39 -48 39 -102q0 -19 -6 -36.5t-22 -36.5t-51 -30.5t-86 -11.5q-67 0 -119 26l8 18q51 -24 111 -24q145 0 145 95q0 51 -42 98q-22 -3 -48 -3
q-124 0 -210 70l12 16q82 -66 198 -66q93 0 141.5 43.5t48.5 126.5q0 75 -45 121.5t-148 78.5q-197 61 -197 200q0 73 52.5 116.5t147.5 43.5q109 0 200 -50l-10 -17q-84 47 -190 47z" />
    <glyph glyph-name="scedilla" unicode="&#x15f;" horiz-adv-x="486" 
d="M408 490l-9 -18q-80 38 -161 38q-71 0 -113 -30t-42 -80q0 -45 33 -73.5t124 -46.5q96 -19 139.5 -54.5t43.5 -95.5q0 -50 -30.5 -84t-84.5 -48q40 -49 40 -103q0 -19 -6 -36.5t-22 -36.5t-51 -30.5t-86 -11.5q-67 0 -119 26l8 18q51 -24 111 -24q145 0 145 95
q0 51 -42 98q-22 -3 -48 -3q-92 0 -175 50l10 17q77 -47 165 -47q76 0 120.5 32t44.5 88q0 52 -39 82.5t-128 47.5q-92 18 -132.5 50.5t-40.5 89.5q0 59 47.5 94.5t127.5 35.5q87 0 170 -40z" />
    <glyph glyph-name="Scaron" unicode="&#x160;" horiz-adv-x="556" 
d="M113 950h27l137 -146h2l137 146h27l-150 -160h-30zM278 720q-85 0 -132.5 -37t-47.5 -103q0 -123 183 -180q109 -34 158 -86t49 -134q0 -92 -54.5 -141t-155.5 -49q-124 0 -210 70l12 16q82 -66 198 -66q93 0 141.5 43.5t48.5 126.5q0 75 -45 121.5t-148 78.5
q-197 61 -197 200q0 73 52.5 116.5t147.5 43.5q109 0 200 -50l-10 -17q-84 47 -190 47z" />
    <glyph glyph-name="scaron" unicode="&#x161;" horiz-adv-x="486" 
d="M73 750h27l137 -146h2l137 146h27l-150 -160h-30zM408 490l-9 -18q-80 38 -161 38q-71 0 -113 -30t-42 -80q0 -45 33 -73.5t124 -46.5q96 -19 139.5 -54.5t43.5 -95.5q0 -65 -50 -102.5t-135 -37.5q-92 0 -175 50l10 17q77 -47 165 -47q76 0 120.5 32t44.5 88
q0 52 -39 82.5t-128 47.5q-92 18 -132.5 50.5t-40.5 89.5q0 59 47.5 94.5t127.5 35.5q87 0 170 -40z" />
    <glyph glyph-name="Tcommaaccent" unicode="&#x162;" horiz-adv-x="656" 
d="M588 710h-250v-702q48 -52 48 -113q0 -19 -6 -36.5t-22 -36.5t-51 -30.5t-86 -11.5q-67 0 -119 26l9 18q51 -24 110 -24q145 0 145 95q0 55 -48 105v710h-250v20h520v-20z" />
    <glyph glyph-name="tcommaaccent" unicode="&#x163;" horiz-adv-x="501" 
d="M314 -10q-75 1 -103 33t-28 117v340h-125v20h125v190h20v-190h215v-20h-215v-340q0 -80 24.5 -105t90.5 -25q43 0 83 14l7 -19q-29 -11 -69 -14q34 -44 34 -96q0 -19 -6 -36.5t-22 -36.5t-51 -30.5t-86 -11.5q-67 0 -119 26l8 18q51 -24 111 -24q145 0 145 95
q0 50 -39 95z" />
    <glyph glyph-name="Tcaron" unicode="&#x164;" horiz-adv-x="656" 
d="M163 950h27l137 -146h2l137 146h27l-150 -160h-30zM588 730v-20h-250v-710h-20v710h-250v20h520z" />
    <glyph glyph-name="tcaron" unicode="&#x165;" horiz-adv-x="476" 
d="M363 590h-21l80 220h21zM408 5q-42 -15 -90 -15q-77 0 -106 32t-29 118v340h-125v20h125v190h20v-190h215v-20h-215v-340q0 -80 24.5 -105t90.5 -25q43 0 83 14z" />
    <glyph glyph-name="Tbar" unicode="&#x166;" horiz-adv-x="666" 
d="M123 280v20h200v410h-250v20h520v-20h-250v-410h200v-20h-200v-280h-20v280h-200z" />
    <glyph glyph-name="tbar" unicode="&#x167;" horiz-adv-x="511" 
d="M63 280v20h125v220h-125v20h125v150h20v-150h215v-20h-215v-220h175v-20h-175v-140q0 -80 24.5 -105t90.5 -25q43 0 83 14l7 -19q-42 -15 -90 -15q-77 0 -106 32t-29 118v140h-125z" />
    <glyph glyph-name="Utilde" unicode="&#x168;" horiz-adv-x="666" 
d="M168 810q0 110 65 110q40 0 105 -46q62 -44 95 -44q45 0 45 80h20q0 -100 -65 -100q-41 0 -107 47q-59 43 -93 43q-45 0 -45 -90h-20zM563 730h20v-460q0 -136 -64.5 -208t-185.5 -72t-185.5 72t-64.5 208v460h20v-460q0 -127 58.5 -193.5t171.5 -66.5t171.5 66.5
t58.5 193.5v460z" />
    <glyph glyph-name="utilde" unicode="&#x169;" horiz-adv-x="541" 
d="M108 600q0 110 65 110q40 0 105 -46q62 -44 95 -44q45 0 45 80h20q0 -100 -65 -100q-41 0 -107 47q-59 43 -93 43q-45 0 -45 -90h-20zM438 128h-2q-26 -62 -76 -100t-112 -38q-91 0 -130.5 46.5t-39.5 153.5v330h20v-330q0 -98 34 -139t116 -41q79 0 134.5 64.5
t55.5 155.5v290h20v-520h-20v128z" />
    <glyph glyph-name="Umacron" unicode="&#x16a;" horiz-adv-x="666" 
d="M173 880v20h320v-20h-320zM563 730h20v-460q0 -136 -64.5 -208t-185.5 -72t-185.5 72t-64.5 208v460h20v-460q0 -127 58.5 -193.5t171.5 -66.5t171.5 66.5t58.5 193.5v460z" />
    <glyph glyph-name="umacron" unicode="&#x16b;" horiz-adv-x="541" 
d="M113 670v20h320v-20h-320zM438 128h-2q-26 -62 -76 -100t-112 -38q-91 0 -130.5 46.5t-39.5 153.5v330h20v-330q0 -98 34 -139t116 -41q79 0 134.5 64.5t55.5 155.5v290h20v-520h-20v128z" />
    <glyph glyph-name="Ubreve" unicode="&#x16c;" horiz-adv-x="666" 
d="M168 920h20q0 -38 41.5 -69t103.5 -31t103.5 31t41.5 69h20q0 -48 -47.5 -84t-117.5 -36t-117.5 36t-47.5 84zM563 730h20v-460q0 -136 -64.5 -208t-185.5 -72t-185.5 72t-64.5 208v460h20v-460q0 -127 58.5 -193.5t171.5 -66.5t171.5 66.5t58.5 193.5v460z" />
    <glyph glyph-name="ubreve" unicode="&#x16d;" horiz-adv-x="541" 
d="M108 720h20q0 -38 41.5 -69t103.5 -31t103.5 31t41.5 69h20q0 -48 -47.5 -84t-117.5 -36t-117.5 36t-47.5 84zM438 128h-2q-26 -62 -76 -100t-112 -38q-91 0 -130.5 46.5t-39.5 153.5v330h20v-330q0 -98 34 -139t116 -41q79 0 134.5 64.5t55.5 155.5v290h20v-520h-20v128
z" />
    <glyph glyph-name="Uring" unicode="&#x16e;" horiz-adv-x="666" 
d="M563 730h20v-460q0 -136 -64.5 -208t-185.5 -72t-185.5 72t-64.5 208v460h20v-460q0 -127 58.5 -193.5t171.5 -66.5t171.5 66.5t58.5 193.5v460zM443 880q0 -46 -32 -78t-78 -32t-78 32t-32 78t32 78t78 32t78 -32t32 -78zM423 880q0 38 -26.5 64t-63.5 26t-63.5 -26
t-26.5 -64t26.5 -64t63.5 -26t63.5 26t26.5 64z" />
    <glyph glyph-name="uring" unicode="&#x16f;" horiz-adv-x="541" 
d="M438 128h-2q-26 -62 -76 -100t-112 -38q-91 0 -130.5 46.5t-39.5 153.5v330h20v-330q0 -98 34 -139t116 -41q79 0 134.5 64.5t55.5 155.5v290h20v-520h-20v128zM383 670q0 -46 -32 -78t-78 -32t-78 32t-32 78t32 78t78 32t78 -32t32 -78zM363 670q0 38 -26.5 64t-63.5 26
t-63.5 -26t-26.5 -64t26.5 -64t63.5 -26t63.5 26t26.5 64z" />
    <glyph glyph-name="Uhungarumlaut" unicode="&#x170;" horiz-adv-x="666" 
d="M412 790h-25l120 160h25zM257 790h-25l120 160h25zM563 730h20v-460q0 -136 -64.5 -208t-185.5 -72t-185.5 72t-64.5 208v460h20v-460q0 -127 58.5 -193.5t171.5 -66.5t171.5 66.5t58.5 193.5v460z" />
    <glyph glyph-name="uhungarumlaut" unicode="&#x171;" horiz-adv-x="544" 
d="M352 590h-25l120 160h25zM197 590h-25l120 160h25zM438 128h-2q-26 -62 -76 -100t-112 -38q-91 0 -130.5 46.5t-39.5 153.5v330h20v-330q0 -98 34 -139t116 -41q79 0 134.5 64.5t55.5 155.5v290h20v-520h-20v128z" />
    <glyph glyph-name="Uogonek" unicode="&#x172;" horiz-adv-x="666" 
d="M563 730h20v-460q0 -119 -50 -189.5t-145 -86.5q-100 -59 -100 -129q0 -65 108 -65q52 0 93 19l8 -18q-45 -21 -101 -21q-74 0 -101 26t-27 59q0 67 78 125h-13q-121 0 -185.5 72t-64.5 208v460h20v-460q0 -127 58.5 -193.5t171.5 -66.5t171.5 66.5t58.5 193.5v460z" />
    <glyph glyph-name="uogonek" unicode="&#x173;" horiz-adv-x="550" 
d="M436 128q-26 -62 -76 -100t-112 -38q-91 0 -130.5 46.5t-39.5 153.5v330h20v-330q0 -98 34 -139t116 -41q79 0 134.5 64.5t55.5 155.5v290h20v-520q-53 -29 -81.5 -65t-28.5 -70q0 -65 108 -65q52 0 93 19l8 -18q-45 -21 -101 -21q-74 0 -101 26t-27 59q0 39 29 77.5
t81 69.5v116h-2z" />
    <glyph glyph-name="Wcircumflex" unicode="&#x174;" horiz-adv-x="936" 
d="M633 790h-27l-137 146h-2l-137 -146h-27l150 160h30zM469 713h-2l-193 -713h-32l-189 730h21l183 -713h2l193 713h32l193 -713h2l183 713h21l-189 -730h-32z" />
    <glyph glyph-name="wcircumflex" unicode="&#x175;" horiz-adv-x="806" 
d="M568 590h-27l-137 146h-2l-137 -146h-27l150 160h30zM404 501h-2l-154 -501h-30l-165 520h21l158 -501h2l154 501h30l154 -501h2l158 501h21l-165 -520h-30z" />
    <glyph glyph-name="Ycircumflex" unicode="&#x176;" horiz-adv-x="646" 
d="M488 790h-27l-137 146h-2l-137 -146h-27l150 160h30zM322 348h2l260 382h24l-275 -403v-327h-20v327l-275 403h24z" />
    <glyph glyph-name="ycircumflex" unicode="&#x177;" horiz-adv-x="571" 
d="M448 590h-27l-137 146h-2l-137 -146h-27l150 160h30zM297 26h2l202 494h22l-214 -519q-53 -129 -111.5 -180t-144.5 -51v20q79 0 132 46t102 164l-224 520h22z" />
    <glyph glyph-name="Ydieresis" unicode="&#x178;" horiz-adv-x="646" 
d="M413 810v120h20v-120h-20zM213 810v120h20v-120h-20zM322 348h2l260 382h24l-275 -403v-327h-20v327l-275 403h24z" />
    <glyph glyph-name="Zacute" unicode="&#x179;" horiz-adv-x="626" 
d="M285 790h-25l120 160h25zM518 708v2h-435v20h460v-20l-435 -688v-2h435v-20h-460v20z" />
    <glyph glyph-name="zacute" unicode="&#x17a;" horiz-adv-x="536" 
d="M240 590h-25l120 160h25zM427 498v2h-344v20h370v-20l-344 -478v-2h344v-20h-370v20z" />
    <glyph glyph-name="Zdotaccent" unicode="&#x17b;" horiz-adv-x="626" 
d="M303 810v120h20v-120h-20zM518 708v2h-435v20h460v-20l-435 -688v-2h435v-20h-460v20z" />
    <glyph glyph-name="zdotaccent" unicode="&#x17c;" horiz-adv-x="536" 
d="M258 610v120h20v-120h-20zM427 498v2h-344v20h370v-20l-344 -478v-2h344v-20h-370v20z" />
    <glyph glyph-name="Zcaron" unicode="&#x17d;" horiz-adv-x="626" 
d="M148 950h27l137 -146h2l137 146h27l-150 -160h-30zM518 708v2h-435v20h460v-20l-435 -688v-2h435v-20h-460v20z" />
    <glyph glyph-name="zcaron" unicode="&#x17e;" horiz-adv-x="536" 
d="M103 750h27l137 -146h2l137 146h27l-150 -160h-30zM427 498v2h-344v20h370v-20l-344 -478v-2h344v-20h-370v20z" />
    <glyph glyph-name="longs" unicode="&#x17f;" horiz-adv-x="421" 
d="M128 0v590q0 78 33.5 114t106.5 36q44 0 80 -15l-7 -19q-34 14 -73 14q-64 0 -92 -30.5t-28 -99.5v-590h-20z" />
    <glyph glyph-name="uni0180" unicode="&#x180;" horiz-adv-x="641" 
d="M43 610v20h125v120h20v-120h215v-20h-215v-204h2q48 124 188 124q97 0 153.5 -72.5t56.5 -197.5q0 -127 -56 -198.5t-154 -71.5q-140 0 -188 124h-2v-114h-20v610h-125zM568 260q0 115 -51 182.5t-139 67.5q-91 0 -140.5 -59t-49.5 -166v-50q0 -107 49.5 -166t140.5 -59
q89 0 139.5 66t50.5 184z" />
    <glyph glyph-name="uni0181" unicode="&#x181;" horiz-adv-x="591" 
d="M98 710q-80 -2 -120 -34t-40 -86q0 -41 30 -80h-25q-25 38 -25 80q0 16 3 31t15 36t31 36t55.5 26t85.5 11h120q270 0 270 -165q0 -126 -149 -162v-2q189 -31 189 -186q0 -215 -300 -215h-140v710zM118 710v-300h120q116 0 178 40t62 115q0 22 -4 39.5t-19.5 38
t-41.5 34.5t-73.5 23.5t-111.5 9.5h-110zM118 390v-370h120q143 0 211.5 47.5t68.5 147.5q0 175 -280 175h-120z" />
    <glyph glyph-name="uni0182" unicode="&#x182;" horiz-adv-x="596" 
d="M118 430h120q300 0 300 -205q0 -225 -300 -225h-140v730h390v-20h-370v-280zM118 410v-390h120q145 0 212.5 50.5t67.5 154.5q0 185 -280 185h-120z" />
    <glyph glyph-name="uni0183" unicode="&#x183;" horiz-adv-x="566" 
d="M108 730v-324h2q48 124 188 124q97 0 153.5 -72.5t56.5 -197.5q0 -127 -56 -198.5t-154 -71.5q-140 0 -188 124h-2v-114h-20v750h390v-20h-370zM488 260q0 115 -51 182.5t-139 67.5q-91 0 -140.5 -59t-49.5 -166v-50q0 -107 49.5 -166t140.5 -59q89 0 139.5 66t50.5 184z
" />
    <glyph glyph-name="uni0184" unicode="&#x184;" horiz-adv-x="781" 
d="M283 0v710h-230v20h250v-300h120q300 0 300 -205q0 -225 -300 -225h-140zM303 410v-390h120q145 0 212.5 50.5t67.5 154.5q0 185 -280 185h-120z" />
    <glyph glyph-name="uni0185" unicode="&#x185;" horiz-adv-x="636" 
d="M208 0v500h-160v20h180v-175h105q250 0 250 -165q0 -90 -60 -135t-190 -45h-125zM228 325v-305h105q73 0 121.5 14t70.5 39t30 50t8 57q0 28 -7.5 49.5t-29.5 45.5t-71 37t-122 13h-105z" />
    <glyph glyph-name="uni0186" unicode="&#x186;" horiz-adv-x="691" 
d="M84 71q90 -61 209 -61q150 0 240 96.5t90 258.5q0 164 -88.5 259.5t-241.5 95.5q-121 0 -209 -61l-11 16q94 65 220 65q162 0 256 -101t94 -274q0 -171 -95 -273t-255 -102q-126 0 -220 65z" />
    <glyph glyph-name="uni0187" unicode="&#x187;" horiz-adv-x="691" 
d="M733 950q44 0 80 -15l-7 -19q-34 14 -73 14q-64 0 -92 -30.5t-28 -99.5v-141q-41 28 -99 44.5t-116 16.5q-153 0 -241.5 -95.5t-88.5 -259.5q0 -162 90 -258.5t240 -96.5q119 0 209 61l11 -16q-94 -65 -220 -65q-160 0 -255 102t-95 273q0 173 94 274t256 101
q104 0 195 -47v107q0 78 33.5 114t106.5 36z" />
    <glyph glyph-name="uni0188" unicode="&#x188;" horiz-adv-x="511" 
d="M553 740q44 0 80 -15l-7 -19q-34 14 -73 14q-64 0 -92 -30.5t-28 -99.5v-113q-65 33 -135 33q-108 0 -169 -66t-61 -184q0 -112 63 -181t167 -69q68 0 131 33l9 -18q-66 -35 -140 -35q-112 0 -181 74.5t-69 195.5q0 125 67 197.5t183 72.5q63 0 115 -21v81q0 78 33.5 114
t106.5 36z" />
    <glyph glyph-name="uni0189" unicode="&#x189;" horiz-adv-x="761" 
d="M48 375v20h125v335h150q187 0 283.5 -90.5t96.5 -264.5q0 -181 -98 -278t-282 -97h-150v375h-125zM683 375q0 335 -360 335h-130v-315h215v-20h-215v-355h130q177 0 268.5 90.5t91.5 264.5z" />
    <glyph glyph-name="uni018A" unicode="&#x18a;" horiz-adv-x="681" 
d="M628 375q0 -181 -98 -278t-282 -97h-150v710q-80 -2 -120 -34t-40 -86q0 -41 30 -80h-25q-25 38 -25 80q0 16 3 31t15 36t31 36t55.5 26t85.5 11h140q187 0 283.5 -90.5t96.5 -264.5zM118 710v-690h130q177 0 268.5 90.5t91.5 264.5q0 335 -360 335h-130z" />
    <glyph glyph-name="uni018B" unicode="&#x18b;" horiz-adv-x="596" 
d="M478 710h-370v20h390v-730h-140q-300 0 -300 225q0 205 300 205h120v280zM478 410h-120q-280 0 -280 -185q0 -104 67.5 -154.5t212.5 -50.5h120v390z" />
    <glyph glyph-name="uni018C" unicode="&#x18c;" horiz-adv-x="566" 
d="M458 406v324h-370v20h390v-750h-20v114h-2q-48 -124 -188 -124q-98 0 -154 71.5t-56 198.5q0 125 56.5 197.5t153.5 72.5q140 0 188 -124h2zM78 260q0 -118 50.5 -184t139.5 -66q91 0 140.5 59t49.5 166v50q0 107 -49.5 166t-140.5 59q-88 0 -139 -67.5t-51 -182.5z" />
    <glyph glyph-name="uni018D" unicode="&#x18d;" horiz-adv-x="566" 
d="M296 9q94 4 148 71.5t54 179.5q0 116 -57.5 183t-157.5 67t-157.5 -67t-57.5 -183q0 -235 216 -250q2 0 6 -0.5t6 -0.5zM353 0q105 -26 105 -110q0 -49 -46.5 -79.5t-128.5 -30.5q-87 0 -170 40l9 18q80 -38 161 -38q74 0 114.5 25.5t40.5 64.5q0 89 -155 100
q-115 8 -175 76.5t-60 193.5t63 197.5t172 72.5t172 -72.5t63 -197.5q0 -103 -43.5 -171t-121.5 -89z" />
    <glyph glyph-name="uni018E" unicode="&#x18e;" horiz-adv-x="576" 
d="M463 390h-360v20h360v300h-380v20h400v-730h-400v20h380v370z" />
    <glyph glyph-name="uni018F" unicode="&#x18f;" horiz-adv-x="741" 
d="M673 370q-2 162 -90.5 256t-239.5 94q-131 0 -240 -64l-10 18q112 66 250 66q162 0 256 -101t94 -274q0 -176 -89 -275.5t-246 -99.5q-145 0 -225 97t-80 273v10h620zM673 350h-600q2 -164 75.5 -252t209.5 -88q147 0 229 89t86 251z" />
    <glyph glyph-name="uni0190" unicode="&#x190;" horiz-adv-x="546" 
d="M467 663q-92 57 -189 57q-89 0 -139.5 -37t-50.5 -103q0 -80 70.5 -125t194.5 -45h40v-20h-40q-280 0 -280 -180q0 -200 230 -200q102 0 188 61l12 -16q-91 -65 -200 -65q-123 0 -186.5 56t-63.5 164q0 157 189 190v2q-83 19 -128.5 65t-45.5 113q0 74 56.5 117t153.5 43
q58 0 103 -13.5t97 -46.5z" />
    <glyph glyph-name="uni0191" unicode="&#x191;" horiz-adv-x="561" 
d="M113 -80q0 -78 -33.5 -114t-106.5 -36q-44 0 -80 15l7 19q34 -14 73 -14q64 0 92 30.5t28 99.5v810h390v-20h-370v-310h350v-20h-350v-460z" />
    <glyph glyph-name="florin" unicode="&#x192;" horiz-adv-x="511" 
d="M213 -80v560h-150v20h150v90q0 78 33.5 114t106.5 36q44 0 80 -15l-7 -19q-34 14 -73 14q-64 0 -92 -30.5t-28 -99.5v-90h200v-20h-200v-560q0 -78 -33.5 -114t-106.5 -36q-44 0 -80 15l7 19q34 -14 73 -14q64 0 92 30.5t28 99.5z" />
    <glyph glyph-name="uni0193" unicode="&#x193;" horiz-adv-x="741" 
d="M753 950q44 0 80 -15l-7 -19q-34 14 -73 14q-64 0 -92 -30.5t-28 -99.5v-137q-96 57 -225 57q-157 0 -248.5 -95.5t-91.5 -259.5t91.5 -259.5t248.5 -95.5q127 0 230 47v333h-300v20h320v-366q-111 -54 -250 -54q-164 0 -262 102t-98 273t98 273t262 102q112 0 205 -44
v104q0 78 33.5 114t106.5 36z" />
    <glyph glyph-name="uni0194" unicode="&#x194;" horiz-adv-x="676" 
d="M428 -125q0 29 -14.5 68t-74.5 166h-2q-60 -127 -74.5 -166t-14.5 -68q0 -40 24 -62.5t66 -22.5t66 22.5t24 62.5zM338 -230q-51 0 -80.5 28t-29.5 77q0 33 16 75.5t83 182.5l-284 597h22l272 -574h2l272 574h22l-284 -597q67 -140 83 -182.5t16 -75.5q0 -49 -29.5 -77
t-80.5 -28z" />
    <glyph glyph-name="uni0195" unicode="&#x195;" horiz-adv-x="931" 
d="M478 310v-120q0 -93 43.5 -136.5t136.5 -43.5q190 0 190 260q0 119 -64 261l18 8q66 -147 66 -269q0 -67 -13 -117.5t-33 -81t-48.5 -49.5t-56.5 -25.5t-59 -6.5q-102 0 -151 49t-49 151v120q0 108 -37 154t-123 46q-79 0 -134.5 -64.5t-55.5 -155.5v-290h-20v750h20
v-358h2q26 62 76 100t112 38q94 0 137 -52t43 -168z" />
    <glyph glyph-name="uni0196" unicode="&#x196;" horiz-adv-x="436" 
d="M153 140q0 -69 28 -99.5t92 -30.5q39 0 73 14l7 -19q-36 -15 -80 -15q-73 0 -106.5 36t-33.5 114v590h20v-590z" />
    <glyph glyph-name="uni0197" unicode="&#x197;" horiz-adv-x="546" 
d="M63 280v20h200v430h20v-430h200v-20h-200v-280h-20v280h-200z" />
    <glyph glyph-name="uni0198" unicode="&#x198;" horiz-adv-x="686" 
d="M115 394l208 175q156 132 190 156.5t60 24.5q11 0 22 -3.5t24 -12.5t21 -30.5t8 -53.5q0 -74 -30 -120h-24q34 46 34 120q0 80 -55 80q-21 0 -54.5 -24.5t-182.5 -150.5l-208 -175l425 -380h-30l-408 367h-2v-367h-20v730h20v-336h2z" />
    <glyph glyph-name="uni0199" unicode="&#x199;" horiz-adv-x="531" 
d="M108 610v-326h2l328 236h35l-350 -250l355 -270h-33l-335 256h-2v-256h-20v610q0 78 33.5 114t106.5 36q44 0 80 -15l-7 -19q-34 14 -73 14q-64 0 -92 -30.5t-28 -99.5z" />
    <glyph glyph-name="uni019A" unicode="&#x19a;" horiz-adv-x="546" 
d="M63 280v20h200v450h20v-450h200v-20h-200v-280h-20v280h-200z" />
    <glyph glyph-name="uni019B" unicode="&#x19b;" horiz-adv-x="576" 
d="M314 509l214 -509h-22l-202 482h-2l-212 -482h-22l224 510q-23 57 -48 97l-157 -71l-8 18l154 70q-37 54 -79 75t-96 21v20q61 0 107.5 -25t85.5 -83l158 72l8 -18l-155 -71q26 -42 52 -106z" />
    <glyph glyph-name="uni019C" unicode="&#x19c;" horiz-adv-x="901" 
d="M786 121q-25 -62 -72 -96.5t-101 -34.5q-138 0 -166 122h-2q-20 -56 -68.5 -89t-113.5 -33q-89 0 -132 49t-43 151v540h20v-540q0 -93 37.5 -136.5t117.5 -43.5q77 0 126 49.5t49 130.5v540h20v-540q0 -93 37.5 -136.5t117.5 -43.5q67 0 121 61.5t54 158.5v500h20v-730
h-20v121h-2z" />
    <glyph glyph-name="uni019D" unicode="&#x19d;" horiz-adv-x="696" 
d="M113 709v-789q0 -78 -33.5 -114t-106.5 -36q-44 0 -80 15l7 19q34 -14 73 -14q64 0 92 30.5t28 99.5v810h32l456 -709h2v709h20v-730h-32l-456 709h-2z" />
    <glyph glyph-name="uni019E" unicode="&#x19e;" horiz-adv-x="551" 
d="M103 392h2q26 62 76 100t112 38q94 0 137 -52t43 -168v-530h-20v530q0 108 -37 154t-123 46q-79 0 -134.5 -64.5t-55.5 -155.5v-290h-20v520h20v-128z" />
    <glyph glyph-name="uni019F" unicode="&#x19f;" horiz-adv-x="796" 
d="M48 365q0 168 96.5 271.5t253.5 103.5t253.5 -103.5t96.5 -271.5t-96.5 -271.5t-253.5 -103.5t-253.5 103.5t-96.5 271.5zM68 355q3 -155 93.5 -250t236.5 -95t236.5 95t93.5 250h-660zM68 375h660q-3 155 -93.5 250t-236.5 95t-236.5 -95t-93.5 -250z" />
    <glyph glyph-name="Ohorn" unicode="&#x1a0;" horiz-adv-x="856" 
d="M828 770q15 -40 15 -92q0 -74 -26 -101t-59 -27q-28 0 -56 15q46 -86 46 -200q0 -168 -96.5 -271.5t-253.5 -103.5t-253.5 103.5t-96.5 271.5t96.5 271.5t253.5 103.5q172 0 271 -124q43 -46 89 -46q65 0 65 108q0 52 -17 92h22zM398 10q148 0 239 98t91 257t-91 257
t-239 98t-239 -98t-91 -257t91 -257t239 -98z" />
    <glyph glyph-name="ohorn" unicode="&#x1a1;" horiz-adv-x="676" 
d="M648 560q15 -40 15 -92q0 -74 -26 -101t-59 -27q-39 0 -75 27q15 -48 15 -107q0 -125 -63 -197.5t-172 -72.5t-172 72.5t-63 197.5t63 197.5t172 72.5q145 0 204 -122q45 -48 91 -48q65 0 65 108q0 52 -17 92h22zM283 10q100 0 157.5 67t57.5 183t-57.5 183t-157.5 67
t-157.5 -67t-57.5 -183t57.5 -183t157.5 -67z" />
    <glyph glyph-name="uni01A2" unicode="&#x1a2;" horiz-adv-x="866" 
d="M753 730h20v-730h-20v710l-205 -19v-671q-66 -30 -150 -30q-157 0 -253.5 103.5t-96.5 271.5t96.5 271.5t253.5 103.5q80 0 147 -29zM528 34v662q-62 24 -130 24q-148 0 -239 -98t-91 -257t91 -257t239 -98q68 0 130 24z" />
    <glyph glyph-name="uni01A3" unicode="&#x1a3;" horiz-adv-x="671" 
d="M568 520h20v-740h-20v720l-175 -14v-472q-48 -24 -110 -24q-109 0 -172 72.5t-63 197.5t63 197.5t172 72.5q63 0 109 -24zM68 260q0 -116 57.5 -183t157.5 -67q51 0 90 18v464q-39 18 -90 18q-100 0 -157.5 -67t-57.5 -183z" />
    <glyph glyph-name="uni01A4" unicode="&#x1a4;" horiz-adv-x="586" 
d="M98 710q-80 -2 -120 -34t-40 -86q0 -41 30 -80h-25q-25 38 -25 80q0 16 3 31t15 36t31 36t55.5 26t85.5 11h140q155 0 222.5 -45.5t67.5 -149.5q0 -110 -68.5 -162.5t-211.5 -52.5h-140v-320h-20v710zM118 710v-370h140q135 0 197.5 47t62.5 148q0 57 -20 93t-81 59
t-169 23h-130z" />
    <glyph glyph-name="uni01A5" unicode="&#x1a5;" horiz-adv-x="558" 
d="M85 -220v810q0 78 33.5 114t106.5 36q44 0 80 -15l-7 -19q-34 14 -73 14q-64 0 -92 -30.5t-28 -99.5v-184h2q48 124 188 124q97 0 153.5 -72.5t56.5 -197.5t-56.5 -197.5t-153.5 -72.5q-140 0 -188 124h-2v-334h-20zM485 260q0 115 -51 182.5t-139 67.5q-91 0 -140.5 -59
t-49.5 -166v-50q0 -107 49.5 -166t140.5 -59q89 0 139.5 66t50.5 184z" />
    <glyph glyph-name="uni01A6" unicode="&#x1a6;" horiz-adv-x="606" 
d="M118 630h120q43 0 78.5 -3t76.5 -13t69 -27t47 -48t19 -74q0 -87 -44 -136t-138 -65v-2q31 -12 52.5 -43.5t55.5 -108.5l94 -210h-22l-90 202q-22 49 -35 73t-26.5 43.5t-33.5 25.5t-40.5 8.5t-62.5 2.5h-120v-255h-20v730h20v-100zM118 610v-335h120q143 0 206.5 45.5
t63.5 144.5q0 72 -63.5 108.5t-206.5 36.5h-120z" />
    <glyph glyph-name="uni01A7" unicode="&#x1a7;" horiz-adv-x="556" 
d="M278 720q-106 0 -190 -47l-10 17q91 50 200 50q95 0 147.5 -43.5t52.5 -116.5q0 -139 -197 -200q-103 -32 -148 -78.5t-45 -121.5q0 -83 48.5 -126.5t141.5 -43.5q116 0 198 66l12 -16q-86 -70 -210 -70q-101 0 -155.5 49t-54.5 141q0 82 49 134t158 86q183 57 183 180
q0 66 -47.5 103t-132.5 37z" />
    <glyph glyph-name="uni01A8" unicode="&#x1a8;" horiz-adv-x="486" 
d="M78 490q83 40 170 40q80 0 127.5 -35.5t47.5 -94.5q0 -57 -40.5 -89.5t-132.5 -50.5q-89 -17 -128 -47.5t-39 -82.5q0 -56 44.5 -88t120.5 -32q88 0 165 47l10 -17q-83 -50 -175 -50q-85 0 -135 37.5t-50 102.5q0 60 43.5 95.5t139.5 54.5q91 18 124 46.5t33 73.5
q0 50 -42 80t-113 30q-81 0 -161 -38z" />
    <glyph glyph-name="uni01A9" unicode="&#x1a9;" horiz-adv-x="556" 
d="M103 710l239 -324l-240 -366h376v-20h-400v20l240 365l-240 325v20h400v-20h-375z" />
    <glyph glyph-name="uni01AA" unicode="&#x1aa;" horiz-adv-x="511" 
d="M248 -80q0 -69 28 -99.5t92 -30.5q39 0 73 14l7 -19q-36 -15 -80 -15q-73 0 -106.5 36t-33.5 114v625h-70q-145 0 -145 105q0 41 28 65.5t77 24.5q65 0 97.5 -36t32.5 -114v-25h185v-20h-185v-625zM228 565v25q0 68 -26 99t-84 31q-40 0 -62.5 -18.5t-22.5 -51.5
q0 -85 125 -85h70z" />
    <glyph glyph-name="uni01AB" unicode="&#x1ab;" horiz-adv-x="501" 
d="M418 480h-215v-340q0 -80 24.5 -105t90.5 -25q46 0 90 14v-14v-7v-83q0 -78 -33.5 -114t-106.5 -36q-44 0 -80 15l7 19q34 -14 73 -14q64 0 92 30.5t28 99.5v78q-37 -8 -70 -8q-77 0 -106 32t-29 118v340h-125v20h125v190h20v-190h215v-20z" />
    <glyph glyph-name="uni01AC" unicode="&#x1ac;" horiz-adv-x="666" 
d="M248 730h350v-20h-250v-710h-20v710h-80q-84 0 -127 -32t-43 -88q0 -41 30 -80h-25q-25 38 -25 80q0 16 3 31t15 36t31 36t55.5 26t85.5 11z" />
    <glyph glyph-name="uni01AD" unicode="&#x1ad;" horiz-adv-x="511" 
d="M233 140q0 -69 28 -99.5t92 -30.5q39 0 73 14l7 -19q-36 -15 -80 -15q-73 0 -106.5 36t-33.5 114v340h-150v20h150v90q0 78 33.5 114t106.5 36q44 0 80 -15l-7 -19q-34 14 -73 14q-64 0 -92 -30.5t-28 -99.5v-90h200v-20h-200v-340z" />
    <glyph glyph-name="uni01AE" unicode="&#x1ae;" horiz-adv-x="656" 
d="M318 710h-250v20h520v-20h-250v-790q0 -69 28 -99.5t92 -30.5q39 0 73 14l7 -19q-36 -15 -80 -15q-73 0 -106.5 36t-33.5 114v790z" />
    <glyph glyph-name="Uhorn" unicode="&#x1af;" horiz-adv-x="771" 
d="M743 770q15 -40 15 -92q0 -74 -26 -101t-59 -27q-45 0 -90 39v-319q0 -136 -64.5 -208t-185.5 -72t-185.5 72t-64.5 208v460h20v-460q0 -127 58.5 -193.5t171.5 -66.5t171.5 66.5t58.5 193.5v460h20v-113q45 -47 90 -47q65 0 65 108q0 52 -17 92h22z" />
    <glyph glyph-name="uhorn" unicode="&#x1b0;" horiz-adv-x="646" 
d="M438 128h-2q-26 -62 -76 -100t-112 -38q-91 0 -130.5 46.5t-39.5 153.5v330h20v-330q0 -98 34 -139t116 -41q79 0 134.5 64.5t55.5 155.5v290h20v-113q45 -47 90 -47q65 0 65 108q0 52 -17 92h22q15 -40 15 -92q0 -74 -26 -101t-59 -27q-45 0 -90 39v-379h-20v128z" />
    <glyph glyph-name="uni01B1" unicode="&#x1b1;" horiz-adv-x="856" 
d="M428 -10q-155 0 -252.5 102t-97.5 263q0 124 58.5 217.5t159.5 135.5v2h-233v20h300v-20q-121 -25 -193 -122t-72 -233q0 -152 92 -248.5t238 -96.5t238 96.5t92 248.5q0 136 -72 233t-193 122v20h300v-20h-233v-2q101 -42 159.5 -135.5t58.5 -217.5q0 -161 -97.5 -263
t-252.5 -102z" />
    <glyph glyph-name="uni01B2" unicode="&#x1b2;" horiz-adv-x="676" 
d="M333 -10q-121 0 -185.5 72t-64.5 208v460h20v-460q0 -127 58.5 -193.5t171.5 -66.5q62 0 109.5 22.5t75.5 58.5t45.5 86.5t23.5 99t6 103.5q0 88 -19.5 169t-68.5 193l18 8q50 -115 70 -198t20 -172q0 -197 -74 -293.5t-206 -96.5z" />
    <glyph glyph-name="uni01B3" unicode="&#x1b3;" horiz-adv-x="731" 
d="M324 348l128 189q96 142 128.5 177.5t62.5 35.5q11 0 22 -3.5t24 -12.5t21 -30.5t8 -53.5q0 -74 -30 -120h-24q34 46 34 120q0 80 -55 80q-21 0 -52 -35t-123 -170l-135 -198v-327h-20v327l-275 403h24l260 -382h2z" />
    <glyph glyph-name="uni01B4" unicode="&#x1b4;" horiz-adv-x="681" 
d="M583 540q80 0 80 -100q0 -74 -30 -120h-24q34 46 34 120q0 80 -60 80q-33 0 -68.5 -54t-106.5 -226l-99 -239q-54 -131 -112 -181t-144 -50v20q75 0 128.5 43t105.5 167l-224 520h22l212 -494h2l91 222q74 179 112.5 235.5t80.5 56.5z" />
    <glyph glyph-name="uni01B5" unicode="&#x1b5;" horiz-adv-x="636" 
d="M108 380v20h220l195 308v2h-435v20h460v-20l-196 -310h176v-20h-189l-226 -358v-2h435v-20h-460v20l228 360h-208z" />
    <glyph glyph-name="uni01B6" unicode="&#x1b6;" horiz-adv-x="546" 
d="M93 265v20h186l153 213v2h-344v20h370v-20l-155 -215h150v-20h-164l-175 -243v-2h344v-20h-370v20l176 245h-171z" />
    <glyph glyph-name="uni01B7" unicode="&#x1b7;" horiz-adv-x="551" 
d="M468 220q0 180 -227 180h-80v20l288 288v2h-386v20h415v-20l-289 -288v-2h52q247 0 247 -200q0 -230 -250 -230q-101 0 -180 55l11 16q73 -51 169 -51q230 0 230 210z" />
    <glyph glyph-name="uni01B8" unicode="&#x1b8;" horiz-adv-x="551" 
d="M83 220q0 -210 230 -210q96 0 169 51l11 -16q-79 -55 -180 -55q-250 0 -250 230q0 200 247 200h52v2l-289 288v20h415v-20h-386v-2l288 -288v-20h-80q-227 0 -227 -180z" />
    <glyph glyph-name="uni01B9" unicode="&#x1b9;" horiz-adv-x="566" 
d="M122 498l266 -294v-24h-75q-210 0 -210 -180q0 -210 210 -210q90 0 158 51l12 -16q-75 -55 -170 -55q-230 0 -230 230q0 200 230 200h50v2l-270 298v20h385v-20h-356v-2z" />
    <glyph glyph-name="uni01BA" unicode="&#x1ba;" horiz-adv-x="581" 
d="M298 220h-121v20l289 258v2h-383v20h415v-20l-289 -258v-2h89q205 0 205 -110q0 -48 -47 -78.5t-157 -46.5t-155.5 -44t-45.5 -71q0 -31 19.5 -52t52.5 -31t63 -13.5t63 -3.5q104 0 199 43l8 -18q-99 -45 -207 -45t-163 31.5t-55 88.5q0 54 52.5 86.5t165.5 48.5
q77 11 121 30.5t55 36t11 38.5q0 90 -185 90z" />
    <glyph glyph-name="uni01BB" unicode="&#x1bb;" horiz-adv-x="616" 
d="M98 310v20h311q90 115 90 210q0 86 -49 133t-137 47q-51 0 -110.5 -21t-102.5 -55l-12 16q46 36 108 58t117 22q97 0 151.5 -53t54.5 -147q0 -96 -86 -210h95v-20h-111q-89 -110 -289 -288v-2h400v-20h-430v20q206 182 295 290h-295z" />
    <glyph glyph-name="uni01BC" unicode="&#x1bc;" horiz-adv-x="566" 
d="M498 710h-350v-280h125q235 0 235 -200q0 -116 -63 -178t-182 -62q-103 0 -185 55l11 17q77 -52 174 -52q110 0 167.5 56t57.5 164q0 180 -215 180h-145v300h-70v20h440v-20z" />
    <glyph glyph-name="uni01BD" unicode="&#x1bd;" horiz-adv-x="536" 
d="M253 290h-130v210h-70v20h420v-20h-330v-190h110q230 0 230 -145q0 -83 -60 -129t-175 -46q-95 0 -175 40l9 18q74 -38 166 -38q41 0 75.5 6.5t68 22.5t52.5 48t19 78q0 24 -7 43t-27 39t-64.5 31.5t-111.5 11.5z" />
    <glyph glyph-name="uni01BE" unicode="&#x1be;" horiz-adv-x="571" 
d="M58 480v20h200v230h20v-230h200v-20h-200v-111q106 -2 165.5 -53.5t59.5 -140.5q0 -86 -62 -135.5t-168 -49.5q-108 0 -205 62l10 16q91 -58 195 -58q98 0 154 44t56 121q0 84 -58 129.5t-167 45.5v130h-200z" />
    <glyph glyph-name="uni01BF" unicode="&#x1bf;" horiz-adv-x="556" 
d="M103 -65q194 76 287 178t93 237q0 76 -38 118t-107 42q-106 0 -235 -95v-480zM103 -87v-133h-20v740h20v-80q129 90 235 90q77 0 121 -47.5t44 -132.5q0 -143 -97.5 -250t-302.5 -187z" />
    <glyph glyph-name="uni01C0" unicode="&#x1c0;" horiz-adv-x="306" 
d="M143 -220v1030h20v-1030h-20z" />
    <glyph glyph-name="uni01C1" unicode="&#x1c1;" horiz-adv-x="526" 
d="M373 -220v1030h20v-1030h-20zM133 -220v1030h20v-1030h-20z" />
    <glyph glyph-name="uni01C2" unicode="&#x1c2;" horiz-adv-x="676" 
d="M98 170v20h230v200h-230v20h230v400h20v-400h230v-20h-230v-200h230v-20h-230v-390h-20v390h-230z" />
    <glyph glyph-name="uni01C3" unicode="&#x1c3;" horiz-adv-x="266" 
d="M123 0v110h20v-110h-20zM123 190v540h20v-540h-20z" />
    <glyph glyph-name="uni01C4" unicode="&#x1c4;" horiz-adv-x="1276" 
d="M793 950h27l137 -146h2l137 146h27l-150 -160h-30zM1163 708v2h-435v20h460v-20l-435 -688v-2h435v-20h-460v20zM118 710v-690h130q177 0 268.5 90.5t91.5 264.5q0 335 -360 335h-130zM628 375q0 -181 -98 -278t-282 -97h-150v730h150q187 0 283.5 -90.5t96.5 -264.5z
" />
    <glyph glyph-name="uni01C5" unicode="&#x1c5;" horiz-adv-x="1206" 
d="M768 750h27l137 -146h2l137 146h27l-150 -160h-30zM1092 498v2h-344v20h370v-20l-344 -478v-2h344v-20h-370v20zM118 710v-690h130q177 0 268.5 90.5t91.5 264.5q0 335 -360 335h-130zM628 375q0 -181 -98 -278t-282 -97h-150v730h150q187 0 283.5 -90.5t96.5 -264.5z
" />
    <glyph glyph-name="uni01C6" unicode="&#x1c6;" horiz-adv-x="1086" 
d="M653 750h27l137 -146h2l137 146h27l-150 -160h-30zM977 498v2h-344v20h370v-20l-344 -478v-2h344v-20h-370v20zM263 10q91 0 140.5 59t49.5 166v50q0 107 -49.5 166t-140.5 59q-88 0 -139 -67.5t-51 -182.5q0 -118 50.5 -184t139.5 -66zM53 260q0 125 56.5 197.5
t153.5 72.5q140 0 188 -124h2v344h20v-750h-20v114h-2q-48 -124 -188 -124q-98 0 -154 71.5t-56 198.5z" />
    <glyph glyph-name="uni01C7" unicode="&#x1c7;" horiz-adv-x="1096" 
d="M613 20l8 18q62 -28 142 -28q113 0 171.5 68.5t58.5 201.5v450h20v-450q0 -143 -65.5 -216.5t-184.5 -73.5q-83 0 -150 30zM113 730v-710h400v-20h-420v730h20z" />
    <glyph glyph-name="uni01C8" unicode="&#x1c8;" horiz-adv-x="896" 
d="M743 640v110h20v-110h-20zM553 -220v20q115 0 152.5 38.5t37.5 161.5v520h20v-520q0 -130 -43 -175t-167 -45zM113 730v-710h400v-20h-420v730h20z" />
    <glyph glyph-name="uni01C9" unicode="&#x1c9;" horiz-adv-x="601" 
d="M133 0v750h20v-750h-20zM448 640v110h20v-110h-20zM258 -220v20q115 0 152.5 38.5t37.5 161.5v520h20v-520q0 -130 -43 -175t-167 -45z" />
    <glyph glyph-name="uni01CA" unicode="&#x1ca;" horiz-adv-x="1201" 
d="M583 21v709h20v-730h-32l-456 709h-2v-709h-20v730h32l456 -709h2zM718 20l8 18q62 -28 142 -28q113 0 171.5 68.5t58.5 201.5v450h20v-450q0 -143 -65.5 -216.5t-184.5 -73.5q-83 0 -150 30z" />
    <glyph glyph-name="uni01CB" unicode="&#x1cb;" horiz-adv-x="1011" 
d="M583 21v709h20v-730h-32l-456 709h-2v-709h-20v730h32l456 -709h2zM858 640v110h20v-110h-20zM668 -220v20q115 0 152.5 38.5t37.5 161.5v520h20v-520q0 -130 -43 -175t-167 -45z" />
    <glyph glyph-name="uni01CC" unicode="&#x1cc;" horiz-adv-x="866" 
d="M103 392h2q26 62 76 100t112 38q94 0 137 -52t43 -168v-310h-20v310q0 108 -37 154t-123 46q-79 0 -134.5 -64.5t-55.5 -155.5v-290h-20v520h20v-128zM713 640v110h20v-110h-20zM523 -220v20q115 0 152.5 38.5t37.5 161.5v520h20v-520q0 -130 -43 -175t-167 -45z" />
    <glyph glyph-name="uni01CD" unicode="&#x1cd;" horiz-adv-x="676" 
d="M173 950h27l137 -146h2l137 146h27l-150 -160h-30zM339 713h-2l-169 -443h340zM516 250h-356l-96 -250h-21l280 730h30l280 -730h-21z" />
    <glyph glyph-name="uni01CE" unicode="&#x1ce;" horiz-adv-x="531" 
d="M108 750h27l137 -146h2l137 146h27l-150 -160h-30zM424 115h-2q-26 -58 -78 -91.5t-121 -33.5q-75 0 -120 41t-45 109q0 88 79.5 136.5t225.5 48.5h60v5q0 102 -34.5 141t-125.5 39q-94 0 -175 -47l-10 17q86 50 185 50t139.5 -44t40.5 -156v-190q0 -70 15 -140h-20
q-13 62 -14 115zM78 140q0 -60 39 -95t106 -35q87 0 143.5 56.5t56.5 143.5v95h-60q-136 0 -210.5 -43t-74.5 -122z" />
    <glyph glyph-name="uni01CF" unicode="&#x1cf;" horiz-adv-x="286" 
d="M-22 950h27l137 -146h2l137 146h27l-150 -160h-30zM133 0v730h20v-730h-20z" />
    <glyph glyph-name="uni01D0" unicode="&#x1d0;" horiz-adv-x="286" 
d="M-22 750h27l137 -146h2l137 146h27l-150 -160h-30zM133 0v520h20v-520h-20z" />
    <glyph glyph-name="uni01D1" unicode="&#x1d1;" horiz-adv-x="796" 
d="M233 950h27l137 -146h2l137 146h27l-150 -160h-30zM48 365q0 168 96.5 271.5t253.5 103.5t253.5 -103.5t96.5 -271.5t-96.5 -271.5t-253.5 -103.5t-253.5 103.5t-96.5 271.5zM398 10q148 0 239 98t91 257t-91 257t-239 98t-239 -98t-91 -257t91 -257t239 -98z" />
    <glyph glyph-name="uni01D2" unicode="&#x1d2;" horiz-adv-x="566" 
d="M118 750h27l137 -146h2l137 146h27l-150 -160h-30zM48 260q0 125 63 197.5t172 72.5t172 -72.5t63 -197.5t-63 -197.5t-172 -72.5t-172 72.5t-63 197.5zM283 10q100 0 157.5 67t57.5 183t-57.5 183t-157.5 67t-157.5 -67t-57.5 -183t57.5 -183t157.5 -67z" />
    <glyph glyph-name="uni01D3" unicode="&#x1d3;" horiz-adv-x="666" 
d="M168 950h27l137 -146h2l137 146h27l-150 -160h-30zM563 730h20v-460q0 -136 -64.5 -208t-185.5 -72t-185.5 72t-64.5 208v460h20v-460q0 -127 58.5 -193.5t171.5 -66.5t171.5 66.5t58.5 193.5v460z" />
    <glyph glyph-name="uni01D4" unicode="&#x1d4;" horiz-adv-x="541" 
d="M108 750h27l137 -146h2l137 146h27l-150 -160h-30zM438 128h-2q-26 -62 -76 -100t-112 -38q-91 0 -130.5 46.5t-39.5 153.5v330h20v-330q0 -98 34 -139t116 -41q79 0 134.5 64.5t55.5 155.5v290h20v-520h-20v128z" />
    <glyph glyph-name="uni01D5" unicode="&#x1d5;" horiz-adv-x="666" 
d="M423 790v100h20v-100h-20zM223 790v100h20v-100h-20zM173 985v20h320v-20h-320zM563 730h20v-460q0 -136 -64.5 -208t-185.5 -72t-185.5 72t-64.5 208v460h20v-460q0 -127 58.5 -193.5t171.5 -66.5t171.5 66.5t58.5 193.5v460z" />
    <glyph glyph-name="uni01D6" unicode="&#x1d6;" horiz-adv-x="541" 
d="M363 610v120h20v-120h-20zM163 610v120h20v-120h-20zM113 835v20h320v-20h-320zM438 128h-2q-26 -62 -76 -100t-112 -38q-91 0 -130.5 46.5t-39.5 153.5v330h20v-330q0 -98 34 -139t116 -41q79 0 134.5 64.5t55.5 155.5v290h20v-520h-20v128z" />
    <glyph glyph-name="uni01D7" unicode="&#x1d7;" horiz-adv-x="666" 
d="M423 790v100h20v-100h-20zM223 790v100h20v-100h-20zM328 945h-27l120 130h27zM563 730h20v-460q0 -136 -64.5 -208t-185.5 -72t-185.5 72t-64.5 208v460h20v-460q0 -127 58.5 -193.5t171.5 -66.5t171.5 66.5t58.5 193.5v460z" />
    <glyph glyph-name="uni01D8" unicode="&#x1d8;" horiz-adv-x="541" 
d="M363 610v120h20v-120h-20zM163 610v120h20v-120h-20zM268 790h-25l120 160h25zM438 128h-2q-26 -62 -76 -100t-112 -38q-91 0 -130.5 46.5t-39.5 153.5v330h20v-330q0 -98 34 -139t116 -41q79 0 134.5 64.5t55.5 155.5v290h20v-520h-20v128z" />
    <glyph glyph-name="uni01D9" unicode="&#x1d9;" horiz-adv-x="666" 
d="M467 1075h31l-75 -65l-75 -65h-30l-75 65l-75 65h31l67 -58l67 -59l67 59zM423 790v100h20v-100h-20zM223 790v100h20v-100h-20zM563 730h20v-460q0 -136 -64.5 -208t-185.5 -72t-185.5 72t-64.5 208v460h20v-460q0 -127 58.5 -193.5t171.5 -66.5t171.5 66.5t58.5 193.5
v460z" />
    <glyph glyph-name="uni01DA" unicode="&#x1da;" horiz-adv-x="541" 
d="M108 950h27l137 -146h2l137 146h27l-150 -160h-30zM363 610v120h20v-120h-20zM163 610v120h20v-120h-20zM438 128h-2q-26 -62 -76 -100t-112 -38q-91 0 -130.5 46.5t-39.5 153.5v330h20v-330q0 -98 34 -139t116 -41q79 0 134.5 64.5t55.5 155.5v290h20v-520h-20v128z" />
    <glyph glyph-name="uni01DB" unicode="&#x1db;" horiz-adv-x="666" 
d="M338 945l-120 130h27l120 -130h-27zM223 790v100h20v-100h-20zM423 790v100h20v-100h-20zM563 730h20v-460q0 -136 -64.5 -208t-185.5 -72t-185.5 72t-64.5 208v460h20v-460q0 -127 58.5 -193.5t171.5 -66.5t171.5 66.5t58.5 193.5v460z" />
    <glyph glyph-name="uni01DC" unicode="&#x1dc;" horiz-adv-x="541" 
d="M163 610v120h20v-120h-20zM363 610v120h20v-120h-20zM278 790l-120 160h25l120 -160h-25zM438 128h-2q-26 -62 -76 -100t-112 -38q-91 0 -130.5 46.5t-39.5 153.5v330h20v-330q0 -98 34 -139t116 -41q79 0 134.5 64.5t55.5 155.5v290h20v-520h-20v128z" />
    <glyph glyph-name="uni01DD" unicode="&#x1dd;" horiz-adv-x="541" 
d="M473 245h-399q2 -114 50.5 -174.5t138.5 -60.5q97 0 151.5 61.5t58.5 173.5zM473 265q-1 115 -59.5 180t-160.5 65q-88 0 -160 -44l-10 18q78 46 170 46q111 0 175.5 -72.5t64.5 -197.5q0 -127 -61 -198.5t-169 -71.5q-100 0 -155 69.5t-55 195.5v10h420z" />
    <glyph glyph-name="uni01DE" unicode="&#x1de;" horiz-adv-x="676" 
d="M428 790v100h20v-100h-20zM228 790v100h20v-100h-20zM178 985v20h320v-20h-320zM339 713h-2l-169 -443h340zM516 250h-356l-96 -250h-21l280 730h30l280 -730h-21z" />
    <glyph glyph-name="uni01DF" unicode="&#x1df;" horiz-adv-x="531" 
d="M363 610v120h20v-120h-20zM163 610v120h20v-120h-20zM113 835v20h320v-20h-320zM424 115h-2q-26 -58 -78 -91.5t-121 -33.5q-75 0 -120 41t-45 109q0 88 79.5 136.5t225.5 48.5h60v5q0 102 -34.5 141t-125.5 39q-94 0 -175 -47l-10 17q86 50 185 50t139.5 -44t40.5 -156
v-190q0 -70 15 -140h-20q-13 62 -14 115zM78 140q0 -60 39 -95t106 -35q87 0 143.5 56.5t56.5 143.5v95h-60q-136 0 -210.5 -43t-74.5 -122z" />
    <glyph glyph-name="uni01E0" unicode="&#x1e0;" horiz-adv-x="676" 
d="M328 800v120h20v-120h-20zM178 985v20h320v-20h-320zM339 713h-2l-169 -443h340zM516 250h-356l-96 -250h-21l280 730h30l280 -730h-21z" />
    <glyph glyph-name="uni01E1" unicode="&#x1e1;" horiz-adv-x="531" 
d="M424 115h-2q-26 -58 -78 -91.5t-121 -33.5q-75 0 -120 41t-45 109q0 88 79.5 136.5t225.5 48.5h60v5q0 102 -34.5 141t-125.5 39q-94 0 -175 -47l-10 17q86 50 185 50t139.5 -44t40.5 -156v-190q0 -70 15 -140h-20q-13 62 -14 115zM263 610v120h20v-120h-20zM113 835v20
h320v-20h-320zM78 140q0 -60 39 -95t106 -35q87 0 143.5 56.5t56.5 143.5v95h-60q-136 0 -210.5 -43t-74.5 -122z" />
    <glyph glyph-name="uni01E2" unicode="&#x1e2;" horiz-adv-x="826" 
d="M388 880v20h320v-20h-320zM743 710h-310v-300h290v-20h-290v-370h310v-20h-330v250h-253l-96 -250h-21l280 730h420v-20zM168 270h245v440h-77z" />
    <glyph glyph-name="uni01E3" unicode="&#x1e3;" horiz-adv-x="881" 
d="M283 670v20h320v-20h-320zM443 275h365q-2 115 -46.5 175t-128.5 60q-88 0 -137.5 -61.5t-52.5 -173.5zM443 255q2 -113 55.5 -179t144.5 -66q83 0 150 43l10 -16q-74 -47 -160 -47q-81 0 -136.5 48t-74.5 133q-37 -181 -209 -181q-75 0 -120 41t-45 109q0 77 82.5 131
t222.5 54h59q-4 112 -40 148.5t-119 36.5q-94 0 -175 -47l-10 17q86 50 185 50q85 0 125 -34t50 -119q22 73 72.5 113t122.5 40q94 0 144.5 -68.5t50.5 -196.5v-10h-385zM78 140q0 -60 39 -95t106 -35q102 0 151 68.5t49 211.5v15h-60q-130 0 -207.5 -49t-77.5 -116z" />
    <glyph glyph-name="uni01E4" unicode="&#x1e4;" horiz-adv-x="826" 
d="M423 280v20h215v110h20v-110h125v-20h-125v-236q-111 -54 -250 -54q-164 0 -262 102t-98 273t98 273t262 102q129 0 225 -60l-11 -17q-91 57 -214 57q-157 0 -248.5 -95.5t-91.5 -259.5t91.5 -259.5t248.5 -95.5q127 0 230 47v223h-215z" />
    <glyph glyph-name="uni01E5" unicode="&#x1e5;" horiz-adv-x="651" 
d="M508 -65q0 25 -6.5 44.5t-25.5 39t-60 30.5t-103 11q-74 0 -118 10q-49 -16 -83 -59.5t-34 -90.5q0 -59 55.5 -94.5t149.5 -35.5q104 0 164.5 39t60.5 106zM468 434v86h20v-155h115v-20h-115q-1 -76 -55 -120.5t-145 -44.5q-77 0 -129 33q-31 -26 -31 -58
q0 -16 6.5 -27.5t24.5 -23.5t57 -18t97 -6q110 0 162.5 -35.5t52.5 -109.5q0 -76 -66 -120.5t-179 -44.5q-103 0 -164 41t-61 109q0 47 30.5 91t76.5 68q-57 22 -57 76q0 38 34 70q-54 45 -54 125t53 130t137 50q137 0 188 -96h2zM258 345v20h209q-5 67 -56 106t-133 39
q-75 0 -122.5 -44.5t-47.5 -115.5t47.5 -110.5t132.5 -39.5q82 0 130.5 39t49.5 106h-210z" />
    <glyph glyph-name="Gcaron" unicode="&#x1e6;" horiz-adv-x="741" 
d="M198 950h27l137 -146h2l137 146h27l-150 -160h-30zM658 44q-111 -54 -250 -54q-164 0 -262 102t-98 273t98 273t262 102q129 0 225 -60l-11 -17q-91 57 -214 57q-157 0 -248.5 -95.5t-91.5 -259.5t91.5 -259.5t248.5 -95.5q127 0 230 47v333h-300v20h320v-366z" />
    <glyph glyph-name="gcaron" unicode="&#x1e7;" horiz-adv-x="591" 
d="M508 -65q0 25 -6.5 44.5t-25.5 39t-60 30.5t-103 11q-74 0 -118 10q-49 -16 -83 -59.5t-34 -90.5q0 -59 55.5 -94.5t149.5 -35.5q104 0 164.5 39t60.5 106zM468 434v86h20v-170q0 -79 -54 -124.5t-146 -45.5q-77 0 -129 33q-31 -26 -31 -58q0 -16 6.5 -27.5t24.5 -23.5
t57 -18t97 -6q110 0 162.5 -35.5t52.5 -109.5q0 -76 -66 -120.5t-179 -44.5q-103 0 -164 41t-61 109q0 47 30.5 91t76.5 68q-57 22 -57 76q0 38 34 70q-54 45 -54 125t53 130t137 50q137 0 188 -96h2zM138 750h27l137 -146h2l137 146h27l-150 -160h-30zM108 350
q0 -71 47.5 -110.5t132.5 -39.5q83 0 131.5 40t48.5 110q0 73 -52 116.5t-138 43.5q-75 0 -122.5 -44.5t-47.5 -115.5z" />
    <glyph glyph-name="uni01E8" unicode="&#x1e8;" horiz-adv-x="596" 
d="M292 810h2l113 140h26l-130 -160h-20l-130 160h26zM115 367h-2v-367h-20v730h20v-337h2l397 337h31l-415 -350l425 -380h-30z" />
    <glyph glyph-name="uni01E9" unicode="&#x1e9;" horiz-adv-x="531" 
d="M262 810h2l113 140h26l-130 -160h-20l-130 160h26zM108 284h2l328 236h35l-350 -250l355 -270h-33l-335 256h-2v-256h-20v750h20v-466z" />
    <glyph glyph-name="uni01EA" unicode="&#x1ea;" horiz-adv-x="796" 
d="M48 365q0 168 96.5 271.5t253.5 103.5t253.5 -103.5t96.5 -271.5t-96.5 -271.5t-253.5 -103.5q-24 0 -48 3q-42 -46 -42 -98q0 -95 145 -95q60 0 111 24l8 -18q-52 -26 -119 -26q-51 0 -86 11.5t-51 30.5t-22 36.5t-6 36.5q0 52 38 101q-127 23 -202.5 122t-75.5 247z
M398 10q148 0 239 98t91 257t-91 257t-239 98t-239 -98t-91 -257t91 -257t239 -98z" />
    <glyph glyph-name="uni01EB" unicode="&#x1eb;" horiz-adv-x="566" 
d="M48 260q0 125 63 197.5t172 72.5t172 -72.5t63 -197.5t-63 -197.5t-172 -72.5q-21 0 -39 3q-41 -47 -41 -98q0 -95 145 -95q60 0 111 24l8 -18q-52 -26 -119 -26q-51 0 -86 11.5t-51 30.5t-22 36.5t-6 36.5q0 54 39 102q-82 20 -128 88.5t-46 174.5zM283 10
q100 0 157.5 67t57.5 183t-57.5 183t-157.5 67t-157.5 -67t-57.5 -183t57.5 -183t157.5 -67z" />
    <glyph glyph-name="uni01EC" unicode="&#x1ec;" horiz-adv-x="796" 
d="M208 880v20h380v-20h-380zM48 365q0 168 96.5 271.5t253.5 103.5t253.5 -103.5t96.5 -271.5t-96.5 -271.5t-253.5 -103.5q-24 0 -48 3q-42 -46 -42 -98q0 -95 145 -95q60 0 111 24l8 -18q-52 -26 -119 -26q-51 0 -86 11.5t-51 30.5t-22 36.5t-6 36.5q0 52 38 101
q-127 23 -202.5 122t-75.5 247zM398 10q148 0 239 98t91 257t-91 257t-239 98t-239 -98t-91 -257t91 -257t239 -98z" />
    <glyph glyph-name="uni01ED" unicode="&#x1ed;" horiz-adv-x="566" 
d="M93 670v20h380v-20h-380zM48 260q0 125 63 197.5t172 72.5t172 -72.5t63 -197.5t-63 -197.5t-172 -72.5q-21 0 -39 3q-41 -47 -41 -98q0 -95 145 -95q60 0 111 24l8 -18q-52 -26 -119 -26q-51 0 -86 11.5t-51 30.5t-22 36.5t-6 36.5q0 54 39 102q-82 20 -128 88.5
t-46 174.5zM283 10q100 0 157.5 67t57.5 183t-57.5 183t-157.5 67t-157.5 -67t-57.5 -183t57.5 -183t157.5 -67z" />
    <glyph glyph-name="uni01EE" unicode="&#x1ee;" horiz-adv-x="596" 
d="M302 810h2l113 140h26l-130 -160h-20l-130 160h26zM493 220q0 180 -227 180h-80v20l288 288v2h-386v20h415v-20l-289 -288v-2h52q247 0 247 -200q0 -230 -250 -230q-101 0 -180 55l11 16q74 -51 169 -51q230 0 230 210z" />
    <glyph glyph-name="uni01EF" unicode="&#x1ef;" horiz-adv-x="566" 
d="M444 498v2h-356v20h385v-20l-270 -298v-2h50q230 0 230 -200q0 -230 -230 -230q-95 0 -170 55l12 16q68 -51 158 -51q210 0 210 210q0 180 -210 180h-75v24zM123 750h27l137 -146h2l137 146h27l-150 -160h-30z" />
    <glyph glyph-name="uni01F0" unicode="&#x1f0;" horiz-adv-x="326" 
d="M13 750h27l137 -146h2l137 146h27l-150 -160h-30zM-17 -220v20q115 0 152.5 38.5t37.5 161.5v520h20v-520q0 -130 -43 -175t-167 -45z" />
    <glyph glyph-name="uni01F1" unicode="&#x1f1;" horiz-adv-x="1276" 
d="M1163 708v2h-435v20h460v-20l-435 -688v-2h435v-20h-460v20zM118 710v-690h130q177 0 268.5 90.5t91.5 264.5q0 335 -360 335h-130zM628 375q0 -181 -98 -278t-282 -97h-150v730h150q187 0 283.5 -90.5t96.5 -264.5z" />
    <glyph glyph-name="uni01F2" unicode="&#x1f2;" horiz-adv-x="1206" 
d="M1092 498v2h-344v20h370v-20l-344 -478v-2h344v-20h-370v20zM118 710v-690h130q177 0 268.5 90.5t91.5 264.5q0 335 -360 335h-130zM628 375q0 -181 -98 -278t-282 -97h-150v730h150q187 0 283.5 -90.5t96.5 -264.5z" />
    <glyph glyph-name="uni01F3" unicode="&#x1f3;" horiz-adv-x="1086" 
d="M977 498v2h-344v20h370v-20l-344 -478v-2h344v-20h-370v20zM263 10q91 0 140.5 59t49.5 166v50q0 107 -49.5 166t-140.5 59q-88 0 -139 -67.5t-51 -182.5q0 -118 50.5 -184t139.5 -66zM53 260q0 125 56.5 197.5t153.5 72.5q140 0 188 -124h2v344h20v-750h-20v114h-2
q-48 -124 -188 -124q-98 0 -154 71.5t-56 198.5z" />
    <glyph glyph-name="uni01F4" unicode="&#x1f4;" horiz-adv-x="741" 
d="M365 790h-25l120 160h25zM658 44q-111 -54 -250 -54q-164 0 -262 102t-98 273t98 273t262 102q129 0 225 -60l-11 -17q-91 57 -214 57q-157 0 -248.5 -95.5t-91.5 -259.5t91.5 -259.5t248.5 -95.5q127 0 230 47v333h-300v20h320v-366z" />
    <glyph glyph-name="uni01F5" unicode="&#x1f5;" horiz-adv-x="591" 
d="M508 -65q0 25 -6.5 44.5t-25.5 39t-60 30.5t-103 11q-74 0 -118 10q-49 -16 -83 -59.5t-34 -90.5q0 -59 55.5 -94.5t149.5 -35.5q104 0 164.5 39t60.5 106zM468 434v86h20v-170q0 -79 -54 -124.5t-146 -45.5q-77 0 -129 33q-31 -26 -31 -58q0 -16 6.5 -27.5t24.5 -23.5
t57 -18t97 -6q110 0 162.5 -35.5t52.5 -109.5q0 -76 -66 -120.5t-179 -44.5q-103 0 -164 41t-61 109q0 47 30.5 91t76.5 68q-57 22 -57 76q0 38 34 70q-54 45 -54 125t53 130t137 50q137 0 188 -96h2zM305 590h-25l120 160h25zM108 350q0 -71 47.5 -110.5t132.5 -39.5
q83 0 131.5 40t48.5 110q0 73 -52 116.5t-138 43.5q-75 0 -122.5 -44.5t-47.5 -115.5z" />
    <glyph glyph-name="uni01F6" unicode="&#x1f6;" horiz-adv-x="1046" 
d="M593 730v-540q0 -93 43.5 -136.5t136.5 -43.5q190 0 190 260q0 119 -64 261l18 8q66 -147 66 -269q0 -67 -13 -117.5t-33 -81t-48.5 -49.5t-56.5 -25.5t-59 -6.5q-102 0 -151 49t-49 151v200h-460v-390h-20v730h20v-320h460v320h20z" />
    <glyph glyph-name="uni01F7" unicode="&#x1f7;" horiz-adv-x="556" 
d="M113 145q194 76 287 178t93 237q0 76 -38 118t-107 42q-106 0 -235 -95v-480zM113 123v-343h-20v950h20v-80q129 90 235 90q77 0 121 -47.5t44 -132.5q0 -143 -97.5 -250t-302.5 -187z" />
    <glyph glyph-name="uni01F8" unicode="&#x1f8;" horiz-adv-x="696" 
d="M405 790l-120 160h25l120 -160h-25zM583 21v709h20v-730h-32l-456 709h-2v-709h-20v730h32l456 -709h2z" />
    <glyph glyph-name="uni01F9" unicode="&#x1f9;" horiz-adv-x="551" 
d="M103 392h2q26 62 76 100t112 38q94 0 137 -52t43 -168v-310h-20v310q0 108 -37 154t-123 46q-79 0 -134.5 -64.5t-55.5 -155.5v-290h-20v520h20v-128zM315 590l-120 160h25l120 -160h-25z" />
    <glyph glyph-name="Aringacute" unicode="&#x1fa;" horiz-adv-x="676" 
d="M334 955h-28l120 120h28zM339 713h-2l-169 -443h340zM448 825q0 -40 -25.5 -70.5t-64.5 -37.5l275 -717h-21l-96 250h-356l-96 -250h-21l275 717q-39 7 -64.5 37.5t-25.5 70.5q0 46 32 78t78 32t78 -32t32 -78zM428 825q0 37 -26 63.5t-64 26.5t-64 -26.5t-26 -63.5
t26 -63.5t64 -26.5t64 26.5t26 63.5z" />
    <glyph glyph-name="aringacute" unicode="&#x1fb;" horiz-adv-x="531" 
d="M268 800h-25l120 150h26zM424 115h-2q-26 -58 -78 -91.5t-121 -33.5q-75 0 -120 41t-45 109q0 88 79.5 136.5t225.5 48.5h60v5q0 102 -34.5 141t-125.5 39q-94 0 -175 -47l-10 17q86 50 185 50t139.5 -44t40.5 -156v-190q0 -70 15 -140h-20q-13 62 -14 115zM383 665
q0 -46 -32 -78t-78 -32t-78 32t-32 78t32 78t78 32t78 -32t32 -78zM363 665q0 37 -26.5 63.5t-63.5 26.5t-63.5 -26.5t-26.5 -63.5t26.5 -63.5t63.5 -26.5t63.5 26.5t26.5 63.5zM78 140q0 -60 39 -95t106 -35q87 0 143.5 56.5t56.5 143.5v95h-60q-136 0 -210.5 -43
t-74.5 -122z" />
    <glyph glyph-name="AEacute" unicode="&#x1fc;" horiz-adv-x="826" 
d="M430 790h-25l120 160h25zM743 710h-310v-300h290v-20h-290v-370h310v-20h-330v250h-253l-96 -250h-21l280 730h420v-20zM168 270h245v440h-77z" />
    <glyph glyph-name="aeacute" unicode="&#x1fd;" horiz-adv-x="881" 
d="M445 590h-25l120 160h25zM443 275h365q-2 115 -46.5 175t-128.5 60q-88 0 -137.5 -61.5t-52.5 -173.5zM443 255q2 -113 55.5 -179t144.5 -66q83 0 150 43l10 -16q-74 -47 -160 -47q-81 0 -136.5 48t-74.5 133q-37 -181 -209 -181q-75 0 -120 41t-45 109q0 77 82.5 131
t222.5 54h59q-4 112 -40 148.5t-119 36.5q-94 0 -175 -47l-10 17q86 50 185 50q85 0 125 -34t50 -119q22 73 72.5 113t122.5 40q94 0 144.5 -68.5t50.5 -196.5v-10h-385zM78 140q0 -60 39 -95t106 -35q102 0 151 68.5t49 211.5v15h-60q-130 0 -207.5 -49t-77.5 -116z" />
    <glyph glyph-name="Oslashacute" unicode="&#x1fe;" horiz-adv-x="806" 
d="M53 365q0 168 96.5 271.5t253.5 103.5q127 0 216 -69l56 75l16 -12l-57 -76q119 -105 119 -293q0 -168 -96.5 -271.5t-253.5 -103.5q-127 0 -216 69l-56 -75l-16 12l57 76q-119 105 -119 293zM405 790h-25l120 160h25zM184 88l423 567q-84 65 -204 65q-148 0 -239 -98
t-91 -257q0 -179 111 -277zM199 75q84 -65 204 -65q148 0 239 98t91 257q0 179 -111 277z" />
    <glyph glyph-name="oslashacute" unicode="&#x1ff;" horiz-adv-x="576" 
d="M53 260q0 125 63 197.5t172 72.5q90 0 150 -51l42 57l16 -12l-43 -59q70 -73 70 -205q0 -125 -63 -197.5t-172 -72.5q-90 0 -150 51l-42 -57l-16 12l43 59q-70 73 -70 205zM290 590h-25l120 160h25zM136 72l290 391q-55 47 -138 47q-100 0 -157.5 -67t-57.5 -183
q0 -120 63 -188zM150 57q55 -47 138 -47q100 0 157.5 67t57.5 183q0 120 -63 188z" />
    <glyph glyph-name="uni0200" unicode="&#x200;" horiz-adv-x="676" 
d="M269 790l-120 160h25l120 -160h-25zM424 790l-120 160h25l120 -160h-25zM339 713h-2l-169 -443h340zM516 250h-356l-96 -250h-21l280 730h30l280 -730h-21z" />
    <glyph glyph-name="uni0201" unicode="&#x201;" horiz-adv-x="531" 
d="M204 590l-120 160h25l120 -160h-25zM359 590l-120 160h25l120 -160h-25zM424 115h-2q-26 -58 -78 -91.5t-121 -33.5q-75 0 -120 41t-45 109q0 88 79.5 136.5t225.5 48.5h60v5q0 102 -34.5 141t-125.5 39q-94 0 -175 -47l-10 17q86 50 185 50t139.5 -44t40.5 -156v-190
q0 -70 15 -140h-20q-13 62 -14 115zM78 140q0 -60 39 -95t106 -35q87 0 143.5 56.5t56.5 143.5v95h-60q-136 0 -210.5 -43t-74.5 -122z" />
    <glyph glyph-name="uni0202" unicode="&#x202;" horiz-adv-x="676" 
d="M503 810h-20q0 38 -41.5 69t-103.5 31t-103.5 -31t-41.5 -69h-20q0 48 47.5 84t117.5 36t117.5 -36t47.5 -84zM516 250h-356l-96 -250h-21l280 730h30l280 -730h-21zM508 270l-169 443h-2l-169 -443h340z" />
    <glyph glyph-name="uni0203" unicode="&#x203;" horiz-adv-x="531" 
d="M438 610h-20q0 38 -41.5 69t-103.5 31t-103.5 -31t-41.5 -69h-20q0 48 47.5 84t117.5 36q69 0 117 -36t48 -84zM424 115h-2q-26 -58 -78 -91.5t-121 -33.5q-75 0 -120 41t-45 109q0 88 79.5 136.5t225.5 48.5h60v5q0 102 -34.5 141t-125.5 39q-94 0 -175 -47l-10 17
q86 50 185 50t139.5 -44t40.5 -156v-190q0 -70 15 -140h-20q-13 62 -14 115zM78 140q0 -60 39 -95t106 -35q87 0 143.5 56.5t56.5 143.5v95h-60q-136 0 -210.5 -43t-74.5 -122z" />
    <glyph glyph-name="uni0204" unicode="&#x204;" horiz-adv-x="576" 
d="M229 790l-120 160h25l120 -160h-25zM384 790l-120 160h25l120 -160h-25zM113 390v-370h380v-20h-400v730h400v-20h-380v-300h360v-20h-360z" />
    <glyph glyph-name="uni0205" unicode="&#x205;" horiz-adv-x="541" 
d="M209 590l-120 160h25l120 -160h-25zM364 590l-120 160h25l120 -160h-25zM68 275h399q-2 114 -50.5 174.5t-138.5 60.5q-97 0 -151.5 -61.5t-58.5 -173.5zM68 255q1 -115 59.5 -180t160.5 -65q88 0 160 44l10 -18q-78 -46 -170 -46q-111 0 -175.5 72.5t-64.5 197.5
q0 127 61 198.5t169 71.5q100 0 155 -69.5t55 -195.5v-10h-420z" />
    <glyph glyph-name="uni0206" unicode="&#x206;" horiz-adv-x="576" 
d="M463 810h-20q0 38 -41.5 69t-103.5 31t-103.5 -31t-41.5 -69h-20q0 48 47.5 84t117.5 36q69 0 117 -36t48 -84zM113 20h380v-20h-400v730h400v-20h-380v-300h360v-20h-360v-370z" />
    <glyph glyph-name="uni0207" unicode="&#x207;" horiz-adv-x="541" 
d="M443 610h-20q0 38 -41.5 69t-103.5 31t-103.5 -31t-41.5 -69h-20q0 48 47.5 84t117.5 36q69 0 117 -36t48 -84zM68 275h399q-2 114 -50.5 174.5t-138.5 60.5q-97 0 -151.5 -61.5t-58.5 -173.5zM68 255q1 -115 59.5 -180t160.5 -65q88 0 160 44l10 -18q-78 -46 -170 -46
q-111 0 -175.5 72.5t-64.5 197.5q0 127 61 198.5t169 71.5q100 0 155 -69.5t55 -195.5v-10h-420z" />
    <glyph glyph-name="uni0208" unicode="&#x208;" horiz-adv-x="286" 
d="M73 790l-120 160h25l120 -160h-25zM228 790l-120 160h25l120 -160h-25zM132 0v730h20v-730h-20z" />
    <glyph glyph-name="uni0209" unicode="&#x209;" horiz-adv-x="286" 
d="M73 590l-120 160h25l120 -160h-25zM228 590l-120 160h25l120 -160h-25zM132 0v520h20v-520h-20z" />
    <glyph glyph-name="uni020A" unicode="&#x20a;" horiz-adv-x="286" 
d="M308 810h-20q0 38 -41.5 69t-103.5 31t-103.5 -31t-41.5 -69h-20q0 48 47.5 84t117.5 36t117.5 -36t47.5 -84zM133 0v730h20v-730h-20z" />
    <glyph glyph-name="uni020B" unicode="&#x20b;" horiz-adv-x="286" 
d="M308 610h-20q0 38 -41.5 69t-103.5 31t-103.5 -31t-41.5 -69h-20q0 48 47.5 84t117.5 36q69 0 117 -36t48 -84zM133 0v520h20v-520h-20z" />
    <glyph glyph-name="uni020C" unicode="&#x20c;" horiz-adv-x="796" 
d="M329 790l-120 160h25l120 -160h-25zM484 790l-120 160h25l120 -160h-25zM48 365q0 168 96.5 271.5t253.5 103.5t253.5 -103.5t96.5 -271.5t-96.5 -271.5t-253.5 -103.5t-253.5 103.5t-96.5 271.5zM398 10q148 0 239 98t91 257t-91 257t-239 98t-239 -98t-91 -257t91 -257
t239 -98z" />
    <glyph glyph-name="uni020D" unicode="&#x20d;" horiz-adv-x="566" 
d="M214 590l-120 160h25l120 -160h-25zM369 590l-120 160h25l120 -160h-25zM48 260q0 125 63 197.5t172 72.5t172 -72.5t63 -197.5t-63 -197.5t-172 -72.5t-172 72.5t-63 197.5zM283 10q100 0 157.5 67t57.5 183t-57.5 183t-157.5 67t-157.5 -67t-57.5 -183t57.5 -183
t157.5 -67z" />
    <glyph glyph-name="uni020E" unicode="&#x20e;" horiz-adv-x="796" 
d="M563 810h-20q0 38 -41.5 69t-103.5 31t-103.5 -31t-41.5 -69h-20q0 48 47.5 84t117.5 36q69 0 117 -36t48 -84zM398 740q157 0 253.5 -103.5t96.5 -271.5t-96.5 -271.5t-253.5 -103.5t-253.5 103.5t-96.5 271.5t96.5 271.5t253.5 103.5zM398 10q148 0 239 98t91 257
t-91 257t-239 98t-239 -98t-91 -257t91 -257t239 -98z" />
    <glyph glyph-name="uni020F" unicode="&#x20f;" horiz-adv-x="566" 
d="M448 610h-20q0 38 -41.5 69t-103.5 31t-103.5 -31t-41.5 -69h-20q0 48 47.5 84t117.5 36q69 0 117 -36t48 -84zM283 530q109 0 172 -72.5t63 -197.5t-63 -197.5t-172 -72.5t-172 72.5t-63 197.5t63 197.5t172 72.5zM283 10q100 0 157.5 67t57.5 183t-57.5 183t-157.5 67
t-157.5 -67t-57.5 -183t57.5 -183t157.5 -67z" />
    <glyph glyph-name="uni0210" unicode="&#x210;" horiz-adv-x="614" 
d="M217 790l-120 160h25l120 -160h-25zM372 790l-120 160h25l120 -160h-25zM354 364v-2q31 -12 53 -44t56 -108l93 -210h-22l-90 202q-22 49 -35 73t-26.5 43.5t-33.5 25.5t-40.5 8.5t-62.5 2.5h-120v-355h-20v730h140q43 0 78.5 -3t76.5 -13t69 -27t47 -48t19 -74
q0 -87 -44 -136t-138 -65zM126 375h120q143 0 206.5 45.5t63.5 144.5q0 72 -63.5 108.5t-206.5 36.5h-120v-335z" />
    <glyph glyph-name="uni0211" unicode="&#x211;" horiz-adv-x="435" 
d="M102 371h2q32 71 104.5 115t163.5 44v-20q-112 0 -191 -67.5t-79 -162.5v-280h-20v520h20v-149zM113 590l-120 160h25l120 -160h-25zM268 590l-120 160h25l120 -160h-25z" />
    <glyph glyph-name="uni0212" unicode="&#x212;" horiz-adv-x="615" 
d="M457 810q0 38 -48.5 69t-121.5 31t-121.5 -31t-48.5 -69h-20q0 50 55.5 85t134.5 35t134.5 -35t55.5 -85h-20zM355 364v-2q31 -12 52.5 -43.5t55.5 -108.5l94 -210h-22l-90 202q-22 49 -35 73t-26.5 43.5t-33.5 25.5t-40.5 8.5t-62.5 2.5h-120v-355h-20v730h140
q43 0 78.5 -3t76.5 -13t69 -27t47 -48t19 -74q0 -87 -44 -136t-138 -65zM127 375h120q143 0 206.5 45.5t63.5 144.5q0 72 -63.5 108.5t-206.5 36.5h-120v-335z" />
    <glyph glyph-name="uni0213" unicode="&#x213;" horiz-adv-x="436" 
d="M348 610h-20q0 38 -41.5 69t-103.5 31t-103.5 -31t-41.5 -69h-20q0 48 47.5 84t117.5 36q69 0 117 -36t48 -84zM103 371h2q32 71 104.5 115t163.5 44v-20q-112 0 -191 -67.5t-79 -162.5v-280h-20v520h20v-149z" />
    <glyph glyph-name="uni0214" unicode="&#x214;" horiz-adv-x="666" 
d="M264 790l-120 160h25l120 -160h-25zM419 790l-120 160h25l120 -160h-25zM563 730h20v-460q0 -136 -64.5 -208t-185.5 -72t-185.5 72t-64.5 208v460h20v-460q0 -127 58.5 -193.5t171.5 -66.5t171.5 66.5t58.5 193.5v460z" />
    <glyph glyph-name="uni0215" unicode="&#x215;" horiz-adv-x="541" 
d="M438 128h-2q-26 -62 -76 -100t-112 -38q-91 0 -130.5 46.5t-39.5 153.5v330h20v-330q0 -98 34 -139t116 -41q79 0 134.5 64.5t55.5 155.5v290h20v-520h-20v128zM204 590l-120 160h25l120 -160h-25zM359 590l-120 160h25l120 -160h-25z" />
    <glyph glyph-name="uni0216" unicode="&#x216;" horiz-adv-x="666" 
d="M498 810h-20q0 38 -41.5 69t-103.5 31t-103.5 -31t-41.5 -69h-20q0 48 47.5 84t117.5 36q69 0 117 -36t48 -84zM563 730h20v-460q0 -136 -64.5 -208t-185.5 -72t-185.5 72t-64.5 208v460h20v-460q0 -127 58.5 -193.5t171.5 -66.5t171.5 66.5t58.5 193.5v460z" />
    <glyph glyph-name="uni0217" unicode="&#x217;" horiz-adv-x="541" 
d="M438 610h-20q0 38 -41.5 69t-103.5 31t-103.5 -31t-41.5 -69h-20q0 48 47.5 84t117.5 36q69 0 117 -36t48 -84zM438 128h-2q-26 -62 -76 -100t-112 -38q-91 0 -130.5 46.5t-39.5 153.5v330h20v-330q0 -98 34 -139t116 -41q79 0 134.5 64.5t55.5 155.5v290h20v-520h-20
v128z" />
    <glyph glyph-name="Scommaaccent" unicode="&#x218;" horiz-adv-x="556" 
d="M228 -260l73 200h21l-72 -200h-22zM278 720q-85 0 -132.5 -37t-47.5 -103q0 -123 183 -180q109 -34 158 -86t49 -134q0 -92 -54.5 -141t-155.5 -49q-124 0 -210 70l12 16q82 -66 198 -66q93 0 141.5 43.5t48.5 126.5q0 75 -45 121.5t-148 78.5q-197 61 -197 200
q0 73 52.5 116.5t147.5 43.5q109 0 200 -50l-10 -17q-84 47 -190 47z" />
    <glyph glyph-name="scommaaccent" unicode="&#x219;" horiz-adv-x="486" 
d="M188 -260l73 200h21l-72 -200h-22zM408 490l-9 -18q-80 38 -161 38q-71 0 -113 -30t-42 -80q0 -45 33 -73.5t124 -46.5q96 -19 139.5 -54.5t43.5 -95.5q0 -65 -50 -102.5t-135 -37.5q-92 0 -175 50l10 17q77 -47 165 -47q76 0 120.5 32t44.5 88q0 52 -39 82.5t-128 47.5
q-92 18 -132.5 50.5t-40.5 89.5q0 59 47.5 94.5t127.5 35.5q87 0 170 -40z" />
    <glyph glyph-name="uni021A" unicode="&#x21a;" horiz-adv-x="656" 
d="M278 -260l73 200h21l-72 -200h-22zM588 730v-20h-250v-710h-20v710h-250v20h520z" />
    <glyph glyph-name="uni021B" unicode="&#x21b;" horiz-adv-x="501" 
d="M213 -260l73 200h21l-72 -200h-22zM401 24l7 -19q-42 -15 -90 -15q-77 0 -106 32t-29 118v340h-125v20h125v190h20v-190h215v-20h-215v-340q0 -80 24.5 -105t90.5 -25q43 0 83 14z" />
    <glyph glyph-name="uni021C" unicode="&#x21c;" horiz-adv-x="513" 
d="M33 -221q412 105 412 371q0 76 -41 122t-110 48q-76 -52 -190 -94l-7 18q333 122 333 346q0 130 -155 130q-105 0 -229 -78l-11 16q131 82 240 82q85 0 130 -38.5t45 -111.5q0 -149 -131 -252q67 -10 106.5 -60.5t39.5 -127.5q0 -142 -105.5 -238.5t-321.5 -151.5z" />
    <glyph glyph-name="uni021D" unicode="&#x21d;" horiz-adv-x="483" 
d="M33 -220q382 82 382 285q0 59 -38 94t-103 36q-67 -38 -171 -70l-6 20q158 48 233 112.5t75 152.5q0 100 -145 100q-98 0 -215 -64l-10 18q123 66 225 66q51 0 86 -12t51 -32t22 -38t6 -38q0 -117 -122 -197q61 -9 96.5 -48.5t35.5 -99.5q0 -219 -398 -305z" />
    <glyph glyph-name="uni021E" unicode="&#x21e;" horiz-adv-x="686" 
d="M178 950h27l137 -146h2l137 146h27l-150 -160h-30zM573 730h20v-730h-20v390h-460v-390h-20v730h20v-320h460v320z" />
    <glyph glyph-name="uni021F" unicode="&#x21f;" horiz-adv-x="556" 
d="M113 950h27l137 -146h2l137 146h27l-150 -160h-30zM108 392h2q26 62 76 100t112 38q94 0 137 -52t43 -168v-310h-20v310q0 108 -37 154t-123 46q-79 0 -134.5 -64.5t-55.5 -155.5v-290h-20v750h20v-358z" />
    <glyph glyph-name="uni0220" unicode="&#x220;" horiz-adv-x="681" 
d="M113 547h2q31 89 99 141t149 52q122 0 176 -65.5t54 -214.5v-680h-20v680q0 140 -48.5 200t-161.5 60q-103 0 -176.5 -85t-73.5 -205v-430h-20v730h20v-183z" />
    <glyph glyph-name="uni0221" unicode="&#x221;" horiz-adv-x="696" 
d="M73 260q0 -118 50.5 -184t139.5 -66q91 0 140.5 59t49.5 166v50q0 107 -49.5 166t-140.5 59q-88 0 -139 -67.5t-51 -182.5zM53 260q0 125 56.5 197.5t153.5 72.5q140 0 188 -124h2v344h20v-613q59 48 110 48q46 0 73 -25.5t27 -69.5q0 -47 -29 -73.5t-81 -26.5
q-109 0 -119 103q-63 -63 -153 -194l-16 11q43 64 70 98q-39 -18 -92 -18q-98 0 -154 71.5t-56 198.5zM473 111q1 -101 100 -101q90 0 90 80q0 36 -21 55.5t-59 19.5q-51 0 -110 -54z" />
    <glyph glyph-name="uni0222" unicode="&#x222;" horiz-adv-x="616" 
d="M58 585v145h20v-145q0 -89 61.5 -137t168.5 -48t168.5 48t61.5 137v145h20v-145q0 -157 -160 -194v-2q76 -19 118 -69t42 -125q0 -95 -67.5 -150t-182.5 -55t-182.5 55t-67.5 150q0 75 42 125t118 69v2q-160 37 -160 194zM308 380q-110 0 -170 -48.5t-60 -136.5
q0 -87 61 -136t169 -49t169 49t61 136q0 88 -60 136.5t-170 48.5z" />
    <glyph glyph-name="uni0223" unicode="&#x223;" horiz-adv-x="566" 
d="M283 -10q-106 0 -168 51t-62 139q0 69 37.5 115.5t106.5 63.5v2q-68 17 -106 58t-38 101h20q0 -68 57 -109t153 -41t153 41t57 109h20q0 -60 -38 -101t-106 -58v-2q69 -17 106.5 -63.5t37.5 -115.5q0 -88 -62 -139t-168 -51zM283 350q-100 0 -155 -44.5t-55 -125.5
q0 -79 56.5 -124.5t153.5 -45.5t153.5 45.5t56.5 124.5q0 81 -55 125.5t-155 44.5z" />
    <glyph glyph-name="uni0224" unicode="&#x224;" horiz-adv-x="626" 
d="M518 708v2h-435v20h460v-20l-435 -688v-2h435v-10v-10v-80q0 -78 -33.5 -114t-106.5 -36q-44 0 -80 15l7 19q34 -14 73 -14q64 0 92 30.5t28 99.5v80h-440v20z" />
    <glyph glyph-name="uni0225" unicode="&#x225;" horiz-adv-x="536" 
d="M427 498v2h-344v20h370v-20l-344 -478v-2h344v-10v-10v-80q0 -78 -33.5 -114t-106.5 -36q-44 0 -80 15l7 19q34 -14 73 -14q64 0 92 30.5t28 99.5v80h-350v20z" />
    <glyph glyph-name="uni0226" unicode="&#x226;" horiz-adv-x="676" 
d="M328 810v120h20v-120h-20zM339 713h-2l-169 -443h340zM516 250h-356l-96 -250h-21l280 730h30l280 -730h-21z" />
    <glyph glyph-name="uni0227" unicode="&#x227;" horiz-adv-x="531" 
d="M424 115h-2q-26 -58 -78 -91.5t-121 -33.5q-75 0 -120 41t-45 109q0 88 79.5 136.5t225.5 48.5h60v5q0 102 -34.5 141t-125.5 39q-94 0 -175 -47l-10 17q86 50 185 50t139.5 -44t40.5 -156v-190q0 -70 15 -140h-20q-13 62 -14 115zM263 610v120h20v-120h-20zM78 140
q0 -60 39 -95t106 -35q87 0 143.5 56.5t56.5 143.5v95h-60q-136 0 -210.5 -43t-74.5 -122z" />
    <glyph glyph-name="uni0228" unicode="&#x228;" horiz-adv-x="576" 
d="M493 710h-380v-300h360v-20h-360v-370h380v-20h-126q41 -50 41 -105q0 -19 -6 -36.5t-22 -36.5t-51 -30.5t-86 -11.5q-67 0 -119 26l8 18q51 -24 111 -24q145 0 145 95q0 55 -48 105h-247v730h400v-20z" />
    <glyph glyph-name="uni0229" unicode="&#x229;" horiz-adv-x="561" 
d="M68 275h399q-2 114 -50.5 174.5t-138.5 60.5q-97 0 -151.5 -61.5t-58.5 -173.5zM327 -8q-26 -2 -39 -2q-111 0 -175.5 72.5t-64.5 197.5q0 127 61 198.5t169 71.5q100 0 155 -69.5t55 -195.5v-10h-420q1 -115 59.5 -180t160.5 -65q88 0 160 44l10 -18q-51 -30 -108 -41
q38 -49 38 -100q0 -19 -6 -36.5t-22 -36.5t-51 -30.5t-86 -11.5q-67 0 -119 26l8 18q51 -24 111 -24q145 0 145 95q0 50 -41 97z" />
    <glyph glyph-name="uni022A" unicode="&#x22a;" horiz-adv-x="796" 
d="M488 790v100h20v-100h-20zM288 790v100h20v-100h-20zM238 985v20h320v-20h-320zM48 365q0 168 96.5 271.5t253.5 103.5t253.5 -103.5t96.5 -271.5t-96.5 -271.5t-253.5 -103.5t-253.5 103.5t-96.5 271.5zM398 10q148 0 239 98t91 257t-91 257t-239 98t-239 -98t-91 -257
t91 -257t239 -98z" />
    <glyph glyph-name="uni022B" unicode="&#x22b;" horiz-adv-x="566" 
d="M373 610v120h20v-120h-20zM173 610v120h20v-120h-20zM123 835v20h320v-20h-320zM48 260q0 125 63 197.5t172 72.5t172 -72.5t63 -197.5t-63 -197.5t-172 -72.5t-172 72.5t-63 197.5zM283 10q100 0 157.5 67t57.5 183t-57.5 183t-157.5 67t-157.5 -67t-57.5 -183
t57.5 -183t157.5 -67z" />
    <glyph glyph-name="uni022C" unicode="&#x22c;" horiz-adv-x="796" 
d="M238 985v20h320v-20h-320zM233 800q0 110 65 110q40 0 105 -46q62 -44 95 -44q45 0 45 80h20q0 -100 -65 -100q-41 0 -107 47q-59 43 -93 43q-45 0 -45 -90h-20zM48 365q0 168 96.5 271.5t253.5 103.5t253.5 -103.5t96.5 -271.5t-96.5 -271.5t-253.5 -103.5t-253.5 103.5
t-96.5 271.5zM398 10q148 0 239 98t91 257t-91 257t-239 98t-239 -98t-91 -257t91 -257t239 -98z" />
    <glyph glyph-name="uni022D" unicode="&#x22d;" horiz-adv-x="566" 
d="M123 835v20h320v-20h-320zM118 610q0 110 65 110q40 0 105 -46q62 -44 95 -44q45 0 45 80h20q0 -100 -65 -100q-41 0 -107 47q-59 43 -93 43q-45 0 -45 -90h-20zM48 260q0 125 63 197.5t172 72.5t172 -72.5t63 -197.5t-63 -197.5t-172 -72.5t-172 72.5t-63 197.5zM283 10
q100 0 157.5 67t57.5 183t-57.5 183t-157.5 67t-157.5 -67t-57.5 -183t57.5 -183t157.5 -67z" />
    <glyph glyph-name="uni022E" unicode="&#x22e;" horiz-adv-x="796" 
d="M388 810v120h20v-120h-20zM48 365q0 168 96.5 271.5t253.5 103.5t253.5 -103.5t96.5 -271.5t-96.5 -271.5t-253.5 -103.5t-253.5 103.5t-96.5 271.5zM398 10q148 0 239 98t91 257t-91 257t-239 98t-239 -98t-91 -257t91 -257t239 -98z" />
    <glyph glyph-name="uni022F" unicode="&#x22f;" horiz-adv-x="566" 
d="M273 610v120h20v-120h-20zM48 260q0 125 63 197.5t172 72.5t172 -72.5t63 -197.5t-63 -197.5t-172 -72.5t-172 72.5t-63 197.5zM283 10q100 0 157.5 67t57.5 183t-57.5 183t-157.5 67t-157.5 -67t-57.5 -183t57.5 -183t157.5 -67z" />
    <glyph glyph-name="uni0230" unicode="&#x230;" horiz-adv-x="796" 
d="M388 800v120h20v-120h-20zM238 985v20h320v-20h-320zM48 365q0 168 96.5 271.5t253.5 103.5t253.5 -103.5t96.5 -271.5t-96.5 -271.5t-253.5 -103.5t-253.5 103.5t-96.5 271.5zM398 10q148 0 239 98t91 257t-91 257t-239 98t-239 -98t-91 -257t91 -257t239 -98z" />
    <glyph glyph-name="uni0231" unicode="&#x231;" horiz-adv-x="566" 
d="M273 610v120h20v-120h-20zM123 835v20h320v-20h-320zM48 260q0 125 63 197.5t172 72.5t172 -72.5t63 -197.5t-63 -197.5t-172 -72.5t-172 72.5t-63 197.5zM283 10q100 0 157.5 67t57.5 183t-57.5 183t-157.5 67t-157.5 -67t-57.5 -183t57.5 -183t157.5 -67z" />
    <glyph glyph-name="uni0232" unicode="&#x232;" horiz-adv-x="646" 
d="M163 880v20h320v-20h-320zM322 348h2l260 382h24l-275 -403v-327h-20v327l-275 403h24z" />
    <glyph glyph-name="uni0233" unicode="&#x233;" horiz-adv-x="571" 
d="M123 670v20h320v-20h-320zM297 26h2l202 494h22l-214 -519q-53 -129 -111.5 -180t-144.5 -51v20q79 0 132 46t102 164l-224 520h22z" />
    <glyph glyph-name="uni0234" unicode="&#x234;" horiz-adv-x="467" 
d="M234 129q64 56 120 56q46 0 73 -25.5t27 -69.5q0 -49 -31 -74.5t-89 -25.5q-46 0 -77.5 24.5t-39.5 69.5q-65 -69 -145 -185l-16 11q93 136 158 200v4v636h20v-621zM235 102q3 -44 29 -68t70 -24q100 0 100 80q0 36 -21 55.5t-59 19.5q-52 0 -119 -63z" />
    <glyph glyph-name="uni0235" unicode="&#x235;" horiz-adv-x="696" 
d="M454 93q-63 -63 -153 -194l-16 11q100 147 168 210v190q0 108 -37 154t-123 46q-79 0 -134.5 -64.5t-55.5 -155.5v-290h-20v520h20v-128h2q26 62 76 100t112 38q94 0 137 -52t43 -168v-173q59 48 110 48q46 0 73 -25.5t27 -69.5q0 -47 -29 -73.5t-81 -26.5
q-109 0 -119 103zM473 111q1 -101 100 -101q90 0 90 80q0 36 -21 55.5t-59 19.5q-51 0 -110 -54z" />
    <glyph glyph-name="uni0236" unicode="&#x236;" horiz-adv-x="461" 
d="M184 106q-1 10 -1 34v340h-125v20h125v190h20v-190h215v-20h-215v-340q0 -2 0.5 -7t0.5 -8q67 60 124 60q46 0 73 -25.5t27 -69.5q0 -46 -31 -73t-84 -27q-61 0 -89.5 19t-36.5 71q-64 -67 -141 -181l-16 11q90 132 154 196zM205 98q5 -54 28 -71t80 -17q44 0 69.5 21.5
t25.5 58.5q0 36 -21 55.5t-59 19.5q-55 0 -123 -67z" />
    <glyph glyph-name="uni0237" unicode="&#x237;" horiz-adv-x="326" 
d="M-17 -220v20q115 0 152.5 38.5t37.5 161.5v520h20v-520q0 -130 -43 -175t-167 -45z" />
    <glyph glyph-name="uni0238" unicode="&#x238;" horiz-adv-x="926" 
d="M473 0h-20v114h-2q-48 -124 -188 -124q-98 0 -154 71.5t-56 198.5q0 125 56.5 197.5t153.5 72.5q140 0 188 -124h2v324h20v-324h2q48 124 188 124q97 0 153.5 -72.5t56.5 -197.5q0 -127 -56 -198.5t-154 -71.5q-140 0 -188 124h-2v-114zM853 260q0 115 -51 182.5
t-139 67.5q-91 0 -140.5 -59t-49.5 -166v-50q0 -107 49.5 -166t140.5 -59q89 0 139.5 66t50.5 184zM73 260q0 -118 50.5 -184t139.5 -66q91 0 140.5 59t49.5 166v50q0 107 -49.5 166t-140.5 59q-88 0 -139 -67.5t-51 -182.5z" />
    <glyph glyph-name="uni0239" unicode="&#x239;" horiz-adv-x="926" 
d="M473 -220h-20v334h-2q-48 -124 -188 -124q-98 0 -154 71.5t-56 198.5q0 125 56.5 197.5t153.5 72.5q140 0 188 -124h2v114h20v-114h2q48 124 188 124q97 0 153.5 -72.5t56.5 -197.5q0 -127 -56 -198.5t-154 -71.5q-140 0 -188 124h-2v-334zM853 260q0 115 -51 182.5
t-139 67.5q-91 0 -140.5 -59t-49.5 -166v-50q0 -107 49.5 -166t140.5 -59q89 0 139.5 66t50.5 184zM73 260q0 -118 50.5 -184t139.5 -66q91 0 140.5 59t49.5 166v50q0 107 -49.5 166t-140.5 59q-88 0 -139 -67.5t-51 -182.5z" />
    <glyph glyph-name="uni023A" unicode="&#x23a;" horiz-adv-x="691" 
d="M350 713h-2l-170 -443h72l182 228zM234 250h-64l-57 -150zM259 250l-169 -211l-15 -39h-16l-5 -6l-16 12l35 43l261 681h30l82 -215l178 221l15 -12l-185 -231l190 -493h-22l-95 250h-268zM275 270h244l-79 206z" />
    <glyph glyph-name="uni023B" unicode="&#x23b;" horiz-adv-x="691" 
d="M607 71l11 -16q-94 -65 -220 -65q-107 0 -188 48l-48 -96l-18 9l49 98q-70 48 -107.5 129t-37.5 187q0 173 94 274t256 101q66 0 132 -22l34 70l18 -9l-34 -68q40 -16 70 -36l-11 -16q-23 16 -68 34l-320 -636q78 -47 179 -47q119 0 209 61zM202 68l318 632
q-60 20 -122 20q-153 0 -241.5 -95.5t-88.5 -259.5q0 -202 134 -297z" />
    <glyph glyph-name="uni023C" unicode="&#x23c;" horiz-adv-x="511" 
d="M429 43l9 -18q-66 -35 -140 -35q-76 0 -135 37l-36 -72l-18 9l37 74q-98 74 -98 222q0 125 67 197.5t183 72.5q52 0 88 -12l23 47l18 -9l-23 -45q7 -3 34 -16l-9 -18q-20 11 -34 16l-223 -448q53 -35 126 -35q68 0 131 33zM155 57l221 443q-34 10 -78 10q-108 0 -169 -66
t-61 -184q0 -135 87 -203z" />
    <glyph glyph-name="uni023D" unicode="&#x23d;" horiz-adv-x="656" 
d="M43 375v20h125v335h20v-335h125v-20h-125v-355h400v-20h-420v375h-125z" />
    <glyph glyph-name="uni023E" unicode="&#x23e;" horiz-adv-x="645" 
d="M589 730l17 25l17 -11l-280 -404v-340h-20v311l-233 -336l-17 11l250 360v364h-250v20h516zM343 375l232 335h-232v-335z" />
    <glyph glyph-name="uni023F" unicode="&#x23f;" horiz-adv-x="486" 
d="M408 490l-9 -18q-80 38 -161 38q-71 0 -113 -30t-42 -80q0 -45 33 -73.5t124 -46.5q96 -19 139.5 -54.5t43.5 -95.5q0 -51 -31.5 -85.5t-87.5 -47.5q53 -17 103 -56t81 -91h-24q-40 61 -104 100.5t-122 39.5q-92 0 -175 50l10 17q77 -47 165 -47q76 0 120.5 32t44.5 88
q0 52 -39 82.5t-128 47.5q-92 18 -132.5 50.5t-40.5 89.5q0 59 47.5 94.5t127.5 35.5q87 0 170 -40z" />
    <glyph glyph-name="uni0240" unicode="&#x240;" horiz-adv-x="536" 
d="M183 20q116 0 201 -44.5t129 -125.5h-23q-43 73 -122 111.5t-185 38.5h-100v20l344 478v2h-344v20h370v-20l-344 -478v-2h74z" />
    <glyph glyph-name="uni0241" unicode="&#x241;" horiz-adv-x="551" 
d="M263 361v-361h-20v380q109 0 167 45.5t58 129.5q0 77 -56 121t-154 44q-103 0 -194 -58l-11 16q97 62 205 62q106 0 168 -49.5t62 -135.5q0 -89 -59.5 -140.5t-165.5 -53.5z" />
    <glyph glyph-name="uni0242" unicode="&#x242;" horiz-adv-x="471" 
d="M418 370q0 -75 -52 -117t-148 -47v-206h-20v225q97 0 148.5 37.5t51.5 107.5q0 65 -48.5 102.5t-131.5 37.5q-85 0 -169 -52l-11 17q89 55 180 55q93 0 146.5 -43t53.5 -117z" />
    <glyph glyph-name="uni0243" unicode="&#x243;" horiz-adv-x="666" 
d="M424 403v-2q189 -31 189 -186q0 -215 -300 -215h-140v210h-125v20h125v500h130q270 0 270 -165q0 -126 -149 -162zM193 210v-190h120q143 0 211.5 47.5t68.5 147.5q0 175 -280 175h-120v-160h215v-20h-215zM193 410h120q116 0 178 40t62 115q0 22 -4 39.5t-19.5 38
t-41.5 34.5t-73.5 23.5t-111.5 9.5h-110v-300z" />
    <glyph glyph-name="uni0244" unicode="&#x244;" horiz-adv-x="806" 
d="M43 280v20h110v430h20v-430h460v430h20v-430h110v-20h-110v-10q0 -136 -64.5 -208t-185.5 -72t-185.5 72t-64.5 208v10h-110zM633 280h-460v-10q0 -127 58.5 -193.5t171.5 -66.5t171.5 66.5t58.5 193.5v10z" />
    <glyph glyph-name="uni0245" unicode="&#x245;" horiz-adv-x="676" 
d="M339 713h-2l-273 -713h-21l280 730h30l280 -730h-21z" />
    <glyph glyph-name="uni0246" unicode="&#x246;" horiz-adv-x="576" 
d="M113 390v-370h69l113 370h-182zM316 390l-114 -370h291v-20h-297l-28 -93l-19 6l26 87h-82v730h307l28 93l19 -6l-26 -87h72v-20h-79l-92 -300h151v-20h-157zM301 410l93 300h-281v-300h188z" />
    <glyph glyph-name="uni0247" unicode="&#x247;" horiz-adv-x="541" 
d="M382 481q-43 29 -104 29q-97 0 -151.5 -61.5t-58.5 -173.5h202zM398 469l-105 -194h174q-3 136 -69 194zM259 255h-191q2 -138 81 -201zM282 255l-116 -213q50 -32 122 -32q88 0 160 44l10 -18q-78 -46 -170 -46q-77 0 -132 35l-35 -65l-18 10l37 67q-92 72 -92 223
q0 127 61 198.5t169 71.5q68 0 114 -31l33 61l18 -10l-35 -63q80 -68 80 -222v-10h-206z" />
    <glyph glyph-name="uni0248" unicode="&#x248;" horiz-adv-x="676" 
d="M213 280v20h200v430h20v-430h200v-20h-200q0 -143 -65.5 -216.5t-184.5 -73.5q-83 0 -150 30l8 18q62 -28 142 -28q113 0 171.5 68.5t58.5 201.5h-200z" />
    <glyph glyph-name="uni0249" unicode="&#x249;" horiz-adv-x="546" 
d="M63 280v20h200v220h20v-220h200v-20h-200v-280q0 -130 -43 -175t-167 -45v20q115 0 152.5 38.5t37.5 161.5v280h-200zM263 640v110h20v-110h-20z" />
    <glyph glyph-name="uni024A" unicode="&#x24a;" horiz-adv-x="776" 
d="M661 184q-65 -194 -293 -194q-146 0 -233 102t-87 273t87 273t233 102q228 0 293 -194h2v184h20v-810q0 -69 28 -99.5t92 -30.5q39 0 73 14l7 -19q-36 -15 -80 -15q-73 0 -106.5 36t-33.5 114v264h-2zM68 365q0 -164 80.5 -259.5t219.5 -95.5q145 0 220 82.5t75 242.5v60
q0 160 -75 242.5t-220 82.5q-139 0 -219.5 -95.5t-80.5 -259.5z" />
    <glyph glyph-name="uni024B" unicode="&#x24b;" horiz-adv-x="556" 
d="M473 -80q0 -69 28 -99.5t92 -30.5q39 0 73 14l7 -19q-36 -15 -80 -15q-73 0 -106.5 36t-33.5 114v194h-2q-48 -124 -188 -124q-98 0 -154 71.5t-56 198.5q0 125 56.5 197.5t153.5 72.5q140 0 188 -124h2v114h20v-600zM73 260q0 -118 50.5 -184t139.5 -66q91 0 140.5 59
t49.5 166v50q0 107 -49.5 166t-140.5 59q-88 0 -139 -67.5t-51 -182.5z" />
    <glyph glyph-name="uni024C" unicode="&#x24c;" horiz-adv-x="681" 
d="M421 364v-2q31 -12 52.5 -43.5t55.5 -108.5l94 -210h-22l-90 202q-22 49 -35 73t-26.5 43.5t-33.5 25.5t-40.5 8.5t-62.5 2.5h-120v-355h-20v355h-125v20h125v355h140q43 0 78.5 -3t76.5 -13t69 -27t47 -48t19 -74q0 -87 -44 -136t-138 -65zM193 375h120
q143 0 206.5 45.5t63.5 144.5q0 72 -63.5 108.5t-206.5 36.5h-120v-335z" />
    <glyph glyph-name="uni024D" unicode="&#x24d;" horiz-adv-x="556" 
d="M223 371h2q32 71 104.5 115t163.5 44v-20q-112 0 -191 -67.5t-79 -162.5v-30h240v-20h-240v-230h-20v230h-160v20h160v270h20v-149z" />
    <glyph glyph-name="uni024E" unicode="&#x24e;" horiz-adv-x="756" 
d="M43 570v20h146l-96 140h24l95 -140h332l95 140h24l-96 -140h146v-20h-159l-166 -243v-327h-20v327l-166 243h-159zM377 348h2l151 222h-304z" />
    <glyph glyph-name="uni024F" unicode="&#x24f;" horiz-adv-x="676" 
d="M53 330v20h133l-73 170h22l73 -170h274l69 170h22l-70 -170h120v-20h-128l-136 -329q-53 -129 -111.5 -180t-144.5 -51v20q79 0 132 46t102 164l-142 330h-142zM347 26h2l124 304h-257z" />
    <glyph glyph-name="uni0250" unicode="&#x250;" horiz-adv-x="531" 
d="M107 405h2q26 58 78 91.5t121 33.5q75 0 120 -41t45 -109q0 -88 -79.5 -136.5t-225.5 -48.5h-60v-5q0 -102 34.5 -141t125.5 -39q94 0 175 47l10 -17q-86 -50 -185 -50t-139.5 44t-40.5 156v190q0 70 -15 140h20q13 -62 14 -115zM453 380q0 60 -39 95t-106 35
q-87 0 -143.5 -56.5t-56.5 -143.5v-95h60q136 0 210.5 43t74.5 122z" />
    <glyph glyph-name="uni0251" unicode="&#x251;" horiz-adv-x="556" 
d="M263 10q91 0 140.5 59t49.5 166v50q0 107 -49.5 166t-140.5 59q-88 0 -139 -67.5t-51 -182.5q0 -118 50.5 -184t139.5 -66zM53 260q0 125 56.5 197.5t153.5 72.5q140 0 188 -124h2v114h20v-520h-20v114h-2q-48 -124 -188 -124q-98 0 -154 71.5t-56 198.5z" />
    <glyph glyph-name="uni0252" unicode="&#x252;" horiz-adv-x="556" 
d="M293 510q-91 0 -140.5 -59t-49.5 -166v-50q0 -107 49.5 -166t140.5 -59q88 0 139 67.5t51 182.5q0 118 -50.5 184t-139.5 66zM503 260q0 -125 -56.5 -197.5t-153.5 -72.5q-140 0 -188 124h-2v-114h-20v520h20v-114h2q48 124 188 124q98 0 154 -71.5t56 -198.5z" />
    <glyph glyph-name="uni0253" unicode="&#x253;" horiz-adv-x="556" 
d="M103 610v-204h2q48 124 188 124q97 0 153.5 -72.5t56.5 -197.5q0 -127 -56 -198.5t-154 -71.5q-140 0 -188 124h-2v-114h-20v610q0 78 33.5 114t106.5 36q44 0 80 -15l-7 -19q-34 14 -73 14q-64 0 -92 -30.5t-28 -99.5zM483 260q0 115 -51 182.5t-139 67.5
q-91 0 -140.5 -59t-49.5 -166v-50q0 -107 49.5 -166t140.5 -59q89 0 139.5 66t50.5 184z" />
    <glyph glyph-name="uni0254" unicode="&#x254;" horiz-adv-x="511" 
d="M82 477l-9 18q66 35 140 35q112 0 181 -74.5t69 -195.5q0 -125 -67 -197.5t-183 -72.5q-74 0 -140 35l9 18q63 -33 131 -33q108 0 169 66t61 184q0 112 -63.5 181t-166.5 69q-68 0 -131 -33z" />
    <glyph glyph-name="uni0255" unicode="&#x255;" horiz-adv-x="521" 
d="M48 260q0 125 67 197.5t183 72.5q74 0 140 -35l-9 -18q-63 33 -131 33q-108 0 -169 -66t-61 -184q0 -83 36 -144.5t100 -87.5q71 107 105 137t74 30q41 0 68 -25.5t27 -64.5q0 -48 -44 -81.5t-136 -33.5q-48 0 -86 13l-61 -93l-16 10l58 91q-68 30 -106.5 95t-38.5 154z
M224 21q36 -11 74 -11q74 0 117 25.5t43 69.5q0 31 -21.5 50.5t-53.5 19.5t-61 -26.5t-98 -127.5z" />
    <glyph glyph-name="uni0256" unicode="&#x256;" horiz-adv-x="561" 
d="M473 60q0 -69 28 -99.5t92 -30.5q39 0 73 14l7 -19q-36 -15 -80 -15q-73 0 -106.5 36t-33.5 114v54h-2q-48 -124 -188 -124q-98 0 -154 71.5t-56 198.5q0 125 56.5 197.5t153.5 72.5q140 0 188 -124h2v344h20v-690zM73 260q0 -118 50.5 -184t139.5 -66q91 0 140.5 59
t49.5 166v50q0 107 -49.5 166t-140.5 59q-88 0 -139 -67.5t-51 -182.5z" />
    <glyph glyph-name="uni0257" unicode="&#x257;" horiz-adv-x="561" 
d="M453 406v204q0 78 33.5 114t106.5 36q44 0 80 -15l-7 -19q-34 14 -73 14q-64 0 -92 -30.5t-28 -99.5v-610h-20v114h-2q-48 -124 -188 -124q-98 0 -154 71.5t-56 198.5q0 125 56.5 197.5t153.5 72.5q140 0 188 -124h2zM73 260q0 -118 50.5 -184t139.5 -66q91 0 140.5 59
t49.5 166v50q0 107 -49.5 166t-140.5 59q-88 0 -139 -67.5t-51 -182.5z" />
    <glyph glyph-name="uni0258" unicode="&#x258;" horiz-adv-x="541" 
d="M473 255h-420v10q0 126 55 195.5t155 69.5q108 0 169 -71.5t61 -198.5q0 -125 -64.5 -197.5t-175.5 -72.5q-92 0 -170 46l10 18q72 -44 160 -44q102 0 160.5 65t59.5 180zM473 275q-4 112 -58.5 173.5t-151.5 61.5q-90 0 -138.5 -60.5t-50.5 -174.5h399z" />
    <glyph glyph-name="uni0259" unicode="&#x259;" horiz-adv-x="541" 
d="M473 245h-399q2 -114 50.5 -174.5t138.5 -60.5q97 0 151.5 61.5t58.5 173.5zM473 265q-1 115 -59.5 180t-160.5 65q-88 0 -160 -44l-10 18q78 46 170 46q111 0 175.5 -72.5t64.5 -197.5q0 -127 -61 -198.5t-169 -71.5q-100 0 -155 69.5t-55 195.5v10h420z" />
    <glyph glyph-name="uni025A" unicode="&#x25a;" horiz-adv-x="741" 
d="M461 365q14 -48 14 -105q0 -127 -61 -198.5t-169 -71.5q-73 0 -123.5 38.5t-73.5 110.5l389 235q-23 66 -75 101t-127 35q-88 0 -160 -44l-10 18q78 46 170 46q80 0 136 -38t83 -108l101 61h20v-135q0 -68 17 -91.5t53 -23.5q30 0 57 9l6 -18q-31 -11 -63 -11
q-48 0 -69 31.5t-21 103.5v112zM443 354l-371 -223q44 -121 173 -121q100 0 155 65.5t55 184.5q0 52 -12 94z" />
    <glyph glyph-name="uni025B" unicode="&#x25b;" horiz-adv-x="509" 
d="M205 284v2q-73 15 -107.5 47.5t-34.5 71.5q0 59 57 92t158 33q93 0 174 -36l-8 -18q-79 34 -166 34q-92 0 -143.5 -28t-51.5 -77q0 -51 63 -80.5t172 -29.5h50v-20h-50q-120 0 -182.5 -34.5t-62.5 -100.5q0 -63 53 -96.5t152 -33.5q88 0 171 34l8 -18q-89 -36 -179 -36
q-107 0 -166 39.5t-59 110.5q0 28 9.5 53t46 52t96.5 39z" />
    <glyph glyph-name="uni025C" unicode="&#x25c;" horiz-adv-x="509" 
d="M304 284q46 -9 78 -26t47.5 -38.5t21.5 -40.5t6 -39q0 -71 -59 -110.5t-166 -39.5q-90 0 -179 36l8 18q83 -34 171 -34q99 0 152 33.5t53 96.5q0 66 -62.5 100.5t-182.5 34.5h-50v20h50q109 0 172 29.5t63 80.5q0 49 -51.5 77t-143.5 28q-87 0 -166 -34l-8 18
q81 36 174 36q101 0 158 -33t57 -92q0 -39 -35 -71.5t-108 -47.5v-2z" />
    <glyph glyph-name="uni025D" unicode="&#x25d;" horiz-adv-x="763" 
d="M567 445h20v-135q0 -68 17 -91.5t53 -23.5q29 0 56 9l7 -18q-31 -11 -63 -11q-48 0 -69 31.5t-21 103.5v112q-133 -85 -176.5 -107t-86.5 -29v-2q46 -9 78 -26t47.5 -38.5t21.5 -40.5t6 -39q0 -71 -59 -110.5t-166 -39.5q-90 0 -179 36l8 18q83 -34 171 -34
q99 0 152 33.5t53 96.5q0 66 -62.5 100.5t-182.5 34.5h-50v20h50q109 0 172 29.5t63 80.5q0 49 -51.5 77t-143.5 28q-87 0 -166 -34l-8 18q81 36 174 36q101 0 158 -33t57 -92q0 -22 -10 -41z" />
    <glyph glyph-name="uni025E" unicode="&#x25e;" horiz-adv-x="601" 
d="M48 260q0 130 71 200t204 70q101 0 158 -33t57 -92q0 -39 -34.5 -71.5t-107.5 -47.5v-2q60 -12 96.5 -39t46 -52t9.5 -53q0 -71 -59 -110.5t-166 -39.5q-132 0 -203.5 69.5t-71.5 200.5zM68 260q0 -123 65 -186.5t190 -63.5q99 0 152 33.5t53 96.5q0 66 -62.5 100.5
t-182.5 34.5h-50v20h50q109 0 172 29.5t63 80.5q0 49 -51.5 77t-143.5 28q-125 0 -190 -63.5t-65 -186.5z" />
    <glyph glyph-name="uni025F" unicode="&#x25f;" horiz-adv-x="546" 
d="M63 280v20h200v220h20v-220h200v-20h-200v-280q0 -130 -43 -175t-167 -45v20q115 0 152.5 38.5t37.5 161.5v280h-200z" />
    <glyph glyph-name="uni0260" unicode="&#x260;" horiz-adv-x="686" 
d="M473 460v-430q0 -260 -220 -260q-85 0 -155 35l9 18q67 -33 146 -33q200 0 200 240v102h-2q-48 -122 -188 -122q-97 0 -153.5 70t-56.5 190q0 122 56 191t154 69q140 0 188 -122h2v52q0 78 33.5 114t106.5 36q44 0 80 -15l-7 -19q-34 14 -73 14q-64 0 -92 -30.5
t-28 -99.5zM73 270q0 -111 51 -175.5t139 -64.5q91 0 140.5 57.5t49.5 162.5v40q0 105 -49.5 162.5t-140.5 57.5q-89 0 -139.5 -63.5t-50.5 -176.5z" />
    <glyph glyph-name="uni0261" unicode="&#x261;" horiz-adv-x="556" 
d="M73 270q0 -111 51 -175.5t139 -64.5q91 0 140.5 57.5t49.5 162.5v40q0 105 -49.5 162.5t-140.5 57.5q-89 0 -139.5 -63.5t-50.5 -176.5zM53 270q0 122 56 191t154 69q140 0 188 -122h2v112h20v-490q0 -260 -220 -260q-85 0 -155 35l9 18q67 -33 146 -33q200 0 200 240
v102h-2q-48 -122 -188 -122q-97 0 -153.5 70t-56.5 190z" />
    <glyph glyph-name="uni0262" unicode="&#x262;" horiz-adv-x="633" 
d="M560 295v-264q-94 -38 -210 -38q-138 0 -220 72.5t-82 194.5t82 194.5t220 72.5q108 0 189 -43l-9 -17q-75 40 -180 40q-129 0 -205.5 -67t-76.5 -180t76.5 -180t205.5 -67q106 0 190 32v230h-248v20h268z" />
    <glyph glyph-name="uni0263" unicode="&#x263;" horiz-adv-x="546" 
d="M363 -125q0 32 -18.5 78t-71.5 137q-53 -91 -71.5 -137t-18.5 -78q0 -40 24 -62.5t66 -22.5t66 22.5t24 62.5zM273 -230q-51 0 -80.5 28t-29.5 77q0 36 20 85.5t77 146.5l-217 413h23l207 -395l207 395h23l-217 -413q57 -97 77 -146.5t20 -85.5q0 -49 -29.5 -77
t-80.5 -28z" />
    <glyph glyph-name="uni0264" unicode="&#x264;" horiz-adv-x="636" 
d="M305 327q-63 110 -103 146.5t-84 36.5q-28 0 -63 -14l-7 19q37 15 70 15q53 0 95.5 -39.5t104.5 -146.5q62 107 104.5 146.5t95.5 39.5q33 0 70 -15l-7 -19q-35 14 -63 14q-44 0 -84 -36.5t-103 -146.5q57 -97 77 -146.5t20 -85.5q0 -49 -29.5 -77t-80.5 -28t-80.5 28
t-29.5 77q0 36 20 85.5t77 146.5zM318 10q42 0 66 22.5t24 62.5q0 32 -18.5 78t-71.5 137q-53 -91 -71.5 -137t-18.5 -78q0 -40 24 -62.5t66 -22.5z" />
    <glyph glyph-name="uni0265" unicode="&#x265;" horiz-adv-x="556" 
d="M448 128h-2q-26 -62 -76 -100t-112 -38q-94 0 -137 52t-43 168v310h20v-310q0 -108 37 -154t123 -46q79 0 134.5 64.5t55.5 155.5v290h20v-750h-20v358z" />
    <glyph glyph-name="uni0266" unicode="&#x266;" horiz-adv-x="551" 
d="M103 610v-218h2q26 62 76 100t112 38q94 0 137 -52t43 -168v-310h-20v310q0 108 -37 154t-123 46q-79 0 -134.5 -64.5t-55.5 -155.5v-290h-20v610q0 78 33.5 114t106.5 36q44 0 80 -15l-7 -19q-34 14 -73 14q-64 0 -92 -30.5t-28 -99.5z" />
    <glyph glyph-name="uni0267" unicode="&#x267;" horiz-adv-x="551" 
d="M453 -80v390q0 108 -37 154t-123 46q-79 0 -134.5 -64.5t-55.5 -155.5v-290h-20v610q0 78 33.5 114t106.5 36q44 0 80 -15l-7 -19q-34 14 -73 14q-64 0 -92 -30.5t-28 -99.5v-218h2q26 62 76 100t112 38q94 0 137 -52t43 -168v-390q0 -78 -33.5 -114t-106.5 -36
q-44 0 -80 15l7 19q34 -14 73 -14q64 0 92 30.5t28 99.5z" />
    <glyph glyph-name="uni0268" unicode="&#x268;" horiz-adv-x="546" 
d="M63 280v20h200v220h20v-220h200v-20h-200v-280h-20v280h-200zM263 640v110h20v-110h-20z" />
    <glyph glyph-name="uni0269" unicode="&#x269;" horiz-adv-x="421" 
d="M338 -10q-124 0 -167 45t-43 175v310h20v-310q0 -123 37.5 -161.5t152.5 -38.5v-20z" />
    <glyph glyph-name="uni026A" unicode="&#x26a;" horiz-adv-x="426" 
d="M353 0h-280v20h130v480h-130v20h280v-20h-130v-480h130v-20z" />
    <glyph glyph-name="uni026B" unicode="&#x26b;" horiz-adv-x="506" 
d="M63 305q0 110 75 110q37 0 105 -38v373h20v-384q71 -41 105 -41q9 0 15 1.5t17 8t17 24.5t6 46h20q0 -100 -75 -100q-37 0 -105 38v-343h-20v354q-71 41 -105 41q-55 0 -55 -90h-20z" />
    <glyph glyph-name="uni026C" unicode="&#x26c;" horiz-adv-x="556" 
d="M293 290v-290h-20v290h-85q-145 0 -145 105q0 41 26 65.5t69 24.5q34 0 61 -19.5t74 -84.5v369h20v-440h200v-20h-200zM273 310v36q-55 78 -80.5 98.5t-54.5 20.5q-35 0 -55 -19t-20 -51q0 -85 125 -85h85z" />
    <glyph glyph-name="uni026D" unicode="&#x26d;" horiz-adv-x="286" 
d="M153 -80q0 -69 28 -99.5t92 -30.5q39 0 73 14l7 -19q-36 -15 -80 -15q-73 0 -106.5 36t-33.5 114v830h20v-830z" />
    <glyph glyph-name="uni026E" unicode="&#x26e;" horiz-adv-x="636" 
d="M514 498v2h-401v-500h-20v750h20v-230h430v-20l-270 -298v-2h50q230 0 230 -200q0 -230 -230 -230q-95 0 -170 55l12 16q68 -51 158 -51q210 0 210 210q0 180 -210 180h-75v24z" />
    <glyph glyph-name="uni026F" unicode="&#x26f;" horiz-adv-x="781" 
d="M378 190v330h20v-330q0 -94 31 -137t99 -43q58 0 104 61.5t46 158.5v290h20v-520h-20v117h-2q-22 -58 -61 -92.5t-87 -34.5q-117 0 -142 119h-2q-18 -55 -59 -87t-97 -32q-76 0 -113 49t-37 151v330h20v-330q0 -94 31 -137t99 -43q66 0 108 49.5t42 130.5z" />
    <glyph glyph-name="uni0270" unicode="&#x270;" horiz-adv-x="781" 
d="M378 190v330h20v-330q0 -94 31 -137t99 -43q58 0 104 61.5t46 158.5v290h20v-740h-20v337h-2q-22 -58 -61 -92.5t-87 -34.5q-117 0 -142 119h-2q-18 -55 -59 -87t-97 -32q-76 0 -113 49t-37 151v330h20v-330q0 -94 31 -137t99 -43q66 0 108 49.5t42 130.5z" />
    <glyph glyph-name="uni0271" unicode="&#x271;" horiz-adv-x="781" 
d="M683 -80v410q0 94 -31 137t-99 43q-66 0 -108 -49.5t-42 -130.5v-330h-20v330q0 94 -31 137t-99 43q-58 0 -104 -61.5t-46 -158.5v-290h-20v520h20v-117h2q22 58 61 92.5t87 34.5q117 0 142 -119h2q18 55 59 87t97 32q77 0 113.5 -49t36.5 -151v-410q0 -78 -33.5 -114
t-106.5 -36q-44 0 -80 15l7 19q34 -14 73 -14q64 0 92 30.5t28 99.5z" />
    <glyph glyph-name="uni0272" unicode="&#x272;" horiz-adv-x="551" 
d="M83 -80v600h20v-128h2q26 62 76 100t112 38q94 0 137 -52t43 -168v-310h-20v310q0 108 -37 154t-123 46q-79 0 -134.5 -64.5t-55.5 -155.5v-370q0 -78 -33.5 -114t-106.5 -36q-44 0 -80 15l7 19q34 -14 73 -14q64 0 92 30.5t28 99.5z" />
    <glyph glyph-name="uni0273" unicode="&#x273;" horiz-adv-x="551" 
d="M453 -80v390q0 108 -37 154t-123 46q-79 0 -134.5 -64.5t-55.5 -155.5v-290h-20v520h20v-128h2q26 62 76 100t112 38q94 0 137 -52t43 -168v-390q0 -69 28 -99.5t92 -30.5q39 0 73 14l7 -19q-36 -15 -80 -15q-73 0 -106.5 36t-33.5 114z" />
    <glyph glyph-name="uni0274" unicode="&#x274;" horiz-adv-x="594" 
d="M491 520h20v-520h-28l-378 497h-2v-497h-20v520h29l378 -497h1v497z" />
    <glyph glyph-name="uni0275" unicode="&#x275;" horiz-adv-x="566" 
d="M48 260q0 125 63 197.5t172 72.5t172 -72.5t63 -197.5t-63 -197.5t-172 -72.5t-172 72.5t-63 197.5zM68 250q2 -111 60 -175.5t155 -64.5t155 64.5t60 175.5h-430zM68 270h430q-2 111 -60 175.5t-155 64.5t-155 -64.5t-60 -175.5z" />
    <glyph glyph-name="uni0276" unicode="&#x276;" horiz-adv-x="876" 
d="M478 500v-205h299v-20h-299v-15v-240h316v-20h-336v133q-24 -67 -73.5 -105t-116.5 -38q-102 0 -161 72.5t-59 197.5t59 197.5t161 72.5q67 0 116.5 -37.5t73.5 -105.5v133h336v-20h-316zM458 260q0 115 -51 182.5t-139 67.5q-94 0 -147 -66t-53 -184t53 -184t147 -66
q88 0 139 67.5t51 182.5z" />
    <glyph glyph-name="uni0277" unicode="&#x277;" horiz-adv-x="756" 
d="M379 167h-2q-31 -177 -154 -177q-70 0 -122.5 67.5t-52.5 192.5q0 122 93.5 201t236.5 79t236.5 -79t93.5 -201q0 -125 -52.5 -192.5t-122.5 -67.5q-123 0 -154 177zM378 510q-137 0 -223.5 -72.5t-86.5 -187.5q0 -116 46.5 -178t108.5 -62q71 0 108 72.5t37 212.5v75h20
v-75q0 -140 37 -212.5t108 -72.5q62 0 108.5 62t46.5 178q0 115 -86.5 187.5t-223.5 72.5z" />
    <glyph glyph-name="uni0278" unicode="&#x278;" horiz-adv-x="656" 
d="M338 510v-500q118 3 184 69t66 181t-66 181t-184 69zM338 -10v-210h-20v210q-125 3 -197.5 75.5t-72.5 194.5t72.5 194.5t197.5 75.5v200h20v-200q125 -3 197.5 -75.5t72.5 -194.5t-72.5 -194.5t-197.5 -75.5zM318 10v500q-118 -3 -184 -69t-66 -181t66 -181t184 -69z
" />
    <glyph glyph-name="uni0279" unicode="&#x279;" horiz-adv-x="436" 
d="M333 149h-2q-32 -71 -104.5 -115t-163.5 -44v20q112 0 191 67.5t79 162.5v280h20v-520h-20v149z" />
    <glyph glyph-name="uni027A" unicode="&#x27a;" horiz-adv-x="441" 
d="M333 149h-2q-32 -71 -104.5 -115t-163.5 -44v20q112 0 191 67.5t79 162.5v490h20v-730h-20v149z" />
    <glyph glyph-name="uni027B" unicode="&#x27b;" horiz-adv-x="566" 
d="M353 520v-460q0 -69 28 -99.5t92 -30.5q39 0 73 14l7 -19q-36 -15 -80 -15q-73 0 -106.5 36t-33.5 114v89h-2q-32 -71 -104.5 -115t-163.5 -44v20q112 0 191 67.5t79 162.5v280h20z" />
    <glyph glyph-name="uni027C" unicode="&#x27c;" horiz-adv-x="436" 
d="M103 371h2q32 71 104.5 115t163.5 44v-20q-112 0 -191 -67.5t-79 -162.5v-500h-20v740h20v-149z" />
    <glyph glyph-name="uni027D" unicode="&#x27d;" horiz-adv-x="436" 
d="M83 520h20v-149h2q32 71 104.5 115t163.5 44v-20q-112 0 -191 -67.5t-79 -162.5v-360q0 -69 28 -99.5t92 -30.5q39 0 73 14l7 -19q-36 -15 -80 -15q-73 0 -106.5 36t-33.5 114v600z" />
    <glyph glyph-name="uni027E" unicode="&#x27e;" horiz-adv-x="361" 
d="M98 0h-20v380q0 78 33.5 114t106.5 36q44 0 80 -15l-7 -19q-34 14 -73 14q-64 0 -92 -30.5t-28 -99.5v-380z" />
    <glyph glyph-name="uni027F" unicode="&#x27f;" horiz-adv-x="361" 
d="M263 0v380q0 69 -28 99.5t-92 30.5q-39 0 -73 -14l-7 19q36 15 80 15q73 0 106.5 -36t33.5 -114v-380h-20z" />
    <glyph glyph-name="uni0280" unicode="&#x280;" horiz-adv-x="518" 
d="M302 256q23 -11 41.5 -34t42.5 -69l80 -153h-23l-75 144q-37 72 -63.5 89t-98.5 17h-98v-250h-20v520h118q243 0 243 -118q0 -121 -147 -145v-1zM108 270h98q119 0 171 31.5t52 100.5q0 50 -54 74t-169 24h-98v-230z" />
    <glyph glyph-name="uni0281" unicode="&#x281;" horiz-adv-x="518" 
d="M302 263q147 -24 147 -145q0 -118 -243 -118h-118v520h20v-250h98q72 0 98.5 17t63.5 89l75 144h23l-80 -153q-24 -46 -42.5 -69t-41.5 -34v-1zM108 250v-230h98q115 0 169 24t54 74q0 69 -52 100.5t-171 31.5h-98z" />
    <glyph glyph-name="uni0282" unicode="&#x282;" horiz-adv-x="491" 
d="M243 -10q-82 0 -155 44v-114q0 -69 28 -99.5t92 -30.5q39 0 73 14l7 -19q-36 -15 -80 -15q-73 0 -106.5 36t-33.5 114v137h20q73 -47 155 -47q76 0 120.5 32t44.5 88q0 52 -39 82.5t-128 47.5q-92 18 -132.5 50.5t-40.5 89.5q0 59 47.5 94.5t127.5 35.5q87 0 170 -40
l-9 -18q-80 38 -161 38q-71 0 -113 -30t-42 -80q0 -45 33 -73.5t124 -46.5q96 -19 139.5 -54.5t43.5 -95.5q0 -65 -50 -102.5t-135 -37.5z" />
    <glyph glyph-name="uni0283" unicode="&#x283;" horiz-adv-x="286" 
d="M153 590v-670q0 -78 -33.5 -114t-106.5 -36q-44 0 -80 15l7 19q34 -14 73 -14q64 0 92 30.5t28 99.5v670q0 78 33.5 114t106.5 36q44 0 80 -15l-7 -19q-34 14 -73 14q-64 0 -92 -30.5t-28 -99.5z" />
    <glyph glyph-name="uni0284" unicode="&#x284;" horiz-adv-x="561" 
d="M63 280v20h200v290q0 78 33.5 114t106.5 36q44 0 80 -15l-7 -19q-34 14 -73 14q-64 0 -92 -30.5t-28 -99.5v-290h200v-20h-200v-280q0 -130 -43 -175t-167 -45v20q115 0 152.5 38.5t37.5 161.5v280h-200z" />
    <glyph glyph-name="uni0285" unicode="&#x285;" horiz-adv-x="546" 
d="M263 380q0 69 -28 99.5t-92 30.5q-39 0 -73 -14l-7 19q36 15 80 15q73 0 106.5 -36t33.5 -114v-240q0 -69 28 -99.5t92 -30.5q39 0 73 14l7 -19q-36 -15 -80 -15q-73 0 -106.5 36t-33.5 114v240z" />
    <glyph glyph-name="uni0286" unicode="&#x286;" horiz-adv-x="471" 
d="M33 -140q0 -33 22.5 -51.5t62.5 -18.5q58 0 84 31t26 99v25h-70q-125 0 -125 -85zM248 -55v-25q0 -78 -32.5 -114t-97.5 -36q-49 0 -77 24.5t-28 65.5q0 105 145 105h70v625q0 78 33.5 114t106.5 36q44 0 80 -15l-7 -19q-34 14 -73 14q-64 0 -92 -30.5t-28 -99.5v-625
h185v-20h-185z" />
    <glyph glyph-name="uni0287" unicode="&#x287;" horiz-adv-x="501" 
d="M100 496l-7 19q42 15 90 15q77 0 106 -32t29 -118v-340h125v-20h-125v-190h-20v190h-215v20h215v340q0 80 -24.5 105t-90.5 25q-43 0 -83 -14z" />
    <glyph glyph-name="uni0288" unicode="&#x288;" horiz-adv-x="501" 
d="M401 -196l7 -19q-42 -15 -90 -15q-77 0 -106 32t-29 118v560h-125v20h125v190h20v-190h215v-20h-215v-560q0 -80 24.5 -105t90.5 -25q43 0 83 14z" />
    <glyph glyph-name="uni0289" unicode="&#x289;" horiz-adv-x="666" 
d="M503 128h-2q-26 -62 -76 -100t-112 -38q-91 0 -130.5 46.5t-39.5 153.5v90h-85v20h85v220h20v-220h340v220h20v-220h85v-20h-85v-280h-20v128zM503 280h-340v-90q0 -98 34 -139t116 -41q79 0 134.5 64.5t55.5 155.5v50z" />
    <glyph glyph-name="uni028A" unicode="&#x28a;" horiz-adv-x="616" 
d="M308 -10q-106 0 -170.5 69t-64.5 181q0 156 148 258v2h-163v20h200v-20q-80 -47 -122.5 -114t-42.5 -146q0 -104 59 -167t156 -63t156 63t59 167q0 79 -42.5 146t-122.5 114v20h200v-20h-163v-2q148 -102 148 -258q0 -112 -64.5 -181t-170.5 -69z" />
    <glyph glyph-name="uni028B" unicode="&#x28b;" horiz-adv-x="551" 
d="M404 531l18 8q66 -147 66 -269q0 -67 -13 -117.5t-33 -81t-48.5 -49.5t-56.5 -25.5t-59 -6.5q-102 0 -151 49t-49 151v330h20v-330q0 -93 43.5 -136.5t136.5 -43.5q190 0 190 260q0 119 -64 261z" />
    <glyph glyph-name="uni028C" unicode="&#x28c;" horiz-adv-x="546" 
d="M274 504h-2l-207 -504h-22l215 520h30l215 -520h-22z" />
    <glyph glyph-name="uni028D" unicode="&#x28d;" horiz-adv-x="806" 
d="M402 19h2l154 501h30l165 -520h-21l-158 501h-2l-154 -501h-30l-154 501h-2l-158 -501h-21l165 520h30z" />
    <glyph glyph-name="uni028E" unicode="&#x28e;" horiz-adv-x="571" 
d="M274 494h-2l-202 -494h-22l214 519q53 129 111.5 180t144.5 51v-20q-79 0 -132 -46t-102 -164l224 -520h-22z" />
    <glyph glyph-name="uni028F" unicode="&#x28f;" horiz-adv-x="554" 
d="M278 253l213 267h26l-230 -287v-233h-20v233l-229 287h26l213 -267h1z" />
    <glyph glyph-name="uni0290" unicode="&#x290;" horiz-adv-x="536" 
d="M646 -196l7 -19q-36 -15 -80 -15q-73 0 -106.5 36t-33.5 114v80h-350v20l344 478v2h-344v20h370v-20l-344 -478v-2h344v-100q0 -69 28 -99.5t92 -30.5q39 0 73 14z" />
    <glyph glyph-name="uni0291" unicode="&#x291;" horiz-adv-x="611" 
d="M548 105q0 32 -20 51t-55 19q-17 0 -28 -4t-29 -19t-42.5 -46.5t-60.5 -85.5h110q125 0 125 85zM289 20q74 112 109 143.5t75 31.5q43 0 69 -24.5t26 -65.5q0 -105 -145 -105h-123l-59 -90l-16 10l51 80h-193v20l344 478v2h-344v20h370v-20l-344 -478v-2h180z" />
    <glyph glyph-name="uni0292" unicode="&#x292;" horiz-adv-x="566" 
d="M444 498v2h-356v20h385v-20l-270 -298v-2h50q230 0 230 -200q0 -230 -230 -230q-95 0 -170 55l12 16q68 -51 158 -51q210 0 210 210q0 180 -210 180h-75v24z" />
    <glyph glyph-name="uni0293" unicode="&#x293;" horiz-adv-x="581" 
d="M263 -230q-85 0 -132.5 36.5t-47.5 98.5q0 41 26 65.5t69 24.5q41 0 76.5 -33.5t115.5 -154.5q108 44 108 193q0 180 -210 180h-75v24l266 294v2h-356v20h385v-20l-270 -298v-2h50q230 0 230 -200q0 -160 -117 -209l45 -71l-16 -10l-48 74q-45 -14 -99 -14zM351 -199
q-76 115 -107.5 144.5t-65.5 29.5q-35 0 -55 -19t-20 -51q0 -54 42.5 -84.5t117.5 -30.5q49 0 88 11z" />
    <glyph glyph-name="uni0294" unicode="&#x294;" horiz-adv-x="551" 
d="M263 361v-361h-20v380q109 0 167 45.5t58 129.5q0 77 -56 121t-154 44q-103 0 -194 -58l-11 16q97 62 205 62q106 0 168 -49.5t62 -135.5q0 -89 -59.5 -140.5t-165.5 -53.5z" />
    <glyph glyph-name="uni0295" unicode="&#x295;" horiz-adv-x="551" 
d="M288 361q-106 2 -165.5 53.5t-59.5 140.5q0 86 62 135.5t168 49.5q108 0 205 -62l-10 -16q-91 58 -195 58q-98 0 -154 -44t-56 -121q0 -84 58 -129.5t167 -45.5v-380h-20v361z" />
    <glyph glyph-name="uni0296" unicode="&#x296;" horiz-adv-x="551" 
d="M263 369q106 -2 165.5 -53.5t59.5 -140.5q0 -86 -62 -135.5t-168 -49.5q-108 0 -205 62l11 16q91 -58 194 -58q98 0 154 44t56 121q0 84 -58 129.5t-167 45.5v380h20v-361z" />
    <glyph glyph-name="uni0297" unicode="&#x297;" horiz-adv-x="516" 
d="M63 255q0 258 58.5 371.5t191.5 113.5q74 0 140 -35l-9 -18q-63 33 -131 33q-40 0 -70 -8.5t-62 -37.5t-52 -78.5t-33 -135.5t-13 -205t13 -205t33 -135.5t52 -78.5t62 -37.5t70 -8.5q68 0 131 33l9 -18q-66 -35 -140 -35q-133 0 -191.5 113.5t-58.5 371.5z" />
    <glyph glyph-name="uni0298" unicode="&#x298;" horiz-adv-x="796" 
d="M388 315v120h20v-120h-20zM48 365q0 168 96.5 271.5t253.5 103.5t253.5 -103.5t96.5 -271.5t-96.5 -271.5t-253.5 -103.5t-253.5 103.5t-96.5 271.5zM398 10q148 0 239 98t91 257t-91 257t-239 98t-239 -98t-91 -257t91 -257t239 -98z" />
    <glyph glyph-name="uni0299" unicode="&#x299;" horiz-adv-x="515" 
d="M108 295h98q96 0 147 27.5t51 79.5q0 8 -0.5 13.5t-4.5 16.5t-11 19t-22.5 18t-37 16t-55 10.5t-76.5 4.5h-89v-205zM108 275v-255h98q74 0 123.5 12t71.5 34t29.5 41.5t7.5 45.5q0 122 -232 122h-98zM458 153q0 -153 -252 -153h-118v520h109q227 0 227 -118
q0 -87 -111 -115v-1q145 -27 145 -133z" />
    <glyph glyph-name="uni029A" unicode="&#x29a;" horiz-adv-x="601" 
d="M278 510q-92 0 -143.5 -28t-51.5 -77q0 -51 63 -80.5t172 -29.5h50v-20h-50q-120 0 -182.5 -34.5t-62.5 -100.5q0 -63 53 -96.5t152 -33.5q125 0 190 63.5t65 186.5t-65 186.5t-190 63.5zM553 260q0 -131 -71.5 -200.5t-203.5 -69.5q-107 0 -166 39.5t-59 110.5
q0 28 9.5 53t46 52t96.5 39v2q-73 15 -107.5 47.5t-34.5 71.5q0 59 57 92t158 33q133 0 204 -70t71 -200z" />
    <glyph glyph-name="uni029B" unicode="&#x29b;" horiz-adv-x="623" 
d="M350 527q81 0 150 -33v99q0 78 33.5 114t106.5 36q44 0 80 -15l-7 -19q-34 14 -73 14q-64 0 -92 -30.5t-28 -99.5v-121h-20q-65 35 -150 35q-129 0 -205.5 -67t-76.5 -180t76.5 -180t205.5 -67q106 0 190 32v230h-248v20h268v-264q-94 -38 -210 -38q-138 0 -220 72.5
t-82 194.5t82 194.5t220 72.5z" />
    <glyph glyph-name="uni029C" unicode="&#x29c;" horiz-adv-x="586" 
d="M503 520v-520h-20v275h-380v-275h-20v520h20v-225h380v225h20z" />
    <glyph glyph-name="uni029D" unicode="&#x29d;" horiz-adv-x="446" 
d="M228 640v110h20v-110h-20zM248 -55v-25q0 -78 -32.5 -114t-97.5 -36q-49 0 -77 24.5t-28 65.5q0 105 145 105h70v555h20v-555h185v-20h-185zM228 -55h-70q-125 0 -125 -85q0 -33 22.5 -51.5t62.5 -18.5q58 0 84 31t26 99v25z" />
    <glyph glyph-name="uni029E" unicode="&#x29e;" horiz-adv-x="526" 
d="M423 236h-2l-328 -236h-35l350 250l-355 270h33l335 -256h2v256h20v-750h-20v466z" />
    <glyph glyph-name="uni029F" unicode="&#x29f;" horiz-adv-x="493" 
d="M103 20h333v-20h-353v520h20v-500z" />
    <glyph glyph-name="uni02A0" unicode="&#x2a0;" horiz-adv-x="556" 
d="M453 406v54q0 78 33.5 114t106.5 36q44 0 80 -15l-7 -19q-34 14 -73 14q-64 0 -92 -30.5t-28 -99.5v-680h-20v334h-2q-48 -124 -188 -124q-97 0 -153.5 72.5t-56.5 197.5t56.5 197.5t153.5 72.5q140 0 188 -124h2zM73 260q0 -118 50.5 -184t139.5 -66q91 0 140.5 59
t49.5 166v50q0 107 -49.5 166t-140.5 59q-88 0 -139 -67.5t-51 -182.5z" />
    <glyph glyph-name="uni02A1" unicode="&#x2a1;" horiz-adv-x="571" 
d="M58 230v20h200v130q109 0 167 45.5t58 129.5q0 77 -56 121t-154 44q-104 0 -195 -58l-10 16q97 62 205 62q106 0 168 -49.5t62 -135.5q0 -89 -59.5 -140.5t-165.5 -53.5v-111h200v-20h-200v-230h-20v230h-200z" />
    <glyph glyph-name="uni02A2" unicode="&#x2a2;" horiz-adv-x="571" 
d="M93 230v20h200v111q-106 2 -165.5 53.5t-59.5 140.5q0 86 62 135.5t168 49.5q108 0 205 -62l-10 -16q-91 58 -195 58q-98 0 -154 -44t-56 -121q0 -84 58 -129.5t167 -45.5v-130h200v-20h-200v-230h-20v230h-200z" />
    <glyph glyph-name="uni02A3" unicode="&#x2a3;" horiz-adv-x="916" 
d="M807 498v2h-334v-466zM263 10q91 0 140.5 59t49.5 166v50q0 107 -49.5 166t-140.5 59q-88 0 -139 -67.5t-51 -182.5q0 -118 50.5 -184t139.5 -66zM463 0h-10v114h-2q-48 -124 -188 -124q-98 0 -154 71.5t-56 198.5q0 125 56.5 197.5t153.5 72.5q140 0 188 -124h2v344h20
v-230h360v-20l-344 -478v-2h344v-20h-360h-10z" />
    <glyph glyph-name="uni02A4" unicode="&#x2a4;" horiz-adv-x="951" 
d="M829 498v2h-356v-500h-20v114h-2q-48 -124 -188 -124q-98 0 -154 71.5t-56 198.5q0 125 56.5 197.5t153.5 72.5q140 0 188 -124h2v344h20v-230h385v-20l-270 -298v-2h50q230 0 230 -200q0 -230 -230 -230q-95 0 -170 55l12 16q68 -51 158 -51q210 0 210 210
q0 180 -210 180h-75v24zM263 10q91 0 140.5 59t49.5 166v50q0 107 -49.5 166t-140.5 59q-88 0 -139 -67.5t-51 -182.5q0 -118 50.5 -184t139.5 -66z" />
    <glyph glyph-name="uni02A5" unicode="&#x2a5;" horiz-adv-x="991" 
d="M656 0h-183h-10h-10v114h-2q-48 -124 -188 -124q-98 0 -154 71.5t-56 198.5q0 125 56.5 197.5t153.5 72.5q140 0 188 -124h2v344h20v-230h360v-20l-344 -478v-2h180q74 112 109 143.5t75 31.5q43 0 69 -24.5t26 -65.5q0 -105 -145 -105h-123l-59 -90l-16 10zM693 20h110
q125 0 125 85q0 32 -20 51t-55 19q-17 0 -28 -4t-29 -19t-42.5 -46.5t-60.5 -85.5zM73 260q0 -118 50.5 -184t139.5 -66q91 0 140.5 59t49.5 166v50q0 107 -49.5 166t-140.5 59q-88 0 -139 -67.5t-51 -182.5zM473 34l334 464v2h-334v-466z" />
    <glyph glyph-name="uni02A6" unicode="&#x2a6;" horiz-adv-x="841" 
d="M763 490l-9 -18q-80 38 -161 38q-71 0 -113 -30t-42 -80q0 -45 33 -73.5t124 -46.5q96 -19 139.5 -54.5t43.5 -95.5q0 -65 -50 -102.5t-135 -37.5q-82 0 -156 39q-55 -39 -119 -39q-77 0 -106 32t-29 118v340h-125v20h125v190h20v-190h215v-20h-215v-340q0 -80 24.5 -105
t90.5 -25q50 0 101 32l9 15q77 -47 165 -47q76 0 120.5 32t44.5 88q0 52 -39 82.5t-128 47.5q-92 18 -132.5 50.5t-40.5 89.5q0 59 47.5 94.5t127.5 35.5q87 0 170 -40z" />
    <glyph glyph-name="uni02A7" unicode="&#x2a7;" horiz-adv-x="671" 
d="M448 590v-670q0 -78 -33.5 -114t-106.5 -36q-44 0 -80 15l7 19q34 -14 73 -14q64 0 92 30.5t28 99.5v104q-53 -34 -110 -34q-77 0 -106 32t-29 118v340h-125v20h125v190h20v-190h225v90q0 78 33.5 114t106.5 36q44 0 80 -15l-7 -19q-34 14 -73 14q-64 0 -92 -30.5
t-28 -99.5zM428 48v432h-225v-340q0 -80 24.5 -105t90.5 -25q59 0 110 38z" />
    <glyph glyph-name="uni02A8" unicode="&#x2a8;" horiz-adv-x="806" 
d="M333 260q0 125 67 197.5t183 72.5q74 0 140 -35l-9 -18q-63 33 -131 33q-108 0 -169 -66t-61 -184q0 -83 36 -144.5t100 -87.5q71 107 105 137t74 30q41 0 68 -25.5t27 -64.5q0 -48 -44 -81.5t-136 -33.5q-48 0 -86 13l-61 -93l-16 10l58 91q-21 10 -38 21
q-59 -42 -122 -42q-77 0 -106 32t-29 118v340h-125v20h125v190h20v-190h195v-20h-195v-340q0 -80 24.5 -105t90.5 -25q55 0 105 34q-90 74 -90 216zM509 21q36 -11 74 -11q74 0 117 25.5t43 69.5q0 31 -21.5 50.5t-53.5 19.5t-61 -26.5t-98 -127.5z" />
    <glyph glyph-name="uni02A9" unicode="&#x2a9;" horiz-adv-x="861" 
d="M763 -80v390q0 108 -37 154t-123 46q-79 0 -134.5 -64.5t-55.5 -155.5v-290h-20v500h-160v-500h-20v500h-150v20h150v70q0 78 33.5 114t106.5 36q44 0 80 -15l-7 -19q-34 14 -73 14q-64 0 -92 -30.5t-28 -99.5v-70h160h10h10v-128h2q26 62 76 100t112 38q95 0 137.5 -52
t42.5 -168v-390q0 -78 -33.5 -114t-106.5 -36q-44 0 -80 15l7 19q34 -14 73 -14q64 0 92 30.5t28 99.5z" />
    <glyph glyph-name="uni02AA" unicode="&#x2aa;" horiz-adv-x="531" 
d="M93 0v750h20v-315q14 45 58.5 70t111.5 25q87 0 170 -40l-9 -18q-80 38 -161 38q-71 0 -113 -30t-42 -80q0 -45 33 -73.5t124 -46.5q96 -19 139.5 -54.5t43.5 -95.5q0 -65 -50 -102.5t-135 -37.5q-92 0 -170 47v-37h-20zM113 363v-302q80 -51 170 -51q76 0 120.5 32
t44.5 88q0 52 -39 82.5t-128 47.5q-146 28 -168 103z" />
    <glyph glyph-name="uni02AB" unicode="&#x2ab;" horiz-adv-x="556" 
d="M447 498v2h-334v-466zM93 0v750h20v-230h360v-20l-344 -478v-2h344v-20h-360h-10h-10z" />
    <glyph glyph-name="uni02AC" unicode="&#x2ac;" horiz-adv-x="656" 
d="M329 364h-2l-113 -364h-26l-125 390h21l116 -364h1l113 364h28l113 -364h1l116 364h21l-125 -390h-26zM329 724h-2l-113 -364h-26l-125 390h21l116 -364h1l113 364h28l113 -364h1l116 364h21l-125 -390h-26z" />
    <glyph glyph-name="uni02AD" unicode="&#x2ad;" horiz-adv-x="566" 
d="M108 315v-140h-20v160h390v-160h-20v140h-350zM108 675v-140h-20v160h390v-160h-20v140h-350z" />
    <glyph glyph-name="uni02AE" unicode="&#x2ae;" horiz-adv-x="556" 
d="M78 600q0 69 -28 99.5t-92 30.5q-39 0 -73 -14l-7 19q36 15 80 15q73 0 106.5 -36t33.5 -114v-390q0 -108 37 -154t123 -46q79 0 134.5 64.5t55.5 155.5v290h20v-750h-20v358h-2q-26 -62 -76 -100t-112 -38q-94 0 -137 52t-43 168v390z" />
    <glyph glyph-name="uni02AF" unicode="&#x2af;" horiz-adv-x="551" 
d="M448 128h-2q-26 -62 -76 -100t-112 -38q-94 0 -137 52t-43 168v390q0 69 -28 99.5t-92 30.5q-39 0 -73 -14l-7 19q36 15 80 15q73 0 106.5 -36t33.5 -114v-390q0 -108 37 -154t123 -46q79 0 134.5 64.5t55.5 155.5v290h20v-610q0 -69 28 -99.5t92 -30.5q39 0 73 14l7 -19
q-36 -15 -80 -15q-73 0 -106.5 36t-33.5 114v218z" />
    <glyph glyph-name="uni02B0" unicode="&#x2b0;" horiz-adv-x="390" 
d="M104 544q17 30 44.5 48t60.5 18q57 0 82.5 -31t25.5 -101v-186h-20v186q0 61 -20 86.5t-68 25.5q-44 0 -75 -36.5t-31 -87.5v-174h-20v450h20v-198h1z" />
    <glyph glyph-name="uni02B1" unicode="&#x2b1;" horiz-adv-x="390" 
d="M103 544h1q17 30 44.5 48t60.5 18q57 0 82.5 -31t25.5 -101v-186h-20v186q0 61 -20 86.5t-68 25.5q-44 0 -75 -36.5t-31 -87.5v-174h-20v366q0 47 20.5 68.5t63.5 21.5q25 0 48 -9l-7 -19q-19 8 -41 8q-35 0 -49.5 -16t-14.5 -54v-114z" />
    <glyph glyph-name="uni02B2" unicode="&#x2b2;" horiz-adv-x="282" 
d="M184 604v-312q0 -78 -26 -105t-100 -27v20q65 0 85.5 21.5t20.5 90.5v312h20zM164 676v66h20v-66h-20z" />
    <glyph glyph-name="uni02B3" unicode="&#x2b3;" horiz-adv-x="310" 
d="M99 530q22 37 62.5 58.5t90.5 21.5v-20q-64 0 -109 -38t-45 -92v-168h-20v312h20v-74h1z" />
    <glyph glyph-name="uni02B4" unicode="&#x2b4;" horiz-adv-x="310" 
d="M211 366q-22 -37 -62.5 -58.5t-90.5 -21.5v20q64 0 109 38t45 92v168h20v-312h-20v74h-1z" />
    <glyph glyph-name="uni02B5" unicode="&#x2b5;" horiz-adv-x="412" 
d="M232 336q0 -41 17 -59.5t55 -18.5q23 0 44 8l7 -18q-25 -10 -51 -10q-92 0 -92 98v30h-1q-22 -37 -62.5 -58.5t-90.5 -21.5v20q64 0 109 38t45 92v168h20v-268z" />
    <glyph glyph-name="uni02B6" unicode="&#x2b6;" horiz-adv-x="386" 
d="M251 450q73 -16 73 -80q0 -78 -126 -78h-105v312h20v-147h75q38 0 48.5 8t34.5 57l40 82h22l-44 -90q-25 -51 -38 -62v-2zM113 437v-125h85q37 0 60.5 5.5t32.5 16.5t11 18t2 18q0 29 -23.5 48t-92.5 19h-75z" />
    <glyph glyph-name="uni02B7" unicode="&#x2b7;" horiz-adv-x="516" 
d="M257 578l-87 -286h-27l-95 312h21l87 -288h1l88 288h26l88 -288h1l87 288h21l-95 -312h-27l-87 286h-2z" />
    <glyph glyph-name="uni02B8" unicode="&#x2b8;" horiz-adv-x="373" 
d="M308 604h22l-128 -311q-32 -77 -67.5 -108t-86.5 -31v20q43 0 73.5 25.5t60.5 98.5l-128 306h22l116 -280h1z" />
    <glyph glyph-name="uni02B9" unicode="&#x2b9;" horiz-adv-x="232" 
d="M99 590h-21l80 220h21z" />
    <glyph glyph-name="uni02BA" unicode="&#x2ba;" horiz-adv-x="381" 
d="M253 590h-21l80 220h21zM94 590h-21l80 220h21z" />
    <glyph glyph-name="uni02BB" unicode="&#x2bb;" horiz-adv-x="232" 
d="M74 550h-21l80 220h21z" />
    <glyph glyph-name="afii57929" unicode="&#x2bc;" horiz-adv-x="232" 
d="M99 550h-21l80 220h21z" />
    <glyph glyph-name="afii64937" unicode="&#x2bd;" horiz-adv-x="232" 
d="M133 550l-80 220h21l80 -220h-21z" />
    <glyph glyph-name="uni02BE" unicode="&#x2be;" horiz-adv-x="221" 
d="M63 560v20q37 0 63.5 26t26.5 64t-26.5 64t-63.5 26v20q46 0 78 -32t32 -78t-32 -78t-78 -32z" />
    <glyph glyph-name="uni02BF" unicode="&#x2bf;" horiz-adv-x="221" 
d="M158 560q-46 0 -78 32t-32 78t32 78t78 32v-20q-38 0 -64 -26t-26 -64t26 -64t64 -26v-20z" />
    <glyph glyph-name="uni02C0" unicode="&#x2c0;" horiz-adv-x="367" 
d="M309 625q0 -105 -131 -116v-217h-20v236q131 3 131 97q0 43 -31.5 67t-86.5 24q-57 0 -112 -34l-11 17q58 37 123 37q64 0 101 -30t37 -81z" />
    <glyph glyph-name="uni02C1" unicode="&#x2c1;" horiz-adv-x="367" 
d="M58 625q0 51 37 81t101 30q65 0 123 -37l-10 -17q-55 34 -113 34q-55 0 -86.5 -24t-31.5 -67q0 -94 131 -97v-236h-20v217q-131 11 -131 116z" />
    <glyph glyph-name="uni02C2" unicode="&#x2c2;" horiz-adv-x="376" 
d="M71 671v-2l252 -117v-22l-280 130v20l280 130v-22z" />
    <glyph glyph-name="uni02C3" unicode="&#x2c3;" horiz-adv-x="376" 
d="M305 671l-252 117v22l280 -130v-20l-280 -130v22l252 117v2z" />
    <glyph glyph-name="uni02C4" unicode="&#x2c4;" horiz-adv-x="376" 
d="M189 802h-2l-117 -252h-22l130 280h20l130 -280h-22z" />
    <glyph glyph-name="uni02C5" unicode="&#x2c5;" horiz-adv-x="376" 
d="M187 578h2l117 252h22l-130 -280h-20l-130 280h22z" />
    <glyph glyph-name="circumflex" unicode="&#x2c6;" horiz-adv-x="426" 
d="M378 590h-27l-137 146h-2l-137 -146h-27l150 160h30z" />
    <glyph glyph-name="caron" unicode="&#x2c7;" horiz-adv-x="426" 
d="M48 750h27l137 -146h2l137 146h27l-150 -160h-30z" />
    <glyph glyph-name="uni02C8" unicode="&#x2c8;" horiz-adv-x="306" 
d="M143 530v260h20v-260h-20z" />
    <glyph glyph-name="uni02C9" unicode="&#x2c9;" horiz-adv-x="456" 
d="M68 670v20h320v-20h-320z" />
    <glyph glyph-name="uni02CA" unicode="&#x2ca;" horiz-adv-x="276" 
d="M103 590h-25l120 160h25z" />
    <glyph glyph-name="uni02CB" unicode="&#x2cb;" horiz-adv-x="276" 
d="M173 590l-120 160h25l120 -160h-25z" />
    <glyph glyph-name="uni02CC" unicode="&#x2cc;" horiz-adv-x="306" 
d="M143 -220v260h20v-260h-20z" />
    <glyph glyph-name="uni02CD" unicode="&#x2cd;" horiz-adv-x="456" 
d="M68 -170v20h320v-20h-320z" />
    <glyph glyph-name="uni02CE" unicode="&#x2ce;" horiz-adv-x="276" 
d="M173 -220l-120 160h25l120 -160h-25z" />
    <glyph glyph-name="uni02CF" unicode="&#x2cf;" horiz-adv-x="276" 
d="M103 -220h-25l120 160h25z" />
    <glyph glyph-name="uni02D0" unicode="&#x2d0;" horiz-adv-x="386" 
d="M193 140l60 -140h-120zM193 360l-60 140h120z" />
    <glyph glyph-name="uni02D1" unicode="&#x2d1;" horiz-adv-x="386" 
d="M193 360l-60 140h120z" />
    <glyph glyph-name="uni02D2" unicode="&#x2d2;" horiz-adv-x="221" 
d="M63 300v20q37 0 63.5 26t26.5 64t-26.5 64t-63.5 26v20q46 0 78 -32t32 -78t-32 -78t-78 -32z" />
    <glyph glyph-name="uni02D3" unicode="&#x2d3;" horiz-adv-x="221" 
d="M158 300q-46 0 -78 32t-32 78t32 78t78 32v-20q-38 0 -64 -26t-26 -64t26 -64t64 -26v-20z" />
    <glyph glyph-name="uni02D4" unicode="&#x2d4;" horiz-adv-x="476" 
d="M398 230h-320v20h150v150h20v-150h150v-20z" />
    <glyph glyph-name="uni02D5" unicode="&#x2d5;" horiz-adv-x="476" 
d="M78 350h320v-20h-150v-150h-20v150h-150v20z" />
    <glyph glyph-name="uni02D6" unicode="&#x2d6;" horiz-adv-x="476" 
d="M398 300v-20h-150v-150h-20v150h-150v20h150v150h20v-150h150z" />
    <glyph glyph-name="uni02D7" unicode="&#x2d7;" horiz-adv-x="476" 
d="M78 280v20h320v-20h-320z" />
    <glyph glyph-name="breve" unicode="&#x2d8;" horiz-adv-x="426" 
d="M48 720h20q0 -38 41.5 -69t103.5 -31t103.5 31t41.5 69h20q0 -48 -47.5 -84t-117.5 -36t-117.5 36t-47.5 84z" />
    <glyph glyph-name="dotaccent" unicode="&#x2d9;" horiz-adv-x="226" 
d="M103 610v120h20v-120h-20z" />
    <glyph glyph-name="ring" unicode="&#x2da;" horiz-adv-x="316" 
d="M268 670q0 -46 -32 -78t-78 -32t-78 32t-32 78t32 78t78 32t78 -32t32 -78zM248 670q0 38 -26 64t-64 26t-64 -26t-26 -64t26 -64t64 -26t64 26t26 64z" />
    <glyph glyph-name="ogonek" unicode="&#x2db;" horiz-adv-x="365" 
d="M175 0h38q-53 -29 -81.5 -65t-28.5 -70q0 -65 108 -65q52 0 93 19l8 -18q-45 -21 -101 -21q-74 0 -101 26t-27 59q0 73 92 135z" />
    <glyph glyph-name="tilde" unicode="&#x2dc;" horiz-adv-x="466" 
d="M68 600q0 110 65 110q40 0 105 -46q62 -44 95 -44q45 0 45 80h20q0 -100 -65 -100q-41 0 -107 47q-59 43 -93 43q-45 0 -45 -90h-20z" />
    <glyph glyph-name="hungarumlaut" unicode="&#x2dd;" horiz-adv-x="371" 
d="M228 590h-25l120 160h25zM73 590h-25l120 160h25z" />
    <glyph glyph-name="uni02DE" unicode="&#x2de;" horiz-adv-x="411" 
d="M215 422l-167 -90v23l167 90h20v-135q0 -68 17 -91.5t53 -23.5q29 0 56 9l7 -18q-31 -11 -63 -11q-48 0 -69 31.5t-21 103.5v112z" />
    <glyph glyph-name="uni02DF" unicode="&#x2df;" horiz-adv-x="366" 
d="M289 810l14 -14l-106 -106l106 -106l-14 -14l-106 106l-106 -106l-14 14l106 106l-106 106l14 14l106 -106z" />
    <glyph glyph-name="uni02E0" unicode="&#x2e0;" horiz-adv-x="380" 
d="M236 217q0 33 -46 113q-46 -80 -46 -113q0 -43 46 -43t46 43zM190 154q-31 0 -48.5 17t-17.5 46q0 39 53 131l-134 256h23l124 -237l125 237h22l-134 -256q53 -92 53 -131q0 -29 -17.5 -46t-48.5 -17z" />
    <glyph glyph-name="uni02E1" unicode="&#x2e1;" horiz-adv-x="276" 
d="M128 292v450h20v-450h-20z" />
    <glyph glyph-name="uni02E2" unicode="&#x2e2;" horiz-adv-x="331" 
d="M163 286q-55 0 -105 30l10 17q44 -27 95 -27q43 0 67 17t24 47q0 29 -22 46.5t-71 27.5q-55 11 -79 31.5t-24 56.5q0 35 28.5 56.5t76.5 21.5q53 0 102 -24l-9 -18q-47 22 -93 22q-35 0 -60 -14t-25 -44q0 -25 18.5 -41t68.5 -27q57 -11 83 -33.5t26 -60.5
q0 -39 -30 -61.5t-81 -22.5z" />
    <glyph glyph-name="uni02E3" unicode="&#x2e3;" horiz-adv-x="358" 
d="M178 432l-100 -140h-25l114 157l-113 155h25l99 -138h2l99 138h25l-113 -155l114 -157h-25l-100 140h-2z" />
    <glyph glyph-name="uni02E4" unicode="&#x2e4;" horiz-adv-x="367" 
d="M58 625q0 51 37 81t101 30q65 0 123 -37l-10 -17q-55 34 -113 34q-55 0 -86.5 -24t-31.5 -67q0 -94 131 -97v-236h-20v217q-131 11 -131 116z" />
    <glyph glyph-name="uni02E5" unicode="&#x2e5;" horiz-adv-x="566" 
d="M453 710h-380v20h400v-730h-20v710z" />
    <glyph glyph-name="uni02E6" unicode="&#x2e6;" horiz-adv-x="566" 
d="M453 555h-380v20h380v155h20v-730h-20v555z" />
    <glyph glyph-name="uni02E7" unicode="&#x2e7;" horiz-adv-x="566" 
d="M453 355h-380v20h380v355h20v-730h-20v355z" />
    <glyph glyph-name="uni02E8" unicode="&#x2e8;" horiz-adv-x="566" 
d="M453 155h-380v20h380v555h20v-730h-20v155z" />
    <glyph glyph-name="uni02E9" unicode="&#x2e9;" horiz-adv-x="566" 
d="M73 0v20h380v710h20v-730h-400z" />
    <glyph glyph-name="uni02EA" unicode="&#x2ea;" horiz-adv-x="506" 
d="M438 0h-350v590h20v-570h330v-20z" />
    <glyph glyph-name="uni02EB" unicode="&#x2eb;" horiz-adv-x="506" 
d="M108 285v-285h-20v590h20v-285h330v-20h-330z" />
    <glyph glyph-name="uni02EC" unicode="&#x2ec;" horiz-adv-x="426" 
d="M48 0h27l137 -146h2l137 146h27l-150 -160h-30z" />
    <glyph glyph-name="uni02ED" unicode="&#x2ed;" horiz-adv-x="476" 
d="M78 740v20h320v-20h-320zM78 880v20h320v-20h-320z" />
    <glyph glyph-name="uni02EE" unicode="&#x2ee;" horiz-adv-x="336" 
d="M238 550v220h20v-220h-20zM78 550v220h20v-220h-20z" />
    <glyph glyph-name="uni02EF" unicode="&#x2ef;" horiz-adv-x="376" 
d="M187 -192h2l117 252h22l-130 -280h-20l-130 280h22z" />
    <glyph glyph-name="uni02F0" unicode="&#x2f0;" horiz-adv-x="376" 
d="M189 32h-2l-117 -252h-22l130 280h20l130 -280h-22z" />
    <glyph glyph-name="uni02F1" unicode="&#x2f1;" horiz-adv-x="416" 
d="M91 -99v-2l252 -117v-22l-280 130v20l280 130v-22z" />
    <glyph glyph-name="uni02F2" unicode="&#x2f2;" horiz-adv-x="416" 
d="M325 -99l-252 117v22l280 -130v-20l-280 -130v22l252 117v2z" />
    <glyph glyph-name="uni02F3" unicode="&#x2f3;" horiz-adv-x="316" 
d="M268 -150q0 -46 -32 -78t-78 -32t-78 32t-32 78t32 78t78 32t78 -32t32 -78zM248 -150q0 38 -26 64t-64 26t-64 -26t-26 -64t26 -64t64 -26t64 26t26 64z" />
    <glyph glyph-name="uni02F4" unicode="&#x2f4;" horiz-adv-x="276" 
d="M173 360l-120 160h25l120 -160h-25z" />
    <glyph glyph-name="uni02F5" unicode="&#x2f5;" horiz-adv-x="411" 
d="M163 360l-120 160h25l120 -160h-25zM318 360l-120 160h25l120 -160h-25z" />
    <glyph glyph-name="uni02F6" unicode="&#x2f6;" horiz-adv-x="411" 
d="M248 360h-25l120 160h25zM93 360h-25l120 160h25z" />
    <glyph glyph-name="uni02F7" unicode="&#x2f7;" horiz-adv-x="466" 
d="M68 -190q0 110 65 110q40 0 105 -46q62 -44 95 -44q45 0 45 80h20q0 -100 -65 -100q-41 0 -107 47q-59 43 -93 43q-45 0 -45 -90h-20z" />
    <glyph glyph-name="uni02F8" unicode="&#x2f8;" horiz-adv-x="286" 
d="M133 300v100h20v-100h-20zM133 550v100h20v-100h-20z" />
    <glyph glyph-name="uni02F9" unicode="&#x2f9;" horiz-adv-x="431" 
d="M348 750h-210v-260h-20v280h230v-20z" />
    <glyph glyph-name="uni02FA" unicode="&#x2fa;" horiz-adv-x="431" 
d="M83 750v20h230v-280h-20v260h-210z" />
    <glyph glyph-name="uni02FB" unicode="&#x2fb;" horiz-adv-x="431" 
d="M348 20v-20h-230v280h20v-260h210z" />
    <glyph glyph-name="uni02FC" unicode="&#x2fc;" horiz-adv-x="431" 
d="M83 20h210v260h20v-280h-230v20z" />
    <glyph glyph-name="uni02FD" unicode="&#x2fd;" horiz-adv-x="516" 
d="M98 -60v-140h320v140h20v-160h-360v160h20z" />
    <glyph glyph-name="uni02FE" unicode="&#x2fe;" horiz-adv-x="516" 
d="M98 -200h340v-20h-360v160h20v-140z" />
    <glyph glyph-name="uni02FF" unicode="&#x2ff;" horiz-adv-x="566" 
d="M488 -125v-20h-310v-50l-130 60l130 60v-50h310z" />
    <glyph glyph-name="gravecomb" unicode="&#x300;" horiz-adv-x="171" 
d="M133 590l-120 160h25l120 -160h-25z" />
    <glyph glyph-name="acutecomb" unicode="&#x301;" horiz-adv-x="171" 
d="M38 590h-25l120 160h25z" />
    <glyph glyph-name="uni0302" unicode="&#x302;" horiz-adv-x="356" 
d="M343 590h-27l-137 146h-2l-137 -146h-27l150 160h30z" />
    <glyph glyph-name="tildecomb" unicode="&#x303;" horiz-adv-x="356" 
d="M13 600q0 110 65 110q40 0 105 -46q62 -44 95 -44q45 0 45 80h20q0 -100 -65 -100q-41 0 -107 47q-59 43 -93 43q-45 0 -45 -90h-20z" />
    <glyph glyph-name="uni0304" unicode="&#x304;" horiz-adv-x="346" 
d="M13 670v20h320v-20h-320z" />
    <glyph glyph-name="uni0305" unicode="&#x305;" horiz-adv-x="586" 
d="M13 880v20h560v-20h-560z" />
    <glyph glyph-name="uni0306" unicode="&#x306;" horiz-adv-x="356" 
d="M13 720h20q0 -38 41.5 -69t103.5 -31t103.5 31t41.5 69h20q0 -48 -47.5 -84t-117.5 -36t-117.5 36t-47.5 84z" />
    <glyph glyph-name="uni0307" unicode="&#x307;" horiz-adv-x="46" 
d="M13 610v120h20v-120h-20z" />
    <glyph glyph-name="uni0308" unicode="&#x308;" horiz-adv-x="246" 
d="M213 610v120h20v-120h-20zM13 610v120h20v-120h-20z" />
    <glyph glyph-name="hookabovecomb" unicode="&#x309;" horiz-adv-x="288" 
d="M13 775q60 15 127 15q41 0 70 -6t42 -16t18 -19t5 -19q0 -20 -11.5 -36t-23.5 -23.5t-34 -18.5q-17 -8 -25.5 -13t-19.5 -14t-16 -20t-5 -25h-20q0 18 6 32.5t19.5 25.5t23.5 17t28 15q21 11 30 16.5t18.5 17t9.5 26.5q0 40 -115 40q-65 0 -122 -15z" />
    <glyph glyph-name="uni030A" unicode="&#x30a;" horiz-adv-x="246" 
d="M233 670q0 -46 -32 -78t-78 -32t-78 32t-32 78t32 78t78 32t78 -32t32 -78zM213 670q0 38 -26.5 64t-63.5 26t-63.5 -26t-26.5 -64t26.5 -64t63.5 -26t63.5 26t26.5 64z" />
    <glyph glyph-name="uni030B" unicode="&#x30b;" horiz-adv-x="326" 
d="M193 590h-25l120 160h25zM38 590h-25l120 160h25z" />
    <glyph glyph-name="uni030C" unicode="&#x30c;" horiz-adv-x="356" 
d="M13 750h27l137 -146h2l137 146h27l-150 -160h-30z" />
    <glyph glyph-name="uni030D" unicode="&#x30d;" horiz-adv-x="46" 
d="M13 530v260h20v-260h-20z" />
    <glyph glyph-name="uni030E" unicode="&#x30e;" horiz-adv-x="196" 
d="M163 530v260h20v-260h-20zM13 530v260h20v-260h-20z" />
    <glyph glyph-name="uni030F" unicode="&#x30f;" horiz-adv-x="326" 
d="M133 590l-120 160h25l120 -160h-25zM288 590l-120 160h25l120 -160h-25z" />
    <glyph glyph-name="uni0310" unicode="&#x310;" horiz-adv-x="356" 
d="M168 710v120h20v-120h-20zM13 720h20q0 -38 41.5 -69t103.5 -31t103.5 31t41.5 69h20q0 -48 -47.5 -84t-117.5 -36t-117.5 36t-47.5 84z" />
    <glyph glyph-name="uni0311" unicode="&#x311;" horiz-adv-x="356" 
d="M343 610h-20q0 38 -41.5 69t-103.5 31t-103.5 -31t-41.5 -69h-20q0 48 47.5 84t117.5 36q69 0 117 -36t48 -84z" />
    <glyph glyph-name="uni0312" unicode="&#x312;" horiz-adv-x="106" 
d="M33 590h-20q0 35 16 80.5t40 79.5h24q-24 -30 -42 -77.5t-18 -82.5z" />
    <glyph glyph-name="uni0313" unicode="&#x313;" horiz-adv-x="106" 
d="M73 750h20q0 -35 -16 -80.5t-40 -79.5h-24q24 30 42 77.5t18 82.5z" />
    <glyph glyph-name="uni0314" unicode="&#x314;" horiz-adv-x="106" 
d="M33 750q0 -35 18 -82.5t42 -77.5h-24q-24 34 -40 79.5t-16 80.5h20z" />
    <glyph glyph-name="uni0315" unicode="&#x315;" horiz-adv-x="106" 
d="M73 750h20q0 -35 -16 -80.5t-40 -79.5h-24q24 30 42 77.5t18 82.5z" />
    <glyph glyph-name="uni0316" unicode="&#x316;" horiz-adv-x="171" 
d="M133 -220l-120 160h25l120 -160h-25z" />
    <glyph glyph-name="uni0317" unicode="&#x317;" horiz-adv-x="171" 
d="M38 -220h-25l120 160h25z" />
    <glyph glyph-name="uni0318" unicode="&#x318;" horiz-adv-x="156" 
d="M143 -80v-240h-20v110h-110v20h110v110h20z" />
    <glyph glyph-name="uni0319" unicode="&#x319;" horiz-adv-x="156" 
d="M13 -80h20v-110h110v-20h-110v-110h-20v240z" />
    <glyph glyph-name="uni031A" unicode="&#x31a;" horiz-adv-x="256" 
d="M223 570v180h-210v20h230v-200h-20z" />
    <glyph glyph-name="uni031B" unicode="&#x31b;" horiz-adv-x="288" 
d="M13 775q60 15 127 15q41 0 70 -6t42 -16t18 -19t5 -19q0 -20 -11.5 -36t-23.5 -23.5t-34 -18.5q-17 -8 -25.5 -13t-19.5 -14t-16 -20t-5 -25h-20q0 18 6 32.5t19.5 25.5t23.5 17t28 15q21 11 30 16.5t18.5 17t9.5 26.5q0 40 -115 40q-65 0 -122 -15z" />
    <glyph glyph-name="uni031C" unicode="&#x31c;" horiz-adv-x="136" 
d="M123 -260q-46 0 -78 32t-32 78t32 78t78 32v-20q-37 0 -63.5 -26t-26.5 -64t26.5 -64t63.5 -26v-20z" />
    <glyph glyph-name="uni031D" unicode="&#x31d;" horiz-adv-x="266" 
d="M123 -80h20v-110h110v-20h-240v20h110v110z" />
    <glyph glyph-name="uni031E" unicode="&#x31e;" horiz-adv-x="266" 
d="M143 -220h-20v110h-110v20h240v-20h-110v-110z" />
    <glyph glyph-name="uni031F" unicode="&#x31f;" horiz-adv-x="266" 
d="M253 -210h-110v-110h-20v110h-110v20h110v110h20v-110h110v-20z" />
    <glyph glyph-name="uni0320" unicode="&#x320;" horiz-adv-x="296" 
d="M13 -160v20h270v-20h-270z" />
    <glyph glyph-name="uni0321" unicode="&#x321;" horiz-adv-x="246" 
d="M213 -80v135h20v-135q0 -78 -33.5 -114t-106.5 -36q-44 0 -80 15l7 19q34 -14 73 -14q64 0 92 30.5t28 99.5z" />
    <glyph glyph-name="uni0322" unicode="&#x322;" horiz-adv-x="246" 
d="M33 -80q0 -69 28 -99.5t92 -30.5q39 0 73 14l7 -19q-36 -15 -80 -15q-73 0 -106.5 36t-33.5 114v135h20v-135z" />
    <glyph glyph-name="dotbelowcomb" unicode="&#x323;" horiz-adv-x="46" 
d="M13 -200v120h20v-120h-20z" />
    <glyph glyph-name="uni0324" unicode="&#x324;" horiz-adv-x="246" 
d="M213 -200v120h20v-120h-20zM13 -200v120h20v-120h-20z" />
    <glyph glyph-name="uni0325" unicode="&#x325;" horiz-adv-x="246" 
d="M233 -150q0 -46 -32 -78t-78 -32t-78 32t-32 78t32 78t78 32t78 -32t32 -78zM213 -150q0 38 -26.5 64t-63.5 26t-63.5 -26t-26.5 -64t26.5 -64t63.5 -26t63.5 26t26.5 64z" />
    <glyph glyph-name="uni0326" unicode="&#x326;" horiz-adv-x="127" 
d="M93 0h21l-80 -220h-21z" />
    <glyph glyph-name="uni0327" unicode="&#x327;" horiz-adv-x="310" 
d="M229 0h27q41 -50 41 -105q0 -19 -6 -36.5t-22 -36.5t-51 -30.5t-86 -11.5q-67 0 -119 26l9 18q51 -24 110 -24q145 0 145 95q0 55 -48 105z" />
    <glyph glyph-name="uni0328" unicode="&#x328;" horiz-adv-x="255" 
d="M105 0h38q-53 -29 -81.5 -65t-28.5 -70q0 -65 108 -65q52 0 93 19l8 -18q-45 -21 -101 -21q-74 0 -101 26t-27 59q0 73 92 135z" />
    <glyph glyph-name="uni0329" unicode="&#x329;" horiz-adv-x="46" 
d="M13 -310v260h20v-260h-20z" />
    <glyph glyph-name="uni032A" unicode="&#x32a;" horiz-adv-x="386" 
d="M33 -80v-140h-20v160h360v-160h-20v140h-320z" />
    <glyph glyph-name="uni032B" unicode="&#x32b;" horiz-adv-x="446" 
d="M33 -110q0 -38 26.5 -64t63.5 -26t63.5 26t26.5 64h20q0 -38 26.5 -64t63.5 -26t63.5 26t26.5 64h20q0 -46 -32 -78t-78 -32q-33 0 -60 17.5t-40 46.5q-13 -29 -40 -46.5t-60 -17.5q-46 0 -78 32t-32 78h20z" />
    <glyph glyph-name="uni032C" unicode="&#x32c;" horiz-adv-x="356" 
d="M13 -60h27l137 -146h2l137 146h27l-150 -160h-30z" />
    <glyph glyph-name="uni032D" unicode="&#x32d;" horiz-adv-x="356" 
d="M343 -220h-27l-137 146h-2l-137 -146h-27l150 160h30z" />
    <glyph glyph-name="uni032E" unicode="&#x32e;" horiz-adv-x="356" 
d="M13 -80h20q0 -38 41.5 -69t103.5 -31t103.5 31t41.5 69h20q0 -48 -47.5 -84t-117.5 -36t-117.5 36t-47.5 84z" />
    <glyph glyph-name="uni032F" unicode="&#x32f;" horiz-adv-x="356" 
d="M343 -220h-20q0 38 -41.5 69t-103.5 31t-103.5 -31t-41.5 -69h-20q0 48 47.5 84t117.5 36q69 0 117 -36t48 -84z" />
    <glyph glyph-name="uni0330" unicode="&#x330;" horiz-adv-x="356" 
d="M13 -190q0 110 65 110q40 0 105 -46q62 -44 95 -44q45 0 45 80h20q0 -100 -65 -100q-41 0 -107 47q-59 43 -93 43q-45 0 -45 -90h-20z" />
    <glyph glyph-name="uni0331" unicode="&#x331;" horiz-adv-x="406" 
d="M13 -170v20h380v-20h-380z" />
    <glyph glyph-name="uni0332" unicode="&#x332;" horiz-adv-x="586" 
d="M13 -180v20h560v-20h-560z" />
    <glyph glyph-name="uni0333" unicode="&#x333;" horiz-adv-x="586" 
d="M13 -250v20h560v-20h-560zM13 -110v20h560v-20h-560z" />
    <glyph glyph-name="uni0334" unicode="&#x334;" horiz-adv-x="356" 
d="M13 240q0 110 65 110q40 0 105 -46q62 -44 95 -44q45 0 45 80h20q0 -100 -65 -100q-41 0 -107 47q-59 43 -93 43q-45 0 -45 -90h-20z" />
    <glyph glyph-name="uni0335" unicode="&#x335;" horiz-adv-x="446" 
d="M13 280v20h420v-20h-420z" />
    <glyph glyph-name="uni0336" unicode="&#x336;" horiz-adv-x="586" 
d="M13 280v20h560v-20h-560z" />
    <glyph glyph-name="uni0337" unicode="&#x337;" horiz-adv-x="560" 
d="M547 513l-520 -520l-14 14l520 520z" />
    <glyph glyph-name="uni0338" unicode="&#x338;" horiz-adv-x="601" 
d="M589 734l-560 -750l-16 12l560 750z" />
    <glyph glyph-name="uni0339" unicode="&#x339;" horiz-adv-x="136" 
d="M13 -260v20q37 0 63.5 26t26.5 64t-26.5 64t-63.5 26v20q46 0 78 -32t32 -78t-32 -78t-78 -32z" />
    <glyph glyph-name="uni033A" unicode="&#x33a;" horiz-adv-x="386" 
d="M33 -200h320v140h20v-160h-360v160h20v-140z" />
    <glyph glyph-name="uni033B" unicode="&#x33b;" horiz-adv-x="386" 
d="M33 -80v-120h320v120h-320zM373 -80v-140h-360v160h360v-20z" />
    <glyph glyph-name="uni033C" unicode="&#x33c;" horiz-adv-x="446" 
d="M413 -220q0 38 -26.5 64t-63.5 26t-63.5 -26t-26.5 -64h-20q0 38 -26.5 64t-63.5 26t-63.5 -26t-26.5 -64h-20q0 46 32 78t78 32q33 0 60 -17.5t40 -46.5q13 29 40 46.5t60 17.5q46 0 78 -32t32 -78h-20z" />
    <glyph glyph-name="uni033D" unicode="&#x33d;" horiz-adv-x="209" 
d="M197 748l-78 -78l78 -78l-14 -14l-78 78l-78 -78l-14 14l78 78l-78 78l14 14l78 -78l78 78z" />
    <glyph glyph-name="uni033E" unicode="&#x33e;" horiz-adv-x="136" 
d="M13 600v20q90 0 90 45q0 34 -43 93q-47 66 -47 107q0 65 100 65v-20q-80 0 -80 -45q0 -33 44 -95q46 -65 46 -105q0 -65 -110 -65z" />
    <glyph glyph-name="uni033F" unicode="&#x33f;" horiz-adv-x="586" 
d="M13 740v20h560v-20h-560zM13 880v20h560v-20h-560z" />
    <glyph glyph-name="uni0340" unicode="&#x340;" horiz-adv-x="171" 
d="M133 590l-120 160h25l120 -160h-25z" />
    <glyph glyph-name="uni0341" unicode="&#x341;" horiz-adv-x="171" 
d="M38 590h-25l120 160h25z" />
    <glyph glyph-name="uni0342" unicode="&#x342;" horiz-adv-x="356" 
d="M13 600q0 110 65 110q40 0 105 -46q62 -44 95 -44q45 0 45 80h20q0 -100 -65 -100q-41 0 -107 47q-59 43 -93 43q-45 0 -45 -90h-20z" />
    <glyph glyph-name="uni0343" unicode="&#x343;" horiz-adv-x="127" 
d="M34 550h-21l80 220h21z" />
    <glyph glyph-name="uni0344" unicode="&#x344;" horiz-adv-x="251" 
d="M118 790h-25l120 160h25zM213 610v120h20v-120h-20zM13 610v120h20v-120h-20z" />
    <glyph glyph-name="uni0345" unicode="&#x345;" horiz-adv-x="206" 
d="M13 -120v60h20v-60q0 -77 12 -93.5t68 -16.5q39 0 73 14l7 -19q-36 -15 -80 -15q-66 0 -83 23.5t-17 106.5z" />
    <glyph glyph-name="uni0346" unicode="&#x346;" horiz-adv-x="386" 
d="M353 610v140h-320v-140h-20v160h360v-160h-20z" />
    <glyph glyph-name="uni0347" unicode="&#x347;" horiz-adv-x="406" 
d="M13 -250v20h380v-20h-380zM13 -110v20h380v-20h-380z" />
    <glyph glyph-name="uni0351" unicode="&#x351;" horiz-adv-x="136" 
d="M123 560q-46 0 -78 32t-32 78t32 78t78 32v-20q-37 0 -63.5 -26t-26.5 -64t26.5 -64t63.5 -26v-20z" />
    <glyph glyph-name="uni0352" unicode="&#x352;" horiz-adv-x="356" 
d="M168 600v120h20v-120h-20zM13 710q0 48 47.5 84t117.5 36t117.5 -36t47.5 -84h-20q0 38 -41.5 69t-103.5 31t-103.5 -31t-41.5 -69h-20z" />
    <glyph glyph-name="uni0353" unicode="&#x353;" horiz-adv-x="209" 
d="M197 -42l-78 -78l78 -78l-14 -14l-78 78l-78 -78l-14 14l78 78l-78 78l14 14l78 -78l78 78z" />
    <glyph glyph-name="uni0357" unicode="&#x357;" horiz-adv-x="136" 
d="M13 560v20q37 0 63.5 26t26.5 64t-26.5 64t-63.5 26v20q46 0 78 -32t32 -78t-32 -78t-78 -32z" />
    <glyph glyph-name="uni0358" unicode="&#x358;" horiz-adv-x="46" 
d="M13 610v120h20v-120h-20z" />
    <glyph glyph-name="uni035C" unicode="&#x35c;" horiz-adv-x="826" 
d="M413 -210q221 0 400 130v-24q-180 -126 -400 -126t-400 126v24q179 -130 400 -130z" />
    <glyph glyph-name="uni035D" unicode="&#x35d;" horiz-adv-x="826" 
d="M413 805q221 0 400 130v-24q-180 -126 -400 -126t-400 126v24q179 -130 400 -130z" />
    <glyph glyph-name="uni035E" unicode="&#x35e;" horiz-adv-x="786" 
d="M13 880v20h760v-20h-760z" />
    <glyph glyph-name="uni035F" unicode="&#x35f;" horiz-adv-x="786" 
d="M13 -170v20h760v-20h-760z" />
    <glyph glyph-name="uni0361" unicode="&#x361;" horiz-adv-x="826" 
d="M413 885q-221 0 -400 -130v24q180 126 400 126t400 -126v-24q-179 130 -400 130z" />
    <glyph glyph-name="uni0370" unicode="&#x370;" horiz-adv-x="566" 
d="M513 410v-20h-400v-390h-20v730h20v-320h400z" />
    <glyph glyph-name="uni0371" unicode="&#x371;" horiz-adv-x="436" 
d="M383 295v-20h-280v-275h-20v520h20v-225h280z" />
    <glyph glyph-name="uni0372" unicode="&#x372;" horiz-adv-x="706" 
d="M343 710h-250v-320h-20v340h560v-340h-20v320h-250v-710h-20v710z" />
    <glyph glyph-name="uni0373" unicode="&#x373;" horiz-adv-x="576" 
d="M278 710h-190v-220h-20v240h440v-240h-20v220h-190v-710h-20v710z" />
    <glyph glyph-name="uni0374" unicode="&#x374;" horiz-adv-x="232" 
d="M99 550h-21l80 220h21z" />
    <glyph glyph-name="uni0375" unicode="&#x375;" horiz-adv-x="232" 
d="M74 -110h-21l80 220h21z" />
    <glyph glyph-name="uni0376" unicode="&#x376;" horiz-adv-x="696" 
d="M113 21h2l456 709h32v-730h-20v709h-2l-456 -709h-32v730h20v-709z" />
    <glyph glyph-name="uni0377" unicode="&#x377;" horiz-adv-x="594" 
d="M103 23h2l378 497h28v-520h-20v497h-1l-378 -497h-29v520h20v-497z" />
    <glyph glyph-name="uni037A" unicode="&#x37a;" horiz-adv-x="326" 
d="M93 -120v60h20v-60q0 -77 12 -93.5t68 -16.5q39 0 73 14l7 -19q-36 -15 -80 -15q-66 0 -83 23.5t-17 106.5z" />
    </font>
</defs>
</svg>
