<?xml version="1.0" standalone="no"?>
<!DOCTYPE svg PUBLIC "-//W3C//DTD SVG 1.1//EN" "http://www.w3.org/Graphics/SVG/1.1/DTD/svg11.dtd" >
<svg xmlns="http://www.w3.org/2000/svg" width="100%" height="100%">
<metadata>
Created by FontXChange 20110222 at Wed Aug 26 13:43:07 2015
 By helix
Copyright(c) 2012 M+ FONTS PROJECT
</metadata>
<defs>
<font id="mplus-1p-light" horiz-adv-x="1000" >
  <font-face 
    font-family="mplus"
    font-weight="200"
    font-stretch="normal"
    units-per-em="1000"
    panose-1="2 11 4 3 2 2 3 2 2 7"
    ascent="860"
    descent="-140"
    x-height="520"
    cap-height="730"
    bbox="-119 -342 1395 1075"
    underline-thickness="50"
    underline-position="-100"
    unicode-range="U+0020-26ED9"
  />
<missing-glyph 
d="M66 33h199v600h-199v-600zM33 0v666h265v-666h-265z" />
    <glyph glyph-name="uni304B_uni309A.liga" unicode="&#x304b;&#x309a;" 
d="M908 154q-77 191 -188 380l42 20q114 -192 190 -385zM665 352q0 -181 -43 -280t-105 -99q-77 0 -199 58l17 42q113 -53 175 -53q18 0 36 20.5t34.5 59.5t26.5 106t10 151v63.5t-3 46t-4.5 35t-12.5 21.5t-17.5 15t-28.5 5.5t-37 3.5h-51h-114q-81 -314 -208 -579l-43 18
q126 264 203 561h-193v43h204q25 101 46 216l45 -5q-20 -115 -43 -211h97h67.5t50 -5t37.5 -9t24 -19t16.5 -27.5t8 -43t4.5 -57v-77.5zM898 693q0 34 -23.5 58t-57.5 24t-58 -24t-24 -58t24 -57.5t58 -23.5t57.5 23.5t23.5 57.5zM937 693q0 -49 -35.5 -84.5t-84.5 -35.5
t-84.5 35.5t-35.5 84.5t35.5 84.5t84.5 35.5t84.5 -35.5t35.5 -84.5z" />
    <glyph glyph-name="uni304D_uni309A.liga" unicode="&#x304d;&#x309a;" 
d="M883 485l1 -42q-77 -4 -233 -10q37 -86 105 -188l-40 -31q-147 67 -279 67q-110 0 -166.5 -34t-56.5 -97q0 -81 74.5 -121t233.5 -40q108 0 230 20l6 -42q-113 -20 -236 -20q-358 0 -358 203q0 32 12.5 60t41 54.5t85 42t134.5 15.5q119 0 246 -51l1 1q-45 75 -81 160
q-256 -9 -507 -9v42q227 0 491 8q-26 72 -43 149q-227 -8 -414 -8v41q182 0 406 8q-9 51 -14 126l47 3q7 -84 15 -127q106 4 159 7q-6 18 -6 38q0 50 35.5 85t84.5 35t84.5 -35t35.5 -85t-35.5 -85t-84.5 -35q-55 0 -91 42q-116 -6 -174 -8q17 -79 43 -149q166 6 248 10z
M938 710q0 34 -23.5 58t-57.5 24t-58 -24t-24 -58t24 -58t58 -24t57.5 24t23.5 58z" />
    <glyph glyph-name="uni304F_uni309A.liga" unicode="&#x304f;&#x309a;" 
d="M660 765q-205 -172 -385 -295q-59 -41 -74.5 -56t-15.5 -34q0 -18 13 -31t65 -49q204 -143 428 -347l-32 -36q-218 197 -425 344q-66 46 -84 66t-18 53q0 35 20 56t93 71q182 125 386 296zM813 480q0 36 -25 61.5t-61 25.5t-61.5 -25.5t-25.5 -61.5t25.5 -61.5
t61.5 -25.5t61 25.5t25 61.5zM853 480q0 -53 -37 -90t-89 -37q-53 0 -90 37.5t-37 89.5t37 89.5t90 37.5q52 0 89 -37t37 -90z" />
    <glyph glyph-name="uni3051_uni309A.liga" unicode="&#x3051;&#x309a;" 
d="M922 525h-204v-163q0 -110 -10 -176t-40 -114.5t-78 -74t-131 -47.5l-14 43q61 16 95.5 31.5t63.5 39.5t42 63t19.5 94t6.5 141v163h-329v43h329v199h46v-199h204v-43zM152 353q0 -216 49 -398l-47 -7q-51 192 -51 405q0 214 51 406l47 -8q-49 -182 -49 -398zM990 720
q0 -50 -35 -85t-85 -35t-85 35t-35 85t35 85t85 35t85 -35t35 -85zM952 720q0 34 -24 58t-58 24t-58 -24t-24 -58t24 -58t58 -24t58 24t24 58z" />
    <glyph glyph-name="uni3053_uni309A.liga" unicode="&#x3053;&#x309a;" 
d="M264 406l34 -30q-124 -119 -124 -194t87.5 -119.5t236.5 -44.5q79 0 174.5 12.5t154.5 29.5l10 -45q-59 -18 -157 -30t-182 -12q-171 0 -272 56t-101 149t139 228zM215 682v45h560v-45h-560zM900 450q0 36 -25.5 61.5t-61.5 25.5t-61 -25.5t-25 -61.5t25 -61.5t61 -25.5
t61.5 25.5t25.5 61.5zM940 450q0 -52 -37 -89.5t-90 -37.5q-52 0 -89 37t-37 90t37 90t89 37q53 0 90 -37.5t37 -89.5z" />
    <glyph glyph-name="uni30AB_uni309A.liga" unicode="&#x30ab;&#x309a;" 
d="M377 613q5 90 5 177h47q0 -105 -4 -177h342q-37 35 -37 87q0 50 35 85t85 35t85 -35t35 -85t-35 -85t-85 -35q-14 0 -27 3q0 -198 -7 -314t-27 -181t-47.5 -85t-75.5 -20q-88 0 -184 11l5 46q98 -10 169 -10q46 0 68.5 31.5t35.5 148t13 352.5v6h-351q-16 -229 -81 -362
t-208 -241l-30 35q87 66 138.5 131.5t86 172.5t46.5 264h-264v45h267zM932 700q0 34 -24 58t-58 24t-58 -24t-24 -58t24 -58t58 -24t58 24t24 58z" />
    <glyph glyph-name="uni30AD_uni309A.liga" unicode="&#x30ad;&#x309a;" 
d="M893 282l1 -45l-369 -12l22 -295l-50 -4l-23 297l-387 -12l-1 45l385 12l-21 274l-323 -11l-1 45l321 11l-14 183l50 4l14 -185l325 11q-30 14 -49.5 43t-19.5 64q0 48 34.5 82t82.5 34t82.5 -34t34.5 -82t-34.5 -82.5t-82.5 -34.5q-11 0 -17 1l1 -35l-353 -12l20 -274z
M948 707q0 32 -23 55t-55 23t-55 -23t-23 -55t23 -55.5t55 -23.5t55 23.5t23 55.5z" />
    <glyph glyph-name="uni30AF_uni309A.liga" unicode="&#x30af;&#x309a;" 
d="M133 310l-34 31q187 172 216 432l47 -4q-6 -55 -20 -114h419q-28 33 -28 75q0 48 34.5 82.5t82.5 34.5t82.5 -34.5t34.5 -82.5t-34.5 -82.5t-82.5 -34.5q-24 0 -47 10q-5 -309 -161.5 -465.5t-492.5 -185.5l-6 45q316 29 459.5 167.5t150.5 425.5h-424
q-57 -173 -196 -300zM928 730q0 32 -23 55t-55 23t-55 -23t-23 -55t23 -55t55 -23t55 23t23 55z" />
    <glyph glyph-name="uni30B1_uni309A.liga" unicode="&#x30b1;&#x309a;" 
d="M918 563h-266q-1 -276 -94 -415.5t-301 -182.5l-13 44q190 39 273.5 167t84.5 387h-358q-49 -136 -149 -248l-38 27q158 179 185 432l47 -3q-9 -91 -31 -163h558q-28 15 -45.5 43t-17.5 61q0 48 34.5 82t82.5 34t82.5 -34t34.5 -82q0 -35 -19.5 -64t-49.5 -43v-42z
M948 712q0 32 -23 55t-55 23t-55 -23t-23 -55t23 -55.5t55 -23.5t55 23.5t23 55.5z" />
    <glyph glyph-name="uni30B3_uni309A.liga" unicode="&#x30b3;&#x309a;" 
d="M748 63v555h-631v45h642q-21 31 -21 67q0 48 34.5 82.5t82.5 34.5t82.5 -34.5t34.5 -82.5t-34.5 -82.5t-82.5 -34.5q-31 0 -58 16v-611h-680v45h631zM933 730q0 32 -23 55t-55 23t-55 -23t-23 -55t23 -55t55 -23t55 23t23 55z" />
    <glyph glyph-name="uni30BB_uni309A.liga" unicode="&#x30bb;&#x309a;" 
d="M338 519l484 84q-31 14 -50 43t-19 64q0 48 34.5 82.5t82.5 34.5t82.5 -34.5t34.5 -82.5q0 -40 -25 -71.5t-63 -41.5l4 -27q-27 -102 -95.5 -194t-160.5 -150l-29 37q81 51 142.5 130t90.5 168l-513 -89v-253q0 -46 2 -74t10 -51.5t19 -34.5t34.5 -19t50.5 -10t73 -2
q179 0 354 25l3 -45q-183 -25 -365 -25q-76 0 -117.5 8t-68.5 34.5t-35 68.5t-8 118v252l-234 -41l-7 46l241 42v252h48v-244zM948 710q0 32 -23 55t-55 23t-55 -23t-23 -55t23 -55t55 -23t55 23t23 55z" />
    <glyph glyph-name="uni30C4_uni309A.liga" unicode="&#x30c4;&#x309a;" 
d="M436 709q47 -165 90 -349l-48 -10q-40 172 -90 348zM157 671q42 -138 90 -331l-48 -11q-53 212 -89 330zM946 710q0 32 -23 55t-55 23t-55.5 -23t-23.5 -55t23.5 -55t55.5 -23t55 23t23 55zM984 710q0 -48 -33.5 -82t-80.5 -35q-30 -295 -169 -437.5t-440 -190.5l-9 46
q286 47 414 179.5t156 412.5q-32 14 -51.5 42.5t-19.5 64.5q0 48 34.5 82.5t82.5 34.5t82 -34.5t34 -82.5z" />
    <glyph glyph-name="uni30C8_uni309A.liga" unicode="&#x30c8;&#x309a;" 
d="M854 236q-289 109 -551 171v-460h-50v806h50v-296q272 -64 567 -176zM797 643q0 32 -23.5 55.5t-55.5 23.5t-55 -23.5t-23 -55.5t23 -55t55 -23t55.5 23t23.5 55zM835 643q0 -48 -34.5 -82t-82.5 -34t-82 34t-34 82t34 82.5t82 34.5t82.5 -34.5t34.5 -82.5z" />
    <glyph glyph-name="uni31F7_uni309A.liga" unicode="&#x31f7;&#x309a;" 
d="M879 601q0 32 -23 55t-55 23t-55.5 -23t-23.5 -55t23.5 -55.5t55.5 -23.5t55 23.5t23 55.5zM918 601q0 -48 -34.5 -82.5t-82.5 -34.5q-23 0 -46 10q-10 -237 -134 -363.5t-371 -154.5l-8 44q234 27 346 144t119 343h-540v45h528q-11 24 -11 49q0 48 34.5 82.5t82.5 34.5
t82.5 -34.5t34.5 -82.5z" />
    <glyph glyph-name="uniFB00" unicode="ff" horiz-adv-x="780" 
d="M212 460v-460h-47v460h-107v40h107v78q0 83 37.5 122.5t115.5 39.5q45 0 87 -15l-12 -39q-34 14 -72 14q-59 0 -84 -28t-25 -94v-78h256v78q0 83 37.5 122.5t115.5 39.5q45 0 87 -15l-12 -39q-34 14 -72 14q-59 0 -84 -28t-25 -94v-78h189v-40h-189v-460h-47v460h-256z
" />
    <glyph glyph-name="uniFB01" unicode="fi" horiz-adv-x="604" 
d="M473 640v110h48v-110h-48zM212 500h309v-500h-48v460h-261v-460h-47v460h-107v40h107v78q0 83 37.5 122.5t115.5 39.5q45 0 87 -15l-12 -39q-34 14 -72 14q-59 0 -84 -28t-25 -94v-78z" />
    <glyph glyph-name="uniFB02" unicode="fl" horiz-adv-x="604" 
d="M473 685q-75 15 -144 15q-63 0 -90 -28.5t-27 -93.5v-78h179v-40h-179v-460h-47v460h-107v40h107v78q0 162 164 162q98 0 192 -23v-717h-48v685z" />
    <glyph glyph-name="uniFB03" unicode="ffi" horiz-adv-x="888" 
d="M757 640v110h49v-110h-49zM508 500h298v-500h-49v460h-249v-460h-47v460h-249v-460h-47v460h-107v40h107v78q0 83 37.5 122.5t115.5 39.5q45 0 87 -15l-12 -39q-34 14 -72 14q-59 0 -84 -28t-25 -94v-78h249v78q0 83 37.5 122.5t115.5 39.5q45 0 87 -15l-12 -39
q-34 14 -71 14q-59 0 -84.5 -28t-25.5 -94v-78z" />
    <glyph glyph-name="uniFB04" unicode="ffl" horiz-adv-x="888" 
d="M623 700q-62 0 -88.5 -28.5t-26.5 -93.5v-78h168v-40h-168v-460h-47v460h-249v-460h-47v460h-107v40h107v78q0 83 37.5 122.5t115.5 39.5q45 0 87 -15l-12 -39q-34 14 -72 14q-59 0 -84 -28t-25 -94v-78h249v78q0 162 162 162q93 0 183 -23v-717h-49v685q-72 15 -134 15z
" />
    <glyph glyph-name=".notdef" 
d="M66 33h199v600h-199v-600zM33 0v666h265v-666h-265z" />
    <glyph glyph-name="glyph1" horiz-adv-x="0" 
 />
    <glyph glyph-name="glyph2" horiz-adv-x="333" 
 />
    <glyph glyph-name="space" unicode=" " horiz-adv-x="283" 
 />
    <glyph glyph-name="exclam" unicode="!" horiz-adv-x="332" 
d="M138 730h57l-5 -533h-47zM140 0v117h53v-117h-53z" />
    <glyph glyph-name="quotedbl" unicode="&#x22;" horiz-adv-x="366" 
d="M73 770h50l-5 -233h-40zM243 770h50l-5 -233h-40z" />
    <glyph glyph-name="numbersign" unicode="#" horiz-adv-x="671" 
d="M53 203v42h127l46 260h-121v42h128l33 183h46l-32 -183h173l33 183h46l-32 -183h118v-42h-125l-46 -260h119v-42h-127l-36 -203h-47l36 203h-173l-36 -203h-47l36 203h-119zM446 505h-173l-46 -260h173z" />
    <glyph glyph-name="dollar" unicode="$" horiz-adv-x="596" 
d="M312 672v-278q116 -25 166 -72t50 -127q0 -81 -56 -128.5t-160 -51.5v-100h-42v100q-109 4 -212 55l14 41q96 -49 198 -53v299q-108 24 -156.5 70t-48.5 120q0 76 53 120t152 48v100h42v-100q97 -3 199 -40l-13 -42q-93 36 -186 39zM312 58q81 4 124.5 39.5t43.5 97.5
t-39 98t-129 56v-291zM270 672q-78 -3 -118 -35t-40 -90q0 -57 37 -91.5t121 -53.5v270z" />
    <glyph glyph-name="percent" unicode="%" horiz-adv-x="829" 
d="M597 730h53l-418 -730h-52zM625 327q-54 0 -84 -38.5t-30 -110.5t30 -110t84 -38t83.5 38t29.5 110t-29.5 110.5t-83.5 38.5zM205 700q-54 0 -84 -38t-30 -110t30 -110.5t84 -38.5t83.5 38.5t29.5 110.5t-29.5 110t-83.5 38zM625 -10q-77 0 -119.5 49.5t-42.5 138.5
t42.5 139t119.5 50q76 0 118.5 -50t42.5 -139t-42.5 -138.5t-118.5 -49.5zM205 363q-77 0 -119.5 50t-42.5 139t42.5 138.5t119.5 49.5q76 0 118.5 -49.5t42.5 -138.5t-42.5 -139t-118.5 -50z" />
    <glyph glyph-name="ampersand" unicode="&#x26;" horiz-adv-x="694" 
d="M277 375q-94 -61 -134 -108.5t-40 -94.5q0 -67 46.5 -103.5t131.5 -36.5q71 0 125 21.5t104 70.5zM317 401l208 -226v249h47v-300l114 -124h-61l-82 89q-115 -99 -263 -99q-110 0 -168.5 47t-58.5 133q0 58 44.5 112.5t150.5 124.5l-14 15q-56 61 -78.5 102t-22.5 83
q0 60 47 96.5t126 36.5q82 0 127 -35t45 -97q0 -55 -34 -99.5t-127 -107.5zM287 433q88 60 116 95.5t28 78.5q0 44 -32.5 68t-92.5 24q-57 0 -90.5 -25.5t-33.5 -66.5q0 -34 19 -68t82 -102z" />
    <glyph glyph-name="quotesingle" unicode="'" horiz-adv-x="209" 
d="M78 770h53l-5 -233h-43z" />
    <glyph glyph-name="parenleft" unicode="(" horiz-adv-x="361" 
d="M73 322q0 272 187 448h53q-192 -177 -192 -448q0 -270 192 -447h-53q-187 176 -187 447z" />
    <glyph glyph-name="parenright" unicode=")" horiz-adv-x="361" 
d="M288 322q0 -271 -187 -447h-53q192 177 192 447q0 271 -192 448h53q187 -176 187 -448z" />
    <glyph glyph-name="asterisk" unicode="*" horiz-adv-x="522" 
d="M469 584l-176 -56l110 -149l-34 -25l-108 150l-108 -150l-33 25l109 149l-176 56l13 39l175 -58l-1 185h42l-1 -185l175 58z" />
    <glyph glyph-name="plus" unicode="+" horiz-adv-x="732" 
d="M388 580v-269h262v-42h-262v-269h-43v269h-262v42h262v269h43z" />
    <glyph glyph-name="comma" unicode="," horiz-adv-x="273" 
d="M140 123h61l-90 -233h-48z" />
    <glyph glyph-name="hyphen" unicode="-" horiz-adv-x="449" 
d="M83 269v42h283v-42h-283z" />
    <glyph glyph-name="period" unicode="." horiz-adv-x="252" 
d="M98 0v130h57v-130h-57z" />
    <glyph glyph-name="slash" unicode="/" horiz-adv-x="484" 
d="M431 730l-343 -770h-50l344 770h49z" />
    <glyph glyph-name="zero" unicode="0" horiz-adv-x="610" 
d="M305 740q257 0 257 -375t-257 -375t-257 375t257 375zM305 33q207 0 207 332t-207 332t-207 -332t207 -332z" />
    <glyph glyph-name="one" unicode="1" horiz-adv-x="610" 
d="M318 0v668h-2l-205 -194l-23 39l230 217h50v-730h-50z" />
    <glyph glyph-name="two" unicode="2" horiz-adv-x="610" 
d="M295 696q-48 0 -104 -19.5t-101 -52.5l-18 39q46 35 108 56t120 21q102 0 159 -53.5t57 -149.5q0 -97 -78.5 -204.5t-285.5 -287.5v-2h370v-43h-440v43q222 190 302.5 296t80.5 194q0 78 -44 120.5t-126 42.5z" />
    <glyph glyph-name="three" unicode="3" horiz-adv-x="610" 
d="M85 730h427v-43l-265 -262v-2h42q114 0 173.5 -51t59.5 -149q0 -114 -65 -173.5t-190 -59.5q-104 0 -185 53l17 41q79 -51 168 -51q205 0 205 190q0 81 -51.5 120.5t-161.5 39.5h-77v42l264 260v2h-361v43z" />
    <glyph glyph-name="four" unicode="4" horiz-adv-x="610" 
d="M380 223v431h-2l-310 -429v-2h312zM429 223h133v-43h-133v-180h-49v180h-365v43l365 507h49v-507z" />
    <glyph glyph-name="five" unicode="5" horiz-adv-x="610" 
d="M498 687h-325l-19 -274h2q63 40 142 40q110 0 170 -57t60 -161q0 -119 -65.5 -182t-190.5 -63q-101 0 -187 52l16 41q83 -50 171 -50q101 0 153.5 51t52.5 151q0 86 -47.5 131t-138.5 45q-82 0 -143 -48h-46l24 367h371v-43z" />
    <glyph glyph-name="six" unicode="6" horiz-adv-x="610" 
d="M307 444q-83 0 -142 -57t-59 -137q0 -102 54 -159.5t147 -57.5q94 0 147.5 57.5t53.5 159.5q0 88 -55 141t-146 53zM307 -10q-116 0 -184 72t-68 200q0 204 95.5 331t262.5 147l8 -43q-124 -16 -202.5 -96t-104.5 -214l2 -1q70 99 199 99q110 0 176.5 -64.5t66.5 -170.5
q0 -119 -68 -189.5t-183 -70.5z" />
    <glyph glyph-name="seven" unicode="7" horiz-adv-x="610" 
d="M77 730h460v-43q-178 -293 -300 -687h-52q123 389 301 685v2h-409v43z" />
    <glyph glyph-name="eight" unicode="8" horiz-adv-x="610" 
d="M305 740q106 0 167.5 -46.5t61.5 -123.5q0 -62 -40.5 -108t-114.5 -69v-2q183 -48 183 -198q0 -94 -68.5 -148.5t-188.5 -54.5t-188.5 54.5t-68.5 148.5q0 71 46.5 121t136.5 74v2q-74 23 -114.5 70t-40.5 110q0 77 61.5 123.5t167.5 46.5zM305 410q85 15 133.5 57
t48.5 100q0 60 -49 95.5t-133 35.5t-132 -35.5t-48 -95.5q0 -59 47.5 -101t132.5 -56zM303 368q-207 -36 -207 -173q0 -76 56 -119.5t153 -43.5q96 0 151.5 44t55.5 119q0 138 -209 173z" />
    <glyph glyph-name="nine" unicode="9" horiz-adv-x="610" 
d="M180 33q261 35 316 312h-2q-69 -100 -199 -100q-110 0 -176.5 65.5t-66.5 174.5q0 116 68 185.5t183 69.5q117 0 184.5 -71t67.5 -196q0 -210 -96.5 -336t-270.5 -147zM303 697q-94 0 -147.5 -56.5t-53.5 -155.5q0 -91 55 -145t146 -54q83 0 142 58t59 141
q0 99 -53.5 155.5t-147.5 56.5z" />
    <glyph glyph-name="colon" unicode=":" horiz-adv-x="332" 
d="M138 383v130h57v-130h-57zM138 0v130h57v-130h-57z" />
    <glyph glyph-name="semicolon" unicode=";" horiz-adv-x="353" 
d="M83 -110l77 233h61l-90 -233h-48zM150 383v130h56v-130h-56z" />
    <glyph glyph-name="less" unicode="&#x3c;" horiz-adv-x="659" 
d="M561 510l-459 -219v-2l459 -219v-47l-493 240v54l493 240v-47z" />
    <glyph glyph-name="equal" unicode="=" horiz-adv-x="752" 
d="M93 382v41h567v-41h-567zM93 157v41h567v-41h-567z" />
    <glyph glyph-name="greater" unicode="&#x3e;" horiz-adv-x="659" 
d="M98 510v47l493 -240v-54l-493 -240v47l460 219v2z" />
    <glyph glyph-name="question" unicode="?" horiz-adv-x="608" 
d="M488 580q0 55 -50 85.5t-145 30.5q-103 0 -214 -35l-11 44q109 35 230 35q115 0 178.5 -42t63.5 -115q0 -36 -10 -65t-33 -52.5t-39.5 -36.5t-48.5 -34q-34 -22 -51.5 -35.5t-40 -38t-32.5 -54.5t-10 -69h-50q0 44 12 79.5t37 63t44 42t53 37.5q30 20 45 31.5t35 31.5
t28.5 43.5t8.5 53.5zM223 0v117h54v-117h-54z" />
    <glyph glyph-name="at" unicode="@" horiz-adv-x="822" 
d="M698 93q42 75 42 167q0 147 -91 237.5t-238 90.5q-145 0 -236.5 -91.5t-91.5 -236.5t91.5 -236.5t236.5 -91.5q112 0 193 57l24 -33q-93 -64 -217 -64q-161 0 -264.5 102.5t-103.5 265.5q0 162 103.5 265t264.5 103q165 0 267 -101.5t102 -266.5q0 -118 -58 -207h-193v58
h-2q-27 -37 -59.5 -52.5t-81.5 -15.5q-77 0 -122.5 57.5t-45.5 159.5t45 159.5t123 57.5q49 0 81 -15.5t60 -52.5h2v58h49v-374h120zM267 260q0 -83 34.5 -128.5t95.5 -45.5t95.5 41.5t34.5 117.5v30q0 76 -34.5 117.5t-95.5 41.5q-60 0 -95 -46t-35 -128z" />
    <glyph glyph-name="A" unicode="A" horiz-adv-x="682" 
d="M38 0l273 730h60l274 -730h-54l-84 231h-333l-84 -231h-52zM190 273h302l-150 413h-2z" />
    <glyph glyph-name="B" unicode="B" horiz-adv-x="587" 
d="M251 697q-56 0 -113 -11v-269h93q113 0 171 37.5t58 107.5q0 135 -209 135zM545 210q0 -97 -65.5 -158.5t-218.5 -61.5q-96 0 -173 16v718q80 16 163 16q257 0 257 -173q0 -63 -40 -106.5t-111 -60.5v-2q92 -15 140 -63t48 -125zM495 213q0 82 -64 122t-200 40h-93v-331
q61 -11 123 -11q234 0 234 180z" />
    <glyph glyph-name="C" unicode="C" horiz-adv-x="691" 
d="M403 697q-142 0 -225.5 -90t-83.5 -242q0 -151 85 -241.5t224 -90.5q109 0 201 60l19 -39q-95 -64 -223 -64q-162 0 -259.5 102t-97.5 273q0 173 96.5 274t260.5 101q128 0 223 -64l-19 -39q-90 60 -201 60z" />
    <glyph glyph-name="D" unicode="D" horiz-adv-x="674" 
d="M251 697q-53 0 -113 -12v-640q60 -12 113 -12q163 0 247.5 87t84.5 255q0 158 -84.5 240t-247.5 82zM631 375q0 -188 -98 -286.5t-282 -98.5q-89 0 -163 16v718q76 16 163 16q184 0 282 -94.5t98 -270.5z" />
    <glyph glyph-name="E" unicode="E" horiz-adv-x="579" 
d="M138 687v-270h343v-42h-343v-332h363v-43h-413v730h413v-43h-363z" />
    <glyph glyph-name="F" unicode="F" horiz-adv-x="564" 
d="M491 687h-353v-280h333v-42h-333v-365h-50v730h403v-43z" />
    <glyph glyph-name="G" unicode="G" horiz-adv-x="741" 
d="M415 697q-150 0 -235.5 -89t-85.5 -243q0 -153 87 -242.5t237 -89.5q111 0 197 39v303h-277v42h325v-373q-109 -54 -248 -54q-169 0 -270.5 102t-101.5 273t99.5 273t268.5 102q129 0 226 -60l-19 -38q-91 55 -203 55z" />
    <glyph glyph-name="H" unicode="H" horiz-adv-x="696" 
d="M138 730v-313h420v313h50v-730h-50v375h-420v-375h-50v730h50z" />
    <glyph glyph-name="I" unicode="I" horiz-adv-x="299" 
d="M123 0v730h53v-730h-53z" />
    <glyph glyph-name="J" unicode="J" horiz-adv-x="519" 
d="M441 730v-457q0 -283 -260 -283q-86 0 -153 33l14 43q69 -33 139 -33q209 0 209 247v450h51z" />
    <glyph glyph-name="K" unicode="K" horiz-adv-x="612" 
d="M138 730v-331h2l361 331h64l-384 -350l394 -380h-64l-371 361h-2v-361h-50v730h50z" />
    <glyph glyph-name="L" unicode="L" horiz-adv-x="581" 
d="M140 730v-686h378v-44h-430v730h52z" />
    <glyph glyph-name="M" unicode="M" horiz-adv-x="849" 
d="M88 0v730h57l278 -450h2l278 450h58v-730h-50v652h-2l-260 -419h-50l-260 419h-2v-652h-49z" />
    <glyph glyph-name="N" unicode="N" horiz-adv-x="702" 
d="M88 0v730h57l418 -654h2v654h50v-730h-58l-418 654h-2v-654h-49z" />
    <glyph glyph-name="O" unicode="O" horiz-adv-x="792" 
d="M396 -10q-159 0 -256 103t-97 272t97 272t256 103t256.5 -103t97.5 -272t-97.5 -272t-256.5 -103zM396 33q136 0 219.5 91t83.5 241t-83.5 241t-219.5 91t-219 -91t-83 -241t83 -241t219 -91z" />
    <glyph glyph-name="P" unicode="P" horiz-adv-x="586" 
d="M88 724q90 16 187 16q133 0 203 -56.5t70 -161.5q0 -110 -70.5 -169.5t-202.5 -59.5q-68 0 -137 8v-301h-50v724zM138 344q63 -9 133 -9q110 0 169 47.5t59 135.5t-58 133.5t-170 45.5q-67 0 -133 -11v-342z" />
    <glyph glyph-name="Q" unicode="Q" horiz-adv-x="781" 
d="M396 697q-136 0 -219 -91t-83 -241t83 -241t219 -91t219.5 91t83.5 241t-83.5 241t-219.5 91zM396 -10q-159 0 -256 103t-97 272t97 272t256 103t256.5 -103t97.5 -272q0 -128 -60.5 -220t-165.5 -128v-2q173 -35 259 -165h-60q-53 74 -130 107t-197 33z" />
    <glyph glyph-name="R" unicode="R" horiz-adv-x="606" 
d="M88 0v725q81 15 173 15q138 0 207.5 -50.5t69.5 -146.5q0 -153 -169 -188v-2q25 -12 46.5 -42t51.5 -99l91 -212h-53l-87 206q-17 40 -28.5 61t-24.5 37.5t-31 22t-38 8t-58 2.5h-100v-337h-50zM138 379h100q130 0 190.5 40t60.5 121q0 157 -231 157q-66 0 -120 -10v-308
z" />
    <glyph glyph-name="S" unicode="S" horiz-adv-x="562" 
d="M281 697q-77 0 -119.5 -33.5t-42.5 -93.5q0 -110 163 -160q116 -35 167 -88t51 -137q0 -94 -57.5 -144.5t-164.5 -50.5q-122 0 -215 67l18 40q86 -64 197 -64q84 0 128 39t44 113q0 67 -39.5 108.5t-132.5 70.5q-208 62 -208 206q0 77 55.5 123.5t155.5 46.5
q112 0 205 -48l-14 -40q-84 45 -191 45z" />
    <glyph glyph-name="T" unicode="T" horiz-adv-x="652" 
d="M63 730h527v-44h-239v-686h-50v686h-238v44z" />
    <glyph glyph-name="U" unicode="U" horiz-adv-x="672" 
d="M337 34q208 0 208 243v453h50v-452q0 -140 -67 -214t-192 -74t-191.5 73.5t-66.5 214.5v452h51v-453q0 -243 208 -243z" />
    <glyph glyph-name="V" unicode="V" horiz-adv-x="682" 
d="M92 730l249 -682h2l249 682h53l-274 -730h-60l-273 730h54z" />
    <glyph glyph-name="W" unicode="W" horiz-adv-x="942" 
d="M99 730l165 -679h2l172 679h68l172 -679h2l165 679h50l-185 -730h-66l-172 679h-2l-171 -679h-67l-184 730h51z" />
    <glyph glyph-name="X" unicode="X" horiz-adv-x="636" 
d="M111 730l207 -324h2l206 324h57l-234 -361l239 -369h-59l-211 332h-2l-210 -332h-58l239 369l-234 361h58z" />
    <glyph glyph-name="Y" unicode="Y" horiz-adv-x="656" 
d="M92 730l236 -368h2l235 368h58l-269 -412v-318h-52v318l-269 412h59z" />
    <glyph glyph-name="Z" unicode="Z" horiz-adv-x="629" 
d="M78 730h473v-43l-414 -642v-2h414v-43h-473v43l414 642v2h-414v43z" />
    <glyph glyph-name="bracketleft" unicode="[" horiz-adv-x="456" 
d="M165 730v-815h203v-40h-250v895h250v-40h-203z" />
    <glyph glyph-name="backslash" unicode="\" horiz-adv-x="484" 
d="M53 730h50l343 -770h-49z" />
    <glyph glyph-name="bracketright" unicode="]" horiz-adv-x="456" 
d="M291 730h-203v40h250v-895h-250v40h203v815z" />
    <glyph glyph-name="asciicircum" unicode="^" horiz-adv-x="632" 
d="M43 280l242 450h63l242 -450h-53l-220 417h-1l-220 -417h-53z" />
    <glyph glyph-name="underscore" unicode="_" horiz-adv-x="569" 
d="M-2 -125v40h573v-40h-573z" />
    <glyph glyph-name="grave" unicode="`" horiz-adv-x="247" 
d="M83 810l122 -233h-46l-141 233h65z" />
    <glyph glyph-name="a" unicode="a" horiz-adv-x="537" 
d="M263 530q104 0 148 -44.5t44 -152.5v-193q0 -70 15 -140h-46q-9 46 -11 103h-2q-27 -52 -78.5 -82.5t-117.5 -30.5q-74 0 -118 40.5t-44 109.5q0 88 77.5 137.5t220.5 49.5h57v5q0 89 -31.5 123.5t-113.5 34.5q-97 0 -175 -46l-12 38q84 48 187 48zM99 142
q0 -52 33.5 -83t90.5 -31q75 0 130 55.5t55 138.5v67h-57q-121 0 -186.5 -39t-65.5 -108z" />
    <glyph glyph-name="b" unicode="b" horiz-adv-x="567" 
d="M310 -10q-128 0 -179 111h-2l-1 -101h-45v750h47v-330h2q53 110 178 110q98 0 154 -71t56 -199t-56.5 -199t-153.5 -71zM474 260q0 109 -46.5 169.5t-126.5 60.5q-77 0 -124 -59.5t-47 -162.5v-16q0 -106 47.5 -164t123.5 -58q80 0 126.5 60.5t46.5 169.5z" />
    <glyph glyph-name="c" unicode="c" horiz-adv-x="514" 
d="M300 489q-98 0 -153.5 -60.5t-55.5 -168.5q0 -104 58 -167t151 -63q69 0 132 33l14 -38q-70 -35 -148 -35q-114 0 -184.5 74t-70.5 196q0 126 68 198t187 72q78 0 148 -35l-14 -39q-63 33 -132 33z" />
    <glyph glyph-name="d" unicode="d" horiz-adv-x="567" 
d="M94 260q0 -109 46 -169.5t126 -60.5q76 0 124 58t48 164v16q0 103 -47.5 162.5t-124.5 59.5q-80 0 -126 -60.5t-46 -169.5zM48 260q0 128 56 199t154 71q125 0 178 -110h2v330h47v-750h-45l-1 101h-2q-51 -111 -179 -111q-97 0 -153.5 71t-56.5 199z" />
    <glyph glyph-name="e" unicode="e" horiz-adv-x="544" 
d="M90 243q1 -100 55.5 -157t145.5 -57q83 0 157 42l15 -37q-81 -44 -175 -44q-112 0 -178.5 72.5t-66.5 197.5q0 126 63 198t172 72q104 0 161 -69t57 -196v-22h-406zM91 283h359q-2 101 -46.5 154.5t-125.5 53.5q-86 0 -135 -54.5t-52 -153.5z" />
    <glyph glyph-name="f" unicode="f" horiz-adv-x="514" 
d="M58 500h143v78q0 162 154 162q44 0 86 -15l-11 -39q-34 14 -72 14q-59 0 -84 -28t-25 -94v-78h189v-40h-189v-460h-48v460h-143v40z" />
    <glyph glyph-name="g" unicode="g" horiz-adv-x="562" 
d="M265 50q74 0 123.5 58t49.5 157v10q0 98 -49.5 156.5t-123.5 58.5q-80 0 -125.5 -58t-45.5 -162q0 -102 46.5 -161t124.5 -59zM48 270q0 124 55 192t153 68q128 0 181 -110h2l1 100h45v-483q0 -267 -232 -267q-85 0 -158 33l12 39q71 -32 146 -32q94 0 139.5 54.5
t45.5 170.5v83h-2q-52 -108 -180 -108q-94 0 -151 70t-57 190z" />
    <glyph glyph-name="h" unicode="h" horiz-adv-x="562" 
d="M130 750v-339h2q29 55 76.5 87t104.5 32q91 0 134 -53t43 -170v-307h-46v303q0 102 -32.5 144t-110.5 42q-66 0 -118.5 -63t-52.5 -149v-277h-47v750h47z" />
    <glyph glyph-name="i" unicode="i" horiz-adv-x="294" 
d="M123 640v110h49v-110h-49zM123 0v520h49v-520h-49z" />
    <glyph glyph-name="j" unicode="j" horiz-adv-x="334" 
d="M211 520v-520q0 -135 -47.5 -182.5t-183.5 -47.5l-2 41q113 0 149 36t36 151v522h48zM163 640v110h48v-110h-48z" />
    <glyph glyph-name="k" unicode="k" horiz-adv-x="544" 
d="M130 750v-457h2l295 227h64l-323 -248l328 -272h-63l-301 251h-2v-251h-47v750h47z" />
    <glyph glyph-name="l" unicode="l" horiz-adv-x="294" 
d="M123 0v750h49v-750h-49z" />
    <glyph glyph-name="m" unicode="m" horiz-adv-x="791" 
d="M123 520l1 -101h2q24 53 61 82t81 29q108 0 141 -109h2q22 51 62.5 80t91.5 29q78 0 115.5 -48t37.5 -152v-330h-46v320q0 93 -27 131.5t-89 38.5q-55 0 -95 -51.5t-40 -128.5v-310h-46v320q0 93 -26.5 131.5t-88.5 38.5q-50 0 -92.5 -60.5t-42.5 -146.5v-283h-47v520h45
z" />
    <glyph glyph-name="n" unicode="n" horiz-adv-x="557" 
d="M296 489q-66 0 -118.5 -63t-52.5 -149v-277h-47v520h45l1 -110h2q27 55 75.5 87.5t106.5 32.5q91 0 134 -53t43 -170v-307h-46v303q0 102 -32.5 144t-110.5 42z" />
    <glyph glyph-name="o" unicode="o" horiz-adv-x="566" 
d="M283 490q-89 0 -141 -61.5t-52 -168.5t52 -168.5t141 -61.5t141 61.5t52 168.5t-52 168.5t-141 61.5zM283 -10q-110 0 -175 73t-65 197t65 197t175 73t175 -73t65 -197t-65 -197t-175 -73z" />
    <glyph glyph-name="p" unicode="p" horiz-adv-x="562" 
d="M305 -10q-127 0 -178 108h-2v-318h-47v740h45l1 -101h2q51 111 179 111q98 0 154 -71t56 -199q0 -127 -57 -198.5t-153 -71.5zM469 260q0 109 -46.5 169.5t-126.5 60.5q-77 0 -124 -59.5t-47 -162.5v-16q0 -105 48 -163.5t123 -58.5q80 0 126.5 60.5t46.5 169.5z" />
    <glyph glyph-name="q" unicode="q" horiz-adv-x="562" 
d="M94 260q0 -109 46 -169.5t126 -60.5q76 0 124 58.5t48 163.5v16q0 103 -47 162.5t-125 59.5q-80 0 -126 -60.5t-46 -169.5zM48 260q0 128 56 199t154 71q128 0 179 -111h2l1 101h45v-740h-47v318h-2q-51 -108 -178 -108q-96 0 -153 71.5t-57 198.5z" />
    <glyph glyph-name="r" unicode="r" horiz-adv-x="442" 
d="M124 520v-123h2q40 63 107 98t152 35v-41q-112 0 -186 -63.5t-74 -158.5v-267h-47v520h46z" />
    <glyph glyph-name="s" unicode="s" horiz-adv-x="489" 
d="M241 530q91 0 174 -40l-13 -39q-78 39 -161 39q-64 0 -100 -25.5t-36 -69.5q0 -40 29.5 -65t109.5 -40q99 -18 143 -55.5t44 -101.5q0 -66 -50.5 -104.5t-139.5 -38.5q-98 0 -183 50l14 38q79 -48 169 -48q67 0 105 27.5t38 75.5q0 46 -33.5 72.5t-112.5 41.5
q-96 17 -138 52t-42 96t49 98t134 37z" />
    <glyph glyph-name="t" unicode="t" horiz-adv-x="504" 
d="M220 690v-190h206v-40h-206v-307q0 -75 22 -99t81 -24q47 0 85 15l10 -38q-48 -17 -100 -17q-81 0 -113 34.5t-32 122.5v313h-120v40h120v190h47z" />
    <glyph glyph-name="u" unicode="u" horiz-adv-x="547" 
d="M119 520v-327q0 -89 30 -125.5t102 -36.5q64 0 118 62.5t54 149.5v277h47v-520h-45l-1 110h-2q-27 -55 -75.5 -87.5t-106.5 -32.5q-87 0 -127 47t-40 153v330h46z" />
    <glyph glyph-name="v" unicode="v" horiz-adv-x="549" 
d="M90 520l184 -489h2l185 489h50l-203 -520h-67l-203 520h52z" />
    <glyph glyph-name="w" unicode="w" horiz-adv-x="806" 
d="M99 520l137 -477h2l132 477h67l132 -477h2l137 477h50l-157 -520h-65l-132 474h-2l-132 -474h-65l-157 520h51z" />
    <glyph glyph-name="x" unicode="x" horiz-adv-x="542" 
d="M114 520l157 -223h2l157 223h55l-185 -256l190 -264h-56l-162 231h-2l-163 -231h-54l190 264l-185 256h56z" />
    <glyph glyph-name="y" unicode="y" horiz-adv-x="549" 
d="M89 520l178 -457h2l192 457h50l-320 -740h-50l101 227l-204 513h51z" />
    <glyph glyph-name="z" unicode="z" horiz-adv-x="539" 
d="M78 520h383v-40l-324 -438v-2h324v-40h-383v40l324 438v2h-324v40z" />
    <glyph glyph-name="braceleft" unicode="{" horiz-adv-x="502" 
d="M410 730h-74q-52 0 -75 -23t-23 -92v-147q0 -109 -72 -144v-2q72 -35 72 -145v-147q0 -69 23 -92t75 -23h74v-40h-90q-68 0 -98.5 34.5t-30.5 110.5v155q0 60 -21.5 93.5t-59.5 33.5h-47v41h47q38 0 59.5 33.5t21.5 93.5v155q0 76 30.5 110.5t98.5 34.5h90v-40z" />
    <glyph glyph-name="bar" unicode="|" horiz-adv-x="322" 
d="M138 -220v1030h47v-1030h-47z" />
    <glyph glyph-name="braceright" unicode="}" horiz-adv-x="502" 
d="M93 730v40h90q68 0 98 -34.5t30 -110.5v-155q0 -60 22 -93.5t60 -33.5h47v-41h-47q-38 0 -60 -33.5t-22 -93.5v-155q0 -76 -30 -110.5t-98 -34.5h-90v40h73q52 0 75.5 23t23.5 92v147q0 110 71 145v2q-71 35 -71 144v147q0 69 -23.5 92t-75.5 23h-73z" />
    <glyph glyph-name="asciitilde" unicode="~" horiz-adv-x="686" 
d="M331 283q-108 49 -154 49q-40 0 -58 -24t-18 -80h-43q0 148 114 148q61 0 183 -56q108 -49 154 -49q76 0 76 95h43q0 -74 -32 -106t-82 -32q-63 0 -183 55z" />
    <glyph glyph-name="uni00A0" unicode="&#xa0;" horiz-adv-x="283" 
 />
    <glyph glyph-name="exclamdown" unicode="&#xa1;" horiz-adv-x="292" 
d="M123 323h47l5 -543h-57zM120 403v117h53v-117h-53z" />
    <glyph glyph-name="cent" unicode="&#xa2;" horiz-adv-x="539" 
d="M278 528v162h40v-160q77 -1 149 -36l-10 -39q-68 34 -139 34v-459q75 1 139 34l15 -38q-74 -35 -154 -36v-170h-40v172q-106 11 -170.5 83t-64.5 185q0 117 62.5 187.5t172.5 80.5zM278 32v455q-88 -11 -137.5 -70t-49.5 -157q0 -94 51 -155.5t136 -72.5z" />
    <glyph glyph-name="sterling" unicode="&#xa3;" horiz-adv-x="642" 
d="M164 45v-2h401v-43h-487v43q45 3 79 50.5t34 123.5v130h-94v40h94v158q0 93 55.5 144t158.5 51q66 0 127 -26l-12 -42q-51 24 -111 24q-168 0 -168 -155v-154h263v-40h-263v-130q0 -58 -21 -104t-56 -68z" />
    <glyph glyph-name="currency" unicode="&#xa4;" horiz-adv-x="663" 
d="M572 634l28 -29l-96 -96q53 -63 53 -144t-53 -144l96 -96l-28 -29l-96 96q-61 -52 -144 -52q-84 0 -145 52l-96 -96l-28 29l96 96q-52 61 -52 144t52 144l-96 96l28 29l96 -96q61 52 145 52q83 0 144 -52zM332 183q75 0 128 53.5t53 128.5t-53 128.5t-128 53.5
t-128.5 -53.5t-53.5 -128.5t53.5 -128.5t128.5 -53.5z" />
    <glyph glyph-name="yen" unicode="&#xa5;" horiz-adv-x="666" 
d="M85 163v37h222v110h-222v37h203l-250 383h59l236 -368h2l235 368h58l-250 -383h203v-37h-222v-110h222v-37h-222v-163h-52v163h-222z" />
    <glyph glyph-name="brokenbar" unicode="&#xa6;" horiz-adv-x="322" 
d="M138 -140v360h47v-360h-47zM138 370v360h47v-360h-47z" />
    <glyph glyph-name="section" unicode="&#xa7;" horiz-adv-x="511" 
d="M70 582q0 69 51.5 113.5t134.5 44.5q92 0 178 -45l-14 -41q-79 43 -161 43q-65 0 -103.5 -31.5t-38.5 -83.5q0 -47 30.5 -76.5t110.5 -47.5q100 -22 145 -63t45 -110q0 -98 -90 -142q82 -42 82 -135q0 -70 -50.5 -114t-133.5 -44q-93 0 -179 45l14 41q79 -43 161 -43
q66 0 104 31.5t38 83.5q0 47 -30.5 76.5t-110.5 47.5q-100 22 -145 63t-45 110q0 98 90 142q-83 43 -83 135zM197 429q-43 -14 -67.5 -45.5t-24.5 -72.5q0 -54 35.5 -85.5t119.5 -49.5q17 -3 54 -15q43 14 67.5 45.5t24.5 72.5q0 54 -35.5 85.5t-119.5 49.5q-17 3 -54 15z
" />
    <glyph glyph-name="dieresis" unicode="&#xa8;" horiz-adv-x="422" 
d="M288 610v123h47v-123h-47zM88 610v123h47v-123h-47z" />
    <glyph glyph-name="copyright" unicode="&#xa9;" horiz-adv-x="819" 
d="M567 545l-17 -34q-54 34 -120 34q-84 0 -132 -48t-48 -132q0 -83 49 -131.5t131 -48.5q66 0 120 34l17 -34q-59 -37 -140 -37q-102 0 -162.5 59t-60.5 158q0 101 60 159t163 58q81 0 140 -37zM410 35q136 0 233 96.5t97 233.5t-97 233.5t-233 96.5t-233 -96.5t-97 -233.5
t97 -233.5t233 -96.5zM410 -2q-152 0 -259.5 107.5t-107.5 259.5t107.5 259.5t259.5 107.5t259 -107.5t107 -259.5t-107.5 -259.5t-258.5 -107.5z" />
    <glyph glyph-name="ordfeminine" unicode="&#xaa;" horiz-adv-x="644" 
d="M93 213v35h459v-35h-459zM426 544h-42q-94 0 -145.5 -30t-51.5 -83q0 -40 26 -63.5t70 -23.5q62 0 102.5 40t40.5 101v59zM144 429q0 71 62.5 111t177.5 40h42v2q0 69 -23.5 94.5t-86.5 25.5q-78 0 -140 -36l-11 35q69 39 152 39q84 0 119.5 -36t35.5 -123v-153
q0 -56 12 -112h-44q-9 39 -10 66h-1q-49 -75 -154 -75q-60 0 -95.5 33t-35.5 89z" />
    <glyph glyph-name="guillemotleft" unicode="&#xab;" horiz-adv-x="716" 
d="M618 481l-230 -190v-2l230 -190v-49l-263 220v40l263 220v-49zM331 481l-229 -190v-2l229 -190v-49l-263 220v40l263 220v-49z" />
    <glyph glyph-name="logicalnot" unicode="&#xac;" horiz-adv-x="649" 
d="M63 382v41h493v-266h-45v225h-448z" />
    <glyph glyph-name="uni00AD" unicode="&#xad;" horiz-adv-x="459" 
d="M83 268v44h293v-44h-293z" />
    <glyph glyph-name="registered" unicode="&#xae;" horiz-adv-x="819" 
d="M311 341v-188h-45v421q49 8 120 8q184 0 184 -116q0 -90 -110 -110v-1q18 -7 31 -23.5t33 -56.5l59 -122h-48l-54 115q-26 52 -42.5 62.5t-66.5 10.5h-61zM311 377h62q81 0 116.5 21t35.5 65q0 83 -141 83q-35 0 -73 -5v-164zM410 -2q-152 0 -259.5 107.5t-107.5 259.5
t107.5 259.5t259.5 107.5t259 -107.5t107 -259.5t-107 -259.5t-259 -107.5zM410 35q136 0 233 96.5t97 233.5t-97 233.5t-233 96.5t-233 -96.5t-97 -233.5t97 -233.5t233 -96.5z" />
    <glyph glyph-name="macron" unicode="&#xaf;" horiz-adv-x="459" 
d="M63 657v40h333v-40h-333z" />
    <glyph glyph-name="degree" unicode="&#xb0;" horiz-adv-x="389" 
d="M48 593q0 61 43 104t104 43t103.5 -43t42.5 -104t-42.5 -103.5t-103.5 -42.5t-104 42.5t-43 103.5zM88 593q0 -44 31.5 -75t75.5 -31t75 31t31 75t-31 75.5t-75 31.5t-75.5 -31.5t-31.5 -75.5z" />
    <glyph glyph-name="plusminus" unicode="&#xb1;" horiz-adv-x="752" 
d="M93 -40v42h567v-42h-567zM398 650v-262h262v-42h-262v-263h-43v263h-262v42h262v262h43z" />
    <glyph glyph-name="uni00B2" unicode="&#xb2;" horiz-adv-x="375" 
d="M276 611q0 43 -24 66t-69 23q-63 0 -122 -44l-16 32q28 21 67.5 34.5t73.5 13.5q62 0 96.5 -32.5t34.5 -89.5q0 -55 -43.5 -114.5t-165.5 -170.5v-1h214v-36h-269v36q135 119 179 176.5t44 106.5z" />
    <glyph glyph-name="uni00B3" unicode="&#xb3;" horiz-adv-x="375" 
d="M57 730h260v-36l-155 -148v-1h20q68 0 104.5 -31t36.5 -89q0 -139 -154 -139q-65 0 -117 34l16 31q46 -29 99 -29q116 0 116 103q0 39 -25 63.5t-99 24.5h-43v36l149 144v1h-208v36z" />
    <glyph glyph-name="acute" unicode="&#xb4;" horiz-adv-x="241" 
d="M93 590h-50l117 163h63z" />
    <glyph glyph-name="uni00B5" unicode="&#xb5;" horiz-adv-x="552" 
d="M428 520h47v-520h-45l-1 93h-2q-27 -47 -75 -75t-102 -28q-92 0 -126 60v-270h-46v740h46v-327q0 -89 30 -125.5t102 -36.5q69 0 120.5 59.5t51.5 142.5v287z" />
    <glyph glyph-name="paragraph" unicode="&#xb6;" horiz-adv-x="606" 
d="M268 270q-95 0 -162.5 67.5t-67.5 162.5t67.5 162.5t162.5 67.5h250v-870h-45v828h-160v-828h-45v410z" />
    <glyph glyph-name="periodcentered" unicode="&#xb7;" horiz-adv-x="252" 
d="M98 225v130h57v-130h-57z" />
    <glyph glyph-name="cedilla" unicode="&#xb8;" horiz-adv-x="416" 
d="M247 0h50q41 -48 41 -103q0 -48 -39 -82.5t-131 -34.5q-65 0 -120 25l10 39q48 -24 107 -24q127 0 127 86q0 49 -45 94z" />
    <glyph glyph-name="uni00B9" unicode="&#xb9;" horiz-adv-x="375" 
d="M196 680l-116 -112l-18 33l135 129h42v-438h-42v388h-1z" />
    <glyph glyph-name="ordmasculine" unicode="&#xba;" horiz-adv-x="644" 
d="M93 213v35h459v-35h-459zM129 524q0 100 52 158t141 58t141.5 -58t52.5 -158t-52.5 -158t-141.5 -58t-141 58t-52 158zM322 346q69 0 108.5 47t39.5 131t-39.5 131t-108.5 47t-108.5 -47t-39.5 -131t39.5 -131t108.5 -47z" />
    <glyph glyph-name="guillemotright" unicode="&#xbb;" horiz-adv-x="715" 
d="M98 481v49l263 -220v-40l-263 -220v49l230 190v2zM385 481v49l263 -220v-40l-263 -220v49l229 190v2z" />
    <glyph glyph-name="onequarter" unicode="&#xbc;" horiz-adv-x="810" 
d="M163 680l-116 -112l-19 33l136 129h42v-438h-42v388h-1zM708 730l-517 -730h-48l517 730h48zM702 106v-106h-39v106h-221v36l221 296h39v-296h73v-36h-73zM663 142v238h-1l-176 -237v-1h177z" />
    <glyph glyph-name="onehalf" unicode="&#xbd;" horiz-adv-x="810" 
d="M724 319q0 43 -24 66t-69 23q-62 0 -121 -44l-17 32q28 21 68 34.5t74 13.5q61 0 95.5 -33t34.5 -90q0 -55 -43.5 -114t-164.5 -170v-1h213v-36h-269v36q135 119 179 176.5t44 106.5zM163 680l-116 -112l-19 33l136 129h42v-438h-42v388h-1zM675 730l-517 -730h-48
l517 730h48z" />
    <glyph glyph-name="threequarters" unicode="&#xbe;" horiz-adv-x="810" 
d="M185 545q68 0 104 -30.5t36 -89.5q0 -139 -153 -139q-65 0 -117 34l15 31q46 -29 99 -29q116 0 116 103q0 39 -25 63.5t-99 24.5h-43v36l150 144v1h-209v36h260v-36l-155 -148v-1h21zM715 730l-517 -730h-48l517 730h48zM702 106v-106h-39v106h-221v36l221 296h39v-296
h73v-36h-73zM663 142v238h-1l-176 -237v-1h177z" />
    <glyph glyph-name="questiondown" unicode="&#xbf;" horiz-adv-x="608" 
d="M331 403v117h54v-117h-54zM383 322q0 -37 -9 -69t-21 -53t-34.5 -43t-38 -33.5t-43.5 -30.5q-31 -21 -45.5 -32.5t-34.5 -32.5t-28.5 -44.5t-8.5 -53.5q0 -55 50 -85.5t145 -30.5q103 0 214 35l11 -44q-109 -35 -230 -35q-115 0 -178.5 42t-63.5 115q0 36 10 65t33 53.5
t39 37t49 35.5t50.5 37t40.5 39t33 56.5t10 71.5h50z" />
    <glyph glyph-name="Agrave" unicode="&#xc0;" horiz-adv-x="682" 
d="M267 953l116 -163h-50l-130 163h64zM38 0l273 730h60l274 -730h-54l-84 231h-333l-84 -231h-52zM190 273h302l-150 413h-2z" />
    <glyph glyph-name="Aacute" unicode="&#xc1;" horiz-adv-x="682" 
d="M416 953h63l-130 -163h-50zM38 0l273 730h60l274 -730h-54l-84 231h-333l-84 -231h-52zM190 273h302l-150 413h-2z" />
    <glyph glyph-name="Acircumflex" unicode="&#xc2;" horiz-adv-x="682" 
d="M340 929l-118 -139h-59l143 163h70l144 -163h-59l-119 139h-2zM38 0l273 730h60l274 -730h-54l-84 231h-333l-84 -231h-52zM190 273h302l-150 413h-2z" />
    <glyph glyph-name="Atilde" unicode="&#xc3;" horiz-adv-x="682" 
d="M475 920h41q0 -115 -73 -115q-42 0 -110 47q-56 39 -86 39q-39 0 -39 -86h-42q0 125 74 125q43 0 109 -46q57 -40 87 -40q39 0 39 76zM38 0l273 730h60l274 -730h-54l-84 231h-333l-84 -231h-52zM190 273h302l-150 413h-2z" />
    <glyph glyph-name="Adieresis" unicode="&#xc4;" horiz-adv-x="682" 
d="M418 810v123h47v-123h-47zM218 810v123h47v-123h-47zM38 0l273 730h60l274 -730h-54l-84 231h-333l-84 -231h-52zM190 273h302l-150 413h-2z" />
    <glyph glyph-name="Aring" unicode="&#xc5;" horiz-adv-x="682" 
d="M341 968q-35 0 -59 -24t-24 -59t24 -59t59 -24t59.5 24.5t24.5 58.5t-24.5 58.5t-59.5 24.5zM38 0l273 730h60l274 -730h-54l-84 231h-333l-84 -231h-52zM458 885q0 -48 -34.5 -82.5t-82.5 -34.5t-82 34.5t-34 82.5t34 82.5t82 34.5t82.5 -34.5t34.5 -82.5zM190 273h302
l-150 413h-2z" />
    <glyph glyph-name="AE" unicode="&#xc6;" horiz-adv-x="837" 
d="M311 730h449v-43h-305v-270h285v-42h-285v-332h305v-43h-354v231h-233l-84 -231h-51zM188 273h218v414h-67z" />
    <glyph glyph-name="Ccedilla" unicode="&#xc7;" horiz-adv-x="691" 
d="M403 697q-142 0 -225.5 -90t-83.5 -242q0 -151 85 -241.5t224 -90.5q109 0 201 60l19 -39q-79 -53 -184 -62q35 -45 35 -95q0 -48 -39 -82.5t-131 -34.5q-65 0 -120 25l9 39q48 -24 107 -24q127 0 127 86q0 44 -35 84q-159 2 -254 104t-95 271q0 173 96.5 274t260.5 101
q128 0 223 -64l-19 -39q-90 60 -201 60z" />
    <glyph glyph-name="Egrave" unicode="&#xc8;" horiz-adv-x="579" 
d="M253 953l117 -163h-50l-130 163h63zM138 687v-270h343v-42h-343v-332h363v-43h-413v730h413v-43h-363z" />
    <glyph glyph-name="Eacute" unicode="&#xc9;" horiz-adv-x="579" 
d="M276 790h-50l117 163h63zM138 687v-270h343v-42h-343v-332h363v-43h-413v730h413v-43h-363z" />
    <glyph glyph-name="Ecircumflex" unicode="&#xca;" horiz-adv-x="579" 
d="M297 929l-118 -139h-59l143 163h70l143 -163h-59l-118 139h-2zM138 687v-270h343v-42h-343v-332h363v-43h-413v730h413v-43h-363z" />
    <glyph glyph-name="Edieresis" unicode="&#xcb;" horiz-adv-x="579" 
d="M375 810v123h46v-123h-46zM175 810v123h46v-123h-46zM138 687v-270h343v-42h-343v-332h363v-43h-413v730h413v-43h-363z" />
    <glyph glyph-name="Igrave" unicode="&#xcc;" horiz-adv-x="300" 
d="M60 953l117 -163h-50l-130 163h63zM124 0v730h53v-730h-53z" />
    <glyph glyph-name="Iacute" unicode="&#xcd;" horiz-adv-x="300" 
d="M173 790h-50l117 163h63zM123 0v730h53v-730h-53z" />
    <glyph glyph-name="Icircumflex" unicode="&#xce;" horiz-adv-x="298" 
d="M148 929l-118 -139h-59l143 163h70l144 -163h-59l-119 139h-2zM123 0v730h53v-730h-53z" />
    <glyph glyph-name="Idieresis" unicode="&#xcf;" horiz-adv-x="300" 
d="M227 810v123h47v-123h-47zM27 810v123h47v-123h-47zM124 0v730h53v-730h-53z" />
    <glyph glyph-name="Eth" unicode="&#xd0;" horiz-adv-x="745" 
d="M38 362v42h121v320q76 16 163 16q184 0 282 -94.5t98 -270.5q0 -188 -98 -286.5t-282 -98.5q-89 0 -163 16v356h-121zM209 404h199v-42h-199v-317q60 -12 113 -12q163 0 247.5 87t84.5 255q0 158 -84.5 240t-247.5 82q-53 0 -113 -12v-281z" />
    <glyph glyph-name="Ntilde" unicode="&#xd1;" horiz-adv-x="702" 
d="M359 884q57 -40 87 -40q39 0 39 76h41q0 -115 -73 -115q-42 0 -110 47q-56 39 -86 39q-39 0 -39 -86h-42q0 125 74 125q43 0 109 -46zM88 0v730h57l418 -654h2v654h50v-730h-58l-418 654h-2v-654h-49z" />
    <glyph glyph-name="Ograve" unicode="&#xd2;" horiz-adv-x="792" 
d="M322 953l116 -163h-50l-130 163h64zM396 -10q-159 0 -256 103t-97 272t97 272t256 103t256.5 -103t97.5 -272t-97.5 -272t-256.5 -103zM396 33q136 0 219.5 91t83.5 241t-83.5 241t-219.5 91t-219 -91t-83 -241t83 -241t219 -91z" />
    <glyph glyph-name="Oacute" unicode="&#xd3;" horiz-adv-x="792" 
d="M404 790h-50l117 163h63zM396 -10q-159 0 -256 103t-97 272t97 272t256 103t256.5 -103t97.5 -272t-97.5 -272t-256.5 -103zM396 33q136 0 219.5 91t83.5 241t-83.5 241t-219.5 91t-219 -91t-83 -241t83 -241t219 -91z" />
    <glyph glyph-name="Ocircumflex" unicode="&#xd4;" horiz-adv-x="792" 
d="M395 929l-118 -139h-59l143 163h70l144 -163h-59l-119 139h-2zM396 -10q-159 0 -256 103t-97 272t97 272t256 103t256.5 -103t97.5 -272t-97.5 -272t-256.5 -103zM396 33q136 0 219.5 91t83.5 241t-83.5 241t-219.5 91t-219 -91t-83 -241t83 -241t219 -91z" />
    <glyph glyph-name="Otilde" unicode="&#xd5;" horiz-adv-x="792" 
d="M295 930q43 0 109 -46q57 -40 86 -40q40 0 40 76h41q0 -115 -73 -115q-42 0 -110 47q-56 39 -86 39q-39 0 -39 -86h-42q0 125 74 125zM396 -10q-159 0 -256 103t-97 272t97 272t256 103t256.5 -103t97.5 -272t-97.5 -272t-256.5 -103zM396 33q136 0 219.5 91t83.5 241
t-83.5 241t-219.5 91t-219 -91t-83 -241t83 -241t219 -91z" />
    <glyph glyph-name="Odieresis" unicode="&#xd6;" horiz-adv-x="792" 
d="M473 810v123h47v-123h-47zM273 810v123h47v-123h-47zM396 -10q-159 0 -256 103t-97 272t97 272t256 103t256.5 -103t97.5 -272t-97.5 -272t-256.5 -103zM396 33q136 0 219.5 91t83.5 241t-83.5 241t-219.5 91t-219 -91t-83 -241t83 -241t219 -91z" />
    <glyph glyph-name="multiply" unicode="&#xd7;" horiz-adv-x="594" 
d="M547 73l-32 -32l-218 217l-217 -217l-32 32l217 217l-217 217l32 32l217 -217l218 217l32 -32l-218 -217z" />
    <glyph glyph-name="Oslash" unicode="&#xd8;" horiz-adv-x="802" 
d="M48 365q0 169 97 272t256 103q121 0 207 -60l55 73l36 -26l-56 -76q112 -104 112 -286q0 -169 -97.5 -272t-256.5 -103q-121 0 -207 60l-55 -73l-36 26l56 76q-111 103 -111 286zM222 88q75 -55 179 -55q136 0 219.5 91t83.5 241q0 156 -90 248zM188 117l392 525
q-75 55 -179 55q-136 0 -219 -91t-83 -241q0 -157 89 -248z" />
    <glyph glyph-name="Ugrave" unicode="&#xd9;" horiz-adv-x="672" 
d="M292 953l116 -163h-50l-130 163h64zM337 34q208 0 208 243v453h50v-452q0 -140 -67 -214t-192 -74t-191.5 73.5t-66.5 214.5v452h51v-453q0 -243 208 -243z" />
    <glyph glyph-name="Uacute" unicode="&#xda;" horiz-adv-x="672" 
d="M314 790h-50l117 163h63zM337 34q208 0 208 243v453h50v-452q0 -140 -67 -214t-192 -74t-191.5 73.5t-66.5 214.5v452h51v-453q0 -243 208 -243z" />
    <glyph glyph-name="Ucircumflex" unicode="&#xdb;" horiz-adv-x="672" 
d="M335 929l-118 -139h-59l143 163h70l144 -163h-59l-119 139h-2zM337 34q208 0 208 243v453h50v-452q0 -140 -67 -214t-192 -74t-191.5 73.5t-66.5 214.5v452h51v-453q0 -243 208 -243z" />
    <glyph glyph-name="Udieresis" unicode="&#xdc;" horiz-adv-x="672" 
d="M413 810v123h47v-123h-47zM213 810v123h47v-123h-47zM337 34q208 0 208 243v453h50v-452q0 -140 -67 -214t-192 -74t-191.5 73.5t-66.5 214.5v452h51v-453q0 -243 208 -243z" />
    <glyph glyph-name="Yacute" unicode="&#xdd;" horiz-adv-x="656" 
d="M306 790h-50l117 163h63zM92 730l236 -368h2l235 368h58l-269 -412v-318h-52v318l-269 412h59z" />
    <glyph glyph-name="Thorn" unicode="&#xde;" horiz-adv-x="596" 
d="M499 393q0 88 -58 133.5t-170 45.5q-67 0 -133 -11v-342q63 -9 133 -9q110 0 169 47.5t59 135.5zM138 176v-176h-50v730h50v-125q66 10 137 10q133 0 203 -56.5t70 -161.5q0 -110 -70.5 -169.5t-202.5 -59.5q-68 0 -137 8z" />
    <glyph glyph-name="germandbls" unicode="&#xdf;" horiz-adv-x="582" 
d="M374 412q0 -10 26 -37t57 -56.5t57 -74t26 -86.5q0 -82 -48 -125t-140 -43q-70 0 -153 23l6 43q79 -22 143 -22q142 0 142 129q0 35 -26 74.5t-58 68.5t-58 59t-26 47q0 18 31 54t62.5 80t31.5 82q0 90 -152 90q-92 0 -127 -36t-35 -132v-550h-50v549q0 115 47.5 163
t162.5 48q202 0 202 -128q0 -34 -19 -72t-41.5 -64t-41.5 -50t-19 -34z" />
    <glyph glyph-name="agrave" unicode="&#xe0;" horiz-adv-x="537" 
d="M200 753l117 -163h-50l-130 163h63zM263 530q104 0 148 -44.5t44 -152.5v-193q0 -70 15 -140h-46q-9 46 -11 103h-2q-27 -52 -78.5 -82.5t-117.5 -30.5q-74 0 -118 40.5t-44 109.5q0 88 77.5 137.5t220.5 49.5h57v5q0 89 -31.5 123.5t-113.5 34.5q-97 0 -175 -46l-12 38
q84 48 187 48zM99 142q0 -52 33.5 -83t90.5 -31q75 0 130 55.5t55 138.5v67h-57q-121 0 -186.5 -39t-65.5 -108z" />
    <glyph glyph-name="aacute" unicode="&#xe1;" horiz-adv-x="537" 
d="M349 753h64l-130 -163h-50zM263 530q104 0 148 -44.5t44 -152.5v-193q0 -70 15 -140h-46q-9 46 -11 103h-2q-27 -52 -78.5 -82.5t-117.5 -30.5q-74 0 -118 40.5t-44 109.5q0 88 77.5 137.5t220.5 49.5h57v5q0 89 -31.5 123.5t-113.5 34.5q-97 0 -175 -46l-12 38
q84 48 187 48zM99 142q0 -52 33.5 -83t90.5 -31q75 0 130 55.5t55 138.5v67h-57q-121 0 -186.5 -39t-65.5 -108z" />
    <glyph glyph-name="acircumflex" unicode="&#xe2;" horiz-adv-x="537" 
d="M274 729l-119 -139h-59l144 163h70l143 -163h-59l-118 139h-2zM263 530q104 0 148 -44.5t44 -152.5v-193q0 -70 15 -140h-46q-9 46 -11 103h-2q-27 -52 -78.5 -82.5t-117.5 -30.5q-74 0 -118 40.5t-44 109.5q0 88 77.5 137.5t220.5 49.5h57v5q0 89 -31.5 123.5
t-113.5 34.5q-97 0 -175 -46l-12 38q84 48 187 48zM99 142q0 -52 33.5 -83t90.5 -31q75 0 130 55.5t55 138.5v67h-57q-121 0 -186.5 -39t-65.5 -108z" />
    <glyph glyph-name="atilde" unicode="&#xe3;" horiz-adv-x="537" 
d="M282 674q57 -40 87 -40q39 0 39 76h42q0 -115 -74 -115q-42 0 -110 47q-56 39 -86 39q-39 0 -39 -86h-41q0 125 73 125q43 0 109 -46zM263 530q104 0 148 -44.5t44 -152.5v-193q0 -70 15 -140h-46q-9 46 -11 103h-2q-27 -52 -78.5 -82.5t-117.5 -30.5q-74 0 -118 40.5
t-44 109.5q0 88 77.5 137.5t220.5 49.5h57v5q0 89 -31.5 123.5t-113.5 34.5q-97 0 -175 -46l-12 38q84 48 187 48zM99 142q0 -52 33.5 -83t90.5 -31q75 0 130 55.5t55 138.5v67h-57q-121 0 -186.5 -39t-65.5 -108z" />
    <glyph glyph-name="adieresis" unicode="&#xe4;" horiz-adv-x="537" 
d="M351 610v123h47v-123h-47zM151 610v123h47v-123h-47zM263 530q104 0 148 -44.5t44 -152.5v-193q0 -70 15 -140h-46q-9 46 -11 103h-2q-27 -52 -78.5 -82.5t-117.5 -30.5q-74 0 -118 40.5t-44 109.5q0 88 77.5 137.5t220.5 49.5h57v5q0 89 -31.5 123.5t-113.5 34.5
q-97 0 -175 -46l-12 38q84 48 187 48zM99 142q0 -52 33.5 -83t90.5 -31q75 0 130 55.5t55 138.5v67h-57q-121 0 -186.5 -39t-65.5 -108z" />
    <glyph glyph-name="aring" unicode="&#xe5;" horiz-adv-x="537" 
d="M275 758q-35 0 -59.5 -24.5t-24.5 -58.5t24.5 -58.5t59.5 -24.5t59 24t24 59t-24 59t-59 24zM263 530q104 0 148 -44.5t44 -152.5v-193q0 -70 15 -140h-46q-9 46 -11 103h-2q-27 -52 -78.5 -82.5t-117.5 -30.5q-74 0 -118 40.5t-44 109.5q0 88 77.5 137.5t220.5 49.5h57
v5q0 89 -31.5 123.5t-113.5 34.5q-97 0 -175 -46l-12 38q84 48 187 48zM391 675q0 -48 -34 -82.5t-82 -34.5t-82.5 34.5t-34.5 82.5t34.5 82.5t82.5 34.5t82 -34.5t34 -82.5zM99 142q0 -52 33.5 -83t90.5 -31q75 0 130 55.5t55 138.5v67h-57q-121 0 -186.5 -39t-65.5 -108z
" />
    <glyph glyph-name="ae" unicode="&#xe6;" horiz-adv-x="882" 
d="M456 283h333q-1 101 -43.5 154.5t-119.5 53.5t-122 -54.5t-48 -153.5zM456 243q1 -98 51.5 -156t132.5 -58q78 0 149 42l16 -37q-78 -44 -169 -44q-72 0 -125 38t-79 106q-51 -144 -217 -144q-74 0 -118 40.5t-44 109.5q0 80 79 133.5t219 53.5h59v2q-3 96 -35.5 128.5
t-111.5 32.5q-97 0 -175 -46l-12 38q84 48 187 48q79 0 122 -25.5t59 -84.5q56 110 182 110q100 0 154.5 -68.5t54.5 -196.5q0 -3 -0.5 -11t-0.5 -11h-378zM99 142q0 -52 33.5 -83t90.5 -31q91 0 139.5 60.5t48.5 176.5q0 1 -0.5 12t-0.5 12h-59q-117 0 -184.5 -42.5
t-67.5 -104.5z" />
    <glyph glyph-name="ccedilla" unicode="&#xe7;" horiz-adv-x="514" 
d="M432 63l14 -38q-45 -23 -94 -31q37 -47 37 -97q0 -48 -39 -82.5t-131 -34.5q-65 0 -120 25l9 39q48 -24 107 -24q127 0 127 86q0 44 -35 84h-9q-114 0 -184.5 74t-70.5 196q0 126 68 198t187 72q78 0 148 -35l-14 -39q-63 33 -132 33q-98 0 -153.5 -60.5t-55.5 -168.5
q0 -104 58 -167t151 -63q69 0 132 33z" />
    <glyph glyph-name="egrave" unicode="&#xe8;" horiz-adv-x="544" 
d="M235 753l117 -163h-50l-130 163h63zM90 243q1 -100 55.5 -157t145.5 -57q83 0 157 42l15 -37q-81 -44 -175 -44q-112 0 -178.5 72.5t-66.5 197.5q0 126 63 198t172 72q104 0 161 -69t57 -196v-22h-406zM91 283h359q-2 101 -46.5 154.5t-125.5 53.5q-86 0 -135 -54.5
t-52 -153.5z" />
    <glyph glyph-name="eacute" unicode="&#xe9;" horiz-adv-x="544" 
d="M258 590h-50l116 163h64zM90 243q1 -100 55.5 -157t145.5 -57q83 0 157 42l15 -37q-81 -44 -175 -44q-112 0 -178.5 72.5t-66.5 197.5q0 126 63 198t172 72q104 0 161 -69t57 -196v-22h-406zM91 283h359q-2 101 -46.5 154.5t-125.5 53.5q-86 0 -135 -54.5t-52 -153.5z
" />
    <glyph glyph-name="ecircumflex" unicode="&#xea;" horiz-adv-x="544" 
d="M279 729l-119 -139h-59l144 163h70l143 -163h-59l-118 139h-2zM90 243q1 -100 55.5 -157t145.5 -57q83 0 157 42l15 -37q-81 -44 -175 -44q-112 0 -178.5 72.5t-66.5 197.5q0 126 63 198t172 72q104 0 161 -69t57 -196v-22h-406zM91 283h359q-2 101 -46.5 154.5
t-125.5 53.5q-86 0 -135 -54.5t-52 -153.5z" />
    <glyph glyph-name="edieresis" unicode="&#xeb;" horiz-adv-x="544" 
d="M356 610v123h47v-123h-47zM156 610v123h47v-123h-47zM90 243q1 -100 55.5 -157t145.5 -57q83 0 157 42l15 -37q-81 -44 -175 -44q-112 0 -178.5 72.5t-66.5 197.5q0 126 63 198t172 72q104 0 161 -69t57 -196v-22h-406zM91 283h359q-2 101 -46.5 154.5t-125.5 53.5
q-86 0 -135 -54.5t-52 -153.5z" />
    <glyph glyph-name="igrave" unicode="&#xec;" horiz-adv-x="300" 
d="M60 753l117 -163h-50l-130 163h63zM128 0v520h49v-520h-49z" />
    <glyph glyph-name="iacute" unicode="&#xed;" horiz-adv-x="300" 
d="M173 590h-50l117 163h63zM123 0v520h49v-520h-49z" />
    <glyph glyph-name="icircumflex" unicode="&#xee;" horiz-adv-x="294" 
d="M148 729h-2l-118 -139h-59l143 163h70l144 -163h-59zM123 0v520h49v-520h-49z" />
    <glyph glyph-name="idieresis" unicode="&#xef;" horiz-adv-x="294" 
d="M224 610v123h47v-123h-47zM24 610v123h47v-123h-47zM123 0v520h49v-520h-49z" />
    <glyph glyph-name="eth" unicode="&#xf0;" horiz-adv-x="550" 
d="M275 30q71 0 126 63t55 167q0 107 -48.5 167.5t-132.5 60.5t-132 -60.5t-48 -167.5q0 -106 52.5 -168t127.5 -62zM275 -10q-97 0 -162 73.5t-65 196.5q0 121 61.5 194t165.5 73q90 0 147 -63l2 1q-35 98 -108 159l-180 -80l-15 34l160 71q-63 39 -146 51l12 40
q105 -15 182 -71l141 63l14 -34l-124 -54q143 -131 143 -384q0 -122 -67 -196t-161 -74z" />
    <glyph glyph-name="ntilde" unicode="&#xf1;" horiz-adv-x="557" 
d="M176 720q44 0 110 -46q57 -40 86 -40q39 0 39 76h42q0 -115 -73 -115q-43 0 -111 47q-56 39 -85 39q-39 0 -39 -86h-42q0 125 73 125zM296 489q-66 0 -118.5 -63t-52.5 -149v-277h-47v520h45l1 -110h2q27 55 75.5 87.5t106.5 32.5q91 0 134 -53t43 -170v-307h-46v303
q0 102 -32.5 144t-110.5 42z" />
    <glyph glyph-name="ograve" unicode="&#xf2;" horiz-adv-x="566" 
d="M208 753l117 -163h-50l-130 163h63zM283 490q-89 0 -141 -61.5t-52 -168.5t52 -168.5t141 -61.5t141 61.5t52 168.5t-52 168.5t-141 61.5zM283 -10q-110 0 -175 73t-65 197t65 197t175 73t175 -73t65 -197t-65 -197t-175 -73z" />
    <glyph glyph-name="oacute" unicode="&#xf3;" horiz-adv-x="566" 
d="M291 590h-50l117 163h63zM283 490q-89 0 -141 -61.5t-52 -168.5t52 -168.5t141 -61.5t141 61.5t52 168.5t-52 168.5t-141 61.5zM283 -10q-110 0 -175 73t-65 197t65 197t175 73t175 -73t65 -197t-65 -197t-175 -73z" />
    <glyph glyph-name="ocircumflex" unicode="&#xf4;" horiz-adv-x="566" 
d="M282 729l-118 -139h-59l143 163h70l143 -163h-59l-118 139h-2zM283 490q-89 0 -141 -61.5t-52 -168.5t52 -168.5t141 -61.5t141 61.5t52 168.5t-52 168.5t-141 61.5zM283 -10q-110 0 -175 73t-65 197t65 197t175 73t175 -73t65 -197t-65 -197t-175 -73z" />
    <glyph glyph-name="otilde" unicode="&#xf5;" horiz-adv-x="566" 
d="M181 720q43 0 109 -46q57 -40 87 -40q39 0 39 76h42q0 -115 -73 -115q-43 0 -111 47q-56 39 -85 39q-39 0 -39 -86h-42q0 125 73 125zM283 490q-89 0 -141 -61.5t-52 -168.5t52 -168.5t141 -61.5t141 61.5t52 168.5t-52 168.5t-141 61.5zM283 -10q-110 0 -175 73t-65 197
t65 197t175 73t175 -73t65 -197t-65 -197t-175 -73z" />
    <glyph glyph-name="odieresis" unicode="&#xf6;" horiz-adv-x="566" 
d="M360 610v123h46v-123h-46zM160 610v123h46v-123h-46zM283 490q-89 0 -141 -61.5t-52 -168.5t52 -168.5t141 -61.5t141 61.5t52 168.5t-52 168.5t-141 61.5zM283 -10q-110 0 -175 73t-65 197t65 197t175 73t175 -73t65 -197t-65 -197t-175 -73z" />
    <glyph glyph-name="divide" unicode="&#xf7;" horiz-adv-x="732" 
d="M340 0v123h53v-123h-53zM340 457v123h53v-123h-53zM83 269v42h567v-42h-567z" />
    <glyph glyph-name="oslash" unicode="&#xf8;" horiz-adv-x="576" 
d="M48 260q0 124 65 197t175 73q85 0 144 -44l41 55l30 -22l-43 -58q68 -73 68 -201q0 -124 -65 -197t-175 -73q-85 0 -144 44l-41 -55l-30 22l43 58q-68 73 -68 201zM170 69q46 -39 118 -39q89 0 141 61.5t52 168.5q0 102 -49 164zM144 96l262 355q-46 39 -118 39
q-89 0 -141 -61.5t-52 -168.5q0 -102 49 -164z" />
    <glyph glyph-name="ugrave" unicode="&#xf9;" horiz-adv-x="547" 
d="M232 753l116 -163h-50l-130 163h64zM119 520v-327q0 -89 30 -125.5t102 -36.5q64 0 118 62.5t54 149.5v277h47v-520h-45l-1 110h-2q-27 -55 -75.5 -87.5t-106.5 -32.5q-87 0 -127 47t-40 153v330h46z" />
    <glyph glyph-name="uacute" unicode="&#xfa;" horiz-adv-x="547" 
d="M254 590h-50l117 163h63zM119 520v-327q0 -89 30 -125.5t102 -36.5q64 0 118 62.5t54 149.5v277h47v-520h-45l-1 110h-2q-27 -55 -75.5 -87.5t-106.5 -32.5q-87 0 -127 47t-40 153v330h46z" />
    <glyph glyph-name="ucircumflex" unicode="&#xfb;" horiz-adv-x="547" 
d="M157 590h-59l143 163h70l144 -163h-59l-119 139h-2zM119 520v-327q0 -89 30 -125.5t102 -36.5q64 0 118 62.5t54 149.5v277h47v-520h-45l-1 110h-2q-27 -55 -75.5 -87.5t-106.5 -32.5q-87 0 -127 47t-40 153v330h46z" />
    <glyph glyph-name="udieresis" unicode="&#xfc;" horiz-adv-x="547" 
d="M353 610v123h47v-123h-47zM153 610v123h47v-123h-47zM119 520v-327q0 -89 30 -125.5t102 -36.5q64 0 118 62.5t54 149.5v277h47v-520h-45l-1 110h-2q-27 -55 -75.5 -87.5t-106.5 -32.5q-87 0 -127 47t-40 153v330h46z" />
    <glyph glyph-name="yacute" unicode="&#xfd;" horiz-adv-x="549" 
d="M249 590h-50l117 163h63zM267 63h2l192 457h50l-320 -740h-50l101 227l-204 513h51z" />
    <glyph glyph-name="thorn" unicode="&#xfe;" horiz-adv-x="562" 
d="M127 98h-2v-318h-47v970h47v-331h2q51 111 178 111q98 0 154 -71t56 -199q0 -127 -57 -198.5t-153 -71.5q-127 0 -178 108zM469 260q0 109 -46.5 169.5t-126.5 60.5q-77 0 -124 -59.5t-47 -162.5v-16q0 -105 48 -163.5t123 -58.5q80 0 126.5 60.5t46.5 169.5z" />
    <glyph glyph-name="ydieresis" unicode="&#xff;" horiz-adv-x="549" 
d="M348 610v123h47v-123h-47zM148 610v123h47v-123h-47zM267 63h2l192 457h50l-320 -740h-50l101 227l-204 513h51z" />
    <glyph glyph-name="Amacron" unicode="&#x100;" horiz-adv-x="682" 
d="M175 867v40h333v-40h-333zM342 686h-2l-150 -413h302zM507 231h-333l-84 -231h-52l273 730h60l274 -730h-54z" />
    <glyph glyph-name="amacron" unicode="&#x101;" horiz-adv-x="537" 
d="M108 657v40h333v-40h-333zM263 530q104 0 148 -44.5t44 -152.5v-193q0 -70 15 -140h-46q-9 46 -11 103h-2q-27 -52 -78.5 -82.5t-117.5 -30.5q-74 0 -118 40.5t-44 109.5q0 88 77.5 137.5t220.5 49.5h57v5q0 89 -31.5 123.5t-113.5 34.5q-97 0 -175 -46l-12 38
q84 48 187 48zM99 142q0 -52 33.5 -83t90.5 -31q75 0 130 55.5t55 138.5v67h-57q-121 0 -186.5 -39t-65.5 -108z" />
    <glyph glyph-name="Abreve" unicode="&#x102;" horiz-adv-x="682" 
d="M166 928h42q1 -38 38.5 -66.5t94.5 -28.5t95 29t39 66h41q0 -55 -50 -94t-125 -39t-125 39t-50 94zM342 686h-2l-150 -413h302zM507 231h-333l-84 -231h-52l273 730h60l274 -730h-54z" />
    <glyph glyph-name="abreve" unicode="&#x103;" horiz-adv-x="537" 
d="M275 633q57 0 94.5 28.5t38.5 66.5h42q0 -55 -50 -94t-125 -39t-125 39t-50 94h41q1 -37 39 -66t95 -29zM263 530q104 0 148 -44.5t44 -152.5v-193q0 -70 15 -140h-46q-9 46 -11 103h-2q-27 -52 -78.5 -82.5t-117.5 -30.5q-74 0 -118 40.5t-44 109.5q0 88 77.5 137.5
t220.5 49.5h57v5q0 89 -31.5 123.5t-113.5 34.5q-97 0 -175 -46l-12 38q84 48 187 48zM99 142q0 -52 33.5 -83t90.5 -31q75 0 130 55.5t55 138.5v67h-57q-121 0 -186.5 -39t-65.5 -108z" />
    <glyph glyph-name="Aogonek" unicode="&#x104;" horiz-adv-x="682" 
d="M311 730h60l274 -730h-12q-45 -26 -69.5 -57.5t-24.5 -61.5q0 -61 96 -61q51 0 92 19l10 -38q-48 -21 -105 -21q-76 0 -108 27t-32 65q0 76 94 142l-79 217h-333l-84 -231h-52zM190 273h302l-150 413h-2z" />
    <glyph glyph-name="aogonek" unicode="&#x105;" horiz-adv-x="537" 
d="M263 530q104 0 148 -44.5t44 -152.5v-193q0 -70 15 -140h-9q-45 -26 -69.5 -57.5t-24.5 -61.5q0 -61 97 -61q50 0 91 19l10 -38q-48 -21 -105 -21q-76 0 -108 27t-32 65q0 80 101 147q-6 34 -8 84h-2q-27 -52 -78.5 -82.5t-117.5 -30.5q-74 0 -118 40.5t-44 109.5
q0 88 77.5 137.5t220.5 49.5h57v5q0 89 -31.5 123.5t-113.5 34.5q-97 0 -175 -46l-12 38q84 48 187 48zM99 142q0 -52 33.5 -83t90.5 -31q75 0 130 55.5t55 138.5v67h-57q-121 0 -186.5 -39t-65.5 -108z" />
    <glyph glyph-name="Cacute" unicode="&#x106;" horiz-adv-x="691" 
d="M368 790h-50l116 163h64zM403 697q-142 0 -225.5 -90t-83.5 -242q0 -151 85 -241.5t224 -90.5q109 0 201 60l19 -39q-95 -64 -223 -64q-162 0 -259.5 102t-97.5 273q0 173 96.5 274t260.5 101q128 0 223 -64l-19 -39q-90 60 -201 60z" />
    <glyph glyph-name="cacute" unicode="&#x107;" horiz-adv-x="514" 
d="M283 590h-50l116 163h64zM432 63l14 -38q-70 -35 -148 -35q-114 0 -184.5 74t-70.5 196q0 126 68 198t187 72q78 0 148 -35l-14 -39q-63 33 -132 33q-98 0 -153.5 -60.5t-55.5 -168.5q0 -104 58 -167t151 -63q69 0 132 33z" />
    <glyph glyph-name="Ccircumflex" unicode="&#x108;" horiz-adv-x="691" 
d="M240 790h-59l144 163h70l143 -163h-59l-118 139h-2zM403 697q-142 0 -225.5 -90t-83.5 -242q0 -151 85 -241.5t224 -90.5q109 0 201 60l19 -39q-95 -64 -223 -64q-162 0 -259.5 102t-97.5 273q0 173 96.5 274t260.5 101q128 0 223 -64l-19 -39q-90 60 -201 60z" />
    <glyph glyph-name="ccircumflex" unicode="&#x109;" horiz-adv-x="515" 
d="M155 590h-59l144 163h70l143 -163h-59l-118 139h-2zM300 489q-98 0 -153.5 -60.5t-55.5 -168.5q0 -104 58 -167t151 -63q69 0 132 33l14 -38q-70 -35 -148 -35q-114 0 -184.5 74t-70.5 196q0 126 68 198t187 72q78 0 148 -35l-14 -39q-63 33 -132 33z" />
    <glyph glyph-name="Cdotaccent" unicode="&#x10a;" horiz-adv-x="691" 
d="M335 810v123h49v-123h-49zM403 697q-142 0 -225.5 -90t-83.5 -242q0 -151 85 -241.5t224 -90.5q109 0 201 60l19 -39q-95 -64 -223 -64q-162 0 -259.5 102t-97.5 273q0 173 96.5 274t260.5 101q128 0 223 -64l-19 -39q-90 60 -201 60z" />
    <glyph glyph-name="cdotaccent" unicode="&#x10b;" horiz-adv-x="514" 
d="M250 610v123h49v-123h-49zM300 489q-98 0 -153.5 -60.5t-55.5 -168.5q0 -104 58 -167t151 -63q69 0 132 33l14 -38q-70 -35 -148 -35q-114 0 -184.5 74t-70.5 196q0 126 68 198t187 72q78 0 148 -35l-14 -39q-63 33 -132 33z" />
    <glyph glyph-name="Ccaron" unicode="&#x10c;" horiz-adv-x="691" 
d="M240 953l119 -139h2l118 139h59l-143 -163h-70l-144 163h59zM403 697q-142 0 -225.5 -90t-83.5 -242q0 -151 85 -241.5t224 -90.5q109 0 201 60l19 -39q-95 -64 -223 -64q-162 0 -259.5 102t-97.5 273q0 173 96.5 274t260.5 101q128 0 223 -64l-19 -39q-90 60 -201 60z
" />
    <glyph glyph-name="ccaron" unicode="&#x10d;" horiz-adv-x="514" 
d="M394 753h59l-143 -163h-70l-144 163h59l119 -139h2zM300 489q-98 0 -153.5 -60.5t-55.5 -168.5q0 -104 58 -167t151 -63q69 0 132 33l14 -38q-70 -35 -148 -35q-114 0 -184.5 74t-70.5 196q0 126 68 198t187 72q78 0 148 -35l-14 -39q-63 33 -132 33z" />
    <glyph glyph-name="Dcaron" unicode="&#x10e;" horiz-adv-x="674" 
d="M217 953l118 -139h2l119 139h59l-144 -163h-70l-143 163h59zM251 697q-53 0 -113 -12v-640q60 -12 113 -12q163 0 247.5 87t84.5 255q0 158 -84.5 240t-247.5 82zM631 375q0 -188 -98 -286.5t-282 -98.5q-89 0 -163 16v718q76 16 163 16q184 0 282 -94.5t98 -270.5z" />
    <glyph glyph-name="dcaron" unicode="&#x10f;" horiz-adv-x="697" 
d="M632 730h58l-90 -227h-45zM94 260q0 -109 46 -169.5t126 -60.5q76 0 124 58t48 164v16q0 103 -47.5 162.5t-124.5 59.5q-80 0 -126 -60.5t-46 -169.5zM48 260q0 128 56 199t154 71q125 0 178 -110h2v330h47v-750h-45l-1 101h-2q-51 -111 -179 -111q-97 0 -153.5 71
t-56.5 199z" />
    <glyph glyph-name="Dcroat" unicode="&#x110;" horiz-adv-x="745" 
d="M38 363v40h121v321q76 16 163 16q184 0 282 -94.5t98 -270.5q0 -188 -98 -286.5t-282 -98.5q-89 0 -163 16v357h-121zM209 403h199v-40h-199v-318q60 -12 113 -12q163 0 247.5 87t84.5 255q0 158 -84.5 240t-247.5 82q-53 0 -113 -12v-282z" />
    <glyph glyph-name="dcroat" unicode="&#x111;" horiz-adv-x="643" 
d="M235 597v40h203v113h47v-113h120v-40h-120v-597h-45l-1 101h-2q-51 -111 -179 -111q-97 0 -153.5 71t-56.5 199t56 199t154 71q125 0 178 -110h2v177h-203zM94 260q0 -109 46 -169.5t126 -60.5q76 0 124 58t48 164v16q0 103 -47.5 162.5t-124.5 59.5q-80 0 -126 -60.5
t-46 -169.5z" />
    <glyph glyph-name="Emacron" unicode="&#x112;" horiz-adv-x="579" 
d="M131 867v40h334v-40h-334zM138 687v-270h343v-42h-343v-332h363v-43h-413v730h413v-43h-363z" />
    <glyph glyph-name="emacron" unicode="&#x113;" horiz-adv-x="544" 
d="M113 657v40h333v-40h-333zM90 243q1 -100 55.5 -157t145.5 -57q83 0 157 42l15 -37q-81 -44 -175 -44q-112 0 -178.5 72.5t-66.5 197.5q0 126 63 198t172 72q104 0 161 -69t57 -196v-22h-406zM91 283h359q-2 101 -46.5 154.5t-125.5 53.5q-86 0 -135 -54.5t-52 -153.5z
" />
    <glyph glyph-name="Ebreve" unicode="&#x114;" horiz-adv-x="579" 
d="M123 928h42q1 -38 38.5 -66.5t94.5 -28.5t94.5 28.5t38.5 66.5h42q0 -55 -50 -94t-125 -39t-125 39t-50 94zM138 687v-270h343v-42h-343v-332h363v-43h-413v730h413v-43h-363z" />
    <glyph glyph-name="ebreve" unicode="&#x115;" horiz-adv-x="544" 
d="M280 633q57 0 94.5 28.5t38.5 66.5h42q0 -55 -50 -94t-125 -39t-125 39t-50 94h41q1 -37 39 -66t95 -29zM90 243q1 -100 55.5 -157t145.5 -57q83 0 157 42l15 -37q-81 -44 -175 -44q-112 0 -178.5 72.5t-66.5 197.5q0 126 63 198t172 72q104 0 161 -69t57 -196v-22h-406z
M91 283h359q-2 101 -46.5 154.5t-125.5 53.5q-86 0 -135 -54.5t-52 -153.5z" />
    <glyph glyph-name="Edotaccent" unicode="&#x116;" horiz-adv-x="579" 
d="M138 687v-270h343v-42h-343v-332h363v-43h-413v730h413v-43h-363zM274 810v123h48v-123h-48z" />
    <glyph glyph-name="edotaccent" unicode="&#x117;" horiz-adv-x="544" 
d="M255 610v123h49v-123h-49zM90 243q1 -100 55.5 -157t145.5 -57q83 0 157 42l15 -37q-81 -44 -175 -44q-112 0 -178.5 72.5t-66.5 197.5q0 126 63 198t172 72q104 0 161 -69t57 -196v-22h-406zM91 283h359q-2 101 -46.5 154.5t-125.5 53.5q-86 0 -135 -54.5t-52 -153.5z
" />
    <glyph glyph-name="Eogonek" unicode="&#x118;" horiz-adv-x="579" 
d="M490 -161l10 -38q-48 -21 -105 -21q-76 0 -107.5 26.5t-31.5 65.5q0 68 74 128h-242v730h413v-43h-363v-270h343v-42h-343v-332h363v-43h-105q-45 -26 -69.5 -57.5t-24.5 -61.5q0 -61 97 -61q50 0 91 19z" />
    <glyph glyph-name="eogonek" unicode="&#x119;" horiz-adv-x="544" 
d="M91 283h359q-2 101 -46.5 154.5t-125.5 53.5q-86 0 -135 -54.5t-52 -153.5zM257 -8q-37 -42 -37 -86q0 -86 128 -86q58 0 106 24l10 -39q-55 -25 -120 -25q-92 0 -131 34.5t-39 82.5q0 54 41 102q-80 22 -126 90.5t-46 170.5q0 126 63 198t172 72q104 0 161 -69t57 -196
v-22h-406q1 -100 55.5 -157t145.5 -57q83 0 157 42l15 -37q-81 -44 -175 -44q-11 0 -31 2z" />
    <glyph glyph-name="Ecaron" unicode="&#x11a;" horiz-adv-x="579" 
d="M179 953l118 -139h2l118 139h59l-143 -163h-70l-143 163h59zM138 687v-270h343v-42h-343v-332h363v-43h-413v730h413v-43h-363z" />
    <glyph glyph-name="ecaron" unicode="&#x11b;" horiz-adv-x="544" 
d="M101 753h59l119 -139h2l118 139h59l-143 -163h-70zM90 243q1 -100 55.5 -157t145.5 -57q83 0 157 42l15 -37q-81 -44 -175 -44q-112 0 -178.5 72.5t-66.5 197.5q0 126 63 198t172 72q104 0 161 -69t57 -196v-22h-406zM91 283h359q-2 101 -46.5 154.5t-125.5 53.5
q-86 0 -135 -54.5t-52 -153.5z" />
    <glyph glyph-name="Gcircumflex" unicode="&#x11c;" horiz-adv-x="741" 
d="M244 790h-59l143 163h70l143 -163h-59l-118 139h-2zM415 697q-150 0 -235.5 -89t-85.5 -243q0 -153 87 -242.5t237 -89.5q111 0 197 39v303h-277v42h325v-373q-109 -54 -248 -54q-169 0 -270.5 102t-101.5 273t99.5 273t268.5 102q129 0 226 -60l-19 -38q-91 55 -203 55z
" />
    <glyph glyph-name="gcircumflex" unicode="&#x11d;" horiz-adv-x="562" 
d="M177 590h-59l143 163h70l144 -163h-59l-119 139h-2zM265 50q74 0 123.5 58t49.5 157v10q0 98 -49.5 156.5t-123.5 58.5q-80 0 -125.5 -58t-45.5 -162q0 -102 46.5 -161t124.5 -59zM48 270q0 124 55 192t153 68q128 0 181 -110h2l1 100h45v-483q0 -267 -232 -267
q-85 0 -158 33l12 39q71 -32 146 -32q94 0 139.5 54.5t45.5 170.5v83h-2q-52 -108 -180 -108q-94 0 -151 70t-57 190z" />
    <glyph glyph-name="Gbreve" unicode="&#x11e;" horiz-adv-x="741" 
d="M496 928h42q0 -55 -50 -94t-125 -39t-125 39t-50 94h42q1 -38 38.5 -66.5t94.5 -28.5t94.5 28.5t38.5 66.5zM415 697q-150 0 -235.5 -89t-85.5 -243q0 -153 87 -242.5t237 -89.5q111 0 197 39v303h-277v42h325v-373q-109 -54 -248 -54q-169 0 -270.5 102t-101.5 273
t99.5 273t268.5 102q129 0 226 -60l-19 -38q-91 55 -203 55z" />
    <glyph glyph-name="gbreve" unicode="&#x11f;" horiz-adv-x="562" 
d="M430 728h41q0 -55 -50 -94t-125 -39t-125 39t-50 94h42q1 -38 38.5 -66.5t94.5 -28.5t95 29t39 66zM265 50q74 0 123.5 58t49.5 157v10q0 98 -49.5 156.5t-123.5 58.5q-80 0 -125.5 -58t-45.5 -162q0 -102 46.5 -161t124.5 -59zM48 270q0 124 55 192t153 68
q128 0 181 -110h2l1 100h45v-483q0 -267 -232 -267q-85 0 -158 33l12 39q71 -32 146 -32q94 0 139.5 54.5t45.5 170.5v83h-2q-52 -108 -180 -108q-94 0 -151 70t-57 190z" />
    <glyph glyph-name="Gdotaccent" unicode="&#x120;" horiz-adv-x="741" 
d="M339 810v123h48v-123h-48zM415 697q-150 0 -235.5 -89t-85.5 -243q0 -153 87 -242.5t237 -89.5q111 0 197 39v303h-277v42h325v-373q-109 -54 -248 -54q-169 0 -270.5 102t-101.5 273t99.5 273t268.5 102q129 0 226 -60l-19 -38q-91 55 -203 55z" />
    <glyph glyph-name="gdotaccent" unicode="&#x121;" horiz-adv-x="562" 
d="M272 610v123h49v-123h-49zM265 50q74 0 123.5 58t49.5 157v10q0 98 -49.5 156.5t-123.5 58.5q-80 0 -125.5 -58t-45.5 -162q0 -102 46.5 -161t124.5 -59zM48 270q0 124 55 192t153 68q128 0 181 -110h2l1 100h45v-483q0 -267 -232 -267q-85 0 -158 33l12 39
q71 -32 146 -32q94 0 139.5 54.5t45.5 170.5v83h-2q-52 -108 -180 -108q-94 0 -151 70t-57 190z" />
    <glyph glyph-name="Gcommaaccent" unicode="&#x122;" horiz-adv-x="741" 
d="M293 -263l67 203h59l-78 -203h-48zM415 697q-150 0 -235.5 -89t-85.5 -243q0 -153 87 -242.5t237 -89.5q111 0 197 39v303h-277v42h325v-373q-109 -54 -248 -54q-169 0 -270.5 102t-101.5 273t99.5 273t268.5 102q129 0 226 -60l-19 -38q-91 55 -203 55z" />
    <glyph glyph-name="gcommaaccent" unicode="&#x123;" horiz-adv-x="562" 
d="M240 580l79 203h47l-67 -203h-59zM265 50q74 0 123.5 58t49.5 157v10q0 98 -49.5 156.5t-123.5 58.5q-80 0 -125.5 -58t-45.5 -162q0 -102 46.5 -161t124.5 -59zM48 270q0 124 55 192t153 68q128 0 181 -110h2l1 100h45v-483q0 -267 -232 -267q-85 0 -158 33l12 39
q71 -32 146 -32q94 0 139.5 54.5t45.5 170.5v83h-2q-52 -108 -180 -108q-94 0 -151 70t-57 190z" />
    <glyph glyph-name="Hcircumflex" unicode="&#x124;" horiz-adv-x="696" 
d="M229 790h-59l143 163h70l143 -163h-59l-118 139h-2zM138 730v-313h420v313h50v-730h-50v375h-420v-375h-50v730h50z" />
    <glyph glyph-name="hcircumflex" unicode="&#x125;" horiz-adv-x="562" 
d="M160 790h-59l144 163h70l143 -163h-59l-118 139h-2zM130 750v-339h2q29 55 76.5 87t104.5 32q91 0 134 -53t43 -170v-307h-46v303q0 102 -32.5 144t-110.5 42q-66 0 -118.5 -63t-52.5 -149v-277h-47v750h47z" />
    <glyph glyph-name="Hbar" unicode="&#x126;" horiz-adv-x="809" 
d="M38 560v40h107v130h50v-130h420v130h50v-130h106v-40h-106v-560h-50v375h-420v-375h-50v560h-107zM615 560h-420v-143h420v143z" />
    <glyph glyph-name="hbar" unicode="&#x127;" horiz-adv-x="638" 
d="M38 597v40h121v113h47v-113h202v-40h-202v-186h2q29 55 76.5 87t104.5 32q91 0 134 -53t43 -170v-307h-46v303q0 102 -32.5 144t-110.5 42q-66 0 -118.5 -63t-52.5 -149v-277h-47v597h-121z" />
    <glyph glyph-name="Itilde" unicode="&#x128;" horiz-adv-x="298" 
d="M47 930q43 0 109 -46q57 -40 87 -40q39 0 39 76h42q0 -115 -73 -115q-43 0 -111 47q-56 39 -85 39q-39 0 -39 -86h-42q0 125 73 125zM122 0v730h54v-730h-54z" />
    <glyph glyph-name="itilde" unicode="&#x129;" horiz-adv-x="294" 
d="M154 674q57 -40 87 -40q39 0 39 76h42q0 -115 -73 -115q-43 0 -111 47q-56 39 -85 39q-39 0 -39 -86h-42q0 125 73 125q43 0 109 -46zM123 0v520h48v-520h-48z" />
    <glyph glyph-name="Imacron" unicode="&#x12a;" horiz-adv-x="299" 
d="M-17 867v40h333v-40h-333zM123 0v730h53v-730h-53z" />
    <glyph glyph-name="imacron" unicode="&#x12b;" horiz-adv-x="293" 
d="M-20 657v40h333v-40h-333zM122 0v520h49v-520h-49z" />
    <glyph glyph-name="Ibreve" unicode="&#x12c;" horiz-adv-x="298" 
d="M-26 928h42q1 -38 38.5 -66.5t94.5 -28.5t94.5 28.5t38.5 66.5h42q0 -55 -50 -94t-125 -39t-125 39t-50 94zM122 0v730h54v-730h-54z" />
    <glyph glyph-name="ibreve" unicode="&#x12d;" horiz-adv-x="294" 
d="M147 633q57 0 94.5 28.5t38.5 66.5h42q0 -55 -50 -94t-125 -39t-125 39t-50 94h42q1 -38 38.5 -66.5t94.5 -28.5zM123 0v520h48v-520h-48z" />
    <glyph glyph-name="Iogonek" unicode="&#x12e;" horiz-adv-x="299" 
d="M161 0q-95 -54 -95 -119q0 -61 97 -61q51 0 92 19l9 -38q-48 -21 -105 -21q-76 0 -107.5 26.5t-31.5 65.5q0 80 102 148v710h54v-730h-15z" />
    <glyph glyph-name="iogonek" unicode="&#x12f;" horiz-adv-x="294" 
d="M122 640v110h49v-110h-49zM161 0q-95 -54 -95 -119q0 -61 97 -61q51 0 92 19l9 -38q-48 -21 -105 -21q-76 0 -107.5 26.5t-31.5 65.5q0 80 102 148v500h49v-520h-10z" />
    <glyph glyph-name="Idotaccent" unicode="&#x130;" horiz-adv-x="299" 
d="M123 0v730h53v-730h-53zM123 810v123h53v-123h-53z" />
    <glyph glyph-name="dotlessi" unicode="&#x131;" horiz-adv-x="294" 
d="M123 0v520h49v-520h-49z" />
    <glyph glyph-name="IJ" unicode="&#x132;" horiz-adv-x="817" 
d="M305 66q69 -33 140 -33q208 0 208 247v450h52v-457q0 -283 -260 -283q-87 0 -154 33zM123 0v730h53v-730h-53z" />
    <glyph glyph-name="ij" unicode="&#x133;" horiz-adv-x="592" 
d="M238 -220l-2 41q113 0 149 36t36 151v512h49v-510q0 -135 -48 -182.5t-184 -47.5zM421 640v110h49v-110h-49zM123 0v520h49v-520h-49zM123 640v110h49v-110h-49z" />
    <glyph glyph-name="Jcircumflex" unicode="&#x134;" horiz-adv-x="562" 
d="M292 790h-59l143 163h70l144 -163h-59l-119 139h-2zM42 66q69 -33 139 -33q209 0 209 247v450h51v-457q0 -283 -260 -283q-86 0 -153 33z" />
    <glyph glyph-name="jcircumflex" unicode="&#x135;" horiz-adv-x="338" 
d="M68 590h-59l143 163h70l143 -163h-59l-118 139h-2zM-16 -220l-2 41q113 0 149 36t36 151v512h48v-510q0 -135 -47.5 -182.5t-183.5 -47.5z" />
    <glyph glyph-name="Kcommaaccent" unicode="&#x136;" horiz-adv-x="612" 
d="M140 361h-2v-361h-50v730h50v-331h2l361 331h64l-384 -350l394 -380h-64zM233 -263l67 203h59l-78 -203h-48z" />
    <glyph glyph-name="kcommaaccent" unicode="&#x137;" horiz-adv-x="544" 
d="M130 750v-457h2l295 227h64l-323 -248l328 -272h-63l-301 251h-2v-251h-47v750h47zM200 -263l67 203h59l-79 -203h-47z" />
    <glyph glyph-name="kgreenlandic" unicode="&#x138;" horiz-adv-x="539" 
d="M125 520v-227h2l295 227h64l-323 -248l328 -272h-63l-301 251h-2v-251h-47v520h47z" />
    <glyph glyph-name="Lacute" unicode="&#x139;" horiz-adv-x="581" 
d="M138 790h-50l117 163h63zM140 730v-686h378v-44h-430v730h52z" />
    <glyph glyph-name="lacute" unicode="&#x13a;" horiz-adv-x="294" 
d="M173 810h-50l117 163h63zM123 0v750h49v-750h-49z" />
    <glyph glyph-name="Lcommaaccent" unicode="&#x13b;" horiz-adv-x="580" 
d="M518 44v-44h-430v730h52v-686h378zM215 -263l67 203h59l-79 -203h-47z" />
    <glyph glyph-name="lcommaaccent" unicode="&#x13c;" horiz-adv-x="294" 
d="M123 0v750h48v-750h-48zM77 -263l67 203h59l-78 -203h-48z" />
    <glyph glyph-name="Lcaron" unicode="&#x13d;" horiz-adv-x="586" 
d="M140 730v-686h378v-44h-430v730h52zM349 730h57l-90 -227h-44z" />
    <glyph glyph-name="lcaron" unicode="&#x13e;" horiz-adv-x="420" 
d="M123 0v750h49v-750h-49zM335 750h57l-90 -227h-44z" />
    <glyph glyph-name="Ldot" unicode="&#x13f;" horiz-adv-x="586" 
d="M140 730v-686h378v-44h-430v730h52zM372 335v123h49v-123h-49z" />
    <glyph glyph-name="ldot" unicode="&#x140;" horiz-adv-x="406" 
d="M290 335v123h48v-123h-48zM123 0v750h49v-750h-49z" />
    <glyph glyph-name="Lslash" unicode="&#x141;" horiz-adv-x="651" 
d="M42 317l-14 34l131 58v321h51v-298l166 73l15 -33l-181 -80v-348h379v-44h-430v369z" />
    <glyph glyph-name="lslash" unicode="&#x142;" horiz-adv-x="438" 
d="M52 317l-14 34l157 70v329h49v-308l142 63l15 -33l-157 -70v-402h-49v381z" />
    <glyph glyph-name="Nacute" unicode="&#x143;" horiz-adv-x="702" 
d="M329 790h-50l117 163h63zM88 0v730h57l418 -654h2v654h50v-730h-58l-418 654h-2v-654h-49z" />
    <glyph glyph-name="nacute" unicode="&#x144;" horiz-adv-x="557" 
d="M323 753h63l-130 -163h-50zM296 489q-66 0 -118.5 -63t-52.5 -149v-277h-47v520h45l1 -110h2q27 55 75.5 87.5t106.5 32.5q91 0 134 -53t43 -170v-307h-46v303q0 102 -32.5 144t-110.5 42z" />
    <glyph glyph-name="Ncommaaccent" unicode="&#x145;" horiz-adv-x="702" 
d="M281 -263l67 203h60l-79 -203h-48zM137 0h-49v730h57l418 -654h2v654h50v-730h-58l-418 654h-2v-654z" />
    <glyph glyph-name="ncommaaccent" unicode="&#x146;" horiz-adv-x="557" 
d="M208 -263l67 203h59l-78 -203h-48zM296 489q-66 0 -118.5 -63t-52.5 -149v-277h-47v520h45l1 -110h2q27 55 75.5 87.5t106.5 32.5q91 0 134 -53t43 -170v-307h-46v303q0 102 -32.5 144t-110.5 42z" />
    <glyph glyph-name="Ncaron" unicode="&#x147;" horiz-adv-x="702" 
d="M352 814l119 139h59l-144 -163h-70l-143 163h59l118 -139h2zM88 0v730h57l418 -654h2v654h50v-730h-58l-418 654h-2v-654h-49z" />
    <glyph glyph-name="ncaron" unicode="&#x148;" horiz-adv-x="557" 
d="M279 614l118 139h59l-143 -163h-70l-143 163h59l118 -139h2zM296 489q-66 0 -118.5 -63t-52.5 -149v-277h-47v520h45l1 -110h2q27 55 75.5 87.5t106.5 32.5q91 0 134 -53t43 -170v-307h-46v303q0 102 -32.5 144t-110.5 42z" />
    <glyph glyph-name="napostrophe" unicode="&#x149;" horiz-adv-x="650" 
d="M115 730h57l-90 -227h-44zM389 489q-66 0 -119 -63t-53 -149v-277h-46v520h45v-110h2q27 55 76 87.5t107 32.5q91 0 133.5 -53t42.5 -170v-307h-46v303q0 102 -32 144t-110 42z" />
    <glyph glyph-name="Eng" unicode="&#x14a;" horiz-adv-x="702" 
d="M615 730v-798q0 -84 -37 -123t-116 -39q-47 0 -89 15l11 41q34 -14 72 -14q59 0 84 27.5t25 93.5v54l-426 667h-2v-654h-49v730h57l418 -654h2v654h50z" />
    <glyph glyph-name="eng" unicode="&#x14b;" horiz-adv-x="557" 
d="M485 -68q0 -85 -36.5 -123.5t-115.5 -38.5q-45 0 -87 15l12 39q34 -14 71 -14q59 0 84.5 28t25.5 94v371q0 102 -32.5 144t-110.5 42q-66 0 -118.5 -63t-52.5 -149v-277h-47v520h45l1 -110h2q27 55 75.5 87.5t106.5 32.5q91 0 134 -53t43 -170v-375z" />
    <glyph glyph-name="Omacron" unicode="&#x14c;" horiz-adv-x="792" 
d="M230 867v40h333v-40h-333zM396 697q-136 0 -219 -91t-83 -241t83 -241t219 -91t219.5 91t83.5 241t-83.5 241t-219.5 91zM396 -10q-159 0 -256 103t-97 272t97 272t256 103t256.5 -103t97.5 -272t-97.5 -272t-256.5 -103z" />
    <glyph glyph-name="omacron" unicode="&#x14d;" horiz-adv-x="566" 
d="M116 657v40h334v-40h-334zM283 490q-89 0 -141 -61.5t-52 -168.5t52 -168.5t141 -61.5t141 61.5t52 168.5t-52 168.5t-141 61.5zM283 -10q-110 0 -175 73t-65 197t65 197t175 73t175 -73t65 -197t-65 -197t-175 -73z" />
    <glyph glyph-name="Obreve" unicode="&#x14e;" horiz-adv-x="792" 
d="M221 928h42q1 -38 38.5 -66.5t94.5 -28.5t95 29t39 66h41q0 -55 -50 -94t-125 -39t-125 39t-50 94zM396 697q-136 0 -219 -91t-83 -241t83 -241t219 -91t219.5 91t83.5 241t-83.5 241t-219.5 91zM396 -10q-159 0 -256 103t-97 272t97 272t256 103t256.5 -103t97.5 -272
t-97.5 -272t-256.5 -103z" />
    <glyph glyph-name="obreve" unicode="&#x14f;" horiz-adv-x="566" 
d="M283 633q57 0 94.5 28.5t38.5 66.5h42q0 -55 -50 -94t-125 -39t-125 39t-50 94h42q1 -38 38.5 -66.5t94.5 -28.5zM283 490q-89 0 -141 -61.5t-52 -168.5t52 -168.5t141 -61.5t141 61.5t52 168.5t-52 168.5t-141 61.5zM283 -10q-110 0 -175 73t-65 197t65 197t175 73
t175 -73t65 -197t-65 -197t-175 -73z" />
    <glyph glyph-name="Ohungarumlaut" unicode="&#x150;" horiz-adv-x="792" 
d="M486 790h-47l117 163h60zM319 790h-46l116 163h60zM396 697q-136 0 -219 -91t-83 -241t83 -241t219 -91t219.5 91t83.5 241t-83.5 241t-219.5 91zM396 -10q-159 0 -256 103t-97 272t97 272t256 103t256.5 -103t97.5 -272t-97.5 -272t-256.5 -103z" />
    <glyph glyph-name="ohungarumlaut" unicode="&#x151;" horiz-adv-x="566" 
d="M372 590h-46l117 163h60zM206 590h-47l117 163h60zM283 490q-89 0 -141 -61.5t-52 -168.5t52 -168.5t141 -61.5t141 61.5t52 168.5t-52 168.5t-141 61.5zM283 -10q-110 0 -175 73t-65 197t65 197t175 73t175 -73t65 -197t-65 -197t-175 -73z" />
    <glyph glyph-name="OE" unicode="&#x152;" horiz-adv-x="861" 
d="M458 730h325v-43h-305v-270h285v-42h-285v-332h305v-43h-325q-37 -10 -84 -10q-149 0 -240 103t-91 272t91 272t240 103q47 0 84 -10zM430 39v652q-27 6 -56 6q-126 0 -203 -91t-77 -241t77 -241t203 -91q29 0 56 6z" />
    <glyph glyph-name="oe" unicode="&#x153;" horiz-adv-x="914" 
d="M43 260q0 124 62 197t165 73q67 0 117.5 -35.5t76.5 -100.5q25 65 75 100.5t119 35.5q100 0 154 -68t54 -197v-22h-378q1 -98 51 -156t132 -58q79 0 150 42l16 -37q-78 -44 -169 -44q-70 0 -123.5 36.5t-79.5 102.5q-26 -66 -76.5 -102.5t-118.5 -36.5q-103 0 -165 73
t-62 197zM488 283h332q-1 101 -43 154.5t-119 53.5t-122 -54.5t-48 -153.5zM442 260q0 106 -47 168t-125 62q-83 0 -131.5 -61t-48.5 -169t48.5 -169t131.5 -61q78 0 125 62t47 168z" />
    <glyph glyph-name="Racute" unicode="&#x154;" horiz-adv-x="606" 
d="M266 790h-50l117 163h63zM138 337v-337h-50v725q81 15 173 15q138 0 207.5 -50.5t69.5 -146.5q0 -153 -169 -188v-2q25 -12 46.5 -42t51.5 -99l91 -212h-53l-87 206q-17 40 -28.5 61t-24.5 37.5t-31 22t-38 8t-58 2.5h-100zM138 379h100q130 0 190.5 40t60.5 121
q0 157 -231 157q-66 0 -120 -10v-308z" />
    <glyph glyph-name="racute" unicode="&#x155;" horiz-adv-x="442" 
d="M169 590h-50l117 163h63zM124 520v-123h2q40 63 107 98t152 35v-41q-112 0 -186 -63.5t-74 -158.5v-267h-47v520h46z" />
    <glyph glyph-name="Rcommaaccent" unicode="&#x156;" horiz-adv-x="606" 
d="M138 0h-50v725q81 15 173 15q138 0 207.5 -50.5t69.5 -146.5q0 -153 -169 -188v-2q25 -12 46.5 -42t51.5 -99l91 -212h-53l-87 206q-17 40 -28.5 61t-24.5 37.5t-31 22t-38 8t-58 2.5h-100v-337zM218 -263l67 203h59l-78 -203h-48zM138 379h100q130 0 190.5 40t60.5 121
q0 157 -231 157q-66 0 -120 -10v-308z" />
    <glyph glyph-name="rcommaaccent" unicode="&#x157;" horiz-adv-x="442" 
d="M121 -263l67 203h60l-79 -203h-48zM124 520v-123h2q40 63 107 98t152 35v-41q-112 0 -186 -63.5t-74 -158.5v-267h-47v520h46z" />
    <glyph glyph-name="Rcaron" unicode="&#x158;" horiz-adv-x="606" 
d="M289 814l118 139h59l-143 -163h-70l-143 163h59l118 -139h2zM138 0h-50v725q81 15 173 15q138 0 207.5 -50.5t69.5 -146.5q0 -153 -169 -188v-2q25 -12 46.5 -42t51.5 -99l91 -212h-53l-87 206q-17 40 -28.5 61t-24.5 37.5t-31 22t-38 8t-58 2.5h-100v-337zM138 379h100
q130 0 190.5 40t60.5 121q0 157 -231 157q-66 0 -120 -10v-308z" />
    <glyph glyph-name="rcaron" unicode="&#x159;" horiz-adv-x="442" 
d="M192 614l119 139h59l-144 -163h-70l-143 163h59l118 -139h2zM124 520v-123h2q40 63 107 98t152 35v-41q-112 0 -186 -63.5t-74 -158.5v-267h-47v520h46z" />
    <glyph glyph-name="Sacute" unicode="&#x15a;" horiz-adv-x="562" 
d="M70 570q0 77 55.5 123.5t155.5 46.5q112 0 205 -48l-14 -40q-84 45 -191 45q-77 0 -119.5 -33.5t-42.5 -93.5q0 -110 163 -160q116 -35 167 -88t51 -137q0 -94 -57.5 -144.5t-164.5 -50.5q-122 0 -215 67l18 40q86 -64 197 -64q84 0 128 39t44 113q0 67 -39.5 108.5
t-132.5 70.5q-208 62 -208 206zM261 790h-50l117 163h63z" />
    <glyph glyph-name="sacute" unicode="&#x15b;" horiz-adv-x="489" 
d="M58 395q0 61 49 98t134 37q91 0 174 -40l-13 -39q-78 39 -161 39q-64 0 -100 -25.5t-36 -69.5q0 -40 29.5 -65t109.5 -40q99 -18 143 -55.5t44 -101.5q0 -66 -50.5 -104.5t-139.5 -38.5q-98 0 -183 50l14 38q79 -48 169 -48q67 0 105 27.5t38 75.5q0 46 -33.5 72.5
t-112.5 41.5q-96 17 -138 52t-42 96zM219 590h-50l117 163h63z" />
    <glyph glyph-name="Scircumflex" unicode="&#x15c;" horiz-adv-x="562" 
d="M282 929l-118 -139h-59l143 163h70l143 -163h-59l-118 139h-2zM70 570q0 77 55.5 123.5t155.5 46.5q112 0 205 -48l-14 -40q-84 45 -191 45q-77 0 -119.5 -33.5t-42.5 -93.5q0 -110 163 -160q116 -35 167 -88t51 -137q0 -94 -57.5 -144.5t-164.5 -50.5q-122 0 -215 67
l18 40q86 -64 197 -64q84 0 128 39t44 113q0 67 -39.5 108.5t-132.5 70.5q-208 62 -208 206z" />
    <glyph glyph-name="scircumflex" unicode="&#x15d;" horiz-adv-x="489" 
d="M240 729l-118 -139h-59l143 163h70l144 -163h-59l-119 139h-2zM58 395q0 61 49 98t134 37q91 0 174 -40l-13 -39q-78 39 -161 39q-64 0 -100 -25.5t-36 -69.5q0 -40 29.5 -65t109.5 -40q99 -18 143 -55.5t44 -101.5q0 -66 -50.5 -104.5t-139.5 -38.5q-98 0 -183 50l14 38
q79 -48 169 -48q67 0 105 27.5t38 75.5q0 46 -33.5 72.5t-112.5 41.5q-96 17 -138 52t-42 96z" />
    <glyph glyph-name="Scedilla" unicode="&#x15e;" horiz-adv-x="562" 
d="M117 -156q48 -24 106 -24q128 0 128 86q0 44 -37 86q-24 -2 -36 -2q-122 0 -215 67l18 40q86 -64 197 -64q84 0 128 39t44 113q0 67 -39.5 108.5t-132.5 70.5q-208 62 -208 206q0 77 55.5 123.5t155.5 46.5q112 0 205 -48l-14 -40q-84 45 -191 45q-77 0 -119.5 -33.5
t-42.5 -93.5q0 -110 163 -160q116 -35 167 -88t51 -137q0 -75 -37 -122.5t-106 -64.5q40 -49 40 -101q0 -48 -39 -82.5t-131 -34.5q-65 0 -120 25z" />
    <glyph glyph-name="scedilla" unicode="&#x15f;" horiz-adv-x="489" 
d="M58 395q0 61 49 98t134 37q91 0 174 -40l-13 -39q-78 39 -161 39q-64 0 -100 -25.5t-36 -69.5q0 -40 29.5 -65t109.5 -40q99 -18 143 -55.5t44 -101.5q0 -51 -30 -86t-86 -49q41 -50 41 -101q0 -48 -39 -82.5t-131 -34.5q-66 0 -121 25l10 39q48 -24 107 -24
q127 0 127 86q0 46 -36 85q-10 -1 -32 -1q-98 0 -183 50l14 38q79 -48 169 -48q67 0 105 27.5t38 75.5q0 46 -33.5 72.5t-112.5 41.5q-96 17 -138 52t-42 96z" />
    <glyph glyph-name="Scaron" unicode="&#x160;" horiz-adv-x="562" 
d="M284 814l118 139h59l-143 -163h-70l-143 163h59l118 -139h2zM70 570q0 77 55.5 123.5t155.5 46.5q112 0 205 -48l-14 -40q-84 45 -191 45q-77 0 -119.5 -33.5t-42.5 -93.5q0 -110 163 -160q116 -35 167 -88t51 -137q0 -94 -57.5 -144.5t-164.5 -50.5q-122 0 -215 67
l18 40q86 -64 197 -64q84 0 128 39t44 113q0 67 -39.5 108.5t-132.5 70.5q-208 62 -208 206z" />
    <glyph glyph-name="scaron" unicode="&#x161;" horiz-adv-x="489" 
d="M420 753l-144 -163h-70l-143 163h59l118 -139h2l119 139h59zM58 395q0 61 49 98t134 37q91 0 174 -40l-13 -39q-78 39 -161 39q-64 0 -100 -25.5t-36 -69.5q0 -40 29.5 -65t109.5 -40q99 -18 143 -55.5t44 -101.5q0 -66 -50.5 -104.5t-139.5 -38.5q-98 0 -183 50l14 38
q79 -48 169 -48q67 0 105 27.5t38 75.5q0 46 -33.5 72.5t-112.5 41.5q-96 17 -138 52t-42 96z" />
    <glyph glyph-name="Tcommaaccent" unicode="&#x162;" horiz-adv-x="652" 
d="M63 730h527v-44h-239v-679q48 -54 48 -110q0 -48 -39 -82.5t-131 -34.5q-65 0 -120 25l9 39q48 -24 107 -24q128 0 128 86q0 49 -45 94h-7v686h-238v44z" />
    <glyph glyph-name="tcommaaccent" unicode="&#x163;" horiz-adv-x="504" 
d="M295 -9q-67 4 -94.5 39t-27.5 117v313h-120v40h120v190h47v-190h206v-40h-206v-307q0 -75 22 -99t81 -24q47 0 85 15l10 -38q-34 -13 -75 -16q34 -46 34 -94t-39 -82.5t-131 -34.5q-65 0 -120 25l10 39q48 -24 106 -24q128 0 128 86q0 46 -36 85z" />
    <glyph glyph-name="Tcaron" unicode="&#x164;" horiz-adv-x="652" 
d="M327 814l119 139h59l-144 -163h-70l-143 163h59l118 -139h2zM590 730v-44h-239v-686h-50v686h-238v44h527z" />
    <glyph glyph-name="tcaron" unicode="&#x165;" horiz-adv-x="502" 
d="M417 810h58l-90 -227h-45zM418 7q-48 -17 -100 -17q-81 0 -113 34.5t-32 122.5v313h-120v40h120v190h47v-190h206v-40h-206v-307q0 -75 22 -99t81 -24q47 0 85 15z" />
    <glyph glyph-name="Tbar" unicode="&#x166;" horiz-adv-x="662" 
d="M118 270v40h188v376h-238v44h527v-44h-239v-376h189v-40h-189v-270h-50v270h-188z" />
    <glyph glyph-name="tbar" unicode="&#x167;" horiz-adv-x="514" 
d="M58 270v40h120v190h-120v40h120v150h47v-150h206v-40h-206v-190h166v-40h-166v-117q0 -75 22 -99t81 -24q48 0 85 15l10 -38q-48 -17 -100 -17q-81 0 -113 34.5t-32 122.5v123h-120z" />
    <glyph glyph-name="Utilde" unicode="&#x168;" horiz-adv-x="672" 
d="M235 930q43 0 109 -46q57 -40 86 -40q40 0 40 76h41q0 -115 -73 -115q-42 0 -110 47q-56 39 -86 39q-39 0 -39 -86h-42q0 125 74 125zM78 730h51v-453q0 -243 208 -243t208 243v453h50v-452q0 -140 -67 -214t-192 -74t-191.5 73.5t-66.5 214.5v452z" />
    <glyph glyph-name="utilde" unicode="&#x169;" horiz-adv-x="547" 
d="M175 720q43 0 109 -46q57 -40 86 -40q40 0 40 76h41q0 -115 -73 -115q-42 0 -110 47q-56 39 -86 39q-39 0 -39 -86h-42q0 125 74 125zM119 520v-327q0 -89 30 -125.5t102 -36.5q64 0 118 62.5t54 149.5v277h47v-520h-45l-1 110h-2q-27 -55 -75.5 -87.5t-106.5 -32.5
q-87 0 -127 47t-40 153v330h46z" />
    <glyph glyph-name="Umacron" unicode="&#x16a;" horiz-adv-x="672" 
d="M170 867v40h333v-40h-333zM545 730h50v-452q0 -140 -67 -214t-192 -74t-191.5 73.5t-66.5 214.5v452h51v-453q0 -243 208 -243t208 243v453z" />
    <glyph glyph-name="umacron" unicode="&#x16b;" horiz-adv-x="547" 
d="M110 657v40h333v-40h-333zM119 520v-327q0 -89 30 -125.5t102 -36.5q64 0 118 62.5t54 149.5v277h47v-520h-45l-1 110h-2q-27 -55 -75.5 -87.5t-106.5 -32.5q-87 0 -127 47t-40 153v330h46z" />
    <glyph glyph-name="Ubreve" unicode="&#x16c;" horiz-adv-x="672" 
d="M336 833q57 0 95 29t39 66h41q0 -55 -50 -94t-125 -39t-125 39t-50 94h42q1 -38 38.5 -66.5t94.5 -28.5zM545 730h50v-452q0 -140 -67 -214t-192 -74t-191.5 73.5t-66.5 214.5v452h51v-453q0 -243 208 -243t208 243v453z" />
    <glyph glyph-name="ubreve" unicode="&#x16d;" horiz-adv-x="547" 
d="M276 633q57 0 95 29t39 66h41q0 -55 -50 -94t-125 -39t-125 39t-50 94h42q1 -38 38.5 -66.5t94.5 -28.5zM119 520v-327q0 -89 30 -125.5t102 -36.5q64 0 118 62.5t54 149.5v277h47v-520h-45l-1 110h-2q-27 -55 -75.5 -87.5t-106.5 -32.5q-87 0 -127 47t-40 153v330h46z
" />
    <glyph glyph-name="Uring" unicode="&#x16e;" horiz-adv-x="672" 
d="M545 730h50v-452q0 -140 -67 -214t-192 -74t-191.5 73.5t-66.5 214.5v452h51v-453q0 -243 208 -243t208 243v453zM453 885q0 -48 -34.5 -82.5t-82.5 -34.5t-82 34.5t-34 82.5t34 82.5t82 34.5t82.5 -34.5t34.5 -82.5zM420 885q0 34 -24.5 58.5t-59.5 24.5
q-34 0 -58.5 -24t-24.5 -59t24.5 -59t58.5 -24q35 0 59.5 24.5t24.5 58.5z" />
    <glyph glyph-name="uring" unicode="&#x16f;" horiz-adv-x="547" 
d="M119 520v-327q0 -89 30 -125.5t102 -36.5q64 0 118 62.5t54 149.5v277h47v-520h-45l-1 110h-2q-27 -55 -75.5 -87.5t-106.5 -32.5q-87 0 -127 47t-40 153v330h46zM393 675q0 -48 -34.5 -82.5t-82.5 -34.5t-82 34.5t-34 82.5t34 82.5t82 34.5t82.5 -34.5t34.5 -82.5z
M360 675q0 34 -24.5 58.5t-59.5 24.5q-34 0 -58.5 -24t-24.5 -59t24.5 -59t58.5 -24q35 0 59.5 24.5t24.5 58.5z" />
    <glyph glyph-name="Uhungarumlaut" unicode="&#x170;" horiz-adv-x="672" 
d="M426 790h-47l117 163h60zM259 790h-46l116 163h60zM78 730h51v-453q0 -243 208 -243t208 243v453h50v-452q0 -140 -67 -214t-192 -74t-191.5 73.5t-66.5 214.5v452z" />
    <glyph glyph-name="uhungarumlaut" unicode="&#x171;" horiz-adv-x="551" 
d="M366 590h-47l117 163h60zM199 590h-46l116 163h60zM119 520v-327q0 -89 30 -125.5t102 -36.5q64 0 118 62.5t54 149.5v277h47v-520h-45l-1 110h-2q-27 -55 -75.5 -87.5t-106.5 -32.5q-87 0 -127 47t-40 153v330h46z" />
    <glyph glyph-name="Uogonek" unicode="&#x172;" horiz-adv-x="672" 
d="M129 730v-453q0 -243 208 -243t208 243v453h50v-452q0 -123 -51.5 -194.5t-148.5 -88.5q-85 -52 -85 -114q0 -61 97 -61q51 0 92 19l9 -38q-48 -21 -105 -21q-76 0 -107.5 26.5t-31.5 65.5q0 61 63 118q-120 3 -184.5 77t-64.5 211v452h51z" />
    <glyph glyph-name="uogonek" unicode="&#x173;" horiz-adv-x="553" 
d="M119 520v-327q0 -89 30 -125.5t102 -36.5q64 0 118 62.5t54 149.5v277h47v-520h-7q-45 -26 -69.5 -57.5t-24.5 -61.5q0 -61 97 -61q50 0 91 19l10 -38q-48 -21 -105 -21q-76 0 -108 27t-32 65q0 79 103 148l-1 90h-2q-27 -55 -75.5 -87.5t-106.5 -32.5q-87 0 -127 47
t-40 153v330h46z" />
    <glyph glyph-name="Wcircumflex" unicode="&#x174;" horiz-adv-x="942" 
d="M470 929l-118 -139h-59l143 163h70l144 -163h-59l-119 139h-2zM472 679h-2l-171 -679h-67l-184 730h51l165 -679h2l172 679h68l172 -679h2l165 679h50l-185 -730h-66z" />
    <glyph glyph-name="wcircumflex" unicode="&#x175;" horiz-adv-x="806" 
d="M402 729l-118 -139h-59l143 163h70l143 -163h-59l-118 139h-2zM404 474h-2l-132 -474h-65l-157 520h51l137 -477h2l132 477h67l132 -477h2l137 477h50l-157 -520h-65z" />
    <glyph glyph-name="Ycircumflex" unicode="&#x176;" horiz-adv-x="656" 
d="M327 929l-118 -139h-59l143 163h70l143 -163h-59l-118 139h-2zM92 730l236 -368h2l235 368h58l-269 -412v-318h-52v318l-269 412h59z" />
    <glyph glyph-name="ycircumflex" unicode="&#x177;" horiz-adv-x="549" 
d="M270 729l-118 -139h-59l143 163h70l144 -163h-59l-119 139h-2zM267 63h2l192 457h50l-320 -740h-50l101 227l-204 513h51z" />
    <glyph glyph-name="Ydieresis" unicode="&#x178;" horiz-adv-x="656" 
d="M405 810v123h46v-123h-46zM205 810v123h46v-123h-46zM92 730l236 -368h2l235 368h58l-269 -412v-318h-52v318l-269 412h59z" />
    <glyph glyph-name="Zacute" unicode="&#x179;" horiz-adv-x="629" 
d="M293 790h-50l116 163h64zM492 685v2h-414v43h473v-43l-414 -642v-2h414v-43h-473v43z" />
    <glyph glyph-name="zacute" unicode="&#x17a;" horiz-adv-x="539" 
d="M314 753h64l-130 -163h-50zM402 478v2h-324v40h383v-40l-324 -438v-2h324v-40h-383v40z" />
    <glyph glyph-name="Zdotaccent" unicode="&#x17b;" horiz-adv-x="629" 
d="M290 810v123h49v-123h-49zM78 687v43h473v-43l-414 -642v-2h414v-43h-473v43l414 642v2h-414z" />
    <glyph glyph-name="zdotaccent" unicode="&#x17c;" horiz-adv-x="539" 
d="M245 610v123h49v-123h-49zM402 478v2h-324v40h383v-40l-324 -438v-2h324v-40h-383v40z" />
    <glyph glyph-name="Zcaron" unicode="&#x17d;" horiz-adv-x="629" 
d="M316 814l118 139h59l-143 -163h-70l-144 163h59l119 -139h2zM492 685v2h-414v43h473v-43l-414 -642v-2h414v-43h-473v43z" />
    <glyph glyph-name="zcaron" unicode="&#x17e;" horiz-adv-x="539" 
d="M271 614l118 139h59l-143 -163h-70l-144 163h59l119 -139h2zM402 478v2h-324v40h383v-40l-324 -438v-2h324v-40h-383v40z" />
    <glyph glyph-name="longs" unicode="&#x17f;" horiz-adv-x="421" 
d="M118 0v578q0 83 37.5 122.5t115.5 39.5q45 0 87 -15l-12 -39q-34 14 -71 14q-59 0 -84.5 -28t-25.5 -94v-578h-47z" />
    <glyph glyph-name="uni0180" unicode="&#x180;" horiz-adv-x="643" 
d="M38 597v40h121v113h46v-113h203v-40h-203v-177h2q53 110 178 110q98 0 154 -71t56 -199t-56.5 -199t-153.5 -71q-128 0 -179 111h-2v-101h-45v597h-121zM549 260q0 109 -46 169.5t-126 60.5q-77 0 -124.5 -59.5t-47.5 -162.5v-16q0 -106 48 -164t124 -58q80 0 126 60.5
t46 169.5z" />
    <glyph glyph-name="uni0181" unicode="&#x181;" horiz-adv-x="588" 
d="M262 -10q-97 0 -174 16v683q-81 -10 -110.5 -34.5t-29.5 -68.5q0 -42 27 -79h-50q-24 41 -24 83q0 56 31.5 87.5t108 47t211.5 15.5q256 0 256 -173q0 -63 -39.5 -106.5t-110.5 -60.5v-2q187 -31 187 -188q0 -97 -65 -158.5t-218 -61.5zM138 375v-331q61 -11 124 -11
q234 0 234 180q0 82 -64 122t-200 40h-94zM138 417h94q113 0 171 37.5t58 107.5q0 135 -209 135q-66 0 -114 -3v-277z" />
    <glyph glyph-name="uni0182" unicode="&#x182;" horiz-adv-x="592" 
d="M138 45q57 -12 123 -12q236 0 236 194q0 177 -249 177q-57 0 -110 -10v-349zM138 436q55 10 113 10q147 0 220.5 -57t73.5 -162q0 -237 -285 -237q-90 0 -172 17v723h410v-43h-360v-251z" />
    <glyph glyph-name="uni0183" unicode="&#x183;" horiz-adv-x="572" 
d="M130 710v-290h2q53 110 178 110q98 0 154 -71t56 -199t-56.5 -199t-153.5 -71q-128 0 -179 111h-2l-1 -101h-45v750h407v-40h-360zM474 260q0 109 -46.5 169.5t-126.5 60.5q-77 0 -124 -59.5t-47 -162.5v-16q0 -106 47.5 -164t123.5 -58q80 0 126.5 60.5t46.5 169.5z" />
    <glyph glyph-name="uni0184" unicode="&#x184;" horiz-adv-x="771" 
d="M266 687h-223v43h273v-294q55 10 114 10q147 0 220 -56.5t73 -162.5q0 -237 -285 -237q-90 0 -172 17v680zM316 394v-349q57 -12 124 -12q236 0 236 194q0 177 -250 177q-57 0 -110 -10z" />
    <glyph glyph-name="uni0185" unicode="&#x185;" horiz-adv-x="627" 
d="M539 180q0 142 -204 142q-49 0 -94 -10v-272q46 -10 101 -10q197 0 197 150zM241 353q43 9 99 9q122 0 183.5 -48t61.5 -134q0 -190 -245 -190q-78 0 -145 15v474h-157v41h203v-167z" />
    <glyph glyph-name="uni0186" unicode="&#x186;" horiz-adv-x="691" 
d="M288 697q-111 0 -201 -60l-19 39q95 64 223 64q164 0 260.5 -101t96.5 -274q0 -171 -97.5 -273t-259.5 -102q-128 0 -223 64l19 39q92 -60 201 -60q139 0 224 90.5t85 241.5q0 152 -83.5 242t-225.5 90z" />
    <glyph glyph-name="uni0187" unicode="&#x187;" horiz-adv-x="691" 
d="M400 -10q-162 0 -259.5 102t-97.5 273q0 173 96.5 274t260.5 101q86 0 162 -34v82q0 84 36.5 123t115.5 39q48 0 90 -15l-12 -41q-36 14 -72 14q-59 0 -84 -27.5t-25 -93.5v-150q-91 60 -205 60q-144 0 -228 -89.5t-84 -242.5q0 -151 85 -241.5t224 -90.5q109 0 201 60
l19 -39q-95 -64 -223 -64z" />
    <glyph glyph-name="uni0188" unicode="&#x188;" horiz-adv-x="514" 
d="M298 -10q-114 0 -184.5 74t-70.5 196q0 126 68 198t187 72q53 0 94 -15v63q0 85 36 123.5t116 38.5q44 0 86 -15l-11 -39q-34 14 -72 14q-59 0 -84 -28t-25 -94v-122q-65 33 -135 33q-100 0 -156 -60t-56 -169q0 -104 58 -167t151 -63q69 0 132 33l14 -38
q-70 -35 -148 -35z" />
    <glyph glyph-name="uni0189" unicode="&#x189;" horiz-adv-x="745" 
d="M38 362v42h121v320q76 16 163 16q184 0 282 -94.5t98 -270.5q0 -188 -98 -286.5t-282 -98.5q-89 0 -163 16v356h-121zM209 404h199v-42h-199v-317q60 -12 113 -12q163 0 247.5 87t84.5 255q0 158 -84.5 240t-247.5 82q-53 0 -113 -12v-281z" />
    <glyph glyph-name="uni018A" unicode="&#x18a;" horiz-adv-x="674" 
d="M252 -10q-90 0 -164 16v683q-81 -10 -110.5 -34.5t-29.5 -68.5q0 -42 27 -79h-50q-24 41 -24 83q0 56 31.5 87.5t108 47t211.5 15.5q184 0 282 -94.5t98 -270.5q0 -188 -98 -286.5t-282 -98.5zM139 693v-648q60 -12 113 -12q163 0 247.5 87t84.5 255q0 158 -84.5 240
t-247.5 82q-49 0 -113 -4z" />
    <glyph glyph-name="uni018B" unicode="&#x18b;" horiz-adv-x="592" 
d="M455 436v251h-360v43h410v-723q-82 -17 -172 -17q-285 0 -285 237q0 106 73 162.5t220 56.5q59 0 114 -10zM455 394q-53 10 -110 10q-249 0 -249 -177q0 -194 235 -194q67 0 124 12v349z" />
    <glyph glyph-name="uni018C" unicode="&#x18c;" horiz-adv-x="572" 
d="M443 710h-360v40h407v-750h-45l-1 101h-2q-51 -111 -179 -111q-97 0 -153.5 71t-56.5 199t56 199t154 71q125 0 178 -110h2v290zM99 260q0 -109 46 -169.5t126 -60.5q76 0 124 58t48 164v16q0 103 -47.5 162.5t-124.5 59.5q-80 0 -126 -60.5t-46 -169.5z" />
    <glyph glyph-name="uni018D" unicode="&#x18d;" horiz-adv-x="566" 
d="M283 530q110 0 175 -73t65 -197q0 -93 -38 -157.5t-107 -90.5q88 -30 88 -110q0 -55 -48 -88.5t-135 -33.5q-90 0 -173 40l12 39q78 -39 161 -39q66 0 101.5 22.5t35.5 59.5q0 78 -135 88q-242 17 -242 270q0 124 65 197t175 73zM299 28q83 6 130 67.5t47 164.5
q0 107 -52 168.5t-141 61.5t-141 -61.5t-52 -168.5q0 -216 196 -231q3 0 7 -0.5t6 -0.5z" />
    <glyph glyph-name="uni018E" unicode="&#x18e;" horiz-adv-x="579" 
d="M441 687h-363v43h413v-730h-413v43h363v332h-343v42h343v270z" />
    <glyph glyph-name="uni018F" unicode="&#x18f;" horiz-adv-x="741" 
d="M648 383q-3 146 -86.5 230.5t-224.5 84.5q-123 0 -229 -62l-17 40q112 64 253 64q164 0 259 -101t95 -274q0 -176 -90 -275.5t-248 -99.5q-148 0 -230 96.5t-82 274.5q0 3 0.5 11t0.5 11h599zM648 341h-551q2 -153 69 -231t194 -78q133 0 208 80.5t80 228.5z" />
    <glyph glyph-name="uni0190" unicode="&#x190;" horiz-adv-x="549" 
d="M473 640q-93 57 -188 57q-83 0 -128 -33.5t-45 -93.5q0 -72 63.5 -112.5t180.5 -40.5h44v-44h-44q-133 0 -195.5 -39.5t-62.5 -121.5q0 -88 52.5 -133.5t154.5 -45.5q100 0 190 61l16 -41q-97 -63 -208 -63q-124 0 -189.5 56.5t-65.5 163.5q0 157 183 187v2
q-168 40 -168 178q0 75 58 119t159 44q109 0 208 -60z" />
    <glyph glyph-name="uni0191" unicode="&#x191;" horiz-adv-x="565" 
d="M139 -68q0 -84 -37.5 -123t-116.5 -39q-47 0 -89 15l12 41q34 -14 71 -14q59 0 84.5 27.5t25.5 93.5v797h403v-43h-353v-280h333v-42h-333v-433z" />
    <glyph glyph-name="florin" unicode="&#x192;" horiz-adv-x="514" 
d="M202 -68v528h-144v40h144v78q0 83 37.5 122.5t115.5 39.5q45 0 87 -15l-12 -39q-34 14 -72 14q-59 0 -84 -28t-25 -94v-78h189v-40h-189v-528q0 -84 -37 -123t-116 -39q-45 0 -87 15l12 39q34 -14 71 -14q59 0 84.5 28t25.5 94z" />
    <glyph glyph-name="uni0193" unicode="&#x193;" horiz-adv-x="740" 
d="M338 375v42h325v-373q-109 -54 -248 -54q-169 0 -270.5 102t-101.5 273t99.5 273t268.5 102q95 0 177 -33v81q0 84 37 123t116 39q47 0 89 -15l-11 -41q-36 14 -72 14q-59 0 -84 -27.5t-25 -93.5v-145q-100 55 -223 55q-150 0 -235.5 -89t-85.5 -243q0 -153 87 -242.5
t237 -89.5q111 0 197 39v303h-277z" />
    <glyph glyph-name="uni0194" unicode="&#x194;" horiz-adv-x="682" 
d="M341 -230q-57 0 -89 30t-32 83q0 36 17 82t77 167l-276 598h54l249 -553h2l249 553h53l-276 -598q60 -121 77 -167t17 -82q0 -53 -32.5 -83t-89.5 -30zM341 -193q37 0 58 20t21 56q0 28 -13.5 65t-64.5 142h-2q-50 -104 -63.5 -141t-13.5 -66q0 -36 20.5 -56t57.5 -20z
" />
    <glyph glyph-name="uni0195" unicode="&#x195;" horiz-adv-x="930" 
d="M130 0h-47v750h47v-339h2q29 55 76.5 87t104.5 32q91 0 134 -53t43 -170v-110q0 -87 38.5 -126.5t123.5 -39.5q174 0 174 247q0 114 -60 249l44 12q62 -141 62 -266q0 -153 -61 -218t-159 -65q-108 0 -158 49t-50 154v110q0 102 -32.5 144t-110.5 42q-66 0 -118.5 -63
t-52.5 -149v-277z" />
    <glyph glyph-name="uni0196" unicode="&#x196;" horiz-adv-x="441" 
d="M278 -10q-80 0 -117.5 38.5t-37.5 123.5v578h53v-578q0 -66 25.5 -94t84.5 -28q37 0 71 14l12 -39q-45 -15 -91 -15z" />
    <glyph glyph-name="uni0197" unicode="&#x197;" horiz-adv-x="542" 
d="M58 270v40h187v420h53v-420h187v-40h-187v-270h-53v270h-187z" />
    <glyph glyph-name="uni0198" unicode="&#x198;" horiz-adv-x="703" 
d="M138 730v-331h2l191 175q134 123 172 149.5t74 26.5q39 0 66 -26.5t27 -90.5q0 -71 -27 -116h-50q31 47 31 114q0 76 -47 76q-19 0 -49 -23t-159 -138l-188 -166l394 -380h-64l-371 361h-2v-361h-50v730h50z" />
    <glyph glyph-name="uni0199" unicode="&#x199;" horiz-adv-x="544" 
d="M496 0h-63l-301 251h-2v-251h-47v598q0 83 37.5 122.5t115.5 39.5q44 0 86 -15l-11 -39q-34 14 -72 14q-59 0 -84 -28t-25 -94v-305h2l295 227h64l-323 -248z" />
    <glyph glyph-name="uni019A" unicode="&#x19a;" horiz-adv-x="542" 
d="M58 270v40h189v440h49v-440h189v-40h-189v-270h-49v270h-189z" />
    <glyph glyph-name="uni019B" unicode="&#x19b;" horiz-adv-x="554" 
d="M273 444l-179 -444h-51l206 502l-37 81l-145 -64l-16 37l145 64l-50 110h50l41 -92l162 72l16 -37l-162 -72l263 -601h-50l-191 444h-2z" />
    <glyph glyph-name="uni019C" unicode="&#x19c;" horiz-adv-x="904" 
d="M766 104q-24 -52 -70 -83t-98 -31q-66 0 -105 27.5t-55 86.5h-2q-24 -54 -70.5 -84t-108.5 -30q-89 0 -131.5 49t-42.5 153v538h49v-530q0 -89 32.5 -128t103.5 -39q70 0 113.5 49.5t43.5 137.5v510h48v-530q0 -88 33 -127.5t104 -39.5q62 0 109 58.5t47 155.5v483h50
v-730h-47l-1 104h-2z" />
    <glyph glyph-name="uni019D" unicode="&#x19d;" horiz-adv-x="703" 
d="M138 654v-722q0 -85 -37 -123.5t-118 -38.5q-45 0 -87 15l12 39q34 -14 71 -14q59 0 84.5 28t25.5 94v798h57l418 -654h2v654h49v-730h-57l-418 654h-2z" />
    <glyph glyph-name="uni019E" unicode="&#x19e;" horiz-adv-x="557" 
d="M296 489q-66 0 -118.5 -63t-52.5 -149v-277h-47v520h45l1 -110h2q27 55 75.5 87.5t106.5 32.5q91 0 134 -53t43 -170v-527h-46v523q0 102 -32.5 144t-110.5 42z" />
    <glyph glyph-name="uni019F" unicode="&#x19f;" horiz-adv-x="792" 
d="M43 365q0 169 97 272t256 103t256.5 -103t97.5 -272t-97.5 -272t-256.5 -103t-256 103t-97 272zM94 343q6 -141 88.5 -225.5t213.5 -84.5t214 84.5t89 225.5h-605zM94 387h605q-6 141 -89 225.5t-214 84.5t-213.5 -84.5t-88.5 -225.5z" />
    <glyph glyph-name="Ohorn" unicode="&#x1a0;" horiz-adv-x="858" 
d="M835 770q15 -44 15 -97q0 -73 -27 -104t-67 -31q-18 0 -43 9q37 -80 37 -182q0 -169 -97.5 -272t-256.5 -103t-256 103t-97 272t97 272t256 103q185 0 283 -134q36 -31 69 -31q60 0 60 99q0 50 -18 96h45zM396 33q136 0 219.5 91t83.5 241t-83.5 241t-219.5 91t-219 -91
t-83 -241t83 -241t219 -91z" />
    <glyph glyph-name="ohorn" unicode="&#x1a1;" horiz-adv-x="680" 
d="M656 560q16 -46 16 -97q0 -73 -27.5 -104t-67.5 -31q-31 0 -64 19q10 -45 10 -87q0 -124 -65 -197t-175 -73t-175 73t-65 197t65 197t175 73q74 0 128.5 -33.5t83.5 -95.5q37 -36 75 -36q60 0 60 99q0 50 -18 96h44zM283 30q89 0 141 61.5t52 168.5t-52 168.5t-141 61.5
t-141 -61.5t-52 -168.5t52 -168.5t141 -61.5z" />
    <glyph glyph-name="uni01A2" unicode="&#x1a2;" horiz-adv-x="882" 
d="M745 730h50v-730h-50v680l-182 -26v-627q-74 -37 -167 -37q-159 0 -256 103t-97 272t97 272t256 103q93 0 167 -37zM94 365q0 -150 83 -241t219 -91q66 0 118 21v622q-53 21 -118 21q-136 0 -219 -91t-83 -241z" />
    <glyph glyph-name="uni01A3" unicode="&#x1a3;" horiz-adv-x="684" 
d="M560 520h46v-740h-46v693l-155 -21v-432q-51 -30 -122 -30q-110 0 -175 73t-65 197t65 197t175 73q71 0 122 -30v-1zM90 260q0 -107 52 -168.5t141 -61.5q40 0 76 14v432q-36 14 -76 14q-89 0 -141 -61.5t-52 -168.5z" />
    <glyph glyph-name="uni01A4" unicode="&#x1a4;" horiz-adv-x="586" 
d="M88 688q-86 -12 -113 -36t-27 -66t27 -79h-50q-24 41 -24 83q0 54 29 85t112 48t233 17q133 0 203 -56.5t70 -161.5q0 -110 -70.5 -169.5t-202.5 -59.5q-68 0 -137 8v-301h-50v688zM138 693v-349q63 -9 134 -9q110 0 168.5 47t58.5 136q0 88 -57.5 133.5t-169.5 45.5
q-85 0 -134 -4z" />
    <glyph glyph-name="uni01A5" unicode="&#x1a5;" horiz-adv-x="564" 
d="M127 268v-16q0 -105 48 -163.5t123 -58.5q80 0 126.5 60.5t46.5 169.5t-46.5 169.5t-126.5 60.5q-77 0 -124 -59.5t-47 -162.5zM517 260q0 -127 -57 -198.5t-153 -71.5q-127 0 -178 108h-2v-318h-47v798q0 83 37.5 122.5t115.5 39.5q44 0 86 -15l-11 -39q-34 14 -72 14
q-59 0 -84 -28t-25 -94v-158h2q53 110 178 110q98 0 154 -71t56 -199z" />
    <glyph glyph-name="uni01A6" unicode="&#x1a6;" horiz-adv-x="606" 
d="M138 587v-308h100q130 0 190.5 40t60.5 121q0 157 -231 157q-66 0 -120 -10zM138 631q63 9 123 9q138 0 207.5 -50.5t69.5 -146.5q0 -153 -169 -188v-2q25 -12 46.5 -42t51.5 -99l91 -212h-53l-87 206q-17 40 -28.5 61t-24.5 37.5t-31 22t-38 8t-58 2.5h-100v-237h-50
v730h50v-99z" />
    <glyph glyph-name="uni01A7" unicode="&#x1a7;" horiz-adv-x="562" 
d="M281 697q-106 0 -190 -45l-15 40q93 48 205 48q100 0 156 -46.5t56 -123.5q0 -144 -208 -206q-93 -29 -132.5 -70.5t-39.5 -108.5q0 -74 44 -113t128 -39q110 0 196 64l19 -40q-93 -67 -215 -67q-107 0 -164.5 50.5t-57.5 144.5q0 84 51 137t167 88q163 50 163 160
q0 59 -43 93t-120 34z" />
    <glyph glyph-name="uni01A8" unicode="&#x1a8;" horiz-adv-x="489" 
d="M248 530q85 0 134 -37t49 -98t-42 -96t-138 -52q-79 -15 -112.5 -41.5t-33.5 -72.5q0 -48 38 -75.5t105 -27.5q91 0 170 48l13 -38q-85 -50 -183 -50q-89 0 -139.5 38.5t-50.5 104.5q0 64 44 101.5t143 55.5q81 15 110.5 40t29.5 65q0 44 -36.5 69.5t-100.5 25.5
q-83 0 -161 -39l-12 39q83 40 173 40z" />
    <glyph glyph-name="uni01A9" unicode="&#x1a9;" horiz-adv-x="559" 
d="M130 687l226 -303l-227 -341h357v-43h-413v43l227 340l-227 304v43h413v-43h-356z" />
    <glyph glyph-name="uni01AA" unicode="&#x1aa;" horiz-adv-x="525" 
d="M276 -68q0 -66 25 -94t84 -28q38 0 72 14l11 -39q-42 -15 -86 -15q-79 0 -116.5 39t-37.5 123v593h-64q-76 0 -116 29t-40 84q0 47 32.5 74.5t89.5 27.5q74 0 110 -39t36 -123v-13h176v-40h-176v-593zM228 565v13q0 64 -23.5 92t-76.5 28q-35 0 -55 -16.5t-20 -43.5
q0 -73 111 -73h64z" />
    <glyph glyph-name="uni01AB" unicode="&#x1ab;" horiz-adv-x="504" 
d="M418 22v-17v-73q0 -85 -35.5 -123.5t-113.5 -38.5q-45 0 -87 15l12 39q34 -14 71 -14q59 0 84.5 28t25.5 94v63q-32 -5 -57 -5q-81 0 -113 34.5t-32 122.5v313h-120v40h120v190h47v-190h206v-40h-206v-307q0 -75 22 -99t81 -24q51 0 95 14v-22z" />
    <glyph glyph-name="uni01AC" unicode="&#x1ac;" horiz-adv-x="667" 
d="M251 730h354v-44h-239v-686h-50v686h-65q-151 0 -151 -110q0 -42 27 -79h-50q-24 41 -24 83q0 28 8 51.5t28 47t61.5 37.5t100.5 14z" />
    <glyph glyph-name="uni01AD" unicode="&#x1ad;" horiz-adv-x="514" 
d="M438 500v-40h-189v-308q0 -66 25 -94t84 -28q38 0 72 14l11 -39q-42 -15 -86 -15q-154 0 -154 162v308h-143v40h143v78q0 162 154 162q44 0 86 -15l-11 -39q-34 14 -72 14q-59 0 -84 -28t-25 -94v-78h189z" />
    <glyph glyph-name="uni01AE" unicode="&#x1ae;" horiz-adv-x="652" 
d="M301 686h-238v44h527v-44h-239v-753q0 -66 25.5 -93.5t84.5 -27.5q37 0 71 14l12 -41q-42 -15 -89 -15q-79 0 -116.5 39t-37.5 123v754z" />
    <glyph glyph-name="Uhorn" unicode="&#x1af;" horiz-adv-x="781" 
d="M758 770q16 -46 16 -97q0 -73 -27.5 -104t-67.5 -31q-42 0 -84 33v-293q0 -140 -67 -214t-192 -74t-191.5 73.5t-66.5 214.5v452h51v-453q0 -243 208 -243t208 243v453h50v-117q38 -38 76 -38q60 0 60 99q0 50 -18 96h45z" />
    <glyph glyph-name="uhorn" unicode="&#x1b0;" horiz-adv-x="656" 
d="M119 520v-327q0 -89 30 -125.5t102 -36.5q64 0 118 62.5t54 149.5v277h47v-117q38 -38 76 -38q60 0 60 99q0 50 -18 96h45q16 -46 16 -97q0 -73 -27.5 -104t-67.5 -31q-42 0 -84 33v-361h-45l-1 110h-2q-27 -55 -75.5 -87.5t-106.5 -32.5q-87 0 -127 47t-40 153v330h46z
" />
    <glyph glyph-name="uni01B1" unicode="&#x1b1;" horiz-adv-x="851" 
d="M426 -10q-157 0 -255.5 100.5t-98.5 259.5q0 117 48.5 203t138.5 132v3h-201v42h307v-42q-110 -23 -176 -112t-66 -219q0 -144 84 -234t219 -90q134 0 218 89.5t84 234.5q0 130 -66 219t-176 112v42h307v-42h-201v-3q90 -46 138.5 -132t48.5 -203q0 -159 -98 -259.5
t-255 -100.5z" />
    <glyph glyph-name="uni01B2" unicode="&#x1b2;" horiz-adv-x="684" 
d="M336 -10q-125 0 -191.5 73.5t-66.5 214.5v452h51v-453q0 -243 208 -243q238 0 238 353q0 84 -18.5 164t-63.5 187l49 12q46 -109 65 -192.5t19 -173.5q0 -200 -75.5 -297t-214.5 -97z" />
    <glyph glyph-name="uni01B3" unicode="&#x1b3;" horiz-adv-x="742" 
d="M330 362l116 180q88 137 122 172.5t73 35.5q40 0 67 -26.5t27 -90.5q0 -69 -28 -116h-50q31 47 31 114q0 76 -47 76q-19 0 -45.5 -31t-109.5 -155l-132 -203v-318h-52v318l-269 412h59l236 -368h2z" />
    <glyph glyph-name="uni01B4" unicode="&#x1b4;" horiz-adv-x="663" 
d="M269 63l95 225q63 150 105 201t90 51q97 0 97 -117q0 -69 -28 -116h-50q31 47 31 114q0 76 -52 76q-29 0 -62 -46t-92 -181l-212 -490h-50l101 227l-204 513h51l178 -457h2z" />
    <glyph glyph-name="uni01B5" unicode="&#x1b5;" horiz-adv-x="639" 
d="M106 368v40h213l178 277v2h-414v43h473v-43l-179 -279h156v-40h-182l-209 -323v-2h414v-43h-473v43l210 325h-187z" />
    <glyph glyph-name="uni01B6" unicode="&#x1b6;" horiz-adv-x="549" 
d="M91 255v38h180l136 185v2h-324v40h383v-40l-138 -187h130v-38h-158l-158 -213v-2h324v-40h-383v40l159 215h-151z" />
    <glyph glyph-name="uni01B7" unicode="&#x1b7;" horiz-adv-x="551" 
d="M443 223q0 81 -51.5 120.5t-161.5 39.5h-77v42l264 260v2h-361v43h427v-43l-264 -262v-2h41q114 0 173.5 -51t59.5 -149q0 -114 -65 -173.5t-190 -59.5q-104 0 -185 53l18 41q79 -51 167 -51q205 0 205 190z" />
    <glyph glyph-name="uni01B8" unicode="&#x1b8;" horiz-adv-x="551" 
d="M495 687h-361v-2l264 -260v-42h-77q-110 0 -161.5 -39.5t-51.5 -120.5q0 -190 205 -190q88 0 167 51l18 -41q-81 -53 -185 -53q-125 0 -190 59.5t-65 173.5q0 98 59.5 149t173.5 51h41v2l-264 262v43h427v-43z" />
    <glyph glyph-name="uni01B9" unicode="&#x1b9;" horiz-adv-x="566" 
d="M485 480h-338v-2l248 -273v-42h-72q-101 0 -149.5 -39.5t-48.5 -120.5q0 -95 48.5 -143.5t141.5 -48.5q85 0 157 50l16 -38q-75 -53 -173 -53q-114 0 -175.5 59t-61.5 174q0 98 55 148.5t162 50.5h44v2l-251 276v40h397v-40z" />
    <glyph glyph-name="uni01BA" unicode="&#x1ba;" horiz-adv-x="582" 
d="M78 480v40h427v-40l-265 -235v-2h69q201 0 201 -112q0 -55 -46.5 -86t-165.5 -47q-97 -13 -137.5 -37.5t-40.5 -61.5q0 -88 179 -88q104 0 198 40l13 -38q-99 -43 -211 -43q-226 0 -226 128q0 57 52.5 91.5t167.5 49.5q69 9 108.5 25.5t50.5 31.5t11 36q0 74 -166 74
h-125v39l265 233v2h-359z" />
    <glyph glyph-name="uni01BB" unicode="&#x1bb;" horiz-adv-x="616" 
d="M93 300v40h303q80 104 80 193q0 78 -44 120.5t-126 42.5q-48 0 -104 -19.5t-101 -52.5l-18 39q46 35 108 56t120 21q102 0 159 -53.5t57 -149.5q0 -95 -73 -197h79v-40h-110q-83 -100 -260 -255v-2h370v-43h-440v43q183 156 270 257h-270z" />
    <glyph glyph-name="uni01BC" unicode="&#x1bc;" horiz-adv-x="569" 
d="M53 730h453v-43h-333v-249h100q118 0 180.5 -53t62.5 -150q0 -119 -65.5 -182t-190.5 -63q-101 0 -187 52l16 41q83 -50 171 -50q101 0 153.5 51t52.5 151q0 79 -50.5 120t-149.5 41h-143v291h-70v43z" />
    <glyph glyph-name="uni01BD" unicode="&#x1bd;" horiz-adv-x="539" 
d="M248 32q198 0 198 136q0 109 -194 109h-136v201h-68v42h433v-42h-318v-161h90q238 0 238 -149q0 -85 -61.5 -131.5t-181.5 -46.5q-94 0 -180 39l14 39q80 -36 166 -36z" />
    <glyph glyph-name="uni01BE" unicode="&#x1be;" horiz-adv-x="571" 
d="M53 477v40h189v213h49v-213h189v-40h-189v-90q105 -8 161.5 -61t56.5 -142q0 -90 -64.5 -142t-175.5 -52q-112 0 -214 61l16 40q96 -58 193 -58q93 0 144.5 40t51.5 112q0 80 -55.5 123t-162.5 43v126h-189z" />
    <glyph glyph-name="uni01BF" unicode="&#x1bf;" horiz-adv-x="567" 
d="M127 -91v-129h-49v740h49v-77q127 87 229 87q76 0 120 -48.5t44 -132.5q0 -143 -95.5 -251t-297.5 -189zM127 -41q342 137 342 378q0 68 -34 105.5t-95 37.5q-96 0 -213 -88v-433z" />
    <glyph glyph-name="uni01C0" unicode="&#x1c0;" horiz-adv-x="322" 
d="M138 -220v1030h47v-1030h-47z" />
    <glyph glyph-name="uni01C1" unicode="&#x1c1;" horiz-adv-x="546" 
d="M372 -220v1030h46v-1030h-46zM128 -220v1030h46v-1030h-46z" />
    <glyph glyph-name="uni01C2" unicode="&#x1c2;" horiz-adv-x="679" 
d="M93 157v41h223v184h-223v41h223v387h47v-387h223v-41h-223v-184h223v-41h-223v-377h-47v377h-223z" />
    <glyph glyph-name="uni01C3" unicode="&#x1c3;" horiz-adv-x="292" 
d="M120 0v117h53v-117h-53zM118 730h57l-5 -533h-47z" />
    <glyph glyph-name="uni01C4" unicode="&#x1c4;" horiz-adv-x="1277" 
d="M964 814l118 139h59l-143 -163h-70l-143 163h59l118 -139h2zM1140 685v2h-414v43h474v-43l-414 -642v-2h414v-43h-474v43zM88 724q76 16 163 16q184 0 282 -94.5t98 -270.5q0 -188 -98 -286.5t-282 -98.5q-89 0 -163 16v718zM583 375q0 158 -84.5 240t-247.5 82
q-53 0 -113 -12v-640q60 -12 113 -12q163 0 247.5 87t84.5 255z" />
    <glyph glyph-name="uni01C5" unicode="&#x1c5;" horiz-adv-x="1207" 
d="M939 614l118 139h59l-143 -163h-70l-143 163h59l118 -139h2zM1071 478v2h-325v40h384v-40l-325 -438v-2h325v-40h-384v40zM88 724q76 16 163 16q184 0 282 -94.5t98 -270.5q0 -188 -98 -286.5t-282 -98.5q-89 0 -163 16v718zM583 375q0 158 -84.5 240t-247.5 82
q-53 0 -113 -12v-640q60 -12 113 -12q163 0 247.5 87t84.5 255z" />
    <glyph glyph-name="uni01C6" unicode="&#x1c6;" horiz-adv-x="1100" 
d="M832 614l119 139h59l-144 -163h-70l-143 163h59l118 -139h2zM964 478v2h-324v40h383v-40l-324 -438v-2h324v-40h-383v40zM94 260q0 -109 46 -169.5t126 -60.5q76 0 124 58t48 164v16q0 103 -47.5 162.5t-124.5 59.5q-80 0 -126 -60.5t-46 -169.5zM48 260q0 128 56 199
t154 71q125 0 178 -110h2v330h47v-750h-45l-1 101h-2q-51 -111 -179 -111q-97 0 -153.5 71t-56.5 199z" />
    <glyph glyph-name="uni01C7" unicode="&#x1c7;" horiz-adv-x="1104" 
d="M627 66q69 -33 139 -33q209 0 209 247v450h51v-457q0 -283 -260 -283q-86 0 -153 33zM140 730v-686h378v-44h-430v730h52z" />
    <glyph glyph-name="uni01C8" unicode="&#x1c8;" horiz-adv-x="909" 
d="M738 640v110h48v-110h-48zM555 -220l-2 41q113 0 149 36t36 151v512h48v-510q0 -135 -47.5 -182.5t-183.5 -47.5zM140 730v-686h378v-44h-430v730h52z" />
    <glyph glyph-name="uni01C9" unicode="&#x1c9;" horiz-adv-x="622" 
d="M123 0v750h49v-750h-49zM451 640v110h49v-110h-49zM268 -220l-2 41q113 0 149 36t36 151v512h49v-510q0 -135 -48 -182.5t-184 -47.5z" />
    <glyph glyph-name="uni01CA" unicode="&#x1ca;" horiz-adv-x="1215" 
d="M145 730l418 -654h2v654h50v-730h-58l-418 654h-2v-654h-49v730h57zM738 66q69 -33 140 -33q208 0 208 247v450h52v-457q0 -283 -260 -283q-86 0 -153 33z" />
    <glyph glyph-name="uni01CB" unicode="&#x1cb;" horiz-adv-x="1031" 
d="M88 0v730h57l418 -654h2v654h50v-730h-58l-418 654h-2v-654h-49zM859 640v110h49v-110h-49zM676 -220l-1 41q113 0 148.5 35.5t35.5 151.5v512h49v-510q0 -135 -48 -182.5t-184 -47.5z" />
    <glyph glyph-name="uni01CC" unicode="&#x1cc;" horiz-adv-x="886" 
d="M296 489q-66 0 -118.5 -63t-52.5 -149v-277h-47v520h45l1 -110h2q27 55 75.5 87.5t106.5 32.5q91 0 134 -53t43 -170v-307h-46v303q0 102 -32.5 144t-110.5 42zM714 640v110h49v-110h-49zM531 -220l-1 41q112 0 148 35.5t36 151.5v512h49v-510q0 -135 -48 -182.5
t-184 -47.5z" />
    <glyph glyph-name="uni01CD" unicode="&#x1cd;" horiz-adv-x="682" 
d="M342 814l119 139h59l-144 -163h-70l-143 163h59l118 -139h2zM342 686h-2l-150 -413h302zM507 231h-333l-84 -231h-52l273 730h60l274 -730h-54z" />
    <glyph glyph-name="uni01CE" unicode="&#x1ce;" horiz-adv-x="537" 
d="M453 753l-143 -163h-70l-144 163h59l119 -139h2l118 139h59zM263 530q104 0 148 -44.5t44 -152.5v-193q0 -70 15 -140h-46q-9 46 -11 103h-2q-27 -52 -78.5 -82.5t-117.5 -30.5q-74 0 -118 40.5t-44 109.5q0 88 77.5 137.5t220.5 49.5h57v5q0 89 -31.5 123.5t-113.5 34.5
q-97 0 -175 -46l-12 38q84 48 187 48zM99 142q0 -52 33.5 -83t90.5 -31q75 0 130 55.5t55 138.5v67h-57q-121 0 -186.5 -39t-65.5 -108z" />
    <glyph glyph-name="uni01CF" unicode="&#x1cf;" horiz-adv-x="298" 
d="M150 814l119 139h59l-144 -163h-70l-143 163h59l118 -139h2zM123 0v730h53v-730h-53z" />
    <glyph glyph-name="uni01D0" unicode="&#x1d0;" horiz-adv-x="294" 
d="M148 614l119 139h59l-144 -163h-70l-143 163h59l118 -139h2zM123 0v520h49v-520h-49z" />
    <glyph glyph-name="uni01D1" unicode="&#x1d1;" horiz-adv-x="792" 
d="M397 814l119 139h59l-144 -163h-70l-143 163h59l118 -139h2zM43 365q0 169 97 272t256 103t256.5 -103t97.5 -272t-97.5 -272t-256.5 -103t-256 103t-97 272zM396 33q136 0 219.5 91t83.5 241t-83.5 241t-219.5 91t-219 -91t-83 -241t83 -241t219 -91z" />
    <glyph glyph-name="uni01D2" unicode="&#x1d2;" horiz-adv-x="566" 
d="M284 614l118 139h59l-143 -163h-70l-143 163h59l118 -139h2zM43 260q0 124 65 197t175 73t175 -73t65 -197t-65 -197t-175 -73t-175 73t-65 197zM283 30q89 0 141 61.5t52 168.5t-52 168.5t-141 61.5t-141 -61.5t-52 -168.5t52 -168.5t141 -61.5z" />
    <glyph glyph-name="uni01D3" unicode="&#x1d3;" horiz-adv-x="672" 
d="M337 814l119 139h59l-144 -163h-70l-143 163h59l118 -139h2zM545 730h50v-452q0 -140 -67 -214t-192 -74t-191.5 73.5t-66.5 214.5v452h51v-453q0 -243 208 -243t208 243v453z" />
    <glyph glyph-name="uni01D4" unicode="&#x1d4;" horiz-adv-x="547" 
d="M277 614l119 139h59l-144 -163h-70l-143 163h59l118 -139h2zM119 520v-327q0 -89 30 -125.5t102 -36.5q64 0 118 62.5t54 149.5v277h47v-520h-45l-1 110h-2q-27 -55 -75.5 -87.5t-106.5 -32.5q-87 0 -127 47t-40 153v330h46z" />
    <glyph glyph-name="uni01D5" unicode="&#x1d5;" horiz-adv-x="672" 
d="M413 790v102h47v-102h-47zM213 790v102h47v-102h-47zM170 978v39h333v-39h-333zM545 730h50v-452q0 -140 -67 -214t-192 -74t-191.5 73.5t-66.5 214.5v452h51v-453q0 -243 208 -243t208 243v453z" />
    <glyph glyph-name="uni01D6" unicode="&#x1d6;" horiz-adv-x="547" 
d="M353 610v123h47v-123h-47zM153 610v123h47v-123h-47zM110 830v40h333v-40h-333zM119 520v-327q0 -89 30 -125.5t102 -36.5q64 0 118 62.5t54 149.5v277h47v-520h-45l-1 110h-2q-27 -55 -75.5 -87.5t-106.5 -32.5q-87 0 -127 47t-40 153v330h46z" />
    <glyph glyph-name="uni01D7" unicode="&#x1d7;" horiz-adv-x="672" 
d="M413 790v102h47v-102h-47zM213 790v102h47v-102h-47zM341 943h-52l117 132h65zM545 730h50v-452q0 -140 -67 -214t-192 -74t-191.5 73.5t-66.5 214.5v452h51v-453q0 -243 208 -243t208 243v453z" />
    <glyph glyph-name="uni01D8" unicode="&#x1d8;" horiz-adv-x="547" 
d="M353 610v123h47v-123h-47zM153 610v123h47v-123h-47zM281 790h-50l116 163h64zM119 520v-327q0 -89 30 -125.5t102 -36.5q64 0 118 62.5t54 149.5v277h47v-520h-45l-1 110h-2q-27 -55 -75.5 -87.5t-106.5 -32.5q-87 0 -127 47t-40 153v330h46z" />
    <glyph glyph-name="uni01D9" unicode="&#x1d9;" horiz-adv-x="672" 
d="M158 1075h32l66 -32l12 -11l28 -26l39 -38l2 -1l40 38l28 27l11 11l66 32h33l-72 -66l-54 -50l-35 -16h-35l-36 16l-53 50zM413 790v102h47v-102h-47zM213 790v102h47v-102h-47zM545 730h50v-452q0 -140 -67 -214t-192 -74t-191.5 73.5t-66.5 214.5v452h51v-453
q0 -243 208 -243t208 243v453z" />
    <glyph glyph-name="uni01DA" unicode="&#x1da;" horiz-adv-x="547" 
d="M277 814l119 139h59l-144 -163h-70l-143 163h59l118 -139h2zM353 610v123h47v-123h-47zM153 610v123h47v-123h-47zM119 520v-327q0 -89 30 -125.5t102 -36.5q64 0 118 62.5t54 149.5v277h47v-520h-45l-1 110h-2q-27 -55 -75.5 -87.5t-106.5 -32.5q-87 0 -127 47t-40 153
v330h46z" />
    <glyph glyph-name="uni01DB" unicode="&#x1db;" horiz-adv-x="672" 
d="M332 943l-130 132h65l116 -132h-51zM213 790v102h47v-102h-47zM413 790v102h47v-102h-47zM545 730h50v-452q0 -140 -67 -214t-192 -74t-191.5 73.5t-66.5 214.5v452h51v-453q0 -243 208 -243t208 243v453z" />
    <glyph glyph-name="uni01DC" unicode="&#x1dc;" horiz-adv-x="547" 
d="M153 610v123h47v-123h-47zM353 610v123h47v-123h-47zM272 790l-130 163h63l117 -163h-50zM119 520v-327q0 -89 30 -125.5t102 -36.5q64 0 118 62.5t54 149.5v277h47v-520h-45l-1 110h-2q-27 -55 -75.5 -87.5t-106.5 -32.5q-87 0 -127 47t-40 153v330h46z" />
    <glyph glyph-name="uni01DD" unicode="&#x1dd;" horiz-adv-x="544" 
d="M454 277q-1 100 -55.5 157t-145.5 57q-83 0 -157 -42l-15 37q81 44 175 44q112 0 178.5 -72.5t66.5 -197.5q0 -126 -63 -198t-172 -72q-104 0 -161 69t-57 196q0 3 0.5 11t0.5 11h405zM454 237h-360q2 -101 46.5 -154.5t125.5 -53.5q86 0 135.5 54.5t52.5 153.5z" />
    <glyph glyph-name="uni01DE" unicode="&#x1de;" horiz-adv-x="682" 
d="M418 790v102h47v-102h-47zM218 790v102h47v-102h-47zM175 978v39h333v-39h-333zM342 686h-2l-150 -413h302zM507 231h-333l-84 -231h-52l273 730h60l274 -730h-54z" />
    <glyph glyph-name="uni01DF" unicode="&#x1df;" horiz-adv-x="537" 
d="M351 610v123h47v-123h-47zM151 610v123h47v-123h-47zM108 830v40h333v-40h-333zM263 530q104 0 148 -44.5t44 -152.5v-193q0 -70 15 -140h-46q-9 46 -11 103h-2q-27 -52 -78.5 -82.5t-117.5 -30.5q-74 0 -118 40.5t-44 109.5q0 88 77.5 137.5t220.5 49.5h57v5
q0 89 -31.5 123.5t-113.5 34.5q-97 0 -175 -46l-12 38q84 48 187 48zM99 142q0 -52 33.5 -83t90.5 -31q75 0 130 55.5t55 138.5v67h-57q-121 0 -186.5 -39t-65.5 -108z" />
    <glyph glyph-name="uni01E0" unicode="&#x1e0;" horiz-adv-x="682" 
d="M317 797v120h49v-120h-49zM175 978v39h333v-39h-333zM342 686h-2l-150 -413h302zM507 231h-333l-84 -231h-52l273 730h60l274 -730h-54z" />
    <glyph glyph-name="uni01E1" unicode="&#x1e1;" horiz-adv-x="537" 
d="M263 530q104 0 148 -44.5t44 -152.5v-193q0 -70 15 -140h-46q-9 46 -11 103h-2q-27 -52 -78.5 -82.5t-117.5 -30.5q-74 0 -118 40.5t-44 109.5q0 88 77.5 137.5t220.5 49.5h57v5q0 89 -31.5 123.5t-113.5 34.5q-97 0 -175 -46l-12 38q84 48 187 48zM250 610v123h49v-123
h-49zM108 830v40h333v-40h-333zM99 142q0 -52 33.5 -83t90.5 -31q75 0 130 55.5t55 138.5v67h-57q-121 0 -186.5 -39t-65.5 -108z" />
    <glyph glyph-name="uni01E2" unicode="&#x1e2;" horiz-adv-x="837" 
d="M390 867v40h333v-40h-333zM311 730h449v-43h-305v-270h285v-42h-285v-332h305v-43h-354v231h-233l-84 -231h-51zM188 273h218v414h-67z" />
    <glyph glyph-name="uni01E3" unicode="&#x1e3;" horiz-adv-x="882" 
d="M277 657v40h333v-40h-333zM456 283h333q-1 101 -43.5 154.5t-119.5 53.5t-122 -54.5t-48 -153.5zM456 243q1 -98 51.5 -156t132.5 -58q78 0 149 42l16 -37q-78 -44 -169 -44q-72 0 -125 38t-79 106q-51 -144 -217 -144q-74 0 -118 40.5t-44 109.5q0 80 79 133.5t219 53.5
h59v2q-3 96 -35.5 128.5t-111.5 32.5q-97 0 -175 -46l-12 38q84 48 187 48q79 0 122 -25.5t59 -84.5q56 110 182 110q100 0 154.5 -68.5t54.5 -196.5q0 -3 -0.5 -11t-0.5 -11h-378zM99 142q0 -52 33.5 -83t90.5 -31q91 0 139 60.5t48 176.5v24h-59q-117 0 -184.5 -42.5
t-67.5 -104.5z" />
    <glyph glyph-name="uni01E4" unicode="&#x1e4;" horiz-adv-x="821" 
d="M418 270v40h197v107h48v-107h121v-40h-121v-226q-109 -54 -248 -54q-169 0 -270.5 102t-101.5 273t99.5 273t268.5 102q129 0 226 -60l-19 -38q-91 55 -203 55q-150 0 -235.5 -89t-85.5 -243q0 -153 87 -242.5t237 -89.5q111 0 197 39v198h-197z" />
    <glyph glyph-name="uni01E5" unicode="&#x1e5;" horiz-adv-x="643" 
d="M240 270v40h196q-9 83 -56.5 131.5t-114.5 48.5q-80 0 -125.5 -58t-45.5 -162q0 -102 46.5 -161t124.5 -59q74 0 123.5 58t49.5 157v5h-198zM485 310h121v-40h-121v-233q0 -267 -232 -267q-85 0 -158 33l12 39q71 -32 146 -32q94 0 139.5 54.5t45.5 170.5v83h-2
q-52 -108 -180 -108q-94 0 -151 70t-57 190q0 124 55 192t153 68q128 0 181 -110h2l1 100h45v-210z" />
    <glyph glyph-name="Gcaron" unicode="&#x1e6;" horiz-adv-x="741" 
d="M364 814l118 139h59l-143 -163h-70l-143 163h59l118 -139h2zM615 375h-277v42h325v-373q-109 -54 -248 -54q-169 0 -270.5 102t-101.5 273t99.5 273t268.5 102q129 0 226 -60l-19 -38q-91 55 -203 55q-150 0 -235.5 -89t-85.5 -243q0 -153 87 -242.5t237 -89.5
q111 0 197 39v303z" />
    <glyph glyph-name="gcaron" unicode="&#x1e7;" horiz-adv-x="562" 
d="M297 614l119 139h59l-144 -163h-70l-143 163h59l118 -139h2zM265 50q74 0 123.5 58t49.5 157v10q0 98 -49.5 156.5t-123.5 58.5q-80 0 -125.5 -58t-45.5 -162q0 -102 46.5 -161t124.5 -59zM48 270q0 124 55 192t153 68q128 0 181 -110h2l1 100h45v-483q0 -267 -232 -267
q-85 0 -158 33l12 39q71 -32 146 -32q94 0 139.5 54.5t45.5 170.5v83h-2q-52 -108 -180 -108q-94 0 -151 70t-57 190z" />
    <glyph glyph-name="uni01E8" unicode="&#x1e8;" horiz-adv-x="612" 
d="M302 818h2l103 135h60l-130 -163h-68l-130 163h60zM140 361h-2v-361h-50v730h50v-331h2l361 331h64l-384 -350l394 -380h-64z" />
    <glyph glyph-name="uni01E9" unicode="&#x1e9;" horiz-adv-x="544" 
d="M269 818h2l102 135h61l-130 -163h-68l-130 163h60zM132 251h-2v-251h-47v750h47v-457h2l295 227h64l-323 -248l328 -272h-63z" />
    <glyph glyph-name="uni01EA" unicode="&#x1ea;" horiz-adv-x="792" 
d="M43 365q0 169 97 272t256 103t256.5 -103t97.5 -272t-97.5 -272t-256.5 -103q-21 0 -31 1q-36 -39 -36 -85q0 -86 127 -86q59 0 107 24l9 -39q-55 -25 -120 -25q-92 0 -131 34.5t-39 82.5q0 52 39 100q-128 23 -203 121.5t-75 246.5zM396 33q136 0 219.5 91t83.5 241
t-83.5 241t-219.5 91t-219 -91t-83 -241t83 -241t219 -91z" />
    <glyph glyph-name="uni01EB" unicode="&#x1eb;" horiz-adv-x="566" 
d="M43 260q0 124 65 197t175 73t175 -73t65 -197t-65 -197t-175 -73q-15 0 -22 1q-36 -39 -36 -85q0 -86 128 -86q58 0 106 24l10 -39q-55 -25 -120 -25q-92 0 -131 34.5t-39 82.5q0 52 39 100q-82 20 -128.5 89.5t-46.5 173.5zM283 30q89 0 141 61.5t52 168.5t-52 168.5
t-141 61.5t-141 -61.5t-52 -168.5t52 -168.5t141 -61.5z" />
    <glyph glyph-name="uni01EC" unicode="&#x1ec;" horiz-adv-x="792" 
d="M200 867v40h393v-40h-393zM43 365q0 169 97 272t256 103t256.5 -103t97.5 -272t-97.5 -272t-256.5 -103q-21 0 -31 1q-36 -39 -36 -85q0 -86 127 -86q59 0 107 24l9 -39q-55 -25 -120 -25q-92 0 -131 34.5t-39 82.5q0 52 39 100q-128 23 -203 121.5t-75 246.5zM396 33
q136 0 219.5 91t83.5 241t-83.5 241t-219.5 91t-219 -91t-83 -241t83 -241t219 -91z" />
    <glyph glyph-name="uni01ED" unicode="&#x1ed;" horiz-adv-x="566" 
d="M86 657v40h394v-40h-394zM43 260q0 124 65 197t175 73t175 -73t65 -197t-65 -197t-175 -73q-15 0 -22 1q-36 -39 -36 -85q0 -86 128 -86q58 0 106 24l10 -39q-55 -25 -120 -25q-92 0 -131 34.5t-39 82.5q0 52 39 100q-82 20 -128.5 89.5t-46.5 173.5zM283 30
q89 0 141 61.5t52 168.5t-52 168.5t-141 61.5t-141 -61.5t-52 -168.5t52 -168.5t141 -61.5z" />
    <glyph glyph-name="uni01EE" unicode="&#x1ee;" horiz-adv-x="596" 
d="M300 818h2l103 135h61l-130 -163h-69l-130 163h61zM468 223q0 81 -51.5 120.5t-161.5 39.5h-77v42l264 260v2h-361v43h427v-43l-264 -262v-2h41q114 0 173.5 -51t59.5 -149q0 -114 -65 -173.5t-190 -59.5q-104 0 -185 53l18 41q80 -51 167 -51q205 0 205 190z" />
    <glyph glyph-name="uni01EF" unicode="&#x1ef;" horiz-adv-x="566" 
d="M419 478v2h-338v40h397v-40l-251 -276v-2h44q107 0 162 -50.5t55 -148.5q0 -115 -61.5 -174t-175.5 -59q-98 0 -173 53l16 38q72 -50 157 -50q93 0 141.5 48.5t48.5 143.5q0 81 -48.5 120.5t-149.5 39.5h-72v42zM287 614l119 139h59l-144 -163h-70l-143 163h59l118 -139
h2z" />
    <glyph glyph-name="uni01F0" unicode="&#x1f0;" horiz-adv-x="338" 
d="M188 614l118 139h59l-143 -163h-70l-143 163h59l118 -139h2zM-16 -220l-2 41q113 0 149 36t36 151v512h48v-510q0 -135 -47.5 -182.5t-183.5 -47.5z" />
    <glyph glyph-name="uni01F1" unicode="&#x1f1;" horiz-adv-x="1277" 
d="M1140 685v2h-414v43h474v-43l-414 -642v-2h414v-43h-474v43zM88 724q76 16 163 16q184 0 282 -94.5t98 -270.5q0 -188 -98 -286.5t-282 -98.5q-89 0 -163 16v718zM583 375q0 158 -84.5 240t-247.5 82q-53 0 -113 -12v-640q60 -12 113 -12q163 0 247.5 87t84.5 255z" />
    <glyph glyph-name="uni01F2" unicode="&#x1f2;" horiz-adv-x="1207" 
d="M1071 478v2h-325v40h384v-40l-325 -438v-2h325v-40h-384v40zM88 724q76 16 163 16q184 0 282 -94.5t98 -270.5q0 -188 -98 -286.5t-282 -98.5q-89 0 -163 16v718zM583 375q0 158 -84.5 240t-247.5 82q-53 0 -113 -12v-640q60 -12 113 -12q163 0 247.5 87t84.5 255z" />
    <glyph glyph-name="uni01F3" unicode="&#x1f3;" horiz-adv-x="1100" 
d="M964 478v2h-324v40h383v-40l-324 -438v-2h324v-40h-383v40zM94 260q0 -109 46 -169.5t126 -60.5q76 0 124 58t48 164v16q0 103 -47.5 162.5t-124.5 59.5q-80 0 -126 -60.5t-46 -169.5zM48 260q0 128 56 199t154 71q125 0 178 -110h2v330h47v-750h-45l-1 101h-2
q-51 -111 -179 -111q-97 0 -153.5 71t-56.5 199z" />
    <glyph glyph-name="uni01F4" unicode="&#x1f4;" horiz-adv-x="741" 
d="M371 790h-50l117 163h63zM615 375h-277v42h325v-373q-109 -54 -248 -54q-169 0 -270.5 102t-101.5 273t99.5 273t268.5 102q129 0 226 -60l-19 -38q-91 55 -203 55q-150 0 -235.5 -89t-85.5 -243q0 -153 87 -242.5t237 -89.5q111 0 197 39v303z" />
    <glyph glyph-name="uni01F5" unicode="&#x1f5;" horiz-adv-x="562" 
d="M434 753l-130 -163h-50l117 163h63zM265 50q74 0 123.5 58t49.5 157v10q0 98 -49.5 156.5t-123.5 58.5q-80 0 -125.5 -58t-45.5 -162q0 -102 46.5 -161t124.5 -59zM48 270q0 124 55 192t153 68q128 0 181 -110h2l1 100h45v-483q0 -267 -232 -267q-85 0 -158 33l12 39
q71 -32 146 -32q94 0 139.5 54.5t45.5 170.5v83h-2q-52 -108 -180 -108q-94 0 -151 70t-57 190z" />
    <glyph glyph-name="uni01F6" unicode="&#x1f6;" horiz-adv-x="1048" 
d="M608 730v-533q0 -87 38.5 -126.5t123.5 -39.5q174 0 174 247q0 114 -60 249l45 12q61 -138 61 -266q0 -153 -61 -218t-159 -65q-111 0 -161.5 48.5t-50.5 154.5v182h-420v-375h-50v730h50v-313h420v313h50z" />
    <glyph glyph-name="uni01F7" unicode="&#x1f7;" horiz-adv-x="567" 
d="M137 119v-339h-49v950h49v-77q127 87 229 87q76 0 120 -48.5t44 -132.5q0 -143 -95.5 -251t-297.5 -189zM137 169q342 137 342 378q0 68 -34 105.5t-95 37.5q-96 0 -213 -88v-433z" />
    <glyph glyph-name="uni01F8" unicode="&#x1f8;" horiz-adv-x="702" 
d="M399 790l-130 163h64l116 -163h-50zM88 0v730h57l418 -654h2v654h50v-730h-58l-418 654h-2v-654h-49z" />
    <glyph glyph-name="uni01F9" unicode="&#x1f9;" horiz-adv-x="557" 
d="M296 489q-66 0 -118.5 -63t-52.5 -149v-277h-47v520h45l1 -110h2q27 55 75.5 87.5t106.5 32.5q91 0 134 -53t43 -170v-307h-46v303q0 102 -32.5 144t-110.5 42zM181 753h63l117 -163h-50z" />
    <glyph glyph-name="Aringacute" unicode="&#x1fa;" horiz-adv-x="682" 
d="M346 953h-52l117 122h65zM342 686h-2l-150 -413h302zM458 818q0 -38 -21.5 -68.5t-56.5 -42.5l265 -707h-54l-84 231h-333l-84 -231h-52l265 707q-35 12 -56.5 42.5t-21.5 68.5q0 48 34 82t82 34t82.5 -34t34.5 -82zM425 818q0 34 -24.5 58.5t-59.5 24.5t-59 -24.5
t-24 -58.5q0 -35 24.5 -59.5t58.5 -24.5q35 0 59.5 25t24.5 59z" />
    <glyph glyph-name="aringacute" unicode="&#x1fb;" horiz-adv-x="537" 
d="M263 530q104 0 148 -44.5t44 -152.5v-193q0 -70 15 -140h-46q-9 46 -11 103h-2q-27 -52 -78.5 -82.5t-117.5 -30.5q-74 0 -118 40.5t-44 109.5q0 88 77.5 137.5t220.5 49.5h57v5q0 89 -31.5 123.5t-113.5 34.5q-97 0 -175 -46l-12 38q84 48 187 48zM279 807h-50l117 146
h63zM99 142q0 -52 33.5 -83t90.5 -31q75 0 130 55.5t55 138.5v67h-57q-121 0 -186.5 -39t-65.5 -108zM391 668q0 -48 -34 -82t-82 -34t-82.5 34t-34.5 82t34.5 82.5t82.5 34.5t82 -34.5t34 -82.5zM358 668q0 35 -24.5 59.5t-58.5 24.5q-35 0 -59.5 -25t-24.5 -59t24.5 -58.5
t59.5 -24.5t59 24.5t24 58.5z" />
    <glyph glyph-name="AEacute" unicode="&#x1fc;" horiz-adv-x="837" 
d="M438 790h-50l117 163h63zM311 730h449v-43h-305v-270h285v-42h-285v-332h305v-43h-354v231h-233l-84 -231h-51zM188 273h218v414h-67z" />
    <glyph glyph-name="aeacute" unicode="&#x1fd;" horiz-adv-x="882" 
d="M452 590h-50l116 163h64zM456 283h333q-1 101 -43.5 154.5t-119.5 53.5t-122 -54.5t-48 -153.5zM456 243q1 -98 51.5 -156t132.5 -58q78 0 149 42l16 -37q-78 -44 -169 -44q-72 0 -125 38t-79 106q-51 -144 -217 -144q-74 0 -118 40.5t-44 109.5q0 80 79 133.5t219 53.5
h59v2q-3 96 -35.5 128.5t-111.5 32.5q-97 0 -175 -46l-12 38q84 48 187 48q79 0 122 -25.5t59 -84.5q56 110 182 110q100 0 154.5 -68.5t54.5 -196.5q0 -3 -0.5 -11t-0.5 -11h-378zM99 142q0 -52 33.5 -83t90.5 -31q91 0 139 60.5t48 176.5v24h-59q-117 0 -184.5 -42.5
t-67.5 -104.5z" />
    <glyph glyph-name="Oslashacute" unicode="&#x1fe;" horiz-adv-x="802" 
d="M48 365q0 169 97 272t256 103q121 0 207 -60l55 73l36 -26l-56 -76q112 -104 112 -286q0 -169 -97.5 -272t-256.5 -103q-121 0 -207 60l-55 -73l-36 26l56 76q-111 103 -111 286zM476 953h63l-130 -163h-50zM222 88q75 -55 179 -55q136 0 219.5 91t83.5 241
q0 156 -90 248zM188 117l392 525q-75 55 -179 55q-136 0 -219 -91t-83 -241q0 -157 89 -248z" />
    <glyph glyph-name="oslashacute" unicode="&#x1ff;" horiz-adv-x="576" 
d="M48 260q0 124 65 197t175 73q83 0 144 -45l41 56l30 -22l-43 -58q68 -73 68 -201q0 -124 -65 -197t-175 -73q-83 0 -144 45l-41 -56l-30 22l43 58q-68 73 -68 201zM363 753h63l-130 -163h-50zM169 69q47 -39 119 -39q89 0 141 61.5t52 168.5q0 102 -49 164zM144 96
l263 355q-46 39 -119 39q-89 0 -141 -61.5t-52 -168.5q0 -102 49 -164z" />
    <glyph glyph-name="uni0200" unicode="&#x200;" horiz-adv-x="682" 
d="M262 790l-130 163h60l116 -163h-46zM428 790l-130 163h60l117 -163h-47zM342 686h-2l-150 -413h302zM507 231h-333l-84 -231h-52l273 730h60l274 -730h-54z" />
    <glyph glyph-name="uni0201" unicode="&#x201;" horiz-adv-x="537" 
d="M195 590l-130 163h60l117 -163h-47zM362 590l-130 163h60l116 -163h-46zM263 530q104 0 148 -44.5t44 -152.5v-193q0 -70 15 -140h-46q-9 46 -11 103h-2q-27 -52 -78.5 -82.5t-117.5 -30.5q-74 0 -118 40.5t-44 109.5q0 88 77.5 137.5t220.5 49.5h57v5q0 89 -31.5 123.5
t-113.5 34.5q-97 0 -175 -46l-12 38q84 48 187 48zM99 142q0 -52 33.5 -83t90.5 -31q75 0 130 55.5t55 138.5v67h-57q-121 0 -186.5 -39t-65.5 -108z" />
    <glyph glyph-name="uni0202" unicode="&#x202;" horiz-adv-x="682" 
d="M341 900q-57 0 -94.5 -28.5t-38.5 -66.5h-42q0 55 50 94t125 39t125 -39t50 -94h-41q-1 37 -39 66t-95 29zM311 730h60l274 -730h-54l-84 231h-333l-84 -231h-52zM190 273h302l-150 413h-2z" />
    <glyph glyph-name="uni0203" unicode="&#x203;" horiz-adv-x="537" 
d="M275 700q-57 0 -95 -29t-39 -66h-41q0 55 50 94t125 39t125 -39t50 -94h-42q-1 38 -38.5 66.5t-94.5 28.5zM263 530q104 0 148 -44.5t44 -152.5v-193q0 -70 15 -140h-46q-9 46 -11 103h-2q-27 -52 -78.5 -82.5t-117.5 -30.5q-74 0 -118 40.5t-44 109.5q0 88 77.5 137.5
t220.5 49.5h57v5q0 89 -31.5 123.5t-113.5 34.5q-97 0 -175 -46l-12 38q84 48 187 48zM99 142q0 -52 33.5 -83t90.5 -31q75 0 130 55.5t55 138.5v67h-57q-121 0 -186.5 -39t-65.5 -108z" />
    <glyph glyph-name="uni0204" unicode="&#x204;" horiz-adv-x="579" 
d="M219 790l-131 163h60l117 -163h-46zM385 790l-130 163h60l117 -163h-47zM138 687v-270h343v-42h-343v-332h363v-43h-413v730h413v-43h-363z" />
    <glyph glyph-name="uni0205" unicode="&#x205;" horiz-adv-x="544" 
d="M200 590l-130 163h60l117 -163h-47zM367 590l-130 163h60l116 -163h-46zM91 283h359q-2 101 -46.5 154.5t-125.5 53.5q-86 0 -135 -54.5t-52 -153.5zM90 243q1 -100 55.5 -157t145.5 -57q83 0 157 42l15 -37q-81 -44 -175 -44q-112 0 -178.5 72.5t-66.5 197.5
q0 126 63 198t172 72q104 0 161 -69t57 -196v-22h-406z" />
    <glyph glyph-name="uni0206" unicode="&#x206;" horiz-adv-x="579" 
d="M298 900q-57 0 -94.5 -28.5t-38.5 -66.5h-42q0 55 50 94t125 39t125 -39t50 -94h-42q-1 38 -38.5 66.5t-94.5 28.5zM88 730h413v-43h-363v-270h343v-42h-343v-332h363v-43h-413v730z" />
    <glyph glyph-name="uni0207" unicode="&#x207;" horiz-adv-x="544" 
d="M280 700q-57 0 -95 -29t-39 -66h-41q0 55 50 94t125 39t125 -39t50 -94h-42q-1 38 -38.5 66.5t-94.5 28.5zM91 283h359q-2 101 -46.5 154.5t-125.5 53.5q-86 0 -135 -54.5t-52 -153.5zM90 243q1 -100 55.5 -157t145.5 -57q83 0 157 42l15 -37q-81 -44 -175 -44
q-112 0 -178.5 72.5t-66.5 197.5q0 126 63 198t172 72q104 0 161 -69t57 -196v-22h-406z" />
    <glyph glyph-name="uni0208" unicode="&#x208;" horiz-adv-x="300" 
d="M70 790l-130 163h60l117 -163h-47zM237 790l-130 163h60l116 -163h-46zM123 0v730h53v-730h-53z" />
    <glyph glyph-name="uni0209" unicode="&#x209;" horiz-adv-x="296" 
d="M68 590l-130 163h60l117 -163h-47zM235 590l-130 163h60l116 -163h-46zM123 0v520h49v-520h-49z" />
    <glyph glyph-name="uni020A" unicode="&#x20a;" horiz-adv-x="298" 
d="M324 805h-42q-1 38 -38.5 66.5t-94.5 28.5t-94.5 -28.5t-38.5 -66.5h-42q0 55 50 94t125 39t125 -39t50 -94zM122 0v730h54v-730h-54z" />
    <glyph glyph-name="uni020B" unicode="&#x20b;" horiz-adv-x="294" 
d="M322 605h-42q-1 38 -38.5 66.5t-94.5 28.5t-94.5 -28.5t-38.5 -66.5h-42q0 55 50 94t125 39t125 -39t50 -94zM123 0v520h48v-520h-48z" />
    <glyph glyph-name="uni020C" unicode="&#x20c;" horiz-adv-x="792" 
d="M317 790l-130 163h60l116 -163h-46zM483 790l-130 163h60l117 -163h-47zM43 365q0 169 97 272t256 103t256.5 -103t97.5 -272t-97.5 -272t-256.5 -103t-256 103t-97 272zM396 33q136 0 219.5 91t83.5 241t-83.5 241t-219.5 91t-219 -91t-83 -241t83 -241t219 -91z" />
    <glyph glyph-name="uni020D" unicode="&#x20d;" horiz-adv-x="566" 
d="M204 590l-131 163h60l117 -163h-46zM370 590l-130 163h60l117 -163h-47zM43 260q0 124 65 197t175 73t175 -73t65 -197t-65 -197t-175 -73t-175 73t-65 197zM283 30q89 0 141 61.5t52 168.5t-52 168.5t-141 61.5t-141 -61.5t-52 -168.5t52 -168.5t141 -61.5z" />
    <glyph glyph-name="uni020E" unicode="&#x20e;" horiz-adv-x="792" 
d="M571 805h-41q-1 37 -39 66t-95 29t-94.5 -28.5t-38.5 -66.5h-42q0 55 50 94t125 39t125 -39t50 -94zM396 33q136 0 219.5 91t83.5 241t-83.5 241t-219.5 91t-219 -91t-83 -241t83 -241t219 -91zM396 -10q-159 0 -256 103t-97 272t97 272t256 103t256.5 -103t97.5 -272
t-97.5 -272t-256.5 -103z" />
    <glyph glyph-name="uni020F" unicode="&#x20f;" horiz-adv-x="566" 
d="M458 605h-42q-1 38 -38.5 66.5t-94.5 28.5t-94.5 -28.5t-38.5 -66.5h-42q0 55 50 94t125 39t125 -39t50 -94zM283 30q89 0 141 61.5t52 168.5t-52 168.5t-141 61.5t-141 -61.5t-52 -168.5t52 -168.5t141 -61.5zM283 -10q-110 0 -175 73t-65 197t65 197t175 73t175 -73
t65 -197t-65 -197t-175 -73z" />
    <glyph glyph-name="uni0210" unicode="&#x210;" horiz-adv-x="614" 
d="M217 790l-130 163h60l117 -163h-47zM384 790l-130 163h60l116 -163h-46zM147 337v-337h-50v725q81 15 173 15q138 0 207.5 -50.5t69.5 -146.5q0 -153 -169 -188l-1 -2q26 -12 47.5 -42t51.5 -99l91 -212h-53l-88 206q-22 50 -34 72.5t-33 38t-43 18t-69 2.5h-100z
M147 379h100q130 0 190 40t60 121q0 157 -230 157q-66 0 -120 -10v-308z" />
    <glyph glyph-name="uni0211" unicode="&#x211;" horiz-adv-x="442" 
d="M124 520l1 -123h2q40 64 106.5 98.5t151.5 34.5v-41q-112 0 -185.5 -63t-73.5 -159v-267h-48v520h46zM112 590l-130 163h60l117 -163h-47zM279 590l-130 163h60l116 -163h-46z" />
    <glyph glyph-name="uni0212" unicode="&#x212;" horiz-adv-x="606" 
d="M463 805h-42q-1 38 -38.5 66.5t-94.5 28.5t-94.5 -28.5t-38.5 -66.5h-42q0 55 50 94t125 39t125 -39t50 -94zM138 337v-337h-50v725q81 15 173 15q138 0 207.5 -50.5t69.5 -146.5q0 -153 -169 -188v-2q25 -12 46.5 -42t51.5 -99l91 -212h-53l-87 206q-17 40 -28.5 61
t-24.5 37.5t-31 22t-38 8t-58 2.5h-100zM138 379h100q130 0 190.5 40t60.5 121q0 157 -231 157q-66 0 -120 -10v-308z" />
    <glyph glyph-name="uni0213" unicode="&#x213;" horiz-adv-x="442" 
d="M191 700q-57 0 -94.5 -28.5t-38.5 -66.5h-42q0 55 50 94t125 39t125 -39t50 -94h-42q-1 38 -38.5 66.5t-94.5 28.5zM123 520l1 -123h2q40 64 106.5 98.5t151.5 34.5v-41q-112 0 -185.5 -63t-73.5 -159v-267h-47v520h45z" />
    <glyph glyph-name="uni0214" unicode="&#x214;" horiz-adv-x="672" 
d="M257 790l-130 163h60l116 -163h-46zM423 790l-130 163h60l117 -163h-47zM545 730h50v-452q0 -140 -67 -214t-192 -74t-191.5 73.5t-66.5 214.5v452h51v-453q0 -243 208 -243t208 243v453z" />
    <glyph glyph-name="uni0215" unicode="&#x215;" horiz-adv-x="553" 
d="M125 520v-327q0 -89 30.5 -125.5t102.5 -36.5q64 0 117.5 62t53.5 150v277h47v-520h-45l-1 110h-2q-27 -55 -75.5 -87.5t-106.5 -32.5q-87 0 -127 47t-40 153v330h46zM203 590l-130 163h60l117 -163h-47zM370 590l-130 163h60l116 -163h-46z" />
    <glyph glyph-name="uni0216" unicode="&#x216;" horiz-adv-x="672" 
d="M511 805h-41q-1 37 -39 66t-95 29t-94.5 -28.5t-38.5 -66.5h-42q0 55 50 94t125 39t125 -39t50 -94zM545 730h50v-452q0 -140 -67 -214t-192 -74t-191.5 73.5t-66.5 214.5v452h51v-453q0 -243 208 -243t208 243v453z" />
    <glyph glyph-name="uni0217" unicode="&#x217;" horiz-adv-x="547" 
d="M276 700q-57 0 -94.5 -28.5t-38.5 -66.5h-42q0 55 50 94t125 39t125 -39t50 -94h-41q-1 37 -39 66t-95 29zM119 520v-327q0 -89 30 -125.5t102 -36.5q64 0 118 62.5t54 149.5v277h47v-520h-45l-1 110h-2q-27 -55 -75.5 -87.5t-106.5 -32.5q-87 0 -127 47t-40 153v330h46z
" />
    <glyph glyph-name="Scommaaccent" unicode="&#x218;" horiz-adv-x="562" 
d="M213 -263l67 203h59l-78 -203h-48zM281 697q-77 0 -119.5 -33.5t-42.5 -93.5q0 -110 163 -160q116 -35 167 -88t51 -137q0 -94 -57.5 -144.5t-164.5 -50.5q-122 0 -215 67l18 40q86 -64 197 -64q84 0 128 39t44 113q0 67 -39.5 108.5t-132.5 70.5q-208 62 -208 206
q0 77 55.5 123.5t155.5 46.5q112 0 205 -48l-14 -40q-84 45 -191 45z" />
    <glyph glyph-name="scommaaccent" unicode="&#x219;" horiz-adv-x="489" 
d="M171 -263l67 203h60l-79 -203h-48zM241 530q91 0 174 -40l-13 -39q-78 39 -161 39q-64 0 -100 -25.5t-36 -69.5q0 -40 29.5 -65t109.5 -40q99 -18 143 -55.5t44 -101.5q0 -66 -50.5 -104.5t-139.5 -38.5q-98 0 -183 50l14 38q79 -48 169 -48q67 0 105 27.5t38 75.5
q0 46 -33.5 72.5t-112.5 41.5q-96 17 -138 52t-42 96t49 98t134 37z" />
    <glyph glyph-name="uni021A" unicode="&#x21a;" horiz-adv-x="652" 
d="M256 -263l67 203h60l-79 -203h-48zM63 730h527v-44h-239v-686h-50v686h-238v44z" />
    <glyph glyph-name="uni021B" unicode="&#x21b;" horiz-adv-x="504" 
d="M193 -263l67 203h59l-78 -203h-48zM426 460h-206v-307q0 -75 22 -99t81 -24q47 0 85 15l10 -38q-48 -17 -100 -17q-81 0 -113 34.5t-32 122.5v313h-120v40h120v190h47v-190h206v-40z" />
    <glyph glyph-name="uni021C" unicode="&#x21c;" horiz-adv-x="520" 
d="M28 -197q206 54 303 138.5t97 207.5q0 67 -36.5 108t-100.5 45q-71 -47 -185 -89l-13 41q164 60 242 139t78 185q0 118 -143 118q-98 0 -224 -76l-16 40q136 80 248 80q88 0 136.5 -41t48.5 -115q0 -147 -125 -248q64 -14 102 -64t38 -121q0 -141 -106.5 -237
t-331.5 -154z" />
    <glyph glyph-name="uni021D" unicode="&#x21d;" horiz-adv-x="489" 
d="M28 -200q191 41 281 106.5t90 158.5q0 53 -33.5 84t-94.5 33q-67 -36 -167 -66l-12 39q155 46 226 104.5t71 138.5q0 91 -133 91q-90 0 -211 -60l-15 37q127 64 232 64q93 0 133.5 -36.5t40.5 -87.5q0 -117 -117 -195q59 -12 93 -50.5t34 -94.5q0 -110 -99 -185.5
t-309 -120.5z" />
    <glyph glyph-name="uni021E" unicode="&#x21e;" horiz-adv-x="696" 
d="M349 814l118 139h59l-143 -163h-70l-143 163h59l118 -139h2zM138 730v-313h420v313h50v-730h-50v375h-420v-375h-50v730h50z" />
    <glyph glyph-name="uni021F" unicode="&#x21f;" horiz-adv-x="562" 
d="M281 814l118 139h59l-143 -163h-70l-144 163h59l119 -139h2zM130 750v-339h2q29 55 76.5 87t104.5 32q91 0 134 -53t43 -170v-307h-46v303q0 102 -32.5 144t-110.5 42q-66 0 -118.5 -63t-52.5 -149v-277h-47v750h47z" />
    <glyph glyph-name="uni0220" unicode="&#x220;" horiz-adv-x="687" 
d="M380 740q118 0 171.5 -66.5t53.5 -215.5v-678h-50v672q0 135 -42.5 190t-143.5 55q-92 0 -161 -80t-69 -190v-427h-51v730h51v-146h2q35 72 99.5 114t139.5 42z" />
    <glyph glyph-name="uni0221" unicode="&#x221;" horiz-adv-x="698" 
d="M354 11q-40 -21 -96 -21q-97 0 -153.5 71t-56.5 199t56 199t154 71q125 0 178 -110h2v330h47v-591q49 39 101 39q48 0 76 -27t28 -73q0 -51 -32.5 -79.5t-91.5 -28.5q-101 0 -122 73q-50 -60 -121 -165l-34 21q25 38 65 92zM485 107q1 -41 19.5 -59t61.5 -18q82 0 82 68
q0 29 -17.5 45.5t-48.5 16.5q-44 0 -97 -53zM94 260q0 -109 46 -169.5t126 -60.5q76 0 124 58t48 164v16q0 103 -47.5 162.5t-124.5 59.5q-80 0 -126 -60.5t-46 -169.5z" />
    <glyph glyph-name="uni0222" unicode="&#x222;" horiz-adv-x="619" 
d="M53 582v148h48v-150q0 -82 56 -126t153 -44t152.5 44t55.5 126v150h48v-148q0 -154 -158 -193v-2q75 -17 116.5 -67t41.5 -125q0 -94 -68.5 -149.5t-187.5 -55.5t-188 55.5t-69 149.5q0 75 41.5 125t116.5 67v2q-158 39 -158 193zM310 369q-99 0 -153.5 -44t-54.5 -124
q0 -79 55 -124t153 -45q97 0 152 44.5t55 124.5t-54 124t-153 44z" />
    <glyph glyph-name="uni0223" unicode="&#x223;" horiz-adv-x="569" 
d="M285 -10q-110 0 -173.5 51t-63.5 139q0 69 38 115.5t107 63.5v2q-69 18 -107 59.5t-38 99.5h47q0 -64 51.5 -102t138.5 -38t138.5 38t51.5 102h46q0 -58 -37.5 -99.5t-106.5 -59.5v-2q68 -17 106 -63.5t38 -115.5q0 -88 -63 -139t-173 -51zM285 340q-90 0 -140 -41
t-50 -113t51 -113.5t139 -41.5t139 41.5t51 113.5t-50 113t-140 41z" />
    <glyph glyph-name="uni0224" unicode="&#x224;" horiz-adv-x="629" 
d="M492 685v2h-414v43h473v-43l-414 -642v-2h414v-21v-22v-68q0 -85 -37 -123.5t-118 -38.5q-45 0 -87 15l12 39q34 -14 74 -14q59 0 84.5 28t25.5 94v68h-427v43z" />
    <glyph glyph-name="uni0225" unicode="&#x225;" horiz-adv-x="539" 
d="M78 520h383v-40l-324 -438v-2h324v-18v-22v-68q0 -85 -35.5 -123.5t-113.5 -38.5q-45 0 -87 15l12 39q34 -14 72 -14q59 0 84 28t25 94v68h-340v40l324 438v2h-324v40z" />
    <glyph glyph-name="uni0226" unicode="&#x226;" horiz-adv-x="682" 
d="M317 810v123h49v-123h-49zM342 686h-2l-150 -413h302zM507 231h-333l-84 -231h-52l273 730h60l274 -730h-54z" />
    <glyph glyph-name="uni0227" unicode="&#x227;" horiz-adv-x="537" 
d="M263 530q104 0 148 -44.5t44 -152.5v-193q0 -70 15 -140h-46q-9 46 -11 103h-2q-27 -52 -78.5 -82.5t-117.5 -30.5q-74 0 -118 40.5t-44 109.5q0 88 77.5 137.5t220.5 49.5h57v5q0 89 -31.5 123.5t-113.5 34.5q-97 0 -175 -46l-12 38q84 48 187 48zM250 610v123h49v-123
h-49zM99 142q0 -52 33.5 -83t90.5 -31q75 0 130 55.5t55 138.5v67h-57q-121 0 -186.5 -39t-65.5 -108z" />
    <glyph glyph-name="uni0228" unicode="&#x228;" horiz-adv-x="579" 
d="M501 687h-363v-270h343v-42h-343v-332h363v-43h-130q41 -48 41 -103q0 -48 -39 -82.5t-131 -34.5q-65 0 -120 25l10 39q48 -24 106 -24q128 0 128 86q0 50 -45 94h-233v730h413v-43z" />
    <glyph glyph-name="uni0229" unicode="&#x229;" horiz-adv-x="564" 
d="M91 283h359q-2 101 -46.5 154.5t-125.5 53.5q-86 0 -135 -54.5t-52 -153.5zM356 -4q38 -47 38 -99q0 -48 -39 -82.5t-131 -34.5q-65 0 -120 25l9 39q48 -24 107 -24q127 0 127 86q0 47 -35 85q-4 0 -12 -0.5t-12 -0.5q-112 0 -178.5 72.5t-66.5 197.5q0 126 63 198
t172 72q104 0 161 -69t57 -196v-22h-406q1 -100 55.5 -157t145.5 -57q83 0 157 42l15 -37q-48 -27 -107 -38z" />
    <glyph glyph-name="uni022A" unicode="&#x22a;" horiz-adv-x="792" 
d="M473 790v102h47v-102h-47zM273 790v102h47v-102h-47zM230 978v39h333v-39h-333zM43 365q0 169 97 272t256 103t256.5 -103t97.5 -272t-97.5 -272t-256.5 -103t-256 103t-97 272zM396 33q136 0 219.5 91t83.5 241t-83.5 241t-219.5 91t-219 -91t-83 -241t83 -241t219 -91z
" />
    <glyph glyph-name="uni022B" unicode="&#x22b;" horiz-adv-x="566" 
d="M360 610v123h46v-123h-46zM160 610v123h46v-123h-46zM116 830v40h334v-40h-334zM43 260q0 124 65 197t175 73t175 -73t65 -197t-65 -197t-175 -73t-175 73t-65 197zM283 30q89 0 141 61.5t52 168.5t-52 168.5t-141 61.5t-141 -61.5t-52 -168.5t52 -168.5t141 -61.5z" />
    <glyph glyph-name="uni022C" unicode="&#x22c;" horiz-adv-x="792" 
d="M230 978v39h333v-39h-333zM404 869q58 -39 86 -39q40 0 40 75h41q0 -113 -73 -113q-41 0 -110 46q-58 39 -86 39q-39 0 -39 -85h-42q0 123 74 123q41 0 109 -46zM43 365q0 169 97 272t256 103t256.5 -103t97.5 -272t-97.5 -272t-256.5 -103t-256 103t-97 272zM396 33
q136 0 219.5 91t83.5 241t-83.5 241t-219.5 91t-219 -91t-83 -241t83 -241t219 -91z" />
    <glyph glyph-name="uni022D" unicode="&#x22d;" horiz-adv-x="566" 
d="M116 830v40h334v-40h-334zM290 682q57 -40 87 -40q39 0 39 76h42q0 -115 -73 -115q-43 0 -111 47q-56 39 -85 39q-39 0 -39 -86h-42q0 125 73 125q43 0 109 -46zM43 260q0 124 65 197t175 73t175 -73t65 -197t-65 -197t-175 -73t-175 73t-65 197zM283 30q89 0 141 61.5
t52 168.5t-52 168.5t-141 61.5t-141 -61.5t-52 -168.5t52 -168.5t141 -61.5z" />
    <glyph glyph-name="uni022E" unicode="&#x22e;" horiz-adv-x="792" 
d="M372 810v123h49v-123h-49zM43 365q0 169 97 272t256 103t256.5 -103t97.5 -272t-97.5 -272t-256.5 -103t-256 103t-97 272zM396 33q136 0 219.5 91t83.5 241t-83.5 241t-219.5 91t-219 -91t-83 -241t83 -241t219 -91z" />
    <glyph glyph-name="uni022F" unicode="&#x22f;" horiz-adv-x="566" 
d="M259 610v123h48v-123h-48zM43 260q0 124 65 197t175 73t175 -73t65 -197t-65 -197t-175 -73t-175 73t-65 197zM283 30q89 0 141 61.5t52 168.5t-52 168.5t-141 61.5t-141 -61.5t-52 -168.5t52 -168.5t141 -61.5z" />
    <glyph glyph-name="uni0230" unicode="&#x230;" horiz-adv-x="792" 
d="M372 797v120h49v-120h-49zM230 978v39h333v-39h-333zM43 365q0 169 97 272t256 103t256.5 -103t97.5 -272t-97.5 -272t-256.5 -103t-256 103t-97 272zM396 33q136 0 219.5 91t83.5 241t-83.5 241t-219.5 91t-219 -91t-83 -241t83 -241t219 -91z" />
    <glyph glyph-name="uni0231" unicode="&#x231;" horiz-adv-x="566" 
d="M259 610v123h48v-123h-48zM116 830v40h334v-40h-334zM43 260q0 124 65 197t175 73t175 -73t65 -197t-65 -197t-175 -73t-175 73t-65 197zM283 30q89 0 141 61.5t52 168.5t-52 168.5t-141 61.5t-141 -61.5t-52 -168.5t52 -168.5t141 -61.5z" />
    <glyph glyph-name="uni0232" unicode="&#x232;" horiz-adv-x="656" 
d="M161 867v40h334v-40h-334zM92 730l236 -368h2l235 368h58l-269 -412v-318h-52v318l-269 412h59z" />
    <glyph glyph-name="uni0233" unicode="&#x233;" horiz-adv-x="549" 
d="M105 657v40h333v-40h-333zM267 63h2l192 457h50l-320 -740h-50l101 227l-204 513h51z" />
    <glyph glyph-name="uni0234" unicode="&#x234;" horiz-adv-x="449" 
d="M177 106v9v635h49v-597q53 45 107 45q50 0 79.5 -27t29.5 -73q0 -51 -35 -79.5t-97 -28.5q-96 0 -123 67q-52 -64 -116 -159l-34 21q84 125 140 187zM226 101q5 -71 85 -71q88 0 88 68q0 62 -69 62q-46 0 -104 -59z" />
    <glyph glyph-name="uni0235" unicode="&#x235;" horiz-adv-x="698" 
d="M125 0h-47v520h45l1 -110h2q27 55 75.5 87.5t106.5 32.5q91 0 134 -53t43 -170v-148q49 39 101 39q48 0 76 -27t28 -73q0 -51 -32.5 -79.5t-91.5 -28.5q-101 0 -122 72q-54 -64 -121 -164l-34 21q88 130 150 196v188q0 102 -32.5 144t-110.5 42q-66 0 -118.5 -63
t-52.5 -149v-277zM485 107q1 -41 19.5 -59t61.5 -18q82 0 82 68q0 29 -17.5 45.5t-48.5 16.5q-44 0 -97 -53z" />
    <glyph glyph-name="uni0236" unicode="&#x236;" horiz-adv-x="475" 
d="M176 94q-3 23 -3 53v313h-120v40h120v190h48v-190h206v-40h-206v-307v-12q61 57 121 57q49 0 77 -27t28 -73q0 -50 -34.5 -79t-93.5 -29q-54 0 -84.5 13t-45.5 45q-48 -59 -109 -150l-34 21q74 110 130 175zM225 90q7 -36 28 -48t67 -12q40 0 62.5 18t22.5 50
q0 29 -17.5 45.5t-48.5 16.5q-50 0 -114 -70z" />
    <glyph glyph-name="uni0237" unicode="&#x237;" horiz-adv-x="334" 
d="M-20 -220l-2 41q113 0 149 36t36 151v512h48v-510q0 -135 -47.5 -182.5t-183.5 -47.5z" />
    <glyph glyph-name="uni0238" unicode="&#x238;" horiz-adv-x="922" 
d="M656 490q-77 0 -124 -59.5t-47 -162.5v-16q0 -106 47.5 -164t123.5 -58q80 0 126.5 60.5t46.5 169.5t-46.5 169.5t-126.5 60.5zM94 260q0 -109 46 -169.5t126 -60.5q76 0 124 58t48 164v16q0 103 -47.5 162.5t-124.5 59.5q-80 0 -126 -60.5t-46 -169.5zM48 260
q0 128 56 199t154 71q125 0 178 -110h2v310h47v-310h2q53 110 178 110q98 0 154 -71t56 -199t-56.5 -199t-153.5 -71q-129 0 -180 111h-2v-101h-43v101h-2q-51 -111 -180 -111q-97 0 -153.5 71t-56.5 199z" />
    <glyph glyph-name="uni0239" unicode="&#x239;" horiz-adv-x="922" 
d="M656 490q-77 0 -124 -59.5t-47 -162.5v-16q0 -106 47.5 -164t123.5 -58q80 0 126.5 60.5t46.5 169.5t-46.5 169.5t-126.5 60.5zM94 260q0 -109 46 -169.5t126 -60.5q76 0 124 58t48 164v16q0 103 -47.5 162.5t-124.5 59.5q-80 0 -126 -60.5t-46 -169.5zM48 260
q0 128 56 199t154 71q129 0 180 -111h2v101h43v-101h2q51 111 180 111q98 0 154 -71t56 -199t-56.5 -199t-153.5 -71q-127 0 -178 108h-2v-318h-47v318h-2q-51 -108 -178 -108q-97 0 -153.5 71t-56.5 199z" />
    <glyph glyph-name="uni023A" unicode="&#x23a;" horiz-adv-x="702" 
d="M356 686h-2l-150 -413h35l183 233zM206 231h-17l-15 -40zM263 231l-138 -176l-20 -55h-23l-13 -17l-36 27l45 58l248 662h60l68 -182l156 199l36 -27l-173 -221l186 -499h-53l-84 231h-259zM296 273h211l-67 184z" />
    <glyph glyph-name="uni023B" unicode="&#x23b;" horiz-adv-x="691" 
d="M403 697q-142 0 -225.5 -90t-83.5 -242q0 -177 113 -268l288 588q-45 12 -92 12zM538 671l-293 -599q70 -39 158 -39q109 0 201 60l19 -39q-95 -64 -223 -64q-99 0 -176 40l-46 -95l-41 19l48 99q-142 101 -142 312q0 173 96.5 274t260.5 101q55 0 114 -16l34 71l41 -19
l-32 -66q32 -12 66 -34l-19 -39q-32 21 -66 34z" />
    <glyph glyph-name="uni023C" unicode="&#x23c;" horiz-adv-x="514" 
d="M376 521l24 49l33 -16l-22 -44q15 -5 35 -15l-14 -39q-13 7 -39 17l-201 -415q48 -28 108 -28q69 0 132 33l14 -38q-70 -35 -148 -35q-70 0 -125 29l-33 -69l-33 16l35 73q-99 73 -99 221q0 126 68 198t187 72q40 0 78 -9zM162 80l196 404q-23 5 -58 5
q-98 0 -153.5 -60.5t-55.5 -168.5q0 -115 71 -180z" />
    <glyph glyph-name="uni023D" unicode="&#x23d;" horiz-adv-x="651" 
d="M38 365v40h121v325h51v-325h121v-40h-121v-321h379v-44h-430v365h-121z" />
    <glyph glyph-name="uni023E" unicode="&#x23e;" horiz-adv-x="656" 
d="M580 730l22 32l37 -25l-283 -408v-329h-50v257l-200 -289l-37 25l237 343v350h-238v44h512zM356 408l193 278h-193v-278z" />
    <glyph glyph-name="uni023F" unicode="&#x23f;" horiz-adv-x="489" 
d="M415 490l-13 -39q-78 39 -161 39q-64 0 -100 -25.5t-36 -69.5q0 -40 29.5 -65t109.5 -40q99 -18 143 -55.5t44 -101.5q0 -101 -109 -133q114 -48 174 -150h-59q-38 59 -90.5 95.5t-109.5 44.5q-98 2 -179 50l14 38q79 -48 169 -48q67 0 105 27.5t38 75.5q0 46 -33.5 72.5
t-112.5 41.5q-96 17 -138 52t-42 96t49 98t134 37q91 0 174 -40z" />
    <glyph glyph-name="uni0240" unicode="&#x240;" horiz-adv-x="540" 
d="M200 40q220 0 323 -190h-59q-86 150 -290 150h-96v40l324 438v2h-324v40h383v-40l-324 -438v-2h63z" />
    <glyph glyph-name="uni0241" unicode="&#x241;" horiz-adv-x="559" 
d="M283 343v-343h-48v379q107 0 162.5 43t55.5 123q0 72 -51.5 112t-144.5 40q-97 0 -193 -58l-16 40q102 61 214 61q111 0 175.5 -52t64.5 -142q0 -89 -57 -142t-162 -61z" />
    <glyph glyph-name="uni0242" unicode="&#x242;" horiz-adv-x="477" 
d="M430 362q0 -76 -50 -120.5t-144 -52.5v-189h-47v225q95 0 144.5 36t49.5 101q0 59 -44.5 93t-123.5 34q-82 0 -167 -50l-15 38q91 53 187 53q97 0 153.5 -45.5t56.5 -122.5z" />
    <glyph glyph-name="uni0243" unicode="&#x243;" horiz-adv-x="658" 
d="M159 242v482q80 16 163 16q257 0 257 -173q0 -63 -40 -106.5t-111 -60.5v-2q92 -15 140 -63t48 -125q0 -97 -65.5 -158.5t-218.5 -61.5q-96 0 -173 16v194h-121v42h121zM566 213q0 82 -64 122t-200 40h-93v-133h199v-42h-199v-156q61 -11 123 -11q234 0 234 180zM209 417
h93q113 0 171 37.5t58 107.5q0 135 -209 135q-56 0 -113 -11v-269z" />
    <glyph glyph-name="uni0244" unicode="&#x244;" horiz-adv-x="806" 
d="M38 270v40h107v420h50v-420h417v420h49v-420h107v-40h-107q-2 -137 -68.5 -208.5t-189.5 -71.5t-189.5 71.5t-68.5 208.5h-107zM612 270h-417q3 -236 209 -236q205 0 208 236z" />
    <glyph glyph-name="uni0245" unicode="&#x245;" horiz-adv-x="682" 
d="M342 686h-2l-250 -686h-52l273 730h60l274 -730h-54z" />
    <glyph glyph-name="uni0246" unicode="&#x246;" horiz-adv-x="579" 
d="M138 687v-270h164l73 270h-237zM422 687l-74 -270h133v-42h-144l-91 -332h255v-43h-267l-26 -95l-44 10l24 85h-100v730h299l26 95l44 -10l-24 -85h68v-43h-79zM199 43l91 332h-152v-332h61z" />
    <glyph glyph-name="uni0247" unicode="&#x247;" horiz-adv-x="544" 
d="M355 475q-32 16 -77 16q-86 0 -135 -54.5t-52 -153.5h174zM386 454l-80 -171h144q-3 119 -64 171zM247 243h-157q1 -116 75 -174zM287 243l-91 -193q44 -21 95 -21q83 0 157 42l15 -37q-81 -44 -175 -44q-61 0 -110 23l-29 -63l-34 14l32 67q-104 72 -104 229
q0 126 63 198t172 72q51 0 95 -19l27 59l34 -14l-29 -63q91 -65 91 -228v-22h-209z" />
    <glyph glyph-name="uni0248" unicode="&#x248;" horiz-adv-x="666" 
d="M202 270v40h188v420h51v-420h188v-40h-188q-1 -280 -260 -280q-86 0 -153 33l14 43q69 -33 139 -33q205 0 209 237h-188z" />
    <glyph glyph-name="uni0249" unicode="&#x249;" horiz-adv-x="542" 
d="M58 270v40h189v210h49v-210h189v-40h-189v-260q0 -135 -48 -182.5t-184 -47.5l-2 41q113 0 149 36t36 151v262h-189zM247 640v110h49v-110h-49z" />
    <glyph glyph-name="uni024A" unicode="&#x24a;" horiz-adv-x="781" 
d="M644 352v26q0 151 -74 235t-199 84q-128 0 -203.5 -89t-75.5 -243t75.5 -243t203.5 -89q125 0 199 84t74 235zM43 365q0 172 88.5 273.5t234.5 101.5q99 0 170 -42t106 -121h2l1 153h48v-797q0 -66 25 -93.5t84 -27.5q38 0 72 14l12 -41q-42 -15 -87 -15
q-82 0 -118.5 38.5t-36.5 123.5v221h-2q-35 -79 -106 -121t-170 -42q-146 0 -234.5 101.5t-88.5 273.5z" />
    <glyph glyph-name="uni024B" unicode="&#x24b;" horiz-adv-x="563" 
d="M48 260q0 128 56 199t154 71q128 0 179 -111h2l1 101h45v-588q0 -66 25 -94t84 -28q38 0 72 14l11 -39q-42 -15 -86 -15q-79 0 -115.5 38.5t-36.5 123.5v169h-2q-51 -111 -179 -111q-97 0 -153.5 71t-56.5 199zM94 260q0 -109 46 -169.5t126 -60.5q76 0 124 58t48 164v16
q0 103 -47.5 162.5t-124.5 59.5q-80 0 -126 -60.5t-46 -169.5z" />
    <glyph glyph-name="uni024C" unicode="&#x24c;" horiz-adv-x="676" 
d="M159 337h-121v42h121v346q81 15 173 15q138 0 207.5 -50.5t69.5 -146.5q0 -153 -169 -188v-2q25 -12 46.5 -42t51.5 -99l91 -212h-53l-87 206q-17 40 -28.5 61t-24.5 37.5t-31 22t-38 8t-58 2.5h-100v-337h-50v337zM209 379h100q130 0 190.5 40t60.5 121q0 157 -231 157
q-66 0 -120 -10v-308z" />
    <glyph glyph-name="uni024D" unicode="&#x24d;" horiz-adv-x="551" 
d="M233 520v-123h2q40 63 107 98t152 35v-41q-112 0 -186 -63.5t-74 -158.5v-7h231v-40h-231v-220h-47v220h-149v40h149v260h46z" />
    <glyph glyph-name="uni024E" unicode="&#x24e;" horiz-adv-x="761" 
d="M38 560v40h132l-84 130h59l83 -130h307l83 130h58l-85 -130h132v-40h-159l-158 -242v-318h-51v318l-158 242h-159zM509 560h-256l127 -198h2z" />
    <glyph glyph-name="uni024F" unicode="&#x24f;" horiz-adv-x="671" 
d="M43 320v40h123l-64 160h51l63 -160h242l68 160h50l-70 -160h122v-40h-139l-233 -540h-50l100 227l-124 313h-139zM331 63h2l108 257h-210z" />
    <glyph glyph-name="uni0250" unicode="&#x250;" horiz-adv-x="537" 
d="M275 -10q-104 0 -148 44.5t-44 152.5v193q0 70 -15 140h45q11 -51 12 -103h2q27 52 78.5 82.5t117.5 30.5q74 0 118 -40.5t44 -109.5q0 -88 -78 -137.5t-221 -49.5h-56v-5q0 -89 31.5 -123.5t113.5 -34.5q97 0 175 46l11 -38q-84 -48 -186 -48zM439 378q0 52 -33.5 83
t-90.5 31q-75 0 -130 -55.5t-55 -138.5v-67h56q121 0 187 39t66 108z" />
    <glyph glyph-name="uni0251" unicode="&#x251;" horiz-adv-x="562" 
d="M94 260q0 -109 46 -169.5t126 -60.5q76 0 124 58t48 164v16q0 103 -47.5 162.5t-124.5 59.5q-80 0 -126 -60.5t-46 -169.5zM48 260q0 128 56 199t154 71q127 0 180 -110h2v100h45v-520h-45l-1 101h-2q-51 -111 -179 -111q-97 0 -153.5 71t-56.5 199z" />
    <glyph glyph-name="uni0252" unicode="&#x252;" horiz-adv-x="562" 
d="M469 260q0 109 -46.5 169.5t-126.5 60.5q-76 0 -123.5 -58t-47.5 -164v-16q0 -103 47 -162.5t124 -59.5q80 0 126.5 60.5t46.5 169.5zM515 260q0 -128 -56 -199t-154 -71q-127 0 -180 110h-2v-100h-45v520h45l1 -101h2q51 111 179 111q97 0 153.5 -71t56.5 -199z" />
    <glyph glyph-name="uni0253" unicode="&#x253;" horiz-adv-x="562" 
d="M125 598v-178h2q53 110 178 110q98 0 154 -71t56 -199t-56.5 -199t-153.5 -71q-128 0 -179 111h-2l-1 -101h-45v598q0 83 37.5 122.5t115.5 39.5q44 0 86 -15l-11 -39q-34 14 -72 14q-59 0 -84 -28t-25 -94zM469 260q0 109 -46.5 169.5t-126.5 60.5q-77 0 -124 -59.5
t-47 -162.5v-16q0 -106 47.5 -164t123.5 -58q80 0 126.5 60.5t46.5 169.5z" />
    <glyph glyph-name="uni0254" unicode="&#x254;" horiz-adv-x="514" 
d="M83 457l-15 38q70 35 148 35q114 0 184.5 -74t70.5 -196q0 -126 -68 -198t-187 -72q-78 0 -148 35l15 39q63 -33 132 -33q98 0 153 60.5t55 168.5q0 104 -57.5 167t-150.5 63q-69 0 -132 -33z" />
    <glyph glyph-name="uni0255" unicode="&#x255;" horiz-adv-x="526" 
d="M300 30q67 0 105 22t38 59q0 25 -17.5 40.5t-44.5 15.5t-52.5 -23t-83.5 -108q26 -6 55 -6zM180 16q-64 31 -100.5 95t-36.5 149q0 126 68 198t187 72q78 0 148 -35l-14 -39q-63 33 -132 33q-98 0 -153.5 -60.5t-55.5 -168.5q0 -73 30 -127t83 -81q68 99 103.5 128
t77.5 29q46 0 74.5 -27t28.5 -70q0 -52 -46.5 -87t-140.5 -35q-41 0 -80 11q-8 -12 -17.5 -26.5t-22.5 -34.5t-21 -32l-38 21q12 19 32 48.5t26 38.5z" />
    <glyph glyph-name="uni0256" unicode="&#x256;" horiz-adv-x="568" 
d="M266 30q76 0 124 58t48 164v16q0 103 -47.5 162.5t-124.5 59.5q-80 0 -126 -60.5t-46 -169.5t46 -169.5t126 -60.5zM48 260q0 128 56 199t154 71q125 0 178 -110h2v330h47v-682q0 -66 25 -93.5t84 -27.5q38 0 72 14l11 -39q-42 -15 -86 -15q-79 0 -115.5 38.5
t-36.5 122.5v33h-2q-51 -111 -179 -111q-97 0 -153.5 71t-56.5 199z" />
    <glyph glyph-name="uni0257" unicode="&#x257;" horiz-adv-x="568" 
d="M438 420v178q0 83 37.5 122.5t115.5 39.5q44 0 86 -15l-11 -39q-34 14 -72 14q-59 0 -84 -28t-25 -94v-598h-45l-1 101h-2q-51 -111 -179 -111q-97 0 -153.5 71t-56.5 199t56 199t154 71q125 0 178 -110h2zM94 260q0 -109 46 -169.5t126 -60.5q76 0 124 58t48 164v16
q0 103 -47.5 162.5t-124.5 59.5q-80 0 -126 -60.5t-46 -169.5z" />
    <glyph glyph-name="uni0258" unicode="&#x258;" horiz-adv-x="544" 
d="M266 491q-81 0 -125.5 -53.5t-46.5 -154.5h360q-3 99 -52.5 153.5t-135.5 54.5zM454 243h-405q0 3 -0.5 11t-0.5 11q0 127 57 196t161 69q109 0 172 -72t63 -198q0 -125 -66.5 -197.5t-178.5 -72.5q-94 0 -175 44l15 37q74 -42 157 -42q91 0 145.5 57t55.5 157z" />
    <glyph glyph-name="uni0259" unicode="&#x259;" horiz-adv-x="544" 
d="M454 237h-360q2 -101 46.5 -154.5t125.5 -53.5q86 0 135.5 54.5t52.5 153.5zM454 277q-1 100 -55.5 157t-145.5 57q-83 0 -157 -42l-15 37q81 44 175 44q112 0 178.5 -72.5t66.5 -197.5q0 -126 -63 -198t-172 -72q-104 0 -161 69t-57 196q0 3 0.5 11t0.5 11h405z" />
    <glyph glyph-name="uni025A" unicode="&#x25a;" horiz-adv-x="747" 
d="M64 486q81 44 175 44q75 0 132 -35t86 -98l95 57h42v-134q0 -60 14.5 -81t48.5 -21q24 0 54 10l9 -38q-36 -12 -69 -12q-53 0 -76 32t-23 107v92l-81 -49q13 -43 13 -100q0 -126 -63 -198t-172 -72q-78 0 -131 40.5t-75 117.5l375 225q-47 118 -182 118q-82 0 -156 -42z
M429 335l-335 -202q41 -104 155 -104q89 0 138.5 59.5t49.5 171.5q0 38 -8 75z" />
    <glyph glyph-name="uni025B" unicode="&#x25b;" horiz-adv-x="514" 
d="M193 281v2q-68 14 -102 47t-34 73q0 58 59 92.5t163 34.5q90 0 182 -37l-13 -36q-80 34 -166 34q-85 0 -130.5 -25t-45.5 -68q0 -46 57.5 -71.5t165.5 -25.5h46v-40h-46q-233 0 -233 -117q0 -55 47 -84.5t137 -29.5q84 0 174 34l13 -38q-92 -36 -188 -36q-111 0 -171 40
t-60 110q0 47 34 86.5t111 54.5z" />
    <glyph glyph-name="uni025C" unicode="&#x25c;" horiz-adv-x="514" 
d="M322 281q77 -15 111 -54.5t34 -86.5q0 -70 -60 -110t-171 -40q-96 0 -188 36l13 38q90 -34 173 -34q90 0 137.5 29.5t47.5 84.5q0 117 -233 117h-47v40h47q108 0 165.5 25.5t57.5 71.5q0 43 -45.5 68t-130.5 25q-86 0 -166 -34l-13 36q92 37 182 37q104 0 163 -34.5
t59 -92.5q0 -40 -34 -73t-102 -47v-2z" />
    <glyph glyph-name="uni025D" unicode="&#x25d;" horiz-adv-x="770" 
d="M61 64q90 -34 173 -34q90 0 137.5 29.5t47.5 84.5q0 118 -233 118h-47v39h47q108 0 165.5 25.5t57.5 71.5q0 43 -45.5 68t-130.5 25q-86 0 -166 -34l-13 36q92 37 182 37q104 0 163 -34.5t59 -92.5q0 -10 -1 -15q38 23 107 66h42v-134q0 -60 14.5 -81t48.5 -21
q24 0 54 10l9 -38q-36 -12 -68 -12q-53 0 -76.5 32t-23.5 107v92q-121 -77 -163 -98.5t-79 -27.5v-2q77 -15 111 -54.5t34 -86.5q0 -70 -60 -110t-171 -40q-96 0 -188 36z" />
    <glyph glyph-name="uni025E" unicode="&#x25e;" horiz-adv-x="606" 
d="M90 260q0 -112 61 -171t175 -59q90 0 137 29.5t47 84.5q0 118 -233 118h-47v39h47q108 0 165.5 25.5t57.5 71.5q0 43 -45.5 68t-130.5 25q-113 0 -173.5 -59.5t-60.5 -171.5zM43 260q0 130 73.5 200t210.5 70q104 0 163 -34.5t59 -92.5q0 -40 -34 -73t-102 -47v-2
q77 -15 111 -54.5t34 -86.5q0 -70 -60 -110t-171 -40q-137 0 -210.5 70t-73.5 200z" />
    <glyph glyph-name="uni025F" unicode="&#x25f;" horiz-adv-x="542" 
d="M57 270v40h190v210h49v-210h189v-40h-189v-260q0 -135 -48 -182.5t-184 -47.5l-2 41q113 0 149 36t36 151v262h-190z" />
    <glyph glyph-name="uni0260" unicode="&#x260;" horiz-adv-x="685" 
d="M48 270q0 124 55 192t153 68q127 0 181 -108h2v38q0 153 152 153q44 0 86 -15l-11 -39q-34 14 -72 14q-59 0 -84 -27.5t-25 -93.5v-415q0 -267 -232 -267q-85 0 -158 33l12 39q71 -32 146 -32q94 0 139.5 54.5t45.5 170.5v83h-2q-52 -108 -180 -108q-94 0 -151 70
t-57 190zM94 270q0 -102 46.5 -161t124.5 -59q74 0 123.5 58t49.5 157v10q0 98 -49.5 156.5t-123.5 58.5q-80 0 -125.5 -58t-45.5 -162z" />
    <glyph glyph-name="uni0261" unicode="&#x261;" horiz-adv-x="562" 
d="M265 50q74 0 123.5 58t49.5 157v10q0 98 -49.5 156.5t-123.5 58.5q-80 0 -125.5 -58t-45.5 -162q0 -102 46.5 -161t124.5 -59zM48 270q0 124 55 192t153 68q128 0 181 -110h2l1 100h45v-483q0 -267 -232 -267q-85 0 -158 33l12 39q71 -32 146 -32q94 0 139.5 54.5
t45.5 170.5v83h-2q-52 -108 -180 -108q-94 0 -151 70t-57 190z" />
    <glyph glyph-name="uni0262" unicode="&#x262;" horiz-adv-x="633" 
d="M43 260q0 122 83 194.5t225 72.5q110 0 192 -44l-17 -35q-75 40 -172 40q-117 0 -189.5 -61t-72.5 -167q0 -104 71.5 -166t190.5 -62q90 0 164 28v203h-224v36h271v-268q-95 -38 -214 -38q-140 0 -224 72.5t-84 194.5z" />
    <glyph glyph-name="uni0263" unicode="&#x263;" horiz-adv-x="549" 
d="M275 -193q37 0 57.5 20t20.5 56q0 58 -78 194q-79 -138 -79 -194q0 -36 21 -56t58 -20zM275 -230q-56 0 -88 30t-32 83q0 70 94 231l-211 406h52l185 -365l185 365h51l-210 -406q94 -161 94 -231q0 -53 -32 -83t-88 -30z" />
    <glyph glyph-name="uni0264" unicode="&#x264;" horiz-adv-x="636" 
d="M513 489q-42 0 -78 -31t-90 -125q93 -160 93 -230q0 -53 -32 -83t-88 -30t-88 30t-32 83q0 70 93 230q-54 94 -90 125t-78 31q-32 0 -70 -14l-10 40q41 15 81 15q55 0 97 -35t97 -128q55 93 97 128t97 35q40 0 81 -15l-10 -40q-38 14 -70 14zM318 27q37 0 57.5 20
t20.5 56q0 58 -78 194q-78 -136 -78 -194q0 -36 20.5 -56t57.5 -20z" />
    <glyph glyph-name="uni0265" unicode="&#x265;" horiz-adv-x="562" 
d="M433 -230v339h-2q-29 -55 -76.5 -87t-104.5 -32q-91 0 -134 53t-43 170v307h46v-303q0 -102 32 -144t110 -42q66 0 119 63t53 149v277h47v-750h-47z" />
    <glyph glyph-name="uni0266" unicode="&#x266;" horiz-adv-x="557" 
d="M296 489q-66 0 -118.5 -63t-52.5 -149v-277h-47v598q0 83 37.5 122.5t115.5 39.5q44 0 86 -15l-11 -39q-34 14 -72 14q-59 0 -84 -28t-25 -94v-187h2q29 55 76.5 87t104.5 32q91 0 134 -53t43 -170v-307h-46v303q0 102 -32.5 144t-110.5 42z" />
    <glyph glyph-name="uni0267" unicode="&#x267;" horiz-adv-x="557" 
d="M296 489q-66 0 -118.5 -63t-52.5 -149v-277h-47v598q0 83 37.5 122.5t115.5 39.5q44 0 86 -15l-11 -39q-34 14 -72 14q-59 0 -84 -28t-25 -94v-187h2q29 55 76.5 87t104.5 32q91 0 134 -53t43 -170v-375q0 -85 -36.5 -123.5t-115.5 -38.5q-45 0 -87 15l12 39
q34 -14 71 -14q59 0 84.5 28t25.5 94v371q0 102 -32.5 144t-110.5 42z" />
    <glyph glyph-name="uni0268" unicode="&#x268;" horiz-adv-x="542" 
d="M58 270v40h189v210h49v-210h189v-40h-189v-270h-49v270h-189zM247 640v110h49v-110h-49z" />
    <glyph glyph-name="uni0269" unicode="&#x269;" horiz-adv-x="424" 
d="M350 -10q-136 0 -184 47.5t-48 182.5v300h49v-302q0 -116 35.5 -151.5t148.5 -35.5z" />
    <glyph glyph-name="uni026A" unicode="&#x26a;" horiz-adv-x="441" 
d="M373 0h-305v40h127v440h-127v40h305v-40h-127v-440h127v-40z" />
    <glyph glyph-name="uni026B" unicode="&#x26b;" horiz-adv-x="516" 
d="M282 373q60 -32 88 -32q48 0 48 76h40q0 -115 -84 -115q-38 0 -92 27v-329h-48v355q-62 33 -88 33q-48 0 -48 -86h-40q0 125 84 125q36 0 92 -28v351h48v-377z" />
    <glyph glyph-name="uni026C" unicode="&#x26c;" horiz-adv-x="560" 
d="M313 328h189v-40h-189v-288h-49v288h-67q-159 0 -159 112q0 44 28 70.5t74 26.5q33 0 59 -15.5t65 -63.5v332h49v-422zM264 349q-48 68 -71.5 86.5t-49.5 18.5q-29 0 -44.5 -14.5t-15.5 -39.5q0 -72 111 -72h70v21z" />
    <glyph glyph-name="uni026D" unicode="&#x26d;" horiz-adv-x="295" 
d="M172 -68q0 -66 25 -94t84 -28q38 0 72 14l11 -39q-42 -15 -86 -15q-80 0 -117.5 38.5t-37.5 123.5v818h49v-818z" />
    <glyph glyph-name="uni026E" unicode="&#x26e;" horiz-adv-x="657" 
d="M510 478v2h-373v-480h-49v750h49v-230h432v-40l-251 -276v-2h44q107 0 162 -50.5t55 -148.5q0 -115 -61.5 -174t-175.5 -59q-98 0 -173 53l16 38q72 -50 157 -50q93 0 141.5 48.5t48.5 143.5q0 81 -48.5 120.5t-149.5 39.5h-72v42z" />
    <glyph glyph-name="uni026F" unicode="&#x26f;" horiz-adv-x="791" 
d="M668 0l-1 101h-2q-24 -53 -61 -82t-81 -29q-108 0 -141 109h-2q-22 -51 -62.5 -80t-91.5 -29q-78 0 -115.5 48t-37.5 152v330h46v-320q0 -93 27 -131.5t89 -38.5q55 0 95 51.5t40 128.5v310h46v-320q0 -93 26.5 -131.5t88.5 -38.5q50 0 92.5 60.5t42.5 146.5v283h47v-520
h-45z" />
    <glyph glyph-name="uni0270" unicode="&#x270;" horiz-adv-x="791" 
d="M666 -220v321h-2q-21 -53 -58.5 -82t-82.5 -29q-108 0 -141 109h-2q-22 -51 -62.5 -80t-91.5 -29q-78 0 -115.5 48t-37.5 152v330h46v-320q0 -93 27 -131.5t89 -38.5q55 0 95 51.5t40 128.5v310h46v-320q0 -93 26.5 -131.5t88.5 -38.5q50 0 92.5 60.5t42.5 146.5v283h47
v-740h-47z" />
    <glyph glyph-name="uni0271" unicode="&#x271;" horiz-adv-x="791" 
d="M718 -68q0 -85 -36.5 -123.5t-115.5 -38.5q-45 0 -87 15l12 39q34 -14 72 -14q59 0 84 28t25 94v388q0 93 -27 131.5t-89 38.5q-55 0 -95 -51.5t-40 -128.5v-310h-46v320q0 93 -26.5 131.5t-88.5 38.5q-50 0 -92.5 -60.5t-42.5 -146.5v-283h-47v520h45l1 -101h2
q24 53 61 82t81 29q108 0 141 -109h2q22 51 62.5 80t91.5 29q78 0 115.5 -48t37.5 -152v-398z" />
    <glyph glyph-name="uni0272" unicode="&#x272;" horiz-adv-x="558" 
d="M79 520h45v-110h2q27 55 76 87.5t107 32.5q91 0 133.5 -53t42.5 -170v-307h-46v303q0 102 -32 144t-110 42q-66 0 -119 -63t-53 -149v-345q0 -85 -36.5 -123.5t-115.5 -38.5q-45 0 -87 15l12 39q34 -14 71 -14q59 0 84.5 28t25.5 94v588z" />
    <glyph glyph-name="uni0273" unicode="&#x273;" horiz-adv-x="558" 
d="M485 -68q0 -66 25 -94t84 -28q38 0 72 14l11 -39q-42 -15 -86 -15q-79 0 -115.5 38.5t-36.5 123.5v371q0 102 -32.5 144t-110.5 42q-66 0 -118.5 -63t-52.5 -149v-277h-47v520h45l1 -110h2q27 55 75.5 87.5t106.5 32.5q91 0 134 -53t43 -170v-375z" />
    <glyph glyph-name="uni0274" unicode="&#x274;" horiz-adv-x="598" 
d="M472 520h48v-520h-55l-337 457h-2v-457h-48v520h56l337 -457h1v457z" />
    <glyph glyph-name="uni0275" unicode="&#x275;" horiz-adv-x="566" 
d="M43 260q0 124 65 197t175 73t175 -73t65 -197t-65 -197t-175 -73t-175 73t-65 197zM91 240q5 -98 56 -154t136 -56t136 56t56 154h-384zM91 280h384q-5 98 -56 154t-136 56t-136 -56t-56 -154z" />
    <glyph glyph-name="uni0276" unicode="&#x276;" horiz-adv-x="864" 
d="M770 264h-282v-224h298v-40h-344v95q-56 -105 -172 -105q-103 0 -165 73t-62 197t62 197t165 73q116 0 172 -105v95h344v-40h-298v-180h282v-36zM270 30q78 0 125 62t47 168q0 107 -47 168.5t-125 61.5q-83 0 -131.5 -61t-48.5 -169t48.5 -169t131.5 -61z" />
    <glyph glyph-name="uni0277" unicode="&#x277;" horiz-adv-x="769" 
d="M386 154h-2q-17 -87 -59.5 -125.5t-98.5 -38.5q-75 0 -129 67t-54 191t95 203t247 79t246.5 -79t94.5 -203t-53.5 -191t-128.5 -67q-56 0 -98.5 38.5t-59.5 125.5zM385 490q-132 0 -213.5 -67.5t-81.5 -174.5q0 -105 42 -161.5t98 -56.5q63 0 97 67.5t34 200.5v65h47v-65
q0 -133 34 -200.5t97 -67.5q56 0 98 56.5t42 161.5q0 108 -81 175t-213 67z" />
    <glyph glyph-name="uni0278" unicode="&#x278;" horiz-adv-x="667" 
d="M357 529q125 -7 196.5 -78.5t71.5 -190.5t-71.5 -190.5t-196.5 -78.5v-211h-47v211q-125 7 -196 78.5t-71 190.5t71 190.5t196 78.5v201h47v-201zM357 31q105 6 162.5 65.5t57.5 163.5t-57.5 163.5t-162.5 65.5v-458zM310 489q-105 -6 -162.5 -65.5t-57.5 -163.5
t57.5 -163.5t162.5 -65.5v458z" />
    <glyph glyph-name="uni0279" unicode="&#x279;" horiz-adv-x="442" 
d="M319 0l-1 123h-2q-40 -64 -106.5 -98.5t-151.5 -34.5v41q112 0 185.5 63t73.5 159v267h48v-520h-46z" />
    <glyph glyph-name="uni027A" unicode="&#x27a;" horiz-adv-x="447" 
d="M319 0l-1 123h-2q-40 -64 -106.5 -98.5t-151.5 -34.5v41q112 0 185.5 63t73.5 159v477h48v-730h-46z" />
    <glyph glyph-name="uni027B" unicode="&#x27b;" horiz-adv-x="565" 
d="M318 68v55h-2q-40 -64 -107.5 -98.5t-150.5 -34.5v41q112 0 185.5 63t73.5 159v267h48v-452q0 -66 25 -93.5t84 -27.5q38 0 72 14l11 -39q-42 -15 -86 -15q-79 0 -116 38.5t-37 122.5z" />
    <glyph glyph-name="uni027C" unicode="&#x27c;" horiz-adv-x="442" 
d="M124 520v-123h2q40 63 107 98t152 35v-41q-112 0 -186 -63.5t-74 -158.5v-487h-47v740h46z" />
    <glyph glyph-name="uni027D" unicode="&#x27d;" horiz-adv-x="442" 
d="M78 -68v588h46v-123h2q40 63 107 98t152 35v-41q-112 0 -186 -63.5t-74 -158.5v-335q0 -66 25.5 -94t84.5 -28q37 0 71 14l12 -39q-42 -15 -87 -15q-79 0 -116 39t-37 123z" />
    <glyph glyph-name="uni027E" unicode="&#x27e;" horiz-adv-x="370" 
d="M230 488q-59 0 -84.5 -27.5t-25.5 -93.5v-367h-47v368q0 83 37.5 122.5t115.5 39.5q45 0 87 -15l-12 -41q-34 14 -71 14z" />
    <glyph glyph-name="uni027F" unicode="&#x27f;" horiz-adv-x="371" 
d="M251 0v367q0 66 -25.5 93.5t-84.5 27.5q-37 0 -71 -14l-12 41q42 15 87 15q78 0 115.5 -39.5t37.5 -122.5v-368h-47z" />
    <glyph glyph-name="uni0280" unicode="&#x280;" horiz-adv-x="517" 
d="M315 251q22 -8 40 -30t44 -73l75 -148h-49l-72 142q-33 64 -56.5 79.5t-86.5 15.5h-84v-237h-48v516q72 11 148 11q231 0 231 -142q0 -58 -40.5 -90t-101.5 -43v-1zM126 275h85q200 0 200 106q0 13 -1.5 23t-12 27t-28.5 28t-55 20t-89 9q-51 0 -99 -6v-207z" />
    <glyph glyph-name="uni0281" unicode="&#x281;" horiz-adv-x="517" 
d="M315 268q61 -11 101.5 -43t40.5 -90q0 -142 -231 -142q-76 0 -148 11v516h48v-237h84q63 0 86.5 15.5t56.5 79.5l72 142h49l-75 -148q-26 -51 -44 -73t-40 -30v-1zM126 245v-207q48 -6 99 -6q52 0 89 9t55 20t28.5 28t12 27t1.5 23q0 106 -200 106h-85z" />
    <glyph glyph-name="uni0282" unicode="&#x282;" horiz-adv-x="494" 
d="M246 -10q-71 0 -137 33v-91q0 -66 25 -94t84 -28q38 0 72 14l12 -39q-42 -15 -87 -15q-79 0 -115.5 38.5t-36.5 123.5v146h45q51 -48 138 -48q67 0 105 27.5t38 75.5q0 46 -33.5 72.5t-112.5 41.5q-96 17 -138 52t-42 96t49 98t134 37q91 0 174 -40l-13 -39
q-78 39 -161 39q-64 0 -100 -25.5t-36 -69.5q0 -40 29.5 -65t109.5 -40q99 -18 143 -55.5t44 -101.5q0 -66 -50.5 -104.5t-139.5 -38.5z" />
    <glyph glyph-name="uni0283" unicode="&#x283;" horiz-adv-x="294" 
d="M14 -190q59 0 84.5 28t25.5 94v646q0 83 37.5 122.5t115.5 39.5q45 0 87 -15l-12 -39q-34 14 -72 14q-59 0 -84 -28t-25 -94v-646q0 -84 -37 -123t-116 -39q-45 0 -87 15l12 39q34 -14 71 -14z" />
    <glyph glyph-name="uni0284" unicode="&#x284;" horiz-adv-x="560" 
d="M58 270v40h190v268q0 83 37.5 122.5t115.5 39.5q45 0 87 -15l-12 -39q-34 14 -72 14q-59 0 -84 -28t-25 -94v-268h190v-40h-190v-260q0 -135 -47 -182.5t-183 -47.5l-2 41q113 0 149 36t36 151v262h-190z" />
    <glyph glyph-name="uni0285" unicode="&#x285;" horiz-adv-x="548" 
d="M251 368q0 66 -25.5 94t-84.5 28q-37 0 -71 -14l-12 39q42 15 87 15q78 0 115.5 -39.5t37.5 -122.5v-216q0 -66 25 -94t84 -28q38 0 72 14l12 -39q-42 -15 -87 -15q-79 0 -116 39t-37 123v216z" />
    <glyph glyph-name="uni0286" unicode="&#x286;" horiz-adv-x="486" 
d="M130 -230q-57 0 -89.5 27.5t-32.5 74.5q0 55 40 84t116 29h64v593q0 162 154 162q44 0 86 -15l-11 -39q-34 14 -72 14q-59 0 -84 -28t-25 -94v-593h176v-40h-176v-13q0 -84 -36 -123t-110 -39zM228 -55h-64q-111 0 -111 -73q0 -27 20 -43.5t55 -16.5q53 0 76.5 28
t23.5 92v13z" />
    <glyph glyph-name="uni0287" unicode="&#x287;" horiz-adv-x="504" 
d="M451 20h-120v-190h-47v190h-206v40h206v307q0 75 -22 99t-81 24q-47 0 -85 -15l-10 38q48 17 100 17q81 0 113 -34.5t32 -122.5v-313h120v-40z" />
    <glyph glyph-name="uni0288" unicode="&#x288;" horiz-adv-x="504" 
d="M220 690v-190h206v-40h-206v-527q0 -75 22 -99t81 -24q47 0 85 15l10 -38q-48 -17 -100 -17q-81 0 -113 34.5t-32 122.5v533h-120v40h120v190h47z" />
    <glyph glyph-name="uni0289" unicode="&#x289;" horiz-adv-x="667" 
d="M53 270v40h83v210h46v-210h304v210h46v-210h83v-40h-83v-270h-45v110h-3q-27 -55 -75.5 -87.5t-106.5 -32.5q-87 0 -126.5 47t-39.5 153v80h-83zM182 270v-77q0 -89 30 -125.5t102 -36.5q64 0 118 62.5t54 149.5v27h-304z" />
    <glyph glyph-name="uni028A" unicode="&#x28a;" horiz-adv-x="612" 
d="M306 -10q-109 0 -174.5 67.5t-65.5 179.5q0 147 123 242v2h-136v39h207v-39q-146 -88 -146 -238q0 -98 52 -155.5t140 -57.5t140.5 57.5t52.5 155.5q0 150 -146 238v39h207v-39h-136v-2q122 -95 122 -242q0 -112 -65.5 -179.5t-174.5 -67.5z" />
    <glyph glyph-name="uni028B" unicode="&#x28b;" horiz-adv-x="559" 
d="M395 527l45 12q61 -138 61 -266q0 -153 -61 -218t-159 -65q-108 0 -158 49t-50 154v327h46v-323q0 -87 38.5 -126.5t123.5 -39.5q174 0 174 247q0 114 -60 249z" />
    <glyph glyph-name="uni028C" unicode="&#x28c;" horiz-adv-x="549" 
d="M460 0l-185 489h-2l-185 -489h-50l203 520h67l203 -520h-51z" />
    <glyph glyph-name="uni028D" unicode="&#x28d;" horiz-adv-x="806" 
d="M402 46h2l132 474h65l157 -520h-51l-137 477h-2l-132 -477h-67l-132 477h-2l-137 -477h-50l157 520h65z" />
    <glyph glyph-name="uni028E" unicode="&#x28e;" horiz-adv-x="549" 
d="M283 457h-2l-193 -457h-50l320 740h50l-100 -227l203 -513h-51z" />
    <glyph glyph-name="uni028F" unicode="&#x28f;" horiz-adv-x="561" 
d="M282 264l192 256h55l-223 -296v-224h-50v224l-223 296h55l192 -256h2z" />
    <glyph glyph-name="uni0290" unicode="&#x290;" horiz-adv-x="539" 
d="M642 -176l12 -39q-42 -15 -87 -15q-79 0 -115.5 38.5t-36.5 123.5v68h-337v40l324 438v2h-324v40h383v-40l-324 -438v-2h324v-108q0 -66 25.5 -94t84.5 -28q37 0 71 14z" />
    <glyph glyph-name="uni0291" unicode="&#x291;" horiz-adv-x="620" 
d="M426 40q111 0 111 70q0 26 -16.5 41t-44.5 15q-27 0 -51.5 -22t-81.5 -104h83zM264 0h-186v40l324 438v2h-324v40h383v-40l-324 -438v-2h154q73 107 109.5 137.5t79.5 30.5q46 0 74 -26.5t28 -69.5q0 -112 -159 -112h-107q-11 -15 -61 -92l-38 21q7 11 23 35z" />
    <glyph glyph-name="uni0292" unicode="&#x292;" horiz-adv-x="566" 
d="M81 480v40h397v-40l-251 -276v-2h44q107 0 162 -50.5t55 -148.5q0 -115 -61.5 -174t-175.5 -59q-98 0 -173 53l16 38q72 -50 157 -50q93 0 141.5 48.5t48.5 143.5q0 81 -48.5 120.5t-149.5 39.5h-72v42l248 273v2h-338z" />
    <glyph glyph-name="uni0293" unicode="&#x293;" horiz-adv-x="581" 
d="M263 -230q-92 0 -140.5 35.5t-48.5 100.5q0 46 28 73.5t75 27.5q43 0 81 -32t113 -142q86 44 86 170q0 160 -199 160h-71v42l247 273v2h-337v40h396v-40l-251 -276v-2h45q107 0 161.5 -50.5t54.5 -148.5q0 -153 -108 -206q25 -38 45 -70l-38 -21q-4 6 -21.5 34t-26.5 41
q-42 -11 -91 -11zM329 -182q-65 96 -92 121t-55 25q-30 0 -46.5 -15t-16.5 -41q0 -46 36.5 -71.5t107.5 -25.5q38 0 66 7z" />
    <glyph glyph-name="uni0294" unicode="&#x294;" horiz-adv-x="559" 
d="M283 343v-343h-48v379q107 0 162.5 43t55.5 123q0 72 -51.5 112t-144.5 40q-97 0 -193 -58l-16 40q102 61 214 61q111 0 175.5 -52t64.5 -142q0 -89 -57 -142t-162 -61z" />
    <glyph glyph-name="uni0295" unicode="&#x295;" horiz-adv-x="559" 
d="M58 546q0 90 64.5 142t175.5 52q112 0 214 -61l-16 -40q-96 58 -193 58q-93 0 -145 -40t-52 -112q0 -80 56 -123t163 -43v-379h-49v343q-105 8 -161.5 61t-56.5 142z" />
    <glyph glyph-name="uni0296" unicode="&#x296;" horiz-adv-x="559" 
d="M283 387q105 -8 162 -61t57 -142q0 -90 -64.5 -142t-175.5 -52q-112 0 -214 61l16 40q96 -58 193 -58q93 0 144.5 40t51.5 112q0 80 -55.5 123t-162.5 43v379h48v-343z" />
    <glyph glyph-name="uni0297" unicode="&#x297;" horiz-adv-x="519" 
d="M315 699q-37 0 -65 -8.5t-56.5 -36.5t-46.5 -75.5t-29.5 -129.5t-11.5 -194q0 -113 11.5 -195t29.5 -129.5t46.5 -75.5t56.5 -36.5t65 -8.5q69 0 132 33l14 -38q-70 -35 -148 -35q-135 0 -195 112.5t-60 372.5t60 372.5t195 112.5q78 0 148 -35l-14 -39q-63 33 -132 33z
" />
    <glyph glyph-name="uni0298" unicode="&#x298;" horiz-adv-x="792" 
d="M366 310v127h60v-127h-60zM43 365q0 169 97 272t256 103t256.5 -103t97.5 -272t-97.5 -272t-256.5 -103t-256 103t-97 272zM396 33q136 0 219.5 91t83.5 241t-83.5 241t-219.5 91t-219 -91t-83 -241t83 -241t219 -91z" />
    <glyph glyph-name="uni0299" unicode="&#x299;" horiz-adv-x="509" 
d="M126 300h84q83 0 129 26.5t46 73.5q0 91 -168 91q-45 0 -91 -8v-183zM126 264v-227q50 -8 98 -8q191 0 191 123q0 112 -205 112h-84zM462 150q0 -68 -54 -112.5t-186 -44.5q-78 0 -144 12v510q63 12 136 12q119 0 168 -35t49 -88q0 -92 -116 -119v-1q147 -24 147 -134z
" />
    <glyph glyph-name="uni029A" unicode="&#x29a;" horiz-adv-x="606" 
d="M563 260q0 -130 -73.5 -200t-210.5 -70q-111 0 -171 40t-60 110q0 47 34 86.5t111 54.5v2q-68 14 -102 47t-34 73q0 58 59 92.5t163 34.5q137 0 210.5 -70t73.5 -200zM516 260q0 112 -60.5 171.5t-173.5 59.5q-85 0 -130.5 -25t-45.5 -68q0 -46 57.5 -71.5t165.5 -25.5
h47v-39h-47q-233 0 -233 -118q0 -55 47 -84.5t137 -29.5q114 0 175 59t61 171z" />
    <glyph glyph-name="uni029B" unicode="&#x29b;" horiz-adv-x="625" 
d="M92 260q0 -104 71.5 -166t190.5 -62q90 0 164 28v203h-224v36h271v-268q-95 -38 -214 -38q-140 0 -224 72.5t-84 194.5t83 194.5t225 72.5q68 0 129 -25v79q0 85 36.5 123.5t115.5 38.5q45 0 87 -15l-11 -39q-34 14 -72 14q-59 0 -84.5 -28t-25.5 -94v-125h-45
q-55 32 -134 32q-116 0 -185.5 -62t-69.5 -166z" />
    <glyph glyph-name="uni029C" unicode="&#x29c;" horiz-adv-x="591" 
d="M465 0v263h-338v-263h-49v520h49v-219h338v219h48v-520h-48z" />
    <glyph glyph-name="uni029D" unicode="&#x29d;" horiz-adv-x="460" 
d="M228 640v110h49v-110h-49zM277 -15h175v-40h-175v-13q0 -84 -36.5 -123t-110.5 -39q-57 0 -89.5 27.5t-32.5 74.5q0 55 40 84t116 29h64v535h49v-535zM228 -55h-64q-111 0 -111 -73q0 -27 20 -43.5t55 -16.5q53 0 76.5 28t23.5 92v13z" />
    <glyph glyph-name="uni029E" unicode="&#x29e;" horiz-adv-x="539" 
d="M413 269h2v251h46v-750h-46v457h-2l-295 -227h-65l323 248l-328 272h64z" />
    <glyph glyph-name="uni029F" unicode="&#x29f;" horiz-adv-x="495" 
d="M128 40h314v-40h-364v520h50v-480z" />
    <glyph glyph-name="uni02A0" unicode="&#x2a0;" horiz-adv-x="563" 
d="M48 260q0 128 56 199t154 71q126 0 179 -110h2v40q0 153 152 153q44 0 86 -15l-11 -39q-34 14 -72 14q-59 0 -84 -27.5t-25 -93.5v-672h-47v318h-2q-51 -108 -178 -108q-96 0 -153 71.5t-57 198.5zM94 260q0 -109 46 -169.5t126 -60.5q76 0 124 58.5t48 163.5v16
q0 103 -47 162.5t-125 59.5q-80 0 -126 -60.5t-46 -169.5z" />
    <glyph glyph-name="uni02A1" unicode="&#x2a1;" horiz-adv-x="571" 
d="M53 213v40h189v126q107 0 162.5 43t55.5 123q0 72 -51.5 112t-144.5 40q-97 0 -193 -58l-16 40q102 61 214 61q111 0 175.5 -52t64.5 -142q0 -89 -56.5 -142t-161.5 -61v-90h189v-40h-189v-213h-49v213h-189z" />
    <glyph glyph-name="uni02A2" unicode="&#x2a2;" horiz-adv-x="571" 
d="M92 213v40h189v90q-105 8 -161.5 61t-56.5 142q0 90 64.5 142t175.5 52q112 0 214 -61l-16 -40q-96 58 -193 58q-93 0 -145 -40t-52 -112q0 -80 56 -123t163 -43v-126h189v-40h-189v-213h-49v213h-189z" />
    <glyph glyph-name="uni02A3" unicode="&#x2a3;" horiz-adv-x="935" 
d="M799 478v2h-314v-426zM475 0h-35l-1 101h-2q-51 -111 -179 -111q-97 0 -153.5 71t-56.5 199t56 199t154 71q125 0 178 -110h2v330h47v-230h373v-40l-324 -438v-2h324v-40h-373h-10zM94 260q0 -109 46 -169.5t126 -60.5q76 0 124 58t48 164v16q0 103 -47.5 162.5
t-124.5 59.5q-80 0 -126 -60.5t-46 -169.5z" />
    <glyph glyph-name="uni02A4" unicode="&#x2a4;" horiz-adv-x="961" 
d="M485 520h388v-40l-251 -276v-2h44q107 0 162 -50.5t55 -148.5q0 -115 -61.5 -174t-175.5 -59q-98 0 -173 53l16 38q72 -50 157 -50q93 0 141.5 48.5t48.5 143.5q0 81 -48.5 120.5t-149.5 39.5h-72v42l248 273v2h-329v-480h-45l-1 101h-2q-51 -111 -179 -111
q-97 0 -153.5 71t-56.5 199t56 199t154 71q125 0 178 -110h2v330h47v-230zM94 260q0 -109 46 -169.5t126 -60.5q76 0 124 58t48 164v16q0 103 -47.5 162.5t-124.5 59.5q-80 0 -126 -60.5t-46 -169.5z" />
    <glyph glyph-name="uni02A5" unicode="&#x2a5;" horiz-adv-x="1013" 
d="M485 63l307 415v2h-307v-417zM657 0h-172h-17h-28l-1 101h-2q-51 -111 -179 -111q-97 0 -153.5 71t-56.5 199t56 199t154 71q125 0 178 -110h2v330h47v-230h366v-40l-324 -438v-2h157q73 106 110 137t80 31q46 0 73.5 -26.5t27.5 -69.5q0 -112 -159 -112h-107
q-10 -15 -31.5 -48t-28.5 -44l-38 21q31 47 46 71zM736 40h84q111 0 111 70q0 26 -17 41t-45 15q-27 0 -51.5 -22t-81.5 -104zM94 260q0 -109 46 -169.5t126 -60.5q76 0 124 58t48 164v16q0 103 -47.5 162.5t-124.5 59.5q-80 0 -126 -60.5t-46 -169.5z" />
    <glyph glyph-name="uni02A6" unicode="&#x2a6;" horiz-adv-x="847" 
d="M773 490l-12 -39q-78 39 -161 39q-64 0 -100.5 -25.5t-36.5 -69.5q0 -40 29.5 -65t110.5 -40q99 -18 143 -55.5t44 -101.5q0 -66 -50.5 -104.5t-139.5 -38.5q-85 0 -156 35q-62 -35 -126 -35q-81 0 -113 34.5t-32 122.5v313h-120v40h120v190h47v-190h193v-40h-193v-307
q0 -75 22 -99t81 -24q52 0 100 28l7 20q79 -48 170 -48q67 0 104.5 27.5t37.5 75.5q0 46 -33 72.5t-112 41.5q-96 17 -138.5 52.5t-42.5 95.5q0 61 49.5 98t134.5 37q90 0 173 -40z" />
    <glyph glyph-name="uni02A7" unicode="&#x2a7;" horiz-adv-x="690" 
d="M480 578v-646q0 -84 -37 -123t-116 -39q-45 0 -87 15l12 39q34 -14 72 -14q59 0 84 28t25 94v87q-56 -29 -115 -29q-81 0 -113 34.5t-32 122.5v313h-120v40h120v190h47v-190h213v78q0 83 37.5 122.5t115.5 39.5q45 0 87 -15l-12 -39q-34 14 -71 14q-59 0 -84.5 -28
t-25.5 -94zM433 460h-213v-307q0 -75 22 -99t81 -24t110 34v396z" />
    <glyph glyph-name="uni02A8" unicode="&#x2a8;" horiz-adv-x="827" 
d="M601 30q67 0 105 22t38 59q0 25 -17 40.5t-44 15.5t-52.5 -23t-83.5 -108q25 -6 54 -6zM481 16q-21 11 -48 32v-27q-55 -31 -115 -31q-81 0 -113 34.5t-32 122.5v313h-120v40h120v190h47v-190h180v-40h-180v-307q0 -75 22 -99t81 -24q51 0 99 27q-77 74 -77 203
q0 126 68 198t187 72q78 0 148 -35l-15 -39q-63 33 -132 33q-98 0 -153 -60.5t-55 -168.5q0 -73 29.5 -127t82.5 -81q68 99 103.5 128t77.5 29q46 0 75 -27t29 -70q0 -52 -46.5 -87t-140.5 -35q-42 0 -81 11q-8 -12 -17.5 -26.5t-22.5 -34t-21 -32.5l-37 21q13 20 34.5 52.5
t22.5 34.5z" />
    <glyph glyph-name="uni02A9" unicode="&#x2a9;" horiz-adv-x="872" 
d="M754 303q0 102 -32.5 144t-110.5 42q-66 0 -118.5 -63t-52.5 -149v-277h-47v480h-144v-480h-48v480h-143v40h143v58q0 162 154 162q44 0 86 -15l-11 -39q-34 14 -72 14q-59 0 -84 -28t-25 -94v-58h144h25h20l1 -110h2q27 55 75.5 87.5t106.5 32.5q91 0 134 -53t43 -170
v-375q0 -85 -36.5 -123.5t-115.5 -38.5q-45 0 -87 15l12 39q34 -14 71 -14q59 0 84.5 28t25.5 94v371z" />
    <glyph glyph-name="uni02AA" unicode="&#x2aa;" horiz-adv-x="558" 
d="M88 0v750h49v-307q17 41 62 64t112 23q90 0 173 -40l-12 -39q-78 39 -161 39q-64 0 -100.5 -25.5t-36.5 -69.5q0 -40 29.5 -65t110.5 -40q99 -18 143 -55.5t44 -101.5q0 -66 -50.5 -104.5t-139.5 -38.5q-94 0 -174 45v-35h-49zM137 81q82 -51 174 -51q67 0 104.5 27.5
t37.5 75.5q0 46 -33 72.5t-112 41.5q-142 26 -171 96v-262z" />
    <glyph glyph-name="uni02AB" unicode="&#x2ab;" horiz-adv-x="587" 
d="M451 478v2h-314v-426zM88 0v750h49v-230h373v-40l-324 -438v-2h324v-40h-373h-10h-39z" />
    <glyph glyph-name="uni02AC" unicode="&#x2ac;" horiz-adv-x="659" 
d="M330 343h-1l-95 -343h-59l-117 390h49l97 -345h1l96 345h59l95 -345h2l97 345h47l-117 -390h-58zM330 703h-1l-95 -343h-59l-117 390h49l97 -345h1l96 345h59l95 -345h2l97 345h47l-117 -390h-58z" />
    <glyph glyph-name="uni02AD" unicode="&#x2ad;" horiz-adv-x="572" 
d="M446 289h-320v-134h-43v180h407v-180h-44v134zM446 649h-320v-134h-43v180h407v-180h-44v134z" />
    <glyph glyph-name="uni02AE" unicode="&#x2ae;" horiz-adv-x="563" 
d="M262 31q66 0 119 63t53 149v277h46v-750h-46v339h-2q-29 -55 -77 -87t-105 -32q-91 0 -133.5 53t-42.5 170v375q0 66 -25.5 94t-84.5 28q-37 0 -71 -14l-12 39q42 15 87 15q79 0 115.5 -38.5t36.5 -123.5v-371q0 -102 32 -144t110 -42z" />
    <glyph glyph-name="uni02AF" unicode="&#x2af;" horiz-adv-x="559" 
d="M434 520h46v-598q0 -66 25.5 -94t84.5 -28q37 0 71 14l12 -39q-42 -15 -87 -15q-78 0 -115 39.5t-37 122.5v187h-2q-29 -55 -77 -87t-105 -32q-91 0 -133.5 53t-42.5 170v375q0 66 -25.5 94t-84.5 28q-37 0 -71 -14l-12 39q42 15 87 15q79 0 115.5 -38.5t36.5 -123.5
v-371q0 -102 32 -144t110 -42q66 0 119 63t53 149v277z" />
    <glyph glyph-name="uni02B0" unicode="&#x2b0;" horiz-adv-x="396" 
d="M328 474v-182h-39v180q0 58 -17.5 81t-59.5 23q-38 0 -66 -33.5t-28 -79.5v-171h-40v450h40v-185h1q36 53 101 53q57 0 82.5 -32t25.5 -104z" />
    <glyph glyph-name="uni02B1" unicode="&#x2b1;" horiz-adv-x="396" 
d="M328 292h-39v180q0 58 -17.5 81t-59.5 23q-38 0 -66 -33.5t-28 -79.5v-171h-40v357q0 99 93 99q29 0 55 -9l-9 -32q-21 8 -41 8q-32 0 -45 -15t-13 -51v-92h1q36 53 101 53q57 0 82.5 -32t25.5 -104v-182z" />
    <glyph glyph-name="uni02B2" unicode="&#x2b2;" horiz-adv-x="292" 
d="M199 604v-306q0 -81 -30 -109.5t-115 -28.5l-1 34q66 0 85.5 19t19.5 83v308h41zM158 672v70h41v-70h-41z" />
    <glyph glyph-name="uni02B3" unicode="&#x2b3;" horiz-adv-x="316" 
d="M263 575q-64 0 -107 -35.5t-43 -87.5v-160h-40v312h38v-60h2q50 66 150 66v-35z" />
    <glyph glyph-name="uni02B4" unicode="&#x2b4;" horiz-adv-x="316" 
d="M203 604h40v-312h-38v60h-1q-50 -66 -151 -66v35q64 0 107 35t43 87v161z" />
    <glyph glyph-name="uni02B5" unicode="&#x2b5;" horiz-adv-x="413" 
d="M204 351h-1q-50 -65 -150 -65v35q64 0 107 35.5t43 87.5v160h40v-263q0 -39 15 -55.5t50 -16.5q23 0 44 8l9 -32q-30 -10 -57 -10q-100 0 -100 100v16z" />
    <glyph glyph-name="uni02B6" unicode="&#x2b6;" horiz-adv-x="379" 
d="M195 318q93 0 93 57q0 60 -100 60h-65v-113q46 -4 72 -4zM123 466h60q31 0 44 9.5t31 47.5l36 81h43l-43 -89q-23 -49 -43 -60v-1q76 -17 76 -82q0 -86 -132 -86q-59 0 -112 6v312h40v-138z" />
    <glyph glyph-name="uni02B7" unicode="&#x2b7;" horiz-adv-x="518" 
d="M476 604l-91 -312h-49l-76 272h-1l-77 -272h-49l-90 312h40l75 -274h1l77 274h47l77 -274h1l75 274h40z" />
    <glyph glyph-name="uni02B8" unicode="&#x2b8;" horiz-adv-x="356" 
d="M173 343l109 261h42l-190 -444h-43l62 141l-120 303h43l96 -261h1z" />
    <glyph glyph-name="uni02B9" unicode="&#x2b9;" horiz-adv-x="258" 
d="M150 810h61l-90 -233h-48z" />
    <glyph glyph-name="uni02BA" unicode="&#x2ba;" horiz-adv-x="417" 
d="M285 577h-45l77 233h58zM112 577h-44l77 233h57z" />
    <glyph glyph-name="uni02BB" unicode="&#x2bb;" horiz-adv-x="258" 
d="M109 537h-61l90 233h48z" />
    <glyph glyph-name="afii57929" unicode="&#x2bc;" horiz-adv-x="258" 
d="M150 770h61l-90 -233h-48z" />
    <glyph glyph-name="afii64937" unicode="&#x2bd;" horiz-adv-x="258" 
d="M109 770l77 -233h-48l-90 233h61z" />
    <glyph glyph-name="uni02BE" unicode="&#x2be;" horiz-adv-x="217" 
d="M175 675q0 -48 -34.5 -82.5t-82.5 -34.5v37q33 0 56.5 23.5t23.5 56.5t-23.5 56.5t-56.5 23.5v37q48 0 82.5 -34.5t34.5 -82.5z" />
    <glyph glyph-name="uni02BF" unicode="&#x2bf;" horiz-adv-x="217" 
d="M43 675q0 48 34.5 82.5t82.5 34.5v-37q-33 0 -56.5 -23.5t-23.5 -56.5t23.5 -56.5t56.5 -23.5v-37q-48 0 -82.5 34.5t-34.5 82.5z" />
    <glyph glyph-name="uni02C0" unicode="&#x2c0;" horiz-adv-x="370" 
d="M172 736q67 0 106.5 -32t39.5 -86q0 -104 -126 -122v-204h-41v234q127 3 127 92q0 39 -28.5 60.5t-80.5 21.5q-58 0 -113 -33l-13 32q63 37 129 37z" />
    <glyph glyph-name="uni02C1" unicode="&#x2c1;" horiz-adv-x="370" 
d="M220 292h-41v204q-126 18 -126 122q0 54 39 86t106 32t130 -37l-14 -32q-55 33 -112 33q-52 0 -80.5 -21.5t-28.5 -60.5q0 -89 127 -92v-234z" />
    <glyph glyph-name="uni02C2" unicode="&#x2c2;" horiz-adv-x="410" 
d="M97 673v-2l248 -105v-57l-283 129v68l283 128v-56z" />
    <glyph glyph-name="uni02C3" unicode="&#x2c3;" horiz-adv-x="410" 
d="M313 673l-248 105v56l283 -128v-68l-283 -129v57l248 105v2z" />
    <glyph glyph-name="uni02C4" unicode="&#x2c4;" horiz-adv-x="411" 
d="M206 798h-1l-106 -248h-56l128 283h69l128 -283h-56z" />
    <glyph glyph-name="uni02C5" unicode="&#x2c5;" horiz-adv-x="411" 
d="M205 585h1l106 248h56l-128 -283h-69l-128 283h56z" />
    <glyph glyph-name="circumflex" unicode="&#x2c6;" horiz-adv-x="442" 
d="M220 729l-118 -139h-59l143 163h70l144 -163h-59l-119 139h-2z" />
    <glyph glyph-name="caron" unicode="&#x2c7;" horiz-adv-x="442" 
d="M400 753l-144 -163h-70l-143 163h59l118 -139h2l119 139h59z" />
    <glyph glyph-name="uni02C8" unicode="&#x2c8;" horiz-adv-x="326" 
d="M138 517v273h50v-273h-50z" />
    <glyph glyph-name="uni02C9" unicode="&#x2c9;" horiz-adv-x="459" 
d="M63 657v40h333v-40h-333z" />
    <glyph glyph-name="uni02CA" unicode="&#x2ca;" horiz-adv-x="301" 
d="M190 753h63l-130 -163h-50z" />
    <glyph glyph-name="uni02CB" unicode="&#x2cb;" horiz-adv-x="301" 
d="M48 753h63l117 -163h-50z" />
    <glyph glyph-name="uni02CC" unicode="&#x2cc;" horiz-adv-x="326" 
d="M138 -220v273h50v-273h-50z" />
    <glyph glyph-name="uni02CD" unicode="&#x2cd;" horiz-adv-x="459" 
d="M63 -177v40h333v-40h-333z" />
    <glyph glyph-name="uni02CE" unicode="&#x2ce;" horiz-adv-x="301" 
d="M48 -57h63l117 -163h-50z" />
    <glyph glyph-name="uni02CF" unicode="&#x2cf;" horiz-adv-x="301" 
d="M190 -57h63l-130 -163h-50z" />
    <glyph glyph-name="uni02D0" unicode="&#x2d0;" horiz-adv-x="402" 
d="M201 157l74 -157h-147zM201 357l-73 156h147z" />
    <glyph glyph-name="uni02D1" unicode="&#x2d1;" horiz-adv-x="402" 
d="M201 357l-73 156h147z" />
    <glyph glyph-name="uni02D2" unicode="&#x2d2;" horiz-adv-x="217" 
d="M175 410q0 -48 -34.5 -82.5t-82.5 -34.5v37q33 0 56.5 23.5t23.5 56.5t-23.5 56.5t-56.5 23.5v37q48 0 82.5 -34.5t34.5 -82.5z" />
    <glyph glyph-name="uni02D3" unicode="&#x2d3;" horiz-adv-x="217" 
d="M43 410q0 48 34.5 82.5t82.5 34.5v-37q-33 0 -56.5 -23.5t-23.5 -56.5t23.5 -56.5t56.5 -23.5v-37q-48 0 -82.5 34.5t-34.5 82.5z" />
    <glyph glyph-name="uni02D4" unicode="&#x2d4;" horiz-adv-x="481" 
d="M408 219h-335v42h146v146h43v-146h146v-42z" />
    <glyph glyph-name="uni02D5" unicode="&#x2d5;" horiz-adv-x="481" 
d="M219 173v146h-146v42h335v-42h-146v-146h-43z" />
    <glyph glyph-name="uni02D6" unicode="&#x2d6;" horiz-adv-x="481" 
d="M262 457v-146h146v-42h-146v-146h-43v146h-146v42h146v146h43z" />
    <glyph glyph-name="uni02D7" unicode="&#x2d7;" horiz-adv-x="481" 
d="M73 269v42h335v-42h-335z" />
    <glyph glyph-name="breve" unicode="&#x2d8;" horiz-adv-x="436" 
d="M218 633q57 0 94.5 28.5t38.5 66.5h42q0 -55 -50 -94t-125 -39t-125 39t-50 94h42q1 -38 38.5 -66.5t94.5 -28.5z" />
    <glyph glyph-name="dotaccent" unicode="&#x2d9;" horiz-adv-x="252" 
d="M98 607v130h57v-130h-57z" />
    <glyph glyph-name="ring" unicode="&#x2da;" horiz-adv-x="319" 
d="M276 675q0 -48 -34 -82.5t-82 -34.5t-82.5 34.5t-34.5 82.5t34.5 82.5t82.5 34.5t82 -34.5t34 -82.5zM243 675q0 35 -24.5 59t-58.5 24q-35 0 -59.5 -24.5t-24.5 -58.5t24.5 -58.5t59.5 -24.5q34 0 58.5 24t24.5 59z" />
    <glyph glyph-name="ogonek" unicode="&#x2db;" horiz-adv-x="370" 
d="M78 -128q0 67 77 128h64q-95 -54 -95 -119q0 -61 97 -61q51 0 92 19l9 -38q-48 -21 -105 -21q-76 0 -107.5 26.5t-31.5 65.5z" />
    <glyph glyph-name="tilde" unicode="&#x2dc;" horiz-adv-x="476" 
d="M136 720q44 0 110 -46q57 -40 86 -40q39 0 39 76h42q0 -115 -73 -115q-43 0 -111 47q-56 39 -85 39q-39 0 -39 -86h-42q0 125 73 125z" />
    <glyph glyph-name="hungarumlaut" unicode="&#x2dd;" horiz-adv-x="404" 
d="M256 590h-46l116 163h60zM90 590h-47l117 163h60z" />
    <glyph glyph-name="uni02DE" unicode="&#x2de;" horiz-adv-x="411" 
d="M205 413l-162 -90v41l162 90h42v-134q0 -60 14.5 -81t48.5 -21q24 0 54 10l9 -38q-36 -12 -69 -12q-53 0 -76 32t-23 107v96z" />
    <glyph glyph-name="uni02DF" unicode="&#x2df;" horiz-adv-x="382" 
d="M89 825l103 -103l103 103l29 -30l-103 -103l103 -103l-30 -31l-103 104l-104 -104l-29 30l103 103l-103 103z" />
    <glyph glyph-name="uni02E0" unicode="&#x2e0;" horiz-adv-x="380" 
d="M342 604l-131 -249q53 -92 53 -132q0 -32 -19.5 -50.5t-54.5 -18.5q-34 0 -53.5 18.5t-19.5 50.5q0 42 52 132l-131 249h43l109 -215l110 215h42zM190 184q40 0 40 39q0 30 -40 101q-40 -71 -40 -101q0 -39 40 -39z" />
    <glyph glyph-name="uni02E1" unicode="&#x2e1;" horiz-adv-x="276" 
d="M118 292v450h41v-450h-41z" />
    <glyph glyph-name="uni02E2" unicode="&#x2e2;" horiz-adv-x="336" 
d="M164 319q38 0 59 14.5t21 40.5q0 25 -18.5 39t-62.5 23q-59 11 -84 32.5t-25 59.5q0 37 30 59.5t83 22.5q56 0 109 -23l-12 -31q-46 21 -95 21q-76 0 -76 -49q0 -22 16 -36.5t60 -22.5q61 -11 88 -34t27 -62q0 -40 -31 -63.5t-86 -23.5q-61 0 -114 30l13 30
q45 -27 98 -27z" />
    <glyph glyph-name="uni02E3" unicode="&#x2e3;" horiz-adv-x="364" 
d="M270 604h45l-107 -155l108 -157h-45l-89 132h-1l-89 -132h-44l109 157l-107 155h44l88 -130h1z" />
    <glyph glyph-name="uni02E4" unicode="&#x2e4;" horiz-adv-x="370" 
d="M179 292v204q-126 18 -126 122q0 54 39 86t106 32t130 -37l-14 -32q-55 33 -112 33q-52 0 -80.5 -21.5t-28.5 -60.5q0 -89 127 -92v-234h-41z" />
    <glyph glyph-name="uni02E5" unicode="&#x2e5;" horiz-adv-x="569" 
d="M431 685h-363v45h413v-730h-50v685z" />
    <glyph glyph-name="uni02E6" unicode="&#x2e6;" horiz-adv-x="569" 
d="M68 538v44h363v148h50v-730h-50v538h-363z" />
    <glyph glyph-name="uni02E7" unicode="&#x2e7;" horiz-adv-x="569" 
d="M68 342v46h363v342h50v-730h-50v342h-363z" />
    <glyph glyph-name="uni02E8" unicode="&#x2e8;" horiz-adv-x="569" 
d="M68 148v44h363v538h50v-730h-50v148h-363z" />
    <glyph glyph-name="uni02E9" unicode="&#x2e9;" horiz-adv-x="569" 
d="M68 0v45h363v685h50v-730h-413z" />
    <glyph glyph-name="uni02EA" unicode="&#x2ea;" horiz-adv-x="509" 
d="M446 0h-363v590h47v-548h316v-42z" />
    <glyph glyph-name="uni02EB" unicode="&#x2eb;" horiz-adv-x="509" 
d="M446 274h-316v-274h-47v590h47v-274h316v-42z" />
    <glyph glyph-name="uni02EC" unicode="&#x2ec;" horiz-adv-x="442" 
d="M222 -139l119 139h59l-144 -163h-70l-143 163h59l118 -139h2z" />
    <glyph glyph-name="uni02ED" unicode="&#x2ed;" horiz-adv-x="479" 
d="M73 723v39h333v-39h-333zM73 868v39h333v-39h-333z" />
    <glyph glyph-name="uni02EE" unicode="&#x2ee;" horiz-adv-x="366" 
d="M243 770h50l-5 -233h-40zM73 770h50l-5 -233h-40z" />
    <glyph glyph-name="uni02EF" unicode="&#x2ef;" horiz-adv-x="411" 
d="M312 60h56l-128 -283h-69l-128 283h56l106 -248h1z" />
    <glyph glyph-name="uni02F0" unicode="&#x2f0;" horiz-adv-x="411" 
d="M312 -223l-105 248h-3l-105 -248h-56l128 283h69l128 -283h-56z" />
    <glyph glyph-name="uni02F1" unicode="&#x2f1;" horiz-adv-x="450" 
d="M365 -264l-283 128v68l283 129v-57l-248 -105v-2l248 -105v-56z" />
    <glyph glyph-name="uni02F2" unicode="&#x2f2;" horiz-adv-x="450" 
d="M85 -264v56l248 105v2l-248 105v57l283 -129v-68z" />
    <glyph glyph-name="uni02F3" unicode="&#x2f3;" horiz-adv-x="319" 
d="M160 -72q-35 0 -59.5 -24.5t-24.5 -58.5t24.5 -58.5t59.5 -24.5q34 0 58.5 24t24.5 59t-24.5 59t-58.5 24zM276 -155q0 -48 -34 -82.5t-82 -34.5t-82.5 34.5t-34.5 82.5t34.5 82.5t82.5 34.5t82 -34.5t34 -82.5z" />
    <glyph glyph-name="uni02F4" unicode="&#x2f4;" horiz-adv-x="301" 
d="M48 520h63l117 -163h-50z" />
    <glyph glyph-name="uni02F5" unicode="&#x2f5;" horiz-adv-x="444" 
d="M168 357l-130 163h60l117 -163h-47zM335 357l-130 163h60l116 -163h-46z" />
    <glyph glyph-name="uni02F6" unicode="&#x2f6;" horiz-adv-x="444" 
d="M276 357h-46l116 163h60zM110 357h-47l117 163h60z" />
    <glyph glyph-name="uni02F7" unicode="&#x2f7;" horiz-adv-x="476" 
d="M136 -75q44 0 110 -46q57 -40 86 -40q39 0 39 76h42q0 -115 -73 -115q-43 0 -111 47q-56 39 -85 39q-39 0 -39 -86h-42q0 125 73 125z" />
    <glyph glyph-name="uni02F8" unicode="&#x2f8;" horiz-adv-x="299" 
d="M128 300v103h43v-103h-43zM128 560v103h43v-103h-43z" />
    <glyph glyph-name="uni02F9" unicode="&#x2f9;" horiz-adv-x="434" 
d="M113 770h243v-37h-203v-263h-40v300z" />
    <glyph glyph-name="uni02FA" unicode="&#x2fa;" horiz-adv-x="434" 
d="M321 770v-300h-40v263h-203v37h243z" />
    <glyph glyph-name="uni02FB" unicode="&#x2fb;" horiz-adv-x="434" 
d="M113 300h40v-263h203v-37h-243v300z" />
    <glyph glyph-name="uni02FC" unicode="&#x2fc;" horiz-adv-x="434" 
d="M321 300v-300h-243v37h203v263h40z" />
    <glyph glyph-name="uni02FD" unicode="&#x2fd;" horiz-adv-x="522" 
d="M116 -49v-134h290v134h44v-174h-377v174h43z" />
    <glyph glyph-name="uni02FE" unicode="&#x2fe;" horiz-adv-x="522" 
d="M116 -183h334v-40h-377v174h43v-134z" />
    <glyph glyph-name="uni02FF" unicode="&#x2ff;" horiz-adv-x="572" 
d="M500 -107v-40h-307v-60l-150 80l150 80v-60h307z" />
    <glyph glyph-name="gravecomb" unicode="&#x300;" horiz-adv-x="0" 
d="M425 753l117 -163h-50l-130 163h63z" />
    <glyph glyph-name="acutecomb" unicode="&#x301;" horiz-adv-x="0" 
d="M638 753l-130 -163h-50l117 163h63z" />
    <glyph glyph-name="uni0302" unicode="&#x302;" horiz-adv-x="0" 
d="M499 729l-118 -139h-59l143 163h70l143 -163h-59l-118 139h-2z" />
    <glyph glyph-name="tildecomb" unicode="&#x303;" horiz-adv-x="0" 
d="M398 720q44 0 110 -46q57 -40 86 -40q39 0 39 76h42q0 -115 -73 -115q-43 0 -111 47q-56 39 -85 39q-39 0 -39 -86h-42q0 125 73 125z" />
    <glyph glyph-name="uni0304" unicode="&#x304;" horiz-adv-x="0" 
d="M333 657v40h334v-40h-334z" />
    <glyph glyph-name="uni0305" unicode="&#x305;" horiz-adv-x="0" 
d="M213 867v40h574v-40h-574z" />
    <glyph glyph-name="uni0306" unicode="&#x306;" horiz-adv-x="0" 
d="M500 633q57 0 94.5 28.5t38.5 66.5h42q0 -55 -50 -94t-125 -39t-125 39t-50 94h42q1 -38 38.5 -66.5t94.5 -28.5z" />
    <glyph glyph-name="uni0307" unicode="&#x307;" horiz-adv-x="0" 
d="M472 607v130h56v-130h-56z" />
    <glyph glyph-name="uni0308" unicode="&#x308;" horiz-adv-x="0" 
d="M577 610v123h46v-123h-46zM377 610v123h46v-123h-46z" />
    <glyph glyph-name="hookabovecomb" unicode="&#x309;" horiz-adv-x="0" 
d="M373 777q69 16 139 16q79 0 112 -19t33 -45q0 -28 -17 -45t-52 -35q-33 -17 -48 -31.5t-16 -37.5h-48q0 30 18.5 49.5t55.5 38.5q30 16 42.5 27t12.5 28q0 34 -102 34q-61 0 -123 -17z" />
    <glyph glyph-name="uni030A" unicode="&#x30a;" horiz-adv-x="0" 
d="M500 758q-34 0 -58.5 -24t-24.5 -59t24.5 -59t58.5 -24t58.5 24t24.5 59t-24.5 59t-58.5 24zM617 675q0 -48 -34.5 -82.5t-82.5 -34.5t-82.5 34.5t-34.5 82.5t34.5 82.5t82.5 34.5t82.5 -34.5t34.5 -82.5z" />
    <glyph glyph-name="uni030B" unicode="&#x30b;" horiz-adv-x="0" 
d="M589 590h-46l117 163h60zM423 590h-47l117 163h60z" />
    <glyph glyph-name="uni030C" unicode="&#x30c;" horiz-adv-x="0" 
d="M678 753l-143 -163h-70l-143 163h59l118 -139h2l118 139h59z" />
    <glyph glyph-name="uni030D" unicode="&#x30d;" horiz-adv-x="0" 
d="M475 517v273h50v-273h-50z" />
    <glyph glyph-name="uni030E" unicode="&#x30e;" horiz-adv-x="0" 
d="M558 517v273h47v-273h-47zM395 517v273h47v-273h-47z" />
    <glyph glyph-name="uni030F" unicode="&#x30f;" horiz-adv-x="0" 
d="M411 590l-131 163h60l117 -163h-46zM577 590l-130 163h60l117 -163h-47z" />
    <glyph glyph-name="uni0310" unicode="&#x310;" horiz-adv-x="0" 
d="M477 718v124h46v-124h-46zM325 728h42q1 -38 38.5 -66.5t94.5 -28.5t94.5 28.5t38.5 66.5h42q0 -55 -50 -94t-125 -39t-125 39t-50 94z" />
    <glyph glyph-name="uni0311" unicode="&#x311;" horiz-adv-x="0" 
d="M500 700q-57 0 -94.5 -28.5t-38.5 -66.5h-42q0 55 50 94t125 39t125 -39t50 -94h-42q-1 38 -38.5 66.5t-94.5 28.5z" />
    <glyph glyph-name="uni0312" unicode="&#x312;" horiz-adv-x="0" 
d="M516 590h-52q0 38 17 83.5t45 79.5h45q-24 -33 -39.5 -78.5t-15.5 -84.5z" />
    <glyph glyph-name="uni0313" unicode="&#x313;" horiz-adv-x="0" 
d="M484 753h52q0 -38 -17 -83.5t-45 -79.5h-45q24 33 39.5 78.5t15.5 84.5z" />
    <glyph glyph-name="uni0314" unicode="&#x314;" horiz-adv-x="0" 
d="M516 753q0 -39 15.5 -84.5t39.5 -78.5h-45q-28 34 -45 79.5t-17 83.5h52z" />
    <glyph glyph-name="uni0315" unicode="&#x315;" horiz-adv-x="0" 
d="M484 753h52q0 -38 -17 -83.5t-45 -79.5h-45q24 33 39.5 78.5t15.5 84.5z" />
    <glyph glyph-name="uni0316" unicode="&#x316;" horiz-adv-x="0" 
d="M522 -220l-130 163h63l117 -163h-50z" />
    <glyph glyph-name="uni0317" unicode="&#x317;" horiz-adv-x="0" 
d="M478 -220h-50l117 163h63z" />
    <glyph glyph-name="uni0318" unicode="&#x318;" horiz-adv-x="0" 
d="M550 -63v-257h-40v110h-108v37h108v110h40z" />
    <glyph glyph-name="uni0319" unicode="&#x319;" horiz-adv-x="0" 
d="M450 -63h40v-110h108v-37h-108v-110h-40v257z" />
    <glyph glyph-name="uni031A" unicode="&#x31a;" horiz-adv-x="0" 
d="M373 730v40h250v-212h-46v172h-204z" />
    <glyph glyph-name="uni031B" unicode="&#x31b;" horiz-adv-x="0" 
d="M373 777q69 16 139 16q79 0 112 -19t33 -45q0 -28 -17 -45t-52 -35q-33 -17 -48 -31.5t-16 -37.5h-48q0 30 18.5 49.5t55.5 38.5q30 16 42.5 27t12.5 28q0 34 -102 34q-61 0 -123 -17z" />
    <glyph glyph-name="uni031C" unicode="&#x31c;" horiz-adv-x="0" 
d="M435 -155q0 48 34.5 82.5t82.5 34.5v-37q-33 0 -56.5 -23.5t-23.5 -56.5t23.5 -56.5t56.5 -23.5v-37q-48 0 -82.5 34.5t-34.5 82.5z" />
    <glyph glyph-name="uni031D" unicode="&#x31d;" horiz-adv-x="0" 
d="M480 -63h40v-110h108v-37h-256v37h108v110z" />
    <glyph glyph-name="uni031E" unicode="&#x31e;" horiz-adv-x="0" 
d="M372 -75h256v-37h-108v-110h-40v110h-108v37z" />
    <glyph glyph-name="uni031F" unicode="&#x31f;" horiz-adv-x="0" 
d="M520 -63v-110h108v-37h-108v-110h-40v110h-108v37h108v110h40z" />
    <glyph glyph-name="uni0320" unicode="&#x320;" horiz-adv-x="0" 
d="M358 -167v42h284v-42h-284z" />
    <glyph glyph-name="uni0321" unicode="&#x321;" horiz-adv-x="0" 
d="M542 -68v130h49v-130q0 -85 -37.5 -123.5t-117.5 -38.5q-44 0 -86 15l11 39q34 -14 72 -14q59 0 84 28t25 94z" />
    <glyph glyph-name="uni0322" unicode="&#x322;" horiz-adv-x="0" 
d="M458 -68q0 -66 25 -94t84 -28q38 0 72 14l11 -39q-42 -15 -86 -15q-80 0 -117.5 38.5t-37.5 123.5v130h49v-130z" />
    <glyph glyph-name="dotbelowcomb" unicode="&#x323;" horiz-adv-x="0" 
d="M476 -203v123h48v-123h-48z" />
    <glyph glyph-name="uni0324" unicode="&#x324;" horiz-adv-x="0" 
d="M577 -203v123h46v-123h-46zM377 -203v123h46v-123h-46z" />
    <glyph glyph-name="uni0325" unicode="&#x325;" horiz-adv-x="0" 
d="M500 -72q-34 0 -58.5 -24t-24.5 -59t24.5 -59t58.5 -24t58.5 24t24.5 59t-24.5 59t-58.5 24zM617 -155q0 -48 -34.5 -82.5t-82.5 -34.5t-82.5 34.5t-34.5 82.5t34.5 82.5t82.5 34.5t82.5 -34.5t34.5 -82.5z" />
    <glyph glyph-name="uni0326" unicode="&#x326;" horiz-adv-x="0" 
d="M507 13h61l-90 -233h-48z" />
    <glyph glyph-name="uni0327" unicode="&#x327;" horiz-adv-x="0" 
d="M440 -180q128 0 128 86q0 50 -45 94h50q41 -48 41 -103q0 -48 -39 -82.5t-131 -34.5q-65 0 -120 25l10 39q48 -24 106 -24z" />
    <glyph glyph-name="uni0328" unicode="&#x328;" horiz-adv-x="0" 
d="M458 0h64q-95 -54 -95 -119q0 -61 97 -61q51 0 92 19l9 -38q-48 -21 -105 -21q-76 0 -107.5 26.5t-31.5 65.5q0 67 77 128z" />
    <glyph glyph-name="uni0329" unicode="&#x329;" horiz-adv-x="0" 
d="M475 -310v273h50v-273h-50z" />
    <glyph glyph-name="uni032A" unicode="&#x32a;" horiz-adv-x="0" 
d="M645 -89h-290v-134h-43v174h376v-174h-43v134z" />
    <glyph glyph-name="uni032B" unicode="&#x32b;" horiz-adv-x="0" 
d="M482 -103h36q0 -33 23.5 -56.5t56.5 -23.5t56.5 23.5t23.5 56.5h37q0 -48 -34.5 -82.5t-82.5 -34.5q-63 0 -98 54q-35 -54 -98 -54q-48 0 -82.5 34.5t-34.5 82.5h37q0 -33 23.5 -56.5t56.5 -23.5t56.5 23.5t23.5 56.5z" />
    <glyph glyph-name="uni032C" unicode="&#x32c;" horiz-adv-x="0" 
d="M501 -196l118 139h59l-143 -163h-70l-143 163h59l118 -139h2z" />
    <glyph glyph-name="uni032D" unicode="&#x32d;" horiz-adv-x="0" 
d="M499 -84l-118 -139h-59l143 163h70l143 -163h-59l-118 139h-2z" />
    <glyph glyph-name="uni032E" unicode="&#x32e;" horiz-adv-x="0" 
d="M500 -170q57 0 94.5 28.5t38.5 66.5h42q0 -55 -50 -94t-125 -39t-125 39t-50 94h42q1 -38 38.5 -66.5t94.5 -28.5z" />
    <glyph glyph-name="uni032F" unicode="&#x32f;" horiz-adv-x="0" 
d="M500 -125q-57 0 -94.5 -28.5t-38.5 -66.5h-42q0 55 50 94t125 39t125 -39t50 -94h-42q-1 38 -38.5 66.5t-94.5 28.5z" />
    <glyph glyph-name="uni0330" unicode="&#x330;" horiz-adv-x="0" 
d="M398 -75q44 0 110 -46q57 -40 86 -40q39 0 39 76h42q0 -115 -73 -115q-43 0 -111 47q-56 39 -85 39q-39 0 -39 -86h-42q0 125 73 125z" />
    <glyph glyph-name="uni0331" unicode="&#x331;" horiz-adv-x="0" 
d="M303 -177v40h394v-40h-394z" />
    <glyph glyph-name="uni0332" unicode="&#x332;" horiz-adv-x="0" 
d="M213 -193v40h574v-40h-574z" />
    <glyph glyph-name="uni0333" unicode="&#x333;" horiz-adv-x="0" 
d="M213 -265v39h574v-39h-574zM213 -121v39h574v-39h-574z" />
    <glyph glyph-name="uni0334" unicode="&#x334;" horiz-adv-x="0" 
d="M398 358q44 0 110 -46q56 -39 86 -39q39 0 39 75h42q0 -115 -73 -115q-43 0 -111 47q-56 39 -85 39q-39 0 -39 -86h-42q0 125 73 125z" />
    <glyph glyph-name="uni0335" unicode="&#x335;" horiz-adv-x="0" 
d="M283 270v40h434v-40h-434z" />
    <glyph glyph-name="uni0336" unicode="&#x336;" horiz-adv-x="0" 
d="M213 270v40h574v-40h-574z" />
    <glyph glyph-name="uni0337" unicode="&#x337;" horiz-adv-x="0" 
d="M226 14l520 520l28 -28l-520 -520z" />
    <glyph glyph-name="uni0338" unicode="&#x338;" horiz-adv-x="0" 
d="M202 3l560 750l36 -26l-560 -750z" />
    <glyph glyph-name="uni0339" unicode="&#x339;" horiz-adv-x="0" 
d="M565 -155q0 -48 -34.5 -82.5t-82.5 -34.5v37q33 0 56.5 23.5t23.5 56.5t-23.5 56.5t-56.5 23.5v37q48 0 82.5 -34.5t34.5 -82.5z" />
    <glyph glyph-name="uni033A" unicode="&#x33a;" horiz-adv-x="0" 
d="M355 -49v-134h290v134h43v-174h-376v174h43z" />
    <glyph glyph-name="uni033B" unicode="&#x33b;" horiz-adv-x="0" 
d="M353 -77v-110h294v110h-294zM688 -77v-146h-376v183h376v-37z" />
    <glyph glyph-name="uni033C" unicode="&#x33c;" horiz-adv-x="0" 
d="M500 -157q35 54 98 54q48 0 82.5 -34.5t34.5 -82.5h-37q0 33 -23.5 56.5t-56.5 23.5t-56.5 -23.5t-23.5 -56.5h-36q0 33 -23.5 56.5t-56.5 23.5t-56.5 -23.5t-23.5 -56.5h-37q0 48 34.5 82.5t82.5 34.5q63 0 98 -54z" />
    <glyph glyph-name="uni033D" unicode="&#x33d;" horiz-adv-x="0" 
d="M398 598l77 77l-77 77l25 25l77 -77l77 77l25 -25l-77 -77l77 -77l-25 -25l-77 77l-77 -77z" />
    <glyph glyph-name="uni033E" unicode="&#x33e;" horiz-adv-x="0" 
d="M517 775q45 -65 45 -109q0 -74 -124 -74v42q85 0 85 39q0 30 -39 86q-46 67 -46 110q0 73 114 73v-41q-75 0 -75 -39q0 -30 40 -87z" />
    <glyph glyph-name="uni033F" unicode="&#x33f;" horiz-adv-x="0" 
d="M213 723v39h574v-39h-574zM213 868v39h574v-39h-574z" />
    <glyph glyph-name="uni0340" unicode="&#x340;" horiz-adv-x="0" 
d="M425 753l117 -163h-50l-130 163h63z" />
    <glyph glyph-name="uni0341" unicode="&#x341;" horiz-adv-x="0" 
d="M638 753l-130 -163h-50l117 163h63z" />
    <glyph glyph-name="uni0342" unicode="&#x342;" horiz-adv-x="0" 
d="M398 720q44 0 110 -46q57 -40 86 -40q39 0 39 76h42q0 -115 -73 -115q-43 0 -111 47q-56 39 -85 39q-39 0 -39 -86h-42q0 125 73 125z" />
    </font>
</defs>
</svg>
