<?xml version="1.0" standalone="no"?>
<!DOCTYPE svg PUBLIC "-//W3C//DTD SVG 1.1//EN" "http://www.w3.org/Graphics/SVG/1.1/DTD/svg11.dtd" >
<svg>
<metadata>
Created by FontForge 20090622 at Thu Jun  9 06:48:15 2016
 By deploy user
Copyright (c) 2013 by PSTL. All rights reserved.
</metadata>
<defs>
<font id="Quatro-Medium" horiz-adv-x="1382" >
  <font-face 
    font-family="Quatro Medium"
    font-weight="400"
    font-stretch="normal"
    units-per-em="2048"
    panose-1="0 0 5 0 0 0 0 0 0 0"
    ascent="1577"
    descent="-471"
    x-height="1118"
    cap-height="1475"
    bbox="-98 -530 2003 1911"
    underline-thickness="102"
    underline-position="-102"
    unicode-range="U+000D-U+FB02"
  />
<missing-glyph horiz-adv-x="748" 
d="M612 1365h-544v-1365h544v1365zM544 1297v-1229h-408v1229h408z" />
    <glyph glyph-name="uniFB01" unicode="fi" horiz-adv-x="1296" 
d="M195 0h249v903h312v213h-320v92q-2 58 14 95t57 57t114 20q63 0 180 -18v205q-105 20 -252 20q-191 0 -271 -80q-42 -41 -62.5 -102.5t-20.5 -147.5v-141q-50 -9 -138 -22v-191h138v-903zM1161 1520h-258v-252h258v252zM1157 1118h-250v-1118h250v1118z" />
    <glyph glyph-name="uniFB02" unicode="fl" horiz-adv-x="1300" 
d="M195 0h249v903h312v213h-320v92q-2 58 14 95t57 57t114 20q63 0 180 -18v205q-105 20 -252 20q-191 0 -271 -80q-42 -41 -62.5 -102.5t-20.5 -147.5v-141q-50 -9 -138 -22v-191h138v-903zM1155 1563h-250v-1563h250v1563z" />
    <glyph glyph-name=".notdef" horiz-adv-x="748" 
d="M612 1365h-544v-1365h544v1365zM544 1297v-1229h-408v1229h408z" />
    <glyph glyph-name="space" unicode=" " horiz-adv-x="509" 
 />
    <glyph glyph-name="glyph1" horiz-adv-x="0" 
 />
    <glyph glyph-name="glyph2" horiz-adv-x="682" 
 />
    <glyph glyph-name="glyph3" horiz-adv-x="0" 
 />
    <glyph glyph-name="glyph3" horiz-adv-x="0" 
 />
    <glyph glyph-name="uni000D" unicode="&#xd;" horiz-adv-x="471" 
 />
    <glyph glyph-name="exclam" unicode="!" horiz-adv-x="595" 
d="M422 1475h-250v-1018h250v1018zM432 254h-266v-254h266v254z" />
    <glyph glyph-name="quotedbl" unicode="&#x22;" horiz-adv-x="796" 
d="M307 1475h-174v-459h174v459zM664 1475h-177v-459h177v459z" />
    <glyph glyph-name="numbersign" unicode="#" horiz-adv-x="1456" 
d="M254 98q-13 -67 -35 -170h238l67 340h289l-68 -340h240q20 111 68 340h215l39 213h-217q10 60 24 120q8 35 23 118h206l39 217h-204l65 360h-235l-68 -360h-289l68 360h-236l-67 -360h-223l-39 -217h223l-24 -119l-25 -119h-219q-30 -142 -43 -213h223q-13 -56 -35 -170z
M899 719l-24 -119q-18 -87 -23 -119h-289l49 238h287z" />
    <glyph glyph-name="dollar" unicode="$" horiz-adv-x="1124" 
d="M202 783q48 -42 109.5 -68.5t188.5 -59.5q129 -35 175 -58q107 -53 107 -165q0 -127 -83 -182q-72 -49 -216 -49q-83 0 -170.5 14t-199.5 39v-238q191 -34 364 -34v-168h219v196q163 38 256 144q97 109 97 286q0 109 -30 182q-55 133 -187 192q-54 24 -109.5 40
t-144.5 38q-60 15 -110 38q-52 24 -80 61.5t-28 95.5q0 108 93 157q72 38 215 38q78 -2 147.5 -10.5t159.5 -22.5v221q-39 8 -99 15q-61 8 -180 12v182h-219v-196q-172 -27 -270 -117q-113 -103 -113 -305q0 -183 108 -278z" />
    <glyph glyph-name="percent" unicode="%" horiz-adv-x="1538" 
d="M133 896q74 -101 225 -101q154 0 228 101q67 91 67 251t-67 251q-74 101 -228 101q-151 0 -225 -101q-67 -91 -67 -251q0 -78 16 -139q16 -64 51 -112zM1208 1475h-184l-694 -1475h182zM255.5 1310.5q28.5 57.5 102.5 59.5q74 -2 103.5 -59.5t27.5 -163.5
q3 -105 -27 -163t-104 -60q-73 2 -102 59.5t-27 163.5q-2 106 26.5 163.5zM953 87q73 -101 225 -101q153 0 227 101q68 93 68 251t-68 251q-74 101 -227 101q-152 0 -225 -101q-68 -95 -68 -251q0 -74 17 -139q16 -64 51 -112zM1075.5 501.5q28.5 57.5 102.5 59.5
q73 -2 103 -60t28 -163q2 -106 -27.5 -163.5t-103.5 -59.5q-74 2 -102.5 59.5t-26.5 163.5q-2 106 26.5 163.5z" />
    <glyph glyph-name="ampersand" unicode="&#x26;" horiz-adv-x="1447" 
d="M120 219.5q34 -76.5 99 -130.5q136 -114 356 -114q161 0 312 64q103 44 180 100l43 -139h250l-197 651h203v211h-713q-57 0 -108.5 23.5t-85 71.5t-35.5 118q4 110 63 148q55 35 103 47t110 12t129 -8q63 -8 144.5 -26t126.5 -34v228q-213 57 -416 57q-107 0 -202.5 -26
t-166.5 -76q-75 -53 -116 -126.5t-41 -166.5q0 -109 50 -193q53 -90 152 -149q-141 -52 -209 -151q-65 -92 -65 -222q0 -93 34 -169.5zM399 568q49 47 95.5 65t107.5 18h309l93 -315q-39 -36 -88 -63q-59 -33 -134.5 -56.5t-158.5 -23.5q-118 0 -193 55q-82 60 -82 178
q0 94 51 142z" />
    <glyph glyph-name="quotesingle" unicode="'" horiz-adv-x="440" 
d="M307 1475h-174v-459h174v459z" />
    <glyph glyph-name="parenleft" unicode="(" horiz-adv-x="651" 
d="M113 268q22 -131 69 -263q38 -112 97 -228q44 -89 114 -197h244q-63 96 -127 223q-61 121 -101 241q-45 130 -69 260q-25 136 -25 267q0 132 25 269q23 127 69 259q41 123 101 242q62 123 127 222h-244q-8 -14 -13 -21l-53.5 -88t-47.5 -88q-60 -118 -97 -227
q-47 -132 -69 -263q-27 -149 -27 -305q0 -87 7 -157q8 -85 20 -146z" />
    <glyph glyph-name="parenright" unicode=")" horiz-adv-x="651" 
d="M373 -223q61 125 98 228q43 127 68 263q26 153 26 303q0 152 -26 305q-25 136 -68 263q-35 100 -98 227q-46 91 -115 197h-244q78 -120 128 -222q58 -119 101 -242q44 -133 69 -259q24 -132 24 -269q0 -136 -24 -267q-25 -130 -69 -260q-42 -119 -101 -241
q-55 -112 -128 -223h244q69 106 115 197z" />
    <glyph glyph-name="asterisk" unicode="*" horiz-adv-x="935" 
d="M348 1081l-176 -227l141 -102l154 221l160 -219q81 57 139 102l-178 225l272 84l-49 148l-127 -45l-131 -45q0 92 1 139q1 46 1 141h-174q0 -94 1 -140q1 -47 1 -140l-256 90l-49 -150q120 -39 270 -82z" />
    <glyph glyph-name="plus" unicode="+" horiz-adv-x="1130" 
d="M463 90h205v375h381v205h-381v374h-205v-374h-381v-205h381v-375z" />
    <glyph glyph-name="comma" unicode="," horiz-adv-x="489" 
d="M330 -39q32 103 32 203q0 54 -8 115h-219v-525h111q51 100 84 207z" />
    <glyph glyph-name="hyphen" unicode="-" horiz-adv-x="1107" 
d="M975 662h-842v-207h842v207z" />
    <glyph glyph-name="period" unicode="." horiz-adv-x="487" 
d="M354 279h-221v-279h221v279z" />
    <glyph glyph-name="slash" unicode="/" horiz-adv-x="866" 
d="M811 1563h-227l-529 -1985h224z" />
    <glyph glyph-name="zero" unicode="0" horiz-adv-x="1386" 
d="M133 448q29 -142 96 -244q69 -108 181 -166q120 -63 282 -63q163 0 283 63q111 58 181 166q67 103 98 244q28 134 28 289q0 154 -28 290q-31 141 -98 244q-70 108 -181 166q-121 62 -283 62q-161 0 -282 -62q-112 -58 -181 -166q-67 -102 -96 -244q-29 -140 -29 -290
t29 -289zM377 848q5 70 19 136t47 128q76 148 249 148q90 0 153 -39q59 -37 97 -105t52 -144q11 -67 15.5 -120.5t4.5 -114.5q0 -63 -4 -110q-5 -71 -19 -137.5t-47 -129.5q-38 -72 -101 -110.5t-151 -38.5q-90 0 -151 39q-58 37 -96 106t-51 146q-12 68 -16.5 121t-4.5 114
q0 64 4 111z" />
    <glyph glyph-name="one" unicode="1" horiz-adv-x="741" 
d="M319 0h254v1475h-194l-324 -154v-236l264 115v-1200z" />
    <glyph glyph-name="two" unicode="2" horiz-adv-x="1126" 
d="M1038 225h-585q144 128 222 206q91 91 170 198q67 90 109 196q37 93 37 199q0 70 -11.5 126t-41.5 123q-30 66 -102.5 121.5t-148.5 74.5q-70 17 -121 23.5t-109 6.5q-78 0 -161.5 -11t-186.5 -30v-227q185 41 301 41q145 0 229 -63q90 -69 90 -205q0 -93 -54 -201
q-50 -100 -142 -206q-103 -116 -204 -208q-121 -109 -239 -203v-186h948v225z" />
    <glyph glyph-name="three" unicode="3" horiz-adv-x="1107" 
d="M286.5 -17.5q99.5 -7.5 166.5 -7.5q121 0 222.5 31t176.5 90t114.5 142t39.5 186t-68 197q-72 99 -188 133q105 57 164 147q63 99 63 213q0 90 -35 161.5t-100 121.5q-64 49 -150 74.5t-186 25.5q-97 0 -199.5 -13.5t-193.5 -39.5v-225q46 15 147 34q107 18 186 18
q66 0 112 -12q67 -18 113 -58.5t48 -125.5q0 -52 -22 -95t-61 -73q-38 -30 -87.5 -46.5t-102.5 -16.5h-180v-211h193q115 0 196 -47q42 -25 65 -65.5t23 -94.5q0 -114 -78.5 -171.5t-226.5 -57.5q-175 0 -336 22v-219q85 -10 184.5 -17.5z" />
    <glyph glyph-name="four" unicode="4" horiz-adv-x="1310" 
d="M784 0h250v360h221v226h-221v446h-198q-22 -94 -32 -173q-11 -73 -20 -120v-153h-462l319 889h-254l-319 -910v-205h716v-360z" />
    <glyph glyph-name="five" unicode="5" horiz-adv-x="1124" 
d="M453 -20q121 0 222 25q103 25 184 85q83 61 127 154q46 97 46 233q0 71 -11.5 124.5t-43.5 117.5q-32 63 -106.5 112t-150.5 65q-68 14 -120.5 19t-112.5 5q-32 0 -100 -2v333h596v224h-842v-777h351q125 0 194 -45q84 -55 84 -186q0 -144 -97 -209q-88 -59 -237 -59
q-116 0 -309 34q0 -75 -1 -112t-1 -113q182 -28 328 -28z" />
    <glyph glyph-name="six" unicode="6" horiz-adv-x="1269" 
d="M146 358q39 -134 119 -223q71 -80 179 -121q101 -39 222 -39q117 0 214 33t167 96t107.5 151.5t37.5 195.5q0 59 -9 108q-26 142 -124 222q-60 49 -138 72.5t-167 23.5q-94 0 -194.5 -25t-192.5 -66q5 76 14 126q28 164 126 255q116 109 337 109q96 0 250 -27v221
q-160 27 -279 27q-177 0 -276 -43q-96 -41 -152 -81t-104 -97q-91 -107 -135 -255q-46 -153 -46 -331q0 -189 44 -332zM525.5 638.5q83.5 20.5 160.5 20.5q107 3 174.5 -49.5t69.5 -165.5q0 -115 -72 -182q-69 -65 -190 -65q-127 0 -206 94q-83 98 -87 295q67 32 150.5 52.5
z" />
    <glyph glyph-name="seven" unicode="7" horiz-adv-x="1044" 
d="M573 1024q-57 -100 -92.5 -176t-67.5 -161q-55 -144 -91 -333q-32 -169 -37 -354h258q8 202 39 360q35 176 88 318q54 144 140 291q74 125 198 282v224h-961v-224h682q-98 -124 -156 -227z" />
    <glyph glyph-name="eight" unicode="8" horiz-adv-x="1249" 
d="M129.5 220q33.5 -76 98.5 -130q137 -115 399 -115q121 0 218.5 29.5t166.5 85.5q69 55 104 136t35 182q0 93 -38 156q-38 65 -83 104.5t-117 76.5q93 76 143 164q52 92 52 199q0 78 -32 150q-32 68 -92.5 123t-129.5 79q-66 22 -116.5 30.5t-112.5 8.5q-60 0 -111 -9
q-152 -27 -248 -115q-62 -57 -94.5 -128.5t-32.5 -150.5q0 -57 15 -107q42 -142 184 -223q-131 -75 -189 -184q-27 -50 -40 -100t-13 -95q0 -91 33.5 -167zM426 1187.5q27 45.5 77 72.5t118 28q72 -1 123.5 -29.5t78.5 -77t27 -110.5q0 -65 -33 -126.5t-92 -106.5
q-77 18 -143 44q-81 31 -133 77t-52 128q2 55 29 100.5zM401 550.5q43 67.5 119 111.5q159 -52 229 -85q138 -69 142 -171q-1 -97 -56 -139q-52 -40 -99.5 -55t-108.5 -15q-67 0 -118 17q-61 21 -106 70t-45 128q0 71 43 138.5z" />
    <glyph glyph-name="nine" unicode="9" horiz-adv-x="1271" 
d="M89 914q26 -142 124 -223q59 -49 137 -72t168 -23q94 0 195 24.5t192 65.5q-4 -74 -14.5 -130t-36.5 -121q-28 -72 -91 -129.5t-146 -82.5q-89 -26 -198 -26q-107 0 -239 24v-219q170 -27 277 -27q178 0 277 43q96 41 151.5 81t103.5 98q92 109 136 255q44 145 44 330
q0 191 -42 334q-40 130 -120 221q-72 82 -178 123q-97 37 -223 37q-119 0 -215 -32t-165 -95q-71 -64 -108.5 -152.5t-37.5 -195.5q0 -58 9 -108zM414 1211q71 65 190 65q127 0 206 -94q83 -98 87 -295q-66 -32 -150 -53t-161 -21q-109 -2 -175.5 50t-68.5 165q0 116 72 183
z" />
    <glyph glyph-name="colon" unicode=":" horiz-adv-x="487" 
d="M354 930h-221v-283h221v283zM354 279h-221v-279h221v279z" />
    <glyph glyph-name="semicolon" unicode=";" horiz-adv-x="497" 
d="M360 928h-223v-281h223v281zM294 -145q47 119 63 211q8 51 8 99q0 54 -9 114h-219v-525h111q20 39 46 101z" />
    <glyph glyph-name="less" unicode="&#x3c;" horiz-adv-x="1112" 
d="M985 293l-706 252l706 252v264l-901 -373v-289l901 -370v264z" />
    <glyph glyph-name="equal" unicode="=" horiz-adv-x="1241" 
d="M1104 889h-967v-205h967v205zM1104 440h-967v-207h967v207z" />
    <glyph glyph-name="greater" unicode="&#x3e;" horiz-adv-x="1112" 
d="M1028 690l-901 371v-264l707 -252l-707 -252v-264l901 372v289z" />
    <glyph glyph-name="question" unicode="?" horiz-adv-x="970" 
d="M365 1352q69 0 122 -12q154 -37 154 -160q-1 -44 -23 -83.5t-52.5 -71t-77.5 -72.5l-19 -17q-56 -50 -90 -89t-60 -86q-61 -106 -61 -243q0 -51 10 -100h250q-12 62 -12 106q5 104 48 162q41 54 74.5 90.5t78.5 79.5q91 87 137 159q63 98 63 204q0 81 -32.5 149
t-92.5 116q-62 49 -147 75t-189 26q-84 0 -181.5 -12.5t-190.5 -36.5v-231q165 47 291 47zM526 219h-254v-219h254v219z" />
    <glyph glyph-name="at" unicode="@" horiz-adv-x="1902" 
d="M91 382q16 -160 66 -278q64 -156 190 -265q114 -99 274 -150q148 -49 323 -49q95 0 174 9q76 9 128 19t104 25l-25 190q-80 -20 -169 -30.5t-167 -10.5q-157 0 -286 39t-199 102q-64 57 -98.5 107.5t-59.5 115.5q-49 123 -49 283q0 141 50 264q26 65 61.5 118t100.5 117
q74 72 201 120.5t273 48.5q120 0 206 -24q84 -24 136.5 -48t98.5 -57q97 -70 148 -157q56 -100 56 -218q0 -175 -58 -263q-60 -89 -179 -89q-76 0 -127 33l63 463q-78 44 -166 70t-168 26q-83 0 -156.5 -27t-129.5 -80q-125 -119 -125 -323q0 -140 76 -221q34 -36 81.5 -55
t102.5 -19q151 0 248 108h10q18 -84 91 -132t187 -48q96 0 179.5 35t131.5 90q45 51 69.5 94.5t43.5 100.5q35 108 35 243q0 151 -60 282q-32 67 -75.5 121.5t-123.5 120.5q-89 73 -246.5 122t-340.5 49q-124 0 -241 -28t-212.5 -75t-158.5 -105q-88 -81 -137.5 -149
t-85.5 -153q-70 -163 -70 -355q0 -49 5 -107zM844 666q51 63 143 65q60 4 129 -31l-43 -313q-80 -58 -151 -59q-64 0 -96.5 42t-32.5 124q0 109 51 172z" />
    <glyph glyph-name="A" unicode="A" 
d="M385 309h614l103 -309h272l-504 1477h-358l-502 -1477h273zM700 1255l234 -718h-494l238 718h22z" />
    <glyph glyph-name="B" unicode="B" horiz-adv-x="1331" 
d="M969 29.5q89 29.5 153 85.5q63 56 96 132t33 167q0 125 -59 211q-64 93 -201 133q55 33 95 71q47 46 78.5 112t31.5 155q0 72 -26 141q-27 68 -82 122t-119 77q-62 22 -112 30.5t-109 8.5h-586v-1475h608q110 0 199 29.5zM709 1251q110 -2 170.5 -51t60.5 -135
q-2 -65 -34 -113.5t-84.5 -75t-114.5 -26.5h-287v401h289zM741 631q115 0 179.5 -50t66.5 -147q0 -96 -58 -153.5t-173 -59.5h-336v410h321z" />
    <glyph glyph-name="C" unicode="C" horiz-adv-x="1253" 
d="M103 568q20 -155 84 -280q58 -118 170 -197q70 -50 167 -83t250 -33q86 0 165 12q73 10 124.5 22t105.5 30v231q-88 -34 -182.5 -52.5t-181.5 -18.5q-94 0 -172 28q-80 27 -142.5 90.5t-88.5 142.5q-26 76 -36 140t-10 145q0 73 9 134q11 80 36.5 151t79.5 127
q59 61 143 90t195 29q84 -2 178 -19.5t168 -42.5v236q-192 49 -393 49q-166 0 -293 -52t-215 -152q-86 -99 -129 -239t-43 -317q0 -86 11 -171z" />
    <glyph glyph-name="D" unicode="D" horiz-adv-x="1466" 
d="M930 34q90 32 146.5 66.5t103.5 81.5q94 94 143 231q51 141 51 322q0 95 -13 173q-25 159 -99 278q-75 116 -182 184q-71 45 -165.5 75t-230.5 30h-522v-1475h522q153 0 246 34zM655 1251q58 0 108 -10.5t112 -36.5q62 -27 120 -97t80 -141q20 -67 27.5 -120t7.5 -111
q0 -59 -7.5 -111t-27.5 -118q-22 -70 -79.5 -138.5t-120.5 -96.5q-61 -27 -111.5 -37.5t-108.5 -10.5h-235v1028h235z" />
    <glyph glyph-name="E" unicode="E" horiz-adv-x="1239" 
d="M1147 223h-727v408h631v221h-631v399h731v224h-989v-1475h985v223z" />
    <glyph glyph-name="F" unicode="F" horiz-adv-x="1202" 
d="M420 584h637v223h-637v444h727v224h-985v-1475h258v584z" />
    <glyph glyph-name="G" unicode="G" horiz-adv-x="1452" 
d="M101 573q21 -166 86 -283q64 -121 174 -198q72 -51 173.5 -84t262.5 -33q134 0 287 28q107 20 257 71v688h-258v-526q-71 -18 -130 -27.5t-117 -9.5q-108 0 -197 33q-86 32 -150 97.5t-90 144.5q-25 76 -35 135t-10 128q0 143 46 249q24 54 54 95t83 88q56 48 149 77.5
t191 29.5q86 0 169 -12q92 -14 143 -24t95 -23l1 117l1 116q-96 23 -206 36t-212 13q-191 0 -301 -42q-105 -40 -167 -78.5t-113 -91.5q-99 -102 -147 -239q-50 -139 -50 -305q0 -87 11 -170z" />
    <glyph glyph-name="H" unicode="H" horiz-adv-x="1550" 
d="M420 629h710v-629h259v1475h-259v-623h-710v623h-258v-1475h258v629z" />
    <glyph glyph-name="I" unicode="I" horiz-adv-x="581" 
d="M420 1475h-258v-1475h258v1475z" />
    <glyph glyph-name="J" unicode="J" horiz-adv-x="585" 
d="M339 -143q85 156 85 350v1268h-258v-1280q0 -129 -60 -235q-56 -97 -163 -196l151 -200q162 140 245 293z" />
    <glyph glyph-name="K" unicode="K" horiz-adv-x="1366" 
d="M420 535l192 73l158 -291q81 -156 192 -239q116 -88 263 -88q47 0 98 6v231h-19q-62 0 -108 14.5t-87.5 54t-80.5 112.5l-174 303l35 20q48 28 90 65q115 98 173 250q62 160 62 394v35h-260v-54q0 -62 -6 -118q-17 -156 -90 -258q-85 -121 -237 -173l-201 -69v672h-258
v-1475h258v535z" />
    <glyph glyph-name="L" unicode="L" horiz-adv-x="1118" 
d="M1098 223h-678v1252h-258v-1475h936v223z" />
    <glyph glyph-name="M" unicode="M" horiz-adv-x="1900" 
d="M1739 1475v-1475h-246v1174h-14l-383 -1178h-299l-373 1178h-14v-1174h-248v1475h420l376 -1209l369 1209h412z" />
    <glyph glyph-name="N" unicode="N" horiz-adv-x="1556" 
d="M420 1047l696 -1047h279v1475h-258v-1072l-695 1072h-280v-1475h258v1047z" />
    <glyph glyph-name="O" unicode="O" horiz-adv-x="1523" 
d="M185 285q58 -116 166 -196q67 -49 163 -81.5t250 -32.5q170 0 266 38q89 36 142.5 73.5t98.5 89.5q84 97 123 239q40 145 40 322q0 94 -10 171q-21 165 -80 282q-63 122 -167 196q-69 49 -164.5 81t-248.5 32q-170 0 -266 -38q-91 -37 -144 -73.5t-97 -88.5
q-83 -98 -122 -239q-41 -148 -41 -323q0 -86 11 -171q22 -169 80 -281zM365 868q17 172 98 278q100 130 303 130q96 0 174 -32q73 -31 124 -96t73 -144q19 -71 25.5 -130.5t6.5 -136.5q0 -69 -6 -129q-17 -174 -98 -279q-99 -130 -303 -130q-96 0 -174 32q-73 30 -124 95
t-72 145q-20 72 -27 131.5t-7 134.5q0 74 7 131z" />
    <glyph glyph-name="P" unicode="P" horiz-adv-x="1263" 
d="M420 440h295q55 0 108 11q152 31 251 143q63 72 96.5 165t33.5 197q0 107 -33 200q-33 91 -97 163.5t-135 104.5q-67 29 -118.5 40t-113.5 11h-545v-1475h258v440zM676 1251q68 0 120 -24t83 -68q30 -42 45.5 -95t15.5 -108t-15.5 -107t-45.5 -94q-32 -43 -83.5 -67
t-119.5 -24h-256v587h256z" />
    <glyph glyph-name="Q" unicode="Q" horiz-adv-x="1525" 
d="M136 409q21 -75 53.5 -134t93.5 -127q66 -75 200 -121.5t308 -46.5l196 -228h334l-122 142l-122 139q89 37 156.5 101t102.5 135q32 67 48.5 116.5t26.5 107.5q21 121 21 244q0 94 -10 171q-21 165 -80 282q-63 122 -164 196q-68 49 -163.5 81t-248.5 32q-171 0 -267 -38
q-92 -37 -144.5 -73t-97.5 -89q-83 -98 -122 -239q-41 -148 -41 -323q0 -187 42 -328zM366 868q10 80 31 149.5t66 128.5q100 130 299 130q96 0 174 -32q73 -31 125 -96t74 -144q19 -71 25.5 -130.5t6.5 -136.5q0 -69 -6 -129q-17 -174 -98 -279q-99 -130 -301 -130
q-97 0 -173 32q-73 30 -124.5 95.5t-71.5 144.5q-19 75 -27 135.5t-8 130.5q0 65 8 131z" />
    <glyph glyph-name="R" unicode="R" horiz-adv-x="1310" 
d="M420 489h186q76 3 119 3l153 -308l91 -184h291l-283 563q121 79 177 201q48 104 48 215q0 66 -10 120q-28 161 -140 257q-141 119 -407 119h-483v-1475h258v489zM666 1251q75 0 126 -25q59 -28 102.5 -91t43.5 -141v-7q0 -51 -15 -99t-45 -86q-33 -42 -85 -65.5
t-121 -23.5h-252v538h246z" />
    <glyph glyph-name="S" unicode="S" horiz-adv-x="1181" 
d="M100 955q25 -140 123 -212q105 -79 281 -98q84 -11 137.5 -21t96.5 -29q104 -47 104 -163t-80.5 -174.5t-237.5 -58.5q-82 0 -153.5 9t-150.5 23l-111 19v-232q229 -43 436 -43q127 0 227 28q101 27 176.5 83t106.5 124q29 64 40 116.5t11 115.5q0 65 -11 120
q-35 150 -137 215q-60 38 -135 58t-176 35q-48 7 -111 20q-54 12 -88.5 25.5t-63 50.5t-30.5 105q0 107 58 144q55 35 112.5 48t137.5 13q147 0 374 -35v229q-226 29 -379 29q-60 0 -111 -4.5t-121 -17.5q-80 -16 -160 -64t-114 -108q-35 -62 -48 -115.5t-13 -124.5
q0 -63 10 -110z" />
    <glyph glyph-name="T" unicode="T" horiz-adv-x="1277" 
d="M510 0h258v1251h487v224h-1232v-224h487v-1251z" />
    <glyph glyph-name="U" unicode="U" horiz-adv-x="1478" 
d="M300 114.5q150 -139.5 439 -139.5q287 0 437.5 139.5t152.5 407.5v953h-258v-975q0 -74 -26.5 -130.5t-75.5 -95.5q-46 -37 -106 -56t-124 -19t-122 19t-105 56q-49 39 -76.5 96t-27.5 130v975h-258v-953q0 -268 150 -407.5z" />
    <glyph glyph-name="V" unicode="V" horiz-adv-x="1368" 
d="M864 0l492 1475h-281l-364 -1192h-39l-383 1192h-279l494 -1475h360z" />
    <glyph glyph-name="W" unicode="W" horiz-adv-x="2027" 
d="M735 -4l271 987h16l270 -987h340l355 1479h-263l-256 -1139h-10l-299 1139h-272l-299 -1139h-8l-267 1139h-274l356 -1479h340z" />
    <glyph glyph-name="X" unicode="X" horiz-adv-x="1316" 
d="M651 543l340 -543h316l-480 752l457 723h-299l-313 -531l-334 531h-307l469 -715l-490 -760h316z" />
    <glyph glyph-name="Y" unicode="Y" horiz-adv-x="1273" 
d="M508 0h258v504l504 971h-289l-330 -703h-12l-342 703h-293l504 -971v-504z" />
    <glyph glyph-name="Z" unicode="Z" horiz-adv-x="1325" 
d="M94 244v-244h1159v223h-837l803 1008v244h-1139v-224h821z" />
    <glyph glyph-name="bracketleft" unicode="[" horiz-adv-x="595" 
d="M504 -199h-121v1540h121v222h-344v-1983h344v221z" />
    <glyph glyph-name="backslash" unicode="\" horiz-adv-x="868" 
d="M811 -420l-528 1983h-230l533 -1983h225z" />
    <glyph glyph-name="bracketright" unicode="]" horiz-adv-x="595" 
d="M436 -420v1983h-344v-224h121v-1538h-121v-221h344z" />
    <glyph glyph-name="asciicircum" unicode="^" horiz-adv-x="1007" 
d="M498 1151h12l180 -383h234l-72 148l-111 227l-137 274h-205l-315 -649h238z" />
    <glyph glyph-name="underscore" unicode="_" horiz-adv-x="1081" 
d="M950 176h-819v-192h819v192z" />
    <glyph glyph-name="grave" unicode="`" horiz-adv-x="1024" 
d="M662 1260l-127 315h-265l197 -315h195z" />
    <glyph glyph-name="a" unicode="a" horiz-adv-x="1153" 
d="M90 181.5q27 -65.5 77 -109.5q48 -42 110.5 -64t134.5 -22q88 0 181 36t185 103h8l19 -125h215v745q0 195 -115 299q-112 99 -321 99q-95 0 -209 -12t-217 -35v-213q86 23 187 37t179 14q70 0 115 -13q129 -35 129 -152v-7v-84h-287q-98 0 -176 -23.5t-131 -68.5
q-54 -45 -82.5 -110t-28.5 -144q0 -85 27 -150.5zM367 461.5q50 38.5 151 38.5h250v-209q-59 -42 -130.5 -68t-143.5 -28q-80 0 -127.5 39.5t-49.5 115.5q0 73 50 111.5z" />
    <glyph glyph-name="b" unicode="b" horiz-adv-x="1249" 
d="M357 -8q111 -17 214 -17q120 0 228 30q112 32 189 101q86 76 130 187q47 120 47 293q0 77 -9 141q-26 186 -115 289q-56 64 -129.5 95.5t-155.5 31.5q-96 0 -186 -28.5t-181 -84.5v533h-252v-1524q109 -30 220 -47zM544.5 898q72.5 24 127.5 24q115 0 175 -86
q60 -85 60 -265q0 -197 -78 -292q-80 -96 -251 -96q-77 0 -189 22v622q83 47 155.5 71z" />
    <glyph glyph-name="c" unicode="c" horiz-adv-x="1077" 
d="M94 402q22 -134 93 -230q61 -85 157 -133q54 -27 128 -45.5t167 -18.5q186 0 352 52v219q-166 -51 -313 -51q-171 0 -259 101q-81 93 -81 263q0 185 88 276q84 87 252 87q154 0 313 -52v222q-168 51 -352 51q-109 0 -201 -27q-106 -31 -179 -93q-83 -71 -129 -179
q-48 -115 -48 -285q0 -86 12 -157z" />
    <glyph glyph-name="d" unicode="d" horiz-adv-x="1249" 
d="M93 391q26 -185 125 -289q60 -62 137 -92t167 -30q178 0 357 104l24 -84h205v1563h-250v-441q-95 21 -209 21q-119 0 -221 -30t-179 -101q-79 -72 -121 -188q-44 -121 -44 -294q0 -74 9 -139zM362 719q19 74 60 121t105 70q62 22 147 22q79 0 182 -19v-632
q-73 -42 -143.5 -65t-130.5 -23q-115 0 -174 82q-66 90 -66 268q0 101 20 176z" />
    <glyph glyph-name="e" unicode="e" horiz-adv-x="1187" 
d="M120 297q18 -58 45 -102.5t79 -95.5q55 -56 159.5 -90t237.5 -34q117 0 196 15q120 22 242 57v217q-95 -31 -197.5 -50t-181.5 -19q-172 0 -258 67q-94 74 -94 230h752v114q0 105 -21 201q-22 97 -75.5 172.5t-124.5 108.5q-70 31 -129 43t-136 12q-121 0 -220 -36
t-152 -92q-49 -52 -76.5 -98t-45.5 -103q-36 -108 -36 -255q0 -152 36 -262zM409 864q32 38 81 59t110 21q78 0 126 -24q51 -26 84.5 -87t33.5 -149v-10h-500q0 114 65 190z" />
    <glyph glyph-name="f" unicode="f" horiz-adv-x="784" 
d="M195 0h249v903h312v213h-320v92v8q0 54 15.5 89.5t56 55t113.5 19.5q63 0 180 -18v205q-105 20 -252 20q-191 0 -271 -80q-42 -41 -62.5 -102.5t-20.5 -147.5v-141l-138 -22v-191h138v-903z" />
    <glyph glyph-name="g" unicode="g" horiz-adv-x="1216" 
d="M186.5 -377q118.5 -67 362.5 -67q294 0 448 86q158 88 158 268q0 83 -27.5 140.5t-77.5 89.5q-89 55 -239 55h-334q-88 4 -88 73v6q2 56 33 93q69 -9 141 -9q207 0 334 78q152 93 152 295q0 67 -23 120t-65 89q76 0 114 -1q37 -1 105 -1v201q-69 -12 -119 -16
q-43 -4 -104 -4q-98 0 -201 12q-94 10 -191 12q-111 0 -201 -28t-152 -81q-63 -54 -95.5 -129t-32.5 -168q0 -55 14 -106q40 -145 174 -209q-50 -41 -77 -92t-27 -103q0 -86 88 -147v-10q-100 -37 -144 -99t-44 -140v-7q0 -134 118.5 -201zM569 948q116 -2 172 -56t56 -151
q0 -206 -228 -206q-229 0 -229 204q0 205 229 209zM370.5 -44.5q42.5 36.5 118.5 46.5h267q66 0 102.5 -30.5t36.5 -86.5q0 -87 -59 -113q-57 -24 -113 -32t-141 -8h-18q-122 0 -180 26.5t-58 96.5q2 64 44.5 100.5z" />
    <glyph glyph-name="h" unicode="h" horiz-adv-x="1253" 
d="M393 803q197 106 326 110q72 0 109.5 -37.5t37.5 -109.5v-766h252v813q0 88 -22 148q-44 121 -167 161q-59 19 -130 19q-92 0 -172 -31q-72 -28 -125 -53t-109 -58v564h-252v-1563h252v803z" />
    <glyph glyph-name="i" unicode="i" horiz-adv-x="534" 
d="M395 1520h-258v-250h258v250zM393 1118h-252v-1118h252v1118z" />
    <glyph glyph-name="j" unicode="j" horiz-adv-x="536" 
d="M399 1520h-258v-250h258v250zM313 -208q82 134 82 341v985h-252v-971q0 -79 -8.5 -135.5t-28.5 -99.5q-21 -44 -60 -84t-101 -82l121 -180q169 99 247 226z" />
    <glyph glyph-name="k" unicode="k" horiz-adv-x="1167" 
d="M391 418l133 55l113 -207q39 -70 84 -123q59 -69 132 -113t183 -44h17q34 0 65 6v225q-83 2 -145.5 43.5t-110.5 124.5l-110 190q151 89 215 229q57 125 57 281v33h-252v-47q0 -85 -20.5 -150t-57.5 -110q-63 -77 -164 -119l-139 -57v928h-250v-1563h250v418z" />
    <glyph glyph-name="l" unicode="l" horiz-adv-x="540" 
d="M395 1563h-250v-1563h250v1563z" />
    <glyph glyph-name="m" unicode="m" horiz-adv-x="1923" 
d="M393 803q85 54 157.5 83t135.5 29q79 0 116.5 -37t37.5 -110v-768h250v803q71 50 154.5 81t139.5 31q79 0 115.5 -37t36.5 -110v-768h252v811q0 169 -90 253q-42 39 -100.5 59t-129.5 20q-100 0 -205 -44q-104 -44 -206 -118q-36 80 -110.5 121t-176.5 41q-96 0 -197 -44
q-95 -42 -188 -106h-8v125h-236v-1118h252v803z" />
    <glyph glyph-name="n" unicode="n" horiz-adv-x="1251" 
d="M391 803q91 50 175 80t151 32q78 0 113.5 -37.5t35.5 -111.5v-766h250v813q0 167 -85 250q-81 80 -238 80q-88 0 -198 -43q-114 -46 -212 -107h-8v125h-234v-1118h250v803z" />
    <glyph glyph-name="o" unicode="o" horiz-adv-x="1286" 
d="M126 293q41 -107 121 -181q73 -68 178 -103q104 -34 218 -34q120 0 218 35q102 35 179 103q78 69 123 182q43 112 43 264q0 151 -43 265q-44 112 -123 182q-77 68 -179 103q-99 34 -218 34q-113 0 -218 -33q-96 -30 -178 -104q-80 -72 -121 -180q-44 -112 -44 -267
q0 -75 11 -144q10 -66 33 -122zM412 829q74 97 233 97q158 0 231 -97q70 -97 70 -270q0 -176 -70 -271q-73 -98 -231 -98t-233 98q-72 94 -72 271q0 87 18 154q16 66 54 116z" />
    <glyph glyph-name="p" unicode="p" horiz-adv-x="1249" 
d="M391 12q131 -30 246 -30q53 0 111 8q68 11 135 37t115 75q51 52 79 98.5t49 107.5q39 114 39 280q0 70 -8 136q-24 184 -111 287q-56 65 -127.5 97.5t-154.5 32.5q-90 0 -185.5 -36t-187.5 -104v117h-250v-1538h250v432zM546 891q75 29 138 29h6q96 0 139 -60
q44 -61 61 -126.5t17 -160.5q0 -187 -73 -286q-75 -99 -228 -99q-91 0 -215 31v586q80 57 155 86z" />
    <glyph glyph-name="q" unicode="q" horiz-adv-x="1251" 
d="M93 393q26 -187 117 -290q56 -64 129.5 -96t156.5 -32q95 0 183.5 28.5t180.5 84.5v-508h252v1499q-108 30 -219.5 47t-214.5 17q-120 0 -227 -30q-115 -32 -190 -100q-85 -77 -128 -187q-49 -122 -49 -294q0 -74 9 -139zM360 711q36 147 157 196q62 25 152 25
q78 0 191 -21v-622q-79 -46 -151.5 -70t-130.5 -24q-115 0 -174 87q-62 89 -62 265q0 92 18 164z" />
    <glyph glyph-name="r" unicode="r" horiz-adv-x="835" 
d="M391 725q116 52 207 86q101 37 205 53v260q-70 -5 -123 -23q-99 -34 -209 -109q-49 -35 -92 -62v188h-238v-1118h250v725z" />
    <glyph glyph-name="s" unicode="s" horiz-adv-x="1013" 
d="M203 548q90 -60 233 -79q84 -11 135 -24.5t81.5 -40t31.5 -72.5q0 -73 -52.5 -108.5t-164.5 -35.5q-122 0 -363 35l-8 -223q84 -10 189.5 -17.5t193.5 -7.5q228 0 345.5 92.5t117.5 274.5q0 181 -119 255q-50 31 -111.5 48.5t-138.5 28.5q-76 9 -123.5 22.5t-75 39
t-28.5 69.5q0 64 56 93.5t180 29.5q62 0 140.5 -9t151.5 -22l9 217q-183 29 -330 29q-214 0 -332 -78q-133 -87 -133 -272q0 -169 115 -245z" />
    <glyph glyph-name="t" unicode="t" horiz-adv-x="817" 
d="M188 236q0 -82 22 -130q24 -56 80 -92.5t144 -36.5h19q105 0 286 33v215q-78 -25 -159 -26h-8q-56 -1 -93 28.5t-39 94.5v581h342v213h-340v248h-82l-317 -305v-156h145v-667z" />
    <glyph glyph-name="u" unicode="u" horiz-adv-x="1253" 
d="M222 54q83 -79 239 -79q95 0 171 30q72 28 124.5 54.5t113.5 63.5h9l20 -123h213v1118h-252v-805q-87 -49 -172 -78.5t-153 -31.5q-78 0 -113 37.5t-35 111.5v766h-252v-815q0 -167 87 -249z" />
    <glyph glyph-name="v" unicode="v" horiz-adv-x="1134" 
d="M727 -2l377 1120h-264l-265 -844h-12l-264 844h-266l373 -1120h321z" />
    <glyph glyph-name="w" unicode="w" horiz-adv-x="1904" 
d="M221 77q91 -102 281 -102q106 0 206 46q101 48 187 126q67 -90 168 -132q93 -40 223 -40q211 0 339 85q149 99 149 315v743h-252v-737q0 -59 -24 -97q-25 -38 -81 -64t-111 -26q-11 0 -16 1q-101 0 -160 44t-61 136v743h-238v-678q1 -69 9 -135q-80 -54 -149 -82
t-132 -28q-87 0 -131.5 38t-44.5 111v774h-250v-745q0 -198 88 -296z" />
    <glyph glyph-name="x" unicode="x" horiz-adv-x="1177" 
d="M586 381l268 -381h301l-405 573l405 545h-313l-250 -362l-254 362h-313l403 -557l-405 -561h301z" />
    <glyph glyph-name="y" unicode="y" horiz-adv-x="1146" 
d="M393 0h107l-140 -420h263l489 1538h-268l-164 -529l-90 -294q-7 -21 -8 -25h-19l-191 638q-25 85 -65 210h-274z" />
    <glyph glyph-name="z" unicode="z" horiz-adv-x="1124" 
d="M92 182v-182h965v215h-625l584 723v180h-936v-215h604z" />
    <glyph glyph-name="braceleft" unicode="{" horiz-adv-x="933" 
d="M119 418q70 -1 99 -43q26 -38 26 -109q0 -55 -17 -140q-16 -78 -23 -132t-7 -113q0 -176 90 -282q49 -57 129 -88t192 -31q123 0 266 33v219q-131 -37 -223 -37q-107 0 -161 53t-54 156q1 79 22 185q21 108 21 212q0 73 -25.5 132.5t-82.5 92.5v13q66 37 88 104
q21 65 21 143q0 83 -22 193q-21 106 -22 182q0 106 54 157.5t161 51.5q51 0 104.5 -10t118.5 -27v219q-125 35 -266 35q-218 0 -320 -118q-89 -103 -89 -283q0 -60 6.5 -114t22.5 -132q16 -86 16 -157q0 -132 -125 -136q-19 0 -53 2v-233q32 2 53 2z" />
    <glyph glyph-name="bar" unicode="|" horiz-adv-x="573" 
d="M414 1563h-254v-1983h254v1983z" />
    <glyph glyph-name="braceright" unicode="}" horiz-adv-x="933" 
d="M326 -520q217 0 320 119q89 103 89 282q0 59 -6.5 113t-21.5 134q-17 82 -17 156q0 132 125 136q19 0 53 -2v233q-32 -2 -53 -2q-72 1 -99 44q-26 40 -26 107q0 51 18 141q16 79 22.5 133t6.5 112q0 177 -90 283q-100 118 -321 118q-124 0 -267 -33v-219q133 37 224 37
q107 0 161 -53t54 -156q-1 -83 -21 -184q-22 -113 -22 -213q0 -73 25.5 -132.5t82.5 -92.5v-13q-65 -36 -87 -103q-21 -64 -21 -143q0 -84 22 -194q20 -101 21 -182q0 -107 -53 -158t-162 -51q-51 0 -105.5 10t-118.5 27v-219q127 -35 267 -35z" />
    <glyph glyph-name="asciitilde" unicode="~" horiz-adv-x="1222" 
d="M383 588q52 0 104 -10t135 -30q72 -19 132.5 -29.5t122.5 -10.5q101 0 213 51l-25 176q-80 -37 -171 -37q-52 0 -104.5 10t-132.5 30q-77 18 -138 28t-124 10q-135 0 -260 -61l19 -187q115 60 229 60z" />
    <glyph glyph-name="uni00A0" unicode="&#xa0;" horiz-adv-x="509" 
 />
    <glyph glyph-name="exclamdown" unicode="&#xa1;" horiz-adv-x="559" 
d="M414 1055h-269v-258h269v258zM406 598h-250v-1018h250v1018z" />
    <glyph glyph-name="cent" unicode="&#xa2;" horiz-adv-x="1083" 
d="M75 421q25 -178 124 -284q60 -65 137 -102t166 -47v-334h219v328q128 6 256 45v225q-171 -51 -313 -51q-173 0 -260 98q-80 90 -80 258q0 190 87 273t253 83q152 0 313 -51v228q-124 40 -256 47v327h-219v-334q-88 -12 -164 -49q-78 -37 -139.5 -103.5t-87.5 -143.5
q-26 -75 -35.5 -137t-9.5 -140q0 -74 9 -136z" />
    <glyph glyph-name="sterling" unicode="&#xa3;" horiz-adv-x="1116" 
d="M1034 229h-248q-207 0 -335 -22q80 58 105 177q17 82 17 206v45h353v221h-340v37q0 187 78 283q74 91 243 116l-30 230q-129 -9 -232 -53.5t-159 -108.5q-51 -58 -78.5 -107t-46.5 -109q-37 -112 -37 -255v-33h-166v-221h161v-45q0 -78 -6 -137t-25 -108
q-49 -121 -196 -132l-29 -213h971v229z" />
    <glyph glyph-name="yen" unicode="&#xa5;" horiz-adv-x="1402" 
d="M158 711v-211h415v-115h-415v-211h415v-174h258v174h414v211h-414v115h414v211h-309l399 764h-288l-328 -703h-14l-343 703h-292l397 -764h-309z" />
    <glyph glyph-name="brokenbar" unicode="&#xa6;" horiz-adv-x="577" 
d="M416 1563h-254v-922h254v922zM416 502h-254v-922h254v922z" />
    <glyph glyph-name="section" unicode="&#xa7;" horiz-adv-x="1087" 
d="M152.5 1053.5q31.5 -62.5 83.5 -101.5q-115 -104 -115 -260q0 -171 115 -244q90 -60 233 -79q85 -12 135.5 -25.5t81 -40t31.5 -72.5q0 -72 -52.5 -107.5t-164.5 -35.5q-122 0 -363 35l-8 -223q78 -11 184 -18t199 -7q228 0 345.5 92.5t117.5 274.5q0 70 -21.5 118
t-64.5 82q43 62 70.5 140.5t29.5 152.5q0 85 -25 141q-44 98 -168 146q-49 18 -101.5 30t-123.5 25q-8 1 -64.5 10.5t-92 41t-37.5 81.5q0 64 55.5 93.5t179.5 29.5q64 0 142.5 -8.5t150.5 -21.5l8 217q-175 28 -329 28q-215 0 -333 -77q-64 -41 -98 -110t-34 -163
q2 -82 33.5 -144.5zM426 868l132 -31q55 -13 123 -38q33 -13 49.5 -43t16.5 -71q0 -35 -11 -73t-31 -75q-59 17 -115 24q-54 7 -107 23q-52 15 -80 48t-28 91q1 68 51 145z" />
    <glyph glyph-name="dieresis" unicode="&#xa8;" horiz-adv-x="1705" 
d="M770 1511h-223v-256h223v256zM1274 1511h-223v-256h223v256z" />
    <glyph glyph-name="copyright" unicode="&#xa9;" horiz-adv-x="1726" 
d="M151 441q30 -72 72.5 -132.5t119.5 -136.5q54 -54 135.5 -98.5t180.5 -71.5t203 -27t204 27t182 71.5t136 98.5q76 76 118.5 136.5t73.5 132.5q60 138 60 298q0 163 -60 301q-32 72 -74.5 133t-117.5 136q-54 53 -136 97.5t-182 71.5t-204 27t-203 -27t-180.5 -71.5
t-135.5 -97.5q-76 -75 -118.5 -136t-73.5 -133q-61 -140 -61 -301q0 -158 61 -298zM256 998q26 61 62 113t101 118q70 72 190 120t253 48q132 0 252.5 -48t192.5 -120q66 -66 102 -118t62 -113q51 -127 51 -259t-51 -256q-26 -61 -62.5 -113.5t-101.5 -117.5
q-72 -72 -192 -120t-253 -48t-253 48t-190 120q-64 65 -100.5 117.5t-62.5 113.5q-51 121 -51 256t51 259zM645 492q45 -45 107 -68q65 -24 149 -24q80 0 168 22v143q-74 -17 -158 -22q-98 -2 -148 45t-50 160q0 112 50 159t148 45q84 -5 158 -22v143q-94 23 -180 21
q-154 0 -244 -90q-94 -96 -94 -256q0 -85 25 -147q24 -64 69 -109z" />
    <glyph glyph-name="ordfeminine" unicode="&#xaa;" horiz-adv-x="880" 
d="M168.5 678q68.5 -57 175.5 -57q68 0 129.5 21.5t128.5 66.5l14 -78h132v481q0 74 -19.5 127t-59.5 89q-76 69 -237 69q-114 0 -278 -37v-152q128 33 249 33q92 0 133.5 -30.5t41.5 -96.5v-35h-170q-161 0 -233 -55q-77 -59 -77 -180q2 -109 70.5 -166zM318 944
q45 22 116 19h144v-150q-93 -49 -177 -51q-62 0 -96.5 25t-34.5 73q3 62 48 84z" />
    <glyph glyph-name="guillemotleft" unicode="&#xab;" horiz-adv-x="1191" 
d="M631 29l-312 530l312 528h-242l-313 -528l315 -530h240zM1118 29l-311 530l311 528h-239l-316 -528l316 -530h239z" />
    <glyph glyph-name="logicalnot" unicode="&#xac;" horiz-adv-x="1269" 
d="M932 160l190 -19v523h-985v-220h795v-284z" />
    <glyph glyph-name="uni00AD" unicode="&#xad;" horiz-adv-x="1107" 
d="M975 662h-842v-207h842v207z" />
    <glyph glyph-name="registered" unicode="&#xae;" horiz-adv-x="1062" 
d="M124.5 892q34.5 -79 96.5 -140q61 -61 140.5 -94t170.5 -33t170 33t141 94t96 140t34 169t-34.5 170.5t-95.5 141.5q-62 60 -141 93t-170 33t-170.5 -33t-140.5 -93q-62 -61 -96.5 -141.5t-34.5 -170.5t34.5 -169zM199.5 1202q27.5 66 77.5 115q51 50 116 77t139 27
q73 0 139 -27.5t116 -76.5q50 -50 78 -115.5t28 -140.5t-28 -140.5t-78 -115.5t-116 -77.5t-139 -27.5q-74 0 -139 27.5t-116 77.5q-50 49 -77.5 115t-27.5 141t27.5 141zM481 999h70l67 -139h107l-82 162q74 53 70 123q-2 80 -48.5 115.5t-125.5 33.5h-156v-434h98v139z
M537 1214q83 -6 77 -67q1 -4 1 -11q0 -52 -78 -61h-56v139h56z" />
    <glyph glyph-name="macron" unicode="&#xaf;" horiz-adv-x="1230" 
d="M1026 1475h-821v-203h821v203z" />
    <glyph glyph-name="degree" unicode="&#xb0;" horiz-adv-x="653" 
d="M122.5 1126q31.5 -53 85 -81.5t120.5 -30.5q67 2 120 30.5t84.5 81t32.5 123.5q-1 71 -32.5 123.5t-84.5 80.5t-120 30q-68 -2 -121.5 -30t-84.5 -80.5t-32 -123.5q1 -70 32.5 -123zM242.5 1339q31.5 33 85.5 33q53 0 83.5 -34t30.5 -89q0 -57 -30.5 -90t-83.5 -33
q-56 0 -86.5 32.5t-30.5 90.5q0 57 31.5 90z" />
    <glyph glyph-name="plusminus" unicode="&#xb1;" horiz-adv-x="1212" 
d="M504 326h205v374h381v205h-381v375h-205v-375h-381v-205h381v-374zM1090 182h-967v-182h967v182z" />
    <glyph glyph-name="uni00B2" unicode="&#xb2;" horiz-adv-x="862" 
d="M743 766h-340q132 95 223 207q93 115 93 237q0 157 -99 222q-88 57 -225 57q-52 0 -123 -9t-131 -20v-174q96 24 185 25q95 0 143.5 -31t48.5 -96q0 -54 -32.5 -109.5t-94.5 -114.5q-97 -95 -276 -223v-145h628v174z" />
    <glyph glyph-name="uni00B3" unicode="&#xb3;" horiz-adv-x="827" 
d="M236 574.5q62 -5.5 110 -5.5q172 0 276 69q103 69 103 202q0 69 -42 124t-120 78q71 35 109.5 91t38.5 120q0 59 -24 104.5t-68 74.5q-87 57 -232 57q-58 0 -128 -9t-128 -24v-176q117 31 215 31q69 2 112.5 -21.5t45.5 -77.5q-2 -54 -45.5 -82t-108.5 -28h-121v-135h136
q70 0 110.5 -27.5t42.5 -77.5q-2 -60 -48 -87t-131 -27q-109 0 -214 16v-176q49 -8 111 -13.5z" />
    <glyph glyph-name="acute" unicode="&#xb4;" horiz-adv-x="868" 
d="M627 1575h-265l-126 -315h194z" />
    <glyph glyph-name="paragraph" unicode="&#xb6;" horiz-adv-x="1161" 
d="M93.5 830q32.5 -84 94.5 -147q61 -63 143.5 -97.5t180.5 -34.5h150v924h-140q-102 0 -186 -34t-147 -97q-62 -62 -95 -146.5t-33 -183.5q0 -100 32.5 -184zM483 -434q146 0 245 33q94 31 155.5 92t82.5 132q18 62 24.5 112.5t6.5 113.5v1426h-258v-1409
q0 -72 -14.5 -121.5t-47.5 -81.5q-34 -33 -88 -48.5t-134 -15.5q-63 0 -146 8v-231q93 -10 174 -10z" />
    <glyph glyph-name="periodcentered" unicode="&#xb7;" horiz-adv-x="491" 
d="M358 690h-225v-282h225v282z" />
    <glyph glyph-name="cedilla" unicode="&#xb8;" horiz-adv-x="956" 
d="M394 -443q72 0 119 9q72 14 124 52t55 126q0 76 -50.5 118t-154.5 50q25 39 52 88h-154l-76 -147v-23q88 -1 145 -18q56 -17 58 -56q0 -35 -39 -50.5t-100 -15.5q-71 0 -144 15v-133q75 -15 165 -15z" />
    <glyph glyph-name="uni00B9" unicode="&#xb9;" horiz-adv-x="591" 
d="M248 592h198v885h-155l-221 -93v-184l178 68v-676z" />
    <glyph glyph-name="ordmasculine" unicode="&#xba;" horiz-adv-x="946" 
d="M204 696q101 -92 269 -92q170 0 272 92q111 100 111 303q0 195 -111 300q-102 96 -272 96q-169 0 -269 -96q-53 -51 -82.5 -127t-29.5 -173q0 -201 112 -303zM319.5 1175.5q49.5 59.5 153.5 59.5q105 0 155 -59.5t50 -176.5q0 -235 -205 -235q-104 0 -153.5 59t-49.5 176
t49.5 176.5z" />
    <glyph glyph-name="guillemotright" unicode="&#xbb;" horiz-adv-x="1191" 
d="M629 557l-316 530h-239l311 -530l-311 -528h239zM1116 557l-315 530h-240l311 -530l-311 -528h242z" />
    <glyph glyph-name="onequarter" unicode="&#xbc;" horiz-adv-x="1810" 
d="M1323 1563h-217l-901 -1753h215zM248 592h198v885h-149l-227 -93v-184l178 66v-674zM1419 0h197v182h133v170h-133v275h-162l-35 -172v-101h-235l192 529h-198l-193 -535v-166h434v-182z" />
    <glyph glyph-name="onehalf" unicode="&#xbd;" horiz-adv-x="1761" 
d="M1317 1563h-217l-901 -1753h215zM242 592h198v885h-149l-228 -93v-184l179 66v-674zM1688 174h-340q140 102 221 205q92 118 92 237q0 79 -25.5 135.5t-72.5 88.5q-43 29 -101.5 43t-124.5 14q-55 0 -126.5 -9t-125.5 -22v-174q93 24 185 25q95 0 142.5 -30t47.5 -95
q0 -101 -127 -225q-94 -93 -274 -222v-145h629v174z" />
    <glyph glyph-name="threequarters" unicode="&#xbe;" horiz-adv-x="1955" 
d="M1468 1563h-217l-901 -1753h215zM207 574.5q62 -5.5 110 -5.5q173 0 276 69t103 202q0 69 -41.5 124t-119.5 78q70 35 108.5 91t38.5 120q0 59 -24 104.5t-69 74.5q-89 57 -231 57q-60 0 -129 -8.5t-127 -24.5v-176q46 12 108 21.5t118 9.5q66 0 104.5 -24t40.5 -75
q-2 -54 -44.5 -82t-106.5 -28h-123v-135h135q70 0 111.5 -27.5t43.5 -77.5q-2 -60 -48 -87t-131 -27q-111 0 -214 16v-176q49 -8 111 -13.5zM1565 0h196v182h133v170h-133v275h-162l-34 -172v-101h-236l193 529h-199l-193 -535v-166h435v-182z" />
    <glyph glyph-name="questiondown" unicode="&#xbf;" horiz-adv-x="960" 
d="M696 1055h-252v-221h252v221zM90 -313q33 -68 94 -116q61 -49 146 -75t188 -26q84 0 182 12.5t191 36.5v239q-156 -47 -291 -47q-126 0 -195 44.5t-69 125.5q1 41 22.5 78t50 67t75.5 72l19 17q56 51 87 88q74 87 102 196q14 57 14 124q0 57 -10 112h-250q13 -59 13 -107
q-5 -105 -48 -163q-41 -55 -74.5 -92t-78.5 -78q-81 -77 -137 -158q-64 -94 -64 -201q0 -81 33 -149z" />
    <glyph glyph-name="Agrave" unicode="&#xc0;" 
d="M817 1587l-127 316h-264l197 -316h194zM385 309h614l103 -309h272l-504 1477h-358l-502 -1477h273zM700 1255l234 -718h-494l238 718h22z" />
    <glyph glyph-name="Aacute" unicode="&#xc1;" 
d="M989 1903h-264l-127 -316h195zM385 309h614l103 -309h272l-504 1477h-358l-502 -1477h273zM700 1255l234 -718h-494l238 718h22z" />
    <glyph glyph-name="Acircumflex" unicode="&#xc2;" 
d="M577 1630l115 185l142 -228h217l-205 324h-309l-103 -162l-102 -162h219zM385 309h614l103 -309h272l-504 1477h-358l-502 -1477h273zM700 1255l234 -718h-494l238 718h22z" />
    <glyph glyph-name="Atilde" unicode="&#xc3;" 
d="M355 1678.5q65 31.5 128 31.5q61 -2 110.5 -20t101.5 -51q54 -33 103 -51.5t111 -20.5q64 0 129.5 31.5t122.5 84.5v197q-58 -54 -123.5 -85.5t-128.5 -31.5q-61 2 -110.5 20.5t-101.5 51.5t-101.5 51.5t-112.5 20.5q-63 0 -129 -32t-123 -85v-197q59 54 124 85.5z
M385 309h614l103 -309h272l-504 1477h-358l-502 -1477h273zM700 1255l234 -718h-494l238 718h22z" />
    <glyph glyph-name="Adieresis" unicode="&#xc4;" 
d="M551 1843h-223v-256h223v256zM1055 1843h-224v-256h224v256zM385 309h614l103 -309h272l-504 1477h-358l-502 -1477h273zM700 1255l234 -718h-494l238 718h22z" />
    <glyph glyph-name="Aring" unicode="&#xc5;" 
d="M385 309h614l103 -309h272l-497 1458q43 39 43 105q0 94 -60.5 150.5t-169.5 58.5q-109 -3 -168 -59t-59 -150q0 -68 43 -107l-496 -1456h273zM690 1663q107 -12 101 -100q5 -89 -101 -101q-104 14 -98 101q-6 88 98 100zM700 1253l234 -716h-494l238 716h22z" />
    <glyph glyph-name="AE" unicode="&#xc6;" horiz-adv-x="2050" 
d="M360 155q54 110 80 154h529v-309h987v229h-727v398h629v231h-629v385h731v232h-1227q-6 -9 -32 -60l-21 -39l-115 -227l-411 -823l-115 -226l-26 -50q-7 -12 -13.5 -25.5t-13.5 -24.5h297q33 63 77 155zM969 1243v-711h-426l348 711h78z" />
    <glyph glyph-name="Ccedilla" unicode="&#xc7;" horiz-adv-x="1255" 
d="M128 445q18 -69 44.5 -125.5t76.5 -125.5q55 -77 160 -135t240 -75l-67 -131v-23q89 -2 144 -18q56 -17 58 -56q0 -35 -38.5 -50.5t-99.5 -15.5q-71 0 -144 15v-133q75 -15 164 -15q72 0 120 9q73 14 124.5 52t54.5 126q0 76 -50.5 118t-154.5 50l37 63q89 2 187.5 18.5
t186.5 45.5v231q-88 -34 -182.5 -52.5t-181.5 -18.5q-94 0 -172 28q-80 27 -142.5 90.5t-88.5 142.5q-26 76 -36 140t-10 145q0 73 9 134q11 80 36.5 151t79.5 127q59 61 143 90t195 29q84 -2 178 -19.5t168 -42.5v236q-192 49 -393 49q-166 0 -293 -52t-215 -152
q-86 -99 -129 -239t-43 -317q0 -165 34 -294z" />
    <glyph glyph-name="Egrave" unicode="&#xc8;" horiz-adv-x="1239" 
d="M780 1587l-127 316h-264l197 -316h194zM1147 223h-727v408h631v221h-631v399h731v224h-989v-1475h985v223z" />
    <glyph glyph-name="Eacute" unicode="&#xc9;" horiz-adv-x="1239" 
d="M887 1903h-264l-127 -316h194zM1147 223h-727v408h631v221h-631v399h731v224h-989v-1475h985v223z" />
    <glyph glyph-name="Ecircumflex" unicode="&#xca;" horiz-adv-x="1239" 
d="M536 1630l115 185l142 -228h217l-205 324h-309l-103 -162l-102 -162h219zM1147 223h-727v408h631v221h-631v399h731v224h-989v-1475h985v223z" />
    <glyph glyph-name="Edieresis" unicode="&#xcb;" horiz-adv-x="1239" 
d="M539 1843h-224v-256h224v256zM1042 1843h-223v-256h223v256zM1147 223h-727v408h631v221h-631v399h731v224h-989v-1475h985v223z" />
    <glyph glyph-name="Igrave" unicode="&#xcc;" horiz-adv-x="581" 
d="M406 1587l-127 316h-265l197 -316h195zM420 1475h-258v-1475h258v1475z" />
    <glyph glyph-name="Iacute" unicode="&#xcd;" horiz-adv-x="581" 
d="M584 1903h-265l-126 -316h194zM420 1475h-258v-1475h258v1475z" />
    <glyph glyph-name="Icircumflex" unicode="&#xce;" horiz-adv-x="581" 
d="M291 1815l141 -228h217l-205 324h-309l-102 -162l-103 -162h220q58 99 141 228zM420 1475h-258v-1475h258v1475z" />
    <glyph glyph-name="Idieresis" unicode="&#xcf;" horiz-adv-x="581" 
d="M170 1843h-223v-256h223v256zM674 1843h-223v-256h223v256zM420 1475h-258v-1475h258v1475z" />
    <glyph glyph-name="Eth" unicode="&#xd0;" horiz-adv-x="1548" 
d="M242 0h524q153 0 246 34q90 32 146.5 66.5t103.5 81.5q94 94 143 231q51 141 51 322q0 95 -13 173q-25 159 -99 278q-75 116 -182 184q-71 45 -165.5 75t-230.5 30h-524v-633h-240v-230h240v-612zM770 612v230h-268v401h233q60 0 109.5 -10t110.5 -36q63 -28 120.5 -95
t79.5 -137q20 -66 27.5 -118.5t7.5 -111.5q0 -58 -7 -107q-9 -67 -32.5 -131.5t-74.5 -125.5q-121 -142 -341 -142h-233v383h268z" />
    <glyph glyph-name="Ntilde" unicode="&#xd1;" horiz-adv-x="1556" 
d="M416.5 1676.5q65.5 31.5 128.5 31.5q60 -2 110 -20.5t102 -50.5q54 -33 103 -51.5t111 -20.5q63 0 129 31.5t123 84.5v197q-60 -54 -124.5 -85.5t-127.5 -31.5q-61 2 -110.5 20.5t-101.5 51.5t-101.5 51.5t-112.5 20.5q-63 0 -128.5 -31.5t-123.5 -85.5v-197
q58 54 123.5 85.5zM420 1047l696 -1047h279v1475h-258v-1072l-695 1072h-280v-1475h258v1047z" />
    <glyph glyph-name="Ograve" unicode="&#xd2;" horiz-adv-x="1523" 
d="M870 1587l-127 316h-264l197 -316h194zM185 285q58 -116 166 -196q67 -49 163 -81.5t250 -32.5q170 0 266 38q89 36 142.5 73.5t98.5 89.5q84 97 123 239q40 145 40 322q0 94 -10 171q-21 165 -80 282q-63 122 -167 196q-69 49 -164.5 81t-248.5 32q-170 0 -266 -38
q-91 -37 -144 -73.5t-97 -88.5q-83 -98 -122 -239q-41 -148 -41 -323q0 -86 11 -171q22 -169 80 -281zM365 868q17 172 98 278q100 130 303 130q96 0 174 -32q73 -31 124 -96t73 -144q19 -71 25.5 -130.5t6.5 -136.5q0 -69 -6 -129q-17 -174 -98 -279q-99 -130 -303 -130
q-96 0 -174 32q-73 30 -124 95t-72 145q-20 72 -27 131.5t-7 134.5q0 74 7 131z" />
    <glyph glyph-name="Oacute" unicode="&#xd3;" horiz-adv-x="1523" 
d="M1018 1903h-264l-127 -316h194zM185 285q58 -116 166 -196q67 -49 163 -81.5t250 -32.5q170 0 266 38q89 36 142.5 73.5t98.5 89.5q84 97 123 239q40 145 40 322q0 94 -10 171q-21 165 -80 282q-63 122 -167 196q-69 49 -164.5 81t-248.5 32q-170 0 -266 -38
q-91 -37 -144 -73.5t-97 -88.5q-83 -98 -122 -239q-41 -148 -41 -323q0 -86 11 -171q22 -169 80 -281zM365 868q17 172 98 278q100 130 303 130q96 0 174 -32q73 -31 124 -96t73 -144q19 -71 25.5 -130.5t6.5 -136.5q0 -69 -6 -129q-17 -174 -98 -279q-99 -130 -303 -130
q-96 0 -174 32q-73 30 -124 95t-72 145q-20 72 -27 131.5t-7 134.5q0 74 7 131z" />
    <glyph glyph-name="Ocircumflex" unicode="&#xd4;" horiz-adv-x="1523" 
d="M760 1815l141 -228h217l-205 324h-309l-102 -162l-103 -162h219zM185 285q58 -116 166 -196q67 -49 163 -81.5t250 -32.5q170 0 266 38q89 36 142.5 73.5t98.5 89.5q84 97 123 239q40 145 40 322q0 94 -10 171q-21 165 -80 282q-63 122 -167 196q-69 49 -164.5 81
t-248.5 32q-170 0 -266 -38q-91 -37 -144 -73.5t-97 -88.5q-83 -98 -122 -239q-41 -148 -41 -323q0 -86 11 -171q22 -169 80 -281zM365 868q17 172 98 278q100 130 303 130q96 0 174 -32q73 -31 124 -96t73 -144q19 -71 25.5 -130.5t6.5 -136.5q0 -69 -6 -129
q-17 -174 -98 -279q-99 -130 -303 -130q-96 0 -174 32q-73 30 -124 95t-72 145q-20 72 -27 131.5t-7 134.5q0 74 7 131z" />
    <glyph glyph-name="Otilde" unicode="&#xd5;" horiz-adv-x="1523" 
d="M413.5 1678.5q65.5 31.5 129.5 31.5q60 -2 110 -20.5t102 -50.5q54 -33 103 -51.5t111 -20.5q63 0 129 31.5t123 84.5v197q-60 -54 -124.5 -85.5t-127.5 -31.5q-61 2 -110.5 20.5t-101.5 51.5t-101.5 51.5t-112.5 20.5q-63 0 -128.5 -31.5t-123.5 -85.5v-197
q57 54 122.5 85.5zM185 285q58 -116 166 -196q67 -49 163 -81.5t250 -32.5q170 0 266 38q89 36 142.5 73.5t98.5 89.5q84 97 123 239q40 145 40 322q0 94 -10 171q-21 165 -80 282q-63 122 -167 196q-69 49 -164.5 81t-248.5 32q-170 0 -266 -38q-91 -37 -144 -73.5
t-97 -88.5q-83 -98 -122 -239q-41 -148 -41 -323q0 -86 11 -171q22 -169 80 -281zM365 868q17 172 98 278q100 130 303 130q96 0 174 -32q73 -31 124 -96t73 -144q19 -71 25.5 -130.5t6.5 -136.5q0 -69 -6 -129q-17 -174 -98 -279q-99 -130 -303 -130q-96 0 -174 32
q-73 30 -124 95t-72 145q-20 72 -27 131.5t-7 134.5q0 74 7 131z" />
    <glyph glyph-name="Odieresis" unicode="&#xd6;" horiz-adv-x="1523" 
d="M623 1843h-224v-256h224v256zM1126 1843h-223v-256h223v256zM185 285q58 -116 166 -196q67 -49 163 -81.5t250 -32.5q170 0 266 38q89 36 142.5 73.5t98.5 89.5q84 97 123 239q40 145 40 322q0 94 -10 171q-21 165 -80 282q-63 122 -167 196q-69 49 -164.5 81t-248.5 32
q-170 0 -266 -38q-91 -37 -144 -73.5t-97 -88.5q-83 -98 -122 -239q-41 -148 -41 -323q0 -86 11 -171q22 -169 80 -281zM365 868q17 172 98 278q100 130 303 130q96 0 174 -32q73 -31 124 -96t73 -144q19 -71 25.5 -130.5t6.5 -136.5q0 -69 -6 -129q-17 -174 -98 -279
q-99 -130 -303 -130q-96 0 -174 32q-73 30 -124 95t-72 145q-20 72 -27 131.5t-7 134.5q0 74 7 131z" />
    <glyph glyph-name="multiply" unicode="&#xd7;" horiz-adv-x="1038" 
d="M518 422l266 -264l144 143l-264 266l268 271l-144 143l-270 -268l-266 264l-143 -143l264 -267l-269 -270l144 -143z" />
    <glyph glyph-name="Oslash" unicode="&#xd8;" horiz-adv-x="1525" 
d="M144 383q47 -149 153 -250l-133 -221h237q18 32 70 115q136 -52 295 -52q170 0 266 38q89 36 141 73t97 89q82 95 122 240t40 322q0 202 -46 347q-49 151 -145 247l135 232h-233l-74 -125q-126 61 -303 61q-171 0 -267 -38q-92 -37 -144.5 -73t-97.5 -89
q-83 -98 -122 -239q-41 -148 -41 -323q0 -201 50 -354zM366 867q10 79 31 148.5t66 126.5q100 126 299 126q104 0 182 -39l-504 -850q-41 59 -56 127q-15 66 -20.5 118t-5.5 113q0 66 8 130zM1165 737q0 -69 -6 -128q-18 -177 -96 -277q-100 -129 -301 -129q-93 0 -168 35
l498 843q73 -118 73 -344z" />
    <glyph glyph-name="Ugrave" unicode="&#xd9;" horiz-adv-x="1478" 
d="M852 1587l-127 316h-264l196 -316h195zM300 114.5q150 -139.5 439 -139.5q287 0 437.5 139.5t152.5 407.5v953h-258v-975q0 -74 -26.5 -130.5t-75.5 -95.5q-46 -37 -106 -56t-124 -19t-122 19t-105 56q-49 39 -76.5 96t-27.5 130v975h-258v-953q0 -268 150 -407.5z" />
    <glyph glyph-name="Uacute" unicode="&#xda;" horiz-adv-x="1478" 
d="M1010 1903h-265l-127 -316h195zM300 114.5q150 -139.5 439 -139.5q287 0 437.5 139.5t152.5 407.5v953h-258v-975q0 -74 -26.5 -130.5t-75.5 -95.5q-46 -37 -106 -56t-124 -19t-122 19t-105 56q-49 39 -76.5 96t-27.5 130v975h-258v-953q0 -268 150 -407.5z" />
    <glyph glyph-name="Ucircumflex" unicode="&#xdb;" horiz-adv-x="1478" 
d="M624 1630l115 185l142 -228h217l-205 324h-309l-103 -162l-102 -162h219zM300 114.5q150 -139.5 439 -139.5q287 0 437.5 139.5t152.5 407.5v953h-258v-975q0 -74 -26.5 -130.5t-75.5 -95.5q-46 -37 -106 -56t-124 -19t-122 19t-105 56q-49 39 -76.5 96t-27.5 130v975
h-258v-953q0 -268 150 -407.5z" />
    <glyph glyph-name="Udieresis" unicode="&#xdc;" horiz-adv-x="1478" 
d="M600 1843h-223v-256h223v256zM1104 1843h-223v-256h223v256zM300 114.5q150 -139.5 439 -139.5q287 0 437.5 139.5t152.5 407.5v953h-258v-975q0 -74 -26.5 -130.5t-75.5 -95.5q-46 -37 -106 -56t-124 -19t-122 19t-105 56q-49 39 -76.5 96t-27.5 130v975h-258v-953
q0 -268 150 -407.5z" />
    <glyph glyph-name="Yacute" unicode="&#xdd;" horiz-adv-x="1273" 
d="M950 1903h-264l-127 -316h195zM508 0h258v504l504 971h-289l-330 -703h-12l-342 703h-293l504 -971v-504z" />
    <glyph glyph-name="Thorn" unicode="&#xde;" horiz-adv-x="1273" 
d="M422 242h313q61 0 108 10q144 28 242 144q59 71 90 164t31 198q0 56 -8.5 106t-30.5 117q-25 72 -85.5 143t-126.5 101q-65 29 -116.5 40t-111.5 11h-305v262h-260v-1538h260v242zM678 1044q67 0 118 -25.5t84 -69.5q30 -41 45 -89.5t15 -99.5t-15 -101.5t-45 -90.5
q-33 -44 -84 -69.5t-118 -25.5h-256v571h256z" />
    <glyph glyph-name="germandbls" unicode="&#xdf;" horiz-adv-x="1259" 
d="M391 1071q0 141 60.5 217t173.5 76q63 -1 109 -26t70.5 -67.5t24.5 -96.5q0 -56 -21.5 -103t-60.5 -81q-82 -70 -212 -77v-215q182 0 285 -64q108 -67 108 -194q0 -72 -20.5 -120t-72.5 -89q-53 -42 -167 -42q-90 0 -189 24v-209q149 -22 248 -22q106 0 192 33t147 95
q61 61 93.5 143t32.5 177q0 166 -108 274q-52 50 -121.5 84t-151.5 50q117 36 188 136q34 49 52 106.5t18 119.5q0 80 -28.5 149.5t-82.5 123.5q-56 55 -136.5 84.5t-182.5 29.5q-70 0 -125.5 -11t-121.5 -40q-69 -30 -130 -103.5t-82 -150.5q-21 -73 -29 -128.5t-8 -117.5
v-1036h248v1071z" />
    <glyph glyph-name="agrave" unicode="&#xe0;" horiz-adv-x="1153" 
d="M676 1260l-127 315h-264l196 -315h195zM90 181.5q27 -65.5 77 -109.5q48 -42 110.5 -64t134.5 -22q88 0 181 36t185 103h8l19 -125h215v745q0 195 -115 299q-112 99 -321 99q-95 0 -209 -12t-217 -35v-213q86 23 187 37t179 14q69 0 115 -12q133 -36 129 -160v-84h-287
q-98 0 -176 -23.5t-131 -68.5q-54 -45 -82.5 -110t-28.5 -144q0 -85 27 -150.5zM367 461.5q50 38.5 151 38.5h250v-209q-59 -42 -130.5 -68t-143.5 -28q-80 0 -127.5 39.5t-49.5 115.5q0 73 50 111.5z" />
    <glyph glyph-name="aacute" unicode="&#xe1;" horiz-adv-x="1153" 
d="M825 1575h-264l-127 -315h195zM90 181.5q27 -65.5 77 -109.5q48 -42 110.5 -64t134.5 -22q88 0 181 36t185 103h8l19 -125h215v745q0 195 -115 299q-112 99 -321 99q-95 0 -209 -12t-217 -35v-213q86 23 187 37t179 14q69 0 115 -12q133 -36 129 -160v-84h-287
q-98 0 -176 -23.5t-131 -68.5q-54 -45 -82.5 -110t-28.5 -144q0 -85 27 -150.5zM367 461.5q50 38.5 151 38.5h250v-209q-59 -42 -130.5 -68t-143.5 -28q-80 0 -127.5 39.5t-49.5 115.5q0 73 50 111.5z" />
    <glyph glyph-name="acircumflex" unicode="&#xe2;" horiz-adv-x="1153" 
d="M498 1374l16 26l55 87l142 -227h217l-205 323h-309l-103 -161l-102 -162h219zM90 181.5q27 -65.5 77 -109.5q48 -42 110.5 -64t134.5 -22q88 0 181 36t185 103h8l19 -125h215v745q0 195 -115 299q-112 99 -321 99q-95 0 -209 -12t-217 -35v-213q86 23 187 37t179 14
q69 0 115 -12q133 -36 129 -160v-84h-287q-98 0 -176 -23.5t-131 -68.5q-54 -45 -82.5 -110t-28.5 -144q0 -85 27 -150.5zM367 461.5q50 38.5 151 38.5h250v-209q-59 -42 -130.5 -68t-143.5 -28q-80 0 -127.5 39.5t-49.5 115.5q0 73 50 111.5z" />
    <glyph glyph-name="atilde" unicode="&#xe3;" horiz-adv-x="1153" 
d="M246.5 1363.5q65.5 31.5 128.5 31.5q61 -2 110.5 -20.5t101.5 -51.5t101.5 -51.5t112.5 -20.5q63 0 129 32t123 85v197q-59 -54 -124 -85.5t-128 -31.5q-61 2 -110 20.5t-102 51.5t-102 51t-112 20q-64 0 -129.5 -31.5t-122.5 -84.5v-197q58 54 123.5 85.5zM90 181.5
q27 -65.5 77 -109.5q48 -42 110.5 -64t134.5 -22q88 0 181 36t185 103h8l19 -125h215v745q0 195 -115 299q-112 99 -321 99q-95 0 -209 -12t-217 -35v-213q86 23 187 37t179 14q69 0 115 -12q133 -36 129 -160v-84h-287q-98 0 -176 -23.5t-131 -68.5q-54 -45 -82.5 -110
t-28.5 -144q0 -85 27 -150.5zM367 461.5q50 38.5 151 38.5h250v-209q-59 -42 -130.5 -68t-143.5 -28q-80 0 -127.5 39.5t-49.5 115.5q0 73 50 111.5z" />
    <glyph glyph-name="adieresis" unicode="&#xe4;" horiz-adv-x="1153" 
d="M457 1516h-224v-256h224v256zM961 1516h-224v-256h224v256zM90 181.5q27 -65.5 77 -109.5q48 -42 110.5 -64t134.5 -22q88 0 181 36t185 103h8l19 -125h215v745q0 195 -115 299q-112 99 -321 99q-95 0 -209 -12t-217 -35v-213q86 23 187 37t179 14q69 0 115 -12
q133 -36 129 -160v-84h-287q-98 0 -176 -23.5t-131 -68.5q-54 -45 -82.5 -110t-28.5 -144q0 -85 27 -150.5zM367 461.5q50 38.5 151 38.5h250v-209q-59 -42 -130.5 -68t-143.5 -28q-80 0 -127.5 39.5t-49.5 115.5q0 73 50 111.5z" />
    <glyph glyph-name="aring" unicode="&#xe5;" horiz-adv-x="1153" 
d="M400 1287.5q60 -56.5 169 -58.5q109 2 169.5 58.5t60.5 148.5q0 94 -60.5 150.5t-169.5 58.5q-109 -3 -169 -59t-60 -150q0 -92 60 -148.5zM569 1536q107 -11 101 -100q5 -89 -101 -101q-104 14 -100 101q-4 89 100 100zM90 181.5q27 -65.5 77 -109.5q48 -42 110.5 -64
t134.5 -22q88 0 181 36t185 103h8l19 -125h215v745q0 195 -115 299q-112 99 -321 99q-95 0 -209 -12t-217 -35v-213q86 23 187 37t179 14q69 0 115 -12q133 -36 129 -160v-84h-287q-98 0 -176 -23.5t-131 -68.5q-54 -45 -82.5 -110t-28.5 -144q0 -85 27 -150.5zM367 461.5
q50 38.5 151 38.5h250v-209q-59 -42 -130.5 -68t-143.5 -28q-80 0 -127.5 39.5t-49.5 115.5q0 73 50 111.5z" />
    <glyph glyph-name="ae" unicode="&#xe6;" horiz-adv-x="1855" 
d="M90.5 180.5q27.5 -66.5 76.5 -110.5q94 -84 245 -84q112 0 207 31q129 41 243 137q33 -43 80 -79q58 -43 143.5 -71.5t223.5 -28.5q113 0 218 18t220 54v217q-96 -31 -197.5 -50t-181.5 -19q-172 0 -258 67q-94 74 -94 230h751v114q0 105 -21 201q-22 96 -75 171
t-123 108q-68 31 -127.5 43t-136.5 12q-120 0 -212.5 -36t-153.5 -106q-99 142 -336 142q-99 0 -211.5 -11.5t-212.5 -33.5v-211q84 22 184.5 35.5t175.5 13.5q119 0 177.5 -35t58.5 -98v-127h-234q-203 0 -326 -83q-131 -87 -131 -259q0 -85 27.5 -151.5zM1076 864
q33 38 82.5 59t111.5 21q79 0 125 -24q52 -27 86 -90.5t30 -155.5h-499q0 117 64 190zM365.5 457q50.5 35 154.5 35h232q3 -102 26 -193q-133 -106 -282 -106q-84 0 -131.5 39.5t-49.5 117.5q0 72 50.5 107z" />
    <glyph glyph-name="ccedilla" unicode="&#xe7;" horiz-adv-x="1079" 
d="M123 301q18 -55 44.5 -97.5t74.5 -91.5q48 -51 130 -85.5t173 -44.5l-66 -129v-23q88 -1 145 -18q56 -17 58 -56q0 -35 -39 -50.5t-100 -15.5q-71 0 -144 15v-133q75 -15 165 -15q73 0 119 9q72 14 124 52t55 126q0 76 -50.5 118t-154.5 50l39 65q74 3 145 15.5t152 34.5
v219q-165 -51 -313 -51q-171 0 -259 101q-81 93 -81 263q0 185 88 276q84 87 252 87q154 0 313 -52v222q-168 51 -352 51q-109 0 -201 -27q-106 -31 -179 -93q-84 -71 -128 -179q-49 -118 -49 -285q0 -147 39 -258z" />
    <glyph glyph-name="egrave" unicode="&#xe8;" horiz-adv-x="1187" 
d="M719 1260l-127 315h-264l196 -315h195zM120 297q18 -58 45 -102.5t79 -95.5q55 -56 159.5 -90t237.5 -34q117 0 196 15q120 22 242 57v217q-95 -31 -197.5 -50t-181.5 -19q-172 0 -258 67q-94 74 -94 230h752v114q0 105 -21 201q-22 97 -75.5 172.5t-124.5 108.5
q-70 31 -129 43t-136 12q-121 0 -220 -36t-152 -92q-49 -52 -76.5 -98t-45.5 -103q-36 -108 -36 -255q0 -152 36 -262zM409 864q32 38 81 59t110 21q78 0 126 -24q53 -27 86.5 -90.5t31.5 -155.5h-500q0 114 65 190z" />
    <glyph glyph-name="eacute" unicode="&#xe9;" horiz-adv-x="1187" 
d="M913 1575h-264l-127 -315h195zM120 297q18 -58 45 -102.5t79 -95.5q55 -56 159.5 -90t237.5 -34q117 0 196 15q120 22 242 57v217q-95 -31 -197.5 -50t-181.5 -19q-172 0 -258 67q-94 74 -94 230h752v114q0 105 -21 201q-22 97 -75.5 172.5t-124.5 108.5q-70 31 -129 43
t-136 12q-121 0 -220 -36t-152 -92q-49 -52 -76.5 -98t-45.5 -103q-36 -108 -36 -255q0 -152 36 -262zM409 864q32 38 81 59t110 21q78 0 126 -24q53 -27 86.5 -90.5t31.5 -155.5h-500q0 114 65 190z" />
    <glyph glyph-name="ecircumflex" unicode="&#xea;" horiz-adv-x="1187" 
d="M545 1374l16 26l55 87l142 -227h217l-205 323h-309l-102 -161l-103 -162h219zM120 297q18 -58 45 -102.5t79 -95.5q55 -56 159.5 -90t237.5 -34q117 0 196 15q120 22 242 57v217q-95 -31 -197.5 -50t-181.5 -19q-172 0 -258 67q-94 74 -94 230h752v114q0 105 -21 201
q-22 97 -75.5 172.5t-124.5 108.5q-70 31 -129 43t-136 12q-121 0 -220 -36t-152 -92q-49 -52 -76.5 -98t-45.5 -103q-36 -108 -36 -255q0 -152 36 -262zM409 864q32 38 81 59t110 21q78 0 126 -24q53 -27 86.5 -90.5t31.5 -155.5h-500q0 114 65 190z" />
    <glyph glyph-name="edieresis" unicode="&#xeb;" horiz-adv-x="1187" 
d="M477 1516h-223v-256h223v256zM981 1516h-223v-256h223v256zM120 297q18 -58 45 -102.5t79 -95.5q55 -56 159.5 -90t237.5 -34q117 0 196 15q120 22 242 57v217q-95 -31 -197.5 -50t-181.5 -19q-172 0 -258 67q-94 74 -94 230h752v114q0 105 -21 201q-22 97 -75.5 172.5
t-124.5 108.5q-70 31 -129 43t-136 12q-121 0 -220 -36t-152 -92q-49 -52 -76.5 -98t-45.5 -103q-36 -108 -36 -255q0 -152 36 -262zM409 864q32 38 81 59t110 21q78 0 126 -24q53 -27 86.5 -90.5t31.5 -155.5h-500q0 114 65 190z" />
    <glyph glyph-name="igrave" unicode="&#xec;" horiz-adv-x="534" 
d="M354 1260l-127 315h-264l197 -315h194zM393 1118h-252v-1118h252v1118z" />
    <glyph glyph-name="iacute" unicode="&#xed;" horiz-adv-x="534" 
d="M569 1575h-264l-127 -315h195zM393 1118h-252v-1118h252v1118z" />
    <glyph glyph-name="icircumflex" unicode="&#xee;" horiz-adv-x="534" 
d="M195 1374l16 26l55 87l142 -227h217l-205 323h-309l-103 -161l-102 -162h219zM393 1118h-252v-1118h252v1118z" />
    <glyph glyph-name="idieresis" unicode="&#xef;" horiz-adv-x="534" 
d="M125 1516h-223v-256h223v256zM629 1516h-223v-256h223v256zM393 1118h-252v-1118h252v1118z" />
    <glyph glyph-name="eth" unicode="&#xf0;" horiz-adv-x="1292" 
d="M126 291q42 -109 122 -180q78 -69 179 -102q104 -34 218 -34t218 34q99 33 180 104q79 71 122 180q43 112 43 264q0 113 -30 233q-28 107 -81 218q-52 108 -116 200q-65 92 -139 176l88 52l-70 116l-123 -69q-41 47 -86 80h-299q109 -88 207 -181l-104 -59l73 -117
l129 74q88 -99 138 -178q-76 39 -150 39q-113 0 -218 -33q-100 -31 -179 -103q-82 -76 -122 -181q-44 -112 -44 -267t44 -266zM414 827q75 97 231 97q159 0 233 -97q70 -94 70 -270q0 -178 -70 -269q-75 -95 -233 -95q-155 0 -231 95q-72 90 -72 269q0 177 72 270z" />
    <glyph glyph-name="ntilde" unicode="&#xf1;" horiz-adv-x="1251" 
d="M300.5 1352.5q65.5 31.5 129.5 31.5q61 -2 110.5 -20t101.5 -51q54 -33 103 -51.5t111 -20.5q63 0 128.5 31.5t123.5 85.5v196q-57 -53 -122.5 -84.5t-129.5 -31.5q-60 2 -109.5 20.5t-102.5 51.5t-102 51t-112 20q-63 0 -129 -32t-123 -85v-196q57 53 122.5 84.5z
M391 803q91 50 175 80t151 32q78 0 113.5 -37.5t35.5 -111.5v-766h250v813q0 167 -85 250q-81 80 -238 80q-88 0 -198 -43q-114 -46 -212 -107h-8v125h-234v-1118h250v803z" />
    <glyph glyph-name="ograve" unicode="&#xf2;" horiz-adv-x="1286" 
d="M733 1260l-127 315h-264l197 -315h194zM126 293q41 -107 121 -181q73 -68 178 -103q104 -34 218 -34q120 0 218 35q102 35 179 103q78 69 123 182q43 112 43 264q0 151 -43 265q-44 112 -123 182q-77 68 -179 103q-99 34 -218 34q-113 0 -218 -33q-96 -30 -178 -104
q-80 -72 -121 -180q-44 -112 -44 -267q0 -75 11 -144q10 -66 33 -122zM412 829q74 97 233 97q158 0 231 -97q70 -97 70 -270q0 -176 -70 -271q-73 -98 -231 -98t-233 98q-72 94 -72 271q0 87 18 154q16 66 54 116z" />
    <glyph glyph-name="oacute" unicode="&#xf3;" horiz-adv-x="1286" 
d="M924 1575h-265l-127 -315h195zM126 293q41 -107 121 -181q73 -68 178 -103q104 -34 218 -34q120 0 218 35q102 35 179 103q78 69 123 182q43 112 43 264q0 151 -43 265q-44 112 -123 182q-77 68 -179 103q-99 34 -218 34q-113 0 -218 -33q-96 -30 -178 -104
q-80 -72 -121 -180q-44 -112 -44 -267q0 -75 11 -144q10 -66 33 -122zM412 829q74 97 233 97q158 0 231 -97q70 -97 70 -270q0 -176 -70 -271q-73 -98 -231 -98t-233 98q-72 94 -72 271q0 87 18 154q16 66 54 116z" />
    <glyph glyph-name="ocircumflex" unicode="&#xf4;" horiz-adv-x="1286" 
d="M574 1374l16 26l55 87l141 -227h218l-205 323h-310l-102 -161l-102 -162h219zM126 293q41 -107 121 -181q73 -68 178 -103q104 -34 218 -34q120 0 218 35q102 35 179 103q78 69 123 182q43 112 43 264q0 151 -43 265q-44 112 -123 182q-77 68 -179 103q-99 34 -218 34
q-113 0 -218 -33q-96 -30 -178 -104q-80 -72 -121 -180q-44 -112 -44 -267q0 -75 11 -144q10 -66 33 -122zM412 829q74 97 233 97q158 0 231 -97q70 -97 70 -270q0 -176 -70 -271q-73 -98 -231 -98t-233 98q-72 94 -72 271q0 87 18 154q16 66 54 116z" />
    <glyph glyph-name="otilde" unicode="&#xf5;" horiz-adv-x="1286" 
d="M308 1353q65 31 128 31q61 -2 110.5 -20t101.5 -51q54 -33 103 -51.5t111 -20.5q63 0 128.5 31.5t123.5 85.5v196q-57 -53 -122.5 -84.5t-129.5 -31.5q-60 2 -109.5 20.5t-102.5 51.5t-102 51t-112 20q-63 0 -129 -32t-123 -85v-196q59 54 124 85zM126 293
q41 -107 121 -181q73 -68 178 -103q104 -34 218 -34q120 0 218 35q102 35 179 103q78 69 123 182q43 112 43 264q0 151 -43 265q-44 112 -123 182q-77 68 -179 103q-99 34 -218 34q-113 0 -218 -33q-96 -30 -178 -104q-80 -72 -121 -180q-44 -112 -44 -267q0 -75 11 -144
q10 -66 33 -122zM412 829q74 97 233 97q158 0 231 -97q70 -97 70 -270q0 -176 -70 -271q-73 -98 -231 -98t-233 98q-72 94 -72 271q0 87 18 154q16 66 54 116z" />
    <glyph glyph-name="odieresis" unicode="&#xf6;" horiz-adv-x="1286" 
d="M506 1516h-223v-256h223v256zM1010 1516h-224v-256h224v256zM126 293q41 -107 121 -181q73 -68 178 -103q104 -34 218 -34q120 0 218 35q102 35 179 103q78 69 123 182q43 112 43 264q0 151 -43 265q-44 112 -123 182q-77 68 -179 103q-99 34 -218 34q-113 0 -218 -33
q-96 -30 -178 -104q-80 -72 -121 -180q-44 -112 -44 -267q0 -75 11 -144q10 -66 33 -122zM412 829q74 97 233 97q158 0 231 -97q70 -97 70 -270q0 -176 -70 -271q-73 -98 -231 -98t-233 98q-72 94 -72 271q0 87 18 154q16 66 54 116z" />
    <glyph glyph-name="divide" unicode="&#xf7;" horiz-adv-x="1187" 
d="M692 1036h-205v-233h205v233zM1077 662h-966v-205h966v205zM692 317h-205v-237h205v237z" />
    <glyph glyph-name="oslash" unicode="&#xf8;" horiz-adv-x="1286" 
d="M134 276q46 -112 136 -186l-180 -328h236l131 240q89 -27 186 -27q120 0 218 35q102 35 179 103q78 69 123 182q43 112 43 264q0 167 -52 281q-52 113 -138 184l174 315h-234l-122 -223q-92 27 -191 27q-113 0 -218 -33q-96 -30 -178 -104q-80 -72 -121 -180
q-44 -112 -44 -267q0 -160 52 -283zM412 827q75 97 233 97q43 -1 76 -15l-318 -579q-63 81 -63 229q0 175 72 268zM946 559q0 -178 -70 -269q-75 -95 -231 -95q-43 0 -76 12l314 573q63 -81 63 -221z" />
    <glyph glyph-name="ugrave" unicode="&#xf9;" horiz-adv-x="1253" 
d="M741 1260l-127 315h-264l197 -315h194zM222 54q83 -79 239 -79q95 0 171 30q72 28 124.5 54.5t113.5 63.5h9l20 -123h213v1118h-252v-805q-87 -49 -172 -78.5t-153 -31.5q-78 0 -113 37.5t-35 111.5v766h-252v-815q0 -167 87 -249z" />
    <glyph glyph-name="uacute" unicode="&#xfa;" horiz-adv-x="1253" 
d="M881 1575h-265l-127 -315h195zM222 54q83 -79 239 -79q95 0 171 30q72 28 124.5 54.5t113.5 63.5h9l20 -123h213v1118h-252v-805q-87 -49 -172 -78.5t-153 -31.5q-78 0 -113 37.5t-35 111.5v766h-252v-815q0 -167 87 -249z" />
    <glyph glyph-name="ucircumflex" unicode="&#xfb;" horiz-adv-x="1253" 
d="M543 1374l16 26l55 87l142 -227h217l-205 323h-309l-102 -161l-103 -162h219zM222 54q83 -79 239 -79q95 0 171 30q72 28 124.5 54.5t113.5 63.5h9l20 -123h213v1118h-252v-805q-87 -49 -172 -78.5t-153 -31.5q-78 0 -113 37.5t-35 111.5v766h-252v-815q0 -167 87 -249z
" />
    <glyph glyph-name="udieresis" unicode="&#xfc;" horiz-adv-x="1253" 
d="M483 1516h-223v-256h223v256zM987 1516h-223v-256h223v256zM222 54q83 -79 239 -79q95 0 171 30q72 28 124.5 54.5t113.5 63.5h9l20 -123h213v1118h-252v-805q-87 -49 -172 -78.5t-153 -31.5q-78 0 -113 37.5t-35 111.5v766h-252v-815q0 -167 87 -249z" />
    <glyph glyph-name="yacute" unicode="&#xfd;" horiz-adv-x="1146" 
d="M850 1575h-264l-127 -315h194zM393 0h107l-140 -420h263l489 1538h-268l-164 -529l-90 -294q-7 -21 -8 -25h-19l-191 638q-25 85 -65 210h-274z" />
    <glyph glyph-name="thorn" unicode="&#xfe;" horiz-adv-x="1249" 
d="M391 12q131 -30 246 -30q53 0 111 8q68 11 135 37t115 75q51 52 79 98.5t49 107.5q39 114 39 280q0 70 -8 136q-24 184 -111 287q-56 65 -127.5 97.5t-154.5 32.5q-90 0 -185.5 -36t-187.5 -104v474h-250v-1895h250v432zM546 891q79 31 145 31q94 0 138 -62
q44 -61 61 -126.5t17 -160.5q0 -187 -73 -286q-75 -99 -228 -99q-91 0 -215 31v586q80 58 155 86z" />
    <glyph glyph-name="ydieresis" unicode="&#xff;" horiz-adv-x="1146" 
d="M451 1511h-224v-256h224v256zM954 1511h-223v-256h223v256zM393 0h107l-140 -420h263l489 1538h-268l-164 -529l-90 -294q-7 -21 -8 -25h-19l-191 638q-25 85 -65 210h-274z" />
    <glyph glyph-name="OE" unicode="&#x152;" horiz-adv-x="2093" 
d="M105 566q22 -169 80 -281q58 -116 166 -196q67 -49 164 -81.5t251 -32.5q56 0 122 6.5t126 18.5h985v229h-727v398h629v231h-629v385h731v232h-991q-133 24 -246 24q-171 0 -267 -38q-92 -37 -144.5 -73t-97.5 -89q-83 -98 -122 -239q-41 -148 -41 -323q0 -86 11 -171z
M398 1018q22 70 68 127q103 125 304 125q103 0 242 -37v-1002q-109 -26 -242 -26q-100 0 -175 31q-75 29 -127.5 92t-73.5 141q-20 73 -28 134t-8 134q0 66 8 132q10 79 32 149z" />
    <glyph glyph-name="oe" unicode="&#x153;" horiz-adv-x="2054" 
d="M126 293q42 -108 121 -180q76 -68 178 -102q104 -34 218 -34q134 0 241 44q115 48 185 145q33 -49 76 -85q54 -46 139 -76t223 -30q116 0 196 15q121 22 243 57v217q-241 -69 -379 -69q-172 0 -258 67q-93 73 -97 230h754v114q0 105 -21 201q-22 97 -75.5 172.5
t-124.5 108.5q-70 31 -128.5 43t-135.5 12q-274 0 -410 -193q-68 99 -184 149q-105 44 -244 44q-113 0 -218 -33q-96 -30 -178 -104q-80 -72 -121 -180q-44 -112 -44 -267t44 -266zM1275 864q33 38 81.5 59t109.5 21q78 0 125 -24q52 -27 86.5 -90.5t30.5 -155.5h-498
q0 116 65 190zM414 830q75 96 231 96q160 0 233 -96q70 -95 70 -271q0 -178 -70 -269q-75 -95 -233 -95q-155 0 -231 95q-72 90 -72 269q0 177 72 271z" />
    <glyph glyph-name="Ydieresis" unicode="&#x178;" horiz-adv-x="1273" 
d="M504 1843h-223v-256h223v256zM1008 1843h-224v-256h224v256zM508 0h258v504l504 971h-289l-330 -703h-12l-342 703h-293l504 -971v-504z" />
    <glyph glyph-name="circumflex" unicode="&#x2c6;" horiz-adv-x="1392" 
d="M623 1374l16 26l55 87l142 -227h217l-205 323h-309l-103 -161l-102 -162h219z" />
    <glyph glyph-name="tilde" unicode="&#x2dc;" horiz-adv-x="1437" 
d="M376.5 1352.5q65.5 31.5 129.5 31.5q60 -2 110 -20.5t102 -50.5q54 -33 103 -51.5t111 -20.5q63 0 129 32t123 85v196q-59 -54 -124 -85t-128 -31q-61 2 -110 20.5t-102 51.5t-102 51t-112 20q-63 0 -128.5 -31.5t-123.5 -85.5v-196q57 53 122.5 84.5z" />
    <glyph glyph-name="uni2000" unicode="&#x2000;" horiz-adv-x="955" 
 />
    <glyph glyph-name="uni2001" unicode="&#x2001;" horiz-adv-x="1911" 
 />
    <glyph glyph-name="uni2002" unicode="&#x2002;" horiz-adv-x="955" 
 />
    <glyph glyph-name="uni2003" unicode="&#x2003;" horiz-adv-x="1911" 
 />
    <glyph glyph-name="uni2004" unicode="&#x2004;" horiz-adv-x="637" 
 />
    <glyph glyph-name="uni2005" unicode="&#x2005;" horiz-adv-x="477" 
 />
    <glyph glyph-name="uni2006" unicode="&#x2006;" horiz-adv-x="318" 
 />
    <glyph glyph-name="uni2007" unicode="&#x2007;" horiz-adv-x="318" 
 />
    <glyph glyph-name="uni2008" unicode="&#x2008;" horiz-adv-x="238" 
 />
    <glyph glyph-name="uni2009" unicode="&#x2009;" horiz-adv-x="382" 
 />
    <glyph glyph-name="uni200A" unicode="&#x200a;" horiz-adv-x="106" 
 />
    <glyph glyph-name="uni2010" unicode="&#x2010;" horiz-adv-x="1107" 
d="M975 662h-842v-207h842v207z" />
    <glyph glyph-name="uni2011" unicode="&#x2011;" horiz-adv-x="1107" 
d="M975 662h-842v-207h842v207z" />
    <glyph glyph-name="figuredash" unicode="&#x2012;" horiz-adv-x="1107" 
d="M975 662h-842v-207h842v207z" />
    <glyph glyph-name="endash" unicode="&#x2013;" horiz-adv-x="1232" 
d="M1104 672h-975v-230h975v230z" />
    <glyph glyph-name="emdash" unicode="&#x2014;" horiz-adv-x="1685" 
d="M1556 672h-1427v-230h1427v230z" />
    <glyph glyph-name="quoteleft" unicode="&#x2018;" horiz-adv-x="475" 
d="M123 1006h221v526h-111q-53 -86 -84 -192q-34 -112 -34 -212q0 -52 8 -122z" />
    <glyph glyph-name="quoteright" unicode="&#x2019;" horiz-adv-x="454" 
d="M328 1197q32 104 32 236q0 43 -6 89h-221v-527h109q54 97 86 202z" />
    <glyph glyph-name="quotesinglbase" unicode="&#x201a;" horiz-adv-x="493" 
d="M294 -145q43 103 62 211q9 53 9 103q0 55 -9 110h-221v-525h111q28 54 48 101z" />
    <glyph glyph-name="quotedblleft" unicode="&#x201c;" horiz-adv-x="864" 
d="M121 1004h221v526h-109q-61 -115 -84 -192q-34 -112 -34 -210q0 -61 6 -124zM512 1004h221v526h-108q-52 -91 -86 -202q-33 -108 -33 -218q0 -50 6 -106z" />
    <glyph glyph-name="quotedblright" unicode="&#x201d;" horiz-adv-x="845" 
d="M328 1197q32 105 32 218q0 52 -6 107h-221v-527h109q54 97 86 202zM680 1089q42 89 63 203q9 53 9 110q0 47 -7 120h-221v-527h109q29 54 47 94z" />
    <glyph glyph-name="quotedblbase" unicode="&#x201e;" horiz-adv-x="841" 
d="M293 -147q43 97 63 210q9 53 9 106q0 56 -9 110h-221v-525h109q30 55 49 99zM681 -41q32 114 32 213q0 52 -6 107h-222v-525h109q54 87 87 205z" />
    <glyph glyph-name="bullet" unicode="&#x2022;" horiz-adv-x="671" 
d="M494 879h-316v-314h316v314z" />
    <glyph glyph-name="ellipsis" unicode="&#x2026;" horiz-adv-x="1562" 
d="M354 279h-221v-279h221v279zM903 279h-221v-279h221v279zM1430 279h-224v-279h224v279z" />
    <glyph glyph-name="uni202F" unicode="&#x202f;" horiz-adv-x="382" 
 />
    <glyph glyph-name="guilsinglleft" unicode="&#x2039;" horiz-adv-x="704" 
d="M631 29l-312 530l312 528h-242l-313 -528l315 -530h240z" />
    <glyph glyph-name="guilsinglright" unicode="&#x203a;" horiz-adv-x="704" 
d="M629 557l-316 530h-239l311 -530l-311 -528h239z" />
    <glyph glyph-name="uni205F" unicode="&#x205f;" horiz-adv-x="477" 
 />
    <glyph glyph-name="Euro" unicode="&#x20ac;" horiz-adv-x="1454" 
d="M344 334q28 -65 69.5 -124.5t112.5 -112.5q163 -122 426 -122q92 -2 162 8q72 9 124.5 21t109.5 31l-1 121l-1 123q-88 -27 -162 -39q-73 -13 -125.5 -18t-106.5 -5q-120 0 -206 53q-90 53 -140 168h449v211h-516q-4 39 -4 96q0 24 2 74h518v211h-465q46 118 154 175
q93 48 251 48q138 0 348 -47v246q-184 47 -393 47q-259 0 -419 -124q-163 -126 -224 -345h-217v-211h180q-2 -50 -2 -76q0 -65 4 -94h-182v-211h217q15 -56 37 -104z" />
    <glyph glyph-name="trademark" unicode="&#x2122;" horiz-adv-x="1507" 
d="M293 926h133v426h176v123h-481v-123h172v-426zM811 1333h8l129 -409h144l129 409h8v-407h131v549h-213l-121 -404h-8l-125 404h-213v-549h131v407z" />
    <glyph glyph-name="uni25FC" unicode="&#x25fc;" horiz-adv-x="1116" 
d="M1116 1116h-1116v-1116h1116v1116z" />
    </font>
</defs>
</svg>
