<?xml version="1.0" standalone="no"?>
<!DOCTYPE svg PUBLIC "-//W3C//DTD SVG 1.1//EN" "http://www.w3.org/Graphics/SVG/1.1/DTD/svg11.dtd" >
<svg>
<metadata>
Created by FontForge 20090622 at Thu Jun  9 06:47:45 2016
 By deploy user
Copyright (c) 2013 by PSTL. All rights reserved.
</metadata>
<defs>
<font id="Quatro-Light" horiz-adv-x="1329" >
  <font-face 
    font-family="Quatro Light"
    font-weight="400"
    font-stretch="normal"
    units-per-em="2048"
    panose-1="0 0 5 0 0 0 0 0 0 0"
    ascent="1577"
    descent="-471"
    x-height="1098"
    cap-height="1475"
    bbox="-68 -528 2009.06 1894"
    underline-thickness="102"
    underline-position="-102"
    unicode-range="U+000D-U+FB02"
  />
<missing-glyph horiz-adv-x="748" 
d="M612 1365h-544v-1365h544v1365zM544 1297v-1229h-408v1229h408z" />
    <glyph glyph-name="uniFB01" unicode="fi" horiz-adv-x="1132" 
d="M219 0h105v1004h354v94h-356v143l-1 27q0 159 103 207q45 21 125 21q85 0 194 -23v92q-96 22 -206 22q-172 0 -250 -89q-68 -78 -68 -228v-170l-137 -21v-75h137v-1004zM963 1475h-109v-181h109v181zM961 1098h-105v-1098h105v1098z" />
    <glyph glyph-name="uniFB02" unicode="fl" horiz-adv-x="1140" 
d="M219 0h105v1004h354v94h-356v143l-1 27q0 159 103 207q45 21 125 21q85 0 194 -23v92q-96 22 -206 22q-172 0 -250 -89q-68 -78 -68 -228v-170l-137 -21v-75h137v-1004zM954 1563h-102v-1563h102v1563z" />
    <glyph glyph-name=".notdef" horiz-adv-x="748" 
d="M612 1365h-544v-1365h544v1365zM544 1297v-1229h-408v1229h408z" />
    <glyph glyph-name="space" unicode=" " horiz-adv-x="552" 
 />
    <glyph glyph-name="glyph1" horiz-adv-x="0" 
 />
    <glyph glyph-name="glyph2" horiz-adv-x="682" 
 />
    <glyph glyph-name="glyph3" horiz-adv-x="0" 
 />
    <glyph glyph-name="glyph3" horiz-adv-x="0" 
 />
    <glyph glyph-name="uni000D" unicode="&#xd;" horiz-adv-x="471" 
 />
    <glyph glyph-name="exclam" unicode="!" horiz-adv-x="518" 
d="M311 1475h-104v-1018h104v1018zM315 178h-110v-178h110v178z" />
    <glyph glyph-name="quotedbl" unicode="&#x22;" horiz-adv-x="626" 
d="M238 1475h-84v-390h84v390zM473 1475h-86v-390h86v390z" />
    <glyph glyph-name="numbersign" unicode="#" horiz-adv-x="1419" 
d="M272 0h103l76 350h397l-76 -350h105l42 194.5t31 155.5h271l18 94h-268l73 357h265l18 98h-262l70 352h-103l-67 -352h-398l70 352h-102l-72 -352h-262l-19 -98h260l-73 -357h-263l-18 -94h258zM942 801l-76 -357h-397l76 357h397z" />
    <glyph glyph-name="dollar" unicode="$" horiz-adv-x="1130" 
d="M242 817q53 -36 121 -58.5t152 -36.5q92 -16 157 -32.5t117 -43.5q60 -32 92 -85t32 -137q0 -179 -104 -266q-100 -84 -301 -84q-80 0 -157.5 9.5t-217.5 33.5v-111q100 -13 187.5 -21t177.5 -8h34v-163h101v174q98 12 173.5 48.5t125.5 93.5q98 113 98 290
q0 203 -124 293q-54 38 -121.5 60.5t-154.5 36.5q-98 16 -161 31.5t-114 42.5q-61 31 -93.5 84.5t-32.5 137.5q0 169 123 237q100 56 283 56q68 0 127.5 -6t157.5 -18q25 -4 34 -5v107q-64 8 -161.5 14t-159.5 6v182h-101v-188q-183 -13 -291 -95q-124 -94 -124 -294
q0 -201 125 -285z" />
    <glyph glyph-name="percent" unicode="%" horiz-adv-x="1536" 
d="M149 896q66 -101 207 -101q145 0 211 101q60 91 60 251t-60 251q-66 101 -211 101q-141 0 -207 -101q-61 -93 -61 -251q0 -76 15 -139q13 -62 46 -112zM1163 1475h-94l-694 -1475h92zM179 1263q8 43 23.5 76.5t52.5 58t101 25.5q107 -2 139 -56q30 -51 40 -100t10 -120
q0 -66 -9 -116q-9 -44 -24.5 -77.5t-53 -58t-102.5 -25.5q-105 2 -136 57q-30 51 -40 99.5t-10 120.5q0 65 9 116zM970 87q66 -101 208 -101q72 0 125 26t85 75q60 91 60 251t-60 251q-66 101 -210 101q-142 0 -208 -101q-61 -93 -61 -251q0 -76 15 -139q13 -62 46 -112z
M1001 454q8 43 23.5 76.5t52.5 58t101 25.5q106 -1 138 -56q30 -51 40 -99.5t10 -120.5q0 -66 -9 -116q-8 -44 -23.5 -77.5t-53 -58t-102.5 -25.5q-104 1 -136 57q-30 51 -40.5 100.5t-10.5 119.5q0 67 10 116z" />
    <glyph glyph-name="ampersand" unicode="&#x26;" horiz-adv-x="1456" 
d="M152 220q29 -72 88.5 -127t128.5 -78q66 -22 119.5 -31t113.5 -9q169 0 346 77q134 58 213 118l53 -170h103l-205 700h242v93h-721q-47 0 -102 16t-105 50q-119 80 -123 235q0 151 128 236q56 37 127.5 55t150.5 18q112 0 220.5 -21t184.5 -53v113q-217 57 -403 57
q-109 0 -203 -26.5t-166 -76.5q-74 -52 -114 -126t-40 -168q0 -106 64 -206t182 -146q-139 -36 -227 -139q-42 -49 -64 -108t-22 -124q0 -87 31 -159zM259 507.5q28 57.5 80 100.5q53 44 126.5 68t161.5 24h381l127 -436q-121 -99 -265 -146q-141 -48 -262 -48
q-73 0 -140 20t-120 57q-55 39 -86 97.5t-31 136.5q0 69 28 126.5z" />
    <glyph glyph-name="quotesingle" unicode="'" horiz-adv-x="393" 
d="M240 1475h-86v-390h86v390z" />
    <glyph glyph-name="parenleft" unicode="(" horiz-adv-x="579" 
d="M140 274q23 -137 67 -265q41 -125 97 -232q57 -109 114 -197h119q-63 92 -128 221q-61 119 -102 242q-42 122 -67 260q-25 129 -25 268t25 270q24 134 67 259q42 126 102 243q63 126 128 220h-119q-57 -88 -114 -197t-97 -231q-44 -128 -67 -265q-27 -149 -27 -299
q0 -148 27 -297z" />
    <glyph glyph-name="parenright" unicode=")" horiz-adv-x="579" 
d="M276 -223q54 107 97 232q45 135 68 265q26 153 26 297q0 146 -26 299q-23 130 -68 265q-42 122 -97 231q-57 109 -114 197h-119q61 -90 128 -220q58 -114 103 -243q42 -128 66 -259q25 -139 25 -270q0 -130 -25 -268q-24 -135 -66 -260q-43 -126 -103 -242
q-71 -139 -128 -221h119q73 119 114 197z" />
    <glyph glyph-name="asterisk" unicode="*" horiz-adv-x="968" 
d="M221 829l64 -45l196 273l207 -271l60 45l-209 275l319 106l-22 68l-318 -109v332h-76v-329l-311 106l-22 -70l315 -104z" />
    <glyph glyph-name="plus" unicode="+" horiz-adv-x="1179" 
d="M541 90h96v430h436v94h-436v430h-96v-430h-435v-94h435v-430z" />
    <glyph glyph-name="comma" unicode="," horiz-adv-x="401" 
d="M240 -53q11 59 11 127q0 70 -13 104h-82v-350h47q23 49 37 119z" />
    <glyph glyph-name="hyphen" unicode="-" horiz-adv-x="1044" 
d="M885 588h-725v-96h725v96z" />
    <glyph glyph-name="period" unicode="." horiz-adv-x="407" 
d="M252 178h-96v-178h96v178z" />
    <glyph glyph-name="slash" unicode="/" horiz-adv-x="776" 
d="M705 1563h-103l-528 -1983h100z" />
    <glyph glyph-name="zero" unicode="0" horiz-adv-x="1325" 
d="M162 432q29 -144 88 -241q64 -108 162 -159q105 -57 252 -57q144 0 249 57q99 53 162 159q58 96 89 241q26 127 26 305q0 179 -26 306q-32 146 -89 241q-63 104 -162 159q-106 56 -249 56q-146 0 -252 -56q-98 -52 -162 -159q-58 -96 -88 -241q-27 -126 -27 -306
q0 -84 6 -159t21 -146zM298 1113q22 67 59 128t91 94q58 35 107 48.5t109 13.5q57 0 106 -12q57 -15 114 -54t90 -99q35 -64 52.5 -116t28.5 -115q20 -116 20 -264q0 -64 -5 -136q-11 -143 -43 -239q-22 -67 -58.5 -128.5t-89.5 -94.5q-58 -36 -107 -49.5t-108 -13.5
t-107 13q-58 15 -115.5 54t-90.5 100q-34 62 -51.5 114t-29.5 118q-22 110 -22 262q0 65 5 138q11 136 45 238z" />
    <glyph glyph-name="one" unicode="1" horiz-adv-x="661" 
d="M358 0h105v1475h-70l-321 -160v-107l286 140v-1348z" />
    <glyph glyph-name="two" unicode="2" horiz-adv-x="1095" 
d="M993 100h-760q190 157 324.5 285.5t196.5 210.5q59 78 89 130.5t51 107.5q38 99 38 204q0 55 -8 109q-12 67 -37 126.5t-79 111.5q-120 114 -339 114q-76 0 -166 -11.5t-174 -33.5v-108q84 23 170 37t152 14q89 0 158 -25t115 -73q95 -100 95 -261q0 -119 -56 -229
t-155 -223q-92 -104 -228 -228l-280 -243v-115h893v100z" />
    <glyph glyph-name="three" unicode="3" horiz-adv-x="1097" 
d="M292.5 -17.5q104.5 -7.5 176.5 -7.5q109 0 200.5 29.5t159.5 85.5q67 55 102.5 133.5t35.5 173.5q0 62 -22.5 120t-65.5 108q-44 51 -102.5 84t-129.5 45q55 18 107.5 56t93.5 90q90 113 90 243q0 84 -33 150t-95 112q-60 45 -139 68.5t-169 23.5q-87 0 -187 -11.5
t-170 -31.5v-100q57 18 158 30.5t182 12.5q142 0 237 -67q105 -74 105 -200q0 -71 -29.5 -133t-82.5 -109q-51 -46 -113.5 -70.5t-130.5 -24.5h-180v-95h184q70 0 136 -18.5t120 -54.5q57 -39 90 -96t33 -130q0 -156 -110 -241q-107 -82 -289 -82q-76 0 -173 6.5t-167 17.5
q0 -34 -2 -100q75 -10 179.5 -17.5z" />
    <glyph glyph-name="four" unicode="4" horiz-adv-x="1257" 
d="M840 0h104v406h244v100h-244v526h-80q-4 -25 -13 -149l-11 -138v-241h-645l348 971h-109l-352 -983v-86h758v-406z" />
    <glyph glyph-name="five" unicode="5" horiz-adv-x="1099" 
d="M299 -14.5q93 -8.5 162 -8.5q105 0 201 29q93 29 166 87.5t104 126.5q30 66 41.5 118t11.5 115q0 97 -30 172.5t-86 128.5q-111 102 -302 102h-299v518h664v101h-766v-715h354q158 0 244 -61q106 -75 106 -263q-2 -96 -37.5 -166t-98.5 -113q-60 -41 -130 -61t-141 -20
q-70 0 -160.5 10.5t-159.5 24.5v-103q63 -14 156 -22.5z" />
    <glyph glyph-name="six" unicode="6" horiz-adv-x="1214" 
d="M170 348q33 -120 108 -211q64 -79 161 -121q96 -41 200 -41q103 0 189 31t150 90q130 122 130 334q0 214 -116 321q-105 95 -277 95q-111 0 -236 -36q-114 -32 -235 -87q0 148 34 261q37 130 103 215q78 101 177 148q114 54 255 54q102 0 207 -23v101q-117 20 -213 20
q-175 0 -303 -64q-123 -61 -210 -179q-86 -119 -123 -270q-40 -165 -40 -335q0 -163 39 -303zM433 703q87 23 145 32.5t110 9.5q142 0 219 -69q88 -78 88 -248q0 -176 -103 -268q-47 -42 -111.5 -64t-137.5 -22q-80 0 -152 29q-71 29 -125.5 92t-77.5 143q-22 75 -31 139
t-11 150q94 49 187 76z" />
    <glyph glyph-name="seven" unicode="7" horiz-adv-x="995" 
d="M649 1131q-66 -109 -105 -191t-74 -175q-66 -178 -100 -366q-36 -192 -36 -399h104q1 101 12 199q20 209 63 368q50 184 124 337q52 108 123 219.5t188 242.5v109h-887v-101h770q-116 -131 -182 -243z" />
    <glyph glyph-name="eight" unicode="8" horiz-adv-x="1196" 
d="M156 205q28 -66 86 -117.5t127 -74.5q65 -22 118 -30t117 -8q105 0 190.5 28.5t146.5 81.5q61 52 93.5 124.5t32.5 159.5q0 61 -15.5 110t-47.5 91q-66 84 -211 153q112 85 174 190q65 114 65 224q0 80 -31 146t-89 115q-59 49 -138 75t-174 26q-100 0 -180.5 -28.5
t-137.5 -82.5q-57 -53 -86.5 -121.5t-29.5 -148.5q0 -123 68 -210q65 -84 172 -134q-137 -74 -211 -195q-34 -56 -51 -114.5t-17 -114.5q0 -76 29 -145zM302 1229q23 52 66 92t102 61t130 21q68 0 126 -19.5t101 -56.5q44 -38 68.5 -90.5t24.5 -116.5q0 -93 -58 -191
q-53 -88 -160 -165q-121 38 -199 71t-126 71q-51 39 -74.5 90t-23.5 118q0 63 23 115zM306 565q65 99 177 166q85 -27 154.5 -52t137.5 -59q177 -91 181 -245q0 -67 -24.5 -123t-70.5 -98q-93 -84 -257 -84q-91 0 -160 23.5t-116 66.5q-44 40 -66 92t-22 108q0 105 66 205z
" />
    <glyph glyph-name="nine" unicode="9" horiz-adv-x="1214" 
d="M136.5 855q30.5 -80 87.5 -130q109 -96 276 -96q115 0 237 36q114 33 234 87q0 -143 -34 -261q-35 -123 -103 -215q-72 -97 -177 -148q-113 -54 -256 -54q-106 0 -206 22v-100q123 -21 213 -21q175 0 303 65q125 64 210 179q83 112 123 270q39 153 39 334q0 169 -38 305
q-35 119 -108 209q-68 83 -162 123q-91 39 -200 39q-104 0 -190 -30t-148 -89q-64 -59 -97.5 -144t-33.5 -192q0 -109 30.5 -189zM323 1315q47 42 111 64t137 22q81 0 153 -29q71 -29 125 -91.5t78 -143.5q22 -76 31 -140.5t11 -148.5q-98 -51 -188 -75q-88 -24 -145.5 -34
t-109.5 -10q-140 0 -219 70q-88 78 -88 248q0 177 104 268z" />
    <glyph glyph-name="colon" unicode=":" horiz-adv-x="415" 
d="M256 883h-96v-181h96v181zM256 178h-96v-178h96v178z" />
    <glyph glyph-name="semicolon" unicode=";" horiz-adv-x="413" 
d="M256 881h-96v-179h96v179zM244 -53q11 59 11 127q0 70 -13 104h-82v-350h47q23 49 37 119z" />
    <glyph glyph-name="less" unicode="&#x3c;" horiz-adv-x="1142" 
d="M997 168l-815 362l815 363v117l-901 -414v-133l901 -412v117z" />
    <glyph glyph-name="equal" unicode="=" horiz-adv-x="1294" 
d="M1130 829h-966v-94h966v94zM1130 379h-966v-96h966v96z" />
    <glyph glyph-name="greater" unicode="&#x3e;" horiz-adv-x="1144" 
d="M1047 598l-902 412v-117l816 -363l-816 -362v-117l902 414v133z" />
    <glyph glyph-name="question" unicode="?" horiz-adv-x="903" 
d="M365 1487q170 0 260 -63q86 -62 86 -181q0 -99 -99 -210q-38 -42 -81.5 -81l-102.5 -88q-81 -64 -109 -127q-29 -62 -40 -114.5t-11 -116.5q3 -62 13 -117h104q-16 66 -16 130q0 82 30.5 151t100.5 127q134 105 216 202q109 128 109 242q0 161 -112 253q-113 93 -314 93
q-146 0 -313 -45v-104q167 49 279 49zM403 178h-110v-178h110v178z" />
    <glyph glyph-name="at" unicode="@" horiz-adv-x="1931" 
d="M183 90q31 -86 77 -155t130 -151q91 -88 251.5 -144t351.5 -56q92 0 197 13t205 36l-9 93q-206 -50 -368 -50q-195 0 -344.5 56t-252.5 163q-102 105 -154 250.5t-52 323.5q0 159 40 263q38 99 76 161t92 118q102 107 246 166q148 60 328 60q155 0 257 -29
q97 -29 157.5 -58.5t113.5 -70.5q106 -82 161 -192q59 -120 59 -262q0 -229 -75 -350q-78 -125 -234 -125q-99 2 -140 44.5t-41 117.5q0 41 5 75l49 406q-63 34 -131.5 52.5t-133.5 18.5q-78 0 -150 -27t-126 -78q-57 -54 -89 -131.5t-32 -176.5q0 -153 68 -227
q64 -70 180 -70q70 -3 139.5 28.5t128.5 106.5q2 -63 27 -104.5t84 -79.5q29 -18 69.5 -28t86.5 -10q47 0 94 10t84 29q72 36 124.5 106.5t74.5 150.5q19 74 26.5 133t7.5 129q0 160 -59 294q-30 69 -73.5 124.5t-122.5 121.5q-87 72 -243.5 118t-341.5 46q-183 0 -300 -43
q-115 -42 -187 -82.5t-134 -97.5q-124 -112 -190 -270q-71 -167 -71 -367q0 -209 64 -379zM764 597q23 60 64 103q39 41 92.5 62.5t113.5 21.5q89 0 178 -43l-45 -356q-54 -71 -123.5 -109t-142.5 -38q-77 0 -118.5 54.5t-41.5 168.5q0 76 23 136z" />
    <glyph glyph-name="A" unicode="A" 
d="M293 365h743l127 -365h121l-534 1477h-170l-533 -1477h121zM680 1378l324 -915h-680l321 915h35z" />
    <glyph glyph-name="B" unicode="B" horiz-adv-x="1290" 
d="M927 29.5q80 29.5 137 84.5t87.5 126.5t30.5 156.5q0 135 -79 229q-80 95 -220 126q123 54 184 153q55 89 55 211q0 71 -25.5 135t-75.5 114q-52 52 -130.5 81t-179.5 29h-514v-1475h551q99 0 179 29.5zM698 1374q155 0 240 -83q38 -38 58 -86.5t20 -102.5
q0 -63 -22 -118t-63 -98t-95.5 -67t-118.5 -24h-412v579h393zM721 698q158 0 252 -83q92 -81 92 -207q0 -65 -20.5 -121.5t-61.5 -97.5q-89 -91 -242 -91h-436v600h416z" />
    <glyph glyph-name="C" unicode="C" horiz-adv-x="1243" 
d="M163 425q38 -140 119 -242q78 -99 202 -153q122 -55 292 -55q82 0 177 13t190 39v106q-90 -29 -184 -43t-183 -14q-117 0 -212 37q-99 37 -170 114q-72 78 -113 208q-41 123 -41 306q0 175 40 306q38 124 112 204q71 77 172 113q98 35 220 35q79 0 172 -14.5t185 -38.5
v108q-196 45 -367 45q-169 0 -259 -40q-86 -38 -138 -76.5t-95 -90.5q-79 -97 -119 -239q-38 -136 -38 -314q0 -86 9 -164q9 -76 29 -150z" />
    <glyph glyph-name="D" unicode="D" horiz-adv-x="1454" 
d="M882 35q93 34 148.5 67.5t103.5 80.5q89 87 143 230q52 135 52 322q0 95 -13 173q-24 150 -100 277q-68 110 -184 185q-163 105 -395 105h-440v-1475h440q148 0 245 35zM627 1374q133 0 243 -43t171 -110q56 -62 86 -112t50 -111q40 -123 40 -263q0 -143 -40 -261
q-20 -60 -50.5 -110.5t-85.5 -110.5q-61 -67 -171 -110t-243 -43h-322v1274h322z" />
    <glyph glyph-name="E" unicode="E" horiz-adv-x="1216" 
d="M1100 100h-795v588h705v100h-705v586h795v101h-903v-1475h903v100z" />
    <glyph glyph-name="F" unicode="F" horiz-adv-x="1177" 
d="M305 655h713v99h-713v620h797v101h-905v-1475h108v655z" />
    <glyph glyph-name="G" unicode="G" horiz-adv-x="1437" 
d="M303 172q178 -195 514 -197q245 0 486 88v635h-107v-563q-188 -59 -360 -59q-134 0 -239 38q-118 43 -190 116q-79 79 -124 207q-45 126 -45 302q0 172 53 307q46 121 140 203q90 79 200 115q108 35 229 35q87 0 185.5 -13.5t189.5 -39.5v106q-94 23 -192 35t-181 12
q-160 0 -263 -34.5t-182 -86.5q-114 -76 -186 -199q-47 -79 -77.5 -183.5t-30.5 -256.5q2 -372 180 -567z" />
    <glyph glyph-name="H" unicode="H" horiz-adv-x="1511" 
d="M305 707h901v-707h109v1475h-109v-670h-901v670h-108v-1475h108v707z" />
    <glyph glyph-name="I" unicode="I" horiz-adv-x="501" 
d="M305 1475h-108v-1475h108v1475z" />
    <glyph glyph-name="J" unicode="J" horiz-adv-x="499" 
d="M20 -424q145 135 212 263q73 140 73 313v1323h-108v-1307q0 -163 -68 -287q-59 -108 -180 -221q40 -51 71 -84z" />
    <glyph glyph-name="K" unicode="K" horiz-adv-x="1275" 
d="M305 606l289 107l274 -512q27 -48 64 -90q46 -51 106.5 -84t151.5 -33q11 0 45 2v100h-21q-74 0 -118 25q-50 28 -82.5 66t-67.5 102l-246 461l41 18q52 25 97 54q55 37 103 84.5t83 117.5q72 144 72 334q1 9 1 29q-2 60 -5 88h-111q6 -58 6 -111q0 -68 -7 -117
q-19 -151 -93 -247q-45 -59 -107.5 -99.5t-142.5 -69.5l-332 -122v766h-108v-1475h108v606z" />
    <glyph glyph-name="L" unicode="L" horiz-adv-x="1067" 
d="M1042 100h-737v1375h-108v-1475h845v100z" />
    <glyph glyph-name="M" unicode="M" horiz-adv-x="1820" 
d="M305 1358h8l539 -1366h117l540 1366h11v-1358h104v1475h-186l-527 -1342l-526 1342h-188v-1475h108v1358z" />
    <glyph glyph-name="N" unicode="N" horiz-adv-x="1509" 
d="M305 1305l879 -1305h129v1475h-109v-1313l-880 1313h-127v-1475h108v1305z" />
    <glyph glyph-name="O" unicode="O" horiz-adv-x="1513" 
d="M163 424q35 -142 112 -241q78 -103 195 -154q120 -54 290 -54q167 0 288 54q115 50 194 154q74 97 111 241q33 133 33 315q0 181 -33 314q-38 146 -111 239q-81 103 -194 154q-119 53 -288 53q-172 0 -290 -53q-115 -52 -195 -154q-76 -95 -112 -239q-36 -139 -36 -314
t36 -315zM279 1043q36 127 103 204q66 77 163 115q97 37 211 37q113 0 212 -37q94 -37 163 -115q68 -76 104 -204q37 -131 37 -304q0 -174 -37 -304q-36 -129 -104 -207q-69 -80 -163 -115q-95 -37 -212 -37q-118 0 -211 37q-97 37 -163 115q-67 79 -103 207
q-37 124 -37 304q0 178 37 304z" />
    <glyph glyph-name="P" unicode="P" horiz-adv-x="1202" 
d="M305 528h363q108 0 193 39t143 108q54 65 82 148.5t28 175.5t-27 178q-27 83 -83 150t-120 98q-61 28 -110 39t-108 11h-469v-1475h108v528zM657 1374q86 0 153 -31t108 -86q40 -54 60.5 -119.5t20.5 -136.5q0 -70 -20.5 -135.5t-60.5 -118.5q-41 -56 -108 -87t-153 -31
h-352v745h352z" />
    <glyph glyph-name="Q" unicode="Q" horiz-adv-x="1513" 
d="M135 573q17 -160 73 -280q56 -122 155 -198q101 -78 242 -104q68 -13 154 -13q65 0 111 6l238 -267h139l-258 291q110 36 182 99q75 64 123 159q50 101 71 214q21 111 21 259q0 181 -33 314q-38 146 -111 239q-81 103 -194 154q-119 53 -288 53q-172 0 -290 -53
q-119 -53 -196 -154q-75 -98 -112 -239q-35 -130 -35 -314q0 -83 8 -166zM279 1043q36 127 103 204q66 77 163 115q97 37 211 37t211 -37q97 -38 163 -115q71 -83 105 -204q37 -131 37 -304q0 -174 -37 -304q-34 -122 -105 -207q-66 -78 -163 -115q-93 -37 -211 -37t-211 37
q-97 37 -163 115q-67 79 -103 207q-37 124 -37 304q0 178 37 304z" />
    <glyph glyph-name="R" unicode="R" horiz-adv-x="1245" 
d="M305 559h318q118 5 127 8l297 -567h122l-315 602q126 63 186 186q52 108 52 232q0 95 -29 179q-29 82 -86.5 144t-124.5 88q-64 25 -115 34.5t-112 9.5h-428v-1475h108v559zM633 1374q87 0 153.5 -28.5t109.5 -80.5q83 -101 83 -245q0 -72 -20 -136t-60 -114
q-90 -111 -252 -111h-342v715h328z" />
    <glyph glyph-name="S" unicode="S" horiz-adv-x="1136" 
d="M248 811q57 -38 129 -60t162 -36l25 -4q94 -17 145 -30t95 -37q58 -32 89 -84t31 -134q0 -178 -105 -266q-100 -84 -305 -84q-89 0 -175.5 9t-207.5 32v-109q186 -33 389 -33q128 0 226 31.5t163 92.5q64 59 96.5 141t32.5 182q0 219 -146 305q-61 36 -136.5 56
t-173.5 34q-77 11 -138.5 28t-108.5 45q-53 32 -80.5 83.5t-27.5 132.5q0 169 111 235q98 58 295 58q95 0 176 -10l60 -8l94 -11v107q-184 20 -324 20q-105 0 -195 -16q-93 -16 -168 -60.5t-108 -101.5q-32 -54 -43.5 -103t-11.5 -112q0 -202 135 -293z" />
    <glyph glyph-name="T" unicode="T" horiz-adv-x="1239" 
d="M565 0h109v1374h540v101h-1189v-101h540v-1374z" />
    <glyph glyph-name="U" unicode="U" horiz-adv-x="1449" 
d="M198 331q15 -68 47.5 -130t99.5 -113q74 -56 171 -84.5t209 -28.5q111 0 205 28q96 28 172 84t108 122q30 63 42 115t12 114v1037h-109v-1039q-4 -185 -140 -278q-61 -41 -136 -61.5t-154 -20.5t-153 20.5t-135 61.5q-138 92 -142 278v1039h-109v-1033q0 -58 12 -111z
" />
    <glyph glyph-name="V" unicode="V" horiz-adv-x="1323" 
d="M748 0l530 1475h-119l-481 -1364h-29l-485 1364h-119l530 -1475h173z" />
    <glyph glyph-name="W" unicode="W" horiz-adv-x="1953" 
d="M592 -10l379 1294h10l383 -1294h143l377 1485h-110l-336 -1334h-8l-388 1334h-127l-385 -1334h-8l-340 1334h-112l379 -1485h143z" />
    <glyph glyph-name="X" unicode="X" horiz-adv-x="1214" 
d="M606 674l449 -674h131l-506 754l455 721h-123l-400 -641l-417 641h-127l471 -717l-502 -758h123z" />
    <glyph glyph-name="Y" unicode="Y" horiz-adv-x="1193" 
d="M543 0h108v547l500 928h-127l-428 -811l-426 811h-127l500 -928v-547z" />
    <glyph glyph-name="Z" unicode="Z" horiz-adv-x="1277" 
d="M96 111v-111h1108v100h-981l942 1268v107h-1077v-101h944z" />
    <glyph glyph-name="bracketleft" unicode="[" horiz-adv-x="514" 
d="M410 -324h-121v1788h121v99h-220v-1983h220v96z" />
    <glyph glyph-name="backslash" unicode="\" horiz-adv-x="778" 
d="M705 -420l-529 1983h-102l530 -1983h101z" />
    <glyph glyph-name="bracketright" unicode="]" horiz-adv-x="514" 
d="M324 -420v1983h-220v-99h121v-1788h-121v-96h220z" />
    <glyph glyph-name="asciicircum" unicode="^" horiz-adv-x="917" 
d="M461 1292l235 -485h115q-15 35 -57 121l-145 297q-5 9 -13 27q-94 190 -100 204h-74l-316 -649h117z" />
    <glyph glyph-name="underscore" unicode="_" horiz-adv-x="993" 
d="M862 86h-731v-90h731v90z" />
    <glyph glyph-name="grave" unicode="`" horiz-adv-x="1024" 
d="M600 1260l-137 280h-123l170 -280h90z" />
    <glyph glyph-name="a" unicode="a" horiz-adv-x="1105" 
d="M190 63q93 -73 238 -73q101 0 210 46q95 38 202 116l8 -152h90v772q0 174 -97 263q-94 87 -272 87q-86 0 -191.5 -13t-193.5 -36v-98q97 24 194.5 38.5t170.5 14.5q144 0 219 -70q66 -63 66 -184v-151h-371q-169 0 -268 -77q-109 -84 -109 -247q0 -156 104 -236zM247 459
q49 44 98.5 61t119.5 17h369v-291q-76 -68 -180 -114q-115 -50 -201 -50q-59 0 -107 14q-63 18 -105 62t-44 145q0 111 50 156z" />
    <glyph glyph-name="b" unicode="b" horiz-adv-x="1236" 
d="M374 -10.5q106 -14.5 204 -14.5q51 0 107 8q167 24 255 103q55 49 85.5 94.5t53.5 105.5q43 115 43 279q0 71 -8 140q-24 185 -113 290q-110 127 -282 127q-112 0 -217 -40q-105 -41 -226 -121v602h-104v-1534q96 -25 202 -39.5zM393 934q168 92 289 92q75 0 137 -27
q58 -27 101.5 -84t61.5 -124q17 -64 23.5 -116.5t6.5 -113.5q0 -66 -7 -118q-10 -72 -33.5 -136.5t-73.5 -118.5q-109 -118 -327 -118q-135 0 -295 36v754q54 39 117 74z" />
    <glyph glyph-name="c" unicode="c" horiz-adv-x="1093" 
d="M161 268q24 -59 55.5 -102t87.5 -90t149 -74t190 -27q90 0 174.5 14t173.5 42v100q-85 -29 -167.5 -44t-170.5 -15q-213 0 -325 132q-53 61 -79 149t-26 196q0 225 107 350q109 127 323 127q87 0 168.5 -16t169.5 -45v100q-86 29 -171 43t-177 14q-96 0 -189.5 -27
t-149.5 -74q-55 -46 -87 -89.5t-56 -101.5q-48 -111 -48 -281q0 -168 48 -281z" />
    <glyph glyph-name="d" unicode="d" horiz-adv-x="1232" 
d="M123 384q23 -189 114 -289q106 -120 281 -120q104 0 211 37.5t229 116.5q5 -45 13 -129h86v1563h-105v-482q-76 18 -161 29.5t-152 11.5q-56 0 -104 -7q-66 -9 -133 -33t-115 -70q-52 -49 -80.5 -94.5t-50.5 -106.5q-41 -111 -41 -283q0 -72 8 -144zM230 648
q8 72 28 136.5t66 120.5q101 123 313 123q140 0 315 -41v-760q-98 -70 -179 -101q-78 -31 -129 -42.5t-101 -11.5q-71 0 -128 25q-58 24 -101.5 77t-60.5 120q-17 64 -23.5 117.5t-6.5 118.5q0 68 7 118z" />
    <glyph glyph-name="e" unicode="e" horiz-adv-x="1169" 
d="M148 291q17 -58 42 -102t72 -95q50 -54 148.5 -86.5t222.5 -32.5q113 0 205.5 17.5t193.5 54.5v100q-90 -35 -190.5 -55t-194.5 -20q-100 0 -180 26q-76 25 -130.5 78.5t-75.5 119.5q-20 63 -28 114t-8 112h832v58q0 103 -16 196q-17 97 -64 174.5t-114 112.5
q-65 34 -123 46.5t-134 12.5q-127 0 -217 -37q-89 -36 -151 -108t-86 -155q-21 -75 -29 -134.5t-8 -132.5q0 -154 33 -264zM314 913q47 58 119.5 88.5t170.5 30.5q208 -4 285 -140q33 -58 45 -128.5t12 -155.5h-721q0 194 89 305z" />
    <glyph glyph-name="f" unicode="f" horiz-adv-x="710" 
d="M219 0h105v1004h354v94h-354v143q-1 10 -1 29q0 85 27 131q30 52 74 73t119 21h7q86 0 193 -22v92q-96 22 -206 22q-172 0 -250 -89q-68 -78 -68 -228v-170l-137 -21v-75h137v-1004z" />
    <glyph glyph-name="g" unicode="g" horiz-adv-x="1136" 
d="M205.5 -382q109.5 -62 335.5 -62q273 0 370 57q64 37 98.5 75t48 80t13.5 99q0 139 -97 208q-42 30 -94.5 44t-107.5 14h-348q-61 2 -92 32t-31 77q5 86 53 151q90 -35 191 -35q94 0 173 24t136 70q58 47 89.5 118t31.5 163q0 94 -35 165.5t-98 115.5h250v98
q-45 -7 -101 -12q-43 -3 -93 -3q-88 0 -184 11q-86 11 -173 12q-96 0 -174 -24.5t-135 -73.5q-59 -50 -90 -122.5t-31 -164.5q0 -110 44 -189.5t126 -125.5q-36 -44 -58 -100q-22 -55 -22 -99q0 -89 88 -151q-56 -25 -95 -57q-41 -36 -69.5 -90.5t-28.5 -109.5v-8
q0 -125 109.5 -187zM298 952q84 82 247 82q81 0 143 -21t102 -61q78 -78 78 -215q0 -67 -19.5 -122.5t-58.5 -94.5q-82 -80 -245 -80q-165 0 -247 80q-79 78 -79 217q0 137 79 215zM205 -173q0 64 42.5 122.5t149.5 91.5h348q114 -3 165 -53t51 -124v-5q0 -123 -106 -172
q-94 -45 -306 -45q-84 0 -147 9q-87 12 -142 46t-55 119v11z" />
    <glyph glyph-name="h" unicode="h" horiz-adv-x="1241" 
d="M281 860q151 85 244 120q125 46 210 46q114 -2 174 -60t60 -163v-803h104v819q0 142 -77 221q-80 82 -236 82q-122 0 -275 -64q-56 -24 -99.5 -47.5l-104.5 -58.5v611h-105v-1563h105v860z" />
    <glyph glyph-name="i" unicode="i" horiz-adv-x="456" 
d="M283 1475h-109v-181h109v181zM281 1098h-105v-1098h105v1098z" />
    <glyph glyph-name="j" unicode="j" horiz-adv-x="456" 
d="M283 1475h-109v-181h109v181zM166 -314q46 51 71 104q24 52 34 118.5t10 161.5v1028h-105v-987q0 -93 -5.5 -152.5t-21.5 -106.5q-18 -51 -56 -97t-101 -95l55 -80q73 55 119 106z" />
    <glyph glyph-name="k" unicode="k" horiz-adv-x="1073" 
d="M281 430q68 30 123 50q49 18 122 50l131 -235q40 -74 74.5 -127t70.5 -92q39 -42 83 -64t98 -24h10q17 0 29 4v86q-86 0 -133 51q-43 46 -71.5 91t-69.5 120l-130 233q166 77 235 209q65 124 65 287v29h-101v-45q0 -197 -102 -306q-41 -45 -93 -75t-114 -54l-227 -92
v1037h-105v-1563h105v430z" />
    <glyph glyph-name="l" unicode="l" horiz-adv-x="477" 
d="M291 1563h-105v-1563h105v1563z" />
    <glyph glyph-name="m" unicode="m" horiz-adv-x="1976" 
d="M281 858q92 55 125 73q73 42 146 67.5t157 25.5q116 0 173.5 -57.5t57.5 -163.5v-803h104v793q0 35 -4 63q137 83 235 124q108 44 198 44q116 0 173.5 -57.5t57.5 -163.5v-803h104v807q0 152 -80 234q-79 79 -231 79q-116 0 -244 -56q-111 -48 -229 -126
q-31 90 -104.5 136t-186.5 46q-109 0 -241 -55q-100 -41 -216 -113v146h-100v-1098h105v858z" />
    <glyph glyph-name="n" unicode="n" horiz-adv-x="1241" 
d="M281 860q136 79 244 120q125 46 212 46q117 -2 174.5 -59.5t57.5 -163.5v-803h104v819q0 142 -77 222q-78 81 -234 81q-108 0 -234 -49q-107 -42 -252 -123v148h-100v-1098h105v860z" />
    <glyph glyph-name="o" unicode="o" horiz-adv-x="1286" 
d="M160 274q23 -58 54 -100.5t87 -92.5q56 -49 149 -77.5t193 -28.5t194 28.5t150 77.5q57 50 88 93t54 100q47 118 47 275t-47 276q-23 57 -54.5 99.5t-87.5 92.5q-56 49 -149.5 77t-194.5 28q-100 0 -193 -28t-149 -77t-87 -92t-54 -100q-47 -119 -47 -276t47 -275z
M327 898q53 64 133 97t185 33q209 0 317 -130q103 -125 103 -349t-103 -348q-108 -131 -317 -131q-105 0 -185 33.5t-133 97.5q-104 125 -104 348t104 349z" />
    <glyph glyph-name="p" unicode="p" horiz-adv-x="1234" 
d="M281 20q76 -19 163 -31t158 -12q57 0 113 8q66 9 133.5 35t113.5 73q48 50 75 96t47 106q36 114 36 276q0 71 -8 140q-24 183 -109 287q-53 63 -124 93.5t-154 30.5q-207 0 -446 -164v140h-103v-1518h105v440zM396 938q159 88 304 88q67 0 125 -26q56 -27 98 -82t58 -121
t22.5 -118.5t6.5 -111.5q0 -56 -6 -109q-10 -74 -28.5 -136.5t-62.5 -119.5q-104 -132 -313 -132q-115 0 -319 47v749q54 37 115 72z" />
    <glyph glyph-name="q" unicode="q" horiz-adv-x="1241" 
d="M124 394q27 -188 116 -290q56 -65 129 -97t157 -32q110 0 215 42q103 40 222 118v-555h104v1489q-94 25 -201.5 39t-206.5 14q-56 0 -105 -7q-69 -9 -137.5 -32.5t-118.5 -68.5q-55 -50 -86 -95.5t-53 -103.5q-44 -115 -44 -283q0 -75 9 -138zM248 735q22 88 74 154
t117 94q60 26 112 35.5t117 9.5q58 0 136.5 -9.5t158.5 -25.5v-757q-54 -40 -106 -69q-171 -95 -302 -95q-71 0 -130 28q-59 26 -104 83t-64 125q-18 63 -25 115t-7 114q0 106 23 198z" />
    <glyph glyph-name="r" unicode="r" horiz-adv-x="770" 
d="M281 791q16 10 48 28q111 67 183 102q114 54 227 72v113q-68 -7 -130 -30q-107 -39 -227 -119l-103 -68v209h-103v-1098h105v791z" />
    <glyph glyph-name="s" unicode="s" horiz-adv-x="974" 
d="M230 585q49 -27 110 -42t141 -25q74 -9 124 -20.5t86 -30.5q39 -22 59 -60.5t20 -97.5q0 -122 -79 -182q-75 -57 -218 -57h-9q-133 0 -349 30v-102q77 -9 174.5 -16t189.5 -7q202 0 303 93q97 90 97 245q0 175 -117 241q-50 28 -112 42.5t-138 21.5q-83 11 -130.5 21
t-82.5 29q-40 21 -60 58.5t-20 96.5v7q-1 97 55 134q55 36 114 49t149 13q57 0 119 -7t165 -22v101q-155 24 -295 24q-182 0 -287 -63q-128 -77 -128 -240q0 -170 119 -234z" />
    <glyph glyph-name="t" unicode="t" horiz-adv-x="720" 
d="M229 207q0 -72 16 -114q17 -51 61 -83.5t124 -32.5h10q84 0 222 31v98q-90 -31 -183 -32h-8q-62 -1 -98.5 29t-38.5 104v797h366v94h-366v239h-39l-66 -67v-172h-133l-33 -35v-59h166v-797z" />
    <glyph glyph-name="u" unicode="u" horiz-adv-x="1239" 
d="M245 56q78 -81 234 -81q102 0 233 47q56 20 116.5 50t136.5 73l12 -145h86v1098h-102v-860q-130 -79 -247 -122.5t-210 -43.5q-117 2 -175.5 59.5t-58.5 163.5v803h-102v-819q0 -143 77 -223z" />
    <glyph glyph-name="v" unicode="v" horiz-adv-x="1077" 
d="M598 -4l399 1102h-110l-348 -981l-342 981h-113l391 -1102h123z" />
    <glyph glyph-name="w" unicode="w" horiz-adv-x="1900" 
d="M250 61q86 -86 248 -86q104 0 219 55q92 44 215 140q59 -103 153 -148q94 -47 224 -47q184 0 297 83q129 96 129 280v760h-105v-756q0 -140 -99 -210q-85 -60 -218 -60q-143 0 -227 63q-93 69 -93 205v758h-100v-742q0 -60 8 -110q-107 -83 -194 -124q-103 -50 -197 -50
q-116 0 -177 57t-61 162v807h-104v-803q0 -152 82 -234z" />
    <glyph glyph-name="x" unicode="x" horiz-adv-x="1075" 
d="M532 481l363 -481h129l-416 555l414 543h-131l-350 -473l-351 473h-133l408 -547l-414 -551h127z" />
    <glyph glyph-name="y" unicode="y" horiz-adv-x="1081" 
d="M520 0l-139 -420h113l499 1518h-114l-324 -987h-31l-325 987h-115l369 -1098h67z" />
    <glyph glyph-name="z" unicode="z" horiz-adv-x="1050" 
d="M94 88v-88h889v94h-752l699 916v88h-846v-94h711z" />
    <glyph glyph-name="braceleft" unicode="{" horiz-adv-x="935" 
d="M115 489q87 -1 122 -53q31 -49 31 -145q0 -69 -14 -160q-12 -85 -17.5 -140t-5.5 -108q0 -86 17.5 -154t59.5 -119q95 -116 319 -116q114 0 245 33l-4 104q-143 -37 -233 -37q-164 0 -240 86q-63 70 -63 199q0 37 5 85.5t11 96.5l3 24q10 75 15 127t5 97q0 80 -28 142.5
t-89 80.5v11q63 18 90 82.5t27 142.5q0 48 -5 96.5t-15 130.5l-3 25q-6 47 -11 95.5t-5 86.5q0 66 14 117t46 88q71 82 243 82q90 0 233 -37l4 102q-131 33 -245 33q-222 0 -317 -113q-42 -50 -59.5 -117.5t-17.5 -154.5q0 -53 5 -110t17 -142q13 -108 13 -184
q0 -83 -36 -129.5t-117 -48.5q-11 0 -35 2v-103q26 2 35 2z" />
    <glyph glyph-name="bar" unicode="|" horiz-adv-x="487" 
d="M297 1563h-107v-1983h107v1983z" />
    <glyph glyph-name="braceright" unicode="}" horiz-adv-x="935" 
d="M309 -506q220 0 317 114q42 49 59 116.5t17 154.5q0 99 -21 252q-13 108 -13 184q0 84 36 130.5t117 48.5q13 0 35 -2v102q-22 -2 -35 -2q-88 1 -121 53q-32 48 -32 148q0 69 14 158q12 84 17.5 139t5.5 108q0 86 -17.5 154t-59.5 120q-94 115 -319 115q-116 0 -246 -33
l5 -104q143 37 233 37q166 0 240 -85q63 -73 63 -200q0 -36 -5 -84t-11 -95l-3 -26q-10 -77 -15 -128.5t-5 -96.5q0 -79 28 -142t89 -81v-10q-67 -21 -93.5 -91t-23.5 -151q0 -37 5 -84t11 -92l4 -34l3 -23q6 -48 11 -97t5 -88q0 -136 -60 -205q-71 -82 -243 -82
q-90 0 -233 37l-5 -102q130 -33 246 -33z" />
    <glyph glyph-name="asciitilde" unicode="~" horiz-adv-x="1275" 
d="M412 637q51 0 105 -10.5t132 -30.5q74 -20 134 -30.5t122 -10.5q103 0 211 49l-24 86q-82 -39 -185 -39q-47 0 -96.5 10t-129.5 31q-73 18 -136.5 28.5t-130.5 10.5q-54 0 -118 -15t-134 -48l18 -93q112 62 232 62z" />
    <glyph glyph-name="uni00A0" unicode="&#xa0;" horiz-adv-x="552" 
 />
    <glyph glyph-name="exclamdown" unicode="&#xa1;" horiz-adv-x="475" 
d="M293 1059h-111v-178h111v178zM291 602h-105v-1022h105v1022z" />
    <glyph glyph-name="cent" unicode="&#xa2;" horiz-adv-x="1089" 
d="M128 285q19 -55 47 -98t78 -91q50 -49 134 -80.5t172 -35.5v-326h100v323q164 11 304 54v102q-88 -30 -168.5 -45.5t-167.5 -15.5q-214 0 -326 132q-52 61 -78 149t-26 196q0 225 106 350q109 127 324 127q84 0 162 -15.5t174 -45.5v100q-147 49 -304 55v324h-100v-326
q-90 -6 -173.5 -37.5t-132.5 -80.5t-77.5 -92t-47.5 -97q-42 -119 -42 -262q0 -145 42 -264z" />
    <glyph glyph-name="sterling" unicode="&#xa3;" horiz-adv-x="1064" 
d="M979 98h-299h-61q-214 0 -334 -10q55 35 87.5 85.5t48.5 116.5q13 56 17 117.5t4 149.5v148h416v100h-416v182q0 99 28 176.5t78 132.5q88 97 240 131l-16 95q-83 -16 -163 -57q-78 -39 -140.5 -104.5t-90.5 -135.5q-27 -67 -36.5 -119t-9.5 -115v-186h-182v-100h182
v-150q0 -94 -6 -166t-25 -132q-49 -149 -217 -167l-14 -90h909v98z" />
    <glyph glyph-name="yen" unicode="&#xa5;" horiz-adv-x="1296" 
d="M156 627v-97h438v-172h-438v-96h438v-262h108v262h439v96h-439v172h439v97h-398l459 848h-127l-428 -811l-426 811h-127l457 -848h-395z" />
    <glyph glyph-name="brokenbar" unicode="&#xa6;" horiz-adv-x="495" 
d="M301 1563h-106v-922h106v922zM301 502h-106v-922h106v922z" />
    <glyph glyph-name="section" unicode="&#xa7;" horiz-adv-x="1044" 
d="M178.5 1098q35.5 -56 97.5 -88q-53 -58 -88.5 -137t-37.5 -168q0 -145 115 -210q47 -28 107.5 -45.5t137.5 -31.5q67 -11 116 -24.5t84 -34.5q83 -49 83 -158q0 -130 -74 -181q-71 -49 -213 -49q-129 0 -359 29v-100q194 -25 365 -25q99 0 175.5 23.5t124.5 67.5
q97 89 97 243q0 87 -29 140.5t-85 84.5q51 57 83.5 135t34.5 166q0 148 -112 216q-85 50 -244 79q-61 12 -118 27q-59 15 -100 38t-64 58q-12 18 -19 46t-7 59q0 41 13.5 75t42.5 53q55 36 115 50t149 14q102 0 285 -27l4 99q-178 26 -301 26q-182 0 -287 -63
q-129 -78 -129 -240q2 -91 37.5 -147zM283.5 848.5q25.5 60.5 78.5 122.5q75 -24 148 -37q76 -14 122 -25q54 -14 87 -28t59 -52t27 -108q0 -68 -24 -125.5t-70 -116.5q-73 19 -160 31q-67 12 -119 27q-51 14 -85.5 29.5t-61 51t-27.5 95.5q0 75 25.5 135.5z" />
    <glyph glyph-name="dieresis" unicode="&#xa8;" horiz-adv-x="1705" 
d="M741 1425h-98v-165h98v165zM1227 1425h-99v-165h99v165z" />
    <glyph glyph-name="copyright" unicode="&#xa9;" horiz-adv-x="1787" 
d="M182 441q30 -72 72.5 -132.5t119.5 -136.5q54 -54 135.5 -98.5t180.5 -71.5t203 -27t203.5 27t181.5 71.5t136 98.5q76 76 119 136.5t74 132.5q60 142 60 298q0 159 -60 301q-32 72 -75 133t-118 136q-54 53 -136 97.5t-181.5 71.5t-203.5 27t-203 -27t-180.5 -71.5
t-135.5 -97.5q-76 -75 -118.5 -136t-73.5 -133q-61 -140 -61 -301q0 -158 61 -298zM267 1006q28 66 65 120t103 120q73 73 198 123t260 50t260 -50t199 -123q66 -67 104 -121t66 -119q53 -124 53 -267t-53 -264q-29 -65 -66.5 -119t-103.5 -120q-74 -74 -199 -124.5
t-260 -50.5t-260 50.5t-198 124.5q-66 65 -103 119t-65 120q-54 120 -54 264t54 267zM676 485q95 -86 250 -86q80 0 170 23v88q-88 -24 -173 -24q-108 0 -158 43q-51 43 -71 93t-20 126q0 75 20 125t71 93q50 43 158 43q85 0 173 -24v88q-90 23 -170 23q-155 0 -250 -86
q-98 -89 -98 -262q0 -174 98 -263z" />
    <glyph glyph-name="ordfeminine" unicode="&#xaa;" horiz-adv-x="882" 
d="M193 689.5q66 -56.5 174 -56.5q70 0 137.5 19.5t140.5 64.5l10 -86h64v499q0 142 -74 205q-72 62 -219 62q-59 0 -117.5 -8.5t-134.5 -26.5v-74q81 19 140 26t114 7q110 0 159.5 -47t49.5 -144v-57h-223q-143 0 -213 -50q-76 -54 -76 -171q2 -106 68 -162.5zM273.5 977.5
q59.5 34.5 150.5 30.5h213v-228q-124 -78 -246 -78q-86 0 -133 39t-47 111q3 91 62.5 125.5z" />
    <glyph glyph-name="guillemotleft" unicode="&#xab;" horiz-adv-x="942" 
d="M481 94l-272 461l272 461h-108l-269 -461l269 -461h108zM831 94l-272 461l272 461h-108l-268 -461l268 -461h108z" />
    <glyph glyph-name="logicalnot" unicode="&#xac;" horiz-adv-x="1271" 
d="M1020 166l88 -8v450h-942v-100h854v-342z" />
    <glyph glyph-name="uni00AD" unicode="&#xad;" horiz-adv-x="1044" 
d="M885 588h-725v-96h725v96z" />
    <glyph glyph-name="registered" unicode="&#xae;" horiz-adv-x="1120" 
d="M153 891q34 -79 96 -139q61 -61 141 -94t171 -33t170 33t141 94q61 61 95 140t34 169q0 91 -34 171t-95 141q-62 60 -141 93t-170 33t-171 -33t-141 -93q-62 -61 -96 -141t-34 -171t34 -170zM218.5 1205.5q28.5 67.5 80.5 118.5q52 52 119 80t143 28q75 0 142.5 -28.5
t119.5 -79.5t80.5 -118.5t28.5 -144.5q0 -76 -28.5 -143t-80.5 -119t-119.5 -80.5t-142.5 -28.5q-76 0 -143 28.5t-119 80.5t-80.5 119t-28.5 143q0 77 28.5 144.5zM500 1012h84l73 -152h82l-84 166q70 28 76 125q-2 75 -44 110t-105 33h-156v-434h74v152zM563 1237
q98 -8 90 -80q1 -6 1 -16q0 -64 -89 -70h-65v166h63z" />
    <glyph glyph-name="macron" unicode="&#xaf;" horiz-adv-x="1230" 
d="M1026 1391h-821v-93h821v93z" />
    <glyph glyph-name="degree" unicode="&#xb0;" horiz-adv-x="647" 
d="M177.5 1098.5q56.5 -54.5 146.5 -54.5t146 54.5t58 150.5q-2 97 -58 151t-146 54t-146.5 -54.5t-58.5 -150.5q2 -96 58.5 -150.5zM227.5 1353q37.5 36 96.5 36t96 -36t39 -104q-2 -67 -39 -103t-96 -36q-60 0 -97 35.5t-39 103.5q2 68 39.5 104z" />
    <glyph glyph-name="plusminus" unicode="&#xb1;" horiz-adv-x="1251" 
d="M578 182h94v430h436v95h-436v430h-94v-430h-437v-95h437v-430zM1108 96h-967v-96h967v96z" />
    <glyph glyph-name="uni00B2" unicode="&#xb2;" horiz-adv-x="839" 
d="M702 678h-428q190 130 289 270q101 141 101 275q0 142 -88 209q-74 55 -205 55q-91 0 -217 -31v-84q50 15 97 23q58 10 104 10q93 0 152 -41q32 -22 47 -60.5t15 -86.5q0 -38 -9 -76.5t-25 -72.5q-32 -68 -90.5 -135.5t-124.5 -120.5q-87 -69 -187 -138v-82h569v86z" />
    <glyph glyph-name="uni00B3" unicode="&#xb3;" horiz-adv-x="831" 
d="M340 575q158 0 250 58q108 68 108 209q-2 72 -52.5 128.5t-133.5 76.5q60 19 100 54.5t58 77.5t16 81q0 124 -91 179q-79 48 -212 48q-47 0 -110.5 -9.5t-112.5 -23.5v-82q48 13 108.5 22t113.5 9q93 0 149.5 -35t58.5 -115q-2 -58 -33.5 -97t-80 -57t-101.5 -16h-115
v-75h119q89 0 152.5 -41t66.5 -125q-4 -110 -81 -147q-72 -36 -192 -36q-80 0 -184 17v-84q97 -17 199 -17z" />
    <glyph glyph-name="acute" unicode="&#xb4;" horiz-adv-x="868" 
d="M541 1540h-123l-137 -280h90z" />
    <glyph glyph-name="paragraph" unicode="&#xb6;" horiz-adv-x="1058" 
d="M110.5 858.5q32.5 -80.5 93.5 -138.5q61 -59 143.5 -90.5t180.5 -31.5h150v877h-139q-206 0 -334 -119q-62 -58 -94.5 -138.5t-32.5 -179.5t32.5 -179.5zM426 -436q118 0 204 27q82 25 137.5 82t75.5 129q18 65 24.5 120t6.5 127v1426h-108v-1438q0 -110 -21.5 -184
t-64.5 -117q-41 -41 -103 -59.5t-147 -18.5q-83 0 -190 14v-96q102 -12 186 -12z" />
    <glyph glyph-name="periodcentered" unicode="&#xb7;" horiz-adv-x="419" 
d="M260 641h-100v-178h100v178z" />
    <glyph glyph-name="cedilla" unicode="&#xb8;" horiz-adv-x="956" 
d="M406 -444q132 0 199 45t67 133q0 72 -55 109.5t-160 37.5h-37l78 119h-86l-90 -143v-35h67q76 1 134 -15q29 -9 44 -30t15 -46q0 -21 -10 -40.5t-28 -31.5q-40 -28 -151 -28q-99 4 -160 17v-76q65 -15 173 -16z" />
    <glyph glyph-name="uni00B9" unicode="&#xb9;" horiz-adv-x="520" 
d="M260 592h90v885h-47l-221 -93v-88l178 74v-778z" />
    <glyph glyph-name="ordmasculine" unicode="&#xba;" horiz-adv-x="960" 
d="M235 699q98 -83 246 -83q150 0 246 83q113 98 113 307q0 106 -30 183t-83 124q-95 84 -246 84q-148 0 -246 -84q-114 -98 -114 -307q0 -211 114 -307zM272 1237q64 84 209 84q142 0 208 -84q63 -81 63 -231q0 -149 -63 -230q-66 -84 -208 -84q-145 0 -209 84
q-63 83 -63 230q0 149 63 231z" />
    <glyph glyph-name="guillemotright" unicode="&#xbb;" horiz-adv-x="942" 
d="M487 555l-268 461h-108l272 -461l-272 -461h108zM838 555l-269 461h-108l272 -461l-272 -461h108z" />
    <glyph glyph-name="onequarter" unicode="&#xbc;" horiz-adv-x="1572" 
d="M1149 1563h-102l-904 -1753h105zM258 592h90v885h-47l-221 -93v-88l178 74v-778zM1280 0h90v229h139v80h-139v336h-67l-23 -153v-181h-362l212 572h-92l-213 -576v-78h455v-229z" />
    <glyph glyph-name="onehalf" unicode="&#xbd;" horiz-adv-x="1570" 
d="M1149 1563h-102l-904 -1753h105zM258 592h90v885h-47l-221 -93v-88l178 74v-778zM1487 86h-428q189 133 287 270q100 138 100 275q0 143 -88 209q-76 55 -203 55q-93 0 -219 -31v-84q49 16 99 23q58 10 103 10q93 0 152 -41q31 -22 46 -60.5t15 -85.5q0 -39 -9 -78
t-25 -72q-33 -68 -91.5 -135.5t-122.5 -120.5q-84 -69 -185 -138v-82h569v86z" />
    <glyph glyph-name="threequarters" unicode="&#xbe;" horiz-adv-x="1785" 
d="M1362 1563h-102l-904 -1753h105zM305 575q158 0 250 58q109 69 109 209q-2 72 -53 128.5t-134 76.5q60 19 100 54.5t58 77.5t16 81q0 124 -91 179q-79 48 -212 48q-47 0 -110.5 -9.5t-112.5 -23.5v-82q48 13 108.5 22t113.5 9q93 0 149.5 -35t58.5 -115q-2 -58 -33.5 -97
t-80 -57t-101.5 -16h-115v-75h119q89 0 152.5 -41t66.5 -125q-4 -110 -81 -147q-72 -36 -192 -36q-80 0 -184 17v-84q97 -17 199 -17zM1493 0h90v229h139v80h-139v336h-67l-23 -153v-181h-363l213 572h-92l-213 -576v-78h455v-229z" />
    <glyph glyph-name="questiondown" unicode="&#xbf;" horiz-adv-x="886" 
d="M604 1059h-110v-178h110v178zM185 -435q113 -93 313 -93q146 0 313 45v104q-167 -49 -279 -49q-171 0 -260 64q-86 60 -86 180q0 97 99 210q38 42 81.5 81l102.5 88q80 63 110 128q28 62 39 114.5t11 115.5q-3 62 -13 117h-104q18 -69 16 -117q2 -86 -28 -158.5
t-103 -132.5q-133 -104 -216 -201q-109 -129 -109 -243q0 -160 113 -253z" />
    <glyph glyph-name="Agrave" unicode="&#xc0;" 
d="M694 1587l-137 281h-123l170 -281h90zM293 365h743l127 -365h121l-534 1477h-170l-533 -1477h121zM680 1378l324 -915h-680l321 915h35z" />
    <glyph glyph-name="Aacute" unicode="&#xc1;" 
d="M889 1868h-123l-137 -281h90zM293 365h743l127 -365h121l-534 1477h-170l-533 -1477h121zM680 1378l324 -915h-680l321 915h35z" />
    <glyph glyph-name="Acircumflex" unicode="&#xc2;" 
d="M573 1715q80 103 95 126l190 -254h105l-232 307h-127l-233 -307h106q16 24 96 128zM293 365h743l127 -365h121l-534 1477h-170l-533 -1477h121zM680 1378l324 -915h-680l321 915h35z" />
    <glyph glyph-name="Atilde" unicode="&#xc3;" 
d="M386.5 1668.5q51.5 21.5 111.5 21.5q97 -7 156 -42q59 -37 105 -53t103 -16q118 0 213 82v102q-48 -39 -99.5 -60.5t-111.5 -21.5q-99 8 -155 43q-61 37 -106.5 52.5t-102.5 15.5q-62 0 -113 -21t-100 -61v-102q48 39 99.5 60.5zM293 365h743l127 -365h121l-534 1477
h-170l-533 -1477h121zM680 1378l324 -915h-680l321 915h35z" />
    <glyph glyph-name="Adieresis" unicode="&#xc4;" 
d="M473 1753h-98v-166h98v166zM958 1753h-98v-166h98v166zM293 365h743l127 -365h121l-534 1477h-170l-533 -1477h121zM680 1378l324 -915h-680l321 915h35z" />
    <glyph glyph-name="Aring" unicode="&#xc5;" 
d="M1284 0h-119l-129 365h-741l-127 -365h-121l516 1423q-51 20 -77.5 63t-26.5 103q0 89 53.5 141t153.5 54q99 -2 152.5 -54t53.5 -141q0 -57 -26.5 -100t-75.5 -66zM563 1497.5q33 -35.5 103 -37.5q68 2 100.5 38t32.5 91t-33 91t-100 38q-73 -1 -105 -40
q-31 -37 -31 -89q0 -56 33 -91.5zM1006 463l-324 913h-35l-321 -913h680z" />
    <glyph glyph-name="AE" unicode="&#xc6;" horiz-adv-x="2027" 
d="M268.5 202.5q73.5 131.5 93.5 162.5h646v-365h903v100h-793v588h705v100h-705v586h793v101h-1047l-72 -126l-454 -800l-54 -96l-257 -453h129zM1008 1374v-911h-596l512 911h84z" />
    <glyph glyph-name="Ccedilla" unicode="&#xc7;" horiz-adv-x="1245" 
d="M746 -24l-62 -95h37q105 0 160 -37.5t55 -109.5q0 -88 -67 -133t-199 -45q-109 1 -172 16v76q62 -13 159 -17q111 0 151 28q18 12 28 31.5t10 40.5q0 25 -15 46t-44 30q-58 16 -134 15h-67v35l79 125q-100 12 -179 48q-124 54 -202 153q-81 102 -119 242q-20 74 -29 150
q-9 78 -9 164q0 178 38 314q40 142 119 239q43 52 95 90.5t138 76.5q90 40 259 40q171 0 367 -45v-108q-92 24 -185 38.5t-172 14.5q-122 0 -220 -35q-101 -36 -172 -113q-74 -80 -112 -204q-40 -131 -40 -306q0 -183 41 -306q41 -130 113 -208q71 -77 170 -114
q95 -37 212 -37q89 0 183 14t184 43v-106q-95 -26 -190 -39t-177 -13q-22 0 -32 1z" />
    <glyph glyph-name="Egrave" unicode="&#xc8;" horiz-adv-x="1216" 
d="M715 1587l-137 281h-123l170 -281h90zM1100 100h-795v588h705v100h-705v586h795v101h-903v-1475h903v100z" />
    <glyph glyph-name="Eacute" unicode="&#xc9;" horiz-adv-x="1216" 
d="M836 1868h-123l-138 -281h91zM1100 100h-795v588h705v100h-705v586h795v101h-903v-1475h903v100z" />
    <glyph glyph-name="Ecircumflex" unicode="&#xca;" horiz-adv-x="1216" 
d="M548 1715q80 103 95 126l191 -254h104l-231 307h-127l-234 -307h107q14 23 95 128zM1100 100h-795v588h705v100h-705v586h795v101h-903v-1475h903v100z" />
    <glyph glyph-name="Edieresis" unicode="&#xcb;" horiz-adv-x="1216" 
d="M449 1753h-99v-166h99v166zM934 1753h-98v-166h98v166zM1100 100h-795v588h705v100h-705v586h795v101h-903v-1475h903v100z" />
    <glyph glyph-name="Igrave" unicode="&#xcc;" horiz-adv-x="501" 
d="M297 1587l-137 281h-123l170 -281h90zM305 1475h-108v-1475h108v1475z" />
    <glyph glyph-name="Iacute" unicode="&#xcd;" horiz-adv-x="501" 
d="M465 1868h-123l-137 -281h90zM305 1475h-108v-1475h108v1475z" />
    <glyph glyph-name="Icircumflex" unicode="&#xce;" horiz-adv-x="501" 
d="M157 1715q80 103 95 126l190 -254h105l-232 307h-127l-233 -307h106q16 24 96 128zM305 1475h-108v-1475h108v1475z" />
    <glyph glyph-name="Idieresis" unicode="&#xcf;" horiz-adv-x="501" 
d="M57 1753h-98v-166h98v166zM543 1753h-99v-166h99v166zM305 1475h-108v-1475h108v1475z" />
    <glyph glyph-name="Eth" unicode="&#xd0;" horiz-adv-x="1552" 
d="M297 0h440q148 0 244 35q92 35 148 68t103 80q97 97 146 230q52 139 52 322q0 95 -13 173q-26 156 -102 277q-71 113 -184 185q-71 45 -165.5 75t-228.5 30h-440v-697h-270v-100h270v-678zM739 678v100h-333v596h321q132 0 242.5 -43.5t171.5 -109.5q54 -61 83.5 -110.5
t51.5 -112.5q41 -121 41 -263q0 -144 -41 -261q-23 -63 -52 -113t-83 -108q-61 -66 -171.5 -109.5t-242.5 -43.5h-321v578h333z" />
    <glyph glyph-name="Ntilde" unicode="&#xd1;" horiz-adv-x="1509" 
d="M465 1666.5q51 21.5 110 21.5q99 -7 156 -42q59 -37 105.5 -53t103.5 -16q118 0 213 82v102q-48 -39 -99.5 -60.5t-111.5 -21.5q-99 8 -155 43q-61 37 -106.5 52.5t-102.5 15.5q-62 0 -113 -21t-100 -61v-102q49 39 100 60.5zM305 1305l879 -1305h129v1475h-109v-1313
l-880 1313h-127v-1475h108v1305z" />
    <glyph glyph-name="Ograve" unicode="&#xd2;" horiz-adv-x="1513" 
d="M803 1587l-137 281h-123l170 -281h90zM163 424q35 -142 112 -241q78 -103 195 -154q120 -54 290 -54q167 0 288 54q115 50 194 154q74 97 111 241q33 133 33 315q0 181 -33 314q-38 146 -111 239q-81 103 -194 154q-119 53 -288 53q-172 0 -290 -53q-115 -52 -195 -154
q-76 -95 -112 -239q-36 -139 -36 -314t36 -315zM279 1043q36 127 103 204q66 77 163 115q97 37 211 37q113 0 212 -37q94 -37 163 -115q68 -76 104 -204q37 -131 37 -304q0 -174 -37 -304q-36 -129 -104 -207q-69 -80 -163 -115q-95 -37 -212 -37q-118 0 -211 37
q-97 37 -163 115q-67 79 -103 207q-37 124 -37 304q0 178 37 304z" />
    <glyph glyph-name="Oacute" unicode="&#xd3;" horiz-adv-x="1513" 
d="M963 1868h-123l-138 -281h91zM163 424q35 -142 112 -241q78 -103 195 -154q120 -54 290 -54q167 0 288 54q115 50 194 154q74 97 111 241q33 133 33 315q0 181 -33 314q-38 146 -111 239q-81 103 -194 154q-119 53 -288 53q-172 0 -290 -53q-115 -52 -195 -154
q-76 -95 -112 -239q-36 -139 -36 -314t36 -315zM279 1043q36 127 103 204q66 77 163 115q97 37 211 37q113 0 212 -37q94 -37 163 -115q68 -76 104 -204q37 -131 37 -304q0 -174 -37 -304q-36 -129 -104 -207q-69 -80 -163 -115q-95 -37 -212 -37q-118 0 -211 37
q-97 37 -163 115q-67 79 -103 207q-37 124 -37 304q0 178 37 304z" />
    <glyph glyph-name="Ocircumflex" unicode="&#xd4;" horiz-adv-x="1513" 
d="M661 1715q80 103 95 126l190 -254h105l-232 307h-127l-233 -307h106q16 24 96 128zM163 424q35 -142 112 -241q78 -103 195 -154q120 -54 290 -54q167 0 288 54q115 50 194 154q74 97 111 241q33 133 33 315q0 181 -33 314q-38 146 -111 239q-81 103 -194 154
q-119 53 -288 53q-172 0 -290 -53q-115 -52 -195 -154q-76 -95 -112 -239q-36 -139 -36 -314t36 -315zM279 1043q36 127 103 204q66 77 163 115q97 37 211 37q113 0 212 -37q94 -37 163 -115q68 -76 104 -204q37 -131 37 -304q0 -174 -37 -304q-36 -129 -104 -207
q-69 -80 -163 -115q-95 -37 -212 -37q-118 0 -211 37q-97 37 -163 115q-67 79 -103 207q-37 124 -37 304q0 178 37 304z" />
    <glyph glyph-name="Otilde" unicode="&#xd5;" horiz-adv-x="1513" 
d="M468.5 1668.5q51.5 21.5 111.5 21.5q98 -7 156 -42q59 -38 105 -53.5t103 -15.5q118 0 213 82v102q-48 -39 -99.5 -60.5t-111.5 -21.5q-99 8 -155 43q-61 37 -106.5 52.5t-102.5 15.5q-62 0 -113 -21t-100 -61v-102q48 39 99.5 60.5zM163 424q35 -142 112 -241
q78 -103 195 -154q120 -54 290 -54q167 0 288 54q115 50 194 154q74 97 111 241q33 133 33 315q0 181 -33 314q-38 146 -111 239q-81 103 -194 154q-119 53 -288 53q-172 0 -290 -53q-115 -52 -195 -154q-76 -95 -112 -239q-36 -139 -36 -314t36 -315zM279 1043
q36 127 103 204q66 77 163 115q97 37 211 37q113 0 212 -37q94 -37 163 -115q68 -76 104 -204q37 -131 37 -304q0 -174 -37 -304q-36 -129 -104 -207q-69 -80 -163 -115q-95 -37 -212 -37q-118 0 -211 37q-97 37 -163 115q-67 79 -103 207q-37 124 -37 304q0 178 37 304z
" />
    <glyph glyph-name="Odieresis" unicode="&#xd6;" horiz-adv-x="1513" 
d="M563 1753h-98v-166h98v166zM1049 1753h-99v-166h99v166zM163 424q35 -142 112 -241q78 -103 195 -154q120 -54 290 -54q167 0 288 54q115 50 194 154q74 97 111 241q33 133 33 315q0 181 -33 314q-38 146 -111 239q-81 103 -194 154q-119 53 -288 53q-172 0 -290 -53
q-115 -52 -195 -154q-76 -95 -112 -239q-36 -139 -36 -314t36 -315zM279 1043q36 127 103 204q66 77 163 115q97 37 211 37q113 0 212 -37q94 -37 163 -115q68 -76 104 -204q37 -131 37 -304q0 -174 -37 -304q-36 -129 -104 -207q-69 -80 -163 -115q-95 -37 -212 -37
q-118 0 -211 37q-97 37 -163 115q-67 79 -103 207q-37 124 -37 304q0 178 37 304z" />
    <glyph glyph-name="multiply" unicode="&#xd7;" horiz-adv-x="1036" 
d="M516 500l305 -305l68 69l-303 303l307 310l-66 65l-309 -307l-303 303l-70 -68l306 -305l-308 -307l66 -65z" />
    <glyph glyph-name="Oslash" unicode="&#xd8;" horiz-adv-x="1511" 
d="M179 366q53 -162 167 -260l-113 -194h105l84 143q67 -39 153 -59.5t185 -20.5q167 0 288 54q118 52 193 154q74 101 110 241q33 133 33 315q0 210 -46 358q-52 161 -150 255l123 211h-107l-92 -156q-140 92 -352 92q-172 0 -290 -53q-115 -52 -195 -154
q-76 -95 -112 -239q-36 -139 -36 -314q0 -218 52 -373zM279 1043q36 127 103 204q66 77 163 115q97 37 211 37q179 0 301 -86l-651 -1106q-83 83 -121 208q-43 135 -43 324q0 178 37 304zM1233 1045q39 -138 39 -306q0 -174 -37 -304t-104 -206q-70 -79 -163 -114
q-95 -37 -212 -37q-163 0 -279 72l647 1097q73 -81 109 -202z" />
    <glyph glyph-name="Ugrave" unicode="&#xd9;" horiz-adv-x="1449" 
d="M793 1587l-138 281h-123l170 -281h91zM198 331q15 -68 47.5 -130t99.5 -113q74 -56 171 -84.5t209 -28.5q111 0 205 28q96 28 172 84t108 122q30 63 42 115t12 114v1037h-109v-1039q-4 -185 -140 -278q-61 -41 -136 -61.5t-154 -20.5t-153 20.5t-135 61.5
q-138 92 -142 278v1039h-109v-1033q0 -58 12 -111z" />
    <glyph glyph-name="Uacute" unicode="&#xda;" horiz-adv-x="1449" 
d="M932 1868h-123l-137 -281h90zM198 331q15 -68 47.5 -130t99.5 -113q74 -56 171 -84.5t209 -28.5q111 0 205 28q96 28 172 84t108 122q30 63 42 115t12 114v1037h-109v-1039q-4 -185 -140 -278q-61 -41 -136 -61.5t-154 -20.5t-153 20.5t-135 61.5q-138 92 -142 278v1039
h-109v-1033q0 -58 12 -111z" />
    <glyph glyph-name="Ucircumflex" unicode="&#xdb;" horiz-adv-x="1449" 
d="M632 1715q80 103 95 126l191 -254h104l-231 307h-127l-234 -307h107q14 23 95 128zM198 331q15 -68 47.5 -130t99.5 -113q74 -56 171 -84.5t209 -28.5q111 0 205 28q96 28 172 84t108 122q30 63 42 115t12 114v1037h-109v-1039q-4 -185 -140 -278q-61 -41 -136 -61.5
t-154 -20.5t-153 20.5t-135 61.5q-138 92 -142 278v1039h-109v-1033q0 -58 12 -111z" />
    <glyph glyph-name="Udieresis" unicode="&#xdc;" horiz-adv-x="1449" 
d="M532 1753h-98v-166h98v166zM1018 1753h-98v-166h98v166zM198 331q15 -68 47.5 -130t99.5 -113q74 -56 171 -84.5t209 -28.5q111 0 205 28q96 28 172 84t108 122q30 63 42 115t12 114v1037h-109v-1039q-4 -185 -140 -278q-61 -41 -136 -61.5t-154 -20.5t-153 20.5
t-135 61.5q-138 92 -142 278v1039h-109v-1033q0 -58 12 -111z" />
    <glyph glyph-name="Yacute" unicode="&#xdd;" horiz-adv-x="1193" 
d="M817 1868h-123l-137 -281h90zM543 0h108v547l500 928h-127l-428 -811l-426 811h-127l500 -928v-547z" />
    <glyph glyph-name="Thorn" unicode="&#xde;" horiz-adv-x="1214" 
d="M305 309h367q107 0 190.5 39t141.5 108q54 65 82 148.5t28 175.5q0 91 -27 177q-27 83 -82.5 150.5t-118.5 98.5q-61 28 -109.5 38.5t-108.5 10.5h-363v308h-108v-1563h108v309zM657 1151q85 0 152 -31t109 -86q40 -52 60.5 -117.5t20.5 -134.5q0 -68 -20.5 -133.5
t-60.5 -117.5q-41 -55 -108 -86t-153 -31h-352v737h352z" />
    <glyph glyph-name="germandbls" unicode="&#xdf;" horiz-adv-x="1159" 
d="M279 1151q0 85 23 149.5t66 106.5q41 41 95.5 61.5t116.5 20.5q52 0 100 -16t85 -47q83 -72 83 -203q0 -174 -121 -273q-102 -84 -262 -102v-111q195 -6 318 -65q163 -78 167 -271q0 -177 -96 -259q-82 -70 -227 -70q-108 0 -258 39v-99q143 -35 266 -35q93 0 169.5 27
t133.5 80q121 113 121 317q-4 213 -159 306q-124 75 -322 94q79 14 147.5 49t119.5 89q53 55 82 128.5t29 161.5q0 86 -28 153t-80 113q-51 45 -118.5 68.5t-147.5 23.5q-82 0 -154.5 -25t-128.5 -75q-59 -53 -91 -129.5t-32 -175.5v-1182h103v1151z" />
    <glyph glyph-name="agrave" unicode="&#xe0;" horiz-adv-x="1105" 
d="M598 1260l-137 280h-123l170 -280h90zM190 63q93 -73 238 -73q101 0 210 46q95 38 202 116l8 -152h90v772q0 174 -97 263q-94 87 -272 87q-86 0 -191.5 -13t-193.5 -36v-98q97 24 194.5 38.5t170.5 14.5q144 0 219 -70q66 -63 66 -184v-151h-371q-169 0 -268 -77
q-109 -84 -109 -247q0 -156 104 -236zM247 459q49 44 98.5 61t119.5 17h369v-291q-76 -68 -180 -114q-115 -50 -201 -50q-59 0 -107 14q-63 18 -105 62t-44 145q0 111 50 156z" />
    <glyph glyph-name="aacute" unicode="&#xe1;" horiz-adv-x="1105" 
d="M733 1540h-123l-137 -280h90zM190 63q93 -73 238 -73q101 0 210 46q95 38 202 116l8 -152h90v772q0 174 -97 263q-94 87 -272 87q-86 0 -191.5 -13t-193.5 -36v-98q97 24 194.5 38.5t170.5 14.5q144 0 219 -70q66 -63 66 -184v-151h-371q-169 0 -268 -77
q-109 -84 -109 -247q0 -156 104 -236zM247 459q49 44 98.5 61t119.5 17h369v-291q-76 -68 -180 -114q-115 -50 -201 -50q-59 0 -107 14q-63 18 -105 62t-44 145q0 111 50 156z" />
    <glyph glyph-name="acircumflex" unicode="&#xe2;" horiz-adv-x="1105" 
d="M450 1387q80 103 95 126l190 -253h105l-232 307h-127l-233 -307h106q17 24 96 127zM190 63q93 -73 238 -73q101 0 210 46q95 38 202 116l8 -152h90v772q0 174 -97 263q-94 87 -272 87q-86 0 -191.5 -13t-193.5 -36v-98q97 24 194.5 38.5t170.5 14.5q144 0 219 -70
q66 -63 66 -184v-151h-371q-169 0 -268 -77q-109 -84 -109 -247q0 -156 104 -236zM247 459q49 44 98.5 61t119.5 17h369v-291q-76 -68 -180 -114q-115 -50 -201 -50q-59 0 -107 14q-63 18 -105 62t-44 145q0 111 50 156z" />
    <glyph glyph-name="atilde" unicode="&#xe3;" horiz-adv-x="1105" 
d="M265.5 1338.5q51.5 21.5 111.5 21.5q97 -6 156 -42q59 -38 105 -53.5t103 -15.5q118 0 213 82v103q-48 -39 -99.5 -60.5t-111.5 -21.5q-98 6 -155 42q-60 37 -105.5 52.5t-103.5 15.5q-62 0 -113 -21t-100 -61v-102q48 39 99.5 60.5zM190 63q93 -73 238 -73q101 0 210 46
q95 38 202 116l8 -152h90v772q0 174 -97 263q-94 87 -272 87q-86 0 -191.5 -13t-193.5 -36v-98q97 24 194.5 38.5t170.5 14.5q144 0 219 -70q66 -63 66 -184v-151h-371q-169 0 -268 -77q-109 -84 -109 -247q0 -156 104 -236zM247 459q49 44 98.5 61t119.5 17h369v-291
q-76 -68 -180 -114q-115 -50 -201 -50q-59 0 -107 14q-63 18 -105 62t-44 145q0 111 50 156z" />
    <glyph glyph-name="adieresis" unicode="&#xe4;" horiz-adv-x="1105" 
d="M354 1425h-98v-165h98v165zM840 1425h-99v-165h99v165zM190 63q93 -73 238 -73q101 0 210 46q95 38 202 116l8 -152h90v772q0 174 -97 263q-94 87 -272 87q-86 0 -191.5 -13t-193.5 -36v-98q97 24 194.5 38.5t170.5 14.5q144 0 219 -70q66 -63 66 -184v-151h-371
q-169 0 -268 -77q-109 -84 -109 -247q0 -156 104 -236zM247 459q49 44 98.5 61t119.5 17h369v-291q-76 -68 -180 -114q-115 -50 -201 -50q-59 0 -107 14q-63 18 -105 62t-44 145q0 111 50 156z" />
    <glyph glyph-name="aring" unicode="&#xe5;" horiz-adv-x="1105" 
d="M388 1287.5q54 -52.5 153 -54.5q98 2 152.5 55t54.5 142t-54 140.5t-153 53.5q-100 -2 -153.5 -53.5t-53.5 -140.5q0 -90 54 -142.5zM440 1520.5q32 36.5 101 38.5q68 -3 100.5 -39t32.5 -90q0 -57 -31.5 -92.5t-101.5 -37.5q-70 3 -101.5 38.5t-31.5 91.5q0 54 32 90.5z
M190 63q93 -73 238 -73q101 0 210 46q95 38 202 116l8 -152h90v772q0 174 -97 263q-94 87 -272 87q-86 0 -191.5 -13t-193.5 -36v-98q97 24 194.5 38.5t170.5 14.5q144 0 219 -70q66 -63 66 -184v-151h-371q-169 0 -268 -77q-109 -84 -109 -247q0 -156 104 -236zM247 459
q49 44 98.5 61t119.5 17h369v-291q-76 -68 -180 -114q-115 -50 -201 -50q-59 0 -107 14q-63 18 -105 62t-44 145q0 111 50 156z" />
    <glyph glyph-name="ae" unicode="&#xe6;" horiz-adv-x="1882" 
d="M113 156.5q29 -59.5 80 -96.5q48 -36 108 -54t125 -18q123 0 235 46q115 46 240 163q61 -115 173 -169q107 -53 274 -53q53 0 111 5q141 12 290 67v100q-90 -35 -190.5 -55t-194.5 -20q-100 0 -180 26q-77 25 -131.5 78.5t-75.5 119.5q-20 62 -27.5 112.5t-7.5 113.5h830
v58q1 100 -15 196q-19 99 -65 176t-113 111q-66 34 -123 46.5t-133 12.5q-156 0 -260 -63q-104 -62 -154 -174q-23 113 -114 177q-85 60 -228 60q-86 0 -191.5 -13t-193.5 -36v-98q95 24 193 38.5t172 14.5q144 0 219 -70q65 -62 65 -184v-166h-358q-131 0 -234 -49
q-69 -33 -111 -98.5t-44 -165.5q0 -79 29 -138.5zM1029 913q47 58 119.5 88.5t170.5 30.5q210 -4 285 -140q59 -108 59 -284h-723q0 194 89 305zM279 480q39 23 96.5 32.5t136.5 9.5h319v-10q6 -145 35 -238q-80 -83 -189 -138q-107 -56 -218 -56q-62 0 -111 15
q-65 19 -108 63t-45 143q0 128 84 179z" />
    <glyph glyph-name="ccedilla" unicode="&#xe7;" horiz-adv-x="1095" 
d="M125 410q28 -184 129 -287q60 -63 138.5 -97.5t166.5 -43.5l-78 -125v-35h68q76 1 133 -15q29 -9 44 -30t15 -46q0 -21 -9.5 -40.5t-27.5 -31.5q-40 -28 -151 -28q-99 4 -160 17v-76q63 -15 172 -16q132 0 199 45t67 133q0 72 -55 109.5t-160 37.5h-36l61 94h4
q90 0 174.5 14t173.5 42v100q-85 -29 -167.5 -44t-170.5 -15q-213 0 -325 132q-53 61 -79 149t-26 196q0 223 107 350q109 127 323 127q87 0 168.5 -15.5t169.5 -45.5v100q-86 29 -171 43t-177 14q-96 0 -188.5 -27t-149.5 -74q-56 -46 -87.5 -89t-56.5 -102
q-48 -111 -48 -281q0 -79 10 -139z" />
    <glyph glyph-name="egrave" unicode="&#xe8;" horiz-adv-x="1169" 
d="M655 1260l-137 280h-123l170 -280h90zM148 291q17 -58 42 -102t72 -95q50 -54 148.5 -86.5t222.5 -32.5q113 0 205.5 17.5t193.5 54.5v100q-90 -35 -190.5 -55t-194.5 -20q-100 0 -180 26q-76 25 -130.5 78.5t-75.5 119.5q-20 63 -28 114t-8 112h832v58q0 103 -16 196
q-17 97 -64 174.5t-114 112.5q-65 34 -123 46.5t-134 12.5q-127 0 -217 -37q-89 -36 -151 -108t-86 -155q-21 -75 -29 -134.5t-8 -132.5q0 -154 33 -264zM314 913q47 58 119.5 88.5t170.5 30.5q208 -4 285 -140q33 -58 45 -128.5t12 -155.5h-721q0 194 89 305z" />
    <glyph glyph-name="eacute" unicode="&#xe9;" horiz-adv-x="1169" 
d="M817 1540h-123l-137 -280h90zM148 291q17 -58 42 -102t72 -95q50 -54 148.5 -86.5t222.5 -32.5q113 0 205.5 17.5t193.5 54.5v100q-90 -35 -190.5 -55t-194.5 -20q-100 0 -180 26q-76 25 -130.5 78.5t-75.5 119.5q-20 63 -28 114t-8 112h832v58q0 103 -16 196
q-17 97 -64 174.5t-114 112.5q-65 34 -123 46.5t-134 12.5q-127 0 -217 -37q-89 -36 -151 -108t-86 -155q-21 -75 -29 -134.5t-8 -132.5q0 -154 33 -264zM314 913q47 58 119.5 88.5t170.5 30.5q208 -4 285 -140q33 -58 45 -128.5t12 -155.5h-721q0 194 89 305z" />
    <glyph glyph-name="ecircumflex" unicode="&#xea;" horiz-adv-x="1169" 
d="M489 1387q80 103 95 126l190 -253h105l-232 307h-127l-233 -307h106q17 24 96 127zM148 291q17 -58 42 -102t72 -95q50 -54 148.5 -86.5t222.5 -32.5q113 0 205.5 17.5t193.5 54.5v100q-90 -35 -190.5 -55t-194.5 -20q-100 0 -180 26q-76 25 -130.5 78.5t-75.5 119.5
q-20 63 -28 114t-8 112h832v58q0 103 -16 196q-17 97 -64 174.5t-114 112.5q-65 34 -123 46.5t-134 12.5q-127 0 -217 -37q-89 -36 -151 -108t-86 -155q-21 -75 -29 -134.5t-8 -132.5q0 -154 33 -264zM314 913q47 58 119.5 88.5t170.5 30.5q208 -4 285 -140
q33 -58 45 -128.5t12 -155.5h-721q0 194 89 305z" />
    <glyph glyph-name="edieresis" unicode="&#xeb;" horiz-adv-x="1169" 
d="M395 1425h-98v-165h98v165zM881 1425h-99v-165h99v165zM148 291q17 -58 42 -102t72 -95q50 -54 148.5 -86.5t222.5 -32.5q113 0 205.5 17.5t193.5 54.5v100q-90 -35 -190.5 -55t-194.5 -20q-100 0 -180 26q-76 25 -130.5 78.5t-75.5 119.5q-20 63 -28 114t-8 112h832v58
q0 103 -16 196q-17 97 -64 174.5t-114 112.5q-65 34 -123 46.5t-134 12.5q-127 0 -217 -37q-89 -36 -151 -108t-86 -155q-21 -75 -29 -134.5t-8 -132.5q0 -154 33 -264zM314 913q47 58 119.5 88.5t170.5 30.5q208 -4 285 -140q33 -58 45 -128.5t12 -155.5h-721q0 194 89 305
z" />
    <glyph glyph-name="igrave" unicode="&#xec;" horiz-adv-x="454" 
d="M262 1260l-137 280h-123l170 -280h90zM279 1098h-103v-1098h103v1098z" />
    <glyph glyph-name="iacute" unicode="&#xed;" horiz-adv-x="454" 
d="M444 1540h-122l-138 -280h90zM279 1098h-103v-1098h103v1098z" />
    <glyph glyph-name="icircumflex" unicode="&#xee;" horiz-adv-x="454" 
d="M134 1387q80 103 95 126l191 -253h104l-231 307h-127l-234 -307h107q15 23 95 127zM279 1098h-103v-1098h103v1098z" />
    <glyph glyph-name="idieresis" unicode="&#xef;" horiz-adv-x="454" 
d="M35 1425h-98v-165h98v165zM520 1425h-98v-165h98v165zM279 1098h-103v-1098h103v1098z" />
    <glyph glyph-name="eth" unicode="&#xf0;" horiz-adv-x="1290" 
d="M160 274q23 -58 54 -100.5t87 -92.5q56 -49 149 -77.5t193 -28.5t194 28.5t150 77.5q57 50 88 93t54 100q47 118 47 275q0 114 -32 239q-27 101 -84 223q-46 97 -121 204q-60 84 -142 176l121 69l-44 68l-135 -76q-62 62 -121 111h-139q90 -70 178 -158l-129 -74l43 -69
l144 81q151 -164 219 -305q-63 43 -138 63.5t-153 20.5q-100 0 -193 -28t-149 -77t-87 -92t-54 -100q-47 -119 -47 -276t47 -275zM249 746q26 88 78 150q110 130 316 130q209 0 319 -130q103 -122 103 -347q0 -224 -103 -348q-53 -64 -133.5 -97.5t-185.5 -33.5
q-208 0 -316 131q-104 125 -104 348q0 109 26 197z" />
    <glyph glyph-name="ntilde" unicode="&#xf1;" horiz-adv-x="1241" 
d="M347.5 1338.5q51.5 21.5 111.5 21.5q98 -6 156 -42q59 -37 105 -53t103 -16q118 0 213 82v103q-48 -39 -99.5 -60.5t-111.5 -21.5q-98 6 -155 42q-60 37 -105.5 52.5t-103.5 15.5q-62 0 -113 -21t-100 -61v-102q48 39 99.5 60.5zM281 860q136 79 244 120q125 46 212 46
q117 -2 174.5 -59.5t57.5 -163.5v-803h104v819q0 142 -77 222q-78 81 -234 81q-108 0 -234 -49q-107 -42 -252 -123v148h-100v-1098h105v860z" />
    <glyph glyph-name="ograve" unicode="&#xf2;" horiz-adv-x="1286" 
d="M694 1260l-137 280h-123l170 -280h90zM160 274q23 -58 54 -100.5t87 -92.5q56 -49 149 -77.5t193 -28.5t194 28.5t150 77.5q57 50 88 93t54 100q47 118 47 275t-47 276q-23 57 -54.5 99.5t-87.5 92.5q-56 49 -149.5 77t-194.5 28q-100 0 -193 -28t-149 -77t-87 -92
t-54 -100q-47 -119 -47 -276t47 -275zM327 898q53 64 133 97t185 33q209 0 317 -130q103 -125 103 -349t-103 -348q-108 -131 -317 -131q-105 0 -185 33.5t-133 97.5q-104 125 -104 348t104 349z" />
    <glyph glyph-name="oacute" unicode="&#xf3;" horiz-adv-x="1286" 
d="M848 1540h-123l-137 -280h90zM160 274q23 -58 54 -100.5t87 -92.5q56 -49 149 -77.5t193 -28.5t194 28.5t150 77.5q57 50 88 93t54 100q47 118 47 275t-47 276q-23 57 -54.5 99.5t-87.5 92.5q-56 49 -149.5 77t-194.5 28q-100 0 -193 -28t-149 -77t-87 -92t-54 -100
q-47 -119 -47 -276t47 -275zM327 898q53 64 133 97t185 33q209 0 317 -130q103 -125 103 -349t-103 -348q-108 -131 -317 -131q-105 0 -185 33.5t-133 97.5q-104 125 -104 348t104 349z" />
    <glyph glyph-name="ocircumflex" unicode="&#xf4;" horiz-adv-x="1286" 
d="M552 1387q80 103 95 126l191 -253h104l-231 307h-127l-234 -307h107q15 23 95 127zM160 274q23 -58 54 -100.5t87 -92.5q56 -49 149 -77.5t193 -28.5t194 28.5t150 77.5q57 50 88 93t54 100q47 118 47 275t-47 276q-23 57 -54.5 99.5t-87.5 92.5q-56 49 -149.5 77
t-194.5 28q-100 0 -193 -28t-149 -77t-87 -92t-54 -100q-47 -119 -47 -276t47 -275zM327 898q53 64 133 97t185 33q209 0 317 -130q103 -125 103 -349t-103 -348q-108 -131 -317 -131q-105 0 -185 33.5t-133 97.5q-104 125 -104 348t104 349z" />
    <glyph glyph-name="otilde" unicode="&#xf5;" horiz-adv-x="1286" 
d="M365.5 1338.5q51.5 21.5 111.5 21.5q97 -6 156 -42q59 -37 105.5 -53t103.5 -16q118 0 213 82v103q-48 -39 -99.5 -60.5t-111.5 -21.5q-99 6 -156 42q-59 37 -105 52.5t-104 15.5q-62 0 -113 -21t-100 -61v-102q48 39 99.5 60.5zM160 274q23 -58 54 -100.5t87 -92.5
q56 -49 149 -77.5t193 -28.5t194 28.5t150 77.5q57 50 88 93t54 100q47 118 47 275t-47 276q-23 57 -54.5 99.5t-87.5 92.5q-56 49 -149.5 77t-194.5 28q-100 0 -193 -28t-149 -77t-87 -92t-54 -100q-47 -119 -47 -276t47 -275zM327 898q53 64 133 97t185 33q209 0 317 -130
q103 -125 103 -349t-103 -348q-108 -131 -317 -131q-105 0 -185 33.5t-133 97.5q-104 125 -104 348t104 349z" />
    <glyph glyph-name="odieresis" unicode="&#xf6;" horiz-adv-x="1286" 
d="M451 1425h-99v-165h99v165zM936 1425h-98v-165h98v165zM160 274q23 -58 54 -100.5t87 -92.5q56 -49 149 -77.5t193 -28.5t194 28.5t150 77.5q57 50 88 93t54 100q47 118 47 275t-47 276q-23 57 -54.5 99.5t-87.5 92.5q-56 49 -149.5 77t-194.5 28q-100 0 -193 -28
t-149 -77t-87 -92t-54 -100q-47 -119 -47 -276t47 -275zM327 898q53 64 133 97t185 33q209 0 317 -130q103 -125 103 -349t-103 -348q-108 -131 -317 -131q-105 0 -185 33.5t-133 97.5q-104 125 -104 348t104 349z" />
    <glyph glyph-name="divide" unicode="&#xf7;" horiz-adv-x="1296" 
d="M682 1024h-90v-180h90v180zM1130 596h-966v-96h966v96zM682 254h-90v-191h90v191z" />
    <glyph glyph-name="oslash" unicode="&#xf8;" horiz-adv-x="1286" 
d="M172 244q59 -120 152 -181l-164 -301h102l141 261q100 -48 240 -48q100 0 194 28.5t150 77.5q57 50 88 93t54 100q47 118 47 275q0 184 -63 310q-57 112 -157 177l162 303h-102l-142 -260q-98 43 -231 43q-100 0 -193 -28t-149 -77t-87 -92t-54 -100q-47 -119 -47 -276
q0 -185 59 -305zM249 746q26 88 78 150q53 63 133.5 96.5t184.5 33.5q103 0 182 -35l-450 -833q-73 56 -115 162q-39 99 -39 229q0 109 26 197zM1024 781q41 -102 41 -232q0 -225 -103 -347q-108 -130 -317 -130q-115 0 -194 39l450 831q83 -62 123 -161z" />
    <glyph glyph-name="ugrave" unicode="&#xf9;" horiz-adv-x="1239" 
d="M690 1260l-137 280h-123l170 -280h90zM245 56q78 -81 234 -81q102 0 233 47q56 20 116.5 50t136.5 73l12 -145h86v1098h-102v-860q-130 -79 -247 -122.5t-210 -43.5q-117 2 -175.5 59.5t-58.5 163.5v803h-102v-819q0 -143 77 -223z" />
    <glyph glyph-name="uacute" unicode="&#xfa;" horiz-adv-x="1239" 
d="M809 1540h-123l-137 -280h90zM245 56q78 -81 234 -81q102 0 233 47q56 20 116.5 50t136.5 73l12 -145h86v1098h-102v-860q-130 -79 -247 -122.5t-210 -43.5q-117 2 -175.5 59.5t-58.5 163.5v803h-102v-819q0 -143 77 -223z" />
    <glyph glyph-name="ucircumflex" unicode="&#xfb;" horiz-adv-x="1239" 
d="M521 1387q80 103 95 126l191 -253h104l-231 307h-127l-234 -307h107q15 23 95 127zM245 56q78 -81 234 -81q102 0 233 47q56 20 116.5 50t136.5 73l12 -145h86v1098h-102v-860q-130 -79 -247 -122.5t-210 -43.5q-117 2 -175.5 59.5t-58.5 163.5v803h-102v-819
q0 -143 77 -223z" />
    <glyph glyph-name="udieresis" unicode="&#xfc;" horiz-adv-x="1239" 
d="M422 1425h-98v-165h98v165zM907 1425h-98v-165h98v165zM245 56q78 -81 234 -81q102 0 233 47q56 20 116.5 50t136.5 73l12 -145h86v1098h-102v-860q-130 -79 -247 -122.5t-210 -43.5q-117 2 -175.5 59.5t-58.5 163.5v803h-102v-819q0 -143 77 -223z" />
    <glyph glyph-name="yacute" unicode="&#xfd;" horiz-adv-x="1081" 
d="M758 1540h-123l-137 -280h90zM520 0l-139 -420h113l499 1518h-114l-324 -987h-31l-325 987h-115l369 -1098h67z" />
    <glyph glyph-name="thorn" unicode="&#xfe;" horiz-adv-x="1234" 
d="M281 20q76 -19 163 -31t158 -12q57 0 113 8q66 9 133.5 35t113.5 73q48 50 75 96t47 106q36 114 36 276q0 71 -8 140q-24 183 -109 287q-53 63 -124 93.5t-154 30.5q-207 0 -446 -164v517h-103v-1895h105v440zM396 938q159 88 304 88q67 0 125 -26q56 -27 98 -82t58 -121
t22.5 -118.5t6.5 -111.5q0 -56 -6 -109q-10 -74 -28.5 -136.5t-62.5 -119.5q-104 -132 -313 -132q-115 0 -319 47v749q54 37 115 72z" />
    <glyph glyph-name="ydieresis" unicode="&#xff;" horiz-adv-x="1081" 
d="M344 1425h-98v-165h98v165zM829 1425h-98v-165h98v165zM520 0l-139 -420h113l499 1518h-114l-324 -987h-31l-325 987h-115l369 -1098h67z" />
    <glyph glyph-name="OE" unicode="&#x152;" horiz-adv-x="2076" 
d="M163 424q35 -142 112 -241q78 -103 195 -154q120 -54 290 -54q63 0 146 6t157 19h897v100h-795v588h707v100h-707v586h795v101h-903q-168 24 -297 24q-172 0 -290 -53q-115 -52 -195 -154q-76 -95 -112 -239q-36 -139 -36 -314t36 -315zM282 1051q40 129 110 205
q71 75 170 111q95 34 216 34q135 0 279 -37v-1255q-138 -33 -275 -33q-127 0 -219 34q-102 36 -171 111q-71 77 -110 205q-40 129 -40 313q0 181 40 312z" />
    <glyph glyph-name="oe" unicode="&#x153;" horiz-adv-x="2121" 
d="M159 275q22 -57 53.5 -101t86.5 -91q56 -47 150.5 -75t193.5 -28q160 0 277 62q132 71 196 234q49 -154 167 -229q113 -72 302 -72q54 0 111 5q136 12 289 67v100q-95 -34 -195 -54.5t-191 -20.5q-100 0 -180 26q-76 25 -130.5 78.5t-75.5 119.5q-20 62 -27.5 112.5
t-7.5 113.5h831v58q1 100 -15 196q-18 98 -65.5 175t-113.5 112q-65 34 -122 46.5t-134 12.5q-172 0 -285 -79q-106 -75 -156 -222q-57 164 -197 240q-115 63 -278 63q-101 0 -194.5 -28t-149.5 -77q-57 -50 -88 -92.5t-52 -99.5q-46 -121 -46 -276q0 -159 46 -276z
M1267 913q97 119 289 119q208 -4 285 -140q33 -58 45 -128.5t12 -155.5h-720q0 194 89 305zM326 900q51 63 131.5 96.5t185.5 33.5q211 0 319 -130q101 -123 101 -349q0 -227 -101 -348q-108 -131 -319 -131q-105 0 -185.5 33.5t-131.5 97.5q-103 125 -103 348
q0 222 103 349z" />
    <glyph glyph-name="Ydieresis" unicode="&#x178;" horiz-adv-x="1193" 
d="M403 1753h-98v-166h98v166zM889 1753h-98v-166h98v166zM543 0h108v547l500 928h-127l-428 -811l-426 811h-127l500 -928v-547z" />
    <glyph glyph-name="circumflex" unicode="&#x2c6;" horiz-adv-x="1392" 
d="M599 1387q80 103 95 126l191 -253h104l-231 307h-127l-234 -307h107q15 23 95 127z" />
    <glyph glyph-name="tilde" unicode="&#x2dc;" horiz-adv-x="1437" 
d="M431.5 1338.5q51.5 21.5 111.5 21.5q97 -6 156 -42q59 -37 105 -53t103 -16q118 0 213 82v103q-48 -39 -99.5 -60.5t-111.5 -21.5q-98 6 -155 42q-60 37 -105.5 52.5t-103.5 15.5q-62 0 -113 -21t-100 -61v-102q48 39 99.5 60.5z" />
    <glyph glyph-name="uni2000" unicode="&#x2000;" horiz-adv-x="947" 
 />
    <glyph glyph-name="uni2001" unicode="&#x2001;" horiz-adv-x="1894" 
 />
    <glyph glyph-name="uni2002" unicode="&#x2002;" horiz-adv-x="947" 
 />
    <glyph glyph-name="uni2003" unicode="&#x2003;" horiz-adv-x="1894" 
 />
    <glyph glyph-name="uni2004" unicode="&#x2004;" horiz-adv-x="631" 
 />
    <glyph glyph-name="uni2005" unicode="&#x2005;" horiz-adv-x="473" 
 />
    <glyph glyph-name="uni2006" unicode="&#x2006;" horiz-adv-x="315" 
 />
    <glyph glyph-name="uni2007" unicode="&#x2007;" horiz-adv-x="315" 
 />
    <glyph glyph-name="uni2008" unicode="&#x2008;" horiz-adv-x="236" 
 />
    <glyph glyph-name="uni2009" unicode="&#x2009;" horiz-adv-x="378" 
 />
    <glyph glyph-name="uni200A" unicode="&#x200a;" horiz-adv-x="105" 
 />
    <glyph glyph-name="uni2010" unicode="&#x2010;" horiz-adv-x="1044" 
d="M885 588h-725v-96h725v96z" />
    <glyph glyph-name="uni2011" unicode="&#x2011;" horiz-adv-x="1044" 
d="M885 588h-725v-96h725v96z" />
    <glyph glyph-name="figuredash" unicode="&#x2012;" horiz-adv-x="1044" 
d="M885 588h-725v-96h725v96z" />
    <glyph glyph-name="endash" unicode="&#x2013;" horiz-adv-x="1226" 
d="M1059 592h-891v-100h891v100z" />
    <glyph glyph-name="emdash" unicode="&#x2014;" horiz-adv-x="1685" 
d="M1518 592h-1350v-100h1350v100z" />
    <glyph glyph-name="quoteleft" unicode="&#x2018;" horiz-adv-x="391" 
d="M154 1157h86v350h-47q-24 -50 -39 -117.5t-15 -123.5q3 -81 15 -109z" />
    <glyph glyph-name="quoteright" unicode="&#x2019;" horiz-adv-x="380" 
d="M236 1256q13 62 13 129q0 70 -13 102h-86v-350h47q24 51 39 119z" />
    <glyph glyph-name="quotesinglbase" unicode="&#x201a;" horiz-adv-x="405" 
d="M242 -53q13 64 13 130q0 69 -13 101h-86v-350h47q24 51 39 119z" />
    <glyph glyph-name="quotedblleft" unicode="&#x201c;" horiz-adv-x="604" 
d="M154 1157h86v350h-47q-24 -50 -39 -117.5t-15 -123.5q3 -81 15 -109zM367 1157h86v350h-47q-24 -50 -39 -117.5t-15 -123.5q3 -81 15 -109z" />
    <glyph glyph-name="quotedblright" unicode="&#x201d;" horiz-adv-x="593" 
d="M236 1256q13 62 13 129q0 70 -13 102h-86v-350h47q24 51 39 119zM449 1256q13 62 13 129q0 70 -13 102h-87v-350h48q24 51 39 119z" />
    <glyph glyph-name="quotedblbase" unicode="&#x201e;" horiz-adv-x="618" 
d="M242 -55q13 64 13 130q0 69 -13 101h-86v-350h47q24 51 39 119zM455 -55q13 64 13 130q0 69 -13 101h-86v-350h47q24 51 39 119z" />
    <glyph glyph-name="bullet" unicode="&#x2022;" horiz-adv-x="600" 
d="M395 766h-190v-186h190v186z" />
    <glyph glyph-name="ellipsis" unicode="&#x2026;" horiz-adv-x="1499" 
d="M252 178h-96v-178h96v178zM834 178h-99v-178h99v178zM1343 178h-94v-178h94v178z" />
    <glyph glyph-name="uni202F" unicode="&#x202f;" horiz-adv-x="378" 
 />
    <glyph glyph-name="guilsinglleft" unicode="&#x2039;" horiz-adv-x="591" 
d="M481 94l-272 461l272 461h-108l-269 -461l269 -461h108z" />
    <glyph glyph-name="guilsinglright" unicode="&#x203a;" horiz-adv-x="591" 
d="M487 555l-268 461h-108l272 -461l-272 -461h108z" />
    <glyph glyph-name="uni205F" unicode="&#x205f;" horiz-adv-x="473" 
 />
    <glyph glyph-name="Euro" unicode="&#x20ac;" horiz-adv-x="1472" 
d="M382 382q33 -104 101 -191q66 -85 153 -135q59 -35 139.5 -58t203.5 -23q84 0 179 13t190 39l-2 106q-191 -53 -367 -53q-92 0 -173 24q-80 23 -145.5 71.5t-102.5 109.5q-34 57 -53 105t-32 106h602v96h-624q-9 66 -9 140q0 78 9 142h624v97h-608q12 56 30 106
q50 141 158 221q132 97 334 97q156 0 357 -52l2 109q-192 47 -369 47q-137 0 -218 -27q-77 -26 -123.5 -52.5t-88.5 -62.5q-78 -67 -127 -166q-46 -90 -72 -220h-239v-97h225q-6 -63 -6 -135q0 -75 6 -147h-225v-96h241q13 -60 30 -114z" />
    <glyph glyph-name="trademark" unicode="&#x2122;" horiz-adv-x="1445" 
d="M322 926h71v477h189v72h-445v-72h185v-477zM745 1380l185 -456h86l186 456v-454h72v549h-105l-190 -471h-10l-191 471h-104v-549h71v454z" />
    <glyph glyph-name="uni25FC" unicode="&#x25fc;" horiz-adv-x="1095" 
d="M1096 1096h-1096v-1096h1096v1096z" />
    </font>
</defs>
</svg>
